<?xml version="1.0" standalone="no"?>
<!DOCTYPE svg PUBLIC "-//W3C//DTD SVG 1.1//EN" "http://www.w3.org/Graphics/SVG/1.1/DTD/svg11.dtd" >
<svg xmlns="http://www.w3.org/2000/svg" xmlns:xlink="http://www.w3.org/1999/xlink" version="1.1">
<metadata>
Created by FontForge 20170731 at Wed Aug 16 22:19:54 2017
 By Aleksey,,,
Copyright (c) 2015 by Reto Moser. All rights reserved.
</metadata>
<defs>
<font id="GTEestiDisplay-Bold" horiz-adv-x="600" >
  <font-face 
    font-family="GT Eesti Display Bold"
    font-weight="700"
    font-stretch="normal"
    units-per-em="1000"
    panose-1="0 0 8 0 0 0 0 0 0 0"
    ascent="750"
    descent="-250"
    x-height="462"
    cap-height="700"
    bbox="-453 -252 1202 900"
    underline-thickness="50"
    underline-position="-200"
    unicode-range="U+0020-FB02"
  />
<missing-glyph horiz-adv-x="770" 
d="M385 -15q-158 0 -261.5 103.5t-103.5 261.5q0 159 103.5 262t261.5 103q159 0 262 -103t103 -262q0 -158 -103 -261.5t-262 -103.5zM385 10q148 0 245 98t97 247l-51 65l-70 -30l-68 90l-79 -44l-74 118l-74 -118l-79 44l-68 -90l-70 30l-51 -65q0 -149 97 -247t245 -98z
M282 318q-15 0 -25 10t-10 25t10 25t25 10t25 -10t10 -25t-10 -25t-25 -10zM487 318q-15 0 -25 10t-10 25t10 25t25 10t25 -10t10 -25t-10 -25t-25 -10zM343 255l36 101q2 9 11 5q9 -2 5 -11l-28 -78h34q9 0 9 -9q0 -8 -9 -8h-58zM188 171q-30 0 -49.5 19.5t-19.5 49.5
t19.5 49.5t49.5 19.5t49.5 -19.5t19.5 -49.5t-19.5 -49.5t-49.5 -19.5zM581 171q-30 0 -49.5 19.5t-19.5 49.5t19.5 49.5t49.5 19.5t49.5 -19.5t19.5 -49.5t-19.5 -49.5t-49.5 -19.5zM385 193q-46 0 -62 -30q-3 -6 -9 -6q-8 0 -8 9q0 17 24.5 31t54.5 14t54.5 -14t24.5 -31
q0 -9 -8 -9q-6 0 -9 6q-16 30 -62 30z" />
    <glyph glyph-name="fi" unicode="fi" horiz-adv-x="599" 
d="M92 489q0 114 54.5 167.5t167.5 53.5h31v-140h-13q-50 0 -69.5 -18t-19.5 -68v-22h98v-126h-98v-336h-151v336h-81v126h81v27zM396 699h162v-152h-162v152zM402 0v462h151v-462h-151z" />
    <glyph glyph-name="fl" unicode="fl" horiz-adv-x="599" 
d="M92 489q0 114 54.5 167.5t167.5 53.5h31v-140h-13q-50 0 -69.5 -18t-19.5 -68v-22h98v-126h-98v-336h-151v336h-81v126h81v27zM402 700h151v-700h-151v700z" />
    <glyph glyph-name="f_f" unicode="ff" horiz-adv-x="715" 
d="M92 489q0 114 54.5 167.5t167.5 53.5h31v-140h-13q-50 0 -69.5 -18t-19.5 -68v-22h98v-126h-98v-336h-151v336h-81v126h81v27zM692 570q-50 0 -69.5 -18t-19.5 -68v-22h98v-126h-98v-336h-151v336h-81v126h81v27q0 114 54.5 167.5t167.5 53.5h31v-140h-13z" />
    <glyph glyph-name="f_f_i" unicode="ffi" horiz-adv-x="959" 
d="M92 489q0 114 54.5 167.5t167.5 53.5h31v-140h-13q-50 0 -69.5 -18t-19.5 -68v-22h98v-126h-98v-336h-151v336h-81v126h81v27zM452 489q0 114 54.5 167.5t167.5 53.5h31v-140h-13q-50 0 -69.5 -18t-19.5 -68v-22h98v-126h-98v-336h-151v336h-81v126h81v27zM756 699h162
v-152h-162v152zM762 0v462h151v-462h-151z" />
    <glyph glyph-name="f_f_l" unicode="ffl" horiz-adv-x="959" 
d="M92 489q0 114 54.5 167.5t167.5 53.5h31v-140h-13q-50 0 -69.5 -18t-19.5 -68v-22h98v-126h-98v-336h-151v336h-81v126h81v27zM452 489q0 114 54.5 167.5t167.5 53.5h31v-140h-13q-50 0 -69.5 -18t-19.5 -68v-22h98v-126h-98v-336h-151v336h-81v126h81v27zM762 700h151
v-700h-151v700z" />
    <glyph glyph-name=".notdef" horiz-adv-x="770" 
d="M385 -15q-158 0 -261.5 103.5t-103.5 261.5q0 159 103.5 262t261.5 103q159 0 262 -103t103 -262q0 -158 -103 -261.5t-262 -103.5zM385 10q148 0 245 98t97 247l-51 65l-70 -30l-68 90l-79 -44l-74 118l-74 -118l-79 44l-68 -90l-70 30l-51 -65q0 -149 97 -247t245 -98z
M282 318q-15 0 -25 10t-10 25t10 25t25 10t25 -10t10 -25t-10 -25t-25 -10zM487 318q-15 0 -25 10t-10 25t10 25t25 10t25 -10t10 -25t-10 -25t-25 -10zM343 255l36 101q2 9 11 5q9 -2 5 -11l-28 -78h34q9 0 9 -9q0 -8 -9 -8h-58zM188 171q-30 0 -49.5 19.5t-19.5 49.5
t19.5 49.5t49.5 19.5t49.5 -19.5t19.5 -49.5t-19.5 -49.5t-49.5 -19.5zM581 171q-30 0 -49.5 19.5t-19.5 49.5t19.5 49.5t49.5 19.5t49.5 -19.5t19.5 -49.5t-19.5 -49.5t-49.5 -19.5zM385 193q-46 0 -62 -30q-3 -6 -9 -6q-8 0 -8 9q0 17 24.5 31t54.5 14t54.5 -14t24.5 -31
q0 -9 -8 -9q-6 0 -9 6q-16 30 -62 30z" />
    <glyph glyph-name=".null" horiz-adv-x="0" 
 />
    <glyph glyph-name="nonmarkingreturn" horiz-adv-x="333" 
 />
    <glyph glyph-name="space" unicode=" " horiz-adv-x="263" 
 />
    <glyph glyph-name="exclam" unicode="!" horiz-adv-x="327" 
d="M110 229l-33 471h173l-32 -471h-108zM244 161v-161h-160v161h160z" />
    <glyph glyph-name="quotedbl" unicode="&#x22;" horiz-adv-x="354" 
d="M73 462l-23 253h111l-23 -253h-65zM216 462l-23 253h111l-23 -253h-65z" />
    <glyph glyph-name="numbersign" unicode="#" horiz-adv-x="644" 
d="M594 441h-118l-30 -164h107v-68h-119l-38 -209h-73l38 209h-131l-38 -209h-73l38 209h-107v68h119l30 164h-108v68h120l35 191h73l-35 -191h131l35 191h73l-35 -191h106v-68zM373 277l30 164h-131l-30 -164h131z" />
    <glyph glyph-name="dollar" unicode="$" horiz-adv-x="561" 
d="M531 195q0 -94 -61.5 -149.5t-167.5 -60.5v-62h-28v62q-114 3 -179 65.5t-65 163.5h155q7 -87 89 -93v158q-95 38 -130 63q-82 58 -82 162q0 86 58 134.5t154 51.5v72h28v-72q100 -5 159.5 -60t59.5 -159h-154q-3 73 -65 81v-127q5 -2 29 -11t32 -12.5t30 -13t31 -16
t27.5 -18.5t27 -22t20.5 -25.5t17.5 -31.5t10 -36.5t4.5 -43.5zM211 501q0 -36 63 -65v117q-63 -5 -63 -52zM302 120q79 6 79 64q0 28 -20 47t-59 36v-147z" />
    <glyph glyph-name="percent" unicode="%" horiz-adv-x="793" 
d="M215 690q72 0 118 -45t46 -120q0 -74 -46 -119t-118 -45t-118.5 45t-46.5 119q0 75 46.5 120t118.5 45zM157 0l396 675h78l-396 -675h-78zM215 619q-40 0 -65 -25.5t-25 -68.5q0 -42 25.5 -68t64.5 -26t64 26t25 68q0 43 -25 68.5t-64 25.5zM579 324q72 0 118 -45
t46 -119q0 -75 -46 -120t-118 -45t-118.5 45t-46.5 120q0 74 46.5 119t118.5 45zM579 254q-39 0 -64 -26t-25 -68q0 -43 25 -68.5t64 -25.5t64 25.5t25 68.5q0 42 -25 68t-64 26z" />
    <glyph glyph-name="ampersand" unicode="&#x26;" horiz-adv-x="729" 
d="M703 309q-63 -108 -112 -169l104 -140h-178l-30 41q-82 -56 -186 -56q-118 0 -191.5 62t-73.5 181q0 77 40 134.5t114 79.5q-27 50 -27 101q0 69 46.5 108t136.5 39q76 0 167 -29l-39 -131q-73 23 -107 23q-43 0 -43 -34q0 -19 21 -48l155 -208q32 45 76 121zM298 134
q51 0 98 28l-125 167q-37 -9 -59 -34.5t-22 -61.5q0 -46 29.5 -72.5t78.5 -26.5z" />
    <glyph glyph-name="quotesingle" unicode="'" horiz-adv-x="221" 
d="M171 715l-23 -253h-75l-23 253h121z" />
    <glyph glyph-name="parenleft" unicode="(" horiz-adv-x="334" 
d="M203 787l106 -64q-61 -94 -97 -191.5t-36 -226.5q0 -234 133 -456l-107 -64q-72 123 -112.5 242.5t-40.5 277.5q0 152 39.5 258.5t114.5 223.5z" />
    <glyph glyph-name="parenright" unicode=")" horiz-adv-x="334" 
d="M131 -215l-107 64q133 218 133 456q0 130 -36 227.5t-97 190.5l107 64q75 -117 114 -224t39 -258q0 -158 -40.5 -277.5t-112.5 -242.5z" />
    <glyph glyph-name="asterisk" unicode="*" horiz-adv-x="435" 
d="M405 542l-123 -28l83 -94l-83 -61l-64 109l-65 -110l-83 62l83 94l-123 28l32 97l116 -50l-12 126h103l-12 -126l116 50z" />
    <glyph glyph-name="plus" unicode="+" 
d="M334 541v-212h211v-63h-211v-212h-68v212h-211v63h211v212h68z" />
    <glyph glyph-name="comma" unicode="," horiz-adv-x="243" 
d="M201 161v-161l-91 -164h-64l57 164h-62v161h160z" />
    <glyph glyph-name="hyphen" unicode="-" horiz-adv-x="366" 
d="M326 333v-135h-286v135h286z" />
    <glyph glyph-name="period" unicode="." horiz-adv-x="243" 
d="M201 161v-161h-160v161h160z" />
    <glyph glyph-name="slash" unicode="/" horiz-adv-x="638" 
d="M502 791l106 -57l-472 -859l-106 58z" />
    <glyph glyph-name="zero" unicode="0" horiz-adv-x="621" 
d="M310 690q134 0 206.5 -91.5t72.5 -260.5t-73 -261t-206 -92t-206 92t-73 261t72.5 260.5t206.5 91.5zM310 547q-58 0 -90 -54.5t-32 -154.5t32 -155t90 -55t90.5 55t32.5 155t-32 154.5t-91 54.5z" />
    <glyph glyph-name="one" unicode="1" horiz-adv-x="339" 
d="M239 675v-675h-153v530h-38v145h191z" />
    <glyph glyph-name="two" unicode="2" horiz-adv-x="534" 
d="M37 0v119l227 225q46 46 65 76.5t19 59.5q0 34 -20 52.5t-57 18.5q-88 0 -88 -89h-153q0 108 64.5 168t180.5 60q108 0 169 -53t61 -146q0 -58 -27.5 -108t-93.5 -112l-146 -139l269 2v-134h-470z" />
    <glyph glyph-name="three" unicode="3" horiz-adv-x="544" 
d="M264 690q112 0 172.5 -46t60.5 -132q0 -59 -31.5 -98.5t-88.5 -52.5v-2q68 -11 104.5 -53.5t36.5 -112.5q0 -98 -66 -153t-184 -55q-124 0 -190 57t-66 164h158q6 -82 99 -82q92 0 92 85q0 45 -30.5 63t-104.5 18h-23v114h23q56 0 81.5 19t25.5 60q0 68 -75 68
q-37 0 -58 -18t-22 -49h-155q1 98 63.5 152t177.5 54z" />
    <glyph glyph-name="four" unicode="4" horiz-adv-x="581" 
d="M551 244v-131h-61v-113h-142v113h-333v115l318 447h157v-431h61zM169 244h179v247h-4z" />
    <glyph glyph-name="five" unicode="5" horiz-adv-x="547" 
d="M302 447q100 0 160 -60.5t60 -160.5q0 -112 -71.5 -176.5t-196.5 -64.5q-139 0 -238 85l89 121q67 -67 148 -67q52 0 81.5 28.5t29.5 78.5q0 46 -25.5 72.5t-71.5 26.5q-58 0 -90 -50h-119l35 395h362v-134h-255l-13 -127h3q42 33 112 33z" />
    <glyph glyph-name="six" unicode="6" horiz-adv-x="572" 
d="M292 -15q-125 0 -198 70t-73 190q0 135 118 275l132 159h182l-236 -268l3 -2q52 47 115 47q97 0 157 -62.5t60 -163.5q0 -108 -72.5 -176.5t-187.5 -68.5zM287 124q48 0 78.5 29t30.5 75q0 47 -30 75.5t-79 28.5t-79 -29t-30 -75t30.5 -75t78.5 -29z" />
    <glyph glyph-name="seven" unicode="7" horiz-adv-x="489" 
d="M473 675v-135l-263 -540h-160l265 534h-291v141h449z" />
    <glyph glyph-name="eight" unicode="8" horiz-adv-x="586" 
d="M293 -15q-122 0 -190 52.5t-68 146.5q0 66 35 112t94 60v3q-51 14 -80 54t-29 95q0 85 64 133.5t174 48.5q111 0 175 -48.5t64 -133.5q0 -55 -29.5 -95t-80.5 -54v-3q60 -13 94.5 -59.5t34.5 -112.5q0 -94 -68 -146.5t-190 -52.5zM293 418q35 0 56.5 20t21.5 51
q0 32 -21.5 52t-56.5 20t-56.5 -20t-21.5 -52q0 -31 21.5 -51t56.5 -20zM293 120q43 0 69.5 25.5t26.5 66.5t-27 67t-69 26t-69 -26t-27 -67t26.5 -66.5t69.5 -25.5z" />
    <glyph glyph-name="nine" unicode="9" horiz-adv-x="556" 
d="M100 0l235 251l-2 2q-55 -35 -109 -35q-89 0 -151 67.5t-62 163.5q0 106 74 173.5t190 67.5q122 0 193.5 -69.5t71.5 -187.5q0 -150 -143 -307l-114 -126h-183zM276 341q48 0 78.5 29t30.5 75t-31 75.5t-78 29.5t-77.5 -29.5t-30.5 -75.5t30.5 -75t77.5 -29z" />
    <glyph glyph-name="colon" unicode=":" horiz-adv-x="243" 
d="M201 462v-161h-160v161h160zM201 161v-161h-160v161h160z" />
    <glyph glyph-name="semicolon" unicode=";" horiz-adv-x="243" 
d="M201 462v-161h-160v161h160zM201 161v-161l-91 -164h-64l57 164h-62v161h160z" />
    <glyph glyph-name="less" unicode="&#x3c;" 
d="M534 543v-76l-391 -168l391 -167v-76l-468 208v71z" />
    <glyph glyph-name="equal" unicode="=" 
d="M553 440v-66h-506v66h506zM553 227v-66h-506v66h506z" />
    <glyph glyph-name="greater" unicode="&#x3e;" 
d="M66 543l468 -208v-71l-468 -208v76l391 167l-391 168v76z" />
    <glyph glyph-name="question" unicode="?" horiz-adv-x="491" 
d="M249 715q101 0 153.5 -53.5t52.5 -135.5q0 -47 -18 -80.5t-50 -68.5q-29 -29 -39.5 -40.5t-24 -38.5t-13.5 -55v-14h-149v29q0 40 15 75.5t29.5 53.5t41.5 45l30 30t18 24.5t9 29.5q0 56 -60 56q-35 0 -54 -20t-19 -52h-146q0 100 57.5 157.5t166.5 57.5zM315 161v-161
h-160v161h160z" />
    <glyph glyph-name="at" unicode="@" horiz-adv-x="934" 
d="M478 690q187 0 301 -103.5t114 -276.5q0 -110 -48.5 -187t-143.5 -77q-93 0 -126 82h-2q-46 -77 -138 -77q-82 0 -137 57.5t-55 159.5q0 103 55.5 161t137.5 58q84 0 127 -70h2v55h115v-278q0 -50 37 -50q29 0 51.5 37.5t22.5 111.5q0 151 -87 226.5t-223 75.5
q-150 0 -244.5 -86t-94.5 -246q0 -79 28 -141.5t76 -100t108 -57t127 -19.5q83 0 170 32l33 -90q-103 -37 -205 -37q-82 0 -158 25t-139.5 73t-102 129.5t-38.5 184.5q0 200 120 314t317 114zM469 365q-40 0 -66.5 -26.5t-26.5 -69.5t26.5 -69.5t66.5 -26.5t66.5 26.5
t26.5 69.5t-26.5 69.5t-66.5 26.5z" />
    <glyph glyph-name="A" unicode="A" horiz-adv-x="716" 
d="M543 0l-50 142h-269l-50 -142h-174l276 700h164l276 -700h-173zM272 280h173l-87 248z" />
    <glyph glyph-name="B" unicode="B" horiz-adv-x="625" 
d="M456 369q143 -24 143 -172q0 -101 -67 -149t-171 -48h-300v700h290q98 0 157 -43.5t59 -130.5q0 -119 -111 -155v-2zM333 559h-117v-137h116q36 0 57.5 18.5t21.5 51.5q0 31 -21.5 49t-56.5 18zM338 141q46 0 73 19.5t27 56.5q0 76 -101 76h-121v-152h122z" />
    <glyph glyph-name="C" unicode="C" horiz-adv-x="667" 
d="M405 -15q-168 0 -276 100t-108 265t108 265t276 100q140 0 251 -78l-84 -136q-81 54 -167 54q-93 0 -153 -55.5t-60 -149.5t60 -149.5t153 -55.5q86 0 167 54l84 -136q-111 -78 -251 -78z" />
    <glyph glyph-name="D" unicode="D" horiz-adv-x="683" 
d="M284 700q168 0 273 -94.5t105 -255.5t-105 -255.5t-273 -94.5h-223v700h223zM297 559h-81v-418h81q87 0 142.5 55.5t55.5 153.5t-55.5 153.5t-142.5 55.5z" />
    <glyph glyph-name="E" unicode="E" horiz-adv-x="530" 
d="M216 145h283v-145h-438v700h433v-145h-278v-110h250v-141h-250v-159z" />
    <glyph glyph-name="F" unicode="F" horiz-adv-x="515" 
d="M508 555h-292v-143h253v-141h-253v-271h-155v700h447v-145z" />
    <glyph glyph-name="G" unicode="G" horiz-adv-x="751" 
d="M734 405q1 -12 1 -36q0 -173 -86.5 -278.5t-256.5 -105.5q-165 0 -268 99.5t-103 267.5q0 164 102.5 263.5t279.5 99.5q157 0 276 -92l-101 -133q-86 65 -179 65q-97 0 -152 -57t-55 -147q0 -92 56 -149t155 -57q78 0 119.5 36t48.5 85h-180v139h343z" />
    <glyph glyph-name="H" unicode="H" horiz-adv-x="723" 
d="M507 700h155v-700h-155v294h-291v-294h-155v700h155v-260h291v260z" />
    <glyph glyph-name="I" unicode="I" horiz-adv-x="277" 
d="M216 700v-700h-155v700h155z" />
    <glyph glyph-name="J" unicode="J" horiz-adv-x="301" 
d="M240 700v-523q0 -93 -44 -136.5t-136 -43.5h-50v145h34q41 0 41 49v509h155z" />
    <glyph glyph-name="K" unicode="K" horiz-adv-x="726" 
d="M726 0h-221l-289 335v-335h-155v700h155v-309l249 309h211l-289 -328z" />
    <glyph glyph-name="L" unicode="L" horiz-adv-x="496" 
d="M216 700v-554h279v-146h-434v700h155z" />
    <glyph glyph-name="M" unicode="M" horiz-adv-x="887" 
d="M709 700l178 -700h-161l-95 403h-2l-130 -303h-111l-129 303h-2l-95 -403h-162l179 700h117l147 -362h2l147 362h117z" />
    <glyph glyph-name="N" unicode="N" horiz-adv-x="744" 
d="M683 700v-700h-132l-334 431h-1v-431h-155v700h131l335 -433h1v433h155z" />
    <glyph glyph-name="O" unicode="O" horiz-adv-x="780" 
d="M390 715q158 0 263.5 -101.5t105.5 -263.5t-105.5 -263.5t-263.5 -101.5t-263.5 101.5t-105.5 263.5t105.5 263.5t263.5 101.5zM390 555q-86 0 -142 -56t-56 -149t56 -149t142 -56t142 56t56 149t-56 149t-142 56z" />
    <glyph glyph-name="P" unicode="P" horiz-adv-x="575" 
d="M311 700q127 0 192.5 -62t65.5 -162q0 -107 -65 -171.5t-193 -64.5h-95v-240h-155v700h250zM298 380q49 0 77.5 24t28.5 69q0 86 -106 86h-82v-179h82z" />
    <glyph glyph-name="Q" unicode="Q" horiz-adv-x="794" 
d="M801 0h-178l-36 36q-88 -51 -197 -51q-158 0 -263.5 101.5t-105.5 263.5t105.5 263.5t263.5 101.5t263.5 -101.5t105.5 -263.5q0 -136 -77 -232zM390 145q41 0 74 13l-154 153h177l73 -73q28 48 28 112q0 93 -56 149t-142 56t-142 -56t-56 -149t56 -149t142 -56z" />
    <glyph glyph-name="R" unicode="R" horiz-adv-x="617" 
d="M422 0l-176 265h-30v-265h-155v700h280q114 0 176 -61.5t62 -157.5q0 -79 -42 -134.5t-121 -73.5l200 -273h-194zM216 559v-164h102q97 0 97 82q0 39 -25.5 60.5t-71.5 21.5h-102z" />
    <glyph glyph-name="S" unicode="S" horiz-adv-x="544" 
d="M280 715q109 0 227 -51l-65 -137q-94 44 -158 44t-64 -41q0 -16 11.5 -28.5t41.5 -30.5l116 -73q67 -41 100 -88t33 -117q0 -101 -66 -154.5t-189 -53.5q-141 0 -261 70l70 139q105 -64 197 -64q86 0 86 56q0 22 -16 38t-50 37l-107 67q-129 77 -129 200q0 87 57 137
t166 50z" />
    <glyph glyph-name="T" unicode="T" horiz-adv-x="534" 
d="M529 700v-145h-184v-555h-155v555h-185v145h524z" />
    <glyph glyph-name="U" unicode="U" horiz-adv-x="706" 
d="M650 700v-417q0 -139 -76 -217.5t-221 -78.5q-146 0 -222 78.5t-76 217.5v417h165v-403q0 -68 34.5 -109t98.5 -41t98.5 41t34.5 109v403h164z" />
    <glyph glyph-name="V" unicode="V" horiz-adv-x="696" 
d="M696 700l-265 -700h-166l-265 700h185l162 -500h2l162 500h185z" />
    <glyph glyph-name="W" unicode="W" horiz-adv-x="1066" 
d="M1060 700l-235 -700h-137l-154 454h-2l-154 -454h-137l-235 700h181l125 -450h2l151 450h136l151 -450h2l125 450h181z" />
    <glyph glyph-name="X" unicode="X" horiz-adv-x="722" 
d="M721 0h-198l-162 244l-162 -244h-198l261 369l-237 331h197l139 -207l139 207h197l-237 -331z" />
    <glyph glyph-name="Y" unicode="Y" horiz-adv-x="659" 
d="M659 700l-252 -447v-253h-155v251l-252 449h186l142 -293h2l143 293h186z" />
    <glyph glyph-name="Z" unicode="Z" horiz-adv-x="568" 
d="M212 145h336v-145h-528v145l329 410h-303v145h492v-145z" />
    <glyph glyph-name="bracketleft" unicode="[" horiz-adv-x="341" 
d="M331 764v-108h-130v-763h130v-108h-257v979h257z" />
    <glyph glyph-name="backslash" unicode="\" horiz-adv-x="638" 
d="M502 -125l-472 859l106 57l472 -858z" />
    <glyph glyph-name="bracketright" unicode="]" horiz-adv-x="341" 
d="M10 -215v108h130v763h-130v108h257v-979h-257z" />
    <glyph glyph-name="asciicircum" unicode="^" 
d="M372 715l144 -322h-105l-111 254l-111 -254h-105l144 322h144z" />
    <glyph glyph-name="underscore" unicode="_" horiz-adv-x="533" 
d="M523 -15v-112h-513v112h513z" />
    <glyph glyph-name="grave" unicode="`" horiz-adv-x="380" 
d="M215 707l115 -154h-118l-162 154h165z" />
    <glyph glyph-name="a" unicode="a" horiz-adv-x="586" 
d="M240 -15q-95 0 -157 64.5t-62 181.5t62 181.5t157 64.5q103 0 151 -78h2v63h151v-462h-151v63h-2q-48 -78 -151 -78zM282 123q47 0 77 29.5t30 78.5t-30 78.5t-77 29.5q-46 0 -76 -29.5t-30 -78.5t30 -78.5t76 -29.5z" />
    <glyph glyph-name="b" unicode="b" horiz-adv-x="591" 
d="M350 -15q-102 0 -150 78h-2v-63h-151v700h151v-301h2q48 78 150 78q95 0 157.5 -64.5t62.5 -181.5t-62.5 -181.5t-157.5 -64.5zM308 123q47 0 77 29.5t30 78.5t-30 78.5t-77 29.5q-46 0 -76 -29.5t-30 -78.5t30 -78.5t76 -29.5z" />
    <glyph glyph-name="c" unicode="c" horiz-adv-x="451" 
d="M278 -15q-112 0 -184.5 68t-72.5 178t72.5 178t184.5 68q89 0 167 -45l-62 -121q-44 28 -98 28q-47 0 -80 -29t-33 -79t33 -79t80 -29q54 0 98 28l62 -121q-78 -45 -167 -45z" />
    <glyph glyph-name="d" unicode="d" horiz-adv-x="591" 
d="M240 -15q-95 0 -157 64.5t-62 181.5t62 181.5t157 64.5q103 0 151 -78h2v301h151v-700h-151v63h-2q-48 -78 -151 -78zM282 123q47 0 77 29.5t30 78.5t-30 78.5t-77 29.5q-46 0 -76 -29.5t-30 -78.5t30 -78.5t76 -29.5z" />
    <glyph glyph-name="e" unicode="e" horiz-adv-x="511" 
d="M265 476q107 0 168 -62.5t61 -184.5v-34h-331q14 -84 118 -84q70 0 134 42l55 -114q-88 -54 -191 -54q-116 0 -187 67t-71 177q0 115 67.5 181t176.5 66zM260 369q-86 0 -96 -85h184q-1 40 -25.5 62.5t-62.5 22.5z" />
    <glyph glyph-name="f" unicode="f" horiz-adv-x="355" 
d="M332 570q-50 0 -69.5 -18t-19.5 -68v-22h98v-126h-98v-336h-151v336h-81v126h81v27q0 114 54.5 167.5t167.5 53.5h31v-140h-13z" />
    <glyph glyph-name="g" unicode="g" horiz-adv-x="586" 
d="M295 -215q-86 0 -198 23l25 141q97 -23 162 -23q58 0 83.5 23.5t25.5 82.5v30h-2q-53 -70 -152 -70q-95 0 -156.5 62.5t-61.5 177.5q0 116 62.5 180.5t156.5 64.5q103 0 151 -78h2v63h151v-462q-1 -108 -64.5 -161.5t-184.5 -53.5zM282 123q47 0 77 29.5t30 78.5
t-30 78.5t-77 29.5q-46 0 -76 -29.5t-30 -78.5t30 -78.5t76 -29.5z" />
    <glyph glyph-name="h" unicode="h" horiz-adv-x="563" 
d="M198 700v-299h2q50 76 148 76q80 0 127 -48t47 -143v-286h-151v244q0 100 -84 100q-89 0 -89 -112v-232h-151v700h151z" />
    <glyph glyph-name="i" unicode="i" horiz-adv-x="244" 
d="M203 699v-152h-162v152h162zM47 0v462h151v-462h-151z" />
    <glyph glyph-name="j" unicode="j" horiz-adv-x="244" 
d="M203 699v-152h-162v152h162zM-39 -63h25q61 0 61 66v459h151v-458q0 -207 -187 -207h-50v140z" />
    <glyph glyph-name="k" unicode="k" horiz-adv-x="555" 
d="M550 0h-195l-157 212v-212h-151v700h151v-420l135 182h187l-183 -210z" />
    <glyph glyph-name="l" unicode="l" horiz-adv-x="244" 
d="M198 700v-700h-151v700h151z" />
    <glyph glyph-name="m" unicode="m" horiz-adv-x="848" 
d="M46 0v462h148v-68h2q42 83 144 83q106 0 145 -90h2q51 90 155 90q74 0 119.5 -47t45.5 -129v-301h-151v251q0 93 -75 93q-82 0 -82 -115v-229h-145v251q0 93 -75 93q-82 0 -82 -115v-229h-151z" />
    <glyph glyph-name="n" unicode="n" horiz-adv-x="563" 
d="M347 477q80 0 127 -48t47 -143v-286h-150v244q0 100 -85 100q-89 0 -89 -112v-232h-151v462h148v-70h2q50 85 151 85z" />
    <glyph glyph-name="o" unicode="o" horiz-adv-x="561" 
d="M280 477q114 0 187 -68t73 -178t-73 -178t-187 -68q-113 0 -186 68t-73 178t73 178t186 68zM280 339q-46 0 -77 -30t-31 -78t31 -78t77 -30q47 0 77.5 29.5t30.5 78.5t-30.5 78.5t-77.5 29.5z" />
    <glyph glyph-name="p" unicode="p" horiz-adv-x="590" 
d="M46 -200v662h151v-63h2q48 78 151 78q95 0 157 -64.5t62 -181.5t-62 -181.5t-157 -64.5q-103 0 -151 78h-2v-263h-151zM308 123q46 0 76 29.5t30 78.5t-30 78.5t-76 29.5q-47 0 -77 -29.5t-30 -78.5t30 -78.5t77 -29.5z" />
    <glyph glyph-name="q" unicode="q" horiz-adv-x="586" 
d="M393 -200v263h-2q-48 -78 -151 -78q-95 0 -157 64.5t-62 181.5t62 181.5t157 64.5q103 0 151 -78h2v63h151v-662h-151zM282 123q47 0 77 29.5t30 78.5t-30 78.5t-77 29.5q-46 0 -76 -29.5t-30 -78.5t30 -78.5t76 -29.5z" />
    <glyph glyph-name="r" unicode="r" horiz-adv-x="362" 
d="M352 476v-151h-13q-77 0 -109.5 -34t-32.5 -121v-170h-151v462h148v-94h2q38 108 153 108h3z" />
    <glyph glyph-name="s" unicode="s" horiz-adv-x="434" 
d="M219 -15q-113 0 -209 48l57 124q91 -53 164 -53q42 0 42 21q0 5 -1.5 9t-6 6.5t-7 4t-9 4t-8.5 3.5l-81 32q-113 43 -113 143q0 72 50 111t148 39q80 0 167 -28l-42 -122q-83 34 -137 34q-37 0 -37 -20q0 -10 8 -15.5t27 -13.5l80 -30q56 -21 84 -53t28 -88
q0 -80 -54 -118t-150 -38z" />
    <glyph glyph-name="t" unicode="t" horiz-adv-x="362" 
d="M346 336h-95v-139q0 -33 10.5 -45t39.5 -12h17v-140h-63q-155 0 -155 156v180h-90v126h90v185h151v-185h95v-126z" />
    <glyph glyph-name="u" unicode="u" horiz-adv-x="557" 
d="M216 -15q-78 0 -126.5 48.5t-48.5 143.5v285h156v-252q0 -93 76 -93q87 0 87 122v223h151v-462h-148v72h-2q-54 -87 -145 -87z" />
    <glyph glyph-name="v" unicode="v" horiz-adv-x="545" 
d="M373 462h167l-192 -462h-151l-192 462h167l100 -292z" />
    <glyph glyph-name="w" unicode="w" horiz-adv-x="808" 
d="M654 462h149l-168 -462h-129l-102 270l-101 -270h-129l-169 462h150l86 -271l94 271h139l93 -271z" />
    <glyph glyph-name="x" unicode="x" horiz-adv-x="563" 
d="M384 0l-102 144l-103 -144h-174l185 242l-168 220h175l85 -122l84 122h175l-168 -220l185 -242h-174z" />
    <glyph glyph-name="y" unicode="y" horiz-adv-x="560" 
d="M402 462h153l-307 -662h-152l116 244l-207 418h174l108 -255z" />
    <glyph glyph-name="z" unicode="z" horiz-adv-x="451" 
d="M200 127h236v-127h-420v114l216 221h-200v127h389v-111z" />
    <glyph glyph-name="braceleft" unicode="{" horiz-adv-x="416" 
d="M406 763v-124h-30q-44 0 -67 -18.5t-23 -68.5v-114q0 -133 -123 -162v-2q123 -29 123 -162v-116q0 -50 23 -68.5t67 -18.5h30v-124h-39q-87 0 -145.5 50t-58.5 155v118q0 95 -128 102v130q128 7 128 102v116q0 105 58.5 155t145.5 50h39z" />
    <glyph glyph-name="bar" unicode="|" horiz-adv-x="328" 
d="M218 727v-942h-108v942h108z" />
    <glyph glyph-name="braceright" unicode="}" horiz-adv-x="416" 
d="M10 -215v124h31q44 0 67 18.5t23 68.5v116q0 134 122 162v2q-122 28 -122 162v114q0 50 -23.5 68.5t-67.5 18.5h-30v124h40q87 0 145 -49.5t58 -155.5v-116q0 -95 128 -102v-130q-128 -7 -128 -102v-118q0 -106 -58 -155.5t-145 -49.5h-40z" />
    <glyph glyph-name="asciitilde" unicode="~" 
d="M197 403q52 0 116.5 -30.5t95.5 -30.5q22 0 44 9t32 16t38 28l64 -99q-96 -79 -182 -79q-50 0 -114.5 30t-97.5 30q-23 0 -46 -9t-32.5 -15.5t-38.5 -28.5l-63 98q97 81 184 81z" />
    <glyph glyph-name="exclamdown" unicode="&#xa1;" horiz-adv-x="327" 
d="M84 339v161h160v-161h-160zM77 -200l33 471h108l32 -471h-173z" />
    <glyph glyph-name="cent" unicode="&#xa2;" horiz-adv-x="441" 
d="M411 304q-75 31 -124 31v-208q45 0 124 31v-143q-57 -27 -124 -30v-49h-28v49q-106 5 -173 72.5t-67 173.5t67 173.5t173 72.5v55h28v-55q65 -2 124 -29v-144zM175 231q0 -40 23 -67t61 -35v204q-38 -8 -61 -35t-23 -67z" />
    <glyph glyph-name="sterling" unicode="&#xa3;" horiz-adv-x="558" 
d="M218 137l2 -5h286v-132h-446v111q112 61 112 136q0 17 -7.5 35.5t-14 29t-22.5 33.5h-88v30h68q-35 57 -35 115q0 95 62 147.5t177 52.5q105 0 167.5 -54t62.5 -166h-155q-2 37 -23 58t-58 21q-35 0 -55.5 -18.5t-20.5 -48.5q0 -35 50 -107h154v-30h-134q29 -49 29 -85
q0 -72 -111 -123z" />
    <glyph glyph-name="currency" unicode="&#xa4;" 
d="M538 323q0 -93 -60 -158l55 -55l-20 -20l-56 56q-64 -55 -157 -55q-92 0 -158 55l-56 -56l-19 20l55 55q-60 65 -60 158q0 94 61 158l-56 56l20 19l56 -56q64 55 157 55t157 -55l56 56l20 -20l-55 -55q60 -65 60 -158zM300 221q45 0 73.5 29t28.5 73t-28.5 73t-73.5 29
t-73.5 -29t-28.5 -73t28.5 -73t73.5 -29z" />
    <glyph glyph-name="yen" unicode="&#xa5;" horiz-adv-x="652" 
d="M632 675l-186 -356h117v-30h-133l-29 -56h162v-30h-164v-203h-146v203h-164v30h162l-29 56h-133v30h117l-186 356h181l125 -284l125 284h181z" />
    <glyph glyph-name="brokenbar" unicode="&#xa6;" horiz-adv-x="328" 
d="M218 727v-388h-108v388h108zM218 181v-396h-108v396h108z" />
    <glyph glyph-name="section" unicode="&#xa7;" horiz-adv-x="584" 
d="M534 270q0 -98 -88 -162q36 -43 36 -98q0 -78 -53 -123.5t-149 -45.5q-108 0 -190 57l68 113q66 -43 134 -43q54 0 54 36q0 21 -30.5 39.5t-74 37t-87 42t-74 66t-30.5 97.5q0 98 87 162q-36 43 -36 98q0 78 53.5 123.5t149.5 45.5q105 0 189 -53l-68 -117
q-66 43 -134 43q-53 0 -53 -36q0 -21 30.5 -39.5t74 -37t87 -42t74 -66t30.5 -97.5zM187 296q0 -15 7 -27.5t26 -25t30.5 -19t44 -21.5t42.5 -20q59 35 59 78q0 15 -7 27.5t-26 25t-30.5 19t-44 21t-42.5 19.5q-59 -35 -59 -77z" />
    <glyph glyph-name="dieresis" unicode="&#xa8;" horiz-adv-x="412" 
d="M174 690v-135h-124v135h124zM362 690v-135h-124v135h124z" />
    <glyph glyph-name="copyright" unicode="&#xa9;" horiz-adv-x="828" 
d="M414 -15q-156 0 -260 102.5t-104 262.5t104 262.5t260 102.5t260 -102.5t104 -262.5t-104 -262.5t-260 -102.5zM414 59q123 0 204.5 81t81.5 210t-81.5 210t-204.5 81t-204.5 -81t-81.5 -210t81.5 -210t204.5 -81zM422 127q-102 0 -168 64.5t-66 162.5t66 162.5t168 64.5
q82 0 152 -48l-50 -83q-54 33 -104 33q-56 0 -91 -35.5t-35 -93.5t35 -93.5t91 -35.5q52 0 104 34l50 -84q-70 -48 -152 -48z" />
    <glyph glyph-name="ordfeminine" unicode="&#xaa;" horiz-adv-x="444" 
d="M191 338q-61 0 -103 43.5t-42 119.5t42 119.5t103 43.5q68 0 96 -54h2v44h110v-306h-110v44h-2q-28 -54 -96 -54zM225 439q28 0 46 17t18 45t-18 45t-46 17q-29 0 -47 -17t-18 -45t18 -45t47 -17z" />
    <glyph glyph-name="guillemotleft" unicode="&#xab;" horiz-adv-x="578" 
d="M341 413l-164 -175l164 -176h-162l-164 176l164 175h162zM568 413l-164 -175l164 -176h-162l-164 176l164 175h162z" />
    <glyph glyph-name="logicalnot" unicode="&#xac;" 
d="M71 432h458v-265h-68v199h-390v66z" />
    <glyph glyph-name="uni00AD" unicode="&#xad;" horiz-adv-x="366" 
d="M326 333v-135h-286v135h286z" />
    <glyph glyph-name="registered" unicode="&#xae;" horiz-adv-x="560" 
d="M280 715q104 0 171.5 -68t67.5 -173t-67.5 -173t-171.5 -68t-171.5 68t-67.5 173t67.5 173t171.5 68zM280 291q79 0 128.5 51t49.5 132t-49.5 132t-128.5 51t-128.5 -51t-49.5 -132t49.5 -132t128.5 -51zM385 532q0 -62 -56 -79l62 -101h-62l-54 96h-24v-96h-53v260h98
q41 0 65 -22t24 -58zM251 562v-64h41q36 0 36 32t-36 32h-41z" />
    <glyph glyph-name="macron" unicode="&#xaf;" horiz-adv-x="425" 
d="M375 673v-99h-325v99h325z" />
    <glyph glyph-name="degree" unicode="&#xb0;" horiz-adv-x="370" 
d="M185 690q63 0 104 -40.5t41 -104.5q0 -65 -40.5 -105t-104.5 -40q-63 0 -104 40t-41 105q0 64 41 104.5t104 40.5zM185 624q-33 0 -55.5 -22t-22.5 -57t22 -57t56 -22t56 22t22 57t-22.5 57t-55.5 22z" />
    <glyph glyph-name="plusminus" unicode="&#xb1;" 
d="M334 519v-128h205v-63h-205v-128h-68v128h-205v63h205v128h68zM539 156v-66h-478v66h478z" />
    <glyph glyph-name="acute" unicode="&#xb4;" horiz-adv-x="380" 
d="M330 707l-162 -154h-118l115 154h165z" />
    <glyph glyph-name="uni00B5" unicode="&#xb5;" 
d="M384 462h151v-462h-148v72h-2q-54 -87 -145 -87q-17 0 -25 1v-186h-146v328q-4 20 -4 49v285h156v-252q0 -93 76 -93q87 0 87 122v223z" />
    <glyph glyph-name="paragraph" unicode="&#xb6;" horiz-adv-x="663" 
d="M613 700v-111h-65v-695h-107v695h-90v-695h-107v416q-84 0 -139 55.5t-55 143.5q0 85 58 138t146 53h359z" />
    <glyph glyph-name="periodcentered" unicode="&#xb7;" horiz-adv-x="243" 
d="M201 462v-161h-160v161h160z" />
    <glyph glyph-name="cedilla" unicode="&#xb8;" horiz-adv-x="284" 
d="M177 39l-32 -77q45 -8 67 -21t22 -41q0 -24 -24 -44.5t-49.5 -31.5t-86.5 -33q-5 -2 -8 -3l-16 37q44 19 62.5 30t18.5 23q0 13 -12 19.5t-44 13.5l48 128h54z" />
    <glyph glyph-name="ordmasculine" unicode="&#xba;" horiz-adv-x="437" 
d="M219 664q76 0 124.5 -45.5t48.5 -117.5t-48.5 -117.5t-124.5 -45.5t-124.5 45.5t-48.5 117.5t48.5 117.5t124.5 45.5zM219 562q-27 0 -44.5 -16.5t-17.5 -44.5t17.5 -44.5t44.5 -16.5t44.5 16.5t17.5 44.5t-17.5 44.5t-44.5 16.5z" />
    <glyph glyph-name="guillemotright" unicode="&#xbb;" horiz-adv-x="578" 
d="M10 413h162l164 -175l-164 -176h-162l164 176zM237 413h162l164 -175l-164 -176h-162l164 176z" />
    <glyph glyph-name="onequarter" unicode="&#xbc;" horiz-adv-x="682" 
d="M72 289v305h-27v81h107v-386h-80zM459 675h78l-396 -675h-78zM657 135v-70h-37v-65h-77v65h-200v65l199 256h78v-251h37zM427 135h116v144h-2z" />
    <glyph glyph-name="onehalf" unicode="&#xbd;" horiz-adv-x="696" 
d="M152 675v-386h-80v305h-27v81h107zM63 0l396 675h78l-396 -675h-78zM536 395q62 0 97 -30.5t35 -82.5q0 -62 -66 -125l-82 -79h154v-78h-277l-1 64l138 132q49 49 49 78q0 21 -13.5 33.5t-37.5 12.5q-56 0 -59 -56h-80q1 57 37 94t106 37z" />
    <glyph glyph-name="threequarters" unicode="&#xbe;" horiz-adv-x="801" 
d="M320 396q0 -51 -36 -83.5t-106 -32.5q-69 0 -107 32.5t-41 93.5h81q2 -24 18.5 -38.5t47.5 -14.5q59 0 59 49q0 27 -21.5 38t-69.5 11v71q78 -2 78 47q0 44 -53 44q-24 0 -39.5 -12.5t-16.5 -35.5h-77q2 54 37 86.5t101 32.5q61 0 96 -28t35 -72q0 -73 -74 -90v-1
q88 -14 88 -97zM578 675h78l-396 -675h-78zM776 135v-70h-37v-65h-77v65h-200v65l199 256h78v-251h37zM546 135h116v144h-2z" />
    <glyph glyph-name="questiondown" unicode="&#xbf;" horiz-adv-x="440" 
d="M151 339v161h160v-161h-160zM217 -215q-101 0 -153.5 53.5t-52.5 135.5q0 47 18 80.5t51 68.5l12.5 12.5t13 13.5t11 12.5t11.5 14l9 13.5t8.5 15.5t6 15.5t4.5 18t1 19v14h149v-29q0 -40 -15 -75.5t-30 -53.5t-42 -45q-2 -2 -10 -9.5t-9.5 -10t-8 -9t-8.5 -9t-7 -8.5
t-6.5 -9.5t-3.5 -9t-3 -10t-1 -9.5q0 -56 61 -56q34 0 53 20t19 52h146q0 -100 -57 -157.5t-167 -57.5z" />
    <glyph glyph-name="Agrave" unicode="&#xc0;" horiz-adv-x="716" 
d="M416 743h-108l-172 120h165zM543 0l-50 142h-269l-50 -142h-174l276 700h164l276 -700h-173zM272 280h173l-87 248z" />
    <glyph glyph-name="Aacute" unicode="&#xc1;" horiz-adv-x="716" 
d="M580 863l-171 -120h-109l115 120h165zM543 0l-50 142h-269l-50 -142h-174l276 700h164l276 -700h-173zM272 280h173l-87 248z" />
    <glyph glyph-name="Acircumflex" unicode="&#xc2;" horiz-adv-x="716" 
d="M357 805l-67 -62h-125l120 120h144l120 -120h-125zM543 0l-50 142h-269l-50 -142h-174l276 700h164l276 -700h-173zM272 280h173l-87 248z" />
    <glyph glyph-name="Atilde" unicode="&#xc3;" horiz-adv-x="716" 
d="M262 774q-32 0 -54 -38l-47 15q16 58 42.5 89t73.5 31q30 0 95 -18t82 -18q31 0 54 39l47 -16q-17 -58 -43.5 -89t-72.5 -31q-31 0 -95.5 18t-81.5 18zM543 0l-50 142h-269l-50 -142h-174l276 700h164l276 -700h-173zM272 280h173l-87 248z" />
    <glyph glyph-name="Adieresis" unicode="&#xc4;" horiz-adv-x="716" 
d="M316 857v-114h-133v114h133zM534 857v-114h-134v114h134zM543 0l-50 142h-269l-50 -142h-174l276 700h164l276 -700h-173zM272 280h173l-87 248z" />
    <glyph glyph-name="Aring" unicode="&#xc5;" horiz-adv-x="716" 
d="M543 0l-50 142h-269l-50 -142h-174l266 676q-29 32 -29 79q0 51 34 84t87 33q52 0 86 -33t34 -84q0 -45 -29 -79l267 -676h-173zM358 811q-26 0 -41.5 -16t-15.5 -40t15.5 -39.5t41.5 -15.5q25 0 41 15.5t16 39.5t-16 40t-41 16zM272 280h173l-87 248z" />
    <glyph glyph-name="AE" unicode="&#xc6;" horiz-adv-x="999" 
d="M705 141h262v-141h-412v142h-267l-86 -142h-202l463 700h500v-141h-258v-114h231v-141h-231v-163zM372 280h183v303z" />
    <glyph glyph-name="Ccedilla" unicode="&#xc7;" horiz-adv-x="667" 
d="M656 63q-107 -74 -238 -78l-10 -23q45 -8 67 -21t22 -41q0 -24 -24 -44.5t-49.5 -31.5t-86.5 -33q-5 -2 -8 -3l-16 37q44 19 62.5 30t18.5 23q0 13 -12 19.5t-44 13.5l28 75q-153 12 -249 110.5t-96 253.5q0 165 108 265t276 100q140 0 251 -78l-84 -136q-81 54 -167 54
q-93 0 -153 -55.5t-60 -149.5t60 -149.5t153 -55.5q86 0 167 54z" />
    <glyph glyph-name="Egrave" unicode="&#xc8;" horiz-adv-x="530" 
d="M350 743h-108l-172 120h165zM216 145h283v-145h-438v700h433v-145h-278v-110h250v-141h-250v-159z" />
    <glyph glyph-name="Eacute" unicode="&#xc9;" horiz-adv-x="530" 
d="M514 863l-171 -120h-109l115 120h165zM216 304v-159h283v-145h-438v700h433v-145h-278v-110h250v-141h-250z" />
    <glyph glyph-name="Ecircumflex" unicode="&#xca;" horiz-adv-x="530" 
d="M291 805l-67 -62h-125l120 120h144l120 -120h-125zM216 145h283v-145h-438v700h433v-145h-278v-110h250v-141h-250v-159z" />
    <glyph glyph-name="Edieresis" unicode="&#xcb;" horiz-adv-x="530" 
d="M250 857v-114h-133v114h133zM468 857v-114h-134v114h134zM216 145h283v-145h-438v700h433v-145h-278v-110h250v-141h-250v-159z" />
    <glyph glyph-name="Igrave" unicode="&#xcc;" horiz-adv-x="277" 
d="M81 863l115 -120h-108l-172 120h165zM216 700v-700h-155v700h155z" />
    <glyph glyph-name="Iacute" unicode="&#xcd;" horiz-adv-x="277" 
d="M360 863l-171 -120h-109l115 120h165zM216 700v-700h-155v700h155z" />
    <glyph glyph-name="Icircumflex" unicode="&#xce;" horiz-adv-x="277" 
d="M209 863l120 -120h-125l-67 62l-67 -62h-125l120 120h144zM216 700v-700h-155v700h155z" />
    <glyph glyph-name="Idieresis" unicode="&#xcf;" horiz-adv-x="277" 
d="M96 857v-114h-133v114h133zM314 857v-114h-134v114h134zM216 700v-700h-155v700h155z" />
    <glyph glyph-name="Eth" unicode="&#xd0;" horiz-adv-x="684" 
d="M285 700q168 0 273 -94.5t105 -255.5t-105 -255.5t-273 -94.5h-223v293h-71v126h71v281h223zM298 141q88 0 143 55.5t55 153.5t-55 153.5t-143 55.5h-81v-140h131v-126h-131v-152h81z" />
    <glyph glyph-name="Ntilde" unicode="&#xd1;" horiz-adv-x="744" 
d="M453 738q-31 0 -95.5 18t-81.5 18q-32 0 -54 -38l-47 15q16 58 42.5 89t73.5 31q30 0 95 -18t82 -18q31 0 54 39l47 -16q-17 -58 -43.5 -89t-72.5 -31zM683 700v-700h-132l-334 431h-1v-431h-155v700h131l335 -433h1v433h155z" />
    <glyph glyph-name="Ograve" unicode="&#xd2;" horiz-adv-x="780" 
d="M333 863l115 -120h-108l-172 120h165zM390 715q158 0 263.5 -101.5t105.5 -263.5t-105.5 -263.5t-263.5 -101.5t-263.5 101.5t-105.5 263.5t105.5 263.5t263.5 101.5zM390 555q-86 0 -142 -56t-56 -149t56 -149t142 -56t142 56t56 149t-56 149t-142 56z" />
    <glyph glyph-name="Oacute" unicode="&#xd3;" horiz-adv-x="780" 
d="M612 863l-171 -120h-109l115 120h165zM390 715q158 0 263.5 -101.5t105.5 -263.5t-105.5 -263.5t-263.5 -101.5t-263.5 101.5t-105.5 263.5t105.5 263.5t263.5 101.5zM390 555q-86 0 -142 -56t-56 -149t56 -149t142 -56t142 56t56 149t-56 149t-142 56z" />
    <glyph glyph-name="Ocircumflex" unicode="&#xd4;" horiz-adv-x="780" 
d="M461 863l120 -120h-125l-67 62l-67 -62h-125l120 120h144zM390 715q158 0 263.5 -101.5t105.5 -263.5t-105.5 -263.5t-263.5 -101.5t-263.5 101.5t-105.5 263.5t105.5 263.5t263.5 101.5zM390 555q-86 0 -142 -56t-56 -149t56 -149t142 -56t142 56t56 149t-56 149
t-142 56z" />
    <glyph glyph-name="Otilde" unicode="&#xd5;" horiz-adv-x="780" 
d="M471 738q-31 0 -95.5 18t-81.5 18q-32 0 -54 -38l-47 15q16 58 42.5 89t73.5 31q30 0 95 -18t82 -18q31 0 54 39l47 -16q-17 -58 -43.5 -89t-72.5 -31zM390 715q158 0 263.5 -101.5t105.5 -263.5t-105.5 -263.5t-263.5 -101.5t-263.5 101.5t-105.5 263.5t105.5 263.5
t263.5 101.5zM390 555q-86 0 -142 -56t-56 -149t56 -149t142 -56t142 56t56 149t-56 149t-142 56z" />
    <glyph glyph-name="Odieresis" unicode="&#xd6;" horiz-adv-x="780" 
d="M348 857v-114h-133v114h133zM566 857v-114h-134v114h134zM390 715q158 0 263.5 -101.5t105.5 -263.5t-105.5 -263.5t-263.5 -101.5t-263.5 101.5t-105.5 263.5t105.5 263.5t263.5 101.5zM390 555q-86 0 -142 -56t-56 -149t56 -149t142 -56t142 56t56 149t-56 149t-142 56
z" />
    <glyph glyph-name="multiply" unicode="&#xd7;" 
d="M475 520l47 -47l-174 -175l174 -175l-47 -47l-175 174l-175 -174l-47 47l174 175l-174 175l47 47l175 -174z" />
    <glyph glyph-name="Oslash" unicode="&#xd8;" horiz-adv-x="780" 
d="M634 631q125 -104 125 -281q0 -162 -105.5 -263.5t-263.5 -101.5q-113 0 -201 54l-40 -53l-43 30l40 53q-125 104 -125 281q0 162 105.5 263.5t263.5 101.5q113 0 201 -54l40 53l43 -30zM192 350q0 -92 55 -147l245 326q-44 26 -102 26q-86 0 -142 -56t-56 -149zM390 145
q86 0 142 56t56 149q0 92 -55 147l-245 -326q44 -26 102 -26z" />
    <glyph glyph-name="Ugrave" unicode="&#xd9;" horiz-adv-x="706" 
d="M296 863l115 -120h-108l-172 120h165zM650 700v-417q0 -139 -76 -217.5t-221 -78.5q-146 0 -222 78.5t-76 217.5v417h165v-403q0 -68 34.5 -109t98.5 -41t98.5 41t34.5 109v403h164z" />
    <glyph glyph-name="Uacute" unicode="&#xda;" horiz-adv-x="706" 
d="M575 863l-171 -120h-109l115 120h165zM650 700v-417q0 -139 -76 -217.5t-221 -78.5q-146 0 -222 78.5t-76 217.5v417h165v-403q0 -68 34.5 -109t98.5 -41t98.5 41t34.5 109v403h164z" />
    <glyph glyph-name="Ucircumflex" unicode="&#xdb;" horiz-adv-x="706" 
d="M424 863l120 -120h-125l-67 62l-67 -62h-125l120 120h144zM650 700v-417q0 -139 -76 -217.5t-221 -78.5q-146 0 -222 78.5t-76 217.5v417h165v-403q0 -68 34.5 -109t98.5 -41t98.5 41t34.5 109v403h164z" />
    <glyph glyph-name="Udieresis" unicode="&#xdc;" horiz-adv-x="706" 
d="M311 857v-114h-133v114h133zM529 857v-114h-134v114h134zM650 700v-417q0 -139 -76 -217.5t-221 -78.5q-146 0 -222 78.5t-76 217.5v417h165v-403q0 -68 34.5 -109t98.5 -41t98.5 41t34.5 109v403h164z" />
    <glyph glyph-name="Yacute" unicode="&#xdd;" horiz-adv-x="659" 
d="M551 863l-171 -120h-109l115 120h165zM659 700l-252 -447v-253h-155v251l-252 449h186l142 -293h2l143 293h186z" />
    <glyph glyph-name="Thorn" unicode="&#xde;" horiz-adv-x="603" 
d="M217 700v-113h101q130 0 197 -65t67 -170q0 -106 -67 -171.5t-197 -65.5h-101v-115h-156v700h156zM318 449h-101v-196h101q51 0 80.5 25t29.5 74q0 48 -29.5 72.5t-80.5 24.5z" />
    <glyph glyph-name="germandbls" unicode="&#xdf;" horiz-adv-x="594" 
d="M380 399q96 -6 144.5 -54.5t48.5 -132.5q0 -105 -74.5 -161t-209.5 -56h-49v130h40q76 0 108.5 24t32.5 76q0 61 -41 86.5t-123 25.5v112q105 0 105 72q0 33 -21 49.5t-55 16.5q-42 0 -65 -23.5t-23 -70.5v-623h-151v610q0 109 61 172t185 63q105 0 162 -45t57 -122
q0 -121 -132 -147v-2z" />
    <glyph glyph-name="agrave" unicode="&#xe0;" horiz-adv-x="586" 
d="M221 707l115 -154h-118l-162 154h165zM240 -15q-95 0 -157 64.5t-62 181.5t62 181.5t157 64.5q103 0 151 -78h2v63h151v-462h-151v63h-2q-48 -78 -151 -78zM282 123q47 0 77 29.5t30 78.5t-30 78.5t-77 29.5q-46 0 -76 -29.5t-30 -78.5t30 -78.5t76 -29.5z" />
    <glyph glyph-name="aacute" unicode="&#xe1;" horiz-adv-x="586" 
d="M495 707l-162 -154h-118l115 154h165zM240 -15q-95 0 -157 64.5t-62 181.5t62 181.5t157 64.5q103 0 151 -78h2v63h151v-462h-151v63h-2q-48 -78 -151 -78zM282 123q47 0 77 29.5t30 78.5t-30 78.5t-77 29.5q-46 0 -76 -29.5t-30 -78.5t30 -78.5t76 -29.5z" />
    <glyph glyph-name="acircumflex" unicode="&#xe2;" horiz-adv-x="586" 
d="M349 707l122 -154h-125l-68 82l-67 -82h-125l122 154h141zM240 -15q-95 0 -157 64.5t-62 181.5t62 181.5t157 64.5q103 0 151 -78h2v63h151v-462h-151v63h-2q-48 -78 -151 -78zM282 123q47 0 77 29.5t30 78.5t-30 78.5t-77 29.5q-46 0 -76 -29.5t-30 -78.5t30 -78.5
t76 -29.5z" />
    <glyph glyph-name="atilde" unicode="&#xe3;" horiz-adv-x="586" 
d="M199 707q32 0 90.5 -23t75.5 -23q32 0 54 46l57 -19q-17 -63 -44 -98t-72 -35q-32 0 -91 23t-76 23q-30 0 -54 -46l-56 19q33 133 116 133zM240 -15q-95 0 -157 64.5t-62 181.5t62 181.5t157 64.5q103 0 151 -78h2v63h151v-462h-151v63h-2q-48 -78 -151 -78zM282 123
q47 0 77 29.5t30 78.5t-30 78.5t-77 29.5q-46 0 -76 -29.5t-30 -78.5t30 -78.5t76 -29.5z" />
    <glyph glyph-name="adieresis" unicode="&#xe4;" horiz-adv-x="586" 
d="M247 690v-135h-124v135h124zM435 690v-135h-124v135h124zM240 -15q-95 0 -157 64.5t-62 181.5t62 181.5t157 64.5q103 0 151 -78h2v63h151v-462h-151v63h-2q-48 -78 -151 -78zM282 123q47 0 77 29.5t30 78.5t-30 78.5t-77 29.5q-46 0 -76 -29.5t-30 -78.5t30 -78.5
t76 -29.5z" />
    <glyph glyph-name="aring" unicode="&#xe5;" horiz-adv-x="586" 
d="M278 747q52 0 86 -33t34 -84t-34 -84t-86 -33t-86 33t-34 84t34 84t86 33zM278 685q-25 0 -40.5 -15.5t-15.5 -39.5t15.5 -39.5t40.5 -15.5t40.5 15.5t15.5 39.5t-15.5 39.5t-40.5 15.5zM240 -15q-95 0 -157 64.5t-62 181.5t62 181.5t157 64.5q103 0 151 -78h2v63h151
v-462h-151v63h-2q-48 -78 -151 -78zM282 123q47 0 77 29.5t30 78.5t-30 78.5t-77 29.5q-46 0 -76 -29.5t-30 -78.5t30 -78.5t76 -29.5z" />
    <glyph glyph-name="ae" unicode="&#xe6;" horiz-adv-x="828" 
d="M211 -15q-87 0 -137 44.5t-50 120.5q0 75 49 118.5t134 43.5q87 0 136 -42h2v20q0 29 -24.5 50.5t-78.5 21.5q-48 0 -132 -20l-30 115q95 20 163 20q64 0 105 -18.5t64 -66.5h2q57 84 175 84q102 0 162 -62.5t60 -184.5v-34h-328q20 -84 116 -84q72 0 133 42l55 -114
q-88 -54 -188 -54q-133 0 -192 93h-2q-70 -93 -194 -93zM484 284h181q-1 40 -25.5 62.5t-61.5 22.5q-36 0 -62.5 -21.5t-31.5 -63.5zM266 98q36 0 59 15.5t23 42.5t-23 43t-58 16t-56 -16t-21 -43t20.5 -42.5t55.5 -15.5z" />
    <glyph glyph-name="ccedilla" unicode="&#xe7;" horiz-adv-x="451" 
d="M445 30q-67 -40 -145 -44l-10 -24q45 -8 67 -21t22 -41q0 -24 -24 -44.5t-49.5 -31.5t-86.5 -33q-5 -2 -8 -3l-16 37q44 19 62.5 30t18.5 23q0 13 -12 19.5t-44 13.5l28 75q-101 9 -164 75.5t-63 169.5q0 110 72.5 178t184.5 68q89 0 167 -45l-62 -121q-44 28 -98 28
q-47 0 -80 -29t-33 -79t33 -79t80 -29q54 0 98 28z" />
    <glyph glyph-name="egrave" unicode="&#xe8;" horiz-adv-x="511" 
d="M207 707l115 -154h-118l-162 154h165zM265 476q107 0 168 -62.5t61 -184.5v-34h-331q14 -84 118 -84q70 0 134 42l55 -114q-88 -54 -191 -54q-116 0 -187 67t-71 177q0 115 67.5 181t176.5 66zM260 369q-86 0 -96 -85h184q-1 40 -25.5 62.5t-62.5 22.5z" />
    <glyph glyph-name="eacute" unicode="&#xe9;" horiz-adv-x="511" 
d="M481 707l-162 -154h-118l115 154h165zM265 476q107 0 168 -62.5t61 -184.5v-34h-331q14 -84 118 -84q70 0 134 42l55 -114q-88 -54 -191 -54q-116 0 -187 67t-71 177q0 115 67.5 181t176.5 66zM260 369q-86 0 -96 -85h184q-1 40 -25.5 62.5t-62.5 22.5z" />
    <glyph glyph-name="ecircumflex" unicode="&#xea;" horiz-adv-x="511" 
d="M335 707l122 -154h-125l-68 82l-67 -82h-125l122 154h141zM265 476q107 0 168 -62.5t61 -184.5v-34h-331q14 -84 118 -84q70 0 134 42l55 -114q-88 -54 -191 -54q-116 0 -187 67t-71 177q0 115 67.5 181t176.5 66zM260 369q-86 0 -96 -85h184q-1 40 -25.5 62.5
t-62.5 22.5z" />
    <glyph glyph-name="edieresis" unicode="&#xeb;" horiz-adv-x="511" 
d="M233 690v-135h-124v135h124zM421 690v-135h-124v135h124zM265 476q107 0 168 -62.5t61 -184.5v-34h-331q14 -84 118 -84q70 0 134 42l55 -114q-88 -54 -191 -54q-116 0 -187 67t-71 177q0 115 67.5 181t176.5 66zM260 369q-86 0 -96 -85h184q-1 40 -25.5 62.5t-62.5 22.5
z" />
    <glyph glyph-name="igrave" unicode="&#xec;" horiz-adv-x="244" 
d="M106 707l75 -154h-118l-93 154h136zM47 0v462h151v-462h-151z" />
    <glyph glyph-name="iacute" unicode="&#xed;" horiz-adv-x="244" 
d="M63 553l75 154h136l-93 -154h-118zM47 0v462h151v-462h-151z" />
    <glyph glyph-name="icircumflex" unicode="&#xee;" horiz-adv-x="244" 
d="M193 707l87 -154h-116l-42 91l-42 -91h-116l87 154h142zM47 0v462h151v-462h-151z" />
    <glyph glyph-name="idieresis" unicode="&#xef;" horiz-adv-x="244" 
d="M105 690v-135h-105v135h105zM244 690v-135h-105v135h105zM47 0v462h151v-462h-151z" />
    <glyph glyph-name="eth" unicode="&#xf0;" horiz-adv-x="567" 
d="M396 664q140 -112 140 -355q0 -87 -22.5 -152t-61.5 -101t-84.5 -53.5t-97.5 -17.5q-115 0 -182 70t-67 177q0 112 66.5 178.5t158.5 66.5q108 0 157 -85h2q-14 125 -104 189l-91 -81l-61 65l66 58q-41 15 -102 23l24 115q101 -12 180 -48l77 68l60 -66zM274 121
q48 0 80 31t32 80q0 51 -31.5 81t-81.5 30t-80.5 -30.5t-30.5 -80.5t31.5 -80.5t80.5 -30.5z" />
    <glyph glyph-name="ntilde" unicode="&#xf1;" horiz-adv-x="563" 
d="M209 707q31 0 90 -23t76 -23q32 0 54 46l57 -19q-17 -63 -44 -98t-72 -35q-32 0 -91 23t-76 23q-30 0 -54 -46l-56 19q33 133 116 133zM347 477q80 0 127 -48t47 -143v-286h-150v244q0 100 -85 100q-89 0 -89 -112v-232h-151v462h148v-70h2q50 85 151 85z" />
    <glyph glyph-name="ograve" unicode="&#xf2;" horiz-adv-x="561" 
d="M222 707l115 -154h-118l-162 154h165zM280 477q114 0 187 -68t73 -178t-73 -178t-187 -68q-113 0 -186 68t-73 178t73 178t186 68zM280 339q-46 0 -77 -30t-31 -78t31 -78t77 -30q47 0 77.5 29.5t30.5 78.5t-30.5 78.5t-77.5 29.5z" />
    <glyph glyph-name="oacute" unicode="&#xf3;" horiz-adv-x="561" 
d="M496 707l-162 -154h-118l115 154h165zM280 477q114 0 187 -68t73 -178t-73 -178t-187 -68q-113 0 -186 68t-73 178t73 178t186 68zM280 339q-46 0 -77 -30t-31 -78t31 -78t77 -30q47 0 77.5 29.5t30.5 78.5t-30.5 78.5t-77.5 29.5z" />
    <glyph glyph-name="ocircumflex" unicode="&#xf4;" horiz-adv-x="561" 
d="M350 707l122 -154h-125l-68 82l-67 -82h-125l122 154h141zM280 477q114 0 187 -68t73 -178t-73 -178t-187 -68q-113 0 -186 68t-73 178t73 178t186 68zM280 339q-46 0 -77 -30t-31 -78t31 -78t77 -30q47 0 77.5 29.5t30.5 78.5t-30.5 78.5t-77.5 29.5z" />
    <glyph glyph-name="otilde" unicode="&#xf5;" horiz-adv-x="561" 
d="M200 707q32 0 91 -23t75 -23q32 0 54 46l57 -19q-17 -63 -44 -98t-72 -35q-32 0 -91 23t-76 23q-30 0 -54 -46l-56 19q33 133 116 133zM280 477q114 0 187 -68t73 -178t-73 -178t-187 -68q-113 0 -186 68t-73 178t73 178t186 68zM280 339q-46 0 -77 -30t-31 -78t31 -78
t77 -30q47 0 77.5 29.5t30.5 78.5t-30.5 78.5t-77.5 29.5z" />
    <glyph glyph-name="odieresis" unicode="&#xf6;" horiz-adv-x="561" 
d="M248 690v-135h-124v135h124zM436 690v-135h-124v135h124zM280 477q114 0 187 -68t73 -178t-73 -178t-187 -68q-113 0 -186 68t-73 178t73 178t186 68zM280 339q-46 0 -77 -30t-31 -78t31 -78t77 -30q47 0 77.5 29.5t30.5 78.5t-30.5 78.5t-77.5 29.5z" />
    <glyph glyph-name="divide" unicode="&#xf7;" 
d="M348 513v-98h-96v98h96zM559 330v-63h-518v63h518zM348 182v-98h-96v98h96z" />
    <glyph glyph-name="oslash" unicode="&#xf8;" horiz-adv-x="561" 
d="M463 413q77 -69 77 -182q0 -110 -73 -178t-187 -68q-88 0 -156 44l-38 -43l-27 23l37 42q-75 69 -75 180q0 110 73 178t186 68q87 0 154 -42l37 42l27 -24zM172 231q0 -41 22 -68l143 162q-25 14 -57 14q-46 0 -77 -30t-31 -78zM280 123q47 0 77.5 29.5t30.5 78.5
q0 41 -24 71l-143 -163q27 -16 59 -16z" />
    <glyph glyph-name="ugrave" unicode="&#xf9;" horiz-adv-x="557" 
d="M223 707l115 -154h-118l-162 154h165zM216 -15q-78 0 -126.5 48.5t-48.5 143.5v285h156v-252q0 -93 76 -93q87 0 87 122v223h151v-462h-148v72h-2q-54 -87 -145 -87z" />
    <glyph glyph-name="uacute" unicode="&#xfa;" horiz-adv-x="557" 
d="M497 707l-162 -154h-118l115 154h165zM216 -15q-78 0 -126.5 48.5t-48.5 143.5v285h156v-252q0 -93 76 -93q87 0 87 122v223h151v-462h-148v72h-2q-54 -87 -145 -87z" />
    <glyph glyph-name="ucircumflex" unicode="&#xfb;" horiz-adv-x="557" 
d="M351 707l122 -154h-125l-68 82l-67 -82h-125l122 154h141zM216 -15q-78 0 -126.5 48.5t-48.5 143.5v285h156v-252q0 -93 76 -93q87 0 87 122v223h151v-462h-148v72h-2q-54 -87 -145 -87z" />
    <glyph glyph-name="udieresis" unicode="&#xfc;" horiz-adv-x="557" 
d="M249 690v-135h-124v135h124zM437 690v-135h-124v135h124zM216 -15q-78 0 -126.5 48.5t-48.5 143.5v285h156v-252q0 -93 76 -93q87 0 87 122v223h151v-462h-148v72h-2q-54 -87 -145 -87z" />
    <glyph glyph-name="yacute" unicode="&#xfd;" horiz-adv-x="560" 
d="M504 707l-162 -154h-118l115 154h165zM402 462h153l-307 -662h-152l116 244l-207 418h174l108 -255z" />
    <glyph glyph-name="thorn" unicode="&#xfe;" horiz-adv-x="590" 
d="M47 -200v900h151v-301h2q48 78 150 78q95 0 157.5 -64.5t62.5 -181.5t-62.5 -181.5t-157.5 -64.5q-102 0 -150 78h-2v-263h-151zM308 123q47 0 77 29.5t30 78.5t-30 78.5t-77 29.5q-46 0 -76 -29.5t-30 -78.5t30 -78.5t76 -29.5z" />
    <glyph glyph-name="ydieresis" unicode="&#xff;" horiz-adv-x="560" 
d="M256 690v-135h-124v135h124zM444 690v-135h-124v135h124zM402 462h153l-307 -662h-152l116 244l-207 418h174l108 -255z" />
    <glyph glyph-name="Amacron" unicode="&#x100;" horiz-adv-x="716" 
d="M520 844v-95h-324v95h324zM543 0l-50 142h-269l-50 -142h-174l276 700h164l276 -700h-173zM272 280h173l-87 248z" />
    <glyph glyph-name="amacron" unicode="&#x101;" horiz-adv-x="586" 
d="M442 673v-99h-325v99h325zM240 -15q-95 0 -157 64.5t-62 181.5t62 181.5t157 64.5q103 0 151 -78h2v63h151v-462h-151v63h-2q-48 -78 -151 -78zM282 123q47 0 77 29.5t30 78.5t-30 78.5t-77 29.5q-46 0 -76 -29.5t-30 -78.5t30 -78.5t76 -29.5z" />
    <glyph glyph-name="Abreve" unicode="&#x102;" horiz-adv-x="716" 
d="M358 735q-70 0 -113 34.5t-51 94.5h103q2 -19 18.5 -31.5t42.5 -12.5q27 0 43 12t18 32h103q-7 -60 -50.5 -94.5t-113.5 -34.5zM543 0l-50 142h-269l-50 -142h-174l276 700h164l276 -700h-173zM272 280h173l-87 248z" />
    <glyph glyph-name="abreve" unicode="&#x103;" horiz-adv-x="586" 
d="M443 700q0 -72 -46.5 -117t-117.5 -45t-117.5 45t-46.5 117h95q4 -70 69 -70t69 70h95zM240 -15q-95 0 -157 64.5t-62 181.5t62 181.5t157 64.5q103 0 151 -78h2v63h151v-462h-151v63h-2q-48 -78 -151 -78zM282 123q47 0 77 29.5t30 78.5t-30 78.5t-77 29.5
q-46 0 -76 -29.5t-30 -78.5t30 -78.5t76 -29.5z" />
    <glyph glyph-name="Aogonek" unicode="&#x104;" horiz-adv-x="716" 
d="M573 -116q11 0 39 6l12 -94q-52 -9 -70 -9q-111 0 -111 86q0 32 24 64.5t72 74.5l-46 130h-269l-50 -142h-174l276 700h164l276 -700h-98q-71 -68 -71 -94q0 -22 26 -22zM272 280h173l-87 248z" />
    <glyph glyph-name="aogonek" unicode="&#x105;" horiz-adv-x="586" 
d="M474 0q-71 -68 -71 -94q0 -22 26 -22q11 0 39 6l12 -94q-52 -9 -70 -9q-111 0 -111 86q0 32 23.5 64t70.5 74v52h-2q-48 -78 -151 -78q-95 0 -157 64.5t-62 181.5t62 181.5t157 64.5q103 0 151 -78h2v63h151v-462h-70zM282 123q47 0 77 29.5t30 78.5t-30 78.5t-77 29.5
q-46 0 -76 -29.5t-30 -78.5t30 -78.5t76 -29.5z" />
    <glyph glyph-name="Cacute" unicode="&#x106;" horiz-adv-x="667" 
d="M623 863l-171 -120h-109l115 120h165zM405 -15q-168 0 -276 100t-108 265t108 265t276 100q140 0 251 -78l-84 -136q-81 54 -167 54q-93 0 -153 -55.5t-60 -149.5t60 -149.5t153 -55.5q86 0 167 54l84 -136q-111 -78 -251 -78z" />
    <glyph glyph-name="cacute" unicode="&#x107;" horiz-adv-x="451" 
d="M486 707l-162 -154h-118l115 154h165zM278 -15q-112 0 -184.5 68t-72.5 178t72.5 178t184.5 68q89 0 167 -45l-62 -121q-44 28 -98 28q-47 0 -80 -29t-33 -79t33 -79t80 -29q54 0 98 28l62 -121q-78 -45 -167 -45z" />
    <glyph glyph-name="Ccircumflex" unicode="&#x108;" horiz-adv-x="667" 
d="M472 863l120 -120h-125l-67 62l-67 -62h-125l120 120h144zM405 -15q-168 0 -276 100t-108 265t108 265t276 100q140 0 251 -78l-84 -136q-81 54 -167 54q-93 0 -153 -55.5t-60 -149.5t60 -149.5t153 -55.5q86 0 167 54l84 -136q-111 -78 -251 -78z" />
    <glyph glyph-name="ccircumflex" unicode="&#x109;" horiz-adv-x="451" 
d="M340 707l122 -154h-125l-68 82l-67 -82h-125l122 154h141zM278 -15q-112 0 -184.5 68t-72.5 178t72.5 178t184.5 68q89 0 167 -45l-62 -121q-44 28 -98 28q-47 0 -80 -29t-33 -79t33 -79t80 -29q54 0 98 28l62 -121q-78 -45 -167 -45z" />
    <glyph glyph-name="Cdotaccent" unicode="&#x10a;" horiz-adv-x="667" 
d="M472 871v-128h-142v128h142zM405 -15q-168 0 -276 100t-108 265t108 265t276 100q140 0 251 -78l-84 -136q-81 54 -167 54q-93 0 -153 -55.5t-60 -149.5t60 -149.5t153 -55.5q86 0 167 54l84 -136q-111 -78 -251 -78z" />
    <glyph glyph-name="cdotaccent" unicode="&#x10b;" horiz-adv-x="451" 
d="M351 699v-152h-162v152h162zM278 -15q-112 0 -184.5 68t-72.5 178t72.5 178t184.5 68q89 0 167 -45l-62 -121q-44 28 -98 28q-47 0 -80 -29t-33 -79t33 -79t80 -29q54 0 98 28l62 -121q-78 -45 -167 -45z" />
    <glyph glyph-name="Ccaron" unicode="&#x10c;" horiz-adv-x="667" 
d="M472 743h-144l-120 120h125l67 -62l67 62h125zM405 -15q-168 0 -276 100t-108 265t108 265t276 100q140 0 251 -78l-84 -136q-81 54 -167 54q-93 0 -153 -55.5t-60 -149.5t60 -149.5t153 -55.5q86 0 167 54l84 -136q-111 -78 -251 -78z" />
    <glyph glyph-name="ccaron" unicode="&#x10d;" horiz-adv-x="451" 
d="M462 700l-122 -154h-141l-122 154h125l67 -82l68 82h125zM278 -15q-112 0 -184.5 68t-72.5 178t72.5 178t184.5 68q89 0 167 -45l-62 -121q-44 28 -98 28q-47 0 -80 -29t-33 -79t33 -79t80 -29q54 0 98 28l62 -121q-78 -45 -167 -45z" />
    <glyph glyph-name="Dcaron" unicode="&#x10e;" horiz-adv-x="683" 
d="M354 743h-144l-120 120h125l67 -62l67 62h125zM284 700q168 0 273 -94.5t105 -255.5t-105 -255.5t-273 -94.5h-223v700h223zM297 559h-81v-418h81q87 0 142.5 55.5t55.5 153.5t-55.5 153.5t-142.5 55.5z" />
    <glyph glyph-name="dcaron" unicode="&#x10f;" horiz-adv-x="727" 
d="M582 715h139v-140l-82 -82h-54l45 82h-48v140zM393 399v301h151v-700h-151v63h-2q-48 -78 -151 -78q-95 0 -157 64.5t-62 181.5t62 181.5t157 64.5q103 0 151 -78h2zM282 123q47 0 77 29.5t30 78.5t-30 78.5t-77 29.5q-46 0 -76 -29.5t-30 -78.5t30 -78.5t76 -29.5z" />
    <glyph glyph-name="Dcroat" unicode="&#x110;" horiz-adv-x="684" 
d="M285 700q168 0 273 -94.5t105 -255.5t-105 -255.5t-273 -94.5h-223v293h-71v126h71v281h223zM298 141q88 0 143 55.5t55 153.5t-55 153.5t-143 55.5h-81v-140h131v-126h-131v-152h81z" />
    <glyph glyph-name="dcroat" unicode="&#x111;" horiz-adv-x="613" 
d="M613 633v-87h-69v-546h-151v63h-2q-48 -78 -151 -78q-95 0 -157 64.5t-62 181.5t62 181.5t157 64.5q103 0 151 -78h2v147h-135v87h135v67h151v-67h69zM282 123q47 0 77 29.5t30 78.5t-30 78.5t-77 29.5q-46 0 -76 -29.5t-30 -78.5t30 -78.5t76 -29.5z" />
    <glyph glyph-name="Emacron" unicode="&#x112;" horiz-adv-x="530" 
d="M454 844v-95h-324v95h324zM216 145h283v-145h-438v700h433v-145h-278v-110h250v-141h-250v-159z" />
    <glyph glyph-name="emacron" unicode="&#x113;" horiz-adv-x="511" 
d="M428 673v-99h-325v99h325zM265 476q107 0 168 -62.5t61 -184.5v-34h-331q14 -84 118 -84q70 0 134 42l55 -114q-88 -54 -191 -54q-116 0 -187 67t-71 177q0 115 67.5 181t176.5 66zM260 369q-86 0 -96 -85h184q-1 40 -25.5 62.5t-62.5 22.5z" />
    <glyph glyph-name="Ebreve" unicode="&#x114;" horiz-adv-x="530" 
d="M292 735q-70 0 -113 34.5t-51 94.5h103q2 -19 18.5 -31.5t42.5 -12.5q27 0 43 12t18 32h103q-7 -60 -50.5 -94.5t-113.5 -34.5zM216 145h283v-145h-438v700h433v-145h-278v-110h250v-141h-250v-159z" />
    <glyph glyph-name="ebreve" unicode="&#x115;" horiz-adv-x="511" 
d="M429 700q0 -72 -46.5 -117t-117.5 -45t-117.5 45t-46.5 117h95q4 -70 69 -70t69 70h95zM265 476q107 0 168 -62.5t61 -184.5v-34h-331q14 -84 118 -84q70 0 134 42l55 -114q-88 -54 -191 -54q-116 0 -187 67t-71 177q0 115 67.5 181t176.5 66zM260 369q-86 0 -96 -85h184
q-1 40 -25.5 62.5t-62.5 22.5z" />
    <glyph glyph-name="Edotaccent" unicode="&#x116;" horiz-adv-x="530" 
d="M363 871v-128h-142v128h142zM216 145h283v-145h-438v700h433v-145h-278v-110h250v-141h-250v-159z" />
    <glyph glyph-name="edotaccent" unicode="&#x117;" horiz-adv-x="511" 
d="M346 699v-152h-162v152h162zM265 476q107 0 168 -62.5t61 -184.5v-34h-331q14 -84 118 -84q70 0 134 42l55 -114q-88 -54 -191 -54q-116 0 -187 67t-71 177q0 115 67.5 181t176.5 66zM260 369q-86 0 -96 -85h184q-1 40 -25.5 62.5t-62.5 22.5z" />
    <glyph glyph-name="Eogonek" unicode="&#x118;" horiz-adv-x="530" 
d="M473 0q-71 -68 -71 -94q0 -22 26 -22q11 0 39 6l12 -94q-52 -9 -70 -9q-111 0 -111 86q0 53 82 127h-319v700h433v-145h-278v-110h250v-141h-250v-159h283v-145h-26z" />
    <glyph glyph-name="eogonek" unicode="&#x119;" horiz-adv-x="511" 
d="M494 229v-34h-331q14 -84 118 -84q70 0 134 42l55 -114q-21 -14 -57 -29h2q-82 -76 -82 -104q0 -22 26 -22q11 0 39 6l12 -94q-52 -9 -70 -9q-111 0 -111 86q0 48 66 112h-16q-116 0 -187 67t-71 177q0 115 67.5 181t176.5 66q107 0 168 -62.5t61 -184.5zM164 284h184
q-1 40 -25.5 62.5t-62.5 22.5q-86 0 -96 -85z" />
    <glyph glyph-name="Ecaron" unicode="&#x11a;" horiz-adv-x="530" 
d="M363 743h-144l-120 120h125l67 -62l67 62h125zM216 145h283v-145h-438v700h433v-145h-278v-110h250v-141h-250v-159z" />
    <glyph glyph-name="ecaron" unicode="&#x11b;" horiz-adv-x="511" 
d="M457 700l-122 -154h-141l-122 154h125l67 -82l68 82h125zM265 476q107 0 168 -62.5t61 -184.5v-34h-331q14 -84 118 -84q70 0 134 42l55 -114q-88 -54 -191 -54q-116 0 -187 67t-71 177q0 115 67.5 181t176.5 66zM260 369q-86 0 -96 -85h184q-1 40 -25.5 62.5t-62.5 22.5
z" />
    <glyph glyph-name="Gcircumflex" unicode="&#x11c;" horiz-adv-x="751" 
d="M388 805l-67 -62h-125l120 120h144l120 -120h-125zM734 405q1 -12 1 -36q0 -173 -86.5 -278.5t-256.5 -105.5q-165 0 -268 99.5t-103 267.5q0 164 102.5 263.5t279.5 99.5q157 0 276 -92l-101 -133q-86 65 -179 65q-97 0 -152 -57t-55 -147q0 -92 56 -149t155 -57
q78 0 119.5 36t48.5 85h-180v139h343z" />
    <glyph glyph-name="gcircumflex" unicode="&#x11d;" horiz-adv-x="586" 
d="M358 707l122 -154h-125l-68 82l-67 -82h-125l122 154h141zM295 -215q-86 0 -198 23l25 141q97 -23 162 -23q58 0 83.5 23.5t25.5 82.5v30h-2q-53 -70 -152 -70q-95 0 -156.5 62.5t-61.5 177.5q0 116 62.5 180.5t156.5 64.5q103 0 151 -78h2v63h151v-462
q-1 -108 -64.5 -161.5t-184.5 -53.5zM282 123q47 0 77 29.5t30 78.5t-30 78.5t-77 29.5q-46 0 -76 -29.5t-30 -78.5t30 -78.5t76 -29.5z" />
    <glyph glyph-name="Gbreve" unicode="&#x11e;" horiz-adv-x="751" 
d="M389 735q-70 0 -113 34.5t-51 94.5h103q2 -19 18.5 -31.5t42.5 -12.5q27 0 43 12t18 32h103q-7 -60 -50.5 -94.5t-113.5 -34.5zM734 405q1 -12 1 -36q0 -173 -86.5 -278.5t-256.5 -105.5q-165 0 -268 99.5t-103 267.5q0 164 102.5 263.5t279.5 99.5q157 0 276 -92
l-101 -133q-86 65 -179 65q-97 0 -152 -57t-55 -147q0 -92 56 -149t155 -57q78 0 119.5 36t48.5 85h-180v139h343z" />
    <glyph glyph-name="gbreve" unicode="&#x11f;" horiz-adv-x="586" 
d="M452 700q0 -72 -46.5 -117t-117.5 -45t-117.5 45t-46.5 117h95q4 -70 69 -70t69 70h95zM295 -215q-86 0 -198 23l25 141q97 -23 162 -23q58 0 83.5 23.5t25.5 82.5v30h-2q-53 -70 -152 -70q-95 0 -156.5 62.5t-61.5 177.5q0 116 62.5 180.5t156.5 64.5q103 0 151 -78h2
v63h151v-462q-1 -108 -64.5 -161.5t-184.5 -53.5zM282 123q47 0 77 29.5t30 78.5t-30 78.5t-77 29.5q-46 0 -76 -29.5t-30 -78.5t30 -78.5t76 -29.5z" />
    <glyph glyph-name="Gdotaccent" unicode="&#x120;" horiz-adv-x="751" 
d="M460 871v-128h-142v128h142zM734 405q1 -12 1 -36q0 -173 -86.5 -278.5t-256.5 -105.5q-165 0 -268 99.5t-103 267.5q0 164 102.5 263.5t279.5 99.5q157 0 276 -92l-101 -133q-86 65 -179 65q-97 0 -152 -57t-55 -147q0 -92 56 -149t155 -57q78 0 119.5 36t48.5 85h-180
v139h343z" />
    <glyph glyph-name="gdotaccent" unicode="&#x121;" horiz-adv-x="586" 
d="M369 699v-152h-162v152h162zM295 -215q-86 0 -198 23l25 141q97 -23 162 -23q58 0 83.5 23.5t25.5 82.5v30h-2q-53 -70 -152 -70q-95 0 -156.5 62.5t-61.5 177.5q0 116 62.5 180.5t156.5 64.5q103 0 151 -78h2v63h151v-462q-1 -108 -64.5 -161.5t-184.5 -53.5zM282 123
q47 0 77 29.5t30 78.5t-30 78.5t-77 29.5q-46 0 -76 -29.5t-30 -78.5t30 -78.5t76 -29.5z" />
    <glyph glyph-name="Gcommaaccent" unicode="&#x122;" horiz-adv-x="751" 
d="M734 405q1 -12 1 -36q0 -173 -86.5 -278.5t-256.5 -105.5q-165 0 -268 99.5t-103 267.5q0 164 102.5 263.5t279.5 99.5q157 0 276 -92l-101 -133q-86 65 -179 65q-97 0 -152 -57t-55 -147q0 -92 56 -149t155 -57q78 0 119.5 36t48.5 85h-180v139h343zM333 -148v101h137
v-101l-65 -62h-52l33 62h-53z" />
    <glyph glyph-name="gcommaaccent" unicode="&#x123;" horiz-adv-x="586" 
d="M360 641v-101h-137v101l65 62h52l-33 -62h53zM393 462h151v-462q-1 -108 -64.5 -161.5t-184.5 -53.5q-86 0 -198 23l25 141q97 -23 162 -23q58 0 83.5 23.5t25.5 82.5v30h-2q-53 -70 -152 -70q-95 0 -156.5 62.5t-61.5 177.5q0 116 62.5 180.5t156.5 64.5q103 0 151 -78
h2v63zM282 123q47 0 77 29.5t30 78.5t-30 78.5t-77 29.5q-46 0 -76 -29.5t-30 -78.5t30 -78.5t76 -29.5z" />
    <glyph glyph-name="Hcircumflex" unicode="&#x124;" horiz-adv-x="723" 
d="M361 805l-67 -62h-125l120 120h144l120 -120h-125zM507 700h155v-700h-155v294h-291v-294h-155v700h155v-260h291v260z" />
    <glyph glyph-name="hcircumflex" unicode="&#x125;" horiz-adv-x="563" 
d="M193 863l120 -120h-125l-67 62l-67 -62h-125l120 120h144zM198 700v-299h2q50 76 148 76q80 0 127 -48t47 -143v-286h-151v244q0 100 -84 100q-89 0 -89 -112v-232h-151v700h151z" />
    <glyph glyph-name="Hbar" unicode="&#x126;" horiz-adv-x="741" 
d="M741 625v-117h-70v-508h-155v294h-291v-294h-155v508h-70v117h70v75h155v-75h291v75h155v-75h70zM516 440v68h-291v-68h291z" />
    <glyph glyph-name="hbar" unicode="&#x127;" horiz-adv-x="563" 
d="M348 477q80 0 127 -48t47 -143v-286h-151v244q0 100 -84 100q-89 0 -89 -112v-232h-151v546h-65v87h65v67h151v-67h132v-87h-132v-145h2q50 76 148 76z" />
    <glyph glyph-name="Itilde" unicode="&#x128;" horiz-adv-x="277" 
d="M219 738q-31 0 -95.5 18t-81.5 18q-32 0 -54 -38l-47 15q16 58 42.5 89t73.5 31q30 0 95 -18t82 -18q31 0 54 39l47 -16q-17 -58 -43.5 -89t-72.5 -31zM216 700v-700h-155v700h155z" />
    <glyph glyph-name="itilde" unicode="&#x129;" horiz-adv-x="244" 
d="M62 707q25 0 70.5 -23t59.5 -23q25 0 36 46l53 -19q-24 -133 -98 -133q-25 0 -70.5 23t-58.5 23q-26 0 -37 -46l-53 19q26 133 98 133zM47 0v462h151v-462h-151z" />
    <glyph glyph-name="Imacron" unicode="&#x12a;" horiz-adv-x="277" 
d="M300 844v-95h-324v95h324zM216 700v-700h-155v700h155z" />
    <glyph glyph-name="imacron" unicode="&#x12b;" horiz-adv-x="244" 
d="M235 673v-99h-225v99h225zM47 0v462h151v-462h-151z" />
    <glyph glyph-name="Ibreve" unicode="&#x12c;" horiz-adv-x="277" 
d="M302 864q-7 -60 -50.5 -94.5t-113.5 -34.5t-113 34.5t-51 94.5h103q2 -19 18.5 -31.5t42.5 -12.5q27 0 43 12t18 32h103zM216 700v-700h-155v700h155z" />
    <glyph glyph-name="ibreve" unicode="&#x12d;" horiz-adv-x="244" 
d="M257 700q0 -83 -36.5 -122.5t-98.5 -39.5t-98.5 39.5t-36.5 122.5h92q0 -37 9.5 -53.5t33.5 -16.5t33.5 16.5t9.5 53.5h92zM47 0v462h151v-462h-151z" />
    <glyph glyph-name="Iogonek" unicode="&#x12e;" horiz-adv-x="277" 
d="M179 0q-71 -68 -71 -94q0 -22 26 -22q11 0 39 6l12 -94q-52 -9 -70 -9q-111 0 -111 86q0 53 82 127h-25v700h155v-700h-37z" />
    <glyph glyph-name="iogonek" unicode="&#x12f;" horiz-adv-x="244" 
d="M41 699h162v-152h-162v152zM47 0v462h151v-462h-44q-71 -68 -71 -94q0 -22 26 -22q11 0 39 6l12 -94q-52 -9 -70 -9q-111 0 -111 86q0 53 82 127h-14z" />
    <glyph glyph-name="Idotaccent" unicode="&#x130;" horiz-adv-x="277" 
d="M209 871v-128h-142v128h142zM216 700v-700h-155v700h155z" />
    <glyph glyph-name="dotlessi" unicode="&#x131;" horiz-adv-x="244" 
d="M47 0v462h151v-462h-151z" />
    <glyph glyph-name="IJ" unicode="&#x132;" horiz-adv-x="578" 
d="M216 700v-700h-155v700h155zM517 700v-523q0 -93 -44 -136.5t-136 -43.5h-50v145h34q41 0 41 49v509h155z" />
    <glyph glyph-name="ij" unicode="&#x133;" horiz-adv-x="488" 
d="M203 699v-152h-162v152h162zM447 699v-152h-162v152h162zM47 0v462h151v-462h-151zM205 -63h25q61 0 61 66v459h151v-458q0 -207 -187 -207h-50v140z" />
    <glyph glyph-name="Jcircumflex" unicode="&#x134;" horiz-adv-x="301" 
d="M234 863l120 -120h-125l-67 62l-67 -62h-125l120 120h144zM240 700v-523q0 -93 -44 -136.5t-136 -43.5h-50v145h34q41 0 41 49v509h155z" />
    <glyph glyph-name="jcircumflex" unicode="&#x135;" horiz-adv-x="244" 
d="M193 707l87 -154h-116l-42 91l-42 -91h-116l87 154h142zM-39 -63h25q61 0 61 66v459h151v-458q0 -207 -187 -207h-50v140z" />
    <glyph glyph-name="Kcommaaccent" unicode="&#x136;" horiz-adv-x="726" 
d="M387 372l339 -372h-221l-289 335v-335h-155v700h155v-309l249 309h211zM280 -148v101h137v-101l-65 -62h-52l33 62h-53z" />
    <glyph glyph-name="kcommaaccent" unicode="&#x137;" horiz-adv-x="555" 
d="M337 252l213 -252h-195l-157 212v-212h-151v700h151v-420l135 182h187zM210 -148v101h137v-101l-65 -62h-52l33 62h-53z" />
    <glyph glyph-name="kgreenlandic" unicode="&#x138;" horiz-adv-x="555" 
d="M550 0h-195l-158 212v-212h-151v462h151v-182l136 182h186l-183 -210z" />
    <glyph glyph-name="Lacute" unicode="&#x139;" horiz-adv-x="496" 
d="M364 863l-171 -120h-109l115 120h165zM216 700v-554h279v-146h-434v700h155z" />
    <glyph glyph-name="lacute" unicode="&#x13a;" horiz-adv-x="244" 
d="M347 863l-171 -120h-109l115 120h165zM198 700v-700h-151v700h151z" />
    <glyph glyph-name="Lcommaaccent" unicode="&#x13b;" horiz-adv-x="496" 
d="M216 146h279v-146h-434v700h155v-554zM211 -148v101h137v-101l-65 -62h-52l33 62h-53z" />
    <glyph glyph-name="lcommaaccent" unicode="&#x13c;" horiz-adv-x="244" 
d="M47 700h151v-700h-151v700zM57 -148v101h137v-101l-65 -62h-52l33 62h-53z" />
    <glyph glyph-name="Lcaron" unicode="&#x13d;" horiz-adv-x="496" 
d="M322 419l53 156h-56v140h140v-140l-83 -156h-54zM216 146h279v-146h-434v700h155v-554z" />
    <glyph glyph-name="lcaron" unicode="&#x13e;" horiz-adv-x="389" 
d="M244 715h139v-140l-82 -82h-54l45 82h-48v140zM47 0v700h151v-700h-151z" />
    <glyph glyph-name="Ldot" unicode="&#x13f;" horiz-adv-x="496" 
d="M216 700v-554h279v-146h-434v700h155zM447 462v-161h-160v161h160z" />
    <glyph glyph-name="ldot" unicode="&#x140;" horiz-adv-x="398" 
d="M198 700v-700h-151v700h151zM388 463v-161h-160v161h160z" />
    <glyph glyph-name="Lslash" unicode="&#x141;" horiz-adv-x="496" 
d="M216 146h279v-146h-434v277l-71 -37v91l71 37v332h155v-252l172 89v-91l-172 -89v-211z" />
    <glyph glyph-name="lslash" unicode="&#x142;" horiz-adv-x="313" 
d="M303 510v-92l-71 -37v-381h-151v304l-71 -37v91l71 37v305h151v-227z" />
    <glyph glyph-name="Nacute" unicode="&#x143;" horiz-adv-x="744" 
d="M594 863l-171 -120h-109l115 120h165zM683 700v-700h-132l-334 431h-1v-431h-155v700h131l335 -433h1v433h155z" />
    <glyph glyph-name="nacute" unicode="&#x144;" horiz-adv-x="563" 
d="M505 707l-162 -154h-118l115 154h165zM347 477q80 0 127 -48t47 -143v-286h-150v244q0 100 -85 100q-89 0 -89 -112v-232h-151v462h148v-70h2q50 85 151 85z" />
    <glyph glyph-name="Ncommaaccent" unicode="&#x145;" horiz-adv-x="744" 
d="M528 700h155v-700h-132l-334 431h-1v-431h-155v700h131l335 -433h1v433zM304 -148v101h137v-101l-65 -62h-52l33 62h-53z" />
    <glyph glyph-name="ncommaaccent" unicode="&#x146;" horiz-adv-x="563" 
d="M347 477q80 0 127 -48t47 -143v-286h-150v244q0 100 -85 100q-89 0 -89 -112v-232h-151v462h148v-70h2q50 85 151 85zM220 -148v101h137v-101l-65 -62h-52l33 62h-53z" />
    <glyph glyph-name="Ncaron" unicode="&#x147;" horiz-adv-x="744" 
d="M443 743h-144l-120 120h125l67 -62l67 62h125zM683 700v-700h-132l-334 431h-1v-431h-155v700h131l335 -433h1v433h155z" />
    <glyph glyph-name="ncaron" unicode="&#x148;" horiz-adv-x="563" 
d="M481 700l-122 -154h-141l-122 154h125l67 -82l68 82h125zM347 477q80 0 127 -48t47 -143v-286h-150v244q0 100 -85 100q-89 0 -89 -112v-232h-151v462h148v-70h2q50 85 151 85z" />
    <glyph glyph-name="napostrophe" unicode="&#x149;" horiz-adv-x="663" 
d="M151 715v-140l-83 -156h-54l53 156h-56v140h140zM447 477q80 0 127 -48t47 -143v-286h-150v244q0 100 -85 100q-89 0 -89 -112v-232h-151v462h148v-70h2q50 85 151 85z" />
    <glyph glyph-name="Eng" unicode="&#x14a;" horiz-adv-x="744" 
d="M528 700h155v-721q0 -95 -48 -137t-139 -42h-71v146h43q32 0 46 12.5t14 44.5v27l-311 401h-1v-431h-155v700h131l335 -432h1v432z" />
    <glyph glyph-name="eng" unicode="&#x14b;" horiz-adv-x="563" 
d="M347 477q80 0 127 -48t47 -143v-309q0 -177 -170 -177h-68v135h40q24 0 35.5 9.5t11.5 40.5v16h1v243q0 100 -85 100q-89 0 -89 -112v-232h-151v462h148v-70h2q50 85 151 85z" />
    <glyph glyph-name="Omacron" unicode="&#x14c;" horiz-adv-x="780" 
d="M552 844v-95h-324v95h324zM390 715q158 0 263.5 -101.5t105.5 -263.5t-105.5 -263.5t-263.5 -101.5t-263.5 101.5t-105.5 263.5t105.5 263.5t263.5 101.5zM390 555q-86 0 -142 -56t-56 -149t56 -149t142 -56t142 56t56 149t-56 149t-142 56z" />
    <glyph glyph-name="omacron" unicode="&#x14d;" horiz-adv-x="561" 
d="M443 673v-99h-325v99h325zM280 477q114 0 187 -68t73 -178t-73 -178t-187 -68q-113 0 -186 68t-73 178t73 178t186 68zM280 339q-46 0 -77 -30t-31 -78t31 -78t77 -30q47 0 77.5 29.5t30.5 78.5t-30.5 78.5t-77.5 29.5z" />
    <glyph glyph-name="Obreve" unicode="&#x14e;" horiz-adv-x="780" 
d="M554 864q-7 -60 -50.5 -94.5t-113.5 -34.5t-113 34.5t-51 94.5h103q2 -19 18.5 -31.5t42.5 -12.5q27 0 43 12t18 32h103zM390 715q158 0 263.5 -101.5t105.5 -263.5t-105.5 -263.5t-263.5 -101.5t-263.5 101.5t-105.5 263.5t105.5 263.5t263.5 101.5zM390 555
q-86 0 -142 -56t-56 -149t56 -149t142 -56t142 56t56 149t-56 149t-142 56z" />
    <glyph glyph-name="obreve" unicode="&#x14f;" horiz-adv-x="561" 
d="M444 700q0 -72 -46.5 -117t-117.5 -45t-117.5 45t-46.5 117h95q4 -70 69 -70t69 70h95zM280 477q114 0 187 -68t73 -178t-73 -178t-187 -68q-113 0 -186 68t-73 178t73 178t186 68zM280 339q-46 0 -77 -30t-31 -78t31 -78t77 -30q47 0 77.5 29.5t30.5 78.5t-30.5 78.5
t-77.5 29.5z" />
    <glyph glyph-name="Ohungarumlaut" unicode="&#x150;" horiz-adv-x="780" 
d="M493 863l-113 -120h-102l98 120h117zM651 863l-113 -120h-102l98 120h117zM390 715q158 0 263.5 -101.5t105.5 -263.5t-105.5 -263.5t-263.5 -101.5t-263.5 101.5t-105.5 263.5t105.5 263.5t263.5 101.5zM390 555q-86 0 -142 -56t-56 -149t56 -149t142 -56t142 56t56 149
t-56 149t-142 56z" />
    <glyph glyph-name="ohungarumlaut" unicode="&#x151;" horiz-adv-x="561" 
d="M393 707l-142 -154h-102l122 154h122zM552 707l-142 -154h-102l122 154h122zM280 477q114 0 187 -68t73 -178t-73 -178t-187 -68q-113 0 -186 68t-73 178t73 178t186 68zM280 339q-46 0 -77 -30t-31 -78t31 -78t77 -30q47 0 77.5 29.5t30.5 78.5t-30.5 78.5t-77.5 29.5z
" />
    <glyph glyph-name="OE" unicode="&#x152;" horiz-adv-x="1057" 
d="M743 141h283v-141h-438v48q-75 -63 -198 -63q-158 0 -263.5 101.5t-105.5 263.5t105.5 263.5t263.5 101.5q123 0 198 -63v48h432v-141h-277v-114h250v-141h-250v-163zM390 145q87 0 144.5 56t57.5 149t-57.5 149t-144.5 56q-86 0 -142 -56t-56 -149t56 -149t142 -56z" />
    <glyph glyph-name="oe" unicode="&#x153;" horiz-adv-x="861" 
d="M615 476q107 0 168.5 -64t61.5 -179v-40h-331q20 -78 117 -78q71 0 134 39l54 -118q-89 -51 -189 -51q-126 0 -187 79h-2q-61 -79 -173 -79q-108 0 -177.5 69t-69.5 177t69.5 177t177.5 69q112 0 173 -78h2q60 77 172 77zM611 361q-82 0 -99 -77h183q-1 37 -24.5 57
t-59.5 20zM268 341q-45 0 -75.5 -30t-30.5 -80t30.5 -80t75.5 -30t75 30t30 80t-30 80t-75 30z" />
    <glyph glyph-name="Racute" unicode="&#x154;" horiz-adv-x="617" 
d="M498 863l-171 -120h-109l115 120h165zM422 0l-176 265h-30v-265h-155v700h280q114 0 176 -61.5t62 -157.5q0 -79 -42 -134.5t-121 -73.5l200 -273h-194zM216 559v-164h102q97 0 97 82q0 39 -25.5 60.5t-71.5 21.5h-102z" />
    <glyph glyph-name="racute" unicode="&#x155;" horiz-adv-x="362" 
d="M401 707l-162 -154h-118l115 154h165zM352 476v-151h-13q-77 0 -109.5 -34t-32.5 -121v-170h-151v462h148v-94h2q38 108 153 108h3z" />
    <glyph glyph-name="Rcommaaccent" unicode="&#x156;" horiz-adv-x="617" 
d="M416 273l200 -273h-194l-176 265h-30v-265h-155v700h280q114 0 176 -61.5t62 -157.5q0 -79 -42 -134.5t-121 -73.5zM216 559v-164h102q97 0 97 82q0 39 -25.5 60.5t-71.5 21.5h-102zM256 -148v101h137v-101l-65 -62h-52l33 62h-53z" />
    <glyph glyph-name="rcommaaccent" unicode="&#x157;" horiz-adv-x="362" 
d="M349 476h3v-151h-13q-77 0 -109.5 -34t-32.5 -121v-170h-151v462h148v-94h2q38 108 153 108zM56 -148v101h137v-101l-65 -62h-52l33 62h-53z" />
    <glyph glyph-name="Rcaron" unicode="&#x158;" horiz-adv-x="617" 
d="M347 743h-144l-120 120h125l67 -62l67 62h125zM422 0l-176 265h-30v-265h-155v700h280q114 0 176 -61.5t62 -157.5q0 -79 -42 -134.5t-121 -73.5l200 -273h-194zM216 559v-164h102q97 0 97 82q0 39 -25.5 60.5t-71.5 21.5h-102z" />
    <glyph glyph-name="rcaron" unicode="&#x159;" horiz-adv-x="362" 
d="M377 700l-122 -154h-141l-122 154h125l67 -82l68 82h125zM352 476v-151h-13q-77 0 -109.5 -34t-32.5 -121v-170h-151v462h148v-94h2q38 108 153 108h3z" />
    <glyph glyph-name="Sacute" unicode="&#x15a;" horiz-adv-x="544" 
d="M512 863l-171 -120h-109l115 120h165zM280 715q109 0 227 -51l-65 -137q-94 44 -158 44t-64 -41q0 -16 11.5 -28.5t41.5 -30.5l116 -73q67 -41 100 -88t33 -117q0 -101 -66 -154.5t-189 -53.5q-141 0 -261 70l70 139q105 -64 197 -64q86 0 86 56q0 22 -16 38t-50 37
l-107 67q-129 77 -129 200q0 87 57 137t166 50z" />
    <glyph glyph-name="sacute" unicode="&#x15b;" horiz-adv-x="434" 
d="M455 707l-162 -154h-118l115 154h165zM219 -15q-113 0 -209 48l57 124q91 -53 164 -53q42 0 42 21q0 5 -1.5 9t-6 6.5t-7 4t-9 4t-8.5 3.5l-81 32q-113 43 -113 143q0 72 50 111t148 39q80 0 167 -28l-42 -122q-83 34 -137 34q-37 0 -37 -20q0 -10 8 -15.5t27 -13.5
l80 -30q56 -21 84 -53t28 -88q0 -80 -54 -118t-150 -38z" />
    <glyph glyph-name="Scircumflex" unicode="&#x15c;" horiz-adv-x="544" 
d="M361 863l120 -120h-125l-67 62l-67 -62h-125l120 120h144zM280 715q109 0 227 -51l-65 -137q-94 44 -158 44t-64 -41q0 -16 11.5 -28.5t41.5 -30.5l116 -73q67 -41 100 -88t33 -117q0 -101 -66 -154.5t-189 -53.5q-141 0 -261 70l70 139q105 -64 197 -64q86 0 86 56
q0 22 -16 38t-50 37l-107 67q-129 77 -129 200q0 87 57 137t166 50z" />
    <glyph glyph-name="scircumflex" unicode="&#x15d;" horiz-adv-x="434" 
d="M309 707l122 -154h-125l-68 82l-67 -82h-125l122 154h141zM219 -15q-113 0 -209 48l57 124q91 -53 164 -53q42 0 42 21q0 5 -1.5 9t-6 6.5t-7 4t-9 4t-8.5 3.5l-81 32q-113 43 -113 143q0 72 50 111t148 39q80 0 167 -28l-42 -122q-83 34 -137 34q-37 0 -37 -20
q0 -10 8 -15.5t27 -13.5l80 -30q56 -21 84 -53t28 -88q0 -80 -54 -118t-150 -38z" />
    <glyph glyph-name="Scedilla" unicode="&#x15e;" horiz-adv-x="544" 
d="M522 193q0 -94 -57.5 -147t-165.5 -60l-10 -24q45 -8 67 -21t22 -41q0 -24 -24 -44.5t-49.5 -31.5t-86.5 -33q-5 -2 -8 -3l-16 37q44 19 62.5 30t18.5 23q0 13 -12 19.5t-44 13.5l28 74q-133 6 -241 70l70 139q105 -64 197 -64q86 0 86 56q0 22 -16 38t-50 37l-107 67
q-129 77 -129 200q0 87 57 137t166 50t227 -51l-65 -137q-94 44 -158 44t-64 -41q0 -16 11.5 -28.5t41.5 -30.5l116 -73q67 -41 100 -88t33 -117z" />
    <glyph glyph-name="scedilla" unicode="&#x15f;" horiz-adv-x="434" 
d="M423 141q0 -145 -177 -155l-10 -24q45 -8 67 -21t22 -41q0 -24 -24 -44.5t-49.5 -31.5t-86.5 -33q-5 -2 -8 -3l-16 37q44 19 62.5 30t18.5 23q0 13 -12 19.5t-44 13.5l28 75q-99 5 -184 47l57 124q91 -53 164 -53q42 0 42 21q0 5 -1.5 9t-6 6.5t-7 4t-9 4t-8.5 3.5
l-81 32q-113 43 -113 143q0 72 50 111t148 39q80 0 167 -28l-42 -122q-83 34 -137 34q-37 0 -37 -20q0 -10 8 -15.5t27 -13.5l80 -30q56 -21 84 -53t28 -88z" />
    <glyph glyph-name="Scaron" unicode="&#x160;" horiz-adv-x="544" 
d="M361 743h-144l-120 120h125l67 -62l67 62h125zM280 715q109 0 227 -51l-65 -137q-94 44 -158 44t-64 -41q0 -16 11.5 -28.5t41.5 -30.5l116 -73q67 -41 100 -88t33 -117q0 -101 -66 -154.5t-189 -53.5q-141 0 -261 70l70 139q105 -64 197 -64q86 0 86 56q0 22 -16 38
t-50 37l-107 67q-129 77 -129 200q0 87 57 137t166 50z" />
    <glyph glyph-name="scaron" unicode="&#x161;" horiz-adv-x="434" 
d="M431 700l-122 -154h-141l-122 154h125l67 -82l68 82h125zM219 -15q-113 0 -209 48l57 124q91 -53 164 -53q42 0 42 21q0 5 -1.5 9t-6 6.5t-7 4t-9 4t-8.5 3.5l-81 32q-113 43 -113 143q0 72 50 111t148 39q80 0 167 -28l-42 -122q-83 34 -137 34q-37 0 -37 -20
q0 -10 8 -15.5t27 -13.5l80 -30q56 -21 84 -53t28 -88q0 -80 -54 -118t-150 -38z" />
    <glyph glyph-name="uni0162" unicode="&#x162;" horiz-adv-x="534" 
d="M345 0h-59l-16 -38q45 -8 67 -21t22 -41q0 -24 -24 -44.5t-49.5 -31.5t-86.5 -33q-5 -2 -8 -3l-16 37q44 19 62.5 30t18.5 23q0 13 -12 19.5t-44 13.5l33 89h-43v555h-185v145h524v-145h-184v-555z" />
    <glyph glyph-name="uni0163" unicode="&#x163;" horiz-adv-x="362" 
d="M346 336h-95v-139q0 -33 10.5 -45t39.5 -12h17v-140h-63h-4l-16 -38q45 -8 67 -21t22 -41q0 -24 -24 -44.5t-49.5 -31.5t-86.5 -33q-5 -2 -8 -3l-16 37q44 19 62.5 30t18.5 23q0 13 -12 19.5t-44 13.5l36 95q-101 26 -101 150v180h-90v126h90v185h151v-185h95v-126z" />
    <glyph glyph-name="Tcaron" unicode="&#x164;" horiz-adv-x="534" 
d="M338 743h-144l-120 120h125l67 -62l67 62h125zM529 700v-145h-184v-555h-155v555h-185v145h524z" />
    <glyph glyph-name="tcaron" unicode="&#x165;" horiz-adv-x="463" 
d="M314 715h139v-140l-82 -82h-54l45 82h-48v140zM251 647v-185h95v-126h-95v-139q0 -33 10.5 -45t39.5 -12h17v-140h-63q-155 0 -155 156v180h-90v126h90v185h151z" />
    <glyph glyph-name="Tbar" unicode="&#x166;" horiz-adv-x="534" 
d="M529 555h-184v-93h116v-117h-116v-345h-155v345h-116v117h116v93h-185v145h524v-145z" />
    <glyph glyph-name="tbar" unicode="&#x167;" horiz-adv-x="373" 
d="M346 336h-95v-46h86v-76h-86v-17q0 -33 10.5 -45t39.5 -12h17v-140h-63q-155 0 -155 156v58h-76v76h76v46h-90v126h90v185h151v-185h95v-126z" />
    <glyph glyph-name="Utilde" unicode="&#x168;" horiz-adv-x="706" 
d="M434 738q-31 0 -95.5 18t-81.5 18q-32 0 -54 -38l-47 15q16 58 42.5 89t73.5 31q30 0 95 -18t82 -18q31 0 54 39l47 -16q-17 -58 -43.5 -89t-72.5 -31zM650 700v-417q0 -139 -76 -217.5t-221 -78.5q-146 0 -222 78.5t-76 217.5v417h165v-403q0 -68 34.5 -109t98.5 -41
t98.5 41t34.5 109v403h164z" />
    <glyph glyph-name="utilde" unicode="&#x169;" horiz-adv-x="557" 
d="M201 707q31 0 90 -23t76 -23q32 0 54 46l57 -19q-17 -63 -44 -98t-72 -35q-32 0 -91 23t-76 23q-30 0 -54 -46l-56 19q33 133 116 133zM216 -15q-78 0 -126.5 48.5t-48.5 143.5v285h156v-252q0 -93 76 -93q87 0 87 122v223h151v-462h-148v72h-2q-54 -87 -145 -87z" />
    <glyph glyph-name="Umacron" unicode="&#x16a;" horiz-adv-x="706" 
d="M515 844v-95h-324v95h324zM650 700v-417q0 -139 -76 -217.5t-221 -78.5q-146 0 -222 78.5t-76 217.5v417h165v-403q0 -68 34.5 -109t98.5 -41t98.5 41t34.5 109v403h164z" />
    <glyph glyph-name="umacron" unicode="&#x16b;" horiz-adv-x="557" 
d="M444 673v-99h-325v99h325zM216 -15q-78 0 -126.5 48.5t-48.5 143.5v285h156v-252q0 -93 76 -93q87 0 87 122v223h151v-462h-148v72h-2q-54 -87 -145 -87z" />
    <glyph glyph-name="Ubreve" unicode="&#x16c;" horiz-adv-x="706" 
d="M517 864q-7 -60 -50.5 -94.5t-113.5 -34.5t-113 34.5t-51 94.5h103q2 -19 18.5 -31.5t42.5 -12.5q27 0 43 12t18 32h103zM650 700v-417q0 -139 -76 -217.5t-221 -78.5q-146 0 -222 78.5t-76 217.5v417h165v-403q0 -68 34.5 -109t98.5 -41t98.5 41t34.5 109v403h164z" />
    <glyph glyph-name="ubreve" unicode="&#x16d;" horiz-adv-x="557" 
d="M445 700q0 -72 -46.5 -117t-117.5 -45t-117.5 45t-46.5 117h95q4 -70 69 -70t69 70h95zM216 -15q-78 0 -126.5 48.5t-48.5 143.5v285h156v-252q0 -93 76 -93q87 0 87 122v223h151v-462h-148v72h-2q-54 -87 -145 -87z" />
    <glyph glyph-name="Uring" unicode="&#x16e;" horiz-adv-x="706" 
d="M353 872q52 0 86 -33t34 -84t-34 -84t-86 -33q-53 0 -87 33t-34 84t34 84t87 33zM353 811q-26 0 -41.5 -16t-15.5 -40t15.5 -39.5t41.5 -15.5q25 0 41 15.5t16 39.5t-16 40t-41 16zM650 700v-417q0 -139 -76 -217.5t-221 -78.5q-146 0 -222 78.5t-76 217.5v417h165v-403
q0 -68 34.5 -109t98.5 -41t98.5 41t34.5 109v403h164z" />
    <glyph glyph-name="uring" unicode="&#x16f;" horiz-adv-x="557" 
d="M280 747q52 0 86 -33t34 -84t-34 -84t-86 -33t-86 33t-34 84t34 84t86 33zM280 685q-25 0 -40.5 -15.5t-15.5 -39.5t15.5 -39.5t40.5 -15.5t40.5 15.5t15.5 39.5t-15.5 39.5t-40.5 15.5zM216 -15q-78 0 -126.5 48.5t-48.5 143.5v285h156v-252q0 -93 76 -93q87 0 87 122
v223h151v-462h-148v72h-2q-54 -87 -145 -87z" />
    <glyph glyph-name="Uhungarumlaut" unicode="&#x170;" horiz-adv-x="706" 
d="M456 863l-113 -120h-102l98 120h117zM614 863l-113 -120h-102l98 120h117zM650 700v-417q0 -139 -76 -217.5t-221 -78.5q-146 0 -222 78.5t-76 217.5v417h165v-403q0 -68 34.5 -109t98.5 -41t98.5 41t34.5 109v403h164z" />
    <glyph glyph-name="uhungarumlaut" unicode="&#x171;" horiz-adv-x="557" 
d="M394 707l-142 -154h-102l122 154h122zM553 707l-142 -154h-102l122 154h122zM216 -15q-78 0 -126.5 48.5t-48.5 143.5v285h156v-252q0 -93 76 -93q87 0 87 122v223h151v-462h-148v72h-2q-54 -87 -145 -87z" />
    <glyph glyph-name="Uogonek" unicode="&#x172;" horiz-adv-x="706" 
d="M486 700h164v-417q0 -121 -58.5 -197t-170.5 -94q-63 -61 -63 -86q0 -22 26 -22q11 0 39 6l12 -94q-52 -9 -70 -9q-111 0 -111 86q0 49 69 115q-131 8 -199.5 86t-68.5 209v417h165v-403q0 -68 34.5 -109t98.5 -41t98.5 41t34.5 109v403z" />
    <glyph glyph-name="uogonek" unicode="&#x173;" horiz-adv-x="557" 
d="M444 0q-71 -68 -71 -94q0 -22 26 -22q11 0 39 6l12 -94q-52 -9 -70 -9q-111 0 -111 86q0 32 23.5 64t70.5 74v61h-2q-54 -87 -145 -87q-78 0 -126.5 48.5t-48.5 143.5v285h156v-252q0 -93 76 -93q87 0 87 122v223h151v-462h-67z" />
    <glyph glyph-name="Wcircumflex" unicode="&#x174;" horiz-adv-x="1066" 
d="M604 863l120 -120h-125l-67 62l-67 -62h-125l120 120h144zM1060 700l-235 -700h-137l-154 454h-2l-154 -454h-137l-235 700h181l125 -450h2l151 450h136l151 -450h2l125 450h181z" />
    <glyph glyph-name="wcircumflex" unicode="&#x175;" horiz-adv-x="808" 
d="M404 635l-67 -82h-125l122 154h141l122 -154h-125zM654 462h149l-168 -462h-129l-102 270l-101 -270h-129l-169 462h150l86 -271l94 271h139l93 -271z" />
    <glyph glyph-name="Ycircumflex" unicode="&#x176;" horiz-adv-x="659" 
d="M328 805l-67 -62h-125l120 120h144l120 -120h-125zM659 700l-252 -447v-253h-155v251l-252 449h186l142 -293h2l143 293h186z" />
    <glyph glyph-name="ycircumflex" unicode="&#x177;" horiz-adv-x="560" 
d="M287 635l-67 -82h-125l122 154h141l122 -154h-125zM402 462h153l-307 -662h-152l116 244l-207 418h174l108 -255z" />
    <glyph glyph-name="Ydieresis" unicode="&#x178;" horiz-adv-x="659" 
d="M287 857v-114h-133v114h133zM505 857v-114h-134v114h134zM659 700l-252 -447v-253h-155v251l-252 449h186l142 -293h2l143 293h186z" />
    <glyph glyph-name="Zacute" unicode="&#x179;" horiz-adv-x="568" 
d="M509 863l-171 -120h-109l115 120h165zM212 145h336v-145h-528v145l329 410h-303v145h492v-145z" />
    <glyph glyph-name="zacute" unicode="&#x17a;" horiz-adv-x="451" 
d="M453 707l-162 -154h-118l115 154h165zM421 351l-221 -224h236v-127h-420v114l216 221h-200v127h389v-111z" />
    <glyph glyph-name="Zdotaccent" unicode="&#x17b;" horiz-adv-x="568" 
d="M358 871v-128h-142v128h142zM212 145h336v-145h-528v145l329 410h-303v145h492v-145z" />
    <glyph glyph-name="zdotaccent" unicode="&#x17c;" horiz-adv-x="451" 
d="M318 699v-152h-162v152h162zM200 127h236v-127h-420v114l216 221h-200v127h389v-111z" />
    <glyph glyph-name="Zcaron" unicode="&#x17d;" horiz-adv-x="568" 
d="M358 743h-144l-120 120h125l67 -62l67 62h125zM212 145h336v-145h-528v145l329 410h-303v145h492v-145z" />
    <glyph glyph-name="zcaron" unicode="&#x17e;" horiz-adv-x="451" 
d="M307 546h-141l-122 154h125l67 -82l68 82h125zM200 127h236v-127h-420v114l216 221h-200v127h389v-111z" />
    <glyph glyph-name="uni018F" unicode="&#x18f;" horiz-adv-x="769" 
d="M359 715q183 0 285.5 -97.5t102.5 -266.5q0 -167 -99 -266.5t-269 -99.5t-264 99t-94 260v71h549q-34 145 -209 145q-105 0 -228 -63l-71 149q142 69 297 69zM380 133q164 0 192 150h-376q25 -150 184 -150z" />
    <glyph glyph-name="florin" unicode="&#x192;" horiz-adv-x="405" 
d="M348 543q-41 0 -60.5 -17t-19.5 -55v-9h116v-30h-116v-415q0 -102 -49.5 -159.5t-140.5 -57.5h-58v133h41q62 0 62 74v425h-95v30h95v8q0 97 53.5 151t160.5 54h47v-132h-36z" />
    <glyph glyph-name="uni01E5" unicode="&#x1e5;" horiz-adv-x="586" 
d="M586 -27v-21h-46q-28 -167 -245 -167q-86 0 -198 23l25 141q97 -23 162 -23q63 0 86 26h-127v21h141q9 22 9 59v30h-2q-53 -70 -152 -70q-95 0 -156.5 62.5t-61.5 177.5q0 116 62.5 180.5t156.5 64.5q103 0 151 -78h2v63h151v-462q0 -18 -1 -27h43zM282 123q47 0 77 29.5
t30 78.5t-30 78.5t-77 29.5q-46 0 -76 -29.5t-30 -78.5t30 -78.5t76 -29.5z" />
    <glyph glyph-name="uni01E9" unicode="&#x1e9;" horiz-adv-x="555" 
d="M365 743h-144l-120 120h125l67 -62l67 62h125zM550 0h-195l-157 212v-212h-151v700h151v-420l135 182h187l-183 -210z" />
    <glyph glyph-name="AEacute" unicode="&#x1fc;" horiz-adv-x="999" 
d="M917 863l-171 -120h-109l115 120h165zM705 141h262v-141h-412v142h-267l-86 -142h-202l463 700h500v-141h-258v-114h231v-141h-231v-163zM372 280h183v303z" />
    <glyph glyph-name="aeacute" unicode="&#x1fd;" horiz-adv-x="828" 
d="M639 707l-162 -154h-118l115 154h165zM211 -15q-87 0 -137 44.5t-50 120.5q0 75 49 118.5t134 43.5q87 0 136 -42h2v20q0 29 -24.5 50.5t-78.5 21.5q-48 0 -132 -20l-30 115q95 20 163 20q64 0 105 -18.5t64 -66.5h2q57 84 175 84q102 0 162 -62.5t60 -184.5v-34h-328
q20 -84 116 -84q72 0 133 42l55 -114q-88 -54 -188 -54q-133 0 -192 93h-2q-70 -93 -194 -93zM484 284h181q-1 40 -25.5 62.5t-61.5 22.5q-36 0 -62.5 -21.5t-31.5 -63.5zM266 98q36 0 59 15.5t23 42.5t-23 43t-58 16t-56 -16t-21 -43t20.5 -42.5t55.5 -15.5z" />
    <glyph glyph-name="Oslashacute" unicode="&#x1fe;" horiz-adv-x="780" 
d="M612 863l-171 -120h-109l115 120h165zM634 631q125 -104 125 -281q0 -162 -105.5 -263.5t-263.5 -101.5q-113 0 -201 54l-40 -53l-43 30l40 53q-125 104 -125 281q0 162 105.5 263.5t263.5 101.5q113 0 201 -54l40 53l43 -30zM192 350q0 -92 55 -147l245 326
q-44 26 -102 26q-86 0 -142 -56t-56 -149zM390 145q86 0 142 56t56 149q0 92 -55 147l-245 -326q44 -26 102 -26z" />
    <glyph glyph-name="oslashacute" unicode="&#x1ff;" horiz-adv-x="561" 
d="M497 707l-162 -154h-118l115 154h165zM463 413q77 -69 77 -182q0 -110 -73 -178t-187 -68q-88 0 -156 44l-38 -43l-27 23l37 42q-75 69 -75 180q0 110 73 178t186 68q87 0 154 -42l37 42l27 -24zM172 231q0 -41 22 -68l143 162q-25 14 -57 14q-46 0 -77 -30t-31 -78z
M280 123q47 0 77.5 29.5t30.5 78.5q0 41 -24 71l-143 -163q27 -16 59 -16z" />
    <glyph glyph-name="Scommaaccent" unicode="&#x218;" horiz-adv-x="544" 
d="M389 398q67 -41 100 -88t33 -117q0 -101 -66 -154.5t-189 -53.5q-141 0 -261 70l70 139q105 -64 197 -64q86 0 86 56q0 22 -16 38t-50 37l-107 67q-129 77 -129 200q0 87 57 137t166 50t227 -51l-65 -137q-94 44 -158 44t-64 -41q0 -16 11.5 -28.5t41.5 -30.5zM218 -148
v101h137v-101l-65 -62h-52l33 62h-53z" />
    <glyph glyph-name="scommaaccent" unicode="&#x219;" horiz-adv-x="434" 
d="M311 282q56 -21 84 -53t28 -88q0 -80 -54 -118t-150 -38q-113 0 -209 48l57 124q91 -53 164 -53q42 0 42 21q0 5 -1.5 9t-6 6.5t-7 4t-9 4t-8.5 3.5l-81 32q-113 43 -113 143q0 72 50 111t148 39q80 0 167 -28l-42 -122q-83 34 -137 34q-37 0 -37 -20q0 -10 8 -15.5
t27 -13.5zM165 -148v101h137v-101l-65 -62h-52l33 62h-53z" />
    <glyph glyph-name="uni021A" unicode="&#x21a;" horiz-adv-x="534" 
d="M529 700v-145h-184v-555h-155v555h-185v145h524zM199 -148v101h137v-101l-65 -62h-52l33 62h-53z" />
    <glyph glyph-name="uni021B" unicode="&#x21b;" horiz-adv-x="362" 
d="M346 336h-95v-139q0 -33 10.5 -45t39.5 -12h17v-140h-63q-155 0 -155 156v180h-90v126h90v185h151v-185h95v-126zM164 -148v101h137v-101l-65 -62h-52l33 62h-53z" />
    <glyph glyph-name="uni0232" unicode="&#x232;" horiz-adv-x="659" 
d="M491 844v-95h-324v95h324zM659 700l-252 -447v-253h-155v251l-252 449h186l142 -293h2l143 293h186z" />
    <glyph glyph-name="uni0233" unicode="&#x233;" horiz-adv-x="560" 
d="M451 673v-99h-325v99h325zM402 462h153l-307 -662h-152l116 244l-207 418h174l108 -255z" />
    <glyph glyph-name="uni0237" unicode="&#x237;" horiz-adv-x="244" 
d="M-39 -63h25q61 0 61 66v459h151v-458q0 -207 -187 -207h-50v140z" />
    <glyph glyph-name="uni0259" unicode="&#x259;" horiz-adv-x="511" 
d="M246 -14q-107 0 -168 62.5t-61 184.5v34h331q-14 84 -118 84q-70 0 -134 -42l-55 114q88 54 191 54q116 0 187 -67t71 -177q0 -115 -67.5 -181t-176.5 -66zM251 93q86 0 96 85h-184q1 -40 25.5 -62.5t62.5 -22.5z" />
    <glyph glyph-name="uni0292" unicode="&#x292;" horiz-adv-x="506" 
d="M220 -215q-132 0 -235 51l53 127q91 -44 178 -44q58 0 88.5 22.5t30.5 63.5q0 86 -142 86h-92v100l162 135h-239v136h425v-126l-204 -156q24 5 49 5q82 0 134.5 -48t52.5 -134q0 -101 -63.5 -159.5t-197.5 -58.5z" />
    <glyph glyph-name="uni02BC" unicode="&#x2bc;" horiz-adv-x="187" 
d="M22 715h140v-140l-83 -156h-54l53 156h-56v140z" />
    <glyph glyph-name="circumflex" unicode="&#x2c6;" horiz-adv-x="485" 
d="M313 707l122 -154h-125l-68 82l-67 -82h-125l122 154h141z" />
    <glyph glyph-name="caron" unicode="&#x2c7;" horiz-adv-x="485" 
d="M435 700l-122 -154h-141l-122 154h125l67 -82l68 82h125z" />
    <glyph glyph-name="breve" unicode="&#x2d8;" horiz-adv-x="428" 
d="M378 700q0 -72 -46.5 -117t-117.5 -45t-117.5 45t-46.5 117h95q4 -70 69 -70t69 70h95z" />
    <glyph glyph-name="dotaccent" unicode="&#x2d9;" horiz-adv-x="262" 
d="M212 699v-152h-162v152h162z" />
    <glyph glyph-name="ring" unicode="&#x2da;" horiz-adv-x="340" 
d="M170 747q52 0 86 -33t34 -84t-34 -84t-86 -33t-86 33t-34 84t34 84t86 33zM170 685q-25 0 -40.5 -15.5t-15.5 -39.5t15.5 -39.5t40.5 -15.5t40.5 15.5t15.5 39.5t-15.5 39.5t-40.5 15.5z" />
    <glyph glyph-name="ogonek" unicode="&#x2db;" horiz-adv-x="287" 
d="M159 24l77 -14q-82 -76 -82 -104q0 -22 26 -22q11 0 39 6l12 -94q-52 -9 -70 -9q-111 0 -111 86q0 34 26.5 68.5t82.5 82.5z" />
    <glyph glyph-name="tilde" unicode="&#x2dc;" horiz-adv-x="493" 
d="M166 707q32 0 91 -23t75 -23q32 0 54 46l57 -19q-17 -63 -44 -98t-72 -35q-32 0 -91 23t-76 23q-30 0 -54 -46l-56 19q33 133 116 133z" />
    <glyph glyph-name="hungarumlaut" unicode="&#x2dd;" horiz-adv-x="503" 
d="M294 707l-142 -154h-102l122 154h122zM453 707l-142 -154h-102l122 154h122z" />
    <glyph glyph-name="gravecomb" unicode="&#x300;" horiz-adv-x="0" 
d="M-165 707l115 -154h-118l-162 154h165z" />
    <glyph glyph-name="acutecomb" unicode="&#x301;" horiz-adv-x="0" 
d="M-50 707l-162 -154h-118l115 154h165z" />
    <glyph glyph-name="uni0302" unicode="&#x302;" horiz-adv-x="0" 
d="M-172 707l122 -154h-125l-68 82l-67 -82h-125l122 154h141z" />
    <glyph glyph-name="tildecomb" unicode="&#x303;" horiz-adv-x="0" 
d="M-327 707q31 0 90 -23t76 -23q32 0 54 46l57 -19q-17 -63 -44 -98t-72 -35q-32 0 -91 23t-76 23q-30 0 -54 -46l-56 19q33 133 116 133z" />
    <glyph glyph-name="uni0304" unicode="&#x304;" horiz-adv-x="0" 
d="M-50 673v-99h-325v99h325z" />
    <glyph glyph-name="uni0306" unicode="&#x306;" horiz-adv-x="0" 
d="M-50 700q0 -72 -46.5 -117t-117.5 -45t-117.5 45t-46.5 117h95q4 -70 69 -70t69 70h95z" />
    <glyph glyph-name="uni0307" unicode="&#x307;" horiz-adv-x="0" 
d="M-50 699v-152h-162v152h162z" />
    <glyph glyph-name="uni0308" unicode="&#x308;" horiz-adv-x="0" 
d="M-238 690v-135h-124v135h124zM-50 690v-135h-124v135h124z" />
    <glyph glyph-name="uni030A" unicode="&#x30a;" horiz-adv-x="0" 
d="M-170 747q52 0 86 -33t34 -84t-34 -84t-86 -33t-86 33t-34 84t34 84t86 33zM-170 685q-25 0 -40.5 -15.5t-15.5 -39.5t15.5 -39.5t40.5 -15.5t40.5 15.5t15.5 39.5t-15.5 39.5t-40.5 15.5z" />
    <glyph glyph-name="uni030B" unicode="&#x30b;" horiz-adv-x="0" 
d="M-209 707l-142 -154h-102l122 154h122zM-50 707l-142 -154h-102l122 154h122z" />
    <glyph glyph-name="uni030C" unicode="&#x30c;" horiz-adv-x="0" 
d="M-50 700l-122 -154h-141l-122 154h125l67 -82l68 82h125z" />
    <glyph glyph-name="uni0312" unicode="&#x312;" horiz-adv-x="0" 
d="M-103 641h53v-101h-137v101l65 62h52z" />
    <glyph glyph-name="uni0326" unicode="&#x326;" horiz-adv-x="0" 
d="M-187 -47h137v-101l-65 -62h-52l33 62h-53v101z" />
    <glyph glyph-name="uni0327" unicode="&#x327;" horiz-adv-x="0" 
d="M-107 39l-32 -77q45 -8 67 -21t22 -41q0 -24 -24 -44.5t-49.5 -31.5t-86.5 -33q-5 -2 -8 -3l-16 37q44 19 62.5 30t18.5 23q0 13 -12 19.5t-44 13.5l48 128h54z" />
    <glyph glyph-name="uni0328" unicode="&#x328;" horiz-adv-x="0" 
d="M-128 24l77 -14q-82 -76 -82 -104q0 -22 26 -22q11 0 39 6l12 -94q-52 -9 -70 -9q-111 0 -111 86q0 34 26.5 68.5t82.5 82.5z" />
    <glyph glyph-name="uni0394" unicode="&#x394;" horiz-adv-x="628" 
d="M359 700l249 -700h-588l249 700h90zM314 473l-119 -373h238z" />
    <glyph glyph-name="uni03A9" unicode="&#x3a9;" horiz-adv-x="741" 
d="M371 715q155 0 247.5 -88t92.5 -230q0 -100 -57 -172t-141 -91v-3h188v-131h-290v218q66 8 108 57.5t42 116.5q0 82 -50.5 130t-139.5 48t-140 -48t-51 -130q0 -67 42 -116.5t109 -57.5v-218h-291v131h188v3q-84 19 -141 91t-57 172q0 142 92.5 230t248.5 88z" />
    <glyph glyph-name="uni03BC" unicode="&#x3bc;" horiz-adv-x="557" 
d="M360 462h151v-462h-148v72h-2q-54 -87 -145 -87q-17 0 -25 1v-186h-145v322q-5 28 -5 55v285h156v-252q0 -93 76 -93q87 0 87 122v223z" />
    <glyph glyph-name="pi" unicode="&#x3c0;" horiz-adv-x="639" 
d="M609 477v-131h-90v-346h-136v346h-97l-79 -346h-137l78 345q-64 -3 -118 -19v131q60 20 156 20h423z" />
    <glyph glyph-name="uni048A" unicode="&#x48a;" horiz-adv-x="769" 
d="M381 724q-76 0 -117.5 37t-46.5 103h103q1 -27 16.5 -43.5t44.5 -16.5t44.5 16.5t16.5 43.5h103q-4 -66 -46 -103t-118 -37zM683 94h81l-96 -224h-109l51 130h-82v441h-1l-334 -441h-132v700h155v-442h1l335 442h131v-606z" />
    <glyph glyph-name="uni048B" unicode="&#x48b;" 
d="M296 492q-71 0 -117.5 45t-46.5 117h95q4 -70 69 -70t69 70h95q0 -72 -46.5 -117t-117.5 -45zM528 94h82l-96 -224h-109l51 130h-79v250h-2l-196 -250h-133v462h151v-250h2l196 250h133v-368z" />
    <glyph glyph-name="uni04F6" unicode="&#x4f6;" horiz-adv-x="493" 
d="M488 555h-272v-444h78v-251h-145v140h-88v700h427v-145z" />
    <glyph glyph-name="uni04F7" unicode="&#x4f7;" horiz-adv-x="383" 
d="M378 326h-181v-252h67v-204h-126v130h-92v462h332v-136z" />
    <glyph glyph-name="uni0E3F" unicode="&#xe3f;" horiz-adv-x="538" 
d="M385 336q56 -12 88 -51t32 -102q0 -92 -61 -137.5t-164 -45.5h-12v-87h-28v87h-209v675h209v87h28v-87h21q97 0 156.5 -46t59.5 -128q0 -65 -32 -107t-88 -55v-3zM240 544h-64v-147h64v147zM268 397q39 1 61 21t22 57q0 32 -22.5 50t-60.5 19v-147zM176 131h64v147h-64
v-147zM268 131q38 1 60.5 20.5t22.5 52.5q0 72 -83 74v-147z" />
    <glyph glyph-name="Wgrave" unicode="&#x1e80;" horiz-adv-x="1066" 
d="M476 863l115 -120h-108l-172 120h165zM1060 700l-235 -700h-137l-154 454h-2l-154 -454h-137l-235 700h181l125 -450h2l151 450h136l151 -450h2l125 450h181z" />
    <glyph glyph-name="wgrave" unicode="&#x1e81;" horiz-adv-x="808" 
d="M462 553h-118l-162 154h165zM654 462h149l-168 -462h-129l-102 270l-101 -270h-129l-169 462h150l86 -271l94 271h139l93 -271z" />
    <glyph glyph-name="Wacute" unicode="&#x1e82;" horiz-adv-x="1066" 
d="M755 863l-171 -120h-109l115 120h165zM1060 700l-235 -700h-137l-154 454h-2l-154 -454h-137l-235 700h181l125 -450h2l151 450h136l151 -450h2l125 450h181z" />
    <glyph glyph-name="wacute" unicode="&#x1e83;" horiz-adv-x="808" 
d="M621 707l-162 -154h-118l115 154h165zM654 462h149l-168 -462h-129l-102 270l-101 -270h-129l-169 462h150l86 -271l94 271h139l93 -271z" />
    <glyph glyph-name="Wdieresis" unicode="&#x1e84;" horiz-adv-x="1066" 
d="M491 857v-114h-133v114h133zM709 857v-114h-134v114h134zM1060 700l-235 -700h-137l-154 454h-2l-154 -454h-137l-235 700h181l125 -450h2l151 450h136l151 -450h2l125 450h181z" />
    <glyph glyph-name="wdieresis" unicode="&#x1e85;" horiz-adv-x="808" 
d="M373 690v-135h-124v135h124zM561 690v-135h-124v135h124zM654 462h149l-168 -462h-129l-102 270l-101 -270h-129l-169 462h150l86 -271l94 271h139l93 -271z" />
    <glyph glyph-name="Ygrave" unicode="&#x1ef2;" horiz-adv-x="659" 
d="M387 743h-108l-172 120h165zM659 700l-252 -447v-253h-155v251l-252 449h186l142 -293h2l143 293h186z" />
    <glyph glyph-name="ygrave" unicode="&#x1ef3;" horiz-adv-x="560" 
d="M345 553h-118l-162 154h165zM402 462h153l-307 -662h-152l116 244l-207 418h174l108 -255z" />
    <glyph glyph-name="endash" unicode="&#x2013;" horiz-adv-x="734" 
d="M693 328v-117h-652v117h652z" />
    <glyph glyph-name="emdash" unicode="&#x2014;" horiz-adv-x="1154" 
d="M1104 328v-113h-1054v113h1054z" />
    <glyph glyph-name="quoteleft" unicode="&#x2018;" horiz-adv-x="187" 
d="M109 612h56v-140h-140v140l83 156h54z" />
    <glyph glyph-name="quoteright" unicode="&#x2019;" horiz-adv-x="187" 
d="M22 715h140v-140l-83 -156h-54l53 156h-56v140z" />
    <glyph glyph-name="quotesinglbase" unicode="&#x201a;" horiz-adv-x="187" 
d="M22 140h140v-140l-83 -156h-54l53 156h-56v140z" />
    <glyph glyph-name="quotedblleft" unicode="&#x201c;" horiz-adv-x="369" 
d="M162 768l-53 -156h56v-140h-140v140l83 156h54zM291 612h56v-140h-140v140l83 156h54z" />
    <glyph glyph-name="quotedblright" unicode="&#x201d;" horiz-adv-x="369" 
d="M22 575v140h140v-140l-83 -156h-54l53 156h-56zM203 715h140v-140l-83 -156h-54l53 156h-56v140z" />
    <glyph glyph-name="quotedblbase" unicode="&#x201e;" horiz-adv-x="369" 
d="M22 0v140h140v-140l-83 -156h-54l53 156h-56zM203 140h140v-140l-83 -156h-54l53 156h-56v140z" />
    <glyph glyph-name="dagger" unicode="&#x2020;" horiz-adv-x="544" 
d="M494 484v-116h-160v-461h-124v461h-160v116h160v216h124v-216h160z" />
    <glyph glyph-name="daggerdbl" unicode="&#x2021;" horiz-adv-x="544" 
d="M494 401h-160v-175h160v-116h-160v-203h-124v203h-160v116h160v175h-160v116h160v183h124v-183h160v-116z" />
    <glyph glyph-name="bullet" unicode="&#x2022;" horiz-adv-x="390" 
d="M195 495q56 0 93 -37t37 -93t-37 -93t-93 -37t-93 37t-37 93t37 93t93 37z" />
    <glyph glyph-name="ellipsis" unicode="&#x2026;" horiz-adv-x="757" 
d="M201 161v-161h-160v161h160zM458 161v-161h-160v161h160zM715 161v-161h-160v161h160z" />
    <glyph glyph-name="perthousand" unicode="&#x2030;" horiz-adv-x="1160" 
d="M215 690q72 0 118 -45t46 -120q0 -74 -46 -119t-118 -45t-118.5 45t-46.5 119q0 75 46.5 120t118.5 45zM157 0l396 675h78l-396 -675h-78zM215 619q-40 0 -65 -25.5t-25 -68.5q0 -42 25.5 -68t64.5 -26t64 26t25 68q0 43 -25 68.5t-64 25.5zM579 324q72 0 118 -45
t46 -119q0 -75 -46 -120t-118 -45t-118.5 45t-46.5 120q0 74 46.5 119t118.5 45zM946 324q72 0 118 -45t46 -119q0 -75 -46 -120t-118 -45t-118.5 45t-46.5 120q0 74 46.5 119t118.5 45zM579 254q-39 0 -64 -26t-25 -68q0 -43 25 -68.5t64 -25.5t64 25.5t25 68.5
q0 42 -25 68t-64 26zM946 254q-39 0 -64 -26t-25 -68q0 -43 25 -68.5t64 -25.5t64 25.5t25 68.5q0 42 -25 68t-64 26z" />
    <glyph glyph-name="guilsinglleft" unicode="&#x2039;" horiz-adv-x="351" 
d="M341 413l-164 -175l164 -176h-162l-164 176l164 175h162z" />
    <glyph glyph-name="guilsinglright" unicode="&#x203a;" horiz-adv-x="351" 
d="M10 413h162l164 -175l-164 -176h-162l164 176z" />
    <glyph glyph-name="fraction" unicode="&#x2044;" horiz-adv-x="134" 
d="M-170 0l396 675h78l-396 -675h-78z" />
    <glyph glyph-name="lira" unicode="&#x20a4;" horiz-adv-x="580" 
d="M401 327h148q0 -147 -90.5 -237t-234.5 -90h-103v292l-108 -49v31l108 49v56l-108 -49v31l108 49v265h145v-199l163 74v-31l-163 -74v-56l163 74v-31l-163 -74v-197q59 0 97 45t38 121z" />
    <glyph glyph-name="uni20A9" unicode="&#x20a9;" horiz-adv-x="1004" 
d="M984 386h-81l-18 -68h99v-30h-107l-74 -288h-160l-85 288h-112l-85 -288h-160l-74 288h-107v30h99l-18 68h-81v30h74l-67 259h168l50 -259h105l74 259h156l74 -259h106l50 259h167l-67 -259h74v-30zM501 473l-17 -57h37l-17 57h-3zM250 386l14 -68h58l19 68h-91zM455 318
h95l-20 68h-55zM741 318l13 68h-91l19 -68h59zM288 201l25 87h-44l17 -87h2zM718 201l17 87h-44l25 -87h2z" />
    <glyph glyph-name="Euro" unicode="&#x20ac;" horiz-adv-x="676" 
d="M255 283q13 -73 60.5 -114t124.5 -41q82 0 164 45v-151q-69 -37 -166 -37q-154 0 -240.5 81.5t-101.5 216.5h-91l15 30h74q-1 9 -1 26q0 22 1 33h-84l15 30h72q17 131 103.5 209.5t241.5 78.5q112 0 204 -46l-65 -130q-78 33 -141 33q-75 0 -122 -38.5t-62 -106.5h280
l-15 -30h-269q-2 -22 -2 -34q0 -17 1 -25h244l-15 -30h-225z" />
    <glyph glyph-name="uni20AE" unicode="&#x20ae;" horiz-adv-x="563" 
d="M534 544h-184v-105l112 54v-31l-112 -54v-56l112 54v-31l-112 -54v-321h-146v249l-112 -54v31l112 54v56l-112 -54v31l112 54v177h-184v131h514v-131z" />
    <glyph glyph-name="uni20B4" unicode="&#x20b4;" horiz-adv-x="556" 
d="M446 395q-20 -20 -61 -49l-26 -19h168v-30h-210l-29 -21q-44 -33 -61.5 -52t-17.5 -39q0 -56 89 -56q88 0 203 54v-154q-109 -44 -220 -44q-114 0 -172 48t-58 136q0 73 45 128h-67v30h97q22 20 62 47l30 21h-189v30h231l46 33q42 30 42 56q0 37 -64 37q-81 0 -192 -37
v141q123 35 217 35q196 0 196 -162q0 -61 -32 -103h54v-30h-81z" />
    <glyph glyph-name="uni20B8" unicode="&#x20b8;" horiz-adv-x="554" 
d="M20 675h514v-131h-514v131zM20 358v131h514v-131h-184v-358h-146v358h-184z" />
    <glyph glyph-name="uni20B9" unicode="&#x20b9;" horiz-adv-x="528" 
d="M308 645q90 -53 98 -158h82l-22 -30h-59q-5 -78 -59 -130.5t-133 -58.5l231 -268h-186l-220 267v131h123q77 0 87 59h-210v30h209q-12 57 -86 57h-123v131h448l-22 -30h-158z" />
    <glyph glyph-name="uni20BD" unicode="&#x20bd;" horiz-adv-x="613" 
d="M350 262h-81v-52h183v-30h-183v-180h-145v180h-93v30h93v52h-93v131h93v282h226q111 0 171.5 -56t60.5 -150q0 -95 -60.5 -151t-171.5 -56zM269 544v-151h64q46 0 69.5 17.5t23.5 59.5q0 74 -93 74h-64z" />
    <glyph glyph-name="uni2113" unicode="&#x2113;" horiz-adv-x="524" 
d="M239 256q5 -72 25.5 -103.5t62.5 -31.5q35 0 112 31v-137q-78 -27 -132 -27q-94 0 -143.5 52.5t-62.5 171.5q-24 -7 -61 -16v136q38 8 56 13q4 188 61.5 266.5t160.5 78.5q80 0 123 -42.5t43 -118.5q0 -177 -245 -273zM320 574q-71 0 -81 -183q118 55 118 134
q0 49 -37 49z" />
    <glyph glyph-name="uni2116" unicode="&#x2116;" horiz-adv-x="1213" 
d="M683 700v-700h-132l-334 431h-1v-431h-155v700h131l335 -433h1v433h155zM956 585q93 0 152.5 -57t59.5 -151t-59.5 -151t-152.5 -57t-153 57.5t-60 150.5t60 150.5t153 57.5zM956 462q-38 0 -62.5 -23.5t-24.5 -61.5t24.5 -61.5t62.5 -23.5t62 23.5t24 61.5t-24 61.5
t-62 23.5zM1155 120v-120h-398v120h398z" />
    <glyph glyph-name="trademark" unicode="&#x2122;" horiz-adv-x="927" 
d="M364 588h-110v-309h-114v309h-110v112h334v-112zM791 700l106 -421h-116l-53 222l-69 -167h-87l-69 167l-52 -222h-116l105 421h94l82 -224l82 224h93z" />
    <glyph glyph-name="uni2126" unicode="&#x2126;" horiz-adv-x="741" 
d="M371 715q155 0 247.5 -88t92.5 -230q0 -100 -57 -172t-141 -91v-3h188v-131h-290v218q66 8 108 57.5t42 116.5q0 82 -50.5 130t-139.5 48t-140 -48t-51 -130q0 -67 42 -116.5t109 -57.5v-218h-291v131h188v3q-84 19 -141 91t-57 172q0 142 92.5 230t248.5 88z" />
    <glyph glyph-name="estimated" unicode="&#x212e;" horiz-adv-x="746" 
d="M21 304q0 131 102.5 223.5t248.5 92.5t249 -92.5t103 -223.5v-9h-574v-140q0 -71 52 -104q68 -45 172 -45q73 0 138.5 27.5t109.5 77.5h29q-50 -58 -123.5 -90.5t-155.5 -32.5q-146 0 -248.5 92.5t-102.5 223.5zM551 552q-65 50 -177 50q-106 0 -172 -46q-52 -35 -52 -85
v-158h445v152q0 53 -44 87z" />
    <glyph glyph-name="uni2153" unicode="&#x2153;" horiz-adv-x="709" 
d="M152 675v-386h-80v305h-27v81h107zM63 0l396 675h78l-396 -675h-78zM533 395q61 0 96 -28t35 -72q0 -73 -74 -90v-1q88 -14 88 -97q0 -51 -36 -83.5t-106 -32.5q-69 0 -107 32.5t-41 93.5h81q2 -24 18.5 -38.5t47.5 -14.5q59 0 59 49q0 27 -21.5 38t-69.5 11v71
q78 -2 78 47q0 44 -53 44q-24 0 -39.5 -12.5t-16.5 -35.5h-77q2 54 37 86.5t101 32.5z" />
    <glyph glyph-name="uni2154" unicode="&#x2154;" horiz-adv-x="854" 
d="M170 684q62 0 97 -30.5t35 -82.5q0 -62 -66 -125l-82 -79h154v-78h-277l-1 64l138 132q49 49 49 78q0 21 -13.5 33.5t-37.5 12.5q-56 0 -59 -56h-80q1 57 37 94t106 37zM208 0l396 675h78l-396 -675h-78zM678 395q61 0 96 -28t35 -72q0 -73 -74 -90v-1q88 -14 88 -97
q0 -51 -36 -83.5t-106 -32.5q-69 0 -107 32.5t-41 93.5h81q2 -24 18.5 -38.5t47.5 -14.5q59 0 59 49q0 27 -21.5 38t-69.5 11v71q78 -2 78 47q0 44 -53 44q-24 0 -39.5 -12.5t-16.5 -35.5h-77q2 54 37 86.5t101 32.5z" />
    <glyph glyph-name="oneeighth" unicode="&#x215b;" horiz-adv-x="721" 
d="M152 675v-386h-80v305h-27v81h107zM63 0l396 675h78l-396 -675h-78zM539 -9q-71 0 -108.5 32t-37.5 82q0 83 77 101v2q-65 19 -65 84q0 46 35.5 74.5t98.5 28.5t98.5 -28.5t35.5 -74.5q0 -67 -65 -84v-2q77 -19 77 -101q0 -50 -38 -82t-108 -32zM539 240q23 0 36 11.5
t13 30.5q0 18 -13.5 29t-35.5 11t-36.5 -11.5t-14.5 -28.5q0 -19 14 -30.5t37 -11.5zM539 67q29 0 45.5 15t16.5 38t-17 37.5t-45 14.5t-45 -14.5t-17 -37.5q0 -24 16 -38.5t46 -14.5z" />
    <glyph glyph-name="threeeighths" unicode="&#x215c;" horiz-adv-x="840" 
d="M175 684q61 0 96 -28t35 -72q0 -73 -74 -90v-1q88 -14 88 -97q0 -51 -36 -83.5t-106 -32.5q-69 0 -107 32.5t-41 93.5h81q2 -24 18.5 -38.5t47.5 -14.5q59 0 59 49q0 27 -21.5 38t-69.5 11v71q78 -2 78 47q0 44 -53 44q-24 0 -39.5 -12.5t-16.5 -35.5h-77q2 54 37 86.5
t101 32.5zM182 0l396 675h78l-396 -675h-78zM658 -9q-71 0 -108.5 32t-37.5 82q0 83 77 101v2q-65 19 -65 84q0 46 35.5 74.5t98.5 28.5t98.5 -28.5t35.5 -74.5q0 -67 -65 -84v-2q77 -19 77 -101q0 -50 -38 -82t-108 -32zM658 240q23 0 36 11.5t13 30.5q0 18 -13.5 29
t-35.5 11t-36.5 -11.5t-14.5 -28.5q0 -19 14 -30.5t37 -11.5zM658 67q29 0 45.5 15t16.5 38t-17 37.5t-45 14.5t-45 -14.5t-17 -37.5q0 -24 16 -38.5t46 -14.5z" />
    <glyph glyph-name="fiveeighths" unicode="&#x215d;" horiz-adv-x="823" 
d="M192 543q51 0 84 -32t33 -92q0 -65 -39.5 -102t-107.5 -37q-88 0 -141 56l50 62q35 -39 88 -39q32 0 50 17t18 44t-17 42.5t-43 15.5q-37 0 -53 -22h-69l22 219h212v-78h-151l-9 -81h2q24 27 71 27zM165 0l396 675h78l-396 -675h-78zM641 -9q-71 0 -108.5 32t-37.5 82
q0 83 77 101v2q-65 19 -65 84q0 46 35.5 74.5t98.5 28.5t98.5 -28.5t35.5 -74.5q0 -67 -65 -84v-2q77 -19 77 -101q0 -50 -38 -82t-108 -32zM641 240q23 0 36 11.5t13 30.5q0 18 -13.5 29t-35.5 11t-36.5 -11.5t-14.5 -28.5q0 -19 14 -30.5t37 -11.5zM641 67q29 0 45.5 15
t16.5 38t-17 37.5t-45 14.5t-45 -14.5t-17 -37.5q0 -24 16 -38.5t46 -14.5z" />
    <glyph glyph-name="seveneighths" unicode="&#x215e;" horiz-adv-x="757" 
d="M284 675v-74l-161 -312h-88l162 307h-182v79h269zM99 0l396 675h78l-396 -675h-78zM575 -9q-71 0 -108.5 32t-37.5 82q0 83 77 101v2q-65 19 -65 84q0 46 35.5 74.5t98.5 28.5t98.5 -28.5t35.5 -74.5q0 -67 -65 -84v-2q77 -19 77 -101q0 -50 -38 -82t-108 -32zM575 240
q23 0 36 11.5t13 30.5q0 18 -13.5 29t-35.5 11t-36.5 -11.5t-14.5 -28.5q0 -19 14 -30.5t37 -11.5zM575 67q29 0 45.5 15t16.5 38t-17 37.5t-45 14.5t-45 -14.5t-17 -37.5q0 -24 16 -38.5t46 -14.5z" />
    <glyph glyph-name="arrowleft" unicode="&#x2190;" horiz-adv-x="813" 
d="M763 352v-124h-478l170 -166l-95 -96l-310 324l310 324l95 -96l-170 -166h478z" />
    <glyph glyph-name="arrowup" unicode="&#x2191;" horiz-adv-x="748" 
d="M698 324l-96 -95l-166 170v-478h-124v478l-166 -170l-96 95l324 310z" />
    <glyph glyph-name="arrowright" unicode="&#x2192;" horiz-adv-x="813" 
d="M453 615l310 -324l-310 -324l-95 96l170 166h-478v124h478l-170 166z" />
    <glyph glyph-name="arrowdown" unicode="&#x2193;" horiz-adv-x="748" 
d="M602 352l96 -95l-324 -310l-324 310l96 95l166 -170v478h124v-478z" />
    <glyph glyph-name="arrowboth" unicode="&#x2194;" horiz-adv-x="1252" 
d="M892 614l310 -324l-310 -324l-95 96l170 166h-682l170 -166l-95 -96l-310 324l310 324l95 -96l-170 -166h682l-170 166z" />
    <glyph glyph-name="arrowupdn" unicode="&#x2195;" horiz-adv-x="749" 
d="M603 179l96 -95l-324 -310l-324 310l96 95l166 -170v102h-1v478l-166 -170l-96 95l324 310l324 -310l-96 -95l-166 170v-102h1v-478z" />
    <glyph glyph-name="uni2196" unicode="&#x2196;" horiz-adv-x="658" 
d="M608 74l-87 -89l-338 338l2 -236l-135 -1l11 447l447 11v-136l-237 3z" />
    <glyph glyph-name="uni2197" unicode="&#x2197;" horiz-adv-x="659" 
d="M609 86h-136l3 237l-338 -338l-88 88l338 337l-237 -2l-1 135l448 -11z" />
    <glyph glyph-name="uni2198" unicode="&#x2198;" horiz-adv-x="658" 
d="M473 493l135 1l-11 -447l-447 -11v136l237 -3l-337 337l88 89l337 -338z" />
    <glyph glyph-name="uni2199" unicode="&#x2199;" horiz-adv-x="659" 
d="M271 170l237 2l1 -135l-448 11l-11 446h136l-3 -237l338 338l88 -88z" />
    <glyph glyph-name="partialdiff" unicode="&#x2202;" horiz-adv-x="581" 
d="M236 715q140 0 227 -90t87 -269q0 -104 -28.5 -186t-92.5 -133.5t-155 -51.5q-109 0 -176 65.5t-67 165.5q0 103 66 169t159 66q94 0 157 -58q-10 87 -59 134.5t-124 47.5q-68 0 -132 -29l-44 132q80 37 182 37zM281 125q96 0 125 127q-60 62 -132 62q-46 0 -72 -26.5
t-26 -67.5q0 -43 29 -69t76 -26z" />
    <glyph glyph-name="emptyset" unicode="&#x2205;" 
d="M478 481q60 -65 60 -158q0 -100 -68 -166t-170 -66q-92 0 -158 55l-56 -56l-19 20l55 55q-60 65 -60 158q0 100 68 166t170 66q93 0 157 -55l56 56l20 -20zM198 323q0 -36 20 -62l144 144q-25 20 -62 20q-45 0 -73.5 -29t-28.5 -73zM300 221q45 0 73.5 29t28.5 73
q0 35 -20 63l-145 -145q26 -20 63 -20z" />
    <glyph glyph-name="uni2206" unicode="&#x2206;" horiz-adv-x="628" 
d="M359 700l249 -700h-588l249 700h90zM314 473l-119 -373h238z" />
    <glyph glyph-name="product" unicode="&#x220f;" horiz-adv-x="728" 
d="M708 700v-131h-111v-647h-135v647h-195v-647h-136v647h-111v131h688z" />
    <glyph glyph-name="summation" unicode="&#x2211;" horiz-adv-x="556" 
d="M525 700v-140h-316l228 -265l-228 -265h316v-140h-494v140l232 265l-232 265v140h494z" />
    <glyph glyph-name="minus" unicode="&#x2212;" 
d="M539 332v-68h-478v68h478z" />
    <glyph glyph-name="radical" unicode="&#x221a;" horiz-adv-x="670" 
d="M508 715h142l-244 -715h-136l-140 331h-110v131h203l109 -275z" />
    <glyph glyph-name="infinity" unicode="&#x221e;" horiz-adv-x="760" 
d="M578 450q73 0 117.5 -42.5t44.5 -110.5t-44.5 -110.5t-117.5 -42.5q-60 0 -105.5 29t-92.5 82q-47 -53 -92.5 -82t-105.5 -29q-73 0 -117.5 42.5t-44.5 110.5t44.5 110.5t117.5 42.5q60 0 105.5 -29t92.5 -82q47 53 92.5 82t105.5 29zM182 393q-47 0 -75 -27t-28 -69
t28 -69t75 -27q45 0 81.5 24.5t78.5 71.5q-42 47 -78.5 71.5t-81.5 24.5zM578 393q-44 0 -81 -25t-79 -71q42 -46 79 -71t81 -25q47 0 75 27t28 69t-28 69t-75 27z" />
    <glyph glyph-name="integral" unicode="&#x222b;" horiz-adv-x="437" 
d="M397 715v-126q-60 0 -86 -24.5t-26 -82.5v-494q0 -99 -61.5 -151t-183.5 -52v126q58 1 83.5 25t25.5 82v494q0 203 248 203z" />
    <glyph glyph-name="approxequal" unicode="&#x2248;" 
d="M173 478q46 0 133.5 -45t119.5 -45q59 0 85 74h62q-36 -142 -146 -142q-46 0 -133.5 45t-119.5 45q-59 0 -85 -75h-62q36 143 146 143zM173 296q46 0 133.5 -45t119.5 -45q59 0 85 75h62q-36 -143 -146 -143q-46 0 -133.5 45t-119.5 45q-59 0 -85 -75h-62q36 143 146 143
z" />
    <glyph glyph-name="notequal" unicode="&#x2260;" 
d="M553 374h-174l-90 -147h264v-66h-305l-53 -87h-66l53 87h-135v66h176l90 147h-266v66h307l51 83h66l-51 -83h133v-66z" />
    <glyph glyph-name="lessequal" unicode="&#x2264;" 
d="M534 489v-70l-376 -83l376 -81v-70l-468 116v71zM538 153v-63h-476v63h476z" />
    <glyph glyph-name="greaterequal" unicode="&#x2265;" 
d="M66 489l468 -117v-71l-468 -116v70l376 81l-376 83v70zM62 153h476v-63h-476v63z" />
    <glyph glyph-name="uni2460" unicode="&#x2460;" horiz-adv-x="830" 
d="M415 -15q-161 0 -263 103t-102 262t102 262t263 103t263 -103t102 -262t-102 -262t-263 -103zM415 59q124 0 205 82.5t81 208.5t-81 208.5t-205 82.5t-205 -82.5t-81 -208.5t81 -208.5t205 -82.5zM385 161v305h-27v81h108v-386h-81z" />
    <glyph glyph-name="uni2461" unicode="&#x2461;" horiz-adv-x="830" 
d="M415 -15q-161 0 -263 103t-102 262t102 262t263 103t263 -103t102 -262t-102 -262t-263 -103zM415 59q124 0 205 82.5t81 208.5t-81 208.5t-205 82.5t-205 -82.5t-81 -208.5t81 -208.5t205 -82.5zM282 176v64l138 132q51 51 51 78q0 21 -14.5 33.5t-38.5 12.5
q-56 0 -59 -56h-80q1 57 36.5 94t104.5 37q63 0 99.5 -31t36.5 -82q0 -62 -68 -125l-87 -79h159v-78h-278z" />
    <glyph glyph-name="uni2462" unicode="&#x2462;" horiz-adv-x="830" 
d="M415 -15q-161 0 -263 103t-102 262t102 262t263 103t263 -103t102 -262t-102 -262t-263 -103zM415 59q124 0 205 82.5t81 208.5t-81 208.5t-205 82.5t-205 -82.5t-81 -208.5t81 -208.5t205 -82.5zM422 151q-65 0 -104.5 33t-42.5 93h81q1 -24 18 -38.5t47 -14.5
q59 0 59 49t-91 49v71q78 -2 78 47q0 22 -14.5 33t-38.5 11q-53 0 -55 -47h-77q2 54 37 86t100 32q61 0 96 -28t35 -73q0 -33 -19.5 -57t-53.5 -32v-1q38 -6 62.5 -31.5t24.5 -65.5q0 -49 -36.5 -82.5t-105.5 -33.5z" />
    <glyph glyph-name="uni2463" unicode="&#x2463;" horiz-adv-x="830" 
d="M415 715q161 0 263 -103t102 -262t-102 -262t-263 -103t-263 103t-102 262t102 262t263 103zM415 59q124 0 205 82.5t81 208.5t-81 208.5t-205 82.5t-205 -82.5t-81 -208.5t81 -208.5t205 -82.5zM510 549v-251h36v-70h-36v-65h-77v65h-201v65l200 256h78zM317 298h116
v144h-2z" />
    <glyph glyph-name="uni2464" unicode="&#x2464;" horiz-adv-x="830" 
d="M415 -15q-161 0 -263 103t-102 262t102 262t263 103t263 -103t102 -262t-102 -262t-263 -103zM415 59q124 0 205 82.5t81 208.5t-81 208.5t-205 82.5t-205 -82.5t-81 -208.5t81 -208.5t205 -82.5zM415 152q-91 0 -143 58l50 60q35 -39 88 -39q32 0 50 17t18 44
t-17.5 42.5t-42.5 15.5q-38 0 -54 -22h-68l21 219h213v-78h-151l-10 -81h3q24 27 67 27q48 0 84.5 -34t36.5 -92q0 -62 -39.5 -99.5t-105.5 -37.5z" />
    <glyph glyph-name="uni2465" unicode="&#x2465;" horiz-adv-x="830" 
d="M415 -15q-161 0 -263 103t-102 262t102 262t263 103t263 -103t102 -262t-102 -262t-263 -103zM415 59q124 0 205 82.5t81 208.5t-81 208.5t-205 82.5t-205 -82.5t-81 -208.5t81 -208.5t205 -82.5zM413 151q-67 0 -110 39.5t-43 109.5q0 82 81 174l71 80h98l-150 -164
l2 -1q29 32 73 32q52 0 88.5 -36t36.5 -95t-39.5 -99t-107.5 -40zM410 228q29 0 48 16.5t19 44.5t-19 44.5t-48 16.5t-48 -16.5t-19 -44.5t19 -44.5t48 -16.5z" />
    <glyph glyph-name="uni2466" unicode="&#x2466;" horiz-adv-x="830" 
d="M415 -15q-161 0 -263 103t-102 262t102 262t263 103t263 -103t102 -262t-102 -262t-263 -103zM415 59q124 0 205 82.5t81 208.5t-81 208.5t-205 82.5t-205 -82.5t-81 -208.5t81 -208.5t205 -82.5zM311 153l161 307h-181v79h268v-74l-161 -312h-87z" />
    <glyph glyph-name="uni2467" unicode="&#x2467;" horiz-adv-x="830" 
d="M415 -15q-161 0 -263 103t-102 262t102 262t263 103t263 -103t102 -262t-102 -262t-263 -103zM415 59q124 0 205 82.5t81 208.5t-81 208.5t-205 82.5t-205 -82.5t-81 -208.5t81 -208.5t205 -82.5zM415 154q-70 0 -108 32t-38 82q0 76 77 101v2q-64 22 -64 84
q0 46 35.5 74.5t97.5 28.5q64 0 99.5 -28.5t35.5 -74.5q0 -63 -65 -84v-2q77 -26 77 -101q0 -50 -38 -82t-109 -32zM415 403q23 0 36.5 11t13.5 31q0 18 -13.5 29t-36.5 11q-22 0 -36.5 -11.5t-14.5 -28.5q0 -19 14 -30.5t37 -11.5zM415 230q29 0 45.5 15t16.5 38
t-16.5 37.5t-45.5 14.5q-28 0 -45 -14.5t-17 -37.5t16 -38t46 -15z" />
    <glyph glyph-name="uni2468" unicode="&#x2468;" horiz-adv-x="830" 
d="M415 -15q-161 0 -263 103t-102 262t102 262t263 103t263 -103t102 -262t-102 -262t-263 -103zM415 59q124 0 205 82.5t81 208.5t-81 208.5t-205 82.5t-205 -82.5t-81 -208.5t81 -208.5t205 -82.5zM323 153l143 152h-2q-26 -23 -67 -23q-54 0 -90 36t-36 91q0 63 40.5 101
t108.5 38q62 0 103.5 -38.5t41.5 -107.5q0 -93 -81 -183l-61 -66h-100zM419 352q29 0 47.5 16.5t18.5 44.5t-18.5 44.5t-47.5 16.5q-28 0 -47 -16.5t-19 -44.5t18.5 -44.5t47.5 -16.5z" />
    <glyph glyph-name="uni24EA" unicode="&#x24ea;" horiz-adv-x="830" 
d="M415 -15q-161 0 -263 103t-102 262t102 262t263 103t263 -103t102 -262t-102 -262t-263 -103zM415 59q124 0 205 82.5t81 208.5t-81 208.5t-205 82.5t-205 -82.5t-81 -208.5t81 -208.5t205 -82.5zM416 150q-80 0 -124 53t-44 150q0 96 44 148.5t124 52.5q78 0 122 -52.5
t44 -148.5t-44 -149.5t-122 -53.5zM416 227q39 0 60 33t21 93q0 57 -21.5 90.5t-59.5 33.5q-39 0 -60.5 -33.5t-21.5 -90.5q0 -59 21.5 -92.5t60.5 -33.5z" />
    <glyph glyph-name="uni24FF" unicode="&#x24ff;" horiz-adv-x="830" 
d="M415 -15q-157 0 -261 104.5t-104 260.5t104 260.5t261 104.5t261 -104.5t104 -260.5t-104 -260.5t-261 -104.5zM416 150q78 0 122 53.5t44 149.5t-44 148.5t-122 52.5q-80 0 -124 -52.5t-44 -148.5q0 -97 44 -150t124 -53zM416 227q-39 0 -60.5 33.5t-21.5 92.5
q0 57 21.5 90.5t60.5 33.5q38 0 59.5 -33.5t21.5 -90.5q0 -60 -21 -93t-60 -33z" />
    <glyph glyph-name="lozenge" unicode="&#x25ca;" horiz-adv-x="620" 
d="M365 715l235 -365l-235 -365h-110l-235 365l235 365h110zM310 559l-131 -209l131 -209l131 209z" />
    <glyph glyph-name="uni2776" unicode="&#x2776;" horiz-adv-x="830" 
d="M415 -15q-157 0 -261 104.5t-104 260.5t104 260.5t261 104.5t261 -104.5t104 -260.5t-104 -260.5t-261 -104.5zM386 163h81v386h-108v-81h27v-305z" />
    <glyph glyph-name="uni2777" unicode="&#x2777;" horiz-adv-x="830" 
d="M415 -15q-157 0 -261 104.5t-104 260.5t104 260.5t261 104.5t261 -104.5t104 -260.5t-104 -260.5t-261 -104.5zM276 172h277v78h-158l87 79q68 63 68 125q0 51 -36.5 82t-99.5 31q-69 0 -104.5 -37t-37.5 -94h80q1 28 17.5 42t42.5 14q24 0 38 -12.5t14 -33.5
q0 -28 -50 -78l-138 -132v-64z" />
    <glyph glyph-name="uni2778" unicode="&#x2778;" horiz-adv-x="830" 
d="M415 -15q-157 0 -261 104.5t-104 260.5t104 260.5t261 104.5t261 -104.5t104 -260.5t-104 -260.5t-261 -104.5zM415 156q68 0 105 33.5t37 82.5q0 40 -24.5 65.5t-63.5 31.5v1q35 8 54.5 32t19.5 57q0 45 -35 73t-97 28q-65 0 -100 -32t-37 -86h77q3 47 56 47
q23 0 38 -11.5t15 -32.5q0 -49 -79 -47v-71q91 0 91 -49t-58 -49q-63 0 -66 53h-81q3 -60 42.5 -93t105.5 -33z" />
    <glyph glyph-name="uni2779" unicode="&#x2779;" horiz-adv-x="830" 
d="M415 -15q-157 0 -261 104.5t-104 260.5t104 260.5t261 104.5t261 -104.5t104 -260.5t-104 -260.5t-261 -104.5zM428 170h77v65h36v70h-36v251h-78l-200 -256v-65h201v-65zM311 305l115 144h2v-144h-117z" />
    <glyph glyph-name="uni277A" unicode="&#x277a;" horiz-adv-x="830" 
d="M415 -15q-157 0 -261 104.5t-104 260.5t104 260.5t261 104.5t261 -104.5t104 -260.5t-104 -260.5t-261 -104.5zM405 152q65 0 104.5 37.5t39.5 99.5q0 58 -36 92t-84 34q-44 0 -68 -27h-2l9 81h152v78h-214l-20 -219h68q16 22 53 22q26 0 43.5 -15.5t17.5 -42.5
t-18.5 -44t-50.5 -17q-54 0 -87 39l-51 -60q52 -58 144 -58z" />
    <glyph glyph-name="uni277B" unicode="&#x277b;" horiz-adv-x="830" 
d="M415 -15q-157 0 -261 104.5t-104 260.5t104 260.5t261 104.5t261 -104.5t104 -260.5t-104 -260.5t-261 -104.5zM414 157q68 0 107.5 40t39.5 99t-37 95t-89 36q-42 0 -73 -32l-1 1l149 164h-97l-71 -80q-81 -92 -81 -174q0 -70 43 -109.5t110 -39.5zM411 234
q-29 0 -48 16.5t-19 44.5t19 44.5t48 16.5t48 -16.5t19 -44.5t-19 -44.5t-48 -16.5z" />
    <glyph glyph-name="uni277C" unicode="&#x277c;" horiz-adv-x="830" 
d="M415 -15q-157 0 -261 104.5t-104 260.5t104 260.5t261 104.5t261 -104.5t104 -260.5t-104 -260.5t-261 -104.5zM311 153h87l162 312v74h-269v-79h182z" />
    <glyph glyph-name="uni277D" unicode="&#x277d;" horiz-adv-x="830" 
d="M415 -15q-157 0 -261 104.5t-104 260.5t104 260.5t261 104.5t261 -104.5t104 -260.5t-104 -260.5t-261 -104.5zM415 154q71 0 109 32t38 82q0 75 -77 101v2q65 21 65 84q0 46 -35.5 74.5t-99.5 28.5q-62 0 -97.5 -28.5t-35.5 -74.5q0 -62 64 -84v-2q-77 -25 -77 -101
q0 -50 38 -82t108 -32zM415 403q-23 0 -37 11.5t-14 30.5q0 17 14.5 28.5t36.5 11.5q23 0 36.5 -11t13.5 -29q0 -20 -13.5 -31t-36.5 -11zM415 230q-30 0 -46 15t-16 38t17 37.5t45 14.5q29 0 45.5 -14.5t16.5 -37.5t-16.5 -38t-45.5 -15z" />
    <glyph glyph-name="uni277E" unicode="&#x277e;" horiz-adv-x="830" 
d="M415 -15q-157 0 -261 104.5t-104 260.5t104 260.5t261 104.5t261 -104.5t104 -260.5t-104 -260.5t-261 -104.5zM320 154h100l61 66q82 90 82 183q0 69 -42 107.5t-104 38.5q-67 0 -107.5 -38t-40.5 -101q0 -55 35.5 -91t89.5 -36q41 0 67 23h3zM416 353q-28 0 -47 16.5
t-19 44.5t19 44.5t47 16.5q29 0 48 -16.5t19 -44.5t-19 -44.5t-48 -16.5z" />
    <glyph glyph-name="uniF8FF" unicode="&#xf8ff;" horiz-adv-x="865" 
d="M50 676q0 16 10.5 26t26.5 10q15 0 26 -10.5t11 -25.5q0 -24 -18 -34v-24q103 42 173 42q45 0 76 -21.5t31 -61.5v-25q55 12 104 12q57 0 96.5 -19t39.5 -64v-48q48 12 81 12q55 0 81.5 -21.5t26.5 -57.5v-240q-52 32 -107 32q-25 0 -63.5 -10t-56.5 -10q-51 0 -51 46v86
q-23 5 -47 5t-73 -9t-67 -9q-54 0 -54 46v68h-14q-62 0 -176 -44v-327h-39v643q-17 11 -17 33zM357 577q0 28 -22.5 41.5t-54.5 13.5q-63 0 -174 -45v-230q110 42 175 42q45 0 76 -14v192zM312 580l-65 -95v-68h-30v68l-65 95h38l42 -64l42 64h38zM598 474q0 11 -2.5 18.5
t-11 19t-32.5 18t-60 6.5q-45 0 -106 -12v-171q0 -18 -32 -29t-32 -25t27 -14q17 0 65 8.5t76 8.5q63 0 108 -25v197zM400 414q0 35 22.5 58t57.5 23t57.5 -23t22.5 -58t-22.5 -58t-57.5 -23t-57.5 23t-22.5 58zM530 414q0 23 -14 37.5t-36 14.5t-36 -14.5t-14 -37.5
t14 -37.5t36 -14.5t36 14.5t14 37.5zM788 365q0 51 -80 51q-34 0 -82 -12v-167q0 -12 -9.5 -20t-21.5 -11.5t-21.5 -9.5t-9.5 -15q0 -16 25 -16q14 0 53.5 10.5t64.5 10.5q39 0 81 -15v194zM709 373l-10 -100h-16l-10 100h36zM356 352q0 11 -32 16v-32q5 3 13.5 5.5
t13.5 4.5t5 6zM598 240q0 13 -34 24v-47q5 3 12 6.5t11.5 5t7.5 4.5t3 7zM671 231q0 19 20 19t20 -19q0 -20 -20 -20t-20 20z" />
    <glyph glyph-name="CR" horiz-adv-x="348" 
 />
    <glyph glyph-name="uni00A40301" horiz-adv-x="301" 
d="M385 863l-171 -120h-109l115 120h165zM240 700v-523q0 -93 -44 -136.5t-136 -43.5h-50v145h34q41 0 41 49v509h155z" />
    <glyph glyph-name="i.loclTRK" horiz-adv-x="244" 
d="M203 699v-152h-162v152h162zM47 0v462h151v-462h-151z" />
    <glyph glyph-name="uni006A0301" horiz-adv-x="244" 
d="M63 553l75 154h136l-93 -154h-118zM-39 -63h25q61 0 61 66v459h151v-458q0 -207 -187 -207h-50v140z" />
    <glyph glyph-name="zero.zero" horiz-adv-x="621" 
d="M479 637q110 -89 110 -299q0 -169 -73 -261t-206 -92q-82 0 -141 35l-26 -51l-26 11l28 56q-114 88 -114 302q0 169 72.5 260.5t206.5 91.5q83 0 145 -37l22 43l26 -11zM188 338q0 -99 32 -154l165 330q-29 33 -75 33q-58 0 -90 -54.5t-32 -154.5zM310 128q58 0 90.5 55
t32.5 155q0 96 -29 149l-166 -328q29 -31 72 -31z" />
    <glyph glyph-name="zero.tf" 
d="M300 690q134 0 206.5 -91.5t72.5 -260.5t-73 -261t-206 -92t-206 92t-73 261t72.5 260.5t206.5 91.5zM300 547q-58 0 -90 -54.5t-32 -154.5t32 -155t90 -55t90.5 55t32.5 155t-32 154.5t-91 54.5z" />
    <glyph glyph-name="one.tf" 
d="M378 141h144v-141h-444v141h154v389h-93v145h239v-534z" />
    <glyph glyph-name="two.tf" 
d="M64 0v119l227 225q46 46 65 76.5t19 59.5q0 34 -20 52.5t-57 18.5q-88 0 -88 -89h-153q0 108 64.5 168t180.5 60q108 0 169 -53t61 -146q0 -58 -27.5 -108t-93.5 -112l-146 -139l269 2v-134h-470z" />
    <glyph glyph-name="three.tf" 
d="M284 690q112 0 172.5 -46t60.5 -132q0 -59 -31.5 -98.5t-88.5 -52.5v-2q68 -11 104.5 -53.5t36.5 -112.5q0 -98 -66 -153t-184 -55q-124 0 -190 57t-66 164h158q6 -82 99 -82q92 0 92 85q0 45 -30.5 63t-104.5 18h-23v114h23q56 0 81.5 19t25.5 60q0 68 -75 68
q-37 0 -58 -18t-22 -49h-155q1 98 63.5 152t177.5 54z" />
    <glyph glyph-name="four.tf" 
d="M568 244v-131h-61v-113h-142v113h-333v115l318 447h157v-431h61zM186 244h179v247h-4z" />
    <glyph glyph-name="five.tf" 
d="M314 447q100 0 160 -60.5t60 -160.5q0 -112 -71.5 -176.5t-196.5 -64.5q-139 0 -238 85l89 121q67 -67 148 -67q52 0 81.5 28.5t29.5 78.5q0 46 -25.5 72.5t-71.5 26.5q-58 0 -90 -50h-119l35 395h362v-134h-255l-13 -127h3q42 33 112 33z" />
    <glyph glyph-name="six.tf" 
d="M304 -15q-125 0 -198 70t-73 190q0 135 118 275l132 159h182l-236 -268l3 -2q52 47 115 47q97 0 157 -62.5t60 -163.5q0 -108 -72.5 -176.5t-187.5 -68.5zM299 124q48 0 78.5 29t30.5 75q0 47 -30 75.5t-79 28.5t-79 -29t-30 -75t30.5 -75t78.5 -29z" />
    <glyph glyph-name="seven.tf" 
d="M524 675v-135l-263 -540h-160l265 534h-291v141h449z" />
    <glyph glyph-name="eight.tf" 
d="M300 -15q-122 0 -190 52.5t-68 146.5q0 66 35 112t94 60v3q-51 14 -80 54t-29 95q0 85 64 133.5t174 48.5q111 0 175 -48.5t64 -133.5q0 -55 -29.5 -95t-80.5 -54v-3q60 -13 94.5 -59.5t34.5 -112.5q0 -94 -68 -146.5t-190 -52.5zM300 418q35 0 56.5 20t21.5 51
q0 32 -21.5 52t-56.5 20t-56.5 -20t-21.5 -52q0 -31 21.5 -51t56.5 -20zM300 120q43 0 69.5 25.5t26.5 66.5t-27 67t-69 26t-69 -26t-27 -67t26.5 -66.5t69.5 -25.5z" />
    <glyph glyph-name="nine.tf" 
d="M124 0l235 251l-2 2q-55 -35 -109 -35q-89 0 -151 67.5t-62 163.5q0 106 74 173.5t190 67.5q122 0 193.5 -69.5t71.5 -187.5q0 -150 -143 -307l-114 -126h-183zM300 341q48 0 78.5 29t30.5 75t-31 75.5t-78 29.5t-77.5 -29.5t-30.5 -75.5t30.5 -75t77.5 -29z" />
    <glyph glyph-name="zero.tf.zero" 
d="M469 637q110 -89 110 -299q0 -169 -73 -261t-206 -92q-82 0 -141 35l-26 -51l-26 11l28 56q-114 88 -114 302q0 169 72.5 260.5t206.5 91.5q83 0 145 -37l22 43l26 -11zM178 338q0 -99 32 -154l165 330q-29 33 -75 33q-58 0 -90 -54.5t-32 -154.5zM300 128q58 0 90.5 55
t32.5 155q0 96 -29 149l-166 -328q29 -31 72 -31z" />
    <glyph glyph-name="dollar.tf" 
d="M551 195q0 -94 -61.5 -149.5t-167.5 -60.5v-62h-28v62q-114 3 -179 65.5t-65 163.5h155q7 -87 89 -93v158q-95 38 -130 63q-82 58 -82 162q0 86 58 134.5t154 51.5v72h28v-72q100 -5 159.5 -60t59.5 -159h-154q-3 73 -65 81v-127q5 -2 29 -11t32 -12.5t30 -13t31 -16
t27.5 -18.5t27 -22t20.5 -25.5t17.5 -31.5t10 -36.5t4.5 -43.5zM231 501q0 -36 63 -65v117q-63 -5 -63 -52zM322 120q79 6 79 64q0 28 -20 47t-59 36v-147z" />
    <glyph glyph-name="cent.tf" 
d="M496 304q-75 31 -124 31v-208q45 0 124 31v-143q-57 -27 -124 -30v-49h-28v49q-106 5 -173 72.5t-67 173.5t67 173.5t173 72.5v55h28v-55q65 -2 124 -29v-144zM260 231q0 -40 23 -67t61 -35v204q-38 -8 -61 -35t-23 -67z" />
    <glyph glyph-name="sterling.tf" 
d="M227 137l2 -5h286v-132h-446v111q112 61 112 136q0 17 -7.5 35.5t-14 29t-22.5 33.5h-88v30h68q-35 57 -35 115q0 95 62 147.5t177 52.5q105 0 167.5 -54t62.5 -166h-155q-2 37 -23 58t-58 21q-35 0 -55.5 -18.5t-20.5 -48.5q0 -35 50 -107h154v-30h-134q29 -49 29 -85
q0 -72 -111 -123z" />
    <glyph glyph-name="florin.tf" 
d="M444 543q-41 0 -60.5 -17t-19.5 -55v-9h116v-30h-116v-415q0 -102 -49.5 -159.5t-140.5 -57.5h-58v133h41q62 0 62 74v425h-95v30h95v8q0 97 53.5 151t160.5 54h47v-132h-36z" />
    <glyph glyph-name="yen.tf" 
d="M578 675l-183 -386h133v-30h-147l-13 -27v-29h160v-30h-160v-173h-136v173h-160v30h160v29l-13 27h-147v30h133l-183 386h168l110 -296l110 296h168z" />
    <glyph glyph-name="Euro.tf" 
d="M218 283q12 -79 57 -123t117 -44q80 0 157 49v-143q-65 -37 -156 -37q-141 0 -222.5 85t-96.5 213h-66l15 30h49q-1 9 -1 26q0 22 1 33h-59l15 30h47q17 125 98.5 206.5t224.5 81.5q108 0 193 -50l-56 -117q-76 36 -139 36q-72 0 -117.5 -41t-59.5 -116h251l-15 -30h-240
q-1 -11 -1 -33q0 -18 1 -26h217l-15 -30h-199z" />
    <glyph glyph-name="perthousand.tf" 
d="M153 380q-57 0 -94.5 43t-37.5 112t37.5 112t94.5 43t94.5 -43t37.5 -112t-37.5 -112t-94.5 -43zM153 623q-25 0 -44 -23t-19 -65t19 -65t44 -23q26 0 45 23t19 65t-19 65t-45 23zM533 504l12 -25l-500 -232l-12 25zM447 295q57 0 94.5 -43t37.5 -112t-37.5 -112
t-94.5 -43q-60 0 -98 47q-38 -47 -98 -47q-57 0 -94.5 43t-37.5 112t37.5 112t94.5 43q60 0 98 -47q38 47 98 47zM251 52q26 0 45 23t19 65t-19 65t-45 23q-25 0 -44 -23t-19 -65t19 -65t44 -23zM447 52q25 0 44 23t19 65t-19 65t-44 23q-26 0 -45 -23t-19 -65t19 -65
t45 -23z" />
    <glyph glyph-name="Adieresis.ss01" horiz-adv-x="716" 
d="M245 730q-35 0 -58 23t-23 57t23 57.5t58 23.5q34 0 57 -23.5t23 -57.5t-23 -57t-57 -23zM473 730q-35 0 -58 23t-23 57t23 57.5t58 23.5q34 0 57 -23.5t23 -57.5t-23 -57t-57 -23zM543 0l-50 142h-269l-50 -142h-174l276 700h164l276 -700h-173zM272 280h173l-87 248z
" />
    <glyph glyph-name="Cdotaccent.ss01" horiz-adv-x="667" 
d="M402 900q34 0 57 -23.5t23 -57.5t-23 -57t-57 -23q-35 0 -58 23t-23 57q0 35 23.5 58t57.5 23zM405 -15q-168 0 -276 100t-108 265t108 265t276 100q140 0 251 -78l-84 -136q-81 54 -167 54q-93 0 -153 -55.5t-60 -149.5t60 -149.5t153 -55.5q86 0 167 54l84 -136
q-111 -78 -251 -78z" />
    <glyph glyph-name="Edieresis.ss01" horiz-adv-x="530" 
d="M179 730q-35 0 -58 23t-23 57t23 57.5t58 23.5q34 0 57 -23.5t23 -57.5t-23 -57t-57 -23zM407 730q-35 0 -58 23t-23 57t23 57.5t58 23.5q34 0 57 -23.5t23 -57.5t-23 -57t-57 -23zM216 145h283v-145h-438v700h433v-145h-278v-110h250v-141h-250v-159z" />
    <glyph glyph-name="Edotaccent.ss01" horiz-adv-x="530" 
d="M293 739q-35 0 -58 23t-23 57q0 35 23 58t58 23q34 0 57 -23.5t23 -57.5t-23 -57t-57 -23zM216 145h283v-145h-438v700h433v-145h-278v-110h250v-141h-250v-159z" />
    <glyph glyph-name="Gcommaaccent.ss01" horiz-adv-x="751" 
d="M734 405q1 -12 1 -36q0 -173 -86.5 -278.5t-256.5 -105.5q-165 0 -268 99.5t-103 267.5q0 164 102.5 263.5t279.5 99.5q157 0 276 -92l-101 -133q-86 65 -179 65q-97 0 -152 -57t-55 -147q0 -92 56 -149t155 -57q78 0 119.5 36t48.5 85h-180v139h343zM406 -33
q29 0 48.5 -19t19.5 -49q0 -33 -26 -57l-57 -52h-45l28 48q-36 19 -36 61q0 30 19.5 49t48.5 19z" />
    <glyph glyph-name="Gdotaccent.ss01" horiz-adv-x="751" 
d="M390 739q-35 0 -58 23t-23 57q0 35 23.5 58t57.5 23t57 -23.5t23 -57.5t-23 -57t-57 -23zM734 405q1 -12 1 -36q0 -173 -86.5 -278.5t-256.5 -105.5q-165 0 -268 99.5t-103 267.5q0 164 102.5 263.5t279.5 99.5q157 0 276 -92l-101 -133q-86 65 -179 65q-97 0 -152 -57
t-55 -147q0 -92 56 -149t155 -57q78 0 119.5 36t48.5 85h-180v139h343z" />
    <glyph glyph-name="Idieresis.ss01" horiz-adv-x="277" 
d="M25 891q34 0 57 -23.5t23 -57.5t-23 -57t-57 -23q-35 0 -58 23t-23 57t23 57.5t58 23.5zM253 891q34 0 57 -23.5t23 -57.5t-23 -57t-57 -23q-35 0 -58 23t-23 57t23 57.5t58 23.5zM216 700v-700h-155v700h155z" />
    <glyph glyph-name="Idotaccent.ss01" horiz-adv-x="277" 
d="M139 900q34 0 57 -23.5t23 -57.5t-23 -57t-57 -23q-35 0 -58 23t-23 57q0 35 23 58t58 23zM216 700v-700h-155v700h155z" />
    <glyph glyph-name="Kcommaaccent.ss01" horiz-adv-x="726" 
d="M387 372l339 -372h-221l-289 335v-335h-155v700h155v-309l249 309h211zM353 -33q29 0 48.5 -19t19.5 -49q0 -33 -26 -57l-57 -52h-45l28 48q-36 19 -36 61q0 30 19.5 49t48.5 19z" />
    <glyph glyph-name="Lcaron.ss01" horiz-adv-x="496" 
d="M419 720q37 0 61 -23.5t24 -60.5q0 -29 -16 -51l-94 -167h-58l49 140q-51 18 -51 78q0 37 23.5 60.5t61.5 23.5zM216 700v-554h279v-146h-434v700h155z" />
    <glyph glyph-name="Lcommaaccent.ss01" horiz-adv-x="496" 
d="M216 700v-554h279v-146h-434v700h155zM352 -101q0 -33 -26 -57l-57 -52h-45l28 48q-36 19 -36 61q0 30 19.5 49t48.5 19t48.5 -19t19.5 -49z" />
    <glyph glyph-name="Ldot.ss01" horiz-adv-x="496" 
d="M216 700v-554h279v-146h-434v700h155zM378 477q40 0 67 -27t27 -67t-27 -67t-67 -27t-67 27t-27 67t27 67t67 27z" />
    <glyph glyph-name="Ncommaaccent.ss01" horiz-adv-x="744" 
d="M683 700v-700h-132l-334 431h-1v-431h-155v700h131l335 -433h1v433h155zM445 -101q0 -33 -26 -57l-57 -52h-45l28 48q-36 19 -36 61q0 30 19.5 49t48.5 19t48.5 -19t19.5 -49z" />
    <glyph glyph-name="Odieresis.ss01" horiz-adv-x="780" 
d="M277 891q34 0 57 -23.5t23 -57.5t-23 -57t-57 -23q-35 0 -58 23t-23 57t23 57.5t58 23.5zM505 891q34 0 57 -23.5t23 -57.5t-23 -57t-57 -23q-35 0 -58 23t-23 57t23 57.5t58 23.5zM390 715q158 0 263.5 -101.5t105.5 -263.5t-105.5 -263.5t-263.5 -101.5t-263.5 101.5
t-105.5 263.5t105.5 263.5t263.5 101.5zM390 555q-86 0 -142 -56t-56 -149t56 -149t142 -56t142 56t56 149t-56 149t-142 56z" />
    <glyph glyph-name="Rcommaaccent.ss01" horiz-adv-x="617" 
d="M416 273l200 -273h-194l-176 265h-30v-265h-155v700h280q114 0 176 -61.5t62 -157.5q0 -79 -42 -134.5t-121 -73.5zM216 559v-164h102q97 0 97 82q0 39 -25.5 60.5t-71.5 21.5h-102zM329 -33q29 0 48.5 -19t19.5 -49q0 -33 -26 -57l-57 -52h-45l28 48q-36 19 -36 61
q0 30 19.5 49t48.5 19z" />
    <glyph glyph-name="Scommaaccent.ss01" horiz-adv-x="544" 
d="M280 715q109 0 227 -51l-65 -137q-94 44 -158 44t-64 -41q0 -16 11.5 -28.5t41.5 -30.5l116 -73q67 -41 100 -88t33 -117q0 -101 -66 -154.5t-189 -53.5q-141 0 -261 70l70 139q105 -64 197 -64q86 0 86 56q0 22 -16 38t-50 37l-107 67q-129 77 -129 200q0 87 57 137
t166 50zM359 -101q0 -33 -26 -57l-57 -52h-45l28 48q-36 19 -36 61q0 30 19.5 49t48.5 19t48.5 -19t19.5 -49z" />
    <glyph glyph-name="uni021A.ss01" horiz-adv-x="534" 
d="M529 700v-145h-184v-555h-155v555h-185v145h524zM272 -33q29 0 48.5 -19t19.5 -49q0 -33 -26 -57l-57 -52h-45l28 48q-36 19 -36 61q0 30 19.5 49t48.5 19z" />
    <glyph glyph-name="Udieresis.ss01" horiz-adv-x="706" 
d="M240 891q34 0 57 -23.5t23 -57.5t-23 -57t-57 -23q-35 0 -58 23t-23 57t23.5 57.5t57.5 23.5zM468 891q34 0 57 -23.5t23 -57.5t-23 -57t-57 -23q-35 0 -58 23t-23 57t23.5 57.5t57.5 23.5zM650 700v-417q0 -139 -76 -217.5t-221 -78.5q-146 0 -222 78.5t-76 217.5v417
h165v-403q0 -68 34.5 -109t98.5 -41t98.5 41t34.5 109v403h164z" />
    <glyph glyph-name="Wdieresis.ss01" horiz-adv-x="1066" 
d="M420 891q34 0 57 -23.5t23 -57.5t-23 -57t-57 -23q-35 0 -58 23t-23 57t23.5 57.5t57.5 23.5zM648 891q34 0 57 -23.5t23 -57.5t-23 -57t-57 -23q-35 0 -58 23t-23 57t23.5 57.5t57.5 23.5zM1060 700l-235 -700h-137l-154 454h-2l-154 -454h-137l-235 700h181l125 -450h2
l151 450h136l151 -450h2l125 450h181z" />
    <glyph glyph-name="Ydieresis.ss01" horiz-adv-x="659" 
d="M216 730q-35 0 -58 23t-23 57t23.5 57.5t57.5 23.5t57 -23.5t23 -57.5t-23 -57t-57 -23zM444 730q-35 0 -58 23t-23 57t23.5 57.5t57.5 23.5t57 -23.5t23 -57.5t-23 -57t-57 -23zM659 700l-252 -447v-253h-155v251l-252 449h186l142 -293h2l143 293h186z" />
    <glyph glyph-name="Zdotaccent.ss01" horiz-adv-x="568" 
d="M288 739q-35 0 -58 23t-23 57q0 35 23.5 58t57.5 23t57 -23.5t23 -57.5t-23 -57t-57 -23zM212 145h336v-145h-528v145l329 410h-303v145h492v-145z" />
    <glyph glyph-name="Adieresis.ss02" horiz-adv-x="716" 
d="M229 804v-114h-124v114h124zM611 804v-114h-125v114h125zM543 0l-50 142h-269l-50 -142h-174l276 700h164l276 -700h-173zM272 280h173l-87 248z" />
    <glyph glyph-name="Idieresis.ss02" horiz-adv-x="277" 
d="M29 804v-114h-124v114h124zM370 804v-114h-124v114h124zM216 700v-700h-155v700h155z" />
    <glyph glyph-name="Odieresis.ss02" horiz-adv-x="780" 
d="M170 804v-114h-124v114h124zM733 804v-114h-124v114h124zM390 715q158 0 263.5 -101.5t105.5 -263.5t-105.5 -263.5t-263.5 -101.5t-263.5 101.5t-105.5 263.5t105.5 263.5t263.5 101.5zM390 555q-86 0 -142 -56t-56 -149t56 -149t142 -56t142 56t56 149t-56 149t-142 56
z" />
    <glyph glyph-name="Udieresis.ss02" horiz-adv-x="706" 
d="M336 804v-114h-92v114h92zM462 804v-114h-92v114h92zM650 700v-417q0 -139 -76 -217.5t-221 -78.5q-146 0 -222 78.5t-76 217.5v417h165v-403q0 -68 34.5 -109t98.5 -41t98.5 41t34.5 109v403h164z" />
    <glyph glyph-name="Wdieresis.ss02" horiz-adv-x="1066" 
d="M413 804v-114h-124v114h124zM776 804v-114h-124v114h124zM1060 700l-235 -700h-137l-154 454h-2l-154 -454h-137l-235 700h181l125 -450h2l151 450h136l151 -450h2l125 450h181z" />
    <glyph glyph-name="Ydieresis.ss02" horiz-adv-x="659" 
d="M317 804v-114h-105v114h105zM445 804v-114h-104v114h104zM659 700l-252 -447v-253h-155v251l-252 449h186l142 -293h2l143 293h186z" />
    <glyph glyph-name="Adieresis.ss01.ss02" horiz-adv-x="716" 
d="M169 649q-35 0 -57.5 22.5t-22.5 57.5t23 58t57 23t57 -23t23 -58t-22.5 -57.5t-57.5 -22.5zM547 649q-35 0 -57.5 22.5t-22.5 57.5t23 58t57 23q35 0 58 -23t23 -58q0 -34 -23 -57t-58 -23zM543 0l-50 142h-269l-50 -142h-174l276 700h164l276 -700h-173zM272 280h173
l-87 248z" />
    <glyph glyph-name="Idieresis.ss01.ss02" horiz-adv-x="277" 
d="M-32 810q34 0 57 -23t23 -58t-23 -57.5t-57 -22.5t-57 22.5t-23 57.5t23 58t57 23zM308 810q34 0 57.5 -23t23.5 -58q0 -34 -23 -57t-58 -23q-34 0 -57 22.5t-23 57.5t23 58t57 23zM216 700v-700h-155v700h155z" />
    <glyph glyph-name="Odieresis.ss01.ss02" horiz-adv-x="780" 
d="M96 810q34 0 57 -23t23 -58t-23 -57.5t-57 -22.5t-57 22.5t-23 57.5t23 58t57 23zM683 810q34 0 57 -23t23 -58t-22.5 -57.5t-57.5 -22.5t-57.5 22.5t-22.5 57.5t23 58t57 23zM390 715q158 0 263.5 -101.5t105.5 -263.5t-105.5 -263.5t-263.5 -101.5t-263.5 101.5
t-105.5 263.5t105.5 263.5t263.5 101.5zM390 555q-86 0 -142 -56t-56 -149t56 -149t142 -56t142 56t56 149t-56 149t-142 56z" />
    <glyph glyph-name="Udieresis.ss01.ss02" horiz-adv-x="706" 
d="M353 807q35 0 57.5 -22.5t22.5 -57.5t-22.5 -57.5t-57.5 -22.5t-57.5 22.5t-22.5 57.5t22.5 57.5t57.5 22.5zM650 700v-417q0 -139 -76 -217.5t-221 -78.5q-146 0 -222 78.5t-76 217.5v417h165v-403q0 -68 34.5 -109t98.5 -41t98.5 41t34.5 109v403h164zM353 602
q35 0 57.5 -23t22.5 -57q0 -35 -23 -58t-57 -23t-57 23t-23 58q0 34 22.5 57t57.5 23z" />
    <glyph glyph-name="Wdieresis.ss01.ss02" horiz-adv-x="1066" 
d="M361 810q34 0 57 -23t23 -58t-22.5 -57.5t-57.5 -22.5t-57.5 22.5t-22.5 57.5t23 58t57 23zM705 810q34 0 57 -23t23 -58t-22.5 -57.5t-57.5 -22.5t-58 23t-23 57q0 35 23 58t58 23zM1060 700l-235 -700h-137l-154 454h-2l-154 -454h-137l-235 700h181l125 -450h2
l151 450h136l151 -450h2l125 450h181z" />
    <glyph glyph-name="Ydieresis.ss01.ss02" horiz-adv-x="659" 
d="M239 692q-35 0 -57.5 23t-22.5 57t22.5 57t57.5 23t57.5 -23t22.5 -57t-22.5 -57t-57.5 -23zM417 692q-35 0 -57.5 23t-22.5 57t22.5 57t57.5 23t57.5 -23t22.5 -57t-22.5 -57t-57.5 -23zM659 700l-252 -447v-253h-155v251l-252 449h186l142 -293h2l143 293h186z" />
    <glyph glyph-name="adieresis.ss01" horiz-adv-x="586" 
d="M175 705q35 0 58 -23.5t23 -57.5t-23 -57.5t-58 -23.5t-58 23.5t-23 57.5t23 57.5t58 23.5zM384 705q34 0 57.5 -23.5t23.5 -57.5t-23.5 -57.5t-57.5 -23.5t-57.5 23.5t-23.5 57.5t23.5 57.5t57.5 23.5zM240 -15q-95 0 -157 64.5t-62 181.5t62 181.5t157 64.5
q103 0 151 -78h2v63h151v-462h-151v63h-2q-48 -78 -151 -78zM282 123q47 0 77 29.5t30 78.5t-30 78.5t-77 29.5q-46 0 -76 -29.5t-30 -78.5t30 -78.5t76 -29.5z" />
    <glyph glyph-name="cdotaccent.ss01" horiz-adv-x="451" 
d="M270 709q41 0 67.5 -26t26.5 -67q0 -42 -26.5 -68t-67.5 -26q-42 0 -68 26t-26 68q0 41 26 67t68 26zM278 -15q-112 0 -184.5 68t-72.5 178t72.5 178t184.5 68q89 0 167 -45l-62 -121q-44 28 -98 28q-47 0 -80 -29t-33 -79t33 -79t80 -29q54 0 98 28l62 -121
q-78 -45 -167 -45z" />
    <glyph glyph-name="dcaron.ss01" horiz-adv-x="727" 
d="M575 489l49 69q-23 8 -37 29t-14 49q0 38 23.5 61t61.5 23t61.5 -23.5t23.5 -59.5q0 -39 -34 -73l-75 -75h-59zM240 -15q-95 0 -157 64.5t-62 181.5t62 181.5t157 64.5q103 0 151 -78h2v301h151v-700h-151v63h-2q-48 -78 -151 -78zM282 123q47 0 77 29.5t30 78.5
t-30 78.5t-77 29.5q-46 0 -76 -29.5t-30 -78.5t30 -78.5t76 -29.5z" />
    <glyph glyph-name="edieresis.ss01" horiz-adv-x="511" 
d="M161 705q35 0 58 -23.5t23 -57.5t-23 -57.5t-58 -23.5t-58 23.5t-23 57.5t23 57.5t58 23.5zM370 705q34 0 57.5 -23.5t23.5 -57.5t-23.5 -57.5t-57.5 -23.5t-57.5 23.5t-23.5 57.5t23.5 57.5t57.5 23.5zM265 476q107 0 168 -62.5t61 -184.5v-34h-331q14 -84 118 -84
q70 0 134 42l55 -114q-88 -54 -191 -54q-116 0 -187 67t-71 177q0 115 67.5 181t176.5 66zM260 369q-86 0 -96 -85h184q-1 40 -25.5 62.5t-62.5 22.5z" />
    <glyph glyph-name="edotaccent.ss01" horiz-adv-x="511" 
d="M265 709q41 0 67.5 -26t26.5 -67q0 -42 -26.5 -68t-67.5 -26q-42 0 -68 26t-26 68q0 41 26 67t68 26zM265 476q107 0 168 -62.5t61 -184.5v-34h-331q14 -84 118 -84q70 0 134 42l55 -114q-88 -54 -191 -54q-116 0 -187 67t-71 177q0 115 67.5 181t176.5 66zM260 369
q-86 0 -96 -85h184q-1 40 -25.5 62.5t-62.5 22.5z" />
    <glyph glyph-name="gcommaaccent.ss01" horiz-adv-x="586" 
d="M218 602q0 33 26 57l57 52h45l-28 -48q36 -19 36 -61q0 -30 -19.5 -49t-48.5 -19t-48.5 19t-19.5 49zM295 -215q-86 0 -198 23l25 141q97 -23 162 -23q58 0 83.5 23.5t25.5 82.5v30h-2q-53 -70 -152 -70q-95 0 -156.5 62.5t-61.5 177.5q0 116 62.5 180.5t156.5 64.5
q103 0 151 -78h2v63h151v-462q-1 -108 -64.5 -161.5t-184.5 -53.5zM282 123q47 0 77 29.5t30 78.5t-30 78.5t-77 29.5q-46 0 -76 -29.5t-30 -78.5t30 -78.5t76 -29.5z" />
    <glyph glyph-name="gdotaccent.ss01" horiz-adv-x="586" 
d="M288 709q41 0 67.5 -26t26.5 -67q0 -42 -26.5 -68t-67.5 -26q-42 0 -68 26t-26 68q0 41 26 67t68 26zM295 -215q-86 0 -198 23l25 141q97 -23 162 -23q58 0 83.5 23.5t25.5 82.5v30h-2q-53 -70 -152 -70q-95 0 -156.5 62.5t-61.5 177.5q0 116 62.5 180.5t156.5 64.5
q103 0 151 -78h2v63h151v-462q-1 -108 -64.5 -161.5t-184.5 -53.5zM282 123q47 0 77 29.5t30 78.5t-30 78.5t-77 29.5q-46 0 -76 -29.5t-30 -78.5t30 -78.5t76 -29.5z" />
    <glyph glyph-name="i.ss01" horiz-adv-x="244" 
d="M122 709q41 0 67.5 -26t26.5 -67q0 -42 -26.5 -68t-67.5 -26q-42 0 -68 26t-26 68q0 41 26 67t68 26zM47 0v462h151v-462h-151z" />
    <glyph glyph-name="idieresis.ss01" horiz-adv-x="244" 
d="M28 705q34 0 57.5 -23.5t23.5 -57.5t-23.5 -57.5t-57.5 -23.5t-57.5 23.5t-23.5 57.5t23.5 57.5t57.5 23.5zM215 705q35 0 58 -23.5t23 -57.5t-23 -57.5t-58 -23.5t-58 23.5t-23 57.5t23 57.5t58 23.5zM47 0v462h151v-462h-151z" />
    <glyph glyph-name="i.loclTRK.ss01" horiz-adv-x="244" 
d="M122 709q41 0 67.5 -26t26.5 -67q0 -42 -26.5 -68t-67.5 -26q-42 0 -68 26t-26 68q0 41 26 67t68 26zM47 0v462h151v-462h-151z" />
    <glyph glyph-name="ij.ss01" horiz-adv-x="488" 
d="M122 709q41 0 67.5 -26t26.5 -67q0 -42 -26.5 -68t-67.5 -26q-42 0 -68 26t-26 68q0 41 26 67t68 26zM366 709q41 0 67.5 -26t26.5 -67q0 -42 -26.5 -68t-67.5 -26q-42 0 -68 26t-26 68q0 41 26 67t68 26zM47 0v462h151v-462h-151zM205 -63h25q61 0 61 66v459h151v-458
q0 -207 -187 -207h-50v140z" />
    <glyph glyph-name="iogonek.ss01" horiz-adv-x="244" 
d="M122 522q-42 0 -68 26t-26 68q0 41 26 67t68 26q41 0 67.5 -26t26.5 -67q0 -42 -26.5 -68t-67.5 -26zM47 0v462h151v-462h-44q-71 -68 -71 -94q0 -22 26 -22q11 0 39 6l12 -94q-52 -9 -70 -9q-111 0 -111 86q0 53 82 127h-14z" />
    <glyph glyph-name="j.ss01" horiz-adv-x="244" 
d="M122 709q41 0 67.5 -26t26.5 -67q0 -42 -26.5 -68t-67.5 -26q-42 0 -68 26t-26 68q0 41 26 67t68 26zM-39 -63h25q61 0 61 66v459h151v-458q0 -207 -187 -207h-50v140z" />
    <glyph glyph-name="kcommaaccent.ss01" horiz-adv-x="555" 
d="M337 252l213 -252h-195l-157 212v-212h-151v700h151v-420l135 182h187zM283 -33q29 0 48.5 -19t19.5 -49q0 -33 -26 -57l-57 -52h-45l28 48q-36 19 -36 61q0 30 19.5 49t48.5 19z" />
    <glyph glyph-name="lcaron.ss01" horiz-adv-x="389" 
d="M231 489l49 69q-23 8 -37 29t-14 49q0 38 23.5 61t61.5 23t61.5 -23.5t23.5 -59.5q0 -39 -35 -73l-74 -75h-59zM198 700v-700h-151v700h151z" />
    <glyph glyph-name="lcommaaccent.ss01" horiz-adv-x="244" 
d="M198 700v-700h-151v700h151zM198 -101q0 -33 -26 -57l-57 -52h-45l28 48q-36 19 -36 61q0 30 19.5 49t48.5 19t48.5 -19t19.5 -49z" />
    <glyph glyph-name="ldot.ss01" horiz-adv-x="421" 
d="M198 700v-700h-151v700h151zM317 477q40 0 67 -27t27 -67t-27 -67t-67 -27t-67 27t-27 67t27 67t67 27z" />
    <glyph glyph-name="napostrophe.ss01" horiz-adv-x="642" 
d="M90 720q37 0 61 -23.5t24 -60.5q0 -29 -16 -51l-94 -167h-58l49 140q-51 18 -51 78q0 37 23.5 60.5t61.5 23.5zM427 477q80 0 127 -48t47 -143v-286h-150v244q0 100 -85 100q-89 0 -89 -112v-232h-151v462h148v-70h2q50 85 151 85z" />
    <glyph glyph-name="ncommaaccent.ss01" horiz-adv-x="563" 
d="M347 477q80 0 127 -48t47 -143v-286h-150v244q0 100 -85 100q-89 0 -89 -112v-232h-151v462h148v-70h2q50 85 151 85zM361 -101q0 -33 -26 -57l-57 -52h-45l28 48q-36 19 -36 61q0 30 19.5 49t48.5 19t48.5 -19t19.5 -49z" />
    <glyph glyph-name="odieresis.ss01" horiz-adv-x="561" 
d="M176 705q34 0 57.5 -23.5t23.5 -57.5t-23.5 -57.5t-57.5 -23.5t-57.5 23.5t-23.5 57.5t23.5 57.5t57.5 23.5zM385 705q35 0 58 -23.5t23 -57.5t-23 -57.5t-58 -23.5t-58 23.5t-23 57.5t23 57.5t58 23.5zM280 477q114 0 187 -68t73 -178t-73 -178t-187 -68q-113 0 -186 68
t-73 178t73 178t186 68zM280 339q-46 0 -77 -30t-31 -78t31 -78t77 -30q47 0 77.5 29.5t30.5 78.5t-30.5 78.5t-77.5 29.5z" />
    <glyph glyph-name="rcommaaccent.ss01" horiz-adv-x="362" 
d="M352 476v-151h-13q-77 0 -109.5 -34t-32.5 -121v-170h-151v462h148v-94h2q38 108 153 108h3zM197 -101q0 -33 -26 -57l-57 -52h-45l28 48q-36 19 -36 61q0 30 19.5 49t48.5 19t48.5 -19t19.5 -49z" />
    <glyph glyph-name="scommaaccent.ss01" horiz-adv-x="434" 
d="M219 -15q-113 0 -209 48l57 124q91 -53 164 -53q42 0 42 21q0 5 -1.5 9t-6 6.5t-7 4t-9 4t-8.5 3.5l-81 32q-113 43 -113 143q0 72 50 111t148 39q80 0 167 -28l-42 -122q-83 34 -137 34q-37 0 -37 -20q0 -10 8 -15.5t27 -13.5l80 -30q56 -21 84 -53t28 -88
q0 -80 -54 -118t-150 -38zM306 -101q0 -33 -26 -57l-57 -52h-45l28 48q-36 19 -36 61q0 30 19.5 49t48.5 19t48.5 -19t19.5 -49z" />
    <glyph glyph-name="tcaron.ss01" horiz-adv-x="463" 
d="M374 720q38 0 61.5 -23.5t23.5 -59.5q0 -40 -34 -73l-75 -75h-59l50 69q-24 8 -38 29t-14 49q0 38 23.5 61t61.5 23zM251 647v-185h95v-126h-95v-139q0 -33 10.5 -45t39.5 -12h17v-140h-63q-155 0 -155 156v180h-90v126h90v185h151z" />
    <glyph glyph-name="uni021B.ss01" horiz-adv-x="362" 
d="M346 336h-95v-139q0 -33 10.5 -45t39.5 -12h17v-140h-63q-155 0 -155 156v180h-90v126h90v185h151v-185h95v-126zM237 -33q29 0 48.5 -19t19.5 -49q0 -33 -26 -57l-57 -52h-45l28 48q-36 19 -36 61q0 30 19.5 49t48.5 19z" />
    <glyph glyph-name="udieresis.ss01" horiz-adv-x="557" 
d="M177 705q35 0 58 -23.5t23 -57.5t-23 -57.5t-58 -23.5t-58 23.5t-23 57.5t23 57.5t58 23.5zM386 705q34 0 57.5 -23.5t23.5 -57.5t-23.5 -57.5t-57.5 -23.5t-57.5 23.5t-23.5 57.5t23.5 57.5t57.5 23.5zM216 -15q-78 0 -126.5 48.5t-48.5 143.5v285h156v-252
q0 -93 76 -93q87 0 87 122v223h151v-462h-148v72h-2q-54 -87 -145 -87z" />
    <glyph glyph-name="wdieresis.ss01" horiz-adv-x="808" 
d="M301 543q-35 0 -58 23.5t-23 57.5t23 57.5t58 23.5t58 -23.5t23 -57.5t-23 -57.5t-58 -23.5zM510 543q-34 0 -57.5 23.5t-23.5 57.5t23.5 57.5t57.5 23.5t57.5 -23.5t23.5 -57.5t-23.5 -57.5t-57.5 -23.5zM654 462h149l-168 -462h-129l-102 270l-101 -270h-129l-169 462
h150l86 -271l94 271h139l93 -271z" />
    <glyph glyph-name="ydieresis.ss01" horiz-adv-x="560" 
d="M184 543q-34 0 -57.5 23.5t-23.5 57.5t23.5 57.5t57.5 23.5t57.5 -23.5t23.5 -57.5t-23.5 -57.5t-57.5 -23.5zM393 543q-35 0 -58 23.5t-23 57.5t23 57.5t58 23.5t58 -23.5t23 -57.5t-23 -57.5t-58 -23.5zM402 462h153l-307 -662h-152l116 244l-207 418h174l108 -255z
" />
    <glyph glyph-name="zdotaccent.ss01" horiz-adv-x="451" 
d="M237 522q-42 0 -68 26t-26 68q0 41 26 67t68 26q41 0 67.5 -26t26.5 -67q0 -42 -26.5 -68t-67.5 -26zM200 127h236v-127h-420v114l216 221h-200v127h389v-111z" />
    <glyph glyph-name="germandbls.ss03" horiz-adv-x="574" 
d="M442 271q105 -51 105 -160q0 -26 -4.5 -51t-16.5 -49t-21.5 -42.5t-29.5 -41.5t-30 -35t-35 -33.5t-31.5 -27.5t-32.5 -26l-25 -20l-88 110q80 63 123 110t43 90q0 63 -110 102l-20 8l80 131h-151v-336h-151v489q0 114 54.5 167.5t167.5 53.5h30v-140h-12
q-50 0 -69.5 -18t-19.5 -68v-104l55 82h306z" />
    <glyph glyph-name="t_z" horiz-adv-x="687" 
d="M555 271q104 -52 104 -160q0 -43 -16 -85.5t-35.5 -72.5t-54.5 -65t-53.5 -50.5t-52.5 -41.5q-3 -2 -5 -3.5t-4.5 -3.5t-4.5 -4l-87 110q80 63 122.5 110t42.5 90q0 62 -109 102l-20 8l79 131h-210v-139q0 -33 10.5 -45t39.5 -12h17v-140h-63q-155 0 -155 156v180h-90
v126h90v185h151v-185h420z" />
    <glyph glyph-name="f_f_i.ss01" horiz-adv-x="959" 
d="M92 489q0 114 54.5 167.5t167.5 53.5h31v-140h-13q-50 0 -69.5 -18t-19.5 -68v-22h98v-126h-98v-336h-151v336h-81v126h81v27zM452 489q0 114 54.5 167.5t167.5 53.5h31v-140h-13q-50 0 -69.5 -18t-19.5 -68v-22h98v-126h-98v-336h-151v336h-81v126h81v27zM837 522
q-42 0 -68 26t-26 68q0 41 26 67t68 26q41 0 67.5 -26t26.5 -67q0 -42 -26.5 -68t-67.5 -26zM762 0v462h151v-462h-151z" />
    <glyph glyph-name="fi.ss01" horiz-adv-x="599" 
d="M92 489q0 114 54.5 167.5t167.5 53.5h31v-140h-13q-50 0 -69.5 -18t-19.5 -68v-22h98v-126h-98v-336h-151v336h-81v126h81v27zM477 522q-42 0 -68 26t-26 68q0 41 26 67t68 26q41 0 67.5 -26t26.5 -67q0 -42 -26.5 -68t-67.5 -26zM402 0v462h151v-462h-151z" />
    <glyph glyph-name="a.subs" horiz-adv-x="414" 
d="M166 -120q-61 0 -103 43.5t-42 119.5t42 119.5t103 43.5q68 0 96 -54h2v44h110v-306h-110v44h-2q-28 -54 -96 -54zM200 -19q28 0 46 17t18 45t-18 45t-46 17q-29 0 -47 -17t-18 -45t18 -45t47 -17z" />
    <glyph glyph-name="b.subs" horiz-adv-x="414" 
d="M249 -120q-69 0 -97 54h-2v-44h-110v462h110v-200h2q28 54 97 54q61 0 102.5 -43.5t41.5 -119.5t-41.5 -119.5t-102.5 -43.5zM215 -19q29 0 47 17t18 45t-18 45t-47 17t-47 -17t-18 -45t18 -45t47 -17z" />
    <glyph glyph-name="c.subs" horiz-adv-x="317" 
d="M194 206q61 0 112 -28l-40 -89q-34 16 -62 16q-31 0 -50.5 -16t-19.5 -46t19.5 -46t50.5 -16q28 0 62 16l40 -89q-51 -28 -112 -28q-77 0 -125 44t-48 119t48 119t125 44z" />
    <glyph glyph-name="d.subs" horiz-adv-x="414" 
d="M166 -120q-61 0 -103 43.5t-42 119.5t42 119.5t103 43.5q68 0 96 -54h2v200h110v-462h-110v44h-2q-28 -54 -96 -54zM200 -19q28 0 46 17t18 45t-18 45t-46 17q-29 0 -47 -17t-18 -45t18 -45t47 -17z" />
    <glyph glyph-name="e.subs" horiz-adv-x="361" 
d="M187 206q70 0 111.5 -39t41.5 -111v-36h-215q6 -49 80 -49q36 0 87 22l35 -86q-59 -27 -126 -27q-84 0 -132 44t-48 119q0 73 45.5 118t120.5 45zM184 131q-22 0 -38.5 -13t-17.5 -38h107q-1 25 -15.5 38t-35.5 13z" />
    <glyph glyph-name="f.subs" horiz-adv-x="251" 
d="M240 196v-90h-63v-216h-109v216h-58v90h58v12q0 151 153 151h18v-102h-10q-52 0 -52 -46v-15h63z" />
    <glyph glyph-name="g.subs" horiz-adv-x="413" 
d="M216 -252q-60 0 -141 14l17 93q70 -14 112 -14q39 0 49.5 14t10.5 56v23h-2q-28 -54 -96 -54q-61 0 -103 43.5t-42 119.5t42 119.5t103 43.5q68 0 96 -54h2v44h110v-306q0 -142 -158 -142zM200 -19q28 0 46 17t18 45t-18 45t-46 17q-29 0 -47 -17t-18 -45t18 -45t47 -17z
" />
    <glyph glyph-name="h.subs" horiz-adv-x="401" 
d="M150 352v-202h2q32 56 100 56q49 0 79 -30t30 -89v-197h-110v160q0 59 -48 59q-53 0 -53 -70v-149h-110v462h110z" />
    <glyph glyph-name="i.subs" horiz-adv-x="205" 
d="M160 352v-107h-115v107h115zM157 196v-306h-109v306h109z" />
    <glyph glyph-name="j.subs" horiz-adv-x="216" 
d="M176 352v-107h-115v107h115zM173 196v-306q0 -134 -124 -134h-31v101h12q18 0 26 7.5t8 27.5v304h109z" />
    <glyph glyph-name="k.subs" horiz-adv-x="396" 
d="M150 352v-281l84 125h135l-113 -143l130 -163h-138l-98 138v-138h-110v462h110z" />
    <glyph glyph-name="l.subs" horiz-adv-x="190" 
d="M149 352v-462h-109v462h109z" />
    <glyph glyph-name="m.subs" horiz-adv-x="588" 
d="M446 206q47 0 74.5 -31t27.5 -89v-196h-109v161q0 58 -45 58q-47 0 -47 -59v-160h-106v160q0 59 -44 59q-47 0 -47 -60v-159h-110v306h108v-53h2q27 63 96 63q73 0 92 -64h2q37 64 106 64z" />
    <glyph glyph-name="n.subs" horiz-adv-x="397" 
d="M249 206q47 0 77.5 -30.5t30.5 -89.5v-196h-110v160q0 59 -45 59q-53 0 -53 -70v-149h-109v306h107v-47h2q28 57 100 57z" />
    <glyph glyph-name="o.subs" horiz-adv-x="388" 
d="M194 206q76 0 124.5 -45.5t48.5 -117.5t-48.5 -117.5t-124.5 -45.5t-124.5 45.5t-48.5 117.5t48.5 117.5t124.5 45.5zM194 104q-27 0 -44.5 -16.5t-17.5 -44.5t17.5 -44.5t44.5 -16.5t44.5 16.5t17.5 44.5t-17.5 44.5t-44.5 16.5z" />
    <glyph glyph-name="p.subs" horiz-adv-x="414" 
d="M40 -242v438h110v-44h2q28 54 96 54q61 0 103 -43.5t42 -119.5t-42 -119.5t-103 -43.5q-68 0 -96 54h-2v-176h-110zM214 -19q29 0 47 17t18 45t-18 45t-47 17q-28 0 -46 -17t-18 -45t18 -45t46 -17z" />
    <glyph glyph-name="q.subs" horiz-adv-x="414" 
d="M264 -242v176h-2q-28 -54 -96 -54q-61 0 -103 43.5t-42 119.5t42 119.5t103 43.5q68 0 96 -54h2v44h110v-438h-110zM200 -19q28 0 46 17t18 45t-18 45t-46 17q-29 0 -47 -17t-18 -45t18 -45t47 -17z" />
    <glyph glyph-name="r.subs" horiz-adv-x="263" 
d="M248 206v-117h-10q-48 0 -68.5 -17t-20.5 -62v-120h-109v306h107v-66h2q19 76 94 76h5z" />
    <glyph glyph-name="s.subs" horiz-adv-x="314" 
d="M174 206q59 0 119 -18l-35 -89q-50 22 -90 22q-17 0 -17 -8q0 -6 13 -13l62 -26q67 -27 67 -96q0 -48 -35.5 -73t-97.5 -25q-79 0 -144 31l40 86q60 -31 110 -31q19 0 19 9q0 7 -15 14l-51 23q-74 30 -74 95q0 48 33 73.5t96 25.5z" />
    <glyph glyph-name="t.subs" horiz-adv-x="260" 
d="M245 105h-62v-84q0 -18 5 -24t21 -6h15v-101h-45q-106 0 -106 104v111h-58v91h58v121h110v-121h62v-91z" />
    <glyph glyph-name="u.subs" horiz-adv-x="403" 
d="M358 196v-306h-107v50h-2q-32 -60 -101 -60q-48 0 -78 30t-30 92v194h112v-159q0 -60 48 -60q49 0 49 67v152h109z" />
    <glyph glyph-name="v.subs" horiz-adv-x="376" 
d="M370 196l-128 -306h-108l-129 306h122l61 -194l61 194h121z" />
    <glyph glyph-name="w.subs" horiz-adv-x="547" 
d="M542 196l-112 -306h-95l-61 173l-62 -173h-94l-113 306h110l52 -173l58 173h97l59 -173l51 173h110z" />
    <glyph glyph-name="x.subs" horiz-adv-x="386" 
d="M259 -110l-65 83l-67 -83h-122l127 154l-120 152h122l60 -79l58 79h122l-119 -152l126 -154h-122z" />
    <glyph glyph-name="y.subs" horiz-adv-x="392" 
d="M275 196h112l-210 -439h-111l79 166l-140 273h130l64 -159z" />
    <glyph glyph-name="z.subs" horiz-adv-x="331" 
d="M297 196v-83l-140 -129h149v-94h-281v85l139 128h-131v93h264z" />
    <glyph glyph-name="a.sups" horiz-adv-x="414" 
d="M166 338q-61 0 -103 43.5t-42 119.5t42 119.5t103 43.5q68 0 96 -54h2v44h110v-306h-110v44h-2q-28 -54 -96 -54zM200 439q28 0 46 17t18 45t-18 45t-46 17q-29 0 -47 -17t-18 -45t18 -45t47 -17z" />
    <glyph glyph-name="b.sups" horiz-adv-x="414" 
d="M249 338q-69 0 -97 54h-2v-44h-110v462h110v-200h2q28 54 97 54q61 0 102.5 -43.5t41.5 -119.5t-41.5 -119.5t-102.5 -43.5zM215 439q29 0 47 17t18 45t-18 45t-47 17t-47 -17t-18 -45t18 -45t47 -17z" />
    <glyph glyph-name="c.sups" horiz-adv-x="317" 
d="M194 664q61 0 112 -28l-40 -89q-34 16 -62 16q-31 0 -50.5 -16t-19.5 -46t19.5 -46t50.5 -16q28 0 62 16l40 -89q-51 -28 -112 -28q-77 0 -125 44t-48 119t48 119t125 44z" />
    <glyph glyph-name="d.sups" horiz-adv-x="414" 
d="M166 338q-61 0 -103 43.5t-42 119.5t42 119.5t103 43.5q68 0 96 -54h2v200h110v-462h-110v44h-2q-28 -54 -96 -54zM200 439q28 0 46 17t18 45t-18 45t-46 17q-29 0 -47 -17t-18 -45t18 -45t47 -17z" />
    <glyph glyph-name="e.sups" horiz-adv-x="361" 
d="M187 664q70 0 111.5 -39t41.5 -111v-36h-215q6 -49 80 -49q36 0 87 22l35 -86q-59 -27 -126 -27q-84 0 -132 44t-48 119q0 73 45.5 118t120.5 45zM184 589q-22 0 -38.5 -13t-17.5 -38h107q-1 25 -15.5 38t-35.5 13z" />
    <glyph glyph-name="f.sups" horiz-adv-x="251" 
d="M240 654v-90h-63v-216h-109v216h-58v90h58v12q0 151 153 151h18v-102h-10q-52 0 -52 -46v-15h63z" />
    <glyph glyph-name="g.sups" horiz-adv-x="413" 
d="M216 206q-60 0 -141 14l17 93q70 -14 112 -14q39 0 49.5 14t10.5 56v23h-2q-28 -54 -96 -54q-61 0 -103 43.5t-42 119.5t42 119.5t103 43.5q68 0 96 -54h2v44h110v-306q0 -142 -158 -142zM200 439q28 0 46 17t18 45t-18 45t-46 17q-29 0 -47 -17t-18 -45t18 -45t47 -17z
" />
    <glyph glyph-name="h.sups" horiz-adv-x="401" 
d="M150 810v-202h2q32 56 100 56q49 0 79 -30t30 -89v-197h-110v160q0 59 -48 59q-53 0 -53 -70v-149h-110v462h110z" />
    <glyph glyph-name="i.sups" horiz-adv-x="205" 
d="M160 810v-107h-115v107h115zM157 654v-306h-109v306h109z" />
    <glyph glyph-name="j.sups" horiz-adv-x="216" 
d="M176 810v-107h-115v107h115zM173 654v-306q0 -134 -124 -134h-31v101h12q18 0 26 7.5t8 27.5v304h109z" />
    <glyph glyph-name="k.sups" horiz-adv-x="396" 
d="M150 810v-281l84 125h135l-113 -143l130 -163h-138l-98 138v-138h-110v462h110z" />
    <glyph glyph-name="l.sups" horiz-adv-x="190" 
d="M149 810v-462h-109v462h109z" />
    <glyph glyph-name="m.sups" horiz-adv-x="588" 
d="M446 664q47 0 74.5 -31t27.5 -89v-196h-109v161q0 58 -45 58q-47 0 -47 -59v-160h-106v160q0 59 -44 59q-47 0 -47 -60v-159h-110v306h108v-53h2q27 63 96 63q73 0 92 -64h2q37 64 106 64z" />
    <glyph glyph-name="n.sups" horiz-adv-x="397" 
d="M249 664q47 0 77.5 -30.5t30.5 -89.5v-196h-110v160q0 59 -45 59q-53 0 -53 -70v-149h-109v306h107v-47h2q28 57 100 57z" />
    <glyph glyph-name="o.sups" horiz-adv-x="388" 
d="M194 664q76 0 124.5 -45.5t48.5 -117.5t-48.5 -117.5t-124.5 -45.5t-124.5 45.5t-48.5 117.5t48.5 117.5t124.5 45.5zM194 562q-27 0 -44.5 -16.5t-17.5 -44.5t17.5 -44.5t44.5 -16.5t44.5 16.5t17.5 44.5t-17.5 44.5t-44.5 16.5z" />
    <glyph glyph-name="p.sups" horiz-adv-x="414" 
d="M40 216v438h110v-44h2q28 54 96 54q61 0 103 -43.5t42 -119.5t-42 -119.5t-103 -43.5q-68 0 -96 54h-2v-176h-110zM214 439q29 0 47 17t18 45t-18 45t-47 17q-28 0 -46 -17t-18 -45t18 -45t46 -17z" />
    <glyph glyph-name="q.sups" horiz-adv-x="414" 
d="M264 216v176h-2q-28 -54 -96 -54q-61 0 -103 43.5t-42 119.5t42 119.5t103 43.5q68 0 96 -54h2v44h110v-438h-110zM200 439q28 0 46 17t18 45t-18 45t-46 17q-29 0 -47 -17t-18 -45t18 -45t47 -17z" />
    <glyph glyph-name="r.sups" horiz-adv-x="263" 
d="M248 664v-117h-10q-48 0 -68.5 -17t-20.5 -62v-120h-109v306h107v-66h2q19 76 94 76h5z" />
    <glyph glyph-name="s.sups" horiz-adv-x="314" 
d="M174 664q59 0 119 -18l-35 -89q-50 22 -90 22q-17 0 -17 -8q0 -6 13 -13l62 -26q67 -27 67 -96q0 -48 -35.5 -73t-97.5 -25q-79 0 -144 31l40 86q60 -31 110 -31q19 0 19 9q0 7 -15 14l-51 23q-74 30 -74 95q0 48 33 73.5t96 25.5z" />
    <glyph glyph-name="t.sups" horiz-adv-x="260" 
d="M245 563h-62v-84q0 -18 5 -24t21 -6h15v-101h-45q-106 0 -106 104v111h-58v91h58v121h110v-121h62v-91z" />
    <glyph glyph-name="u.sups" horiz-adv-x="403" 
d="M358 654v-306h-107v50h-2q-32 -60 -101 -60q-48 0 -78 30t-30 92v194h112v-159q0 -60 48 -60q49 0 49 67v152h109z" />
    <glyph glyph-name="v.sups" horiz-adv-x="376" 
d="M370 654l-128 -306h-108l-129 306h122l61 -194l61 194h121z" />
    <glyph glyph-name="w.sups" horiz-adv-x="547" 
d="M542 654l-112 -306h-95l-61 173l-62 -173h-94l-113 306h110l52 -173l58 173h97l59 -173l51 173h110z" />
    <glyph glyph-name="x.sups" horiz-adv-x="386" 
d="M259 348l-65 83l-67 -83h-122l127 154l-120 152h122l60 -79l58 79h122l-119 -152l126 -154h-122z" />
    <glyph glyph-name="y.sups" horiz-adv-x="392" 
d="M275 654h112l-210 -439h-111l79 166l-140 273h130l64 -159z" />
    <glyph glyph-name="z.sups" horiz-adv-x="331" 
d="M297 654v-83l-140 -129h149v-94h-281v85l139 128h-131v93h264z" />
    <glyph glyph-name="zero.subs" horiz-adv-x="457" 
d="M229 -120q-90 0 -142 61.5t-52 171.5q0 109 52 170.5t142 61.5q89 0 141 -61.5t52 -170.5t-52 -171t-141 -62zM229 -2q63 0 63 115q0 53 -16.5 83.5t-46.5 30.5t-46.5 -30.5t-16.5 -83.5t16.5 -84t46.5 -31z" />
    <glyph glyph-name="one.subs" horiz-adv-x="257" 
d="M68 -110v322h-18v123h146v-445h-128z" />
    <glyph glyph-name="two.subs" horiz-adv-x="413" 
d="M38 -110v104l149 130q21 19 30 27.5t18 22t9 26.5q0 32 -40 32q-44 0 -47 -46h-127q2 72 45.5 115.5t133.5 43.5q80 0 123.5 -34.5t43.5 -101.5q0 -79 -85 -144l-70 -55h157v-120h-340z" />
    <glyph glyph-name="three.subs" horiz-adv-x="412" 
d="M211 -120q-181 0 -185 157h123q3 -42 54 -42q56 0 56 39q0 23 -20 31.5t-64 8.5v80q69 0 69 44q0 38 -45 38q-43 0 -47 -40h-120q1 68 44 108.5t130 40.5q77 0 122 -33t45 -88q0 -39 -22.5 -65t-60.5 -34v-2q47 -6 72 -33.5t25 -72.5q0 -61 -44.5 -99t-131.5 -38z" />
    <glyph glyph-name="four.subs" horiz-adv-x="420" 
d="M399 67v-103h-47v-74h-119v74h-218v90l215 281h122v-268h47zM132 67h101v126h-3z" />
    <glyph glyph-name="five.subs" horiz-adv-x="400" 
d="M183 -120q-93 0 -157 50l66 101q41 -33 90 -33q28 0 46 12.5t18 36.5q0 20 -11.5 32.5t-33.5 12.5q-30 0 -45 -22h-101l22 265h253v-107l-162 -1l-5 -57h1q27 15 66 15q61 0 100 -38.5t39 -106.5q0 -74 -49.5 -117t-136.5 -43z" />
    <glyph glyph-name="six.subs" horiz-adv-x="413" 
d="M215 -120q-85 0 -135 47t-50 132q0 57 22 100.5t63 94.5l73 87h152l-167 -176l2 -1q34 32 80 32q56 0 96.5 -38.5t40.5 -111.5q0 -70 -45.5 -118t-131.5 -48zM210 -8q24 0 39 15t15 37t-15 36.5t-39 14.5t-38.5 -14.5t-14.5 -36.5t14.5 -37t38.5 -15z" />
    <glyph glyph-name="seven.subs" horiz-adv-x="344" 
d="M20 -110l173 322h-183v123h323v-114l-175 -331h-138z" />
    <glyph glyph-name="eight.subs" horiz-adv-x="419" 
d="M209 -120q-87 0 -135 35.5t-48 97.5q0 48 27 77t69 35v2q-39 5 -60.5 33t-21.5 64q0 54 45.5 87.5t123.5 33.5t123.5 -33.5t45.5 -87.5q0 -36 -21.5 -64t-61.5 -33v-2q43 -6 70 -35t27 -77q0 -62 -47.5 -97.5t-135.5 -35.5zM209 175q18 0 29.5 9.5t11.5 25.5t-11.5 25.5
t-29.5 9.5q-17 0 -28.5 -9.5t-11.5 -25.5t11 -25.5t29 -9.5zM209 -10q22 0 36 12t14 31t-14 31t-36 12t-36 -12t-14 -31t14 -31t36 -12z" />
    <glyph glyph-name="nine.subs" horiz-adv-x="401" 
d="M65 -110l170 165l-2 2q-31 -29 -69 -29q-59 0 -101 44.5t-42 110.5q0 72 48 117t126 45q85 0 135 -45t50 -129q0 -61 -23 -113t-80 -111l-57 -57h-155zM201 131q24 0 39 15t15 37t-15 37t-39 15t-39 -15t-15 -37t15 -37t39 -15z" />
    <glyph glyph-name="zero.dnom" horiz-adv-x="377" 
d="M189 395q78 0 122 -52.5t44 -148.5t-44 -149.5t-122 -53.5q-79 0 -123.5 53.5t-44.5 149.5t44.5 148.5t123.5 52.5zM189 318q-39 0 -60.5 -33.5t-21.5 -90.5q0 -59 21.5 -92.5t60.5 -33.5t60 33t21 93q0 57 -21 90.5t-60 33.5z" />
    <glyph glyph-name="one.dnom" horiz-adv-x="213" 
d="M152 386v-386h-80v305h-27v81h107z" />
    <glyph glyph-name="two.dnom" horiz-adv-x="330" 
d="M170 395q62 0 97 -30.5t35 -82.5q0 -62 -66 -125l-82 -79h154v-78h-277l-1 64l138 132q49 49 49 78q0 21 -13.5 33.5t-37.5 12.5q-56 0 -59 -56h-80q1 57 37 94t106 37z" />
    <glyph glyph-name="three.dnom" horiz-adv-x="351" 
d="M175 395q61 0 96 -28t35 -72q0 -73 -74 -90v-1q88 -14 88 -97q0 -51 -36 -83.5t-106 -32.5q-69 0 -107 32.5t-41 93.5h81q2 -24 18.5 -38.5t47.5 -14.5q59 0 59 49q0 27 -21.5 38t-69.5 11v71q78 -2 78 47q0 44 -53 44q-24 0 -39.5 -12.5t-16.5 -35.5h-77q2 54 37 86.5
t101 32.5z" />
    <glyph glyph-name="four.dnom" horiz-adv-x="355" 
d="M330 135v-70h-37v-65h-77v65h-200v65l199 256h78v-251h37zM100 135h116v144h-2z" />
    <glyph glyph-name="five.dnom" horiz-adv-x="335" 
d="M192 254q51 0 84 -32t33 -92q0 -65 -39.5 -102t-107.5 -37q-88 0 -141 56l50 62q35 -39 88 -39q32 0 50 17t18 44t-17 42.5t-43 15.5q-37 0 -53 -22h-69l22 219h212v-78h-151l-9 -81h2q24 27 71 27z" />
    <glyph glyph-name="six.dnom" horiz-adv-x="343" 
d="M179 -9q-67 0 -110 39.5t-43 109.5q0 82 81 174l71 80h97l-150 -164l2 -1q31 32 73 32q56 0 91 -35.5t35 -95.5q0 -59 -39.5 -99t-107.5 -40zM176 68q29 0 48 16.5t19 44.5t-19 44.5t-48 16.5t-48 -16.5t-19 -44.5t19 -44.5t48 -16.5z" />
    <glyph glyph-name="seven.dnom" horiz-adv-x="299" 
d="M284 386v-74l-161 -312h-88l162 307h-182v79h269z" />
    <glyph glyph-name="eight.dnom" horiz-adv-x="364" 
d="M182 -9q-71 0 -108.5 32t-37.5 82q0 83 77 101v2q-65 19 -65 84q0 46 35.5 74.5t98.5 28.5t98.5 -28.5t35.5 -74.5q0 -67 -65 -84v-2q77 -19 77 -101q0 -50 -38 -82t-108 -32zM182 240q23 0 36 11.5t13 30.5q0 18 -13.5 29t-35.5 11t-36.5 -11.5t-14.5 -28.5
q0 -19 14 -30.5t37 -11.5zM182 67q29 0 45.5 15t16.5 38t-17 37.5t-45 14.5t-45 -14.5t-17 -37.5q0 -24 16 -38.5t46 -14.5z" />
    <glyph glyph-name="nine.dnom" horiz-adv-x="337" 
d="M73 0l143 152h-3q-26 -23 -67 -23q-53 0 -89 36t-36 91q0 63 40.5 101t107.5 38q63 0 104.5 -37t41.5 -109q0 -93 -81 -183l-62 -66h-99zM169 199q29 0 47.5 16.5t18.5 44.5t-18.5 44.5t-47.5 16.5t-47.5 -16.5t-18.5 -44.5t18.5 -44.5t47.5 -16.5z" />
    <glyph glyph-name="zero.numr" horiz-adv-x="377" 
d="M189 684q78 0 122 -52.5t44 -148.5t-44 -149.5t-122 -53.5q-79 0 -123.5 53.5t-44.5 149.5t44.5 148.5t123.5 52.5zM189 607q-39 0 -60.5 -33.5t-21.5 -90.5q0 -59 21.5 -92.5t60.5 -33.5t60 33t21 93q0 57 -21 90.5t-60 33.5z" />
    <glyph glyph-name="one.numr" horiz-adv-x="213" 
d="M152 675v-386h-80v305h-27v81h107z" />
    <glyph glyph-name="two.numr" horiz-adv-x="330" 
d="M170 684q62 0 97 -30.5t35 -82.5q0 -62 -66 -125l-82 -79h154v-78h-277l-1 64l138 132q49 49 49 78q0 21 -13.5 33.5t-37.5 12.5q-56 0 -59 -56h-80q1 57 37 94t106 37z" />
    <glyph glyph-name="three.numr" horiz-adv-x="351" 
d="M175 684q61 0 96 -28t35 -72q0 -73 -74 -90v-1q88 -14 88 -97q0 -51 -36 -83.5t-106 -32.5q-69 0 -107 32.5t-41 93.5h81q2 -24 18.5 -38.5t47.5 -14.5q59 0 59 49q0 27 -21.5 38t-69.5 11v71q78 -2 78 47q0 44 -53 44q-24 0 -39.5 -12.5t-16.5 -35.5h-77q2 54 37 86.5
t101 32.5z" />
    <glyph glyph-name="four.numr" horiz-adv-x="355" 
d="M330 424v-70h-37v-65h-77v65h-200v65l199 256h78v-251h37zM100 424h116v144h-2z" />
    <glyph glyph-name="five.numr" horiz-adv-x="335" 
d="M192 543q51 0 84 -32t33 -92q0 -65 -39.5 -102t-107.5 -37q-88 0 -141 56l50 62q35 -39 88 -39q32 0 50 17t18 44t-17 42.5t-43 15.5q-37 0 -53 -22h-69l22 219h212v-78h-151l-9 -81h2q24 27 71 27z" />
    <glyph glyph-name="six.numr" horiz-adv-x="343" 
d="M179 280q-67 0 -110 39.5t-43 109.5q0 82 81 174l71 80h97l-150 -164l2 -1q31 32 73 32q56 0 91 -35.5t35 -95.5q0 -59 -39.5 -99t-107.5 -40zM176 357q29 0 48 16.5t19 44.5t-19 44.5t-48 16.5t-48 -16.5t-19 -44.5t19 -44.5t48 -16.5z" />
    <glyph glyph-name="seven.numr" horiz-adv-x="299" 
d="M284 675v-74l-161 -312h-88l162 307h-182v79h269z" />
    <glyph glyph-name="eight.numr" horiz-adv-x="364" 
d="M182 280q-71 0 -108.5 32t-37.5 82q0 83 77 101v2q-65 19 -65 84q0 46 35.5 74.5t98.5 28.5t98.5 -28.5t35.5 -74.5q0 -67 -65 -84v-2q77 -19 77 -101q0 -50 -38 -82t-108 -32zM182 529q23 0 36 11.5t13 30.5q0 18 -13.5 29t-35.5 11t-36.5 -11.5t-14.5 -28.5
q0 -19 14 -30.5t37 -11.5zM182 356q29 0 45.5 15t16.5 38t-17 37.5t-45 14.5t-45 -14.5t-17 -37.5q0 -24 16 -38.5t46 -14.5z" />
    <glyph glyph-name="nine.numr" horiz-adv-x="337" 
d="M73 289l143 152h-3q-26 -23 -67 -23q-53 0 -89 36t-36 91q0 63 40.5 101t107.5 38q63 0 104.5 -37t41.5 -109q0 -93 -81 -183l-62 -66h-99zM169 488q29 0 47.5 16.5t18.5 44.5t-18.5 44.5t-47.5 16.5t-47.5 -16.5t-18.5 -44.5t18.5 -44.5t47.5 -16.5z" />
    <glyph glyph-name="zero.sups" horiz-adv-x="457" 
d="M229 338q-90 0 -142 61.5t-52 171.5q0 109 52 170.5t142 61.5q89 0 141 -61.5t52 -170.5t-52 -171t-141 -62zM229 456q63 0 63 115q0 53 -16.5 83.5t-46.5 30.5t-46.5 -30.5t-16.5 -83.5t16.5 -84t46.5 -31z" />
    <glyph glyph-name="one.sups" horiz-adv-x="257" 
d="M68 348v322h-18v123h146v-445h-128z" />
    <glyph glyph-name="two.sups" horiz-adv-x="413" 
d="M38 348v104l149 130q21 19 30 27.5t18 22t9 26.5q0 32 -40 32q-44 0 -47 -46h-127q2 72 45.5 115.5t133.5 43.5q80 0 123.5 -34.5t43.5 -101.5q0 -79 -85 -144l-70 -55h157v-120h-340z" />
    <glyph glyph-name="three.sups" horiz-adv-x="412" 
d="M211 338q-181 0 -185 157h123q3 -42 54 -42q56 0 56 39q0 23 -20 31.5t-64 8.5v80q69 0 69 44q0 38 -45 38q-43 0 -47 -40h-120q1 68 44 108.5t130 40.5q77 0 122 -33t45 -88q0 -39 -22.5 -65t-60.5 -34v-2q47 -6 72 -33.5t25 -72.5q0 -61 -44.5 -99t-131.5 -38z" />
    <glyph glyph-name="four.sups" horiz-adv-x="420" 
d="M399 525v-103h-47v-74h-119v74h-218v90l215 281h122v-268h47zM132 525h101v126h-3z" />
    <glyph glyph-name="five.sups" horiz-adv-x="400" 
d="M183 338q-93 0 -157 50l66 101q41 -33 90 -33q28 0 46 12.5t18 36.5q0 20 -11.5 32.5t-33.5 12.5q-30 0 -45 -22h-101l22 265h253v-107l-162 -1l-5 -57h1q27 15 66 15q61 0 100 -38.5t39 -106.5q0 -74 -49.5 -117t-136.5 -43z" />
    <glyph glyph-name="six.sups" horiz-adv-x="413" 
d="M215 338q-85 0 -135 47t-50 132q0 57 22 100.5t63 94.5l73 87h152l-167 -176l2 -1q34 32 80 32q56 0 96.5 -38.5t40.5 -111.5q0 -70 -45.5 -118t-131.5 -48zM210 450q24 0 39 15t15 37t-15 36.5t-39 14.5t-38.5 -14.5t-14.5 -36.5t14.5 -37t38.5 -15z" />
    <glyph glyph-name="seven.sups" horiz-adv-x="344" 
d="M20 348l173 322h-183v123h323v-114l-175 -331h-138z" />
    <glyph glyph-name="eight.sups" horiz-adv-x="419" 
d="M209 338q-87 0 -135 35.5t-48 97.5q0 48 27 77t69 35v2q-39 5 -60.5 33t-21.5 64q0 54 45.5 87.5t123.5 33.5t123.5 -33.5t45.5 -87.5q0 -36 -21.5 -64t-61.5 -33v-2q43 -6 70 -35t27 -77q0 -62 -47.5 -97.5t-135.5 -35.5zM209 633q18 0 29.5 9.5t11.5 25.5t-11.5 25.5
t-29.5 9.5q-17 0 -28.5 -9.5t-11.5 -25.5t11 -25.5t29 -9.5zM209 448q22 0 36 12t14 31t-14 31t-36 12t-36 -12t-14 -31t14 -31t36 -12z" />
    <glyph glyph-name="nine.sups" horiz-adv-x="401" 
d="M65 348l170 165l-2 2q-31 -29 -69 -29q-59 0 -101 44.5t-42 110.5q0 72 48 117t126 45q85 0 135 -45t50 -129q0 -61 -23 -113t-80 -111l-57 -57h-155zM201 589q24 0 39 15t15 37t-15 37t-39 15t-39 -15t-15 -37t15 -37t39 -15z" />
    <glyph glyph-name="colon.case" horiz-adv-x="243" 
d="M201 523v-161h-160v161h160zM201 161v-161h-160v161h160z" />
    <glyph glyph-name="exclamdown.case" horiz-adv-x="327" 
d="M84 540v161h160v-161h-160zM77 1l33 471h108l32 -471h-173z" />
    <glyph glyph-name="questiondown.case" horiz-adv-x="442" 
d="M151 539v161h160v-161h-160zM217 -15q-101 0 -153.5 53.5t-52.5 135.5q0 47 18 80.5t51 68.5l12.5 12.5t13 13.5t11 12.5t11.5 14l9 13.5t8.5 15.5t6 15.5t4.5 18t1 19v14h149v-29q0 -40 -15 -75.5t-30 -53.5t-42 -45q-2 -2 -10 -9.5t-9.5 -10t-8 -9t-8.5 -9t-7 -8.5
t-6.5 -9.5t-3.5 -9t-3 -10t-1 -9.5q0 -56 61 -56q34 0 53 20t19 52h146q0 -100 -57 -157.5t-167 -57.5z" />
    <glyph glyph-name="semicolon.case" horiz-adv-x="243" 
d="M201 523v-161h-160v161h160zM201 161v-161l-91 -164h-64l57 164h-62v161h160z" />
    <glyph glyph-name="periodcentered.ss01" horiz-adv-x="270" 
d="M135 477q40 0 67 -27t27 -67t-27 -67t-67 -27t-67 27t-27 67t27 67t67 27z" />
    <glyph glyph-name="colon.case.ss01" horiz-adv-x="243" 
d="M121 542q40 0 67 -27t27 -67t-27 -67t-67 -27t-67 27t-27 67t27 67t67 27zM121 175q40 0 67 -27t27 -67t-27 -67t-67 -27t-67 27t-27 67t27 67t67 27z" />
    <glyph glyph-name="exclamdown.case.ss01" horiz-adv-x="327" 
d="M163 525q-40 0 -67 27t-27 67t27 67t67 27t67 -27t27 -67t-27 -67t-67 -27zM77 0l32 475h108l33 -475h-173z" />
    <glyph glyph-name="questiondown.case.ss01" horiz-adv-x="442" 
d="M230 525q-40 0 -67 27t-27 67t27 67t67 27t67 -27t27 -67t-27 -67t-67 -27zM217 -15q-101 0 -153.5 53.5t-52.5 135.5q0 47 18 80.5t50 68.5q29 29 39.5 40.5t24 38.5t13.5 55v14h149v-29q0 -40 -15 -75.5t-29.5 -53.5t-41.5 -45l-30 -30t-18 -24.5t-9 -29.5
q0 -56 60 -56q35 0 54 22t19 56h146q0 -102 -57 -161.5t-167 -59.5z" />
    <glyph glyph-name="semicolon.case.ss01" horiz-adv-x="243" 
d="M122 542q40 0 67 -27t27 -67t-27 -67t-67 -27t-67 27t-27 67t27 67t67 27zM215 75q0 -31 -15 -55l-103 -182h-59l50 154q-53 19 -53 83q0 41 24 65.5t66 24.5t66 -24.5t24 -65.5z" />
    <glyph glyph-name="colon.ss01" horiz-adv-x="243" 
d="M121 477q40 0 67 -27t27 -67t-27 -67t-67 -27t-67 27t-27 67t27 67t67 27zM121 175q40 0 67 -27t27 -67t-27 -67t-67 -27t-67 27t-27 67t27 67t67 27z" />
    <glyph glyph-name="comma.ss01" horiz-adv-x="243" 
d="M215 75q0 -31 -15 -55l-103 -182h-59l50 154q-53 19 -53 83q0 41 24 65.5t66 24.5t66 -24.5t24 -65.5z" />
    <glyph glyph-name="ellipsis.ss01" horiz-adv-x="757" 
d="M124 175q40 0 67 -27t27 -67t-27 -67t-67 -27t-67 27t-27 67t27 67t67 27zM378 175q40 0 67 -27t27 -67t-27 -67t-67 -27t-67 27t-27 67t27 67t67 27zM633 175q40 0 67 -27t27 -67t-27 -67t-67 -27t-67 27t-27 67t27 67t67 27z" />
    <glyph glyph-name="exclam.ss01" horiz-adv-x="327" 
d="M250 700l-32 -475h-108l-33 475h173zM164 175q40 0 67 -27t27 -67t-27 -67t-67 -27t-67 27t-27 67t27 67t67 27z" />
    <glyph glyph-name="exclamdown.ss01" horiz-adv-x="327" 
d="M163 324q-40 0 -67 27t-27 67t27 67t67 27t67 -27t27 -67t-27 -67t-67 -27zM77 -201l32 475h108l33 -475h-173z" />
    <glyph glyph-name="period.ss01" horiz-adv-x="243" 
d="M121 175q40 0 67 -27t27 -67t-27 -67t-67 -27t-67 27t-27 67t27 67t67 27z" />
    <glyph glyph-name="question.ss01" horiz-adv-x="491" 
d="M249 715q101 0 153.5 -53.5t52.5 -135.5q0 -47 -18 -80.5t-50 -68.5q-29 -29 -39.5 -40.5t-24 -38.5t-13.5 -55v-14h-149v29q0 40 15 75.5t29.5 53.5t41.5 45l30 30t18 24.5t9 29.5q0 56 -60 56q-35 0 -54 -22t-19 -56h-146q0 102 57 161.5t167 59.5zM236 175
q40 0 67 -27t27 -67t-27 -67t-67 -27t-67 27t-27 67t27 67t67 27z" />
    <glyph glyph-name="questiondown.ss01" horiz-adv-x="440" 
d="M230 324q-40 0 -67 27t-27 67t27 67t67 27t67 -27t27 -67t-27 -67t-67 -27zM217 -216q-101 0 -153.5 53.5t-52.5 135.5q0 47 18 80.5t50 68.5q29 29 39.5 40.5t24 38.5t13.5 55v14h149v-29q0 -40 -15 -75.5t-29.5 -53.5t-41.5 -45l-30 -30t-18 -24.5t-9 -29.5
q0 -56 60 -56q35 0 54 22t19 56h146q0 -102 -57 -161.5t-167 -59.5z" />
    <glyph glyph-name="semicolon.ss01" horiz-adv-x="243" 
d="M121 477q40 0 67 -27t27 -67t-27 -67t-67 -27t-67 27t-27 67t27 67t67 27zM215 75q0 -31 -15 -55l-103 -182h-59l50 154q-53 19 -53 83q0 41 24 65.5t66 24.5t66 -24.5t24 -65.5z" />
    <glyph glyph-name="colon.tf.ss01" horiz-adv-x="300" 
d="M150 477q40 0 67 -27t27 -67t-27 -67t-67 -27t-67 27t-27 67t27 67t67 27zM150 175q40 0 67 -27t27 -67t-27 -67t-67 -27t-67 27t-27 67t27 67t67 27z" />
    <glyph glyph-name="comma.tf.ss01" horiz-adv-x="300" 
d="M240 75q0 -31 -15 -55l-102 -182h-60l51 154q-54 19 -54 83q0 41 24 65.5t66 24.5t66 -24.5t24 -65.5z" />
    <glyph glyph-name="period.tf.ss01" horiz-adv-x="300" 
d="M150 175q40 0 67 -27t27 -67t-27 -67t-67 -27t-67 27t-27 67t27 67t67 27z" />
    <glyph glyph-name="semicolon.tf.ss01" horiz-adv-x="300" 
d="M150 477q40 0 67 -27t27 -67t-27 -67t-67 -27t-67 27t-27 67t27 67t67 27zM244 75q0 -31 -15 -55l-103 -182h-59l50 154q-53 19 -53 83q0 41 24 65.5t66 24.5t66 -24.5t24 -65.5z" />
    <glyph glyph-name="colon.tf" horiz-adv-x="300" 
d="M230 462v-161h-160v161h160zM230 161v-161h-160v161h160z" />
    <glyph glyph-name="comma.tf" horiz-adv-x="300" 
d="M230 161v-161l-91 -164h-64l56 164h-61v161h160z" />
    <glyph glyph-name="period.tf" horiz-adv-x="300" 
d="M230 161v-161h-160v161h160z" />
    <glyph glyph-name="semicolon.tf" horiz-adv-x="300" 
d="M230 462v-161h-160v161h160zM230 161v-161l-91 -164h-64l57 164h-62v161h160z" />
    <glyph glyph-name="slash.tf" 
d="M482 791l106 -57l-471 -859l-106 58z" />
    <glyph glyph-name="underscore.tf" 
d="M600 -15v-112h-600v112h600z" />
    <glyph glyph-name="braceleft.case" horiz-adv-x="416" 
d="M406 833v-124h-30q-44 0 -67 -18.5t-23 -68.5v-114q0 -133 -123 -162v-2q123 -29 123 -162v-116q0 -50 23 -68.5t67 -18.5h30v-124h-39q-87 0 -145.5 50t-58.5 155v118q0 95 -128 102v130q128 7 128 102v116q0 105 58.5 155t145.5 50h39z" />
    <glyph glyph-name="braceright.case" horiz-adv-x="416" 
d="M10 -145v124h31q44 0 67 18.5t23 68.5v116q0 134 122 162v2q-122 28 -122 162v114q0 50 -23.5 68.5t-67.5 18.5h-30v124h40q87 0 145 -49.5t58 -155.5v-116q0 -95 128 -102v-130q-128 -7 -128 -102v-118q0 -106 -58 -155.5t-145 -49.5h-40z" />
    <glyph glyph-name="bracketleft.case" horiz-adv-x="341" 
d="M331 834v-108h-130v-763h130v-108h-257v979h257z" />
    <glyph glyph-name="bracketright.case" horiz-adv-x="341" 
d="M10 -145v108h130v763h-130v108h257v-979h-257z" />
    <glyph glyph-name="parenleft.case" horiz-adv-x="334" 
d="M203 857l106 -64q-61 -94 -97 -191.5t-36 -226.5q0 -234 133 -456l-107 -64q-72 123 -112.5 242.5t-40.5 277.5q0 152 39.5 258.5t114.5 223.5z" />
    <glyph glyph-name="parenright.case" horiz-adv-x="334" 
d="M131 -145l-107 64q133 218 133 456q0 130 -36 227.5t-97 190.5l107 64q75 -117 114 -224t39 -258q0 -158 -40.5 -277.5t-112.5 -242.5z" />
    <glyph glyph-name="parenleft.tf" 
d="M323 787l107 -64q-61 -94 -97 -191.5t-36 -226.5q0 -234 133 -456l-107 -64q-72 123 -112.5 242.5t-40.5 277.5q0 151 39 258t114 224z" />
    <glyph glyph-name="parenright.tf" 
d="M277 -215l-107 64q133 222 133 456q0 129 -36 226.5t-97 191.5l107 64q75 -117 114 -224t39 -258q0 -158 -40.5 -277.5t-112.5 -242.5z" />
    <glyph glyph-name="emdash.case" horiz-adv-x="1154" 
d="M1104 408v-113h-1054v113h1054z" />
    <glyph glyph-name="endash.case" horiz-adv-x="734" 
d="M693 408v-117h-652v117h652z" />
    <glyph glyph-name="hyphen.case" horiz-adv-x="366" 
d="M326 413v-135h-286v135h286z" />
    <glyph glyph-name="hyphen.tf" 
d="M474 333v-135h-348v135h348z" />
    <glyph glyph-name="guillemotleft.case" horiz-adv-x="578" 
d="M341 493l-164 -175l164 -176h-162l-164 176l164 175h162zM568 493l-164 -175l164 -176h-162l-164 176l164 175h162z" />
    <glyph glyph-name="guillemotright.case" horiz-adv-x="578" 
d="M10 493h162l164 -175l-164 -176h-162l164 176zM237 493h162l164 -175l-164 -176h-162l164 176z" />
    <glyph glyph-name="guilsinglleft.case" horiz-adv-x="351" 
d="M341 493l-164 -175l164 -176h-162l-164 176l164 175h162z" />
    <glyph glyph-name="guilsinglright.case" horiz-adv-x="351" 
d="M10 493h162l164 -175l-164 -176h-162l164 176z" />
    <glyph glyph-name="quotedblbase.ss01" horiz-adv-x="369" 
d="M88 148q37 0 61 -23.5t24 -60.5q0 -29 -16 -51l-94 -167h-58l49 140q-51 18 -51 78q0 37 23.5 60.5t61.5 23.5zM280 148q37 0 61 -23.5t24 -60.5q0 -29 -16 -51l-94 -167h-58l49 140q-51 18 -51 78q0 37 23.5 60.5t61.5 23.5z" />
    <glyph glyph-name="quotedblleft.ss01" horiz-adv-x="369" 
d="M87 464q-37 0 -61 23.5t-24 60.5q0 29 16 51l94 167h58l-49 -140q51 -18 51 -78q0 -37 -23.5 -60.5t-61.5 -23.5zM279 464q-37 0 -61 23.5t-24 60.5q0 29 16 51l94 167h58l-49 -140q51 -18 51 -78q0 -37 -23.5 -60.5t-61.5 -23.5z" />
    <glyph glyph-name="quotedblright.ss01" horiz-adv-x="369" 
d="M88 720q37 0 61 -23.5t24 -60.5q0 -29 -16 -51l-94 -167h-58l49 140q-51 18 -51 78q0 37 23.5 60.5t61.5 23.5zM280 720q37 0 61 -23.5t24 -60.5q0 -29 -16 -51l-94 -167h-58l49 140q-51 18 -51 78q0 37 23.5 60.5t61.5 23.5z" />
    <glyph glyph-name="quoteleft.ss01" horiz-adv-x="187" 
d="M93 464q-37 0 -61 23.5t-24 60.5q0 29 16 51l94 167h58l-49 -140q51 -18 51 -78q0 -37 -23.5 -60.5t-61.5 -23.5z" />
    <glyph glyph-name="quoteright.ss01" horiz-adv-x="187" 
d="M94 720q37 0 61 -23.5t24 -60.5q0 -29 -16 -51l-94 -167h-58l49 140q-51 18 -51 78q0 37 23.5 60.5t61.5 23.5z" />
    <glyph glyph-name="quotesinglbase.ss01" horiz-adv-x="187" 
d="M94 148q37 0 61 -23.5t24 -60.5q0 -29 -16 -51l-94 -167h-58l49 140q-51 18 -51 78q0 37 23.5 60.5t61.5 23.5z" />
    <glyph glyph-name="parenleft.dnom" horiz-adv-x="228" 
d="M132 431l62 -39q-63 -86 -63 -208q0 -128 62 -218l-63 -39q-76 114 -76 257q0 136 78 247z" />
    <glyph glyph-name="parenright.dnom" horiz-adv-x="228" 
d="M98 -73l-63 39q63 92 63 218q0 120 -64 208l62 39q78 -113 78 -247q0 -140 -76 -257z" />
    <glyph glyph-name="parenleft.numr" horiz-adv-x="228" 
d="M132 726l62 -39q-63 -86 -63 -208q0 -128 62 -218l-63 -38q-76 112 -76 256q0 136 78 247z" />
    <glyph glyph-name="parenright.numr" horiz-adv-x="228" 
d="M98 223l-63 38q63 92 63 218q0 120 -64 208l62 39q78 -113 78 -247q0 -141 -76 -256z" />
    <glyph glyph-name="parenleft.subs" horiz-adv-x="270" 
d="M137 404l93 -51q-1 -3 -9.5 -18.5t-13.5 -26.5t-13 -32t-13 -40t-8.5 -46t-3.5 -54q0 -35 4.5 -69t13.5 -64t15.5 -48t17 -42t11.5 -26l-95 -50q-24 51 -35 79t-25.5 91.5t-14.5 128.5q0 60 13.5 115t26 82t36.5 71z" />
    <glyph glyph-name="parenright.subs" horiz-adv-x="270" 
d="M133 -163l-94 50q1 2 11.5 26t17 42t15.5 48t13.5 64t4.5 69q0 27 -3.5 54t-8.5 46t-13 40t-13 32t-13.5 26.5t-9.5 18.5l93 51q24 -44 36.5 -71t26 -82t13.5 -115q0 -66 -14 -128.5t-26.5 -92t-35.5 -78.5z" />
    <glyph glyph-name="parenleft.sups" horiz-adv-x="270" 
d="M137 859l93 -51q-1 -3 -9.5 -18.5t-13.5 -26.5t-13 -32t-13 -40t-8.5 -46t-3.5 -54q0 -35 4.5 -69t13.5 -64t15.5 -48t17 -42t11.5 -26l-95 -50q-24 51 -35 79t-25.5 91.5t-14.5 128.5q0 60 13.5 115t26 82t36.5 71z" />
    <glyph glyph-name="parenright.sups" horiz-adv-x="270" 
d="M133 292l-94 50q1 2 11.5 26t17 42t15.5 48t13.5 64t4.5 69q0 27 -3.5 54t-8.5 46t-13 40t-13 32t-13.5 26.5t-9.5 18.5l93 51q24 -44 36.5 -71t26 -82t13.5 -115q0 -66 -14 -128.5t-26.5 -92t-35.5 -78.5z" />
    <glyph glyph-name="uni0E3F.tf" 
d="M417 336q56 -12 88 -51t32 -102q0 -92 -61 -137.5t-164 -45.5h-12v-87h-28v87h-209v675h209v87h28v-87h21q97 0 156.5 -46t59.5 -128q0 -65 -32 -107t-88 -55v-3zM272 544h-64v-147h64v147zM300 397q39 1 61 21t22 57q0 32 -22.5 50t-60.5 19v-147zM208 131h64v147h-64
v-147zM300 131q38 1 60.5 20.5t22.5 52.5q0 72 -83 74v-147z" />
    <glyph glyph-name="uni20B4.tf" 
d="M468 395q-20 -20 -61 -49l-26 -19h168v-30h-210l-29 -21q-44 -33 -61.5 -52t-17.5 -39q0 -56 89 -56q88 0 203 54v-154q-109 -44 -220 -44q-114 0 -172 48t-58 136q0 73 45 128h-67v30h97q22 20 62 47l30 21h-189v30h231l46 33q42 30 42 56q0 37 -64 37q-81 0 -192 -37
v141q122 35 217 35q196 0 196 -162q0 -61 -32 -103h54v-30h-81z" />
    <glyph glyph-name="lira.tf" 
d="M420 327h148q0 -147 -90.5 -237t-234.5 -90h-103v292l-108 -49v31l108 49v56l-108 -49v31l108 49v265h145v-199l163 74v-31l-163 -74v-56l163 74v-31l-163 -74v-197q59 0 97 45t38 121z" />
    <glyph glyph-name="uni20BD.tf" 
d="M343 262h-81v-52h183v-30h-183v-180h-145v180h-93v30h93v52h-93v131h93v282h226q111 0 171.5 -56t60.5 -150q0 -95 -60.5 -151t-171.5 -56zM262 544v-151h64q46 0 69.5 17.5t23.5 59.5q0 74 -93 74h-64z" />
    <glyph glyph-name="uni20B9.tf" 
d="M344 645q90 -53 98 -158h82l-22 -30h-59q-5 -78 -59 -130.5t-133 -58.5l231 -268h-186l-220 267v131h123q77 0 87 59h-210v30h209q-12 57 -86 57h-123v131h448l-22 -30h-158z" />
    <glyph glyph-name="uni20B8.tf" 
d="M43 675h514v-131h-514v131zM43 358v131h514v-131h-184v-358h-146v358h-184z" />
    <glyph glyph-name="uni20AE.tf" 
d="M553 544h-184v-105l112 54v-31l-112 -54v-56l112 54v-31l-112 -54v-321h-146v249l-112 -54v31l112 54v56l-112 -54v31l112 54v177h-184v131h514v-131z" />
    <glyph glyph-name="uni20A9.tf" 
d="M600 391h-46l-9 -68h55v-30h-59l-36 -293h-147l-32 293h-52l-32 -293h-147l-36 293h-59v30h55l-9 68h-46v30h43l-32 254h122l20 -254h52l28 254h134l29 -254h52l19 254h122l-32 -254h43v-30zM298 509l-10 -88h24l-10 88h-4zM155 391l5 -68h34l7 68h-46zM278 323h44l-7 68
h-30zM440 323l5 68h-46l7 -68h34zM176 167l14 126h-28l10 -126h4zM428 167l10 126h-28l14 -126h4z" />
    <glyph glyph-name="plus.case" 
d="M334 581v-212h211v-63h-211v-212h-68v212h-211v63h211v212h68z" />
    <glyph glyph-name="minus.case" 
d="M539 372v-68h-478v68h478z" />
    <glyph glyph-name="multiply.case" 
d="M475 560l47 -47l-174 -175l174 -175l-47 -47l-175 174l-175 -174l-47 47l174 175l-174 175l47 47l175 -174z" />
    <glyph glyph-name="divide.case" 
d="M348 553v-98h-96v98h96zM559 370v-63h-518v63h518zM348 222v-98h-96v98h96z" />
    <glyph glyph-name="equal.case" 
d="M553 480v-66h-506v66h506zM553 267v-66h-506v66h506z" />
    <glyph glyph-name="notequal.case" 
d="M553 414h-174l-90 -147h264v-66h-305l-53 -87h-66l53 87h-135v66h176l90 147h-266v66h307l51 83h66l-51 -83h133v-66z" />
    <glyph glyph-name="greater.case" 
d="M66 583l468 -208v-71l-468 -208v76l391 167l-391 168v76z" />
    <glyph glyph-name="less.case" 
d="M534 583v-76l-391 -168l391 -167v-76l-468 208v71z" />
    <glyph glyph-name="approxequal.case" 
d="M173 518q46 0 133.5 -45t119.5 -45q59 0 85 74h62q-36 -142 -146 -142q-46 0 -133.5 45t-119.5 45q-59 0 -85 -75h-62q36 143 146 143zM173 336q46 0 133.5 -45t119.5 -45q59 0 85 75h62q-36 -143 -146 -143q-46 0 -133.5 45t-119.5 45q-59 0 -85 -75h-62q36 143 146 143
z" />
    <glyph glyph-name="logicalnot.case" 
d="M71 472h458v-265h-68v199h-390v66z" />
    <glyph glyph-name="divide.ss01.case" 
d="M300 443q-23 0 -38 15t-15 38t15 38t38 15t38 -15t15 -38t-15 -38t-38 -15zM41 307v63h518v-63h-518zM300 128q-23 0 -38 15t-15 38t15 38t38 15t38 -15t15 -38t-15 -38t-38 -15z" />
    <glyph glyph-name="divide.ss01" 
d="M300 403q-23 0 -38 15t-15 38t15 38t38 15t38 -15t15 -38t-15 -38t-38 -15zM41 267v63h518v-63h-518zM300 88q-23 0 -38 15t-15 38t15 38t38 15t38 -15t15 -38t-15 -38t-38 -15z" />
    <glyph glyph-name="arrowup.case" horiz-adv-x="748" 
d="M698 404l-96 -95l-166 170v-478h-124v478l-166 -170l-96 95l324 310z" />
    <glyph glyph-name="uni2197.case" horiz-adv-x="659" 
d="M609 166h-136l3 237l-338 -338l-88 88l338 337l-237 -2l-1 135l448 -11z" />
    <glyph glyph-name="arrowright.case" horiz-adv-x="813" 
d="M453 695l310 -324l-310 -324l-95 96l170 166h-478v124h478l-170 166z" />
    <glyph glyph-name="uni2198.case" horiz-adv-x="658" 
d="M473 573l135 1l-11 -447l-447 -11v136l237 -3l-337 337l88 89l337 -338z" />
    <glyph glyph-name="arrowdown.case" horiz-adv-x="748" 
d="M602 432l96 -95l-324 -310l-324 310l96 95l166 -170v478h124v-478z" />
    <glyph glyph-name="uni2199.case" horiz-adv-x="659" 
d="M271 250l237 2l1 -135l-448 11l-11 446h136l-3 -237l338 338l88 -88z" />
    <glyph glyph-name="arrowleft.case" horiz-adv-x="813" 
d="M763 432v-124h-478l170 -166l-95 -96l-310 324l310 324l95 -96l-170 -166h478z" />
    <glyph glyph-name="uni2196.case" horiz-adv-x="658" 
d="M608 154l-87 -89l-338 338l2 -236l-135 -1l11 447l447 11v-136l-237 3z" />
    <glyph glyph-name="arrowboth.case" horiz-adv-x="1252" 
d="M892 694l310 -324l-310 -324l-95 96l170 166h-682l170 -166l-95 -96l-310 324l310 324l95 -96l-170 -166h682l-170 166z" />
    <glyph glyph-name="at.case" horiz-adv-x="934" 
d="M478 760q187 0 301 -103.5t114 -276.5q0 -110 -48.5 -187t-143.5 -77q-93 0 -126 82h-2q-46 -77 -138 -77q-82 0 -137 57.5t-55 159.5q0 103 55.5 161t137.5 58q84 0 127 -70h2v55h115v-278q0 -50 37 -50q29 0 51.5 37.5t22.5 111.5q0 151 -87 226.5t-223 75.5
q-150 0 -244.5 -86t-94.5 -246q0 -79 28 -141.5t76 -100t108 -57t127 -19.5q83 0 170 32l33 -90q-103 -37 -205 -37q-82 0 -158 25t-139.5 73t-102 129.5t-38.5 184.5q0 200 120 314t317 114zM469 435q-40 0 -66.5 -26.5t-26.5 -69.5t26.5 -69.5t66.5 -26.5t66.5 26.5
t26.5 69.5t-26.5 69.5t-66.5 26.5z" />
    <glyph glyph-name="bar.case" horiz-adv-x="328" 
d="M218 807v-942h-108v942h108z" />
    <glyph glyph-name="brokenbar.case" horiz-adv-x="328" 
d="M218 807v-388h-108v388h108zM218 261v-396h-108v396h108z" />
    <glyph glyph-name="uniF8FF.ss01" horiz-adv-x="770" 
d="M385 -15q-159 0 -262 103.5t-103 261.5t103 261.5t262 103.5t262 -103.5t103 -261.5t-103 -261.5t-262 -103.5zM385 10q146 0 244 97t98 248l-51 65l-70 -30l-68 90l-79 -44l-74 118l-74 -118l-79 44l-68 -90l-70 30l-51 -65q0 -151 98 -248t244 -97zM282 318
q-15 0 -25 10t-10 25t10 25t25 10t25 -10t10 -25t-10 -25t-25 -10zM487 318q-15 0 -25 10t-10 25t10 25t25 10t25 -10t10 -25t-10 -25t-25 -10zM343 255l36 101q2 9 11 5q9 -2 5 -11l-28 -78h34q9 0 9 -9q0 -8 -9 -8h-58zM188 171q-30 0 -49.5 19.5t-19.5 49.5t19.5 49.5
t49.5 19.5t49.5 -19.5t19.5 -49.5t-19.5 -49.5t-49.5 -19.5zM581 171q-30 0 -49.5 19.5t-19.5 49.5t19.5 49.5t49.5 19.5t49.5 -19.5t19.5 -49.5t-19.5 -49.5t-49.5 -19.5zM385 195q45 0 62 30q3 6 9 6q8 0 8 -9q0 -14 -20.5 -29.5t-58.5 -15.5t-58.5 15.5t-20.5 29.5
q0 9 8 9q6 0 9 -6q17 -30 62 -30z" />
    <glyph glyph-name="bar.tf" horiz-adv-x="300" 
d="M204 727v-942h-108v942h108z" />
    <glyph glyph-name="plus.dnom" horiz-adv-x="360" 
d="M198 305v-103h104v-36h-104v-103h-37v103h-103v36h103v103h37z" />
    <glyph glyph-name="minus.dnom" horiz-adv-x="360" 
d="M299 203v-38h-238v38h238z" />
    <glyph glyph-name="equal.dnom" horiz-adv-x="361" 
d="M307 258v-36h-253v36h253zM307 147v-36h-253v36h253z" />
    <glyph glyph-name="plus.numr" horiz-adv-x="360" 
d="M198 600v-103h104v-36h-104v-103h-37v103h-103v36h103v103h37z" />
    <glyph glyph-name="minus.numr" horiz-adv-x="360" 
d="M299 498v-38h-238v38h238z" />
    <glyph glyph-name="equal.numr" horiz-adv-x="361" 
d="M307 553v-36h-253v36h253zM307 442v-36h-253v36h253z" />
    <glyph glyph-name="plus.subs" horiz-adv-x="390" 
d="M222 252v-108h108v-51h-108v-108h-54v108h-108v51h108v108h54z" />
    <glyph glyph-name="minus.subs" horiz-adv-x="390" 
d="M326 147v-56h-262v56h262z" />
    <glyph glyph-name="equal.subs" horiz-adv-x="390" 
d="M334 215v-52h-278v52h278zM334 77v-53h-278v53h278z" />
    <glyph glyph-name="plus.sups" horiz-adv-x="390" 
d="M222 707v-108h108v-51h-108v-108h-54v108h-108v51h108v108h54z" />
    <glyph glyph-name="minus.sups" horiz-adv-x="390" 
d="M326 602v-56h-262v56h262z" />
    <glyph glyph-name="equal.sups" horiz-adv-x="390" 
d="M334 670v-52h-278v52h278zM334 532v-53h-278v53h278z" />
    <glyph glyph-name="uni0308.case" horiz-adv-x="0" 
d="M-268 857v-114h-133v114h133zM-50 857v-114h-134v114h134z" />
    <glyph glyph-name="uni0307.case" horiz-adv-x="0" 
d="M-50 871v-128h-142v128h142z" />
    <glyph glyph-name="gravecomb.case" horiz-adv-x="0" 
d="M-165 863l115 -120h-108l-172 120h165z" />
    <glyph glyph-name="acutecomb.case" horiz-adv-x="0" 
d="M-50 863l-171 -120h-109l115 120h165z" />
    <glyph glyph-name="uni030B.case" horiz-adv-x="0" 
d="M-208 863l-113 -120h-102l98 120h117zM-50 863l-113 -120h-102l98 120h117z" />
    <glyph glyph-name="uni0302.case" horiz-adv-x="0" 
d="M-170 863l120 -120h-125l-67 62l-67 -62h-125l120 120h144z" />
    <glyph glyph-name="uni030C.case" horiz-adv-x="0" 
d="M-170 743h-144l-120 120h125l67 -62l67 62h125z" />
    <glyph glyph-name="uni0306.case" horiz-adv-x="0" 
d="M-50 863q-7 -60 -50.5 -94.5t-113.5 -34.5t-113 34.5t-51 94.5h103q2 -19 18.5 -31.5t42.5 -12.5q27 0 43 12t18 32h103z" />
    <glyph glyph-name="uni030A.case" horiz-adv-x="0" 
d="M-170 872q52 0 86 -33t34 -84t-34 -84t-86 -33q-53 0 -87 33t-34 84t34 84t87 33zM-170 811q-26 0 -41.5 -16t-15.5 -40t15.5 -39.5t41.5 -15.5q25 0 41 15.5t16 39.5t-16 40t-41 16z" />
    <glyph glyph-name="tildecomb.case" horiz-adv-x="0" 
d="M-166 738q-31 0 -95.5 18t-81.5 18q-32 0 -54 -38l-47 15q16 58 42.5 89t73.5 31q30 0 95 -18t82 -18q31 0 54 39l47 -16q-17 -58 -43.5 -89t-72.5 -31z" />
    <glyph glyph-name="uni0304.case" horiz-adv-x="0" 
d="M-50 844v-95h-324v95h324z" />
    <glyph glyph-name="uni0308.ss01" horiz-adv-x="0" 
d="M-340 705q34 0 57.5 -23.5t23.5 -57.5t-23.5 -57.5t-57.5 -23.5t-57.5 23.5t-23.5 57.5t23.5 57.5t57.5 23.5zM-131 705q35 0 58 -23.5t23 -57.5t-23 -57.5t-58 -23.5t-58 23.5t-23 57.5t23 57.5t58 23.5z" />
    <glyph glyph-name="uni0307.ss01" horiz-adv-x="0" 
d="M-144 709q41 0 67.5 -26t26.5 -67q0 -42 -26.5 -68t-67.5 -26q-42 0 -68 26t-26 68q0 41 26 67t68 26z" />
    <glyph glyph-name="uni0312.ss01" horiz-adv-x="0" 
d="M-186 602q0 33 26 57l57 52h45l-28 -48q36 -19 36 -61q0 -30 -19.5 -49t-48.5 -19t-48.5 19t-19.5 49z" />
    <glyph glyph-name="uni0326.ss01" horiz-adv-x="0" 
d="M-50 -101q0 -33 -26 -57l-57 -52h-45l28 48q-36 19 -36 61q0 30 19.5 49t48.5 19t48.5 -19t19.5 -49z" />
    <glyph glyph-name="uni0308.case.ss01" horiz-adv-x="0" 
d="M-358 891q34 0 57 -23.5t23 -57.5t-23 -57t-57 -23q-35 0 -58 23t-23 57t23.5 57.5t57.5 23.5zM-130 891q34 0 57 -23.5t23 -57.5t-23 -57t-57 -23q-35 0 -58 23t-23 57t23.5 57.5t57.5 23.5z" />
    <glyph glyph-name="uni0307.case.ss01" horiz-adv-x="0" 
d="M-129 900q34 0 57 -23.5t23 -57.5t-23 -57t-57 -23q-35 0 -58 23t-23 57q0 35 23 58t58 23z" />
    <glyph glyph-name="uni02BC.ss01" horiz-adv-x="187" 
d="M94 720q37 0 61 -23.5t24 -60.5q0 -29 -16 -51l-94 -167h-58l49 140q-51 18 -51 78q0 37 23.5 60.5t61.5 23.5z" />
    <glyph glyph-name="bitcoin.tf" 
d="M417 336q56 -12 88 -51t32 -102q0 -90 -58 -135.5t-157 -47.5v-87h-28v87h-49v-87h-28v87h-154v675h154v87h28v-87h49v87h28v-87q96 0 155.5 -46t59.5 -127q0 -66 -32 -108t-88 -55v-3zM296 397q41 0 64 20.5t23 57.5q0 33 -23.5 51t-63.5 18h-88v-147h88zM296 131
q40 0 63.5 19.5t23.5 53.5q0 74 -87 74h-88v-147h88z" />
    <glyph glyph-name="dot" horiz-adv-x="236" 
d="M198 161v-161h-160v161h160z" />
    <glyph glyph-name="bitcoin" horiz-adv-x="536" 
d="M385 336q56 -12 88 -51t32 -102q0 -90 -58 -135.5t-157 -47.5v-87h-28v87h-49v-87h-28v87h-154v675h154v87h28v-87h49v87h28v-87q96 0 155.5 -46t59.5 -127q0 -66 -32 -108t-88 -55v-3zM264 397q41 0 64 20.5t23 57.5q0 33 -23.5 51t-63.5 18h-88v-147h88zM264 131
q40 0 63.5 19.5t23.5 53.5q0 74 -87 74h-88v-147h88z" />
    <glyph glyph-name="dot.ss01" horiz-adv-x="288" 
d="M144 175q40 0 67 -27t27 -67t-27 -67t-67 -27t-67 27t-27 67t27 67t67 27z" />
    <glyph glyph-name="dieresiscasecomb.ss01" horiz-adv-x="233" 
d="M117 891q34 0 57 -23.5t23 -57.5t-23 -57t-57 -23q-35 0 -58 23t-23 57t23 57.5t58 23.5z" />
    <glyph glyph-name="dieresisdotcomb.ss01" horiz-adv-x="262" 
d="M131 700q35 0 58 -23t23 -58t-23 -58t-58 -23t-58 23t-23 58t23 58t58 23z" />
    <glyph glyph-name="circlecomb" horiz-adv-x="830" 
d="M415 -15q-161 0 -263 103t-102 262t102 262t263 103t263 -103t102 -262t-102 -262t-263 -103zM415 59q124 0 205 82.5t81 208.5t-81 208.5t-205 82.5t-205 -82.5t-81 -208.5t81 -208.5t205 -82.5z" />
    <glyph glyph-name="circleinvertcomb" horiz-adv-x="830" 
d="M415 -15q-157 0 -261 104.5t-104 260.5t104 260.5t261 104.5t261 -104.5t104 -260.5t-104 -260.5t-261 -104.5z" />
    </font>
</defs>
</svg>
