<?xml version="1.0" standalone="no"?>
<!DOCTYPE svg PUBLIC "-//W3C//DTD SVG 1.1//EN" "http://www.w3.org/Graphics/SVG/1.1/DTD/svg11.dtd" >
<svg xmlns="http://www.w3.org/2000/svg" xmlns:xlink="http://www.w3.org/1999/xlink" version="1.1">
<metadata>
Created by FontForge 20170731 at Thu Jun 30 22:48:01 2016
 By Aleksey,,,
Copyright (c) 2015 by Reto Moser. All rights reserved.
</metadata>
<defs>
<font id="GTEestiDisplay-Regular" horiz-adv-x="600" >
  <font-face 
    font-family="GT Eesti Display"
    font-weight="400"
    font-stretch="normal"
    units-per-em="1000"
    panose-1="0 0 5 0 0 0 0 0 0 0"
    ascent="750"
    descent="-250"
    x-height="462"
    cap-height="700"
    bbox="-409 -252 1207 886"
    underline-thickness="50"
    underline-position="-200"
    unicode-range="U+0020-FB02"
  />
<missing-glyph horiz-adv-x="770" 
d="M385 -15q-158 0 -261.5 103.5t-103.5 261.5q0 159 103.5 262t261.5 103q159 0 262 -103t103 -262q0 -158 -103 -261.5t-262 -103.5zM385 10q148 0 245 98t97 247l-51 65l-70 -30l-68 90l-79 -44l-74 118l-74 -118l-79 44l-68 -90l-70 30l-51 -65q0 -149 97 -247t245 -98z
M282 318q-15 0 -25 10t-10 25t10 25t25 10t25 -10t10 -25t-10 -25t-25 -10zM487 318q-15 0 -25 10t-10 25t10 25t25 10t25 -10t10 -25t-10 -25t-25 -10zM343 255l36 101q2 9 11 5q9 -2 5 -11l-28 -78h34q9 0 9 -9q0 -8 -9 -8h-58zM188 171q-30 0 -49.5 19.5t-19.5 49.5
t19.5 49.5t49.5 19.5t49.5 -19.5t19.5 -49.5t-19.5 -49.5t-49.5 -19.5zM581 171q-30 0 -49.5 19.5t-19.5 49.5t19.5 49.5t49.5 19.5t49.5 -19.5t19.5 -49.5t-19.5 -49.5t-49.5 -19.5zM385 193q-46 0 -62 -30q-3 -6 -9 -6q-8 0 -8 9q0 17 24.5 31t54.5 14t54.5 -14t24.5 -31
q0 -9 -8 -9q-6 0 -9 6q-16 30 -62 30z" />
    <glyph glyph-name="fi" unicode="fi" horiz-adv-x="528" 
d="M93 526q0 86 46.5 135t131.5 49h19v-91h-15q-84 0 -84 -90v-67h91v-83h-91v-379h-98v379h-73v83h73v64zM354 690h120v-120h-120v120zM365 0v462h98v-462h-98z" />
    <glyph glyph-name="fl" unicode="fl" horiz-adv-x="528" 
d="M93 526q0 86 46.5 135t131.5 49h19v-91h-15q-84 0 -84 -90v-67h91v-83h-91v-379h-98v379h-73v83h73v64zM365 700h98v-700h-98v700z" />
    <glyph glyph-name="f_f" unicode="ff" 
d="M93 526q0 86 46.5 135t131.5 49h19v-91h-15q-84 0 -84 -90v-67h91v-83h-91v-379h-98v379h-73v83h73v64zM575 619q-84 0 -84 -90v-67h91v-83h-91v-379h-98v379h-73v83h73v64q0 86 46.5 135t131.5 49h19v-91h-15z" />
    <glyph glyph-name="f_f_i" unicode="ffi" horiz-adv-x="828" 
d="M93 526q0 86 46.5 135t131.5 49h19v-91h-15q-84 0 -84 -90v-67h91v-83h-91v-379h-98v379h-73v83h73v64zM393 526q0 86 46.5 135t131.5 49h19v-91h-15q-84 0 -84 -90v-67h91v-83h-91v-379h-98v379h-73v83h73v64zM654 690h120v-120h-120v120zM665 0v462h98v-462h-98z" />
    <glyph glyph-name="f_f_l" unicode="ffl" horiz-adv-x="828" 
d="M93 526q0 86 46.5 135t131.5 49h19v-91h-15q-84 0 -84 -90v-67h91v-83h-91v-379h-98v379h-73v83h73v64zM393 526q0 86 46.5 135t131.5 49h19v-91h-15q-84 0 -84 -90v-67h91v-83h-91v-379h-98v379h-73v83h73v64zM665 700h98v-700h-98v700z" />
    <glyph glyph-name=".notdef" horiz-adv-x="770" 
d="M385 -15q-158 0 -261.5 103.5t-103.5 261.5q0 159 103.5 262t261.5 103q159 0 262 -103t103 -262q0 -158 -103 -261.5t-262 -103.5zM385 10q148 0 245 98t97 247l-51 65l-70 -30l-68 90l-79 -44l-74 118l-74 -118l-79 44l-68 -90l-70 30l-51 -65q0 -149 97 -247t245 -98z
M282 318q-15 0 -25 10t-10 25t10 25t25 10t25 -10t10 -25t-10 -25t-25 -10zM487 318q-15 0 -25 10t-10 25t10 25t25 10t25 -10t10 -25t-10 -25t-25 -10zM343 255l36 101q2 9 11 5q9 -2 5 -11l-28 -78h34q9 0 9 -9q0 -8 -9 -8h-58zM188 171q-30 0 -49.5 19.5t-19.5 49.5
t19.5 49.5t49.5 19.5t49.5 -19.5t19.5 -49.5t-19.5 -49.5t-49.5 -19.5zM581 171q-30 0 -49.5 19.5t-19.5 49.5t19.5 49.5t49.5 19.5t49.5 -19.5t19.5 -49.5t-19.5 -49.5t-49.5 -19.5zM385 193q-46 0 -62 -30q-3 -6 -9 -6q-8 0 -8 9q0 17 24.5 31t54.5 14t54.5 -14t24.5 -31
q0 -9 -8 -9q-6 0 -9 6q-16 30 -62 30z" />
    <glyph glyph-name=".null" horiz-adv-x="0" 
 />
    <glyph glyph-name="nonmarkingreturn" horiz-adv-x="333" 
 />
    <glyph glyph-name="space" unicode=" " horiz-adv-x="290" 
 />
    <glyph glyph-name="exclam" unicode="!" horiz-adv-x="319" 
d="M126 212l-24 488h115l-24 -488h-67zM219 119v-119h-119v119h119z" />
    <glyph glyph-name="quotedbl" unicode="&#x22;" horiz-adv-x="292" 
d="M73 462l-23 253h83l-23 -253h-37zM182 462l-23 253h83l-23 -253h-37z" />
    <glyph glyph-name="numbersign" unicode="#" horiz-adv-x="630" 
d="M580 452h-122l-33 -182h119v-50h-128l-40 -220h-54l40 220h-141l-40 -220h-54l40 220h-117v50h126l33 182h-123v50h132l36 198h54l-36 -198h141l36 198h54l-36 -198h113v-50zM371 270l33 182h-141l-33 -182h141z" />
    <glyph glyph-name="dollar" unicode="$" horiz-adv-x="506" 
d="M476 184q0 -89 -54.5 -141.5t-150.5 -57.5v-62h-28v62q-101 4 -157 59t-56 146h100q5 -59 33.5 -85t79.5 -28v234q-91 39 -123 65q-63 50 -63 136q0 78 48.5 126t137.5 52v72h28v-72q86 -3 139 -48.5t53 -133.5h-100q-4 85 -92 90v-191q91 -40 119 -60q86 -58 86 -163z
M159 517q0 -34 21.5 -56t62.5 -42v178q-84 -8 -84 -80zM271 78q103 6 103 97q0 45 -26.5 72.5t-76.5 50.5v-220z" />
    <glyph glyph-name="percent" unicode="%" horiz-adv-x="757" 
d="M210 690q71 0 115.5 -45t44.5 -115t-44.5 -115t-115.5 -45t-115.5 45t-44.5 115t44.5 115t115.5 45zM148 0l395 675h57l-395 -675h-57zM210 634q-46 0 -73 -29t-27 -75t27 -75t73 -29t73 29t27 75t-27 75t-73 29zM547 315q71 0 115.5 -45t44.5 -115t-44.5 -115
t-115.5 -45t-115.5 45t-44.5 115t44.5 115t115.5 45zM547 259q-46 0 -73 -29t-27 -75t27 -75t73 -29t73 29t27 75t-27 75t-73 29z" />
    <glyph glyph-name="ampersand" unicode="&#x26;" horiz-adv-x="673" 
d="M633 314q-43 -112 -94 -184l93 -130h-116l-41 57q-81 -72 -193 -72q-106 0 -171.5 58.5t-65.5 158.5q0 80 44 138t124 85l-11 15q-46 65 -46 125q0 59 42.5 92t115.5 33q70 0 136 -25l-31 -89q-59 19 -106 19q-57 0 -57 -40q0 -26 31 -70l194 -273q33 53 64 135zM283 80
q77 0 137 55l-156 218q-120 -38 -120 -145q0 -60 37.5 -94t101.5 -34z" />
    <glyph glyph-name="quotesingle" unicode="'" horiz-adv-x="192" 
d="M142 715l-22 -253h-47l-23 253h92z" />
    <glyph glyph-name="parenleft" unicode="(" horiz-adv-x="298" 
d="M209 768l74 -55q-76 -101 -111 -204.5t-35 -230.5q0 -243 142 -438l-74 -55q-80 112 -122.5 228.5t-42.5 264.5q0 149 43 264t126 226z" />
    <glyph glyph-name="parenright" unicode=")" horiz-adv-x="298" 
d="M93 -215l-74 55q142 195 142 438q0 127 -35 230.5t-111 204.5l74 55q83 -111 126 -226t43 -264q0 -148 -42.5 -264.5t-122.5 -228.5z" />
    <glyph glyph-name="asterisk" unicode="*" horiz-adv-x="408" 
d="M378 563l-124 -35l80 -100l-59 -44l-71 108l-71 -109l-59 44l80 100l-124 35l23 69l120 -45l-6 129h74l-6 -128l120 45z" />
    <glyph glyph-name="plus" unicode="+" 
d="M325 541v-220h219v-46h-219v-220h-50v220h-219v46h219v220h50z" />
    <glyph glyph-name="comma" unicode="," horiz-adv-x="230" 
d="M175 119v-119l-71 -143h-49l53 143h-52v119h119z" />
    <glyph glyph-name="hyphen" unicode="-" horiz-adv-x="351" 
d="M306 313v-96h-261v96h261z" />
    <glyph glyph-name="period" unicode="." horiz-adv-x="229" 
d="M174 119v-119h-119v119h119z" />
    <glyph glyph-name="slash" unicode="/" horiz-adv-x="607" 
d="M500 782l77 -43l-469 -840l-78 42z" />
    <glyph glyph-name="zero" unicode="0" horiz-adv-x="566" 
d="M283 690q115 0 176.5 -91t61.5 -261t-61.5 -261.5t-176.5 -91.5t-176.5 91.5t-61.5 261.5t61.5 261t176.5 91zM283 598q-64 0 -100 -69t-36 -191t36 -191.5t100 -69.5t100 69.5t36 191.5t-36 191t-100 69z" />
    <glyph glyph-name="one" unicode="1" horiz-adv-x="315" 
d="M215 675v-675h-98v577h-42v98h140z" />
    <glyph glyph-name="two" unicode="2" horiz-adv-x="498" 
d="M30 0v72l233 264q49 55 68.5 91t19.5 70q0 46 -28.5 73.5t-77.5 27.5q-52 0 -83 -29.5t-32 -81.5h-98q2 94 60.5 148.5t156.5 54.5q95 0 149.5 -50t54.5 -138q0 -52 -24.5 -102t-83.5 -115l-172 -191h279v-94h-422z" />
    <glyph glyph-name="three" unicode="3" horiz-adv-x="515" 
d="M249 690q94 0 150.5 -47.5t56.5 -125.5q0 -59 -32 -101t-89 -55v-2q70 -8 107.5 -52.5t37.5 -118.5q0 -95 -59.5 -149t-163.5 -54t-164 52t-63 144h98q4 -49 38 -76.5t91 -27.5q120 0 120 117q0 62 -37.5 89t-121.5 26h-32v88h32q136 0 136 103q0 47 -27.5 72.5
t-79.5 25.5q-53 0 -82.5 -24.5t-30.5 -70.5h-98q3 86 60.5 136.5t152.5 50.5z" />
    <glyph glyph-name="four" unicode="4" horiz-adv-x="540" 
d="M515 213v-94h-71v-119h-96v119h-328v82l331 474h93v-462h71zM126 213h222v313h-4z" />
    <glyph glyph-name="five" unicode="5" horiz-adv-x="524" 
d="M293 444q94 0 150 -60t56 -160q0 -111 -63 -175t-172 -64q-83 0 -143.5 36t-90.5 104l83 51q50 -99 151 -99q62 0 97.5 38.5t35.5 106.5q0 64 -35 101t-94 37q-36 0 -67.5 -15t-48.5 -40h-87l35 370h345v-94h-266l-19 -181h2q49 44 131 44z" />
    <glyph glyph-name="six" unicode="6" horiz-adv-x="526" 
d="M269 -15q-109 0 -174 66.5t-65 176.5q0 83 31 154.5t105 157.5l118 140h122l-248 -290l3 -2q57 61 132 61q94 0 153.5 -64t59.5 -166q0 -104 -66 -169t-171 -65zM268 77q62 0 99 38.5t37 103.5t-37 103t-100 38q-62 0 -99 -38.5t-37 -103.5t37 -103t100 -38z" />
    <glyph glyph-name="seven" unicode="7" horiz-adv-x="455" 
d="M435 675v-85l-271 -590h-104l270 580h-315v95h420z" />
    <glyph glyph-name="eight" unicode="8" horiz-adv-x="530" 
d="M265 -15q-106 0 -168 54.5t-62 147.5q0 64 33 110.5t91 63.5v2q-47 14 -76 55t-29 94q0 80 58 129t153 49t153 -49t58 -129q0 -53 -29 -94t-76 -55v-2q58 -17 91 -63.5t33 -110.5q0 -93 -62 -147.5t-168 -54.5zM265 405q50 0 79 26.5t29 72.5t-29 72.5t-79 26.5
t-79 -26.5t-29 -72.5t29 -72.5t79 -26.5zM265 72q61 0 94 32t33 91q0 56 -34.5 88.5t-92.5 32.5t-92.5 -32.5t-34.5 -88.5q0 -59 33 -91t94 -32z" />
    <glyph glyph-name="nine" unicode="9" horiz-adv-x="512" 
d="M133 0l239 293l-2 2q-52 -57 -135 -57q-90 0 -150 64t-60 159q0 101 65.5 165t168.5 64q108 0 170.5 -68t62.5 -184q0 -74 -29.5 -142.5t-98.5 -154.5l-114 -141h-117zM260 328q59 0 95 36.5t36 97.5q0 62 -36 99t-97 37q-59 0 -95 -37t-36 -98t36.5 -98t96.5 -37z" />
    <glyph glyph-name="colon" unicode=":" horiz-adv-x="229" 
d="M174 462v-119h-119v119h119zM174 119v-119h-119v119h119z" />
    <glyph glyph-name="semicolon" unicode=";" horiz-adv-x="230" 
d="M175 462v-119h-119v119h119zM175 119v-119l-71 -143h-49l53 143h-52v119h119z" />
    <glyph glyph-name="less" unicode="&#x3c;" 
d="M525 523v-54l-392 -170l392 -169v-54l-450 198v51z" />
    <glyph glyph-name="equal" unicode="=" 
d="M553 418v-48h-506v48h506zM553 229v-48h-506v48h506z" />
    <glyph glyph-name="greater" unicode="&#x3e;" 
d="M75 523l450 -198v-51l-450 -198v54l392 169l-392 170v54z" />
    <glyph glyph-name="question" unicode="?" horiz-adv-x="480" 
d="M241 715q92 0 145.5 -52t53.5 -136q0 -86 -76 -156q-6 -5 -21.5 -18.5t-22 -19.5t-17.5 -19t-16 -23.5t-9 -26t-4 -32.5v-20h-95v29q0 28 6 51t20 44t23.5 32t32 32t28.5 28q51 53 51 100q0 41 -25 66.5t-74 25.5q-50 0 -81 -31.5t-31 -82.5h-99q0 98 57.5 153.5
t153.5 55.5zM286 119v-119h-119v119h119z" />
    <glyph glyph-name="at" unicode="@" horiz-adv-x="940" 
d="M482 690q182 0 295 -106.5t113 -280.5q0 -106 -47 -177t-127 -71q-88 0 -119 78h-3q-16 -34 -53.5 -58t-90.5 -24q-84 0 -142 60t-58 158t58 158t143 60q92 0 134 -77h1v62h88v-280q0 -66 50 -66q41 0 62.5 45.5t21.5 126.5q0 148 -92.5 232t-233.5 84q-150 0 -250 -88.5
t-100 -257.5q0 -86 32 -154t84.5 -107.5t114.5 -60t128 -20.5q103 0 196 42l31 -72q-121 -46 -228 -46q-63 0 -124 15t-118.5 48t-101 80.5t-70 118t-26.5 154.5q0 200 120 312t312 112zM469 401q-55 0 -90 -37.5t-35 -93.5q0 -57 34.5 -94t90.5 -37q55 0 89.5 37.5
t34.5 93.5t-34.5 93.5t-89.5 37.5z" />
    <glyph glyph-name="A" unicode="A" horiz-adv-x="678" 
d="M559 0l-67 174h-306l-67 -174h-114l286 700h96l286 -700h-114zM223 270h232l-116 300z" />
    <glyph glyph-name="B" unicode="B" horiz-adv-x="618" 
d="M437 372q65 -10 103 -56t38 -117q0 -94 -61.5 -146.5t-153.5 -52.5h-293v700h266q92 0 148 -48t56 -130q0 -53 -27 -93t-76 -55v-2zM314 602h-140v-194h131q122 0 122 97q0 48 -30.5 72.5t-82.5 24.5zM342 98q58 0 90.5 29.5t32.5 78.5t-33.5 78.5t-99.5 29.5h-158v-216
h168z" />
    <glyph glyph-name="C" unicode="C" horiz-adv-x="682" 
d="M410 -15q-167 0 -271 101t-104 264t104 264t271 101q140 0 247 -77l-64 -91q-85 62 -187 62q-112 0 -184.5 -71t-72.5 -188t72.5 -188t184.5 -71q102 0 187 62l64 -91q-107 -77 -247 -77z" />
    <glyph glyph-name="D" unicode="D" horiz-adv-x="683" 
d="M296 700q154 0 253 -95t99 -255t-99 -255t-253 -95h-226v700h226zM295 602h-121v-504h121q106 0 172.5 66t66.5 186t-66.5 186t-172.5 66z" />
    <glyph glyph-name="E" unicode="E" horiz-adv-x="520" 
d="M174 98h301v-98h-405v700h400v-98h-296v-166h273v-98h-273v-240z" />
    <glyph glyph-name="F" unicode="F" horiz-adv-x="505" 
d="M475 602h-301v-197h278v-98h-278v-307h-104v700h405v-98z" />
    <glyph glyph-name="G" unicode="G" horiz-adv-x="782" 
d="M425 387h332v-42q0 -69 -22 -132.5t-64 -115t-111 -82t-155 -30.5q-161 0 -265.5 100t-104.5 263q0 162 103 264.5t268 102.5q158 0 269 -94l-71 -87q-82 75 -203 75q-113 0 -182.5 -73.5t-69.5 -186.5t71.5 -185.5t187.5 -72.5q107 0 168.5 60t68.5 138h-220v98z" />
    <glyph glyph-name="H" unicode="H" horiz-adv-x="718" 
d="M544 700h104v-700h-104v319h-370v-319h-104v700h104v-281h370v281z" />
    <glyph glyph-name="I" unicode="I" horiz-adv-x="246" 
d="M176 700v-700h-106v700h106z" />
    <glyph glyph-name="J" unicode="J" horiz-adv-x="274" 
d="M204 700v-528q0 -177 -153 -177h-36v101h26q31 0 45 16.5t14 59.5v528h104z" />
    <glyph glyph-name="K" unicode="K" horiz-adv-x="649" 
d="M644 0h-154l-316 349v-349h-104v700h104v-311l278 311h144l-304 -321z" />
    <glyph glyph-name="L" unicode="L" horiz-adv-x="483" 
d="M174 700v-600h304v-100h-408v700h104z" />
    <glyph glyph-name="M" unicode="M" horiz-adv-x="860" 
d="M685 700l170 -700h-111l-116 500h-2l-157 -393h-78l-157 393h-2l-116 -500h-111l170 700h85l169 -430h2l169 430h85z" />
    <glyph glyph-name="N" unicode="N" horiz-adv-x="699" 
d="M629 700v-700h-109l-344 523h-2v-523h-104v700h109l344 -523h2v523h104z" />
    <glyph glyph-name="O" unicode="O" horiz-adv-x="800" 
d="M400 715q157 0 261 -102.5t104 -262.5t-104 -262.5t-261 -102.5t-261 102.5t-104 262.5t104 262.5t261 102.5zM400 609q-111 0 -181 -73t-70 -186t70 -186t181 -73t181 73t70 186t-70 186t-181 73z" />
    <glyph glyph-name="P" unicode="P" horiz-adv-x="541" 
d="M309 700q102 0 159.5 -59.5t57.5 -152.5t-58 -152.5t-159 -59.5h-135v-276h-104v700h239zM295 374q55 0 87 29.5t32 84.5t-32 84.5t-87 29.5h-121v-228h121z" />
    <glyph glyph-name="Q" unicode="Q" horiz-adv-x="799" 
d="M779 0h-132l-42 43q-91 -58 -205 -58q-157 0 -261 102.5t-104 262.5t104 262.5t261 102.5t261 -102.5t104 -262.5q0 -146 -88 -245zM400 91q72 0 127 32l-149 152h133l88 -90q52 69 52 165q0 113 -70 186t-181 73t-181 -73t-70 -186t70 -186t181 -73z" />
    <glyph glyph-name="R" unicode="R" horiz-adv-x="582" 
d="M441 0l-204 291h-63v-291h-104v700h239q94 0 154 -55.5t60 -150.5q0 -79 -44.5 -132t-118.5 -67l212 -295h-131zM174 602v-213h118q60 0 89.5 28.5t29.5 76.5q0 49 -29.5 78.5t-89.5 29.5h-118z" />
    <glyph glyph-name="S" unicode="S" horiz-adv-x="500" 
d="M260 715q93 0 185 -47l-47 -99q-72 41 -141 41q-80 0 -80 -60q0 -40 55 -83l125 -96q56 -43 82 -87.5t26 -102.5q0 -94 -61 -145t-163 -51q-124 0 -226 65l47 98q99 -57 180 -57q54 0 82.5 23.5t28.5 60.5q0 28 -17.5 52t-56.5 55l-119 94q-96 75 -96 170q0 78 52 123.5
t144 45.5z" />
    <glyph glyph-name="T" unicode="T" horiz-adv-x="518" 
d="M508 700v-98h-197v-602h-104v602h-197v98h498z" />
    <glyph glyph-name="U" unicode="U" horiz-adv-x="682" 
d="M622 700v-430q0 -130 -76.5 -207.5t-204.5 -77.5t-204.5 77.5t-76.5 207.5v430h109v-427q0 -83 48.5 -131.5t123.5 -48.5t123.5 48.5t48.5 131.5v427h109z" />
    <glyph glyph-name="V" unicode="V" horiz-adv-x="615" 
d="M610 700l-254 -700h-97l-254 700h120l181 -552h3l181 552h120z" />
    <glyph glyph-name="W" unicode="W" horiz-adv-x="985" 
d="M970 700l-210 -700h-102l-164 524h-3l-164 -524h-102l-210 700h116l144 -534h2l164 534h103l164 -534h2l144 534h116z" />
    <glyph glyph-name="X" unicode="X" horiz-adv-x="620" 
d="M610 0h-123l-177 287l-176 -287h-124l235 373l-204 327h124l145 -239l146 239h123l-204 -327z" />
    <glyph glyph-name="Y" unicode="Y" horiz-adv-x="543" 
d="M543 700l-219 -419v-281h-105v280l-219 420h121l149 -309h3l149 309h121z" />
    <glyph glyph-name="Z" unicode="Z" horiz-adv-x="542" 
d="M145 98h377v-98h-502v98l362 504h-330v98h455v-98z" />
    <glyph glyph-name="bracketleft" unicode="[" horiz-adv-x="348" 
d="M338 755v-89h-130v-793h130v-88h-228v970h228z" />
    <glyph glyph-name="backslash" unicode="\" horiz-adv-x="607" 
d="M499 -101l-469 840l77 43l470 -841z" />
    <glyph glyph-name="bracketright" unicode="]" horiz-adv-x="348" 
d="M10 -215v88h130v793h-130v89h228v-970h-228z" />
    <glyph glyph-name="asciicircum" unicode="^" 
d="M345 715l144 -322h-77l-112 260l-112 -260h-77l144 322h90z" />
    <glyph glyph-name="underscore" unicode="_" horiz-adv-x="533" 
d="M523 -15v-82h-513v82h513z" />
    <glyph glyph-name="grave" unicode="`" horiz-adv-x="321" 
d="M177 707l94 -154h-76l-145 154h127z" />
    <glyph glyph-name="a" unicode="a" horiz-adv-x="571" 
d="M255 -15q-95 0 -160 67t-65 179t65 179t160 67q108 0 156 -83h2v68h98v-462h-98v68h-2q-48 -83 -156 -83zM276 81q64 0 103 41.5t39 108.5t-39 108.5t-103 41.5t-103 -41.5t-39 -108.5t39 -108.5t103 -41.5z" />
    <glyph glyph-name="b" unicode="b" horiz-adv-x="576" 
d="M321 -15q-108 0 -156 83h-2v-68h-98v700h98v-306h2q48 83 156 83q95 0 160 -67t65 -179t-65 -179t-160 -67zM300 81q64 0 103 41.5t39 108.5t-39 108.5t-103 41.5t-103 -41.5t-39 -108.5t39 -108.5t103 -41.5z" />
    <glyph glyph-name="c" unicode="c" horiz-adv-x="462" 
d="M284 -15q-112 0 -183 68t-71 178t71 178t183 68q87 0 158 -47l-46 -83q-56 35 -115 35q-66 0 -106.5 -42.5t-40.5 -108.5t40.5 -108.5t106.5 -42.5q59 0 115 35l46 -83q-71 -47 -158 -47z" />
    <glyph glyph-name="d" unicode="d" horiz-adv-x="576" 
d="M255 -15q-95 0 -160 67t-65 179t65 179t160 67q108 0 156 -83h2v306h98v-700h-98v68h-2q-48 -83 -156 -83zM276 81q64 0 103 41.5t39 108.5t-39 108.5t-103 41.5t-103 -41.5t-39 -108.5t39 -108.5t103 -41.5z" />
    <glyph glyph-name="e" unicode="e" horiz-adv-x="517" 
d="M266 477q104 0 162.5 -66.5t58.5 -179.5v-16h-358q3 -61 41.5 -98.5t98.5 -37.5q82 0 142 81l69 -65q-80 -110 -209 -110q-110 0 -175.5 67.5t-65.5 177.5q0 108 63.5 177.5t172.5 69.5zM260 387q-51 0 -84 -26t-42 -75h247q-3 48 -35.5 74.5t-85.5 26.5z" />
    <glyph glyph-name="f" unicode="f" horiz-adv-x="300" 
d="M275 619q-84 0 -84 -90v-67h91v-83h-91v-379h-98v379h-73v83h73v64q0 86 46.5 135t131.5 49h19v-91h-15z" />
    <glyph glyph-name="g" unicode="g" horiz-adv-x="571" 
d="M293 -215q-69 0 -178 21l19 95q94 -21 159 -21q67 0 93.5 28.5t26.5 104.5v55h-2q-48 -83 -156 -83q-95 0 -160 67t-65 179t65 179t160 67q108 0 156 -83h2v68h98v-462q-2 -66 -19 -110t-48 -66t-66.5 -30.5t-84.5 -8.5zM276 81q64 0 103 41.5t39 108.5t-39 108.5
t-103 41.5t-103 -41.5t-39 -108.5t39 -108.5t103 -41.5z" />
    <glyph glyph-name="h" unicode="h" horiz-adv-x="545" 
d="M163 700v-308h2q48 85 151 85q79 0 126.5 -46.5t47.5 -146.5v-284h-98v267q0 112 -106 112q-123 0 -123 -158v-221h-98v700h98z" />
    <glyph glyph-name="i" unicode="i" horiz-adv-x="228" 
d="M174 690v-120h-120v120h120zM65 0v462h98v-462h-98z" />
    <glyph glyph-name="j" unicode="j" horiz-adv-x="228" 
d="M174 690v-120h-120v120h120zM-6 -114h18q28 0 40.5 13t12.5 43v520h98v-530q0 -65 -35.5 -100t-100.5 -35h-33v89z" />
    <glyph glyph-name="k" unicode="k" horiz-adv-x="483" 
d="M478 0h-129l-186 227v-227h-98v700h98v-435l165 197h129l-194 -210z" />
    <glyph glyph-name="l" unicode="l" horiz-adv-x="228" 
d="M163 700v-700h-98v700h98z" />
    <glyph glyph-name="m" unicode="m" horiz-adv-x="799" 
d="M60 0v462h98v-72h2q38 87 139 87t140 -94h2q20 47 59 70.5t86 23.5q70 0 114 -47t44 -144v-286h-98v281q0 98 -91 98q-48 0 -76 -33.5t-28 -105.5v-240h-98v281q0 98 -92 98q-47 0 -75 -34t-28 -106v-239h-98z" />
    <glyph glyph-name="n" unicode="n" horiz-adv-x="540" 
d="M311 477q80 0 127 -46.5t47 -146.5v-284h-98v267q0 112 -106 112q-123 0 -123 -158v-221h-98v462h98v-70h2q48 85 151 85z" />
    <glyph glyph-name="o" unicode="o" horiz-adv-x="566" 
d="M283 477q109 0 181 -70t72 -176t-72 -176t-181 -70t-181 70t-72 176t72 176t181 70zM283 381q-66 0 -107.5 -41t-41.5 -109t41.5 -109t107.5 -41t107.5 41t41.5 109t-41.5 109t-107.5 41z" />
    <glyph glyph-name="p" unicode="p" horiz-adv-x="571" 
d="M60 -200v662h98v-68h2q48 83 156 83q95 0 160 -67t65 -179t-65 -179t-160 -67q-108 0 -156 83h-2v-268h-98zM295 81q64 0 103 41.5t39 108.5t-39 108.5t-103 41.5t-103 -41.5t-39 -108.5t39 -108.5t103 -41.5z" />
    <glyph glyph-name="q" unicode="q" horiz-adv-x="571" 
d="M413 -200v268h-2q-48 -83 -156 -83q-95 0 -160 67t-65 179t65 179t160 67q108 0 156 -83h2v68h98v-662h-98zM276 81q64 0 103 41.5t39 108.5t-39 108.5t-103 41.5t-103 -41.5t-39 -108.5t39 -108.5t103 -41.5z" />
    <glyph glyph-name="r" unicode="r" horiz-adv-x="330" 
d="M320 476v-115h-15q-73 0 -110 -37.5t-37 -118.5v-205h-98v462h98v-101h2q17 53 56.5 84t96.5 31h7z" />
    <glyph glyph-name="s" unicode="s" horiz-adv-x="403" 
d="M203 -15q-104 0 -188 49l44 87q76 -44 147 -44q72 0 72 43q0 28 -49 52l-84 41q-97 46 -97 133q0 63 43.5 97t120.5 34q80 0 160 -36l-40 -85q-70 30 -123 30q-57 0 -57 -35q0 -17 11.5 -29t41.5 -26l86 -41q92 -43 92 -130q0 -69 -48.5 -104.5t-131.5 -35.5z" />
    <glyph glyph-name="t" unicode="t" horiz-adv-x="309" 
d="M289 379h-94v-242q0 -48 48 -48h24v-90h-45q-61 0 -93 31t-32 88v261h-82v83h82v185h98v-185h94v-83z" />
    <glyph glyph-name="u" unicode="u" horiz-adv-x="526" 
d="M224 -15q-74 0 -121.5 48.5t-47.5 148.5v280h100v-270q0 -56 25.5 -84t71.5 -28q116 0 116 161v221h98v-462h-98v70h-2q-42 -85 -142 -85z" />
    <glyph glyph-name="v" unicode="v" horiz-adv-x="473" 
d="M353 462h115l-186 -462h-92l-185 462h115l116 -345z" />
    <glyph glyph-name="w" unicode="w" horiz-adv-x="721" 
d="M608 462h108l-155 -462h-90l-110 331l-111 -331h-90l-155 462h108l93 -333l107 333h95l107 -333z" />
    <glyph glyph-name="x" unicode="x" horiz-adv-x="494" 
d="M364 0l-117 166l-117 -166h-125l183 243l-157 219h126l90 -144l90 144h126l-157 -219l183 -243h-125z" />
    <glyph glyph-name="y" unicode="y" horiz-adv-x="485" 
d="M372 462h108l-288 -662h-104l111 242l-194 420h117l127 -303z" />
    <glyph glyph-name="z" unicode="z" horiz-adv-x="436" 
d="M143 91h268v-91h-386v86l251 285h-241v91h358v-86z" />
    <glyph glyph-name="braceleft" unicode="{" horiz-adv-x="401" 
d="M391 745v-86h-30q-44 0 -72 -25.5t-28 -98.5v-98q0 -69 -25 -108t-82 -53v-2q57 -14 82 -53t25 -108v-118q0 -74 28 -99t72 -25h30v-86h-39q-80 0 -134.5 47.5t-54.5 156.5v137q0 43 -34.5 69.5t-93.5 29.5v100q59 3 93.5 29.5t34.5 69.5v117q0 109 54.5 156.5
t134.5 47.5h39z" />
    <glyph glyph-name="bar" unicode="|" horiz-adv-x="308" 
d="M198 727v-942h-88v942h88z" />
    <glyph glyph-name="braceright" unicode="}" horiz-adv-x="401" 
d="M10 -215v86h30q44 0 72 25t28 99v118q0 69 25 108t82 53v2q-57 14 -82 53t-25 108v98q0 73 -28 98.5t-72 25.5h-30v86h39q80 0 134.5 -47.5t54.5 -156.5v-117q0 -43 34.5 -69.5t93.5 -29.5v-100q-59 -3 -93.5 -29.5t-34.5 -69.5v-137q0 -109 -54.5 -156.5t-134.5 -47.5
h-39z" />
    <glyph glyph-name="asciitilde" unicode="~" 
d="M196 378q49 0 113 -30.5t100 -30.5q34 0 60 14.5t59 42.5l44 -70q-85 -73 -167 -73q-47 0 -110.5 30t-102.5 30q-24 0 -47.5 -9t-38 -19.5t-35.5 -28.5l-43 70q86 74 168 74z" />
    <glyph glyph-name="exclamdown" unicode="&#xa1;" horiz-adv-x="319" 
d="M100 381v119h119v-119h-119zM102 -200l24 488h67l24 -488h-115z" />
    <glyph glyph-name="cent" unicode="&#xa2;" horiz-adv-x="462" 
d="M292 77q55 0 140 44v-98q-65 -38 -137 -38h-3v-49h-28v51q-98 10 -158.5 78t-60.5 166t61.5 166.5t157.5 78.5v55h28v-54q75 0 135 -32v-97q-75 37 -132 37h-3v-308zM147 232q0 -62 32.5 -103t84.5 -50v303q-53 -9 -85 -49t-32 -101z" />
    <glyph glyph-name="sterling" unicode="&#xa3;" horiz-adv-x="522" 
d="M179 98v-2h301v-96h-424v75q49 29 82.5 72t33.5 90q0 38 -39 108h-93v30h77q-31 62 -31 120q0 85 55.5 140t150.5 55q88 0 144 -49t56 -143h-100q-2 50 -28.5 75t-71.5 25q-49 0 -76.5 -29t-27.5 -75q0 -43 39 -119h180v-30h-165q31 -62 31 -103q0 -83 -94 -144z" />
    <glyph glyph-name="currency" unicode="&#xa4;" 
d="M538 324q0 -96 -60 -159l55 -55l-20 -19l-55 55q-65 -54 -158 -54q-92 0 -159 54l-55 -55l-19 20l54 54q-59 65 -59 159t59 159l-54 54l20 20l55 -55q65 54 158 54t158 -54l55 55l20 -20l-54 -54q59 -65 59 -159zM300 184q63 0 101.5 38.5t38.5 101.5t-38.5 101.5
t-101.5 38.5t-101.5 -38.5t-38.5 -101.5t38.5 -101.5t101.5 -38.5z" />
    <glyph glyph-name="yen" unicode="&#xa5;" horiz-adv-x="570" 
d="M545 675l-157 -323h115v-30h-129l-27 -56h156v-30h-170v-236h-98v236h-169v30h157l-27 56h-130v30h116l-157 323h115l145 -337l145 337h115z" />
    <glyph glyph-name="brokenbar" unicode="&#xa6;" horiz-adv-x="308" 
d="M198 727v-388h-88v388h88zM198 181v-396h-88v396h88z" />
    <glyph glyph-name="section" unicode="&#xa7;" horiz-adv-x="548" 
d="M405 107q49 -44 49 -111q0 -70 -49 -112t-140 -42q-98 0 -191 57l54 83q71 -47 144 -47q41 0 62.5 16t21.5 43q0 32 -31.5 55.5t-76.5 41t-90 39.5t-76.5 63t-31.5 98q0 102 93 159q-49 44 -49 111q0 70 49 112t140 42q98 0 191 -57l-54 -83q-71 47 -144 47
q-41 0 -62.5 -16t-21.5 -43q0 -32 31.5 -55.5t76.5 -41t90 -39.5t76.5 -63t31.5 -98q0 -102 -93 -159zM148 301q0 -19 8.5 -36t20 -28.5t32 -23.5t37.5 -19.5t43.5 -19.5t42.5 -20q68 42 68 102q0 19 -8.5 36t-20 28.5t-32 23.5t-37.5 19.5t-43.5 19.5t-42.5 20
q-68 -42 -68 -102z" />
    <glyph glyph-name="dieresis" unicode="&#xa8;" horiz-adv-x="388" 
d="M150 690v-120h-100v120h100zM338 690v-120h-100v120h100z" />
    <glyph glyph-name="copyright" unicode="&#xa9;" horiz-adv-x="828" 
d="M414 -15q-152 0 -258 104t-106 261t106 261t258 104t258 -104t106 -261t-106 -261t-258 -104zM414 44q127 0 214 86t87 220t-87 220t-214 86t-214 -86t-87 -220t87 -220t214 -86zM418 128q-100 0 -165.5 64.5t-65.5 162.5t65.5 162.5t165.5 64.5q83 0 151 -49l-37 -68
q-63 38 -117 38q-64 0 -104 -41t-40 -107t40 -107t104 -41q54 0 117 38l37 -68q-68 -49 -151 -49z" />
    <glyph glyph-name="ordfeminine" unicode="&#xaa;" horiz-adv-x="452" 
d="M203 338q-64 0 -108.5 44t-44.5 119t44.5 119t108.5 44q78 0 112 -62h2v52h85v-306h-85v52h-2q-34 -62 -112 -62zM227 414q38 0 63 23t25 64t-25 64t-63 23t-62.5 -23t-24.5 -64t24.5 -64t62.5 -23z" />
    <glyph glyph-name="guillemotleft" unicode="&#xab;" horiz-adv-x="468" 
d="M277 393l-147 -159l147 -159h-110l-147 159l147 159h110zM458 393l-147 -159l147 -159h-110l-147 159l147 159h110z" />
    <glyph glyph-name="logicalnot" unicode="&#xac;" 
d="M71 432h458v-265h-50v217h-408v48z" />
    <glyph glyph-name="uni00AD" unicode="&#xad;" horiz-adv-x="351" 
d="M306 313v-96h-261v96h261z" />
    <glyph glyph-name="registered" unicode="&#xae;" horiz-adv-x="560" 
d="M280 715q102 0 166 -64.5t64 -167.5t-64 -167.5t-166 -64.5t-166 64.5t-64 167.5t64 167.5t166 64.5zM280 286q84 0 138.5 54t54.5 143t-54.5 143t-138.5 54t-138.5 -54t-54.5 -143t54.5 -143t138.5 -54zM376 547q0 -29 -16.5 -49.5t-43.5 -26.5l72 -110h-44l-67 108h-38
v-108h-35v260h93q34 0 56.5 -20.5t22.5 -53.5zM239 589v-88h51q24 0 36.5 12.5t12.5 30.5q0 20 -13 32.5t-36 12.5h-51z" />
    <glyph glyph-name="macron" unicode="&#xaf;" horiz-adv-x="390" 
d="M340 662v-72h-290v72h290z" />
    <glyph glyph-name="degree" unicode="&#xb0;" horiz-adv-x="352" 
d="M176 690q59 0 97.5 -38t38.5 -98t-38.5 -98t-97.5 -38t-97.5 38t-38.5 98t38.5 98t97.5 38zM176 643q-38 0 -63 -25t-25 -64t25 -64t63 -25q37 0 62 25t25 64t-25 64t-62 25z" />
    <glyph glyph-name="plusminus" unicode="&#xb1;" 
d="M325 522v-137h214v-48h-214v-137h-50v137h-214v48h214v137h50zM539 156v-48h-478v48h478z" />
    <glyph glyph-name="uni00B2" unicode="&#xb2;" horiz-adv-x="391" 
d="M39 348v80l166 148q34 30 47 49.5t13 42.5q0 25 -18 39.5t-49 14.5q-32 0 -53 -17.5t-22 -55.5h-88q0 76 43.5 115.5t121.5 39.5q75 0 115 -35.5t40 -97.5q0 -74 -78 -143l-112 -95h196v-85h-322z" />
    <glyph glyph-name="uni00B3" unicode="&#xb3;" horiz-adv-x="407" 
d="M199 338q-163 0 -164 141h88q3 -59 80 -59q81 0 81 64q0 34 -27 46.5t-87 13.5v73q100 1 100 52t-67 51q-71 0 -74 -60h-88q0 67 43 105t123 38q73 0 113.5 -31.5t40.5 -84.5q0 -38 -22 -64.5t-64 -33.5v-2q97 -14 97 -110q0 -63 -42.5 -101t-130.5 -38z" />
    <glyph glyph-name="acute" unicode="&#xb4;" horiz-adv-x="321" 
d="M271 707l-144 -154h-77l95 154h126z" />
    <glyph glyph-name="uni00B5" unicode="&#xb5;" 
d="M407 462h98v-462h-98v70h-2q-43 -85 -142 -85q-45 0 -81 18v-203h-88v662h100v-270q0 -56 25.5 -84t71.5 -28q116 0 116 161v221z" />
    <glyph glyph-name="paragraph" unicode="&#xb6;" horiz-adv-x="616" 
d="M566 700v-74h-60v-732h-79v732h-104v-732h-79v416q-89 0 -141.5 54.5t-52.5 144.5q0 87 55.5 139t148.5 52h312z" />
    <glyph glyph-name="periodcentered" unicode="&#xb7;" horiz-adv-x="229" 
d="M174 462v-119h-119v119h119z" />
    <glyph glyph-name="cedilla" unicode="&#xb8;" horiz-adv-x="243" 
d="M146 28l-22 -64q69 -20 69 -71q0 -12 -4 -23t-15 -21t-18.5 -16t-28.5 -16t-29.5 -14t-34.5 -15l-13 28q23 11 33.5 16.5t24 14t19 15.5t5.5 14q0 17 -14.5 25t-49.5 16l40 111h38z" />
    <glyph glyph-name="uni00B9" unicode="&#xb9;" horiz-adv-x="246" 
d="M80 348v358h-25v88h121v-446h-96z" />
    <glyph glyph-name="ordmasculine" unicode="&#xba;" horiz-adv-x="448" 
d="M224 664q75 0 124.5 -44.5t49.5 -118.5t-49.5 -118.5t-124.5 -44.5t-124.5 44.5t-49.5 118.5t49.5 118.5t124.5 44.5zM224 587q-36 0 -61 -23t-25 -63t25 -63t61 -23t61 23t25 63t-25 63t-61 23z" />
    <glyph glyph-name="guillemotright" unicode="&#xbb;" horiz-adv-x="468" 
d="M10 393h110l147 -159l-147 -159h-110l147 159zM191 393h110l147 -159l-147 -159h-110l147 159z" />
    <glyph glyph-name="onequarter" unicode="&#xbc;" horiz-adv-x="655" 
d="M78 289v329h-38v57h95v-386h-57zM450 675h57l-395 -675h-57zM630 129v-56h-51v-73h-59v73h-203v53l184 260h78v-257h51zM382 129h138v194h-2z" />
    <glyph glyph-name="onehalf" unicode="&#xbd;" horiz-adv-x="679" 
d="M135 675v-386h-57v329h-38v57h95zM55 0l395 675h57l-395 -675h-57zM507 395q62 0 94.5 -31.5t32.5 -84.5q0 -60 -68 -122l-109 -101h177v-56h-261l-1 51l147 139q54 50 54 88q0 26 -17 42.5t-48 16.5q-69 0 -77 -68h-58q3 62 38.5 94t95.5 32z" />
    <glyph glyph-name="threequarters" unicode="&#xbe;" horiz-adv-x="801" 
d="M321 396q0 -53 -35 -84.5t-109 -31.5q-64 0 -101.5 30.5t-40.5 86.5h61q10 -59 81 -59q84 0 84 64q0 63 -111 63v54q97 2 97 56q0 51 -66 51q-73 0 -77 -62h-59q8 120 137 120q61 0 93.5 -27t32.5 -73q0 -70 -72 -87v-1q85 -14 85 -100zM596 675h57l-395 -675h-57z
M776 129v-56h-51v-73h-59v73h-203v53l184 260h78v-257h51zM528 129h138v194h-2z" />
    <glyph glyph-name="questiondown" unicode="&#xbf;" horiz-adv-x="420" 
d="M174 381v119h119v-119h-119zM219 -215q-92 0 -145.5 52t-53.5 136q0 86 76 156q6 5 21.5 18.5t22 19.5t17.5 19t16 23.5t9 26t4 32.5v20h95v-29q0 -28 -6 -51t-20 -44t-23.5 -32t-32 -32t-28.5 -28q-51 -53 -51 -100q0 -41 25 -66.5t74 -25.5q50 0 81 31.5t31 82.5h99
q0 -98 -57.5 -153.5t-153.5 -55.5z" />
    <glyph glyph-name="Agrave" unicode="&#xc0;" horiz-adv-x="678" 
d="M380 743h-74l-147 120h126zM559 0l-67 174h-306l-67 -174h-114l286 700h96l286 -700h-114zM223 270h232l-116 300z" />
    <glyph glyph-name="Aacute" unicode="&#xc1;" horiz-adv-x="678" 
d="M519 863l-147 -120h-74l95 120h126zM559 0l-67 174h-306l-67 -174h-114l286 700h96l286 -700h-114zM223 270h232l-116 300z" />
    <glyph glyph-name="Acircumflex" unicode="&#xc2;" horiz-adv-x="678" 
d="M339 818l-75 -75h-93l120 120h97l120 -120h-93zM559 0l-67 174h-306l-67 -174h-114l286 700h96l286 -700h-114zM223 270h232l-116 300z" />
    <glyph glyph-name="Atilde" unicode="&#xc3;" horiz-adv-x="678" 
d="M260 789q-36 0 -55 -45l-37 11q11 46 36.5 77t66.5 31q29 0 87 -23t77 -23q36 0 55 45l37 -11q-11 -46 -36 -77t-66 -31q-29 0 -87 23t-78 23zM559 0l-67 174h-306l-67 -174h-114l286 700h96l286 -700h-114zM223 270h232l-116 300z" />
    <glyph glyph-name="Adieresis" unicode="&#xc4;" horiz-adv-x="678" 
d="M287 847v-104h-106v104h106zM497 847v-104h-106v104h106zM559 0l-67 174h-306l-67 -174h-114l286 700h96l286 -700h-114zM223 270h232l-116 300z" />
    <glyph glyph-name="Aring" unicode="&#xc5;" horiz-adv-x="678" 
d="M559 0l-67 174h-306l-67 -174h-114l273 668q-56 33 -56 101q0 51 33 84t84 33t84 -33t33 -84q0 -68 -56 -101l273 -668h-114zM338 839q-30 0 -48.5 -19.5t-18.5 -50.5q0 -30 18.5 -49.5t48.5 -19.5t49 19.5t19 49.5q0 31 -18.5 50.5t-49.5 19.5zM223 270h232l-116 300z
" />
    <glyph glyph-name="AE" unicode="&#xc6;" horiz-adv-x="933" 
d="M613 98h275v-98h-377v174h-265l-110 -174h-131l455 700h423v-98h-270v-166h246v-98h-246v-240zM307 270h204v322z" />
    <glyph glyph-name="Ccedilla" unicode="&#xc7;" horiz-adv-x="682" 
d="M657 62q-102 -74 -238 -77l-7 -21q69 -20 69 -71q0 -12 -4 -23t-15 -21t-18.5 -16t-28.5 -16t-29.5 -14t-34.5 -15l-13 28q23 11 33.5 16.5t24 14t19 15.5t5.5 14q0 17 -14.5 25t-49.5 16l25 69q-155 9 -250.5 109t-95.5 255q0 163 104 264t271 101q140 0 247 -77
l-64 -91q-85 62 -187 62q-112 0 -184.5 -71t-72.5 -188t72.5 -188t184.5 -71q102 0 187 62z" />
    <glyph glyph-name="Egrave" unicode="&#xc8;" horiz-adv-x="520" 
d="M331 743h-74l-147 120h126zM174 98h301v-98h-405v700h400v-98h-296v-166h273v-98h-273v-240z" />
    <glyph glyph-name="Eacute" unicode="&#xc9;" horiz-adv-x="520" 
d="M470 863l-147 -120h-74l95 120h126zM174 98h301v-98h-405v700h400v-98h-296v-166h273v-98h-273v-240z" />
    <glyph glyph-name="Ecircumflex" unicode="&#xca;" horiz-adv-x="520" 
d="M290 818l-75 -75h-93l120 120h97l120 -120h-93zM174 98h301v-98h-405v700h400v-98h-296v-166h273v-98h-273v-240z" />
    <glyph glyph-name="Edieresis" unicode="&#xcb;" horiz-adv-x="520" 
d="M238 847v-104h-106v104h106zM448 847v-104h-106v104h106zM174 98h301v-98h-405v700h400v-98h-296v-166h273v-98h-273v-240z" />
    <glyph glyph-name="Igrave" unicode="&#xcc;" horiz-adv-x="246" 
d="M69 863l95 -120h-74l-147 120h126zM176 700v-700h-106v700h106z" />
    <glyph glyph-name="Iacute" unicode="&#xcd;" horiz-adv-x="246" 
d="M303 863l-147 -120h-74l95 120h126zM176 700v-700h-106v700h106z" />
    <glyph glyph-name="Icircumflex" unicode="&#xce;" horiz-adv-x="246" 
d="M172 863l120 -120h-93l-76 75l-75 -75h-93l120 120h97zM176 700v-700h-106v700h106z" />
    <glyph glyph-name="Idieresis" unicode="&#xcf;" horiz-adv-x="246" 
d="M71 847v-104h-106v104h106zM281 847v-104h-106v104h106zM176 700v-700h-106v700h106z" />
    <glyph glyph-name="Eth" unicode="&#xd0;" horiz-adv-x="693" 
d="M306 700q154 0 253 -95t99 -255t-99 -255t-253 -95h-226v313h-80v84h80v303h226zM305 98q106 0 172.5 66t66.5 186t-66.5 186t-172.5 66h-121v-205h162v-84h-162v-215h121z" />
    <glyph glyph-name="Ntilde" unicode="&#xd1;" horiz-adv-x="699" 
d="M435 743q-29 0 -87 23t-78 23q-36 0 -55 -45l-37 11q11 46 36.5 77t66.5 31q29 0 87 -23t77 -23q36 0 55 45l37 -11q-11 -46 -36 -77t-66 -31zM629 700v-700h-109l-344 523h-2v-523h-104v700h109l344 -523h2v523h104z" />
    <glyph glyph-name="Ograve" unicode="&#xd2;" horiz-adv-x="800" 
d="M347 863l95 -120h-74l-147 120h126zM400 715q157 0 261 -102.5t104 -262.5t-104 -262.5t-261 -102.5t-261 102.5t-104 262.5t104 262.5t261 102.5zM400 609q-111 0 -181 -73t-70 -186t70 -186t181 -73t181 73t70 186t-70 186t-181 73z" />
    <glyph glyph-name="Oacute" unicode="&#xd3;" horiz-adv-x="800" 
d="M581 863l-147 -120h-74l95 120h126zM400 715q157 0 261 -102.5t104 -262.5t-104 -262.5t-261 -102.5t-261 102.5t-104 262.5t104 262.5t261 102.5zM400 609q-111 0 -181 -73t-70 -186t70 -186t181 -73t181 73t70 186t-70 186t-181 73z" />
    <glyph glyph-name="Ocircumflex" unicode="&#xd4;" horiz-adv-x="800" 
d="M450 863l120 -120h-93l-76 75l-75 -75h-93l120 120h97zM400 715q157 0 261 -102.5t104 -262.5t-104 -262.5t-261 -102.5t-261 102.5t-104 262.5t104 262.5t261 102.5zM400 609q-111 0 -181 -73t-70 -186t70 -186t181 -73t181 73t70 186t-70 186t-181 73z" />
    <glyph glyph-name="Otilde" unicode="&#xd5;" horiz-adv-x="800" 
d="M487 743q-29 0 -87 23t-78 23q-36 0 -55 -45l-37 11q11 46 36.5 77t66.5 31q29 0 86.5 -23t77.5 -23q36 0 55 45l37 -11q-11 -46 -36 -77t-66 -31zM400 715q157 0 261 -102.5t104 -262.5t-104 -262.5t-261 -102.5t-261 102.5t-104 262.5t104 262.5t261 102.5zM400 609
q-111 0 -181 -73t-70 -186t70 -186t181 -73t181 73t70 186t-70 186t-181 73z" />
    <glyph glyph-name="Odieresis" unicode="&#xd6;" horiz-adv-x="800" 
d="M349 847v-104h-106v104h106zM559 847v-104h-106v104h106zM400 715q157 0 261 -102.5t104 -262.5t-104 -262.5t-261 -102.5t-261 102.5t-104 262.5t104 262.5t261 102.5zM400 609q-111 0 -181 -73t-70 -186t70 -186t181 -73t181 73t70 186t-70 186t-181 73z" />
    <glyph glyph-name="multiply" unicode="&#xd7;" 
d="M481 514l35 -35l-181 -181l181 -181l-35 -35l-181 181l-181 -181l-35 35l181 181l-181 181l35 35l181 -181z" />
    <glyph glyph-name="Oslash" unicode="&#xd8;" horiz-adv-x="800" 
d="M634 637q62 -50 96.5 -124t34.5 -163q0 -160 -104 -262.5t-261 -102.5q-111 0 -201 55l-39 -54l-34 21l41 56q-63 49 -97.5 123t-34.5 164q0 160 104 262.5t261 102.5q113 0 202 -56l40 55l33 -21zM149 350q0 -125 83 -198l306 419q-62 38 -138 38q-111 0 -181 -73
t-70 -186zM400 91q111 0 181 73t70 186q0 124 -82 197l-305 -419q59 -37 136 -37z" />
    <glyph glyph-name="Ugrave" unicode="&#xd9;" horiz-adv-x="682" 
d="M287 863l95 -120h-74l-147 120h126zM622 700v-430q0 -130 -76.5 -207.5t-204.5 -77.5t-204.5 77.5t-76.5 207.5v430h109v-427q0 -83 48.5 -131.5t123.5 -48.5t123.5 48.5t48.5 131.5v427h109z" />
    <glyph glyph-name="Uacute" unicode="&#xda;" horiz-adv-x="682" 
d="M521 863l-147 -120h-74l95 120h126zM622 700v-430q0 -130 -76.5 -207.5t-204.5 -77.5t-204.5 77.5t-76.5 207.5v430h109v-427q0 -83 48.5 -131.5t123.5 -48.5t123.5 48.5t48.5 131.5v427h109z" />
    <glyph glyph-name="Ucircumflex" unicode="&#xdb;" horiz-adv-x="682" 
d="M390 863l120 -120h-93l-76 75l-75 -75h-93l120 120h97zM622 700v-430q0 -130 -76.5 -207.5t-204.5 -77.5t-204.5 77.5t-76.5 207.5v430h109v-427q0 -83 48.5 -131.5t123.5 -48.5t123.5 48.5t48.5 131.5v427h109z" />
    <glyph glyph-name="Udieresis" unicode="&#xdc;" horiz-adv-x="682" 
d="M289 847v-104h-106v104h106zM499 847v-104h-106v104h106zM622 700v-430q0 -130 -76.5 -207.5t-204.5 -77.5t-204.5 77.5t-76.5 207.5v430h109v-427q0 -83 48.5 -131.5t123.5 -48.5t123.5 48.5t48.5 131.5v427h109z" />
    <glyph glyph-name="Yacute" unicode="&#xdd;" horiz-adv-x="543" 
d="M452 863l-147 -120h-74l95 120h126zM543 700l-219 -419v-281h-105v280l-219 420h121l149 -309h3l149 309h121z" />
    <glyph glyph-name="Thorn" unicode="&#xde;" horiz-adv-x="556" 
d="M170 700v-133h124q106 0 166.5 -59t60.5 -152t-60.5 -152.5t-166.5 -59.5h-124v-144h-100v700h100zM294 471h-124v-231h124q58 0 92.5 30t34.5 86t-34.5 85.5t-92.5 29.5z" />
    <glyph glyph-name="germandbls" unicode="&#xdf;" horiz-adv-x="559" 
d="M336 396q92 -5 142.5 -53.5t50.5 -136.5q0 -102 -68.5 -156.5t-190.5 -54.5h-48v92h39q83 0 124.5 29t41.5 95q0 74 -50.5 103.5t-151.5 29.5v86q72 0 107 23t35 74q0 46 -26 70t-70 24q-48 0 -78 -28t-30 -82v-641h-98v635q0 93 54.5 151.5t154.5 58.5q92 0 142 -49
t50 -122q0 -119 -130 -146v-2z" />
    <glyph glyph-name="agrave" unicode="&#xe0;" horiz-adv-x="571" 
d="M225 707l94 -154h-76l-145 154h127zM255 -15q-95 0 -160 67t-65 179t65 179t160 67q108 0 156 -83h2v68h98v-462h-98v68h-2q-48 -83 -156 -83zM276 81q64 0 103 41.5t39 108.5t-39 108.5t-103 41.5t-103 -41.5t-39 -108.5t39 -108.5t103 -41.5z" />
    <glyph glyph-name="aacute" unicode="&#xe1;" horiz-adv-x="571" 
d="M464 707l-144 -154h-77l95 154h126zM255 -15q-95 0 -160 67t-65 179t65 179t160 67q108 0 156 -83h2v68h98v-462h-98v68h-2q-48 -83 -156 -83zM276 81q64 0 103 41.5t39 108.5t-39 108.5t-103 41.5t-103 -41.5t-39 -108.5t39 -108.5t103 -41.5z" />
    <glyph glyph-name="acircumflex" unicode="&#xe2;" horiz-adv-x="571" 
d="M330 707l124 -154h-94l-79 95l-79 -95h-94l124 154h98zM255 -15q-95 0 -160 67t-65 179t65 179t160 67q108 0 156 -83h2v68h98v-462h-98v68h-2q-48 -83 -156 -83zM276 81q64 0 103 41.5t39 108.5t-39 108.5t-103 41.5t-103 -41.5t-39 -108.5t39 -108.5t103 -41.5z" />
    <glyph glyph-name="atilde" unicode="&#xe3;" horiz-adv-x="571" 
d="M212 704q29 0 82 -25.5t72 -25.5q33 0 53 45l40 -11q-10 -49 -35 -80t-65 -31q-30 0 -82.5 25.5t-71.5 25.5q-33 0 -53 -45l-41 11q10 49 35.5 80t65.5 31zM255 -15q-95 0 -160 67t-65 179t65 179t160 67q108 0 156 -83h2v68h98v-462h-98v68h-2q-48 -83 -156 -83zM276 81
q64 0 103 41.5t39 108.5t-39 108.5t-103 41.5t-103 -41.5t-39 -108.5t39 -108.5t103 -41.5z" />
    <glyph glyph-name="adieresis" unicode="&#xe4;" horiz-adv-x="571" 
d="M237 690v-120h-100v120h100zM425 690v-120h-100v120h100zM255 -15q-95 0 -160 67t-65 179t65 179t160 67q108 0 156 -83h2v68h98v-462h-98v68h-2q-48 -83 -156 -83zM276 81q64 0 103 41.5t39 108.5t-39 108.5t-103 41.5t-103 -41.5t-39 -108.5t39 -108.5t103 -41.5z" />
    <glyph glyph-name="aring" unicode="&#xe5;" horiz-adv-x="571" 
d="M281 747q52 0 85.5 -33t33.5 -84t-33.5 -84t-85.5 -33t-85.5 33t-33.5 84t33.5 84t85.5 33zM281 700q-31 0 -50.5 -20t-19.5 -50t19.5 -50t50.5 -20t50.5 20t19.5 50t-19.5 50t-50.5 20zM255 -15q-95 0 -160 67t-65 179t65 179t160 67q108 0 156 -83h2v68h98v-462h-98v68
h-2q-48 -83 -156 -83zM276 81q64 0 103 41.5t39 108.5t-39 108.5t-103 41.5t-103 -41.5t-39 -108.5t39 -108.5t103 -41.5z" />
    <glyph glyph-name="ae" unicode="&#xe6;" horiz-adv-x="814" 
d="M196 -15q-79 0 -132.5 45t-53.5 118q0 71 51 115.5t132 44.5q95 0 139 -56h2v40q0 97 -107 97q-59 0 -152 -24l-21 87q95 25 180 25q122 0 157 -89h2q23 40 69 64.5t107 24.5q100 0 157.5 -66.5t57.5 -179.5v-16h-354q3 -60 37.5 -98t99.5 -38q37 0 67.5 15t43.5 29
t31 37l67 -63q-75 -112 -205 -112q-67 0 -117.5 30t-73.5 76h-2q-22 -51 -72 -78.5t-110 -27.5zM435 286h242q-2 45 -34 73t-84 28q-48 0 -81 -26t-43 -75zM217 69q50 0 83.5 22.5t33.5 57.5t-33 56t-83 21q-51 0 -77.5 -22t-26.5 -56q0 -35 27 -57t76 -22z" />
    <glyph glyph-name="ccedilla" unicode="&#xe7;" horiz-adv-x="462" 
d="M284 -15h-4l-7 -21q69 -20 69 -71q0 -12 -4 -23t-15 -21t-18.5 -16t-28.5 -16t-29.5 -14t-34.5 -15l-13 28q23 11 33.5 16.5t24 14t19 15.5t5.5 14q0 17 -14.5 25t-49.5 16l25 71q-95 12 -153.5 78t-58.5 165q0 110 71 178t183 68q87 0 158 -47l-46 -83q-56 35 -115 35
q-66 0 -106.5 -42.5t-40.5 -108.5t40.5 -108.5t106.5 -42.5q59 0 115 35l46 -83q-71 -47 -158 -47z" />
    <glyph glyph-name="egrave" unicode="&#xe8;" horiz-adv-x="517" 
d="M214 707l94 -154h-76l-145 154h127zM266 477q104 0 162.5 -66.5t58.5 -179.5v-16h-358q3 -61 41.5 -98.5t98.5 -37.5q82 0 142 81l69 -65q-80 -110 -209 -110q-110 0 -175.5 67.5t-65.5 177.5q0 108 63.5 177.5t172.5 69.5zM260 387q-51 0 -84 -26t-42 -75h247
q-3 48 -35.5 74.5t-85.5 26.5z" />
    <glyph glyph-name="eacute" unicode="&#xe9;" horiz-adv-x="517" 
d="M453 707l-144 -154h-77l95 154h126zM266 477q104 0 162.5 -66.5t58.5 -179.5v-16h-358q3 -61 41.5 -98.5t98.5 -37.5q82 0 142 81l69 -65q-80 -110 -209 -110q-110 0 -175.5 67.5t-65.5 177.5q0 108 63.5 177.5t172.5 69.5zM260 387q-51 0 -84 -26t-42 -75h247
q-3 48 -35.5 74.5t-85.5 26.5z" />
    <glyph glyph-name="ecircumflex" unicode="&#xea;" horiz-adv-x="517" 
d="M319 707l124 -154h-94l-79 95l-79 -95h-94l124 154h98zM266 477q104 0 162.5 -66.5t58.5 -179.5v-16h-358q3 -61 41.5 -98.5t98.5 -37.5q82 0 142 81l69 -65q-80 -110 -209 -110q-110 0 -175.5 67.5t-65.5 177.5q0 108 63.5 177.5t172.5 69.5zM260 387q-51 0 -84 -26
t-42 -75h247q-3 48 -35.5 74.5t-85.5 26.5z" />
    <glyph glyph-name="edieresis" unicode="&#xeb;" horiz-adv-x="517" 
d="M226 690v-120h-100v120h100zM414 690v-120h-100v120h100zM266 477q104 0 162.5 -66.5t58.5 -179.5v-16h-358q3 -61 41.5 -98.5t98.5 -37.5q82 0 142 81l69 -65q-80 -110 -209 -110q-110 0 -175.5 67.5t-65.5 177.5q0 108 63.5 177.5t172.5 69.5zM260 387q-51 0 -84 -26
t-42 -75h247q-3 48 -35.5 74.5t-85.5 26.5z" />
    <glyph glyph-name="igrave" unicode="&#xec;" horiz-adv-x="228" 
d="M98 707l54 -154h-76l-80 154h102zM65 0v462h98v-462h-98z" />
    <glyph glyph-name="iacute" unicode="&#xed;" horiz-adv-x="228" 
d="M76 553l54 154h102l-80 -154h-76zM65 0v462h98v-462h-98z" />
    <glyph glyph-name="icircumflex" unicode="&#xee;" horiz-adv-x="228" 
d="M163 707l90 -154h-90l-49 95l-49 -95h-90l90 154h98zM65 0v462h98v-462h-98z" />
    <glyph glyph-name="idieresis" unicode="&#xef;" horiz-adv-x="228" 
d="M95 690v-120h-95v120h95zM228 690v-120h-95v120h95zM65 0v462h98v-462h-98z" />
    <glyph glyph-name="eth" unicode="&#xf0;" horiz-adv-x="577" 
d="M393 665q144 -116 144 -357q0 -72 -14.5 -129t-39 -93t-58.5 -59t-69.5 -32.5t-75.5 -9.5q-115 0 -182.5 68.5t-67.5 174.5q0 114 68 181.5t173 67.5q117 0 170 -90h2q-17 141 -121 221l-111 -91l-34 38l100 82q-64 33 -145 47l19 80q119 -20 198 -69l81 66l32 -39z
M284 80q66 0 108 41.5t42 110.5t-42 109.5t-109 40.5t-108 -42t-41 -110q0 -69 42 -109.5t108 -40.5z" />
    <glyph glyph-name="ntilde" unicode="&#xf1;" horiz-adv-x="540" 
d="M219 704q29 0 82 -25.5t72 -25.5q33 0 53 45l40 -11q-10 -49 -35 -80t-65 -31q-30 0 -82.5 25.5t-71.5 25.5q-33 0 -53 -45l-41 11q10 49 35.5 80t65.5 31zM311 477q80 0 127 -46.5t47 -146.5v-284h-98v267q0 112 -106 112q-123 0 -123 -158v-221h-98v462h98v-70h2
q48 85 151 85z" />
    <glyph glyph-name="ograve" unicode="&#xf2;" horiz-adv-x="566" 
d="M227 707l94 -154h-76l-145 154h127zM283 477q109 0 181 -70t72 -176t-72 -176t-181 -70t-181 70t-72 176t72 176t181 70zM283 381q-66 0 -107.5 -41t-41.5 -109t41.5 -109t107.5 -41t107.5 41t41.5 109t-41.5 109t-107.5 41z" />
    <glyph glyph-name="oacute" unicode="&#xf3;" horiz-adv-x="566" 
d="M466 707l-144 -154h-77l95 154h126zM283 477q109 0 181 -70t72 -176t-72 -176t-181 -70t-181 70t-72 176t72 176t181 70zM283 381q-66 0 -107.5 -41t-41.5 -109t41.5 -109t107.5 -41t107.5 41t41.5 109t-41.5 109t-107.5 41z" />
    <glyph glyph-name="ocircumflex" unicode="&#xf4;" horiz-adv-x="566" 
d="M332 707l124 -154h-94l-79 95l-79 -95h-94l124 154h98zM283 477q109 0 181 -70t72 -176t-72 -176t-181 -70t-181 70t-72 176t72 176t181 70zM283 381q-66 0 -107.5 -41t-41.5 -109t41.5 -109t107.5 -41t107.5 41t41.5 109t-41.5 109t-107.5 41z" />
    <glyph glyph-name="otilde" unicode="&#xf5;" horiz-adv-x="566" 
d="M214 704q29 0 82 -25.5t72 -25.5q33 0 53 45l40 -11q-10 -49 -35 -80t-65 -31q-30 0 -82.5 25.5t-71.5 25.5q-33 0 -53 -45l-41 11q10 49 35.5 80t65.5 31zM283 477q109 0 181 -70t72 -176t-72 -176t-181 -70t-181 70t-72 176t72 176t181 70zM283 381q-66 0 -107.5 -41
t-41.5 -109t41.5 -109t107.5 -41t107.5 41t41.5 109t-41.5 109t-107.5 41z" />
    <glyph glyph-name="odieresis" unicode="&#xf6;" horiz-adv-x="566" 
d="M239 690v-120h-100v120h100zM427 690v-120h-100v120h100zM283 477q109 0 181 -70t72 -176t-72 -176t-181 -70t-181 70t-72 176t72 176t181 70zM283 381q-66 0 -107.5 -41t-41.5 -109t41.5 -109t107.5 -41t107.5 41t41.5 109t-41.5 109t-107.5 41z" />
    <glyph glyph-name="divide" unicode="&#xf7;" 
d="M340 497v-84h-80v84h80zM559 323v-48h-518v48h518zM340 185v-85h-80v85h80z" />
    <glyph glyph-name="oslash" unicode="&#xf8;" horiz-adv-x="566" 
d="M459 411q77 -69 77 -180q0 -106 -72 -176t-181 -70q-89 0 -157 49l-42 -48l-27 23l43 48q-70 70 -70 174q0 106 72 176t181 70q83 0 148 -43l38 43l27 -24zM134 231q0 -58 32 -98l200 227q-37 21 -83 21q-66 0 -107.5 -41t-41.5 -109zM283 81q66 0 107.5 41t41.5 109
q0 65 -38 106l-202 -229q38 -27 91 -27z" />
    <glyph glyph-name="ugrave" unicode="&#xf9;" horiz-adv-x="526" 
d="M206 707l94 -154h-76l-145 154h127zM224 -15q-74 0 -121.5 48.5t-47.5 148.5v280h100v-270q0 -56 25.5 -84t71.5 -28q116 0 116 161v221h98v-462h-98v70h-2q-42 -85 -142 -85z" />
    <glyph glyph-name="uacute" unicode="&#xfa;" horiz-adv-x="526" 
d="M445 707l-144 -154h-77l95 154h126zM224 -15q-74 0 -121.5 48.5t-47.5 148.5v280h100v-270q0 -56 25.5 -84t71.5 -28q116 0 116 161v221h98v-462h-98v70h-2q-42 -85 -142 -85z" />
    <glyph glyph-name="ucircumflex" unicode="&#xfb;" horiz-adv-x="526" 
d="M311 707l124 -154h-94l-79 95l-79 -95h-94l124 154h98zM224 -15q-74 0 -121.5 48.5t-47.5 148.5v280h100v-270q0 -56 25.5 -84t71.5 -28q116 0 116 161v221h98v-462h-98v70h-2q-42 -85 -142 -85z" />
    <glyph glyph-name="udieresis" unicode="&#xfc;" horiz-adv-x="526" 
d="M218 690v-120h-100v120h100zM406 690v-120h-100v120h100zM224 -15q-74 0 -121.5 48.5t-47.5 148.5v280h100v-270q0 -56 25.5 -84t71.5 -28q116 0 116 161v221h98v-462h-98v70h-2q-42 -85 -142 -85z" />
    <glyph glyph-name="yacute" unicode="&#xfd;" horiz-adv-x="485" 
d="M430 707l-144 -154h-77l95 154h126zM372 462h108l-288 -662h-104l111 242l-194 420h117l127 -303z" />
    <glyph glyph-name="thorn" unicode="&#xfe;" horiz-adv-x="574" 
d="M65 -200v900h98v-306h2q48 83 156 83q94 0 158.5 -67t64.5 -179t-64.5 -179t-158.5 -67q-108 0 -156 83h-2v-268h-98zM300 81q64 0 103 41.5t39 108.5t-39 108.5t-103 41.5t-103 -41.5t-39 -108.5t39 -108.5t103 -41.5z" />
    <glyph glyph-name="ydieresis" unicode="&#xff;" horiz-adv-x="485" 
d="M203 690v-120h-100v120h100zM391 690v-120h-100v120h100zM372 462h108l-288 -662h-104l111 242l-194 420h117l127 -303z" />
    <glyph glyph-name="Amacron" unicode="&#x100;" horiz-adv-x="678" 
d="M483 833v-72h-290v72h290zM559 0l-67 174h-306l-67 -174h-114l286 700h96l286 -700h-114zM223 270h232l-116 300z" />
    <glyph glyph-name="amacron" unicode="&#x101;" horiz-adv-x="571" 
d="M426 662v-72h-290v72h290zM255 -15q-95 0 -160 67t-65 179t65 179t160 67q108 0 156 -83h2v68h98v-462h-98v68h-2q-48 -83 -156 -83zM276 81q64 0 103 41.5t39 108.5t-39 108.5t-103 41.5t-103 -41.5t-39 -108.5t39 -108.5t103 -41.5z" />
    <glyph glyph-name="Abreve" unicode="&#x102;" horiz-adv-x="678" 
d="M339 743q-59 0 -95 32t-41 88h67q5 -57 69 -57t69 57h67q-5 -56 -41 -88t-95 -32zM559 0l-67 174h-306l-67 -174h-114l286 700h96l286 -700h-114zM223 270h232l-116 300z" />
    <glyph glyph-name="abreve" unicode="&#x103;" horiz-adv-x="571" 
d="M417 700q0 -65 -37.5 -102.5t-98.5 -37.5t-98.5 37.5t-37.5 102.5h68q2 -34 20 -53.5t48 -19.5t48 19.5t20 53.5h68zM255 -15q-95 0 -160 67t-65 179t65 179t160 67q108 0 156 -83h2v68h98v-462h-98v68h-2q-48 -83 -156 -83zM276 81q64 0 103 41.5t39 108.5t-39 108.5
t-103 41.5t-103 -41.5t-39 -108.5t39 -108.5t103 -41.5z" />
    <glyph glyph-name="Aogonek" unicode="&#x104;" horiz-adv-x="678" 
d="M569 -121q11 0 39 6l12 -62q-33 -10 -70 -10q-38 0 -61.5 19.5t-23.5 55.5q0 63 89 126l-62 160h-306l-67 -174h-114l286 700h96l286 -700h-73q-60 -63 -60 -98q0 -23 29 -23zM223 270h232l-116 300z" />
    <glyph glyph-name="aogonek" unicode="&#x105;" horiz-adv-x="571" 
d="M511 0h-44q-60 -63 -60 -98q0 -23 29 -23q11 0 39 6l12 -62q-33 -10 -70 -10q-38 0 -61.5 19.5t-23.5 55.5q0 61 81 120v60h-2q-48 -83 -156 -83q-95 0 -160 67t-65 179t65 179t160 67q108 0 156 -83h2v68h98v-462zM276 81q64 0 103 41.5t39 108.5t-39 108.5t-103 41.5
t-103 -41.5t-39 -108.5t39 -108.5t103 -41.5z" />
    <glyph glyph-name="Cacute" unicode="&#x106;" horiz-adv-x="682" 
d="M586 863l-147 -120h-74l95 120h126zM410 -15q-167 0 -271 101t-104 264t104 264t271 101q140 0 247 -77l-64 -91q-85 62 -187 62q-112 0 -184.5 -71t-72.5 -188t72.5 -188t184.5 -71q102 0 187 62l64 -91q-107 -77 -247 -77z" />
    <glyph glyph-name="cacute" unicode="&#x107;" horiz-adv-x="462" 
d="M459 707l-144 -154h-77l95 154h126zM284 -15q-112 0 -183 68t-71 178t71 178t183 68q87 0 158 -47l-46 -83q-56 35 -115 35q-66 0 -106.5 -42.5t-40.5 -108.5t40.5 -108.5t106.5 -42.5q59 0 115 35l46 -83q-71 -47 -158 -47z" />
    <glyph glyph-name="Ccircumflex" unicode="&#x108;" horiz-adv-x="682" 
d="M455 863l120 -120h-93l-76 75l-75 -75h-93l120 120h97zM410 -15q-167 0 -271 101t-104 264t104 264t271 101q140 0 247 -77l-64 -91q-85 62 -187 62q-112 0 -184.5 -71t-72.5 -188t72.5 -188t184.5 -71q102 0 187 62l64 -91q-107 -77 -247 -77z" />
    <glyph glyph-name="ccircumflex" unicode="&#x109;" horiz-adv-x="462" 
d="M325 707l124 -154h-94l-79 95l-79 -95h-94l124 154h98zM284 -15q-112 0 -183 68t-71 178t71 178t183 68q87 0 158 -47l-46 -83q-56 35 -115 35q-66 0 -106.5 -42.5t-40.5 -108.5t40.5 -108.5t106.5 -42.5q59 0 115 35l46 -83q-71 -47 -158 -47z" />
    <glyph glyph-name="Cdotaccent" unicode="&#x10a;" horiz-adv-x="682" 
d="M458 847v-104h-106v104h106zM410 -15q-167 0 -271 101t-104 264t104 264t271 101q140 0 247 -77l-64 -91q-85 62 -187 62q-112 0 -184.5 -71t-72.5 -188t72.5 -188t184.5 -71q102 0 187 62l64 -91q-107 -77 -247 -77z" />
    <glyph glyph-name="cdotaccent" unicode="&#x10b;" horiz-adv-x="462" 
d="M336 690v-120h-120v120h120zM284 -15q-112 0 -183 68t-71 178t71 178t183 68q87 0 158 -47l-46 -83q-56 35 -115 35q-66 0 -106.5 -42.5t-40.5 -108.5t40.5 -108.5t106.5 -42.5q59 0 115 35l46 -83q-71 -47 -158 -47z" />
    <glyph glyph-name="Ccaron" unicode="&#x10c;" horiz-adv-x="682" 
d="M455 743h-97l-120 120h93l75 -75l76 75h93zM410 -15q-167 0 -271 101t-104 264t104 264t271 101q140 0 247 -77l-64 -91q-85 62 -187 62q-112 0 -184.5 -71t-72.5 -188t72.5 -188t184.5 -71q102 0 187 62l64 -91q-107 -77 -247 -77z" />
    <glyph glyph-name="ccaron" unicode="&#x10d;" horiz-adv-x="462" 
d="M449 700l-124 -154h-98l-124 154h94l79 -95l79 95h94zM284 -15q-112 0 -183 68t-71 178t71 178t183 68q87 0 158 -47l-46 -83q-56 35 -115 35q-66 0 -106.5 -42.5t-40.5 -108.5t40.5 -108.5t106.5 -42.5q59 0 115 35l46 -83q-71 -47 -158 -47z" />
    <glyph glyph-name="Dcaron" unicode="&#x10e;" horiz-adv-x="683" 
d="M330 743h-97l-120 120h93l75 -75l76 75h93zM296 700q154 0 253 -95t99 -255t-99 -255t-253 -95h-226v700h226zM295 602h-121v-504h121q106 0 172.5 66t66.5 186t-66.5 186t-172.5 66z" />
    <glyph glyph-name="dcaron" unicode="&#x10f;" horiz-adv-x="672" 
d="M557 715h105v-105l-78 -107h-35l44 107h-36v105zM413 394v306h98v-700h-98v68h-2q-48 -83 -156 -83q-95 0 -160 67t-65 179t65 179t160 67q108 0 156 -83h2zM276 81q64 0 103 41.5t39 108.5t-39 108.5t-103 41.5t-103 -41.5t-39 -108.5t39 -108.5t103 -41.5z" />
    <glyph glyph-name="Dcroat" unicode="&#x110;" horiz-adv-x="693" 
d="M306 700q154 0 253 -95t99 -255t-99 -255t-253 -95h-226v313h-80v84h80v303h226zM305 98q106 0 172.5 66t66.5 186t-66.5 186t-172.5 66h-121v-205h162v-84h-162v-215h121z" />
    <glyph glyph-name="dcroat" unicode="&#x111;" horiz-adv-x="574" 
d="M574 625v-60h-63v-565h-98v68h-2q-48 -83 -156 -83q-95 0 -160 67t-65 179t65 179t160 67q108 0 156 -83h2v171h-130v60h130v75h98v-75h63zM276 81q64 0 103 41.5t39 108.5t-39 108.5t-103 41.5t-103 -41.5t-39 -108.5t39 -108.5t103 -41.5z" />
    <glyph glyph-name="Emacron" unicode="&#x112;" horiz-adv-x="520" 
d="M434 833v-72h-290v72h290zM174 98h301v-98h-405v700h400v-98h-296v-166h273v-98h-273v-240z" />
    <glyph glyph-name="emacron" unicode="&#x113;" horiz-adv-x="517" 
d="M415 662v-72h-290v72h290zM266 477q104 0 162.5 -66.5t58.5 -179.5v-16h-358q3 -61 41.5 -98.5t98.5 -37.5q82 0 142 81l69 -65q-80 -110 -209 -110q-110 0 -175.5 67.5t-65.5 177.5q0 108 63.5 177.5t172.5 69.5zM260 387q-51 0 -84 -26t-42 -75h247q-3 48 -35.5 74.5
t-85.5 26.5z" />
    <glyph glyph-name="Ebreve" unicode="&#x114;" horiz-adv-x="520" 
d="M290 743q-59 0 -95.5 32t-40.5 88h67q5 -57 69 -57t69 57h67q-4 -56 -40.5 -88t-95.5 -32zM174 98h301v-98h-405v700h400v-98h-296v-166h273v-98h-273v-240z" />
    <glyph glyph-name="ebreve" unicode="&#x115;" horiz-adv-x="517" 
d="M406 700q0 -65 -37.5 -102.5t-98.5 -37.5t-98.5 37.5t-37.5 102.5h68q2 -34 20 -53.5t48 -19.5t48 19.5t20 53.5h68zM266 477q104 0 162.5 -66.5t58.5 -179.5v-16h-358q3 -61 41.5 -98.5t98.5 -37.5q82 0 142 81l69 -65q-80 -110 -209 -110q-110 0 -175.5 67.5
t-65.5 177.5q0 108 63.5 177.5t172.5 69.5zM260 387q-51 0 -84 -26t-42 -75h247q-3 48 -35.5 74.5t-85.5 26.5z" />
    <glyph glyph-name="Edotaccent" unicode="&#x116;" horiz-adv-x="520" 
d="M342 847v-104h-106v104h106zM174 98h301v-98h-405v700h400v-98h-296v-166h273v-98h-273v-240z" />
    <glyph glyph-name="edotaccent" unicode="&#x117;" horiz-adv-x="517" 
d="M330 690v-120h-120v120h120zM266 477q104 0 162.5 -66.5t58.5 -179.5v-16h-358q3 -61 41.5 -98.5t98.5 -37.5q82 0 142 81l69 -65q-80 -110 -209 -110q-110 0 -175.5 67.5t-65.5 177.5q0 108 63.5 177.5t172.5 69.5zM260 387q-51 0 -84 -26t-42 -75h247q-3 48 -35.5 74.5
t-85.5 26.5z" />
    <glyph glyph-name="Eogonek" unicode="&#x118;" horiz-adv-x="520" 
d="M475 0h-35q-60 -63 -60 -98q0 -23 29 -23q11 0 39 6l12 -62q-33 -10 -70 -10q-38 0 -61.5 19.5t-23.5 55.5q0 56 70 112h-305v700h400v-98h-296v-166h273v-98h-273v-240h301v-98z" />
    <glyph glyph-name="eogonek" unicode="&#x119;" horiz-adv-x="517" 
d="M487 231v-16h-358q3 -61 41.5 -98.5t98.5 -37.5q82 0 142 81l69 -65q-43 -61 -103 -88q-67 -68 -67 -105q0 -23 29 -23q11 0 39 6l12 -62q-33 -10 -70 -10q-38 0 -61.5 19.5t-23.5 55.5q0 50 53 97h-17q-110 0 -175.5 67.5t-65.5 177.5q0 108 63.5 177.5t172.5 69.5
q104 0 162.5 -66.5t58.5 -179.5zM134 286h247q-3 48 -35.5 74.5t-85.5 26.5q-51 0 -84 -26t-42 -75z" />
    <glyph glyph-name="Ecaron" unicode="&#x11a;" horiz-adv-x="520" 
d="M339 743h-97l-120 120h93l75 -75l76 75h93zM174 98h301v-98h-405v700h400v-98h-296v-166h273v-98h-273v-240z" />
    <glyph glyph-name="ecaron" unicode="&#x11b;" horiz-adv-x="517" 
d="M443 700l-124 -154h-98l-124 154h94l79 -95l79 95h94zM266 477q104 0 162.5 -66.5t58.5 -179.5v-16h-358q3 -61 41.5 -98.5t98.5 -37.5q82 0 142 81l69 -65q-80 -110 -209 -110q-110 0 -175.5 67.5t-65.5 177.5q0 108 63.5 177.5t172.5 69.5zM260 387q-51 0 -84 -26
t-42 -75h247q-3 48 -35.5 74.5t-85.5 26.5z" />
    <glyph glyph-name="Gcircumflex" unicode="&#x11c;" horiz-adv-x="782" 
d="M394 818l-75 -75h-93l120 120h97l120 -120h-93zM425 387h332v-42q0 -69 -22 -132.5t-64 -115t-111 -82t-155 -30.5q-161 0 -265.5 100t-104.5 263q0 162 103 264.5t268 102.5q158 0 269 -94l-71 -87q-82 75 -203 75q-113 0 -182.5 -73.5t-69.5 -186.5t71.5 -185.5
t187.5 -72.5q107 0 168.5 60t68.5 138h-220v98z" />
    <glyph glyph-name="gcircumflex" unicode="&#x11d;" horiz-adv-x="571" 
d="M335 707l124 -154h-94l-79 95l-79 -95h-94l124 154h98zM293 -215q-69 0 -178 21l19 95q94 -21 159 -21q67 0 93.5 28.5t26.5 104.5v55h-2q-48 -83 -156 -83q-95 0 -160 67t-65 179t65 179t160 67q108 0 156 -83h2v68h98v-462q-2 -66 -19 -110t-48 -66t-66.5 -30.5
t-84.5 -8.5zM276 81q64 0 103 41.5t39 108.5t-39 108.5t-103 41.5t-103 -41.5t-39 -108.5t39 -108.5t103 -41.5z" />
    <glyph glyph-name="Gbreve" unicode="&#x11e;" horiz-adv-x="782" 
d="M394 743q-59 0 -95.5 32t-40.5 88h67q5 -57 69 -57t69 57h67q-4 -56 -40.5 -88t-95.5 -32zM425 387h332v-42q0 -69 -22 -132.5t-64 -115t-111 -82t-155 -30.5q-161 0 -265.5 100t-104.5 263q0 162 103 264.5t268 102.5q158 0 269 -94l-71 -87q-82 75 -203 75
q-113 0 -182.5 -73.5t-69.5 -186.5t71.5 -185.5t187.5 -72.5q107 0 168.5 60t68.5 138h-220v98z" />
    <glyph glyph-name="gbreve" unicode="&#x11f;" horiz-adv-x="571" 
d="M422 700q0 -65 -37.5 -102.5t-98.5 -37.5t-98.5 37.5t-37.5 102.5h68q2 -34 20 -53.5t48 -19.5t48 19.5t20 53.5h68zM293 -215q-69 0 -178 21l19 95q94 -21 159 -21q67 0 93.5 28.5t26.5 104.5v55h-2q-48 -83 -156 -83q-95 0 -160 67t-65 179t65 179t160 67
q108 0 156 -83h2v68h98v-462q-2 -66 -19 -110t-48 -66t-66.5 -30.5t-84.5 -8.5zM276 81q64 0 103 41.5t39 108.5t-39 108.5t-103 41.5t-103 -41.5t-39 -108.5t39 -108.5t103 -41.5z" />
    <glyph glyph-name="Gdotaccent" unicode="&#x120;" horiz-adv-x="782" 
d="M446 847v-104h-106v104h106zM425 387h332v-42q0 -69 -22 -132.5t-64 -115t-111 -82t-155 -30.5q-161 0 -265.5 100t-104.5 263q0 162 103 264.5t268 102.5q158 0 269 -94l-71 -87q-82 75 -203 75q-113 0 -182.5 -73.5t-69.5 -186.5t71.5 -185.5t187.5 -72.5
q107 0 168.5 60t68.5 138h-220v98z" />
    <glyph glyph-name="gdotaccent" unicode="&#x121;" horiz-adv-x="571" 
d="M346 690v-120h-120v120h120zM293 -215q-69 0 -178 21l19 95q94 -21 159 -21q67 0 93.5 28.5t26.5 104.5v55h-2q-48 -83 -156 -83q-95 0 -160 67t-65 179t65 179t160 67q108 0 156 -83h2v68h98v-462q-2 -66 -19 -110t-48 -66t-66.5 -30.5t-84.5 -8.5zM276 81
q64 0 103 41.5t39 108.5t-39 108.5t-103 41.5t-103 -41.5t-39 -108.5t39 -108.5t103 -41.5z" />
    <glyph glyph-name="Gcommaaccent" unicode="&#x122;" horiz-adv-x="782" 
d="M425 387h332v-42q0 -69 -22 -132.5t-64 -115t-111 -82t-155 -30.5q-161 0 -265.5 100t-104.5 263q0 162 103 264.5t268 102.5q158 0 269 -94l-71 -87q-82 75 -203 75q-113 0 -182.5 -73.5t-69.5 -186.5t71.5 -185.5t187.5 -72.5q107 0 168.5 60t68.5 138h-220v98z
M354 -136v89h99v-89l-64 -74h-37l37 74h-35z" />
    <glyph glyph-name="gcommaaccent" unicode="&#x123;" horiz-adv-x="571" 
d="M338 629v-89h-99v89l64 74h37l-37 -74h35zM413 462h98v-462q-2 -66 -19 -110t-48 -66t-66.5 -30.5t-84.5 -8.5q-69 0 -178 21l19 95q94 -21 159 -21q67 0 93.5 28.5t26.5 104.5v55h-2q-48 -83 -156 -83q-95 0 -160 67t-65 179t65 179t160 67q108 0 156 -83h2v68zM276 81
q64 0 103 41.5t39 108.5t-39 108.5t-103 41.5t-103 -41.5t-39 -108.5t39 -108.5t103 -41.5z" />
    <glyph glyph-name="Hcircumflex" unicode="&#x124;" horiz-adv-x="718" 
d="M359 818l-75 -75h-93l120 120h97l120 -120h-93zM544 700h104v-700h-104v319h-370v-319h-104v700h104v-281h370v281z" />
    <glyph glyph-name="hcircumflex" unicode="&#x125;" horiz-adv-x="545" 
d="M163 863l120 -120h-93l-76 75l-75 -75h-93l120 120h97zM163 700v-308h2q48 85 151 85q79 0 126.5 -46.5t47.5 -146.5v-284h-98v267q0 112 -106 112q-123 0 -123 -158v-221h-98v700h98z" />
    <glyph glyph-name="Hbar" unicode="&#x126;" horiz-adv-x="717" 
d="M717 589v-86h-69v-503h-104v319h-370v-319h-104v503h-70v86h70v111h104v-111h370v111h104v-111h69zM544 419v84h-370v-84h370z" />
    <glyph glyph-name="hbar" unicode="&#x127;" horiz-adv-x="545" 
d="M316 477q79 0 126.5 -46.5t47.5 -146.5v-284h-98v267q0 112 -106 112q-123 0 -123 -158v-221h-98v565h-65v60h65v75h98v-75h140v-60h-140v-173h2q48 85 151 85z" />
    <glyph glyph-name="Itilde" unicode="&#x128;" horiz-adv-x="246" 
d="M209 743q-29 0 -87 23t-78 23q-36 0 -55 -45l-37 11q11 46 36.5 77t66.5 31q29 0 86.5 -23t77.5 -23q36 0 55 45l37 -11q-11 -46 -36 -77t-66 -31zM176 700v-700h-106v700h106z" />
    <glyph glyph-name="itilde" unicode="&#x129;" horiz-adv-x="228" 
d="M61 704q24 0 66.5 -25.5t53.5 -25.5q22 0 35 45l40 -11q-18 -111 -82 -111q-24 0 -66.5 25.5t-53.5 25.5q-22 0 -35 -45l-40 11q18 111 82 111zM65 0v462h98v-462h-98z" />
    <glyph glyph-name="Imacron" unicode="&#x12a;" horiz-adv-x="246" 
d="M267 833v-72h-290v72h290zM176 700v-700h-106v700h106z" />
    <glyph glyph-name="imacron" unicode="&#x12b;" horiz-adv-x="228" 
d="M209 662v-72h-190v72h190zM65 0v462h98v-462h-98z" />
    <glyph glyph-name="Ibreve" unicode="&#x12c;" horiz-adv-x="246" 
d="M259 863q-5 -56 -41 -88t-95 -32t-95 32t-41 88h67q5 -57 69 -57t69 57h67zM176 700v-700h-106v700h106z" />
    <glyph glyph-name="ibreve" unicode="&#x12d;" horiz-adv-x="228" 
d="M227 700q0 -68 -30 -104t-83 -36t-83 36t-30 104h68q0 -73 45 -73t45 73h68zM65 0v462h98v-462h-98z" />
    <glyph glyph-name="Iogonek" unicode="&#x12e;" horiz-adv-x="246" 
d="M176 0h-26q-60 -63 -60 -98q0 -23 29 -23q11 0 39 6l12 -62q-33 -10 -70 -10q-38 0 -61.5 19.5t-23.5 55.5q0 56 70 112h-15v700h106v-700z" />
    <glyph glyph-name="iogonek" unicode="&#x12f;" horiz-adv-x="228" 
d="M54 690h120v-120h-120v120zM65 4v458h98v-462h-38q-60 -63 -60 -98q0 -23 29 -23q11 0 39 6l12 -62q-33 -10 -70 -10q-38 0 -61.5 19.5t-23.5 55.5q0 58 75 116z" />
    <glyph glyph-name="Idotaccent" unicode="&#x130;" horiz-adv-x="246" 
d="M175 847v-104h-106v104h106zM176 700v-700h-106v700h106z" />
    <glyph glyph-name="dotlessi" unicode="&#x131;" horiz-adv-x="228" 
d="M65 0v462h98v-462h-98z" />
    <glyph glyph-name="IJ" unicode="&#x132;" horiz-adv-x="520" 
d="M176 700v-700h-106v700h106zM450 700v-528q0 -177 -153 -177h-36v101h26q31 0 45 16.5t14 59.5v528h104z" />
    <glyph glyph-name="ij" unicode="&#x133;" horiz-adv-x="456" 
d="M174 690v-120h-120v120h120zM402 690v-120h-120v120h120zM65 0v462h98v-462h-98zM222 -114h18q28 0 40.5 13t12.5 43v520h98v-530q0 -65 -35.5 -100t-100.5 -35h-33v89z" />
    <glyph glyph-name="Jcircumflex" unicode="&#x134;" horiz-adv-x="274" 
d="M201 863l120 -120h-93l-76 75l-75 -75h-93l120 120h97zM204 700v-528q0 -177 -153 -177h-36v101h26q31 0 45 16.5t14 59.5v528h104z" />
    <glyph glyph-name="jcircumflex" unicode="&#x135;" horiz-adv-x="228" 
d="M163 707l90 -154h-90l-49 95l-49 -95h-90l90 154h98zM-6 -114h18q28 0 40.5 13t12.5 43v520h98v-530q0 -65 -35.5 -100t-100.5 -35h-33v89z" />
    <glyph glyph-name="Kcommaaccent" unicode="&#x136;" horiz-adv-x="649" 
d="M292 379l352 -379h-154l-316 349v-349h-104v700h104v-311l278 311h144zM270 -136v89h99v-89l-64 -74h-37l37 74h-35z" />
    <glyph glyph-name="kcommaaccent" unicode="&#x137;" horiz-adv-x="483" 
d="M263 252l215 -252h-129l-186 227v-227h-98v700h98v-435l165 197h129zM194 -136v89h99v-89l-64 -74h-37l37 74h-35z" />
    <glyph glyph-name="kgreenlandic" unicode="&#x138;" horiz-adv-x="478" 
d="M473 0h-129l-186 227v-227h-98v462h98v-197l165 197h129l-194 -210z" />
    <glyph glyph-name="Lacute" unicode="&#x139;" horiz-adv-x="483" 
d="M342 863l-147 -120h-74l95 120h126zM174 700v-600h304v-100h-408v700h104z" />
    <glyph glyph-name="lacute" unicode="&#x13a;" horiz-adv-x="228" 
d="M294 863l-147 -120h-74l95 120h126zM163 700v-700h-98v700h98z" />
    <glyph glyph-name="Lcommaaccent" unicode="&#x13b;" horiz-adv-x="483" 
d="M174 100h304v-100h-408v700h104v-600zM230 -136v89h99v-89l-64 -74h-37l37 74h-35z" />
    <glyph glyph-name="lcommaaccent" unicode="&#x13c;" horiz-adv-x="228" 
d="M65 700h98v-700h-98v700zM64 -136v89h99v-89l-64 -74h-37l37 74h-35z" />
    <glyph glyph-name="Lcaron" unicode="&#x13d;" horiz-adv-x="483" 
d="M336 463h-35l53 147h-45v105h105v-105zM174 100h304v-100h-408v700h104v-600z" />
    <glyph glyph-name="lcaron" unicode="&#x13e;" horiz-adv-x="324" 
d="M209 715h105v-105l-78 -107h-35l44 107h-36v105zM65 0v700h98v-700h-98z" />
    <glyph glyph-name="Ldot" unicode="&#x13f;" horiz-adv-x="483" 
d="M174 700v-600h304v-100h-408v700h104zM397 462v-119h-119v119h119z" />
    <glyph glyph-name="ldot" unicode="&#x140;" horiz-adv-x="325" 
d="M163 700v-700h-98v700h98zM315 463v-119h-119v119h119z" />
    <glyph glyph-name="Lslash" unicode="&#x141;" horiz-adv-x="483" 
d="M174 100h304v-100h-408v288l-80 -42v75l80 42v337h104v-283l172 90v-75l-172 -90v-242z" />
    <glyph glyph-name="lslash" unicode="&#x142;" horiz-adv-x="278" 
d="M268 488v-75l-80 -42v-371h-98v319l-80 -42v75l80 42v306h98v-254z" />
    <glyph glyph-name="Nacute" unicode="&#x143;" horiz-adv-x="699" 
d="M529 863l-147 -120h-74l95 120h126zM629 700v-700h-109l-344 523h-2v-523h-104v700h109l344 -523h2v523h104z" />
    <glyph glyph-name="nacute" unicode="&#x144;" horiz-adv-x="540" 
d="M471 707l-144 -154h-77l95 154h126zM311 477q80 0 127 -46.5t47 -146.5v-284h-98v267q0 112 -106 112q-123 0 -123 -158v-221h-98v462h98v-70h2q48 85 151 85z" />
    <glyph glyph-name="Ncommaaccent" unicode="&#x145;" horiz-adv-x="699" 
d="M525 700h104v-700h-109l-344 523h-2v-523h-104v700h109l344 -523h2v523zM299 -136v89h99v-89l-64 -74h-37l37 74h-35z" />
    <glyph glyph-name="ncommaaccent" unicode="&#x146;" horiz-adv-x="540" 
d="M311 477q80 0 127 -46.5t47 -146.5v-284h-98v267q0 112 -106 112q-123 0 -123 -158v-221h-98v462h98v-70h2q48 85 151 85zM233 -136v89h99v-89l-64 -74h-37l37 74h-35z" />
    <glyph glyph-name="Ncaron" unicode="&#x147;" horiz-adv-x="699" 
d="M398 743h-97l-120 120h93l75 -75l76 75h93zM629 700v-700h-109l-344 523h-2v-523h-104v700h109l344 -523h2v523h104z" />
    <glyph glyph-name="ncaron" unicode="&#x148;" horiz-adv-x="540" 
d="M461 700l-124 -154h-98l-124 154h94l79 -95l79 95h94zM311 477q80 0 127 -46.5t47 -146.5v-284h-98v267q0 112 -106 112q-123 0 -123 -158v-221h-98v462h98v-70h2q48 85 151 85z" />
    <glyph glyph-name="napostrophe" unicode="&#x149;" horiz-adv-x="580" 
d="M123 715v-105l-78 -147h-35l53 147h-45v105h105zM351 477q80 0 127 -46.5t47 -146.5v-284h-98v267q0 112 -106 112q-123 0 -123 -158v-221h-98v462h98v-70h2q48 85 151 85z" />
    <glyph glyph-name="Eng" unicode="&#x14a;" horiz-adv-x="699" 
d="M525 700h104v-744q0 -74 -36 -115t-108 -41h-61v100h40q31 0 46 13t15 47v40l-349 521h-2v-521h-104v700h109l344 -517h2v517z" />
    <glyph glyph-name="eng" unicode="&#x14b;" horiz-adv-x="540" 
d="M311 477q80 0 127 -46.5t47 -146.5v-346q0 -65 -31.5 -101.5t-96.5 -36.5h-61v92h43q48 0 48 49v326q0 112 -106 112q-123 0 -123 -158v-221h-98v462h98v-70h2q48 85 151 85z" />
    <glyph glyph-name="Omacron" unicode="&#x14c;" horiz-adv-x="800" 
d="M545 833v-72h-290v72h290zM400 715q157 0 261 -102.5t104 -262.5t-104 -262.5t-261 -102.5t-261 102.5t-104 262.5t104 262.5t261 102.5zM400 609q-111 0 -181 -73t-70 -186t70 -186t181 -73t181 73t70 186t-70 186t-181 73z" />
    <glyph glyph-name="omacron" unicode="&#x14d;" horiz-adv-x="566" 
d="M428 662v-72h-290v72h290zM283 477q109 0 181 -70t72 -176t-72 -176t-181 -70t-181 70t-72 176t72 176t181 70zM283 381q-66 0 -107.5 -41t-41.5 -109t41.5 -109t107.5 -41t107.5 41t41.5 109t-41.5 109t-107.5 41z" />
    <glyph glyph-name="Obreve" unicode="&#x14e;" horiz-adv-x="800" 
d="M537 863q-5 -56 -41 -88t-95 -32t-95 32t-41 88h67q5 -57 69 -57t69 57h67zM400 715q157 0 261 -102.5t104 -262.5t-104 -262.5t-261 -102.5t-261 102.5t-104 262.5t104 262.5t261 102.5zM400 609q-111 0 -181 -73t-70 -186t70 -186t181 -73t181 73t70 186t-70 186
t-181 73z" />
    <glyph glyph-name="obreve" unicode="&#x14f;" horiz-adv-x="566" 
d="M419 700q0 -65 -37.5 -102.5t-98.5 -37.5t-98.5 37.5t-37.5 102.5h68q2 -34 20 -53.5t48 -19.5t48 19.5t20 53.5h68zM283 477q109 0 181 -70t72 -176t-72 -176t-181 -70t-181 70t-72 176t72 176t181 70zM283 381q-66 0 -107.5 -41t-41.5 -109t41.5 -109t107.5 -41
t107.5 41t41.5 109t-41.5 109t-107.5 41z" />
    <glyph glyph-name="Ohungarumlaut" unicode="&#x150;" horiz-adv-x="800" 
d="M482 863l-102 -120h-69l84 120h87zM603 863l-102 -120h-69l84 120h87zM400 715q157 0 261 -102.5t104 -262.5t-104 -262.5t-261 -102.5t-261 102.5t-104 262.5t104 262.5t261 102.5zM400 609q-111 0 -181 -73t-70 -186t70 -186t181 -73t181 73t70 186t-70 186t-181 73z
" />
    <glyph glyph-name="ohungarumlaut" unicode="&#x151;" horiz-adv-x="566" 
d="M379 707l-123 -154h-70l104 154h89zM507 707l-123 -154h-70l104 154h89zM283 477q109 0 181 -70t72 -176t-72 -176t-181 -70t-181 70t-72 176t72 176t181 70zM283 381q-66 0 -107.5 -41t-41.5 -109t41.5 -109t107.5 -41t107.5 41t41.5 109t-41.5 109t-107.5 41z" />
    <glyph glyph-name="OE" unicode="&#x152;" horiz-adv-x="1100" 
d="M752 98h303v-98h-407v87q-104 -102 -252 -102q-155 0 -258 102.5t-103 262.5t103 262.5t258 102.5q147 0 252 -102v87h392v-98h-288v-166h273v-98h-273v-240zM396 89q112 0 182 75t70 186t-70 186t-182 75q-108 0 -178.5 -74t-70.5 -187t70.5 -187t178.5 -74z" />
    <glyph glyph-name="oe" unicode="&#x153;" horiz-adv-x="905" 
d="M657 477q101 0 159.5 -66.5t58.5 -179.5v-16h-358q3 -61 41.5 -98.5t98.5 -37.5q82 0 142 81l69 -65q-80 -110 -211 -110q-130 0 -187 96h-2q-24 -45 -72 -70.5t-110 -25.5q-113 0 -184.5 68.5t-71.5 177.5t71.5 177.5t184.5 68.5q62 0 110 -25.5t73 -71.5h2q26 45 74 71
t112 26zM648 387q-51 0 -84 -26t-42 -75h247q-3 48 -35.5 74.5t-85.5 26.5zM283 381q-65 0 -107 -41t-42 -109t42 -109t107 -41q64 0 106.5 41t42.5 109t-42.5 109t-106.5 41z" />
    <glyph glyph-name="Racute" unicode="&#x154;" horiz-adv-x="582" 
d="M451 863l-147 -120h-74l95 120h126zM441 0l-204 291h-63v-291h-104v700h239q94 0 154 -55.5t60 -150.5q0 -79 -44.5 -132t-118.5 -67l212 -295h-131zM174 602v-213h118q60 0 89.5 28.5t29.5 76.5q0 49 -29.5 78.5t-89.5 29.5h-118z" />
    <glyph glyph-name="racute" unicode="&#x155;" horiz-adv-x="330" 
d="M384 707l-144 -154h-77l95 154h126zM320 476v-115h-15q-73 0 -110 -37.5t-37 -118.5v-205h-98v462h98v-101h2q17 53 56.5 84t96.5 31h7z" />
    <glyph glyph-name="Rcommaaccent" unicode="&#x156;" horiz-adv-x="582" 
d="M360 295l212 -295h-131l-204 291h-63v-291h-104v700h239q94 0 154 -55.5t60 -150.5q0 -79 -44.5 -132t-118.5 -67zM174 602v-213h118q60 0 89.5 28.5t29.5 76.5q0 49 -29.5 78.5t-89.5 29.5h-118zM247 -136v89h99v-89l-64 -74h-37l37 74h-35z" />
    <glyph glyph-name="rcommaaccent" unicode="&#x157;" horiz-adv-x="330" 
d="M313 476h7v-115h-15q-73 0 -110 -37.5t-37 -118.5v-205h-98v462h98v-101h2q17 53 56.5 84t96.5 31zM61 -136v89h99v-89l-64 -74h-37l37 74h-35z" />
    <glyph glyph-name="Rcaron" unicode="&#x158;" horiz-adv-x="582" 
d="M320 743h-97l-120 120h93l75 -75l76 75h93zM441 0l-204 291h-63v-291h-104v700h239q94 0 154 -55.5t60 -150.5q0 -79 -44.5 -132t-118.5 -67l212 -295h-131zM174 602v-213h118q60 0 89.5 28.5t29.5 76.5q0 49 -29.5 78.5t-89.5 29.5h-118z" />
    <glyph glyph-name="rcaron" unicode="&#x159;" horiz-adv-x="330" 
d="M374 700l-124 -154h-98l-124 154h94l79 -95l79 95h94zM320 476v-115h-15q-73 0 -110 -37.5t-37 -118.5v-205h-98v462h98v-101h2q17 53 56.5 84t96.5 31h7z" />
    <glyph glyph-name="Sacute" unicode="&#x15a;" horiz-adv-x="500" 
d="M444 863l-147 -120h-74l95 120h126zM260 715q93 0 185 -47l-47 -99q-72 41 -141 41q-80 0 -80 -60q0 -40 55 -83l125 -96q56 -43 82 -87.5t26 -102.5q0 -94 -61 -145t-163 -51q-124 0 -226 65l47 98q99 -57 180 -57q54 0 82.5 23.5t28.5 60.5q0 28 -17.5 52t-56.5 55
l-119 94q-96 75 -96 170q0 78 52 123.5t144 45.5z" />
    <glyph glyph-name="sacute" unicode="&#x15b;" horiz-adv-x="403" 
d="M390 707l-144 -154h-77l95 154h126zM203 -15q-104 0 -188 49l44 87q76 -44 147 -44q72 0 72 43q0 28 -49 52l-84 41q-97 46 -97 133q0 63 43.5 97t120.5 34q80 0 160 -36l-40 -85q-70 30 -123 30q-57 0 -57 -35q0 -17 11.5 -29t41.5 -26l86 -41q92 -43 92 -130
q0 -69 -48.5 -104.5t-131.5 -35.5z" />
    <glyph glyph-name="Scircumflex" unicode="&#x15c;" horiz-adv-x="500" 
d="M313 863l120 -120h-93l-76 75l-75 -75h-93l120 120h97zM260 715q93 0 185 -47l-47 -99q-72 41 -141 41q-80 0 -80 -60q0 -40 55 -83l125 -96q56 -43 82 -87.5t26 -102.5q0 -94 -61 -145t-163 -51q-124 0 -226 65l47 98q99 -57 180 -57q54 0 82.5 23.5t28.5 60.5
q0 28 -17.5 52t-56.5 55l-119 94q-96 75 -96 170q0 78 52 123.5t144 45.5z" />
    <glyph glyph-name="scircumflex" unicode="&#x15d;" horiz-adv-x="403" 
d="M256 707l124 -154h-94l-79 95l-79 -95h-94l124 154h98zM203 -15q-104 0 -188 49l44 87q76 -44 147 -44q72 0 72 43q0 28 -49 52l-84 41q-97 46 -97 133q0 63 43.5 97t120.5 34q80 0 160 -36l-40 -85q-70 30 -123 30q-57 0 -57 -35q0 -17 11.5 -29t41.5 -26l86 -41
q92 -43 92 -130q0 -69 -48.5 -104.5t-131.5 -35.5z" />
    <glyph glyph-name="Scedilla" unicode="&#x15e;" horiz-adv-x="500" 
d="M465 181q0 -89 -54.5 -139.5t-148.5 -55.5l-7 -22q69 -20 69 -71q0 -12 -4 -23t-15 -21t-18.5 -16t-28.5 -16t-29.5 -14t-34.5 -15l-13 28q23 11 33.5 16.5t24 14t19 15.5t5.5 14q0 17 -14.5 25t-49.5 16l25 68q-117 6 -209 65l47 98q99 -57 180 -57q54 0 82.5 23.5
t28.5 60.5q0 28 -17.5 52t-56.5 55l-119 94q-96 75 -96 170q0 78 52 123.5t144 45.5q93 0 185 -47l-47 -99q-72 41 -141 41q-80 0 -80 -60q0 -40 55 -83l125 -96q56 -43 82 -87.5t26 -102.5z" />
    <glyph glyph-name="scedilla" unicode="&#x15f;" horiz-adv-x="403" 
d="M383 125q0 -66 -45 -101.5t-123 -38.5l-7 -21q69 -20 69 -71q0 -12 -4 -23t-15 -21t-18.5 -16t-28.5 -16t-29.5 -14t-34.5 -15l-13 28q23 11 33.5 16.5t24 14t19 15.5t5.5 14q0 17 -14.5 25t-49.5 16l25 69q-91 6 -162 48l44 87q76 -44 147 -44q72 0 72 43q0 28 -49 52
l-84 41q-97 46 -97 133q0 63 43.5 97t120.5 34q80 0 160 -36l-40 -85q-70 30 -123 30q-57 0 -57 -35q0 -17 11.5 -29t41.5 -26l86 -41q92 -43 92 -130z" />
    <glyph glyph-name="Scaron" unicode="&#x160;" horiz-adv-x="500" 
d="M313 743h-97l-120 120h93l75 -75l76 75h93zM260 715q93 0 185 -47l-47 -99q-72 41 -141 41q-80 0 -80 -60q0 -40 55 -83l125 -96q56 -43 82 -87.5t26 -102.5q0 -94 -61 -145t-163 -51q-124 0 -226 65l47 98q99 -57 180 -57q54 0 82.5 23.5t28.5 60.5q0 28 -17.5 52
t-56.5 55l-119 94q-96 75 -96 170q0 78 52 123.5t144 45.5z" />
    <glyph glyph-name="scaron" unicode="&#x161;" horiz-adv-x="403" 
d="M380 700l-124 -154h-98l-124 154h94l79 -95l79 95h94zM203 -15q-104 0 -188 49l44 87q76 -44 147 -44q72 0 72 43q0 28 -49 52l-84 41q-97 46 -97 133q0 63 43.5 97t120.5 34q80 0 160 -36l-40 -85q-70 30 -123 30q-57 0 -57 -35q0 -17 11.5 -29t41.5 -26l86 -41
q92 -43 92 -130q0 -69 -48.5 -104.5t-131.5 -35.5z" />
    <glyph glyph-name="uni0162" unicode="&#x162;" horiz-adv-x="518" 
d="M311 0h-31l-12 -36q69 -20 69 -71q0 -12 -4 -23t-15 -21t-18.5 -16t-28.5 -16t-29.5 -14t-34.5 -15l-13 28q23 11 33.5 16.5t24 14t19 15.5t5.5 14q0 17 -14.5 25t-49.5 16l30 83h-35v602h-197v98h498v-98h-197v-602z" />
    <glyph glyph-name="uni0163" unicode="&#x163;" horiz-adv-x="309" 
d="M289 379h-94v-242q0 -48 48 -48h24v-90h-45h-5l-12 -35q69 -20 69 -71q0 -12 -4 -23t-15 -21t-18.5 -16t-28.5 -16t-29.5 -14t-34.5 -15l-13 28q23 11 33.5 16.5t24 14t19 15.5t5.5 14q0 17 -14.5 25t-49.5 16l31 87q-83 18 -83 114v261h-82v83h82v185h98v-185h94v-83z
" />
    <glyph glyph-name="Tcaron" unicode="&#x164;" horiz-adv-x="518" 
d="M308 743h-97l-120 120h93l75 -75l76 75h93zM508 700v-98h-197v-602h-104v602h-197v98h498z" />
    <glyph glyph-name="tcaron" unicode="&#x165;" horiz-adv-x="375" 
d="M260 715h105v-105l-78 -107h-35l44 107h-36v105zM195 647v-185h94v-83h-94v-242q0 -48 48 -48h24v-90h-45q-61 0 -93 31t-32 88v261h-82v83h82v185h98z" />
    <glyph glyph-name="Tbar" unicode="&#x166;" horiz-adv-x="518" 
d="M508 602h-197v-140h136v-86h-136v-376h-104v376h-136v86h136v140h-197v98h498v-98z" />
    <glyph glyph-name="tbar" unicode="&#x167;" horiz-adv-x="302" 
d="M289 379h-94v-63h89v-69h-89v-110q0 -48 48 -48h24v-90h-45q-61 0 -93 31t-32 88v129h-78v69h78v63h-82v83h82v185h98v-185h94v-83z" />
    <glyph glyph-name="Utilde" unicode="&#x168;" horiz-adv-x="682" 
d="M427 743q-29 0 -87 23t-78 23q-36 0 -55 -45l-37 11q11 46 36.5 77t66.5 31q29 0 87 -23t77 -23q36 0 55 45l37 -11q-11 -46 -36 -77t-66 -31zM622 700v-430q0 -130 -76.5 -207.5t-204.5 -77.5t-204.5 77.5t-76.5 207.5v430h109v-427q0 -83 48.5 -131.5t123.5 -48.5
t123.5 48.5t48.5 131.5v427h109z" />
    <glyph glyph-name="utilde" unicode="&#x169;" horiz-adv-x="526" 
d="M193 704q29 0 82 -25.5t72 -25.5q33 0 53 45l40 -11q-10 -49 -35 -80t-65 -31q-30 0 -82.5 25.5t-71.5 25.5q-33 0 -53 -45l-41 11q10 49 35.5 80t65.5 31zM224 -15q-74 0 -121.5 48.5t-47.5 148.5v280h100v-270q0 -56 25.5 -84t71.5 -28q116 0 116 161v221h98v-462h-98
v70h-2q-42 -85 -142 -85z" />
    <glyph glyph-name="Umacron" unicode="&#x16a;" horiz-adv-x="682" 
d="M485 833v-72h-290v72h290zM622 700v-430q0 -130 -76.5 -207.5t-204.5 -77.5t-204.5 77.5t-76.5 207.5v430h109v-427q0 -83 48.5 -131.5t123.5 -48.5t123.5 48.5t48.5 131.5v427h109z" />
    <glyph glyph-name="umacron" unicode="&#x16b;" horiz-adv-x="526" 
d="M407 662v-72h-290v72h290zM224 -15q-74 0 -121.5 48.5t-47.5 148.5v280h100v-270q0 -56 25.5 -84t71.5 -28q116 0 116 161v221h98v-462h-98v70h-2q-42 -85 -142 -85z" />
    <glyph glyph-name="Ubreve" unicode="&#x16c;" horiz-adv-x="682" 
d="M477 863q-4 -56 -40.5 -88t-95.5 -32t-95 32t-41 88h67q5 -57 69 -57t69 57h67zM622 700v-430q0 -130 -76.5 -207.5t-204.5 -77.5t-204.5 77.5t-76.5 207.5v430h109v-427q0 -83 48.5 -131.5t123.5 -48.5t123.5 48.5t48.5 131.5v427h109z" />
    <glyph glyph-name="ubreve" unicode="&#x16d;" horiz-adv-x="526" 
d="M398 700q0 -65 -37.5 -102.5t-98.5 -37.5t-98.5 37.5t-37.5 102.5h68q2 -34 20 -53.5t48 -19.5t48 19.5t20 53.5h68zM224 -15q-74 0 -121.5 48.5t-47.5 148.5v280h100v-270q0 -56 25.5 -84t71.5 -28q116 0 116 161v221h98v-462h-98v70h-2q-42 -85 -142 -85z" />
    <glyph glyph-name="Uring" unicode="&#x16e;" horiz-adv-x="682" 
d="M341 886q51 0 84 -33t33 -84q0 -50 -33 -83t-84 -33t-84 33t-33 83q0 51 33 84t84 33zM340 839q-30 0 -48.5 -19.5t-18.5 -50.5q0 -30 18.5 -49.5t48.5 -19.5t49 19.5t19 49.5q0 31 -18.5 50.5t-49.5 19.5zM622 700v-430q0 -130 -76.5 -207.5t-204.5 -77.5t-204.5 77.5
t-76.5 207.5v430h109v-427q0 -83 48.5 -131.5t123.5 -48.5t123.5 48.5t48.5 131.5v427h109z" />
    <glyph glyph-name="uring" unicode="&#x16f;" horiz-adv-x="526" 
d="M262 747q52 0 85.5 -33t33.5 -84t-33.5 -84t-85.5 -33t-85.5 33t-33.5 84t33.5 84t85.5 33zM262 700q-31 0 -50.5 -20t-19.5 -50t19.5 -50t50.5 -20t50.5 20t19.5 50t-19.5 50t-50.5 20zM224 -15q-74 0 -121.5 48.5t-47.5 148.5v280h100v-270q0 -56 25.5 -84t71.5 -28
q116 0 116 161v221h98v-462h-98v70h-2q-42 -85 -142 -85z" />
    <glyph glyph-name="Uhungarumlaut" unicode="&#x170;" horiz-adv-x="682" 
d="M422 863l-102 -120h-69l84 120h87zM543 863l-102 -120h-69l84 120h87zM622 700v-430q0 -130 -76.5 -207.5t-204.5 -77.5t-204.5 77.5t-76.5 207.5v430h109v-427q0 -83 48.5 -131.5t123.5 -48.5t123.5 48.5t48.5 131.5v427h109z" />
    <glyph glyph-name="uhungarumlaut" unicode="&#x171;" horiz-adv-x="526" 
d="M358 707l-123 -154h-70l104 154h89zM486 707l-123 -154h-70l104 154h89zM224 -15q-74 0 -121.5 48.5t-47.5 148.5v280h100v-270q0 -56 25.5 -84t71.5 -28q116 0 116 161v221h98v-462h-98v70h-2q-42 -85 -142 -85z" />
    <glyph glyph-name="Uogonek" unicode="&#x172;" horiz-adv-x="682" 
d="M513 700h109v-430q0 -114 -59 -188.5t-162 -91.5q-51 -57 -51 -88q0 -23 29 -23q11 0 39 6l12 -62q-33 -10 -70 -10q-38 0 -61.5 19.5t-23.5 55.5q0 50 53 97q-123 5 -195.5 81.5t-72.5 203.5v430h109v-427q0 -83 48.5 -131.5t123.5 -48.5t123.5 48.5t48.5 131.5v427z
" />
    <glyph glyph-name="uogonek" unicode="&#x173;" horiz-adv-x="526" 
d="M466 0h-50q-60 -63 -60 -98q0 -23 29 -23q11 0 39 6l12 -62q-33 -10 -70 -10q-38 0 -61.5 19.5t-23.5 55.5q0 62 87 124v58h-2q-42 -85 -142 -85q-74 0 -121.5 48.5t-47.5 148.5v280h100v-270q0 -56 25.5 -84t71.5 -28q116 0 116 161v221h98v-462z" />
    <glyph glyph-name="Wcircumflex" unicode="&#x174;" horiz-adv-x="985" 
d="M542 863l120 -120h-93l-76 75l-75 -75h-93l120 120h97zM970 700l-210 -700h-102l-164 524h-3l-164 -524h-102l-210 700h116l144 -534h2l164 534h103l164 -534h2l144 534h116z" />
    <glyph glyph-name="wcircumflex" unicode="&#x175;" horiz-adv-x="721" 
d="M360 648l-79 -95h-94l124 154h98l124 -154h-94zM608 462h108l-155 -462h-90l-110 331l-111 -331h-90l-155 462h108l93 -333l107 333h95l107 -333z" />
    <glyph glyph-name="Ycircumflex" unicode="&#x176;" horiz-adv-x="543" 
d="M272 818l-75 -75h-93l120 120h97l120 -120h-93zM543 700l-219 -419v-281h-105v280l-219 420h121l149 -309h3l149 309h121z" />
    <glyph glyph-name="ycircumflex" unicode="&#x177;" horiz-adv-x="485" 
d="M247 648l-79 -95h-94l124 154h98l124 -154h-94zM372 462h108l-288 -662h-104l111 242l-194 420h117l127 -303z" />
    <glyph glyph-name="Ydieresis" unicode="&#x178;" horiz-adv-x="543" 
d="M220 847v-104h-106v104h106zM430 847v-104h-106v104h106zM543 700l-219 -419v-281h-105v280l-219 420h121l149 -309h3l149 309h121z" />
    <glyph glyph-name="Zacute" unicode="&#x179;" horiz-adv-x="542" 
d="M454 863l-147 -120h-74l95 120h126zM145 98h377v-98h-502v98l362 504h-330v98h455v-98z" />
    <glyph glyph-name="zacute" unicode="&#x17a;" horiz-adv-x="436" 
d="M401 707l-144 -154h-77l95 154h126zM143 91h268v-91h-386v86l251 285h-241v91h358v-86z" />
    <glyph glyph-name="Zdotaccent" unicode="&#x17b;" horiz-adv-x="542" 
d="M326 847v-104h-106v104h106zM145 98h377v-98h-502v98l362 504h-330v98h455v-98z" />
    <glyph glyph-name="zdotaccent" unicode="&#x17c;" horiz-adv-x="436" 
d="M278 690v-120h-120v120h120zM143 91h268v-91h-386v86l251 285h-241v91h358v-86z" />
    <glyph glyph-name="Zcaron" unicode="&#x17d;" horiz-adv-x="542" 
d="M323 743h-97l-120 120h93l75 -75l76 75h93zM145 98h377v-98h-502v98l362 504h-330v98h455v-98z" />
    <glyph glyph-name="zcaron" unicode="&#x17e;" horiz-adv-x="436" 
d="M267 546h-98l-124 154h94l79 -95l79 95h94zM143 91h268v-91h-386v86l251 285h-241v91h358v-86z" />
    <glyph glyph-name="florin" unicode="&#x192;" horiz-adv-x="401" 
d="M333 585q-95 0 -95 -91v-32h133v-30h-133v-451q0 -181 -175 -181h-43v90h40q80 0 80 81v461h-101v30h101v22q0 95 49.5 143t139.5 48h42v-90h-38z" />
    <glyph glyph-name="AEacute" unicode="&#x1fc;" horiz-adv-x="933" 
d="M862 863l-147 -120h-74l95 120h126zM613 98h275v-98h-377v174h-265l-110 -174h-131l455 700h423v-98h-270v-166h246v-98h-246v-240zM307 270h204v322z" />
    <glyph glyph-name="aeacute" unicode="&#x1fd;" horiz-adv-x="814" 
d="M592 707l-144 -154h-77l95 154h126zM196 -15q-79 0 -132.5 45t-53.5 118q0 71 51 115.5t132 44.5q95 0 139 -56h2v40q0 97 -107 97q-59 0 -152 -24l-21 87q95 25 180 25q122 0 157 -89h2q23 40 69 64.5t107 24.5q100 0 157.5 -66.5t57.5 -179.5v-16h-354q3 -60 37.5 -98
t99.5 -38q37 0 67.5 15t43.5 29t31 37l67 -63q-75 -112 -205 -112q-67 0 -117.5 30t-73.5 76h-2q-22 -51 -72 -78.5t-110 -27.5zM435 286h242q-2 45 -34 73t-84 28q-48 0 -81 -26t-43 -75zM217 69q50 0 83.5 22.5t33.5 57.5t-33 56t-83 21q-51 0 -77.5 -22t-26.5 -56
q0 -35 27 -57t76 -22z" />
    <glyph glyph-name="Oslashacute" unicode="&#x1fe;" horiz-adv-x="800" 
d="M580 863l-147 -120h-74l95 120h126zM634 637q62 -50 96.5 -124t34.5 -163q0 -160 -104 -262.5t-261 -102.5q-111 0 -201 55l-39 -54l-34 21l41 56q-63 49 -97.5 123t-34.5 164q0 160 104 262.5t261 102.5q113 0 202 -56l40 55l33 -21zM149 350q0 -125 83 -198l306 419
q-62 38 -138 38q-111 0 -181 -73t-70 -186zM400 91q111 0 181 73t70 186q0 124 -82 197l-305 -419q59 -37 136 -37z" />
    <glyph glyph-name="oslashacute" unicode="&#x1ff;" horiz-adv-x="566" 
d="M464 707l-144 -154h-77l95 154h126zM459 411q77 -69 77 -180q0 -106 -72 -176t-181 -70q-89 0 -157 49l-42 -48l-27 23l43 48q-70 70 -70 174q0 106 72 176t181 70q83 0 148 -43l38 43l27 -24zM134 231q0 -58 32 -98l200 227q-37 21 -83 21q-66 0 -107.5 -41t-41.5 -109z
M283 81q66 0 107.5 41t41.5 109q0 65 -38 106l-202 -229q38 -27 91 -27z" />
    <glyph glyph-name="Scommaaccent" unicode="&#x218;" horiz-adv-x="500" 
d="M357 371q56 -43 82 -87.5t26 -102.5q0 -94 -61 -145t-163 -51q-124 0 -226 65l47 98q99 -57 180 -57q54 0 82.5 23.5t28.5 60.5q0 28 -17.5 52t-56.5 55l-119 94q-96 75 -96 170q0 78 52 123.5t144 45.5q93 0 185 -47l-47 -99q-72 41 -141 41q-80 0 -80 -60q0 -40 55 -83
zM196 -136v89h99v-89l-64 -74h-37l37 74h-35z" />
    <glyph glyph-name="scommaaccent" unicode="&#x219;" horiz-adv-x="403" 
d="M291 255q92 -43 92 -130q0 -69 -48.5 -104.5t-131.5 -35.5q-104 0 -188 49l44 87q76 -44 147 -44q72 0 72 43q0 28 -49 52l-84 41q-97 46 -97 133q0 63 43.5 97t120.5 34q80 0 160 -36l-40 -85q-70 30 -123 30q-57 0 -57 -35q0 -17 11.5 -29t41.5 -26zM149 -136v89h99
v-89l-64 -74h-37l37 74h-35z" />
    <glyph glyph-name="uni021A" unicode="&#x21a;" horiz-adv-x="518" 
d="M508 700v-98h-197v-602h-104v602h-197v98h498zM209 -136v89h99v-89l-64 -74h-37l37 74h-35z" />
    <glyph glyph-name="uni021B" unicode="&#x21b;" horiz-adv-x="309" 
d="M289 379h-94v-242q0 -48 48 -48h24v-90h-45q-61 0 -93 31t-32 88v261h-82v83h82v185h98v-185h94v-83zM146 -136v89h99v-89l-64 -74h-37l37 74h-35z" />
    <glyph glyph-name="uni0237" unicode="&#x237;" horiz-adv-x="228" 
d="M-6 -114h18q28 0 40.5 13t12.5 43v520h98v-530q0 -65 -35.5 -100t-100.5 -35h-33v89z" />
    <glyph glyph-name="uni02BC" unicode="&#x2bc;" horiz-adv-x="178" 
d="M43 715h105v-105l-78 -147h-35l53 147h-45v105z" />
    <glyph glyph-name="circumflex" unicode="&#x2c6;" horiz-adv-x="446" 
d="M272 707l124 -154h-94l-79 95l-79 -95h-94l124 154h98z" />
    <glyph glyph-name="caron" unicode="&#x2c7;" horiz-adv-x="446" 
d="M396 700l-124 -154h-98l-124 154h94l79 -95l79 95h94z" />
    <glyph glyph-name="breve" unicode="&#x2d8;" horiz-adv-x="372" 
d="M322 700q0 -65 -37.5 -102.5t-98.5 -37.5t-98.5 37.5t-37.5 102.5h68q2 -34 20 -53.5t48 -19.5t48 19.5t20 53.5h68z" />
    <glyph glyph-name="dotaccent" unicode="&#x2d9;" horiz-adv-x="220" 
d="M170 690v-120h-120v120h120z" />
    <glyph glyph-name="ring" unicode="&#x2da;" horiz-adv-x="338" 
d="M169 747q52 0 85.5 -33t33.5 -84t-33.5 -84t-85.5 -33t-85.5 33t-33.5 84t33.5 84t85.5 33zM169 700q-31 0 -50.5 -20t-19.5 -50t19.5 -50t50.5 -20t50.5 20t19.5 50t-19.5 50t-50.5 20z" />
    <glyph glyph-name="ogonek" unicode="&#x2db;" horiz-adv-x="255" 
d="M154 24l41 -14q-70 -70 -70 -108q0 -23 29 -23q11 0 39 6l12 -62q-33 -10 -70 -10q-38 0 -61.5 19.5t-23.5 55.5q0 68 104 136z" />
    <glyph glyph-name="tilde" unicode="&#x2dc;" horiz-adv-x="448" 
d="M151 704q29 0 82 -25.5t72 -25.5q33 0 53 45l40 -11q-10 -49 -35 -80t-65 -31q-30 0 -82.5 25.5t-71.5 25.5q-33 0 -53 -45l-41 11q10 49 35.5 80t65.5 31z" />
    <glyph glyph-name="hungarumlaut" unicode="&#x2dd;" horiz-adv-x="421" 
d="M243 707l-123 -154h-70l104 154h89zM371 707l-123 -154h-70l104 154h89z" />
    <glyph glyph-name="gravecomb" unicode="&#x300;" horiz-adv-x="0" 
d="M-144 707l94 -154h-76l-145 154h127z" />
    <glyph glyph-name="acutecomb" unicode="&#x301;" horiz-adv-x="0" 
d="M-50 707l-144 -154h-77l95 154h126z" />
    <glyph glyph-name="uni0302" unicode="&#x302;" horiz-adv-x="0" 
d="M-174 707l124 -154h-94l-79 95l-79 -95h-94l124 154h98z" />
    <glyph glyph-name="tildecomb" unicode="&#x303;" horiz-adv-x="0" 
d="M-297 704q29 0 82 -25.5t72 -25.5q33 0 53 45l40 -11q-10 -49 -35 -80t-65 -31q-30 0 -82.5 25.5t-71.5 25.5q-33 0 -53 -45l-41 11q10 49 35.5 80t65.5 31z" />
    <glyph glyph-name="uni0304" unicode="&#x304;" horiz-adv-x="0" 
d="M-50 662v-72h-290v72h290z" />
    <glyph glyph-name="uni0306" unicode="&#x306;" horiz-adv-x="0" 
d="M-50 700q0 -65 -37.5 -102.5t-98.5 -37.5t-98.5 37.5t-37.5 102.5h68q2 -34 20 -53.5t48 -19.5t48 19.5t20 53.5h68z" />
    <glyph glyph-name="uni0307" unicode="&#x307;" horiz-adv-x="0" 
d="M-50 690v-120h-120v120h120z" />
    <glyph glyph-name="uni0308" unicode="&#x308;" horiz-adv-x="0" 
d="M-238 690v-120h-100v120h100zM-50 690v-120h-100v120h100z" />
    <glyph glyph-name="uni030A" unicode="&#x30a;" horiz-adv-x="0" 
d="M-169 747q52 0 85.5 -33t33.5 -84t-33.5 -84t-85.5 -33t-85.5 33t-33.5 84t33.5 84t85.5 33zM-169 700q-31 0 -50.5 -20t-19.5 -50t19.5 -50t50.5 -20t50.5 20t19.5 50t-19.5 50t-50.5 20z" />
    <glyph glyph-name="uni030B" unicode="&#x30b;" horiz-adv-x="0" 
d="M-178 707l-123 -154h-70l104 154h89zM-50 707l-123 -154h-70l104 154h89z" />
    <glyph glyph-name="uni030C" unicode="&#x30c;" horiz-adv-x="0" 
d="M-50 700l-124 -154h-98l-124 154h94l79 -95l79 95h94z" />
    <glyph glyph-name="uni0312" unicode="&#x312;" horiz-adv-x="0" 
d="M-50 703l-37 -74h35v-89h-99v89l64 74h37z" />
    <glyph glyph-name="uni0326" unicode="&#x326;" horiz-adv-x="0" 
d="M-149 -47h99v-89l-64 -74h-37l37 74h-35v89z" />
    <glyph glyph-name="uni0327" unicode="&#x327;" horiz-adv-x="0" 
d="M-97 28l-22 -64q69 -20 69 -71q0 -12 -4 -23t-15 -21t-18.5 -16t-28.5 -16t-29.5 -14t-34.5 -15l-13 28q23 11 33.5 16.5t24 14t19 15.5t5.5 14q0 17 -14.5 25t-49.5 16l40 111h38z" />
    <glyph glyph-name="uni0328" unicode="&#x328;" horiz-adv-x="0" 
d="M-101 24l41 -14q-70 -70 -70 -108q0 -23 29 -23q11 0 39 6l12 -62q-33 -10 -70 -10q-38 0 -61.5 19.5t-23.5 55.5q0 68 104 136z" />
    <glyph glyph-name="uni0394" unicode="&#x394;" horiz-adv-x="628" 
d="M358 700l250 -700h-588l250 700h88zM314 567l-175 -523h350z" />
    <glyph glyph-name="uni03A9" unicode="&#x3a9;" horiz-adv-x="751" 
d="M376 715q155 0 247.5 -91t92.5 -235q0 -110 -59 -187t-149 -106v-3h194v-93h-286v142q94 21 148 86t54 158q0 108 -64.5 172t-177.5 64q-114 0 -178.5 -64t-64.5 -172q0 -93 54 -158t149 -86v-142h-287v93h194v3q-89 29 -148.5 106t-59.5 187q0 144 93 235t248 91z" />
    <glyph glyph-name="uni03BC" unicode="&#x3bc;" horiz-adv-x="526" 
d="M368 462h98v-462h-98v70h-2q-42 -85 -142 -85q-45 0 -81 18v-203h-88v662h100v-270q0 -56 25.5 -84t71.5 -28q116 0 116 161v221z" />
    <glyph glyph-name="pi" unicode="&#x3c0;" horiz-adv-x="603" 
d="M573 477v-94h-106v-383h-92v383h-129l-95 -383h-92l95 383q-70 -3 -124 -20v94q58 20 138 20h405z" />
    <glyph glyph-name="uni0E3F" unicode="&#xe3f;" horiz-adv-x="516" 
d="M375 336q47 -16 74 -55.5t27 -90.5q0 -91 -57.5 -140.5t-150.5 -49.5h-15v-87h-28v87h-185v675h185v87h28v-87h15q93 0 150.5 -50t57.5 -140q0 -51 -27 -90.5t-74 -55.5v-3zM225 583h-87v-202h87v202zM277 583h-24v-202h4q58 0 88 27.5t30 77.5q0 42 -28 69.5t-70 27.5z
M138 92h87v202h-87v-202zM277 92q42 0 70.5 27.5t28.5 69.5q0 50 -30.5 77.5t-88.5 27.5h-4v-202h24z" />
    <glyph glyph-name="Wgrave" unicode="&#x1e80;" horiz-adv-x="985" 
d="M439 863l95 -120h-74l-147 120h126zM970 700l-210 -700h-102l-164 524h-3l-164 -524h-102l-210 700h116l144 -534h2l164 534h103l164 -534h2l144 534h116z" />
    <glyph glyph-name="wgrave" unicode="&#x1e81;" horiz-adv-x="721" 
d="M398 553h-76l-145 154h127zM608 462h108l-155 -462h-90l-110 331l-111 -331h-90l-155 462h108l93 -333l107 333h95l107 -333z" />
    <glyph glyph-name="Wacute" unicode="&#x1e82;" horiz-adv-x="985" 
d="M673 863l-147 -120h-74l95 120h126zM970 700l-210 -700h-102l-164 524h-3l-164 -524h-102l-210 700h116l144 -534h2l164 534h103l164 -534h2l144 534h116z" />
    <glyph glyph-name="wacute" unicode="&#x1e83;" horiz-adv-x="721" 
d="M543 707l-144 -154h-77l95 154h126zM608 462h108l-155 -462h-90l-110 331l-111 -331h-90l-155 462h108l93 -333l107 333h95l107 -333z" />
    <glyph glyph-name="Wdieresis" unicode="&#x1e84;" horiz-adv-x="985" 
d="M441 847v-104h-106v104h106zM651 847v-104h-106v104h106zM970 700l-210 -700h-102l-164 524h-3l-164 -524h-102l-210 700h116l144 -534h2l164 534h103l164 -534h2l144 534h116z" />
    <glyph glyph-name="wdieresis" unicode="&#x1e85;" horiz-adv-x="721" 
d="M316 690v-120h-100v120h100zM504 690v-120h-100v120h100zM608 462h108l-155 -462h-90l-110 331l-111 -331h-90l-155 462h108l93 -333l107 333h95l107 -333z" />
    <glyph glyph-name="Ygrave" unicode="&#x1ef2;" horiz-adv-x="543" 
d="M313 743h-74l-147 120h126zM543 700l-219 -419v-281h-105v280l-219 420h121l149 -309h3l149 309h121z" />
    <glyph glyph-name="ygrave" unicode="&#x1ef3;" horiz-adv-x="485" 
d="M285 553h-76l-145 154h127zM372 462h108l-288 -662h-104l111 242l-194 420h117l127 -303z" />
    <glyph glyph-name="endash" unicode="&#x2013;" horiz-adv-x="752" 
d="M702 312v-88h-652v88h652z" />
    <glyph glyph-name="emdash" unicode="&#x2014;" horiz-adv-x="1154" 
d="M1104 312v-88h-1054v88h1054z" />
    <glyph glyph-name="quoteleft" unicode="&#x2018;" horiz-adv-x="178" 
d="M143 739l-53 -147h45v-105h-105v105l78 147h35z" />
    <glyph glyph-name="quoteright" unicode="&#x2019;" horiz-adv-x="178" 
d="M43 715h105v-105l-78 -147h-35l53 147h-45v105z" />
    <glyph glyph-name="quotesinglbase" unicode="&#x201a;" horiz-adv-x="178" 
d="M43 105h105v-105l-78 -147h-35l53 147h-45v105z" />
    <glyph glyph-name="quotedblleft" unicode="&#x201c;" horiz-adv-x="323" 
d="M108 739h35l-53 -147h45v-105h-105v105zM288 739l-53 -147h45v-105h-105v105l78 147h35z" />
    <glyph glyph-name="quotedblright" unicode="&#x201d;" horiz-adv-x="323" 
d="M43 610v105h105v-105l-78 -147h-35l53 147h-45zM188 715h105v-105l-78 -147h-35l53 147h-45v105z" />
    <glyph glyph-name="quotedblbase" unicode="&#x201e;" horiz-adv-x="323" 
d="M43 0v105h105v-105l-78 -147h-35l53 147h-45zM188 105h105v-105l-78 -147h-35l53 147h-45v105z" />
    <glyph glyph-name="dagger" unicode="&#x2020;" horiz-adv-x="506" 
d="M456 477v-78h-160v-492h-86v492h-160v78h160v223h86v-223h160z" />
    <glyph glyph-name="daggerdbl" unicode="&#x2021;" horiz-adv-x="504" 
d="M454 407h-159v-188h159v-78h-159v-234h-86v234h-159v78h159v188h-159v78h159v215h86v-215h159v-78z" />
    <glyph glyph-name="bullet" unicode="&#x2022;" horiz-adv-x="352" 
d="M176 477q47 0 79 -32t32 -79q0 -48 -32 -79.5t-79 -31.5t-79 31.5t-32 79.5q0 47 32 79t79 32z" />
    <glyph glyph-name="ellipsis" unicode="&#x2026;" horiz-adv-x="701" 
d="M174 119v-119h-119v119h119zM410 119v-119h-119v119h119zM646 119v-119h-119v119h119z" />
    <glyph glyph-name="perthousand" unicode="&#x2030;" horiz-adv-x="1114" 
d="M210 690q71 0 115.5 -45t44.5 -115t-44.5 -115t-115.5 -45t-115.5 45t-44.5 115t44.5 115t115.5 45zM148 0l395 675h57l-395 -675h-57zM210 634q-46 0 -73 -29t-27 -75t27 -75t73 -29t73 29t27 75t-27 75t-73 29zM547 315q71 0 115.5 -45t44.5 -115t-44.5 -115
t-115.5 -45t-115.5 45t-44.5 115t44.5 115t115.5 45zM904 315q71 0 115.5 -45t44.5 -115t-44.5 -115t-115.5 -45t-115.5 45t-44.5 115t44.5 115t115.5 45zM547 259q-46 0 -73 -29t-27 -75t27 -75t73 -29t73 29t27 75t-27 75t-73 29zM904 259q-46 0 -73 -29t-27 -75t27 -75
t73 -29t73 29t27 75t-27 75t-73 29z" />
    <glyph glyph-name="guilsinglleft" unicode="&#x2039;" horiz-adv-x="287" 
d="M277 393l-147 -159l147 -159h-110l-147 159l147 159h110z" />
    <glyph glyph-name="guilsinglright" unicode="&#x203a;" horiz-adv-x="287" 
d="M10 393h110l147 -159l-147 -159h-110l147 159z" />
    <glyph glyph-name="fraction" unicode="&#x2044;" horiz-adv-x="112" 
d="M-170 0l395 675h57l-395 -675h-57z" />
    <glyph glyph-name="uni2070" unicode="&#x2070;" horiz-adv-x="452" 
d="M226 338q-86 0 -136 62t-50 171t50 170.5t136 61.5t136 -61.5t50 -170.5t-50 -171t-136 -62zM226 424q46 0 71 40t25 107t-25 107t-71 40t-71 -40t-25 -107t25 -107t71 -40z" />
    <glyph glyph-name="uni2074" unicode="&#x2074;" horiz-adv-x="423" 
d="M393 511v-86h-53v-77h-86v77h-234v71l223 298h97v-283h53zM120 511h134v173h-3z" />
    <glyph glyph-name="uni2075" unicode="&#x2075;" horiz-adv-x="408" 
d="M197 338q-108 0 -162 74l63 64q39 -57 101 -57q38 0 58.5 20.5t20.5 58.5q0 34 -20 52.5t-55 18.5q-48 0 -75 -39h-72l31 264h240v-86h-173l-14 -93h2q33 26 79 26q64 0 105.5 -39t41.5 -110q0 -72 -45 -113t-126 -41z" />
    <glyph glyph-name="uni2076" unicode="&#x2076;" horiz-adv-x="400" 
d="M201 338q-73 0 -122 45t-49 120q0 46 14 80.5t48 82.5l102 137h113l-162 -183l2 -1q32 32 80 32q59 0 101 -40t42 -117q0 -63 -44.5 -109.5t-124.5 -46.5zM201 420q34 0 57 21t23 59q0 36 -23 56.5t-57 20.5t-57 -20.5t-23 -56.5q0 -38 23 -59t57 -21z" />
    <glyph glyph-name="uni2077" unicode="&#x2077;" horiz-adv-x="346" 
d="M35 348l187 356h-207v90h306v-84l-186 -362h-100z" />
    <glyph glyph-name="uni2078" unicode="&#x2078;" horiz-adv-x="426" 
d="M213 338q-85 0 -129 35t-44 97q0 91 87 112v2q-35 10 -54 37t-19 63q0 56 41.5 87.5t117.5 31.5t117.5 -31.5t41.5 -87.5q0 -36 -19 -63t-54 -37v-2q87 -21 87 -112q0 -62 -44 -97t-129 -35zM213 620q30 0 48.5 15t18.5 39q0 29 -18.5 43.5t-48.5 14.5t-48.5 -14.5
t-18.5 -43.5q0 -24 18.5 -39t48.5 -15zM213 415q36 0 58 19t22 48t-21.5 47.5t-58.5 18.5t-58.5 -18.5t-21.5 -47.5t22 -48t58 -19z" />
    <glyph glyph-name="uni2079" unicode="&#x2079;" horiz-adv-x="404" 
d="M93 348l163 170l-2 2q-40 -30 -84 -30q-57 0 -98.5 43t-41.5 108q0 68 47 115t124 47q75 0 124 -45.5t49 -123.5q0 -91 -81 -185l-88 -101h-112zM202 560q35 0 58.5 21.5t23.5 58.5q0 38 -23.5 59.5t-58.5 21.5t-58.5 -21.5t-23.5 -59.5q0 -37 23.5 -58.5t58.5 -21.5z
" />
    <glyph glyph-name="uni2080" unicode="&#x2080;" horiz-adv-x="452" 
d="M226 -120q-86 0 -136 62t-50 171t50 170.5t136 61.5t136 -61.5t50 -170.5t-50 -171t-136 -62zM226 -34q46 0 71 40t25 107t-25 107t-71 40t-71 -40t-25 -107t25 -107t71 -40z" />
    <glyph glyph-name="uni2081" unicode="&#x2081;" horiz-adv-x="246" 
d="M80 -110v358h-25v88h121v-446h-96z" />
    <glyph glyph-name="uni2082" unicode="&#x2082;" horiz-adv-x="391" 
d="M39 -110v80l166 148q34 30 47 49.5t13 42.5q0 25 -18 39.5t-49 14.5q-32 0 -53 -17.5t-22 -55.5h-88q0 76 43.5 115.5t121.5 39.5q75 0 115 -35.5t40 -97.5q0 -74 -78 -143l-112 -95h196v-85h-322z" />
    <glyph glyph-name="uni2083" unicode="&#x2083;" horiz-adv-x="407" 
d="M199 -120q-163 0 -164 141h88q3 -59 80 -59q81 0 81 64q0 34 -27 46.5t-87 13.5v73q100 1 100 52t-67 51q-71 0 -74 -60h-88q0 67 43 105t123 38q73 0 113.5 -31.5t40.5 -84.5q0 -38 -22 -64.5t-64 -33.5v-2q97 -14 97 -110q0 -63 -42.5 -101t-130.5 -38z" />
    <glyph glyph-name="uni2084" unicode="&#x2084;" horiz-adv-x="423" 
d="M393 53v-86h-53v-77h-86v77h-234v71l223 298h97v-283h53zM120 53h134v173h-3z" />
    <glyph glyph-name="uni2085" unicode="&#x2085;" horiz-adv-x="408" 
d="M197 -120q-108 0 -162 74l63 64q39 -57 101 -57q38 0 58.5 20.5t20.5 58.5q0 34 -20 52.5t-55 18.5q-48 0 -75 -39h-72l31 264h240v-86h-173l-14 -93h2q33 26 79 26q64 0 105.5 -39t41.5 -110q0 -72 -45 -113t-126 -41z" />
    <glyph glyph-name="uni2086" unicode="&#x2086;" horiz-adv-x="400" 
d="M201 -120q-73 0 -122 45t-49 120q0 46 14 80.5t48 82.5l102 137h113l-162 -183l2 -1q32 32 80 32q59 0 101 -40t42 -117q0 -63 -44.5 -109.5t-124.5 -46.5zM201 -38q34 0 57 21t23 59q0 36 -23 56.5t-57 20.5t-57 -20.5t-23 -56.5q0 -38 23 -59t57 -21z" />
    <glyph glyph-name="uni2087" unicode="&#x2087;" horiz-adv-x="346" 
d="M35 -110l187 356h-207v90h306v-84l-186 -362h-100z" />
    <glyph glyph-name="uni2088" unicode="&#x2088;" horiz-adv-x="426" 
d="M213 -120q-85 0 -129 35t-44 97q0 91 87 112v2q-35 10 -54 37t-19 63q0 56 41.5 87.5t117.5 31.5t117.5 -31.5t41.5 -87.5q0 -36 -19 -63t-54 -37v-2q87 -21 87 -112q0 -62 -44 -97t-129 -35zM213 162q30 0 48.5 15t18.5 39q0 29 -18.5 43.5t-48.5 14.5t-48.5 -14.5
t-18.5 -43.5q0 -24 18.5 -39t48.5 -15zM213 -43q36 0 58 19t22 48t-21.5 47.5t-58.5 18.5t-58.5 -18.5t-21.5 -47.5t22 -48t58 -19z" />
    <glyph glyph-name="uni2089" unicode="&#x2089;" horiz-adv-x="404" 
d="M93 -110l163 170l-2 2q-40 -30 -84 -30q-57 0 -98.5 43t-41.5 108q0 68 47 115t124 47q75 0 124 -45.5t49 -123.5q0 -91 -81 -185l-88 -101h-112zM202 102q35 0 58.5 21.5t23.5 58.5q0 38 -23.5 59.5t-58.5 21.5t-58.5 -21.5t-23.5 -59.5q0 -37 23.5 -58.5t58.5 -21.5z
" />
    <glyph glyph-name="TRY" unicode="&#x20a4;" horiz-adv-x="606" 
d="M473 327h93q0 -147 -88 -237t-228 -90h-92v295l-118 -52v31l118 52v56l-118 -52v31l118 52v262h98v-220l196 86v-31l-196 -86v-56l196 86v-31l-196 -86v-235q100 0 158.5 60t58.5 165z" />
    <glyph glyph-name="uni20A9" unicode="&#x20a9;" horiz-adv-x="975" 
d="M955 390h-96l-19 -68h115v-30h-123l-80 -292h-109l-84 292h-143l-84 -292h-109l-80 292h-123v30h115l-19 68h-96v30h88l-70 255h112l60 -255h147l74 255h113l74 -255h147l60 255h112l-70 -255h88v-30zM486 534l-33 -114h69l-33 114h-3zM217 390l16 -68h96l20 68h-132z
M425 322h125l-19 68h-87zM742 322l16 68h-132l20 -68h96zM277 142l43 150h-80l35 -150h2zM700 142l35 150h-80l43 -150h2z" />
    <glyph glyph-name="Euro" unicode="&#x20ac;" horiz-adv-x="658" 
d="M219 283q12 -95 67 -150t142 -55q82 0 163 48v-106q-73 -34 -159 -34q-142 0 -222 82.5t-94 214.5h-111l15 30h94q-1 8 -1 25q0 23 1 34h-104l15 30h92q16 128 95.5 208t218.5 80q108 0 197 -56l-42 -82q-79 46 -157 46q-86 0 -140.5 -52.5t-68.5 -143.5h304l-15 -30
h-293q-1 -11 -1 -34q0 -17 1 -25h265l-15 -30h-247z" />
    <glyph glyph-name="uni20AE" unicode="&#x20ae;" horiz-adv-x="532" 
d="M512 583h-197v-137l127 65v-31l-127 -65v-56l127 65v-31l-127 -65v-328h-98v278l-127 -65v31l127 65v56l-127 -65v31l127 65v187h-197v92h492v-92z" />
    <glyph glyph-name="uni20B4" unicode="&#x20b4;" horiz-adv-x="520" 
d="M383 395q-16 -14 -25 -20l-65 -48h207v-30h-247l-22 -16q-70 -54 -70 -110q0 -40 31 -66.5t93 -26.5q64 0 185 57v-97q-100 -53 -202 -53q-100 0 -154.5 47t-54.5 132q0 76 51 133h-90v30h120q10 9 34 27l56 41h-210v30h250l26 19q52 37 52 84q0 30 -24.5 50t-72.5 20
q-54 0 -163 -41v96q102 37 177 37q91 0 138 -42t47 -115q0 -63 -37 -108h87v-30h-117z" />
    <glyph glyph-name="uni20B8" unicode="&#x20b8;" horiz-adv-x="532" 
d="M20 675h492v-92h-492v92zM20 433v92h492v-92h-197v-433h-98v433h-197z" />
    <glyph glyph-name="uni20B9" unicode="&#x20b9;" horiz-adv-x="517" 
d="M295 645q86 -48 93 -149h89l-22 -30h-66q-5 -81 -65 -131t-147 -50h-15l246 -285h-127l-241 285v94h135q49 0 78 24t33 63h-246v30h246q-5 38 -34 61.5t-77 23.5h-135v94h437l-22 -30h-160z" />
    <glyph glyph-name="uni20BD" unicode="&#x20bd;" horiz-adv-x="614" 
d="M366 281h-126v-71h219v-30h-219v-180h-98v180h-102v30h102v71h-102v92h102v302h224q97 0 152.5 -56.5t55.5 -143.5q0 -86 -55 -140t-153 -54zM240 583v-210h126q50 0 78 26t28 77t-28.5 79t-77.5 28h-126z" />
    <glyph glyph-name="uni2113" unicode="&#x2113;" horiz-adv-x="456" 
d="M191 290q2 -115 24 -165.5t73 -50.5q40 0 115 36v-90q-4 -2 -16.5 -7t-17 -7t-15 -5.5t-17 -5t-17 -4t-20.5 -3t-22 -0.5q-84 0 -123.5 61.5t-45.5 207.5q-35 -13 -69 -24v84q46 16 68 25q2 102 16.5 172.5t40 107.5t55.5 52.5t70 15.5q57 0 91.5 -38t34.5 -99
q0 -159 -225 -263zM286 611q-83 0 -94 -229q139 76 139 172q0 57 -45 57z" />
    <glyph glyph-name="uni2116" unicode="&#x2116;" horiz-adv-x="1130" 
d="M629 700v-700h-109l-344 523h-2v-523h-104v700h109l344 -523h2v523h104zM882 563q92 0 150 -58t58 -150t-58 -149.5t-150 -57.5t-149.5 57.5t-57.5 149.5t57.5 150t149.5 58zM883 479q-53 0 -87.5 -35t-34.5 -89t34.5 -89.5t87.5 -35.5q52 0 86.5 35.5t34.5 89.5t-34 89
t-87 35zM1068 82v-82h-371v82h371z" />
    <glyph glyph-name="trademark" unicode="&#x2122;" horiz-adv-x="840" 
d="M328 634h-115v-355h-68v355h-115v66h298v-66zM725 700l85 -421h-72l-57 278l-91 -214h-56l-91 214l-57 -278h-72l85 421h60l103 -254l103 254h60z" />
    <glyph glyph-name="estimated" unicode="&#x212e;" horiz-adv-x="773" 
d="M35 304q0 131 102.5 223.5t248.5 92.5t249 -92.5t103 -223.5v-9h-574v-140q0 -71 52 -104q68 -45 172 -45q73 0 138.5 27.5t109.5 77.5h29q-50 -58 -123.5 -90.5t-155.5 -32.5q-146 0 -248.5 92.5t-102.5 223.5zM565 552q-65 50 -177 50q-106 0 -172 -46q-52 -35 -52 -85
v-158h445v152q0 53 -44 87z" />
    <glyph glyph-name="uni2153" unicode="&#x2153;" horiz-adv-x="698" 
d="M135 675v-386h-57v329h-38v57h95zM55 0l395 675h57l-395 -675h-57zM519 395q61 0 93.5 -27t32.5 -73q0 -70 -72 -87v-1q85 -14 85 -100q0 -53 -35 -84.5t-109 -31.5q-64 0 -101.5 30.5t-40.5 86.5h61q10 -59 81 -59q84 0 84 64q0 63 -111 63v54q97 2 97 56q0 51 -66 51
q-73 0 -77 -62h-59q8 120 137 120z" />
    <glyph glyph-name="uni2154" unicode="&#x2154;" horiz-adv-x="855" 
d="M180 684q62 0 94.5 -31.5t32.5 -84.5q0 -60 -68 -122l-109 -101h177v-56h-261l-1 51l147 139q54 50 54 88q0 26 -17 42.5t-48 16.5q-69 0 -77 -68h-58q3 62 38.5 94t95.5 32zM212 0l395 675h57l-395 -675h-57zM676 395q61 0 93.5 -27t32.5 -73q0 -70 -72 -87v-1
q85 -14 85 -100q0 -53 -35 -84.5t-109 -31.5q-64 0 -101.5 30.5t-40.5 86.5h61q10 -59 81 -59q84 0 84 64q0 63 -111 63v54q97 2 97 56q0 51 -66 51q-73 0 -77 -62h-59q8 120 137 120z" />
    <glyph glyph-name="oneeighth" unicode="&#x215b;" horiz-adv-x="701" 
d="M135 675v-386h-57v329h-38v57h95zM55 0l395 675h57l-395 -675h-57zM514 -9q-67 0 -104.5 32t-37.5 83q0 76 73 97v2q-60 21 -60 87q0 47 34.5 75t94.5 28t94.5 -28t34.5 -75q0 -66 -60 -87v-2q73 -21 73 -97q0 -51 -37.5 -83t-104.5 -32zM514 230q30 0 49 14.5t19 39.5
t-19 39t-49 14t-49 -14t-19 -39t19 -39.5t49 -14.5zM514 49q82 0 82 65q0 31 -21 48t-61 17t-61 -17t-21 -48q0 -65 82 -65z" />
    <glyph glyph-name="threeeighths" unicode="&#x215c;" horiz-adv-x="847" 
d="M182 684q61 0 93.5 -27t32.5 -73q0 -70 -72 -87v-1q85 -14 85 -100q0 -53 -35 -84.5t-109 -31.5q-64 0 -101.5 30.5t-40.5 86.5h61q10 -59 81 -59q84 0 84 64q0 63 -111 63v54q97 2 97 56q0 51 -66 51q-73 0 -77 -62h-59q8 120 137 120zM201 0l395 675h57l-395 -675h-57z
M660 -9q-67 0 -104.5 32t-37.5 83q0 76 73 97v2q-60 21 -60 87q0 47 34.5 75t94.5 28t94.5 -28t34.5 -75q0 -66 -60 -87v-2q73 -21 73 -97q0 -51 -37.5 -83t-104.5 -32zM660 230q30 0 49 14.5t19 39.5t-19 39t-49 14t-49 -14t-19 -39t19 -39.5t49 -14.5zM660 49q82 0 82 65
q0 31 -21 48t-61 17t-61 -17t-21 -48q0 -65 82 -65z" />
    <glyph glyph-name="fiveeighths" unicode="&#x215d;" horiz-adv-x="820" 
d="M190 543q49 0 84 -34.5t35 -95.5q0 -64 -39 -98.5t-101 -34.5q-93 0 -139 71l45 39q37 -52 94 -52q37 0 58.5 20t21.5 55q0 34 -20 55t-52 21q-47 0 -78 -36h-51l27 222h208v-57h-165l-14 -107h3q32 32 83 32zM174 0l395 675h57l-395 -675h-57zM633 -9q-67 0 -104.5 32
t-37.5 83q0 76 73 97v2q-60 21 -60 87q0 47 34.5 75t94.5 28t94.5 -28t34.5 -75q0 -66 -60 -87v-2q73 -21 73 -97q0 -51 -37.5 -83t-104.5 -32zM633 230q30 0 49 14.5t19 39.5t-19 39t-49 14t-49 -14t-19 -39t19 -39.5t49 -14.5zM633 49q82 0 82 65q0 31 -21 48t-61 17
t-61 -17t-21 -48q0 -65 82 -65z" />
    <glyph glyph-name="seveneighths" unicode="&#x215e;" horiz-adv-x="739" 
d="M273 675v-56l-172 -330h-63l173 327h-191v59h253zM93 0l395 675h57l-395 -675h-57zM552 -9q-67 0 -104.5 32t-37.5 83q0 76 73 97v2q-60 21 -60 87q0 47 34.5 75t94.5 28t94.5 -28t34.5 -75q0 -66 -60 -87v-2q73 -21 73 -97q0 -51 -37.5 -83t-104.5 -32zM552 230
q30 0 49 14.5t19 39.5t-19 39t-49 14t-49 -14t-19 -39t19 -39.5t49 -14.5zM552 49q82 0 82 65q0 31 -21 48t-61 17t-61 -17t-21 -48q0 -65 82 -65z" />
    <glyph glyph-name="arrowleft" unicode="&#x2190;" horiz-adv-x="818" 
d="M768 334v-88h-556l205 -203l-67 -68l-300 315l300 315l67 -68l-205 -203h556z" />
    <glyph glyph-name="arrowup" unicode="&#x2191;" horiz-adv-x="730" 
d="M680 339l-68 -67l-203 205v-556h-88v556l-203 -205l-68 67l315 300z" />
    <glyph glyph-name="arrowright" unicode="&#x2192;" horiz-adv-x="818" 
d="M468 606l300 -315l-300 -315l-67 68l205 203h-556v88h556l-205 203z" />
    <glyph glyph-name="arrowdown" unicode="&#x2193;" horiz-adv-x="730" 
d="M612 309l68 -67l-315 -300l-315 300l68 67l203 -205v556h88v-556z" />
    <glyph glyph-name="arrowboth" unicode="&#x2194;" horiz-adv-x="1257" 
d="M907 605l300 -315l-300 -315l-67 68l205 203h-833l205 -203l-67 -68l-300 315l300 315l67 -68l-205 -203h833l-205 203z" />
    <glyph glyph-name="arrowupdn" unicode="&#x2195;" horiz-adv-x="730" 
d="M409 -69l203 205l68 -67l-315 -300l-315 300l68 67l203 -205v731l-203 -205l-68 67l315 300l315 -300l-68 -67l-203 205v-731z" />
    <glyph glyph-name="uni2196" unicode="&#x2196;" horiz-adv-x="649" 
d="M599 61l-62 -62l-394 394l2 -290l-95 -1l10 435l435 11l-1 -96l-288 2z" />
    <glyph glyph-name="uni2197" unicode="&#x2197;" horiz-adv-x="649" 
d="M599 102l-96 1l2 288l-393 -393l-62 62l394 394l-290 -2l-1 95l435 -10z" />
    <glyph glyph-name="uni2198" unicode="&#x2198;" horiz-adv-x="649" 
d="M504 477l95 1l-10 -435l-435 -11l1 96l288 -2l-393 393l62 62l394 -394z" />
    <glyph glyph-name="uni2199" unicode="&#x2199;" horiz-adv-x="649" 
d="M205 126l290 2l1 -95l-435 10l-11 435l96 -1l-2 -288l393 393l62 -62z" />
    <glyph glyph-name="partialdiff" unicode="&#x2202;" horiz-adv-x="573" 
d="M238 715q131 0 213 -90.5t82 -271.5q0 -160 -67 -264t-197 -104q-103 0 -166 64.5t-63 167.5q0 106 66.5 170t167.5 64q102 0 164 -69q-7 116 -61.5 177.5t-141.5 61.5q-62 0 -134 -35l-39 87q82 42 176 42zM276 77q135 0 159 196q-57 85 -156 85q-65 0 -103 -39.5
t-38 -102.5t39 -101t99 -38z" />
    <glyph glyph-name="emptyset" unicode="&#x2205;" 
d="M478 482q60 -65 60 -158q0 -100 -68 -166t-170 -66q-92 0 -158 55l-56 -56l-19 20l55 55q-60 65 -60 158q0 100 68 166t170 66q93 0 157 -55l56 56l20 -20zM160 324q0 -52 30 -90l200 200q-36 30 -90 30q-62 0 -101 -39.5t-39 -100.5zM300 184q62 0 101 39.5t39 100.5
q0 52 -30 90l-201 -200q38 -30 91 -30z" />
    <glyph glyph-name="product" unicode="&#x220f;" horiz-adv-x="710" 
d="M690 700v-90h-121v-688h-92v688h-244v-688h-92v688h-121v90h670z" />
    <glyph glyph-name="summation" unicode="&#x2211;" horiz-adv-x="551" 
d="M511 700v-92h-354l265 -313l-265 -313h354v-92h-471v93l265 312l-265 312v93h471z" />
    <glyph glyph-name="minus" unicode="&#x2212;" 
d="M539 322v-48h-478v48h478z" />
    <glyph glyph-name="radical" unicode="&#x221a;" horiz-adv-x="605" 
d="M493 715h92l-226 -715h-89l-152 377h-98v85h156l133 -336z" />
    <glyph glyph-name="infinity" unicode="&#x221e;" horiz-adv-x="760" 
d="M580 450q72 0 116 -41.5t44 -111.5t-44 -111.5t-116 -41.5q-60 0 -104.5 31t-95.5 89q-49 -58 -94 -89t-105 -31q-73 0 -117 41.5t-44 111.5t44 111.5t117 41.5q60 0 105 -31t94 -89q51 58 95.5 89t104.5 31zM181 407q-52 0 -84 -30.5t-32 -79.5t32 -79.5t84 -30.5
q49 0 87.5 28t83.5 82q-45 54 -83.5 82t-87.5 28zM580 407q-49 0 -86.5 -28t-84.5 -82q47 -54 84.5 -82t86.5 -28q51 0 83 30.5t32 79.5t-32 79.5t-83 30.5z" />
    <glyph glyph-name="integral" unicode="&#x222b;" horiz-adv-x="380" 
d="M340 715v-88q-104 0 -104 -109v-548q0 -90 -50.5 -137.5t-145.5 -47.5v88q49 1 75 26.5t26 82.5v548q0 90 51 137.5t148 47.5z" />
    <glyph glyph-name="approxequal" unicode="&#x2248;" 
d="M168 446q42 0 136.5 -39.5t126.5 -39.5q56 0 79 68h46q-31 -118 -124 -118q-43 0 -137 39.5t-126 39.5q-56 0 -79 -68h-46q16 61 49 89.5t75 28.5zM168 297q42 0 136.5 -39.5t126.5 -39.5q56 0 79 69h46q-31 -118 -124 -118q-44 0 -138 39t-125 39q-56 0 -79 -69h-46
q16 61 49 90t75 29z" />
    <glyph glyph-name="notequal" unicode="&#x2260;" 
d="M553 370h-186l-85 -141h271v-48h-299l-59 -98h-47l58 98h-159v48h188l84 141h-272v48h301l57 96h48l-57 -96h157v-48z" />
    <glyph glyph-name="lessequal" unicode="&#x2264;" 
d="M523 489v-50l-380 -98l380 -96v-51l-450 122v51zM529 156v-46h-458v46h458z" />
    <glyph glyph-name="greaterequal" unicode="&#x2265;" 
d="M77 489l450 -122v-51l-450 -122v51l380 96l-380 98v50zM71 156h458v-46h-458v46z" />
    <glyph glyph-name="uni2460" unicode="&#x2460;" horiz-adv-x="830" 
d="M415 -15q-161 0 -263 103t-102 262t102 262t263 103t263 -103t102 -262t-102 -262t-263 -103zM415 45q130 0 215 86.5t85 218.5t-85 218.5t-215 86.5t-215 -86.5t-85 -218.5t85 -218.5t215 -86.5zM396 162v329h-38v57h95v-386h-57z" />
    <glyph glyph-name="uni2461" unicode="&#x2461;" horiz-adv-x="830" 
d="M415 -15q-161 0 -263 103t-102 262t102 262t263 103t263 -103t102 -262t-102 -262t-263 -103zM415 45q130 0 215 86.5t85 218.5t-85 218.5t-215 86.5t-215 -86.5t-85 -218.5t85 -218.5t215 -86.5zM297 176l-1 51l147 139q54 50 54 88q0 26 -17 42.5t-48 16.5
q-68 0 -77 -59h-58q3 56 38 86.5t96 30.5q62 0 94.5 -31.5t32.5 -84.5q0 -34 -17 -61.5t-51 -60.5l-109 -101h177v-56h-261z" />
    <glyph glyph-name="uni2462" unicode="&#x2462;" horiz-adv-x="830" 
d="M415 -15q-161 0 -263 103t-102 262t102 262t263 103t263 -103t102 -262t-102 -262t-263 -103zM415 45q130 0 215 86.5t85 218.5t-85 218.5t-215 86.5t-215 -86.5t-85 -218.5t85 -218.5t215 -86.5zM415 152q-63 0 -101 30.5t-41 86.5h61q6 -59 81 -59q84 0 84 64
q0 63 -111 63v54q92 2 92 56q0 51 -64 51q-65 0 -69 -50h-59q4 51 36 79.5t93 28.5q58 0 91 -28t33 -72q0 -32 -17.5 -55.5t-49.5 -31.5v-1q85 -14 85 -100q0 -53 -35 -84.5t-109 -31.5z" />
    <glyph glyph-name="uni2463" unicode="&#x2463;" horiz-adv-x="830" 
d="M415 715q161 0 263 -103t102 -262t-102 -262t-263 -103t-263 103t-102 262t102 262t263 103zM415 45q130 0 215 86.5t85 218.5t-85 218.5t-215 86.5t-215 -86.5t-85 -218.5t85 -218.5t215 -86.5zM509 549v-257h51v-56h-51v-73h-59v73h-203v53l184 260h78zM312 292h138
v194h-2z" />
    <glyph glyph-name="uni2464" unicode="&#x2464;" horiz-adv-x="830" 
d="M415 -15q-161 0 -263 103t-102 262t102 262t263 103t263 -103t102 -262t-102 -262t-263 -103zM415 45q130 0 215 86.5t85 218.5t-85 218.5t-215 86.5t-215 -86.5t-85 -218.5t85 -218.5t215 -86.5zM419 152q-93 0 -139 71l45 39q37 -52 94 -52q37 0 58.5 20t21.5 55
q0 34 -20 55t-52 21q-45 0 -78 -36h-51l27 222h208v-57h-165l-14 -107h3q32 32 83 32q49 0 84 -34.5t35 -95.5q0 -64 -39 -98.5t-101 -34.5z" />
    <glyph glyph-name="uni2465" unicode="&#x2465;" horiz-adv-x="830" 
d="M415 -15q-161 0 -263 103t-102 262t102 262t263 103t263 -103t102 -262t-102 -262t-263 -103zM415 45q130 0 215 86.5t85 218.5t-85 218.5t-215 86.5t-215 -86.5t-85 -218.5t85 -218.5t215 -86.5zM415 153q-62 0 -102.5 37.5t-40.5 107.5q0 33 11 63.5t21.5 46t29.5 39.5
l88 110h74l-139 -163l1 -1q34 27 73 27q53 0 88.5 -34.5t35.5 -93.5q0 -60 -37.5 -99.5t-102.5 -39.5zM414 211q35 0 58 21t23 57t-23 57t-58 21q-36 0 -59 -21t-23 -57t23 -57t59 -21z" />
    <glyph glyph-name="uni2466" unicode="&#x2466;" horiz-adv-x="830" 
d="M415 -15q-161 0 -263 103t-102 262t102 262t263 103t263 -103t102 -262t-102 -262t-263 -103zM415 45q130 0 215 86.5t85 218.5t-85 218.5t-215 86.5t-215 -86.5t-85 -218.5t85 -218.5t215 -86.5zM326 153l171 327h-189v59h253v-56l-172 -330h-63z" />
    <glyph glyph-name="uni2467" unicode="&#x2467;" horiz-adv-x="830" 
d="M415 -15q-161 0 -263 103t-102 262t102 262t263 103t263 -103t102 -262t-102 -262t-263 -103zM415 45q130 0 215 86.5t85 218.5t-85 218.5t-215 86.5t-215 -86.5t-85 -218.5t85 -218.5t215 -86.5zM416 154q-67 0 -104.5 32t-37.5 83q0 76 73 97v2q-27 9 -43.5 32.5
t-16.5 54.5q0 47 34.5 75t94.5 28t94.5 -28t34.5 -75q0 -31 -16.5 -54.5t-43.5 -32.5v-2q73 -21 73 -97q0 -51 -37.5 -83t-104.5 -32zM416 393q30 0 49 14.5t19 39.5t-19 39t-49 14t-49 -14t-19 -39t19 -39.5t49 -14.5zM416 212q82 0 82 65q0 31 -21 48t-61 17t-61 -17
t-21 -48q0 -65 82 -65z" />
    <glyph glyph-name="uni2468" unicode="&#x2468;" horiz-adv-x="830" 
d="M415 -15q-161 0 -263 103t-102 262t102 262t263 103t263 -103t102 -262t-102 -262t-263 -103zM415 45q130 0 215 86.5t85 218.5t-85 218.5t-215 86.5t-215 -86.5t-85 -218.5t85 -218.5t215 -86.5zM340 155l141 152l-1 2q-44 -29 -78 -29q-52 0 -86 37t-34 93
q0 60 39 99.5t105 39.5q65 0 104.5 -38t39.5 -107q0 -76 -56 -140l-95 -109h-79zM426 332q38 0 61 22t23 58t-22.5 57.5t-60.5 21.5q-37 0 -61 -22.5t-24 -58.5q0 -35 23 -56.5t61 -21.5z" />
    <glyph glyph-name="uni24EA" unicode="&#x24ea;" horiz-adv-x="830" 
d="M415 -15q-161 0 -263 103t-102 262t102 262t263 103t263 -103t102 -262t-102 -262t-263 -103zM415 45q130 0 215 86.5t85 218.5t-85 218.5t-215 86.5t-215 -86.5t-85 -218.5t85 -218.5t215 -86.5zM416 150q-78 0 -122.5 54t-44.5 149t44.5 148t122.5 53q76 0 120.5 -53.5
t44.5 -147.5q0 -95 -44.5 -149t-120.5 -54zM415 209q50 0 77 39t27 105t-27.5 104.5t-76.5 38.5t-77 -39t-28 -104q0 -66 28 -105t77 -39z" />
    <glyph glyph-name="uni24FF" unicode="&#x24ff;" horiz-adv-x="830" 
d="M415 -15q-157 0 -261 104.5t-104 260.5t104 260.5t261 104.5t261 -104.5t104 -260.5t-104 -260.5t-261 -104.5zM416 150q76 0 120.5 54t44.5 149q0 94 -44.5 147.5t-120.5 53.5q-78 0 -122.5 -53t-44.5 -148t44.5 -149t122.5 -54zM415 209q-49 0 -77 39t-28 105
q0 65 28 104t77 39t76.5 -38.5t27.5 -104.5t-27 -105t-77 -39z" />
    <glyph glyph-name="lozenge" unicode="&#x25ca;" horiz-adv-x="584" 
d="M346 715l218 -365l-218 -365h-108l-218 365l218 365h108zM292 637l-169 -287l169 -287l169 287z" />
    <glyph glyph-name="uni2776" unicode="&#x2776;" horiz-adv-x="830" 
d="M415 -15q-157 0 -261 104.5t-104 260.5t104 260.5t261 104.5t261 -104.5t104 -260.5t-104 -260.5t-261 -104.5zM396 163h57v386h-95v-57h38v-329z" />
    <glyph glyph-name="uni2777" unicode="&#x2777;" horiz-adv-x="830" 
d="M415 -15q-157 0 -261 104.5t-104 260.5t104 260.5t261 104.5t261 -104.5t104 -260.5t-104 -260.5t-261 -104.5zM285 172h261v56h-177l109 101q34 33 51 60.5t17 61.5q0 53 -32.5 84.5t-94.5 31.5q-61 0 -96 -30.5t-38 -86.5h58q9 59 77 59q31 0 48 -16.5t17 -42.5
q0 -38 -54 -88l-147 -139z" />
    <glyph glyph-name="uni2778" unicode="&#x2778;" horiz-adv-x="830" 
d="M415 -15q-157 0 -261 104.5t-104 260.5t104 260.5t261 104.5t261 -104.5t104 -260.5t-104 -260.5t-261 -104.5zM413 156q74 0 109 31.5t35 84.5q0 86 -85 100v1q32 8 49.5 31.5t17.5 55.5q0 44 -33 72t-91 28q-61 0 -93 -28.5t-36 -79.5h59q4 50 69 50q64 0 64 -51
q0 -54 -92 -56v-54q111 0 111 -63q0 -64 -84 -64q-75 0 -81 59h-61q3 -56 41 -86.5t101 -30.5z" />
    <glyph glyph-name="uni2779" unicode="&#x2779;" horiz-adv-x="830" 
d="M415 -15q-157 0 -261 104.5t-104 260.5t104 260.5t261 104.5t261 -104.5t104 -260.5t-104 -260.5t-261 -104.5zM443 170h59v73h51v56h-51v257h-78l-184 -260v-53h203v-73zM305 299l136 194h2v-194h-138z" />
    <glyph glyph-name="uni277A" unicode="&#x277a;" horiz-adv-x="830" 
d="M415 -15q-157 0 -261 104.5t-104 260.5t104 260.5t261 104.5t261 -104.5t104 -260.5t-104 -260.5t-261 -104.5zM414 152q62 0 101 34.5t39 98.5q0 61 -35 95.5t-84 34.5q-51 0 -83 -32h-3l14 107h165v57h-208l-27 -222h51q33 36 78 36q32 0 52 -21t20 -55
q0 -35 -21.5 -55t-58.5 -20q-57 0 -94 52l-45 -39q46 -71 139 -71z" />
    <glyph glyph-name="uni277B" unicode="&#x277b;" horiz-adv-x="830" 
d="M415 -15q-157 0 -261 104.5t-104 260.5t104 260.5t261 104.5t261 -104.5t104 -260.5t-104 -260.5t-261 -104.5zM414 157q65 0 102.5 39.5t37.5 99.5q0 59 -35.5 93.5t-88.5 34.5q-39 0 -73 -27l-1 1l139 163h-74l-88 -110q-19 -24 -29.5 -39.5t-21.5 -46t-11 -63.5
q0 -70 40.5 -107.5t102.5 -37.5zM413 215q-36 0 -59 21t-23 57t23 57t59 21q35 0 58 -21t23 -57t-23 -57t-58 -21z" />
    <glyph glyph-name="uni277C" unicode="&#x277c;" horiz-adv-x="830" 
d="M415 -15q-157 0 -261 104.5t-104 260.5t104 260.5t261 104.5t261 -104.5t104 -260.5t-104 -260.5t-261 -104.5zM320 153h63l172 330v56h-253v-59h189z" />
    <glyph glyph-name="uni277D" unicode="&#x277d;" horiz-adv-x="830" 
d="M415 -15q-157 0 -261 104.5t-104 260.5t104 260.5t261 104.5t261 -104.5t104 -260.5t-104 -260.5t-261 -104.5zM416 154q67 0 104.5 32t37.5 83q0 76 -73 97v2q27 9 43.5 32.5t16.5 54.5q0 47 -34.5 75t-94.5 28t-94.5 -28t-34.5 -75q0 -31 16.5 -54.5t43.5 -32.5v-2
q-73 -21 -73 -97q0 -51 37.5 -83t104.5 -32zM416 393q-30 0 -49 14.5t-19 39.5t19 39t49 14t49 -14t19 -39t-19 -39.5t-49 -14.5zM416 212q-82 0 -82 65q0 31 21 48t61 17t61 -17t21 -48q0 -65 -82 -65z" />
    <glyph glyph-name="uni277E" unicode="&#x277e;" horiz-adv-x="830" 
d="M415 -15q-157 0 -261 104.5t-104 260.5t104 260.5t261 104.5t261 -104.5t104 -260.5t-104 -260.5t-261 -104.5zM332 154h79l95 109q56 64 56 140q0 69 -39.5 107t-104.5 38q-66 0 -105 -39.5t-39 -99.5q0 -56 34 -93t86 -37q34 0 78 29l1 -2zM418 331q-38 0 -61 21.5
t-23 56.5q0 36 24 58.5t61 22.5q38 0 60.5 -21.5t22.5 -57.5t-23 -58t-61 -22z" />
    <glyph glyph-name="uniF8FF" unicode="&#xf8ff;" horiz-adv-x="865" 
d="M50 676q0 16 10.5 26t26.5 10q15 0 26 -10.5t11 -25.5q0 -24 -18 -34v-24q103 42 173 42q45 0 76 -21.5t31 -61.5v-25q55 12 104 12q57 0 96.5 -19t39.5 -64v-48q48 12 81 12q55 0 81.5 -21.5t26.5 -57.5v-240q-52 32 -107 32q-25 0 -63.5 -10t-56.5 -10q-51 0 -51 46v86
q-23 5 -47 5t-73 -9t-67 -9q-54 0 -54 46v68h-14q-62 0 -176 -44v-327h-39v643q-17 11 -17 33zM357 577q0 28 -22.5 41.5t-54.5 13.5q-63 0 -174 -45v-230q110 42 175 42q45 0 76 -14v192zM312 580l-65 -95v-68h-30v68l-65 95h38l42 -64l42 64h38zM598 474q0 11 -2.5 18.5
t-11 19t-32.5 18t-60 6.5q-45 0 -106 -12v-171q0 -18 -32 -29t-32 -25t27 -14q17 0 65 8.5t76 8.5q63 0 108 -25v197zM400 414q0 35 22.5 58t57.5 23t57.5 -23t22.5 -58t-22.5 -58t-57.5 -23t-57.5 23t-22.5 58zM530 414q0 23 -14 37.5t-36 14.5t-36 -14.5t-14 -37.5
t14 -37.5t36 -14.5t36 14.5t14 37.5zM788 365q0 51 -80 51q-34 0 -82 -12v-167q0 -12 -9.5 -20t-21.5 -11.5t-21.5 -9.5t-9.5 -15q0 -16 25 -16q14 0 53.5 10.5t64.5 10.5q39 0 81 -15v194zM709 373l-10 -100h-16l-10 100h36zM356 352q0 11 -32 16v-32q5 3 13.5 5.5
t13.5 4.5t5 6zM598 240q0 13 -34 24v-47q5 3 12 6.5t11.5 5t7.5 4.5t3 7zM671 231q0 19 20 19t20 -19q0 -20 -20 -20t-20 20z" />
    <glyph glyph-name="CR" horiz-adv-x="328" 
 />
    <glyph glyph-name="i.loclTRK" horiz-adv-x="228" 
d="M174 690v-120h-120v120h120zM65 0v462h98v-462h-98z" />
    <glyph glyph-name="XBT" horiz-adv-x="516" 
d="M375 336q47 -16 74 -56t27 -92q0 -88 -55 -137.5t-140 -50.5v-87h-28v87h-49v-87h-28v87h-136v675h136v87h28v-87h49v87h28v-87q85 -1 140 -50t55 -137q0 -52 -27 -92.5t-74 -56.5v-3zM260 583h-122v-202h119q58 0 88 27.5t30 77.5q0 44 -30.5 70.5t-84.5 26.5zM260 92
q54 0 85 26.5t31 70.5q0 50 -30.5 77.5t-88.5 27.5h-119v-202h122z" />
    <glyph glyph-name="dollar.tf" 
d="M523 184q0 -89 -54.5 -141.5t-150.5 -57.5v-62h-28v62q-101 4 -157 59t-56 146h100q5 -59 33.5 -85t79.5 -28v234q-91 39 -123 65q-63 50 -63 136q0 78 48.5 126t137.5 52v72h28v-72q86 -3 139 -48.5t53 -133.5h-100q-4 85 -92 90v-191q91 -40 119 -60q86 -58 86 -163z
M206 517q0 -34 21.5 -56t62.5 -42v178q-84 -8 -84 -80zM318 78q103 6 103 97q0 45 -26.5 72.5t-76.5 50.5v-220z" />
    <glyph glyph-name="cent.tf" 
d="M353 77q55 0 140 44v-98q-65 -38 -137 -38h-3v-49h-28v51q-98 10 -158.5 78t-60.5 166t61.5 166.5t157.5 78.5v55h28v-54q75 0 135 -32v-97q-75 37 -132 37h-3v-308zM208 232q0 -62 32.5 -103t84.5 -50v303q-53 -9 -85 -49t-32 -101z" />
    <glyph glyph-name="sterling.tf" 
d="M213 98v-2h301v-96h-424v75q49 29 82.5 72t33.5 90q0 38 -39 108h-93v30h77q-31 62 -31 120q0 85 55.5 140t150.5 55q88 0 144 -49t56 -143h-100q-2 50 -28.5 75t-71.5 25q-49 0 -76.5 -29t-27.5 -75q0 -43 39 -119h180v-30h-165q31 -62 31 -103q0 -83 -94 -144z" />
    <glyph glyph-name="florin.tf" 
d="M437 585q-95 0 -95 -91v-32h133v-30h-133v-451q0 -181 -175 -181h-43v90h40q80 0 80 81v461h-101v30h101v22q0 95 49.5 143t139.5 48h42v-90h-38z" />
    <glyph glyph-name="yen.tf" 
d="M560 675l-157 -323h115v-30h-129l-27 -56h156v-30h-170v-236h-98v236h-169v30h157l-27 56h-130v30h116l-157 323h111l149 -337l149 337h111z" />
    <glyph glyph-name="Euro.tf" 
d="M201 283q12 -94 64.5 -147.5t135.5 -53.5q78 0 153 48v-110q-68 -34 -149 -34q-138 0 -215 82.5t-91 214.5h-91l15 30h74q-1 8 -1 25q0 23 1 34h-84l15 30h72q15 128 92 208t212 80q103 0 187 -56l-42 -86q-73 46 -147 46q-82 0 -133.5 -51t-65.5 -141h294l-15 -30h-283
q-1 -11 -1 -34q0 -17 1 -25h260l-15 -30h-243z" />
    <glyph glyph-name="Indianrupeesign.tf" 
d="M336 645q86 -48 93 -149h89l-22 -30h-66q-5 -81 -65 -131t-147 -50h-15l246 -285h-127l-241 285v94h135q49 0 78 24t33 63h-246v30h246q-5 38 -34 61.5t-77 23.5h-135v94h437l-22 -30h-160z" />
    <glyph glyph-name="THB.tf" 
d="M417 336q47 -16 74 -55.5t27 -90.5q0 -91 -57.5 -140.5t-150.5 -49.5h-15v-87h-28v87h-185v675h185v87h28v-87h15q93 0 150.5 -50t57.5 -140q0 -51 -27 -90.5t-74 -55.5v-3zM267 583h-87v-202h87v202zM319 583h-24v-202h4q58 0 88 27.5t30 77.5q0 42 -28 69.5t-70 27.5z
M180 92h87v202h-87v-202zM319 92q42 0 70.5 27.5t28.5 69.5q0 50 -30.5 77.5t-88.5 27.5h-4v-202h24z" />
    <glyph glyph-name="RUB.tf" 
d="M359 281h-126v-71h219v-30h-219v-180h-98v180h-102v30h102v71h-102v92h102v302h224q97 0 152.5 -56.5t55.5 -143.5q0 -86 -55 -140t-153 -54zM233 583v-210h126q50 0 78 26t28 77t-28.5 79t-77.5 28h-126z" />
    <glyph glyph-name="TRY.tf" 
d="M470 327h93q0 -147 -88 -237t-228 -90h-92v295l-118 -52v31l118 52v56l-118 -52v31l118 52v262h98v-220l196 86v-31l-196 -86v-56l196 86v-31l-196 -86v-235q100 0 158.5 60t58.5 165z" />
    <glyph glyph-name="uni20A9.tf" 
d="M600 391h-62l-11 -68h73v-30h-77l-45 -293h-92l-48 293h-76l-48 -293h-91l-45 293h-78v30h74l-11 68h-63v30h59l-39 254h93l29 -254h74l41 254h87l41 -254h74l29 254h93l-39 -254h58v-30zM298 517l-16 -96h36l-16 96h-4zM145 391l8 -68h48l11 68h-67zM266 323h68l-12 68
h-44zM448 323l8 68h-67l11 -68h48zM175 163l21 130h-40l15 -130h4zM430 163l15 130h-40l21 -130h4z" />
    <glyph glyph-name="uni20B4.tf" 
d="M423 395q-16 -14 -25 -20l-65 -48h207v-30h-247l-22 -16q-70 -54 -70 -110q0 -40 31 -66.5t93 -26.5q64 0 185 57v-97q-100 -53 -202 -53q-100 0 -154.5 47t-54.5 132q0 76 51 133h-90v30h120q10 9 34 27l56 41h-210v30h250l26 19q52 37 52 84q0 30 -24.5 50t-72.5 20
q-54 0 -163 -41v96q102 37 177 37q91 0 138 -42t47 -115q0 -63 -37 -108h87v-30h-117z" />
    <glyph glyph-name="XBT.tf" 
d="M417 336q47 -16 74 -56t27 -92q0 -88 -55 -137.5t-140 -50.5v-87h-28v87h-49v-87h-28v87h-136v675h136v87h28v-87h49v87h28v-87q85 -1 140 -50t55 -137q0 -52 -27 -92.5t-74 -56.5v-3zM302 583h-122v-202h119q58 0 88 27.5t30 77.5q0 44 -30.5 70.5t-84.5 26.5zM302 92
q54 0 85 26.5t31 70.5q0 50 -30.5 77.5t-88.5 27.5h-119v-202h122z" />
    <glyph glyph-name="uni20B8.tf" 
d="M54 675h492v-92h-492v92zM54 433v92h492v-92h-197v-433h-98v433h-197z" />
    <glyph glyph-name="uni20AE.tf" 
d="M546 583h-197v-137l127 65v-31l-127 -65v-56l127 65v-31l-127 -65v-328h-98v278l-127 -65v31l127 65v56l-127 -65v31l127 65v187h-197v92h492v-92z" />
    <glyph glyph-name="perthousand.tf" 
d="M147 380q-57 0 -94.5 43t-37.5 112t37.5 112t94.5 43t94.5 -43t37.5 -112t-37.5 -112t-94.5 -43zM147 636q-31 0 -53.5 -26.5t-22.5 -74.5t22.5 -74.5t53.5 -26.5t53.5 26.5t22.5 74.5t-22.5 74.5t-53.5 26.5zM527 504l12 -25l-500 -232l-12 25zM453 295q57 0 94.5 -43
t37.5 -112t-37.5 -112t-94.5 -43q-66 0 -104 55q-38 -55 -104 -55q-57 0 -94.5 43t-37.5 112t37.5 112t94.5 43q66 0 104 -55q38 55 104 55zM245 39q31 0 53.5 26.5t22.5 74.5t-22.5 74.5t-53.5 26.5t-53.5 -26.5t-22.5 -74.5t22.5 -74.5t53.5 -26.5zM453 39q31 0 53.5 26.5
t22.5 74.5t-22.5 74.5t-53.5 26.5t-53.5 -26.5t-22.5 -74.5t22.5 -74.5t53.5 -26.5z" />
    <glyph glyph-name="zero.zero" horiz-adv-x="566" 
d="M443 620q78 -90 78 -282q0 -170 -61.5 -261.5t-176.5 -91.5q-79 0 -136 46l-31 -62l-26 11l36 72q-81 90 -81 286q0 170 61.5 261t176.5 91q82 0 139 -49l28 55l26 -11zM147 338q0 -114 31 -182l196 389q-36 53 -91 53q-64 0 -100 -69t-36 -191zM283 77q64 0 100 69.5
t36 191.5q0 109 -29 176l-195 -388q35 -49 88 -49z" />
    <glyph glyph-name="zero.tf.zero" 
d="M460 620q78 -90 78 -282q0 -170 -61.5 -261.5t-176.5 -91.5q-79 0 -136 46l-31 -62l-26 11l36 72q-81 90 -81 286q0 170 61.5 261t176.5 91q82 0 139 -49l28 55l26 -11zM164 338q0 -114 31 -182l196 389q-36 53 -91 53q-64 0 -100 -69t-36 -191zM300 77q64 0 100 69.5
t36 191.5q0 109 -29 176l-195 -388q35 -49 88 -49z" />
    <glyph glyph-name="zero.tf" 
d="M300 690q115 0 176.5 -91t61.5 -261t-61.5 -261.5t-176.5 -91.5t-176.5 91.5t-61.5 261.5t61.5 261t176.5 91zM300 598q-64 0 -100 -69t-36 -191t36 -191.5t100 -69.5t100 69.5t36 191.5t-36 191t-100 69z" />
    <glyph glyph-name="one.tf" 
d="M354 98h153v-98h-414v98h163v479h-112v98h210v-577z" />
    <glyph glyph-name="two.tf" 
d="M83 0v72l233 264q49 55 68.5 91t19.5 70q0 46 -28.5 73.5t-77.5 27.5q-52 0 -83 -29.5t-32 -81.5h-98q2 94 60.5 148.5t156.5 54.5q95 0 149.5 -50t54.5 -138q0 -52 -24.5 -102t-83.5 -115l-172 -191h279v-94h-422z" />
    <glyph glyph-name="three.tf" 
d="M289 690q94 0 150.5 -47.5t56.5 -125.5q0 -59 -32 -101t-89 -55v-2q70 -8 107.5 -52.5t37.5 -118.5q0 -95 -59.5 -149t-163.5 -54t-164 52t-63 144h98q4 -49 38 -76.5t91 -27.5q120 0 120 117q0 62 -37.5 89t-121.5 26h-32v88h32q136 0 136 103q0 47 -27.5 72.5
t-79.5 25.5q-53 0 -82.5 -24.5t-30.5 -70.5h-98q3 86 60.5 136.5t152.5 50.5z" />
    <glyph glyph-name="four.tf" 
d="M547 213v-94h-71v-119h-96v119h-328v82l331 474h93v-462h71zM158 213h222v313h-4z" />
    <glyph glyph-name="five.tf" 
d="M331 444q94 0 150 -60t56 -160q0 -111 -63 -175t-172 -64q-83 0 -143.5 36t-90.5 104l83 51q50 -99 151 -99q62 0 97.5 38.5t35.5 106.5q0 64 -35 101t-94 37q-36 0 -67.5 -15t-48.5 -40h-87l35 370h345v-94h-266l-19 -181h2q49 44 131 44z" />
    <glyph glyph-name="six.tf" 
d="M301 -15q-109 0 -174 66.5t-65 176.5q0 83 31 154.5t105 157.5l118 140h122l-248 -290l3 -2q57 61 132 61q94 0 153.5 -64t59.5 -166q0 -104 -66 -169t-171 -65zM300 77q62 0 99 38.5t37 103.5t-37 103t-100 38q-62 0 -99 -38.5t-37 -103.5t37 -103t100 -38z" />
    <glyph glyph-name="seven.tf" 
d="M510 675v-85l-271 -590h-104l270 580h-315v95h420z" />
    <glyph glyph-name="eight.tf" 
d="M300 -15q-106 0 -168 54.5t-62 147.5q0 64 33 110.5t91 63.5v2q-47 14 -76 55t-29 94q0 80 58 129t153 49t153 -49t58 -129q0 -53 -29 -94t-76 -55v-2q58 -17 91 -63.5t33 -110.5q0 -93 -62 -147.5t-168 -54.5zM300 405q50 0 79 26.5t29 72.5t-29 72.5t-79 26.5
t-79 -26.5t-29 -72.5t29 -72.5t79 -26.5zM300 72q61 0 94 32t33 91q0 56 -34.5 88.5t-92.5 32.5t-92.5 -32.5t-34.5 -88.5q0 -59 33 -91t94 -32z" />
    <glyph glyph-name="nine.tf" 
d="M174 0l239 293l-2 2q-52 -57 -135 -57q-90 0 -150 64t-60 159q0 101 65.5 165t168.5 64q108 0 170.5 -68t62.5 -184q0 -74 -29.5 -142.5t-98.5 -154.5l-114 -141h-117zM301 328q59 0 95 36.5t36 97.5q0 62 -36 99t-97 37q-59 0 -95 -37t-36 -98t36.5 -98t96.5 -37z" />
    <glyph glyph-name="dot" horiz-adv-x="256" 
d="M186 119v-119h-119v119h119z" />
    <glyph glyph-name="Adieresis.ss01" horiz-adv-x="678" 
d="M234 742q-26 0 -44 18t-18 44t18 44t44 18t44 -18t18 -44t-18 -44t-44 -18zM444 742q-26 0 -44 18t-18 44t18 44t44 18t44 -18t18 -44t-18 -44t-44 -18zM559 0l-67 174h-306l-67 -174h-114l286 700h96l286 -700h-114zM223 270h232l-116 300z" />
    <glyph glyph-name="Cdotaccent.ss01" horiz-adv-x="682" 
d="M406 866q26 0 44 -18t18 -44t-18 -44t-44 -18t-44 18t-18 44t18 44t44 18zM410 -15q-167 0 -271 101t-104 264t104 264t271 101q140 0 247 -77l-64 -91q-85 62 -187 62q-112 0 -184.5 -71t-72.5 -188t72.5 -188t184.5 -71q102 0 187 62l64 -91q-107 -77 -247 -77z" />
    <glyph glyph-name="Edieresis.ss01" horiz-adv-x="520" 
d="M185 742q-26 0 -44 18t-18 44t18 44t44 18t44 -18t18 -44t-18 -44t-44 -18zM395 742q-26 0 -44 18t-18 44t18 44t44 18t44 -18t18 -44t-18 -44t-44 -18zM174 98h301v-98h-405v700h400v-98h-296v-166h273v-98h-273v-240z" />
    <glyph glyph-name="Edotaccent.ss01" horiz-adv-x="520" 
d="M290 742q-26 0 -44 18t-18 44t18 44t44 18t44 -18t18 -44t-18 -44t-44 -18zM174 98h301v-98h-405v700h400v-98h-296v-166h273v-98h-273v-240z" />
    <glyph glyph-name="Gcommaaccent.ss01" horiz-adv-x="782" 
d="M425 387h332v-42q0 -69 -22 -132.5t-64 -115t-111 -82t-155 -30.5q-161 0 -265.5 100t-104.5 263q0 162 103 264.5t268 102.5q158 0 269 -94l-71 -87q-82 75 -203 75q-113 0 -182.5 -73.5t-69.5 -186.5t71.5 -185.5t187.5 -72.5q107 0 168.5 60t68.5 138h-220v98z
M402 -41q26 0 43 -16t17 -42q0 -29 -22 -54l-52 -57h-36l30 58q-16 4 -26.5 20t-10.5 35q0 24 16 40t41 16z" />
    <glyph glyph-name="Gdotaccent.ss01" horiz-adv-x="782" 
d="M394 742q-26 0 -44 18t-18 44t18 44t44 18t44 -18t18 -44t-18 -44t-44 -18zM425 387h332v-42q0 -69 -22 -132.5t-64 -115t-111 -82t-155 -30.5q-161 0 -265.5 100t-104.5 263q0 162 103 264.5t268 102.5q158 0 269 -94l-71 -87q-82 75 -203 75q-113 0 -182.5 -73.5
t-69.5 -186.5t71.5 -185.5t187.5 -72.5q107 0 168.5 60t68.5 138h-220v98z" />
    <glyph glyph-name="Idieresis.ss01" horiz-adv-x="246" 
d="M18 866q26 0 44 -18t18 -44t-18 -44t-44 -18t-44 18t-18 44t18 44t44 18zM228 866q26 0 44 -18t18 -44t-18 -44t-44 -18t-44 18t-18 44t18 44t44 18zM176 700v-700h-106v700h106z" />
    <glyph glyph-name="Idotaccent.ss01" horiz-adv-x="246" 
d="M123 866q26 0 44 -18t18 -44t-18 -44t-44 -18t-44 18t-18 44t18 44t44 18zM176 700v-700h-106v700h106z" />
    <glyph glyph-name="Kcommaaccent.ss01" horiz-adv-x="649" 
d="M292 379l352 -379h-154l-316 349v-349h-104v700h104v-311l278 311h144zM318 -41q26 0 43 -16t17 -42q0 -29 -22 -54l-52 -57h-36l30 58q-16 4 -26.5 20t-10.5 35q0 24 16 40t41 16z" />
    <glyph glyph-name="Lcaron.ss01" horiz-adv-x="483" 
d="M385 720q28 0 46 -19t18 -46q0 -20 -16 -52l-74 -139h-36l42 136q-20 4 -32 21t-12 37q0 25 18 43.5t46 18.5zM174 700v-600h304v-100h-408v700h104z" />
    <glyph glyph-name="Lcommaaccent.ss01" horiz-adv-x="483" 
d="M174 700v-600h304v-100h-408v700h104zM338 -99q0 -29 -22 -54l-52 -57h-36l30 58q-16 4 -26.5 20t-10.5 35q0 24 16 40t41 16q26 0 43 -16t17 -42z" />
    <glyph glyph-name="Ldot.ss01" horiz-adv-x="483" 
d="M174 700v-600h304v-100h-408v700h104zM361 477q31 0 52 -20.5t21 -52.5q0 -31 -21 -51.5t-52 -20.5t-51.5 20.5t-20.5 51.5t20.5 52t51.5 21z" />
    <glyph glyph-name="Ncommaaccent.ss01" horiz-adv-x="699" 
d="M629 700v-700h-109l-344 523h-2v-523h-104v700h109l344 -523h2v523h104zM407 -99q0 -29 -22 -54l-52 -57h-36l30 58q-16 4 -26.5 20t-10.5 35q0 24 16 40t41 16q26 0 43 -16t17 -42z" />
    <glyph glyph-name="Odieresis.ss01" horiz-adv-x="800" 
d="M296 866q26 0 44 -18t18 -44t-18 -44t-44 -18t-44 18t-18 44t18 44t44 18zM506 866q26 0 44 -18t18 -44t-18 -44t-44 -18t-44 18t-18 44t18 44t44 18zM400 715q157 0 261 -102.5t104 -262.5t-104 -262.5t-261 -102.5t-261 102.5t-104 262.5t104 262.5t261 102.5zM400 609
q-111 0 -181 -73t-70 -186t70 -186t181 -73t181 73t70 186t-70 186t-181 73z" />
    <glyph glyph-name="Rcommaaccent.ss01" horiz-adv-x="582" 
d="M360 295l212 -295h-131l-204 291h-63v-291h-104v700h239q94 0 154 -55.5t60 -150.5q0 -79 -44.5 -132t-118.5 -67zM174 602v-213h118q60 0 89.5 28.5t29.5 76.5q0 49 -29.5 78.5t-89.5 29.5h-118zM295 -41q26 0 43 -16t17 -42q0 -29 -22 -54l-52 -57h-36l30 58
q-16 4 -26.5 20t-10.5 35q0 24 16 40t41 16z" />
    <glyph glyph-name="Scommaaccent.ss01" horiz-adv-x="500" 
d="M260 715q93 0 185 -47l-47 -99q-72 41 -141 41q-80 0 -80 -60q0 -40 55 -83l125 -96q56 -43 82 -87.5t26 -102.5q0 -94 -61 -145t-163 -51q-124 0 -226 65l47 98q99 -57 180 -57q54 0 82.5 23.5t28.5 60.5q0 28 -17.5 52t-56.5 55l-119 94q-96 75 -96 170q0 78 52 123.5
t144 45.5zM304 -99q0 -29 -22 -54l-52 -57h-36l30 58q-16 4 -26.5 20t-10.5 35q0 24 16 40t41 16q26 0 43 -16t17 -42z" />
    <glyph glyph-name="uni021A.ss01" horiz-adv-x="518" 
d="M10 700h498v-98h-197v-602h-104v602h-197v98zM257 -41q26 0 43 -16t17 -42q0 -29 -22 -54l-52 -57h-36l30 58q-16 4 -26.5 20t-10.5 35q0 24 16 40t41 16z" />
    <glyph glyph-name="Udieresis.ss01" horiz-adv-x="682" 
d="M236 866q26 0 44 -18t18 -44t-18 -44t-44 -18t-44 18t-18 44t18 44t44 18zM446 866q26 0 44 -18t18 -44t-18 -44t-44 -18t-44 18t-18 44t18 44t44 18zM622 700v-430q0 -130 -76.5 -207.5t-204.5 -77.5t-204.5 77.5t-76.5 207.5v430h109v-427q0 -83 48.5 -131.5
t123.5 -48.5t123.5 48.5t48.5 131.5v427h109z" />
    <glyph glyph-name="Wdieresis.ss01" horiz-adv-x="985" 
d="M388 866q26 0 44 -18t18 -44t-18 -44t-44 -18t-44 18t-18 44t18 44t44 18zM598 866q26 0 44 -18t18 -44t-18 -44t-44 -18t-44 18t-18 44t18 44t44 18zM970 700l-210 -700h-102l-164 524h-3l-164 -524h-102l-210 700h116l144 -534h2l164 534h103l164 -534h2l144 534h116z
" />
    <glyph glyph-name="Ydieresis.ss01" horiz-adv-x="543" 
d="M167 742q-26 0 -44 18t-18 44t18 44t44 18t44 -18t18 -44t-18 -44t-44 -18zM377 742q-26 0 -44 18t-18 44t18 44t44 18t44 -18t18 -44t-18 -44t-44 -18zM543 700l-219 -419v-281h-105v280l-219 420h121l149 -309h3l149 309h121z" />
    <glyph glyph-name="Zdotaccent.ss01" horiz-adv-x="542" 
d="M274 742q-26 0 -44 18t-18 44t18 44t44 18t44 -18t18 -44t-18 -44t-44 -18zM145 98h377v-98h-502v98l362 504h-330v98h455v-98z" />
    <glyph glyph-name="adieresis.ss01" horiz-adv-x="571" 
d="M181 704q29 0 49 -20t20 -49t-20 -49t-49 -20t-49 20t-20 49t20 49t49 20zM381 704q29 0 49 -20t20 -49t-20 -49t-49 -20t-49 20t-20 49t20 49t49 20zM255 -15q-95 0 -160 67t-65 179t65 179t160 67q108 0 156 -83h2v68h98v-462h-98v68h-2q-48 -83 -156 -83zM276 81
q64 0 103 41.5t39 108.5t-39 108.5t-103 41.5t-103 -41.5t-39 -108.5t39 -108.5t103 -41.5z" />
    <glyph glyph-name="cdotaccent.ss01" horiz-adv-x="462" 
d="M276 704q30 0 51 -21t21 -51t-21 -51t-51 -21t-51 21t-21 51t21 51t51 21zM284 -15q-112 0 -183 68t-71 178t71 178t183 68q87 0 158 -47l-46 -83q-56 35 -115 35q-66 0 -106.5 -42.5t-40.5 -108.5t40.5 -108.5t106.5 -42.5q59 0 115 35l46 -83q-71 -47 -158 -47z" />
    <glyph glyph-name="dcaron.ss01" horiz-adv-x="672" 
d="M553 494l42 106q-20 4 -32 21t-12 37q0 26 17.5 44t46.5 18q30 0 47 -19t17 -46q0 -28 -26 -66l-64 -95h-36zM255 -15q-95 0 -160 67t-65 179t65 179t160 67q108 0 156 -83h2v306h98v-700h-98v68h-2q-48 -83 -156 -83zM276 81q64 0 103 41.5t39 108.5t-39 108.5
t-103 41.5t-103 -41.5t-39 -108.5t39 -108.5t103 -41.5z" />
    <glyph glyph-name="edieresis.ss01" horiz-adv-x="517" 
d="M170 704q29 0 49 -20t20 -49t-20 -49t-49 -20t-49 20t-20 49t20 49t49 20zM370 704q29 0 49 -20t20 -49t-20 -49t-49 -20t-49 20t-20 49t20 49t49 20zM266 477q104 0 162.5 -66.5t58.5 -179.5v-16h-358q3 -61 41.5 -98.5t98.5 -37.5q82 0 142 81l69 -65
q-80 -110 -209 -110q-110 0 -175.5 67.5t-65.5 177.5q0 108 63.5 177.5t172.5 69.5zM260 387q-51 0 -84 -26t-42 -75h247q-3 48 -35.5 74.5t-85.5 26.5z" />
    <glyph glyph-name="edotaccent.ss01" horiz-adv-x="517" 
d="M270 704q30 0 51 -21t21 -51t-21 -51t-51 -21t-51 21t-21 51t21 51t51 21zM266 477q104 0 162.5 -66.5t58.5 -179.5v-16h-358q3 -61 41.5 -98.5t98.5 -37.5q82 0 142 81l69 -65q-80 -110 -209 -110q-110 0 -175.5 67.5t-65.5 177.5q0 108 63.5 177.5t172.5 69.5zM260 387
q-51 0 -84 -26t-42 -75h247q-3 48 -35.5 74.5t-85.5 26.5z" />
    <glyph glyph-name="gcommaaccent.ss01" horiz-adv-x="571" 
d="M226 592q0 29 22 54l52 57h36l-30 -58q16 -4 26.5 -20t10.5 -35q0 -24 -16 -40t-41 -16q-26 0 -43 16t-17 42zM293 -215q-69 0 -178 21l19 95q94 -21 159 -21q67 0 93.5 28.5t26.5 104.5v55h-2q-48 -83 -156 -83q-95 0 -160 67t-65 179t65 179t160 67q108 0 156 -83h2v68
h98v-462q-2 -66 -19 -110t-48 -66t-66.5 -30.5t-84.5 -8.5zM276 81q64 0 103 41.5t39 108.5t-39 108.5t-103 41.5t-103 -41.5t-39 -108.5t39 -108.5t103 -41.5z" />
    <glyph glyph-name="gdotaccent.ss01" horiz-adv-x="571" 
d="M286 704q30 0 51 -21t21 -51t-21 -51t-51 -21t-51 21t-21 51t21 51t51 21zM293 -215q-69 0 -178 21l19 95q94 -21 159 -21q67 0 93.5 28.5t26.5 104.5v55h-2q-48 -83 -156 -83q-95 0 -160 67t-65 179t65 179t160 67q108 0 156 -83h2v68h98v-462q-2 -66 -19 -110t-48 -66
t-66.5 -30.5t-84.5 -8.5zM276 81q64 0 103 41.5t39 108.5t-39 108.5t-103 41.5t-103 -41.5t-39 -108.5t39 -108.5t103 -41.5z" />
    <glyph glyph-name="i.ss01" horiz-adv-x="228" 
d="M114 704q30 0 51 -21t21 -51t-21 -51t-51 -21t-51 21t-21 51t21 51t51 21zM65 0v462h98v-462h-98z" />
    <glyph glyph-name="idieresis.ss01" horiz-adv-x="228" 
d="M34 704q29 0 49 -20t20 -49t-20 -49t-49 -20t-49 20t-20 49t20 49t49 20zM194 704q29 0 49 -20t20 -49t-20 -49t-49 -20t-49 20t-20 49t20 49t49 20zM65 0v462h98v-462h-98z" />
    <glyph glyph-name="i.loclTRK.ss01" horiz-adv-x="228" 
d="M114 704q30 0 51 -21t21 -51t-21 -51t-51 -21t-51 21t-21 51t21 51t51 21zM65 0v462h98v-462h-98z" />
    <glyph glyph-name="ij.ss01" horiz-adv-x="456" 
d="M114 704q30 0 51 -21t21 -51t-21 -51t-51 -21t-51 21t-21 51t21 51t51 21zM342 704q30 0 51 -21t21 -51t-21 -51t-51 -21t-51 21t-21 51t21 51t51 21zM65 0v462h98v-462h-98zM222 -114h18q28 0 40.5 13t12.5 43v520h98v-530q0 -65 -35.5 -100t-100.5 -35h-33v89z" />
    <glyph glyph-name="iogonek.ss01" horiz-adv-x="228" 
d="M114 704q30 0 51 -21t21 -51t-21 -51t-51 -21t-51 21t-21 51t21 51t51 21zM65 4v458h98v-462h-38q-60 -63 -60 -98q0 -23 29 -23q11 0 39 6l12 -62q-33 -10 -70 -10q-38 0 -61.5 19.5t-23.5 55.5q0 58 75 116z" />
    <glyph glyph-name="j.ss01" horiz-adv-x="228" 
d="M114 704q30 0 51 -21t21 -51t-21 -51t-51 -21t-51 21t-21 51t21 51t51 21zM-6 -114h18q28 0 40.5 13t12.5 43v520h98v-530q0 -65 -35.5 -100t-100.5 -35h-33v89z" />
    <glyph glyph-name="kcommaaccent.ss01" horiz-adv-x="483" 
d="M263 252l215 -252h-129l-186 227v-227h-98v700h98v-435l165 197h129zM242 -41q26 0 43 -16t17 -42q0 -29 -22 -54l-52 -57h-36l30 58q-16 4 -26.5 20t-10.5 35q0 24 16 40t41 16z" />
    <glyph glyph-name="lcaron.ss01" horiz-adv-x="324" 
d="M198 494l42 106q-20 4 -32 21t-12 37q0 26 17.5 44t46.5 18q30 0 47 -19t17 -46q0 -28 -26 -66l-64 -95h-36zM163 700v-700h-98v700h98z" />
    <glyph glyph-name="lcommaaccent.ss01" horiz-adv-x="228" 
d="M163 700v-700h-98v700h98zM172 -99q0 -29 -22 -54l-52 -57h-36l30 58q-16 4 -26.5 20t-10.5 35q0 24 16 40t41 16q26 0 43 -16t17 -42z" />
    <glyph glyph-name="ldot.ss01" horiz-adv-x="337" 
d="M163 700v-700h-98v700h98zM259 477q31 0 52 -20.5t21 -52.5q0 -31 -21 -51.5t-52 -20.5t-51.5 20.5t-20.5 51.5t20.5 52t51.5 21z" />
    <glyph glyph-name="napostrophe.ss01" horiz-adv-x="555" 
d="M69 720q28 0 46 -19t18 -46q0 -20 -16 -52l-74 -139h-36l42 136q-20 4 -32 21t-12 37q0 25 18 43.5t46 18.5zM326 477q80 0 127 -46.5t47 -146.5v-284h-98v267q0 112 -106 112q-123 0 -123 -158v-221h-98v462h98v-70h2q48 85 151 85z" />
    <glyph glyph-name="ncommaaccent.ss01" horiz-adv-x="540" 
d="M311 477q80 0 127 -46.5t47 -146.5v-284h-98v267q0 112 -106 112q-123 0 -123 -158v-221h-98v462h98v-70h2q48 85 151 85zM341 -99q0 -29 -22 -54l-52 -57h-36l30 58q-16 4 -26.5 20t-10.5 35q0 24 16 40t41 16q26 0 43 -16t17 -42z" />
    <glyph glyph-name="odieresis.ss01" horiz-adv-x="566" 
d="M183 704q29 0 49 -20t20 -49t-20 -49t-49 -20t-49 20t-20 49t20 49t49 20zM383 704q29 0 49 -20t20 -49t-20 -49t-49 -20t-49 20t-20 49t20 49t49 20zM283 477q109 0 181 -70t72 -176t-72 -176t-181 -70t-181 70t-72 176t72 176t181 70zM283 381q-66 0 -107.5 -41
t-41.5 -109t41.5 -109t107.5 -41t107.5 41t41.5 109t-41.5 109t-107.5 41z" />
    <glyph glyph-name="rcommaaccent.ss01" horiz-adv-x="330" 
d="M320 476v-115h-15q-73 0 -110 -37.5t-37 -118.5v-205h-98v462h98v-101h2q17 53 56.5 84t96.5 31h7zM169 -99q0 -29 -22 -54l-52 -57h-36l30 58q-16 4 -26.5 20t-10.5 35q0 24 16 40t41 16q26 0 43 -16t17 -42z" />
    <glyph glyph-name="scommaaccent.ss01" horiz-adv-x="403" 
d="M203 -15q-104 0 -188 49l44 87q76 -44 147 -44q72 0 72 43q0 28 -49 52l-84 41q-97 46 -97 133q0 63 43.5 97t120.5 34q80 0 160 -36l-40 -85q-70 30 -123 30q-57 0 -57 -35q0 -17 11.5 -29t41.5 -26l86 -41q92 -43 92 -130q0 -69 -48.5 -104.5t-131.5 -35.5zM257 -99
q0 -29 -22 -54l-52 -57h-36l30 58q-16 4 -26.5 20t-10.5 35q0 24 16 40t41 16q26 0 43 -16t17 -42z" />
    <glyph glyph-name="tcaron.ss01" horiz-adv-x="375" 
d="M307 720q30 0 47 -19t17 -46q0 -28 -26 -66l-64 -95h-36l42 106q-20 4 -32 21t-12 37q0 26 17.5 44t46.5 18zM195 647v-185h94v-83h-94v-242q0 -48 48 -48h24v-90h-45q-61 0 -93 31t-32 88v261h-82v83h82v185h98z" />
    <glyph glyph-name="uni021B.ss01" horiz-adv-x="309" 
d="M289 379h-94v-242q0 -48 48 -48h24v-90h-45q-61 0 -93 31t-32 88v261h-82v83h82v185h98v-185h94v-83zM194 -41q26 0 43 -16t17 -42q0 -29 -22 -54l-52 -57h-36l30 58q-16 4 -26.5 20t-10.5 35q0 24 16 40t41 16z" />
    <glyph glyph-name="udieresis.ss01" horiz-adv-x="526" 
d="M162 704q29 0 49 -20t20 -49t-20 -49t-49 -20t-49 20t-20 49t20 49t49 20zM362 704q29 0 49 -20t20 -49t-20 -49t-49 -20t-49 20t-20 49t20 49t49 20zM224 -15q-74 0 -121.5 48.5t-47.5 148.5v280h100v-270q0 -56 25.5 -84t71.5 -28q116 0 116 161v221h98v-462h-98v70h-2
q-42 -85 -142 -85z" />
    <glyph glyph-name="wdieresis.ss01" horiz-adv-x="721" 
d="M260 566q-29 0 -49 20t-20 49t20 49t49 20t49 -20t20 -49t-20 -49t-49 -20zM460 566q-29 0 -49 20t-20 49t20 49t49 20t49 -20t20 -49t-20 -49t-49 -20zM608 462h108l-155 -462h-90l-110 331l-111 -331h-90l-155 462h108l93 -333l107 333h95l107 -333z" />
    <glyph glyph-name="ydieresis.ss01" horiz-adv-x="485" 
d="M147 566q-29 0 -49 20t-20 49t20 49t49 20t49 -20t20 -49t-20 -49t-49 -20zM347 566q-29 0 -49 20t-20 49t20 49t49 20t49 -20t20 -49t-20 -49t-49 -20zM372 462h108l-288 -662h-104l111 242l-194 420h117l127 -303z" />
    <glyph glyph-name="zdotaccent.ss01" horiz-adv-x="436" 
d="M218 560q-30 0 -51 21t-21 51t21 51t51 21t51 -21t21 -51t-21 -51t-51 -21zM143 91h268v-91h-386v86l251 285h-241v91h358v-86z" />
    <glyph glyph-name="fi.ss01" horiz-adv-x="528" 
d="M93 526q0 86 46.5 135t131.5 49h19v-91h-15q-84 0 -84 -90v-67h91v-83h-91v-379h-98v379h-73v83h73v64zM414 704q30 0 51 -21t21 -51t-21 -51t-51 -21t-51 21t-21 51t21 51t51 21zM365 0v462h98v-462h-98z" />
    <glyph glyph-name="f_f_i.ss01" horiz-adv-x="828" 
d="M93 526q0 86 46.5 135t131.5 49h19v-91h-15q-84 0 -84 -90v-67h91v-83h-91v-379h-98v379h-73v83h73v64zM393 526q0 86 46.5 135t131.5 49h19v-91h-15q-84 0 -84 -90v-67h91v-83h-91v-379h-98v379h-73v83h73v64zM714 704q30 0 51 -21t21 -51t-21 -51t-51 -21t-51 21
t-21 51t21 51t51 21zM665 0v462h98v-462h-98z" />
    <glyph glyph-name="periodcentered.ss01" horiz-adv-x="255" 
d="M127 477q31 0 52 -20.5t21 -52.5q0 -31 -21 -51.5t-52 -20.5t-51.5 20.5t-20.5 51.5t20.5 52t51.5 21z" />
    <glyph glyph-name="colon.ss01" horiz-adv-x="229" 
d="M114 477q32 0 52.5 -20.5t20.5 -52.5q0 -31 -21 -51.5t-52 -20.5t-51.5 20.5t-20.5 51.5t20.5 52t51.5 21zM114 133q32 0 52.5 -20.5t20.5 -52.5q0 -31 -21 -51.5t-52 -20.5t-51.5 20.5t-20.5 51.5t20.5 52t51.5 21z" />
    <glyph glyph-name="comma.ss01" horiz-adv-x="230" 
d="M187 57q0 -24 -16 -52l-79 -145h-44l45 130q-25 6 -39 25t-14 43q0 31 21 51.5t52 20.5q33 0 53.5 -20.5t20.5 -52.5z" />
    <glyph glyph-name="ellipsis.ss01" horiz-adv-x="701" 
d="M114 133q32 0 52.5 -20.5t20.5 -52.5q0 -31 -21 -51.5t-52 -20.5t-51.5 20.5t-20.5 51.5t20.5 52t51.5 21zM350 133q32 0 52.5 -20.5t20.5 -52.5q0 -31 -21 -51.5t-52 -20.5t-51.5 20.5t-20.5 51.5t20.5 52t51.5 21zM586 133q32 0 52.5 -20.5t20.5 -52.5q0 -31 -21 -51.5
t-52 -20.5t-51.5 20.5t-20.5 51.5t20.5 52t51.5 21z" />
    <glyph glyph-name="exclam.ss01" horiz-adv-x="319" 
d="M217 700l-24 -488h-67l-24 488h115zM159 133q31 0 52 -20.5t21 -52.5q0 -31 -21 -51.5t-52 -20.5t-51.5 20.5t-20.5 51.5t20.5 52t51.5 21z" />
    <glyph glyph-name="exclamdown.ss01" horiz-adv-x="319" 
d="M160 366q-32 0 -52.5 21t-20.5 52t21 51.5t52 20.5t51.5 -20.5t20.5 -51.5t-20.5 -52t-51.5 -21zM102 -201l24 488h67l24 -488h-115z" />
    <glyph glyph-name="period.ss01" horiz-adv-x="229" 
d="M114 133q32 0 52.5 -20.5t20.5 -52.5q0 -31 -21 -51.5t-52 -20.5t-51.5 20.5t-20.5 51.5t20.5 52t51.5 21z" />
    <glyph glyph-name="question.ss01" horiz-adv-x="480" 
d="M239 715q92 0 146.5 -52.5t54.5 -135.5q0 -86 -76 -156q-6 -5 -21.5 -18.5t-22 -19.5t-17.5 -19t-16 -23.5t-9 -26t-4 -32.5v-20h-95v29q0 28 6 51t20 44t23.5 32t32 32t28.5 28q51 53 51 100q0 39 -26 65.5t-75 26.5q-50 0 -80 -31t-30 -83h-99q0 98 56.5 153.5
t152.5 55.5zM225 133q31 0 52 -20.5t21 -52.5q0 -31 -21 -51.5t-52 -20.5t-51.5 20.5t-20.5 51.5t20.5 52t51.5 21z" />
    <glyph glyph-name="questiondown.ss01" horiz-adv-x="420" 
d="M235 366q-31 0 -52 21t-21 52t21 51.5t52 20.5t51.5 -20.5t20.5 -51.5t-20.5 -52t-51.5 -21zM221 -216q-92 0 -146.5 52.5t-54.5 135.5q0 86 76 156q6 5 21.5 18.5t22 19.5t17.5 19t16 23.5t9 26t4 32.5v20h95v-29q0 -28 -6 -51t-20 -44t-23.5 -32t-32 -32t-28.5 -28
q-51 -53 -51 -100q0 -39 26 -65.5t75 -26.5q50 0 80 31t30 83h99q0 -98 -56.5 -153.5t-152.5 -55.5z" />
    <glyph glyph-name="semicolon.ss01" horiz-adv-x="230" 
d="M114 477q32 0 52.5 -20.5t20.5 -52.5q0 -31 -21 -51.5t-52 -20.5t-51.5 20.5t-20.5 51.5t20.5 52t51.5 21zM187 57q0 -24 -16 -52l-79 -145h-44l45 130q-25 6 -39 25t-14 43q0 31 21 51.5t52 20.5q33 0 53.5 -20.5t20.5 -52.5z" />
    <glyph glyph-name="quotedblbase.ss01" horiz-adv-x="323" 
d="M86 113q28 0 46 -19t18 -46q0 -20 -16 -52l-74 -139h-36l42 136q-20 4 -32 21t-12 37q0 25 18 43.5t46 18.5zM237 113q28 0 46 -19t18 -46q0 -20 -16 -52l-74 -139h-36l42 136q-20 4 -32 21t-12 37q0 25 18 43.5t46 18.5z" />
    <glyph glyph-name="quotedblleft.ss01" horiz-adv-x="323" 
d="M86 484q-28 0 -46 19t-18 46q0 20 16 52l74 139h36l-42 -136q20 -4 32 -21t12 -37q0 -25 -18 -43.5t-46 -18.5zM237 484q-28 0 -46 19t-18 46q0 20 16 52l74 139h36l-42 -136q20 -4 32 -21t12 -37q0 -25 -18 -43.5t-46 -18.5z" />
    <glyph glyph-name="quotedblright.ss01" horiz-adv-x="323" 
d="M86 720q28 0 46 -19t18 -46q0 -20 -16 -52l-74 -139h-36l42 136q-20 4 -32 21t-12 37q0 25 18 43.5t46 18.5zM237 720q28 0 46 -19t18 -46q0 -20 -16 -52l-74 -139h-36l42 136q-20 4 -32 21t-12 37q0 25 18 43.5t46 18.5z" />
    <glyph glyph-name="quoteleft.ss01" horiz-adv-x="178" 
d="M89 483q-28 0 -46 19t-18 46q0 20 16 52l74 139h36l-42 -136q20 -4 32 -21t12 -37q0 -25 -18 -43.5t-46 -18.5z" />
    <glyph glyph-name="quoteright.ss01" horiz-adv-x="178" 
d="M89 720q28 0 46 -19t18 -46q0 -20 -16 -52l-74 -139h-36l42 136q-20 4 -32 21t-12 37q0 25 18 43.5t46 18.5z" />
    <glyph glyph-name="quotesinglbase.ss01" horiz-adv-x="178" 
d="M89 113q28 0 46 -19t18 -46q0 -20 -16 -52l-74 -139h-36l42 136q-20 4 -32 21t-12 37q0 25 18 43.5t46 18.5z" />
    <glyph glyph-name="divide.ss01" 
d="M300 408q-18 0 -30.5 12t-12.5 31t12.5 31t30.5 12t30.5 -12t12.5 -31t-12.5 -31t-30.5 -12zM41 275v48h518v-48h-518zM300 104q-18 0 -30.5 12t-12.5 31t12.5 31t30.5 12t30.5 -12t12.5 -31t-12.5 -31t-30.5 -12z" />
    <glyph glyph-name="uni02BC.ss01" horiz-adv-x="178" 
d="M89 720q28 0 46 -19t18 -46q0 -20 -16 -52l-74 -139h-36l42 136q-20 4 -32 21t-12 37q0 25 18 43.5t46 18.5z" />
    <glyph glyph-name="dot.ss01" horiz-adv-x="245" 
d="M122 133q32 0 52.5 -20.5t20.5 -52.5q0 -31 -21 -51.5t-52 -20.5t-51.5 20.5t-20.5 51.5t20.5 52t51.5 21z" />
    <glyph glyph-name="Adieresis.ss02" horiz-adv-x="678" 
d="M235 794v-104h-106v104h106zM549 794v-104h-106v104h106zM559 0l-67 174h-306l-67 -174h-114l286 700h96l286 -700h-114zM223 270h232l-116 300z" />
    <glyph glyph-name="Idieresis.ss02" horiz-adv-x="246" 
d="M41 794v-104h-106v104h106zM311 794v-104h-106v104h106zM176 700v-700h-106v700h106z" />
    <glyph glyph-name="Odieresis.ss02" horiz-adv-x="800" 
d="M199 794v-104h-106v104h106zM709 794v-104h-106v104h106zM400 715q157 0 261 -102.5t104 -262.5t-104 -262.5t-261 -102.5t-261 102.5t-104 262.5t104 262.5t261 102.5zM400 609q-111 0 -181 -73t-70 -186t70 -186t181 -73t181 73t70 186t-70 186t-181 73z" />
    <glyph glyph-name="Udieresis.ss02" horiz-adv-x="682" 
d="M318 794v-104h-106v104h106zM470 794v-104h-106v104h106zM622 700v-430q0 -130 -76.5 -207.5t-204.5 -77.5t-204.5 77.5t-76.5 207.5v430h109v-427q0 -83 48.5 -131.5t123.5 -48.5t123.5 48.5t48.5 131.5v427h109z" />
    <glyph glyph-name="Wdieresis.ss02" horiz-adv-x="985" 
d="M391 794v-104h-106v104h106zM701 794v-104h-106v104h106zM970 700l-210 -700h-102l-164 524h-3l-164 -524h-102l-210 700h116l144 -534h2l164 534h103l164 -534h2l144 534h116z" />
    <glyph glyph-name="Ydieresis.ss02" horiz-adv-x="543" 
d="M251 794v-104h-92v104h92zM385 794v-104h-92v104h92zM543 700l-219 -419v-281h-105v280l-219 420h121l149 -309h3l149 309h121z" />
    <glyph glyph-name="Adieresis.ss01.ss02" horiz-adv-x="678" 
d="M180 661q-26 0 -44 18t-18 44t18 44t44 18t44 -18t18 -44t-18 -44t-44 -18zM498 661q-26 0 -44 18t-18 44t18 44t44 18t44 -18t18 -44t-18 -44t-44 -18zM559 0l-67 174h-306l-67 -174h-114l286 700h96l286 -700h-114zM223 270h232l-116 300z" />
    <glyph glyph-name="Idieresis.ss01.ss02" horiz-adv-x="246" 
d="M-7 785q26 0 44 -18t18 -44t-18 -44t-44 -18t-44 18t-18 44t18 44t44 18zM253 785q26 0 44 -18t18 -44t-18 -44t-44 -18t-44 18t-18 44t18 44t44 18zM176 700v-700h-106v700h106z" />
    <glyph glyph-name="Odieresis.ss01.ss02" horiz-adv-x="800" 
d="M125 785q26 0 44 -18t18 -44t-18 -44t-44 -18t-44 18t-18 44t18 44t44 18zM677 785q26 0 44 -18t18 -44t-18 -44t-44 -18t-44 18t-18 44t18 44t44 18zM400 715q157 0 261 -102.5t104 -262.5t-104 -262.5t-261 -102.5t-261 102.5t-104 262.5t104 262.5t261 102.5zM400 609
q-111 0 -181 -73t-70 -186t70 -186t181 -73t181 73t70 186t-70 186t-181 73z" />
    <glyph glyph-name="Udieresis.ss01.ss02" horiz-adv-x="682" 
d="M262 785q26 0 44 -18t18 -44t-18 -44t-44 -18t-44 18t-18 44t18 44t44 18zM419 785q26 0 44 -18t18 -44t-18 -44t-44 -18t-44 18t-18 44t18 44t44 18zM622 700v-430q0 -130 -76.5 -207.5t-204.5 -77.5t-204.5 77.5t-76.5 207.5v430h109v-427q0 -83 48.5 -131.5
t123.5 -48.5t123.5 48.5t48.5 131.5v427h109z" />
    <glyph glyph-name="Wdieresis.ss01.ss02" horiz-adv-x="985" 
d="M344 785q26 0 44 -18t18 -44t-18 -44t-44 -18t-44 18t-18 44t18 44t44 18zM641 785q26 0 44 -18t18 -44t-18 -44t-44 -18t-44 18t-18 44t18 44t44 18zM970 700l-210 -700h-102l-164 524h-3l-164 -524h-102l-210 700h116l144 -534h2l164 534h103l164 -534h2l144 534h116z
" />
    <glyph glyph-name="Ydieresis.ss01.ss02" horiz-adv-x="543" 
d="M198 661q-26 0 -44 18t-18 44t18 44t44 18t44 -18t18 -44t-18 -44t-44 -18zM346 661q-26 0 -44 18t-18 44t18 44t44 18t44 -18t18 -44t-18 -44t-44 -18zM543 700l-219 -419v-281h-105v280l-219 420h121l149 -309h3l149 309h121z" />
    <glyph glyph-name="germandbls.ss03" horiz-adv-x="528" 
d="M381 264q49 -23 80.5 -61t31.5 -106q0 -49 -17 -93t-52.5 -84.5t-66 -68t-80.5 -66.5l-62 74q45 37 71 60t54.5 54t41 59t12.5 56q0 89 -124 120l-16 4l100 167h-191v-379h-98v526q0 86 46.5 135t131.5 49h19v-91h-15q-84 0 -84 -90v-126l44 59h296z" />
    <glyph glyph-name="a.subs" horiz-adv-x="422" 
d="M183 -120q-64 0 -108.5 44t-44.5 119t44.5 119t108.5 44q78 0 112 -62h2v52h85v-306h-85v52h-2q-34 -62 -112 -62zM207 -44q38 0 63 23t25 64t-25 64t-63 23t-62.5 -23t-24.5 -64t24.5 -64t62.5 -23z" />
    <glyph glyph-name="b.subs" horiz-adv-x="427" 
d="M246 -120q-80 0 -114 62h-2v-52h-85v462h85v-208h2q34 62 114 62q67 0 109 -42t42 -121t-42 -121t-109 -42zM220 -44q38 0 62.5 23t24.5 64t-24.5 64t-62.5 23t-63 -23t-25 -64t25 -64t63 -23z" />
    <glyph glyph-name="c.subs" horiz-adv-x="337" 
d="M203 206q60 0 114 -30l-36 -69q-33 21 -71 21q-41 0 -66.5 -23t-25.5 -62t25.5 -62t66.5 -23q38 0 71 21l36 -69q-54 -30 -114 -30q-77 0 -125 44t-48 119t48 119t125 44z" />
    <glyph glyph-name="d.subs" horiz-adv-x="427" 
d="M181 -120q-67 0 -109 42t-42 121t42 121t109 42q80 0 114 -62h2v208h85v-462h-85v52h-2q-34 -62 -114 -62zM207 -44q38 0 63 23t25 64t-25 64t-63 23t-62.5 -23t-24.5 -64t24.5 -64t62.5 -23z" />
    <glyph glyph-name="e.subs" horiz-adv-x="376" 
d="M193 206q71 0 112 -45.5t41 -124.5v-17h-232q12 -64 91 -64q41 0 92 29l35 -67q-58 -37 -126 -37q-81 0 -128.5 44t-47.5 119t46.5 119t116.5 44zM190 137q-68 0 -76 -65h149q-5 65 -73 65z" />
    <glyph glyph-name="f.subs" horiz-adv-x="257" 
d="M234 280q-40 0 -56 -14.5t-16 -54.5v-15h79v-69h-79v-237h-85v237h-62v69h62v22q0 141 144 141h21v-79h-8z" />
    <glyph glyph-name="g.subs" horiz-adv-x="417" 
d="M219 -252q-67 0 -147 17l15 79q80 -18 128 -18q46 0 64 21t18 69v26h-2q-34 -62 -114 -62q-67 0 -109 42t-42 121t42 121t109 42q80 0 114 -62h2v52h85v-306q0 -54 -39.5 -98t-123.5 -44zM207 -44q38 0 63 23t25 64t-25 64t-63 23t-62.5 -23t-24.5 -64t24.5 -64t62.5 -23
z" />
    <glyph glyph-name="h.subs" horiz-adv-x="400" 
d="M130 352v-207h2q36 61 110 61q53 0 85.5 -32t32.5 -95v-189h-85v155q0 84 -69 84q-33 0 -54.5 -20t-21.5 -66v-153h-85v462h85z" />
    <glyph glyph-name="i.subs" horiz-adv-x="192" 
d="M147 352v-93h-102v93h102zM138 196v-306h-85v306h85z" />
    <glyph glyph-name="j.subs" horiz-adv-x="200" 
d="M155 352v-93h-101v93h101zM147 196v-301q0 -139 -124 -139h-28v81h16q51 0 51 54v305h85z" />
    <glyph glyph-name="k.subs" horiz-adv-x="379" 
d="M130 352v-284l109 128h110l-129 -140l149 -166h-115l-124 148v-148h-85v462h85z" />
    <glyph glyph-name="l.subs" horiz-adv-x="175" 
d="M130 352v-462h-85v462h85z" />
    <glyph glyph-name="m.subs" horiz-adv-x="594" 
d="M442 206q49 0 80.5 -30.5t31.5 -83.5v-202h-85v171q0 68 -61 68q-68 0 -68 -90v-149h-85v162q0 77 -62 77q-68 0 -68 -95v-144h-85v306h82v-53h2q34 63 105 63q77 0 103 -66h2q33 66 108 66z" />
    <glyph glyph-name="n.subs" horiz-adv-x="395" 
d="M235 206q55 0 87.5 -34.5t32.5 -102.5v-179h-85v155q0 84 -71 84q-32 0 -53 -20.5t-21 -65.5v-153h-85v306h82v-54h2q37 64 111 64z" />
    <glyph glyph-name="o.subs" horiz-adv-x="408" 
d="M204 206q75 0 124.5 -44.5t49.5 -118.5t-49.5 -118.5t-124.5 -44.5t-124.5 44.5t-49.5 118.5t49.5 118.5t124.5 44.5zM204 129q-36 0 -61 -23t-25 -63t25 -63t61 -23t61 23t25 63t-25 63t-61 23z" />
    <glyph glyph-name="p.subs" horiz-adv-x="422" 
d="M40 -242v438h85v-52h2q34 62 114 62q67 0 109 -42t42 -121t-42 -121t-109 -42q-80 0 -114 62h-2v-184h-85zM215 -44q38 0 62.5 23t24.5 64t-24.5 64t-62.5 23t-63 -23t-25 -64t25 -64t63 -23z" />
    <glyph glyph-name="q.subs" horiz-adv-x="422" 
d="M297 -242v184h-2q-34 -62 -114 -62q-67 0 -109 42t-42 121t42 121t109 42q80 0 114 -62h2v52h85v-438h-85zM207 -44q38 0 63 23t25 64t-25 64t-63 23t-62.5 -23t-24.5 -64t24.5 -64t62.5 -23z" />
    <glyph glyph-name="r.subs" horiz-adv-x="243" 
d="M233 204v-84h-16q-52 0 -72 -20.5t-20 -74.5v-135h-85v306h82v-57h2q10 32 37.5 48.5t64.5 16.5h7z" />
    <glyph glyph-name="s.subs" horiz-adv-x="315" 
d="M171 206q60 0 111 -23l-33 -70q-43 23 -84 23q-32 0 -32 -18q0 -14 24 -24l64 -27q34 -15 51.5 -34t17.5 -55q0 -98 -123 -98q-79 0 -142 38l37 70q58 -36 109 -36q35 0 35 18q0 13 -21 22l-59 26q-76 34 -76 97q0 42 29.5 66.5t91.5 24.5z" />
    <glyph glyph-name="t.subs" horiz-adv-x="260" 
d="M240 123h-70v-114q0 -21 7.5 -29.5t25.5 -8.5h20v-81h-39q-99 0 -99 113v120h-70v73h70v121h85v-121h70v-73z" />
    <glyph glyph-name="u.subs" horiz-adv-x="395" 
d="M350 196v-306h-82v55h-2q-37 -65 -107 -65q-54 0 -86.5 32t-32.5 94v190h88v-164q0 -76 67 -76q33 0 51.5 26t18.5 72v142h85z" />
    <glyph glyph-name="v.subs" horiz-adv-x="374" 
d="M364 196l-133 -306h-88l-133 306h96l81 -219l81 219h96z" />
    <glyph glyph-name="w.subs" horiz-adv-x="560" 
d="M550 196l-115 -306h-75l-80 196l-80 -196h-74l-116 306h86l68 -194l75 194h82l76 -194l68 194h85z" />
    <glyph glyph-name="x.subs" horiz-adv-x="381" 
d="M273 -110l-83 98l-82 -98h-98l129 155l-125 151h99l77 -94l77 94h99l-124 -151l129 -155h-98z" />
    <glyph glyph-name="y.subs" horiz-adv-x="375" 
d="M278 196h87l-207 -438h-88l79 166l-139 272h99l84 -180z" />
    <glyph glyph-name="z.subs" horiz-adv-x="336" 
d="M301 196l-1 -61l-170 -173h181v-72h-286v64l167 170h-152v72h261z" />
    <glyph glyph-name="t_z" horiz-adv-x="605" 
d="M458 264q49 -23 80.5 -61t31.5 -106q0 -49 -17 -93t-52.5 -84.5t-66 -68t-80.5 -66.5l-62 74q45 37 71 60t54.5 54t41 59t12.5 56q0 89 -124 120l-16 4l100 167h-236v-242q0 -48 48 -48h24v-90h-45q-61 0 -93 31t-32 88v261h-82v83h82v185h98v-185h385z" />
    <glyph glyph-name="a.sups" horiz-adv-x="422" 
d="M183 338q-64 0 -108.5 44t-44.5 119t44.5 119t108.5 44q78 0 112 -62h2v52h85v-306h-85v52h-2q-34 -62 -112 -62zM207 414q38 0 63 23t25 64t-25 64t-63 23t-62.5 -23t-24.5 -64t24.5 -64t62.5 -23z" />
    <glyph glyph-name="b.sups" horiz-adv-x="427" 
d="M246 338q-80 0 -114 62h-2v-52h-85v462h85v-208h2q34 62 114 62q67 0 109 -42t42 -121t-42 -121t-109 -42zM220 414q38 0 62.5 23t24.5 64t-24.5 64t-62.5 23t-63 -23t-25 -64t25 -64t63 -23z" />
    <glyph glyph-name="c.sups" horiz-adv-x="337" 
d="M203 664q60 0 114 -30l-36 -69q-33 21 -71 21q-41 0 -66.5 -23t-25.5 -62t25.5 -62t66.5 -23q38 0 71 21l36 -69q-54 -30 -114 -30q-77 0 -125 44t-48 119t48 119t125 44z" />
    <glyph glyph-name="d.sups" horiz-adv-x="427" 
d="M181 338q-67 0 -109 42t-42 121t42 121t109 42q80 0 114 -62h2v208h85v-462h-85v52h-2q-34 -62 -114 -62zM207 414q38 0 63 23t25 64t-25 64t-63 23t-62.5 -23t-24.5 -64t24.5 -64t62.5 -23z" />
    <glyph glyph-name="e.sups" horiz-adv-x="376" 
d="M193 664q71 0 112 -45.5t41 -124.5v-17h-232q12 -64 91 -64q41 0 92 29l35 -67q-58 -37 -126 -37q-81 0 -128.5 44t-47.5 119t46.5 119t116.5 44zM190 595q-68 0 -76 -65h149q-5 65 -73 65z" />
    <glyph glyph-name="f.sups" horiz-adv-x="257" 
d="M234 738q-40 0 -56 -14.5t-16 -54.5v-15h79v-69h-79v-237h-85v237h-62v69h62v22q0 141 144 141h21v-79h-8z" />
    <glyph glyph-name="g.sups" horiz-adv-x="417" 
d="M219 206q-67 0 -147 17l15 79q80 -18 128 -18q46 0 64 21t18 69v26h-2q-34 -62 -114 -62q-67 0 -109 42t-42 121t42 121t109 42q80 0 114 -62h2v52h85v-306q0 -54 -39.5 -98t-123.5 -44zM207 414q38 0 63 23t25 64t-25 64t-63 23t-62.5 -23t-24.5 -64t24.5 -64t62.5 -23z
" />
    <glyph glyph-name="h.sups" horiz-adv-x="400" 
d="M130 810v-207h2q36 61 110 61q53 0 85.5 -32t32.5 -95v-189h-85v155q0 84 -69 84q-33 0 -54.5 -20t-21.5 -66v-153h-85v462h85z" />
    <glyph glyph-name="i.sups" horiz-adv-x="192" 
d="M147 810v-93h-102v93h102zM138 654v-306h-85v306h85z" />
    <glyph glyph-name="j.sups" horiz-adv-x="200" 
d="M155 810v-93h-101v93h101zM147 654v-301q0 -139 -124 -139h-28v81h16q51 0 51 54v305h85z" />
    <glyph glyph-name="k.sups" horiz-adv-x="379" 
d="M130 810v-284l109 128h110l-129 -140l149 -166h-115l-124 148v-148h-85v462h85z" />
    <glyph glyph-name="l.sups" horiz-adv-x="175" 
d="M130 810v-462h-85v462h85z" />
    <glyph glyph-name="m.sups" horiz-adv-x="594" 
d="M442 664q49 0 80.5 -30.5t31.5 -83.5v-202h-85v171q0 68 -61 68q-68 0 -68 -90v-149h-85v162q0 77 -62 77q-68 0 -68 -95v-144h-85v306h82v-53h2q34 63 105 63q77 0 103 -66h2q33 66 108 66z" />
    <glyph glyph-name="n.sups" horiz-adv-x="395" 
d="M235 664q55 0 87.5 -34.5t32.5 -102.5v-179h-85v155q0 84 -71 84q-32 0 -53 -20.5t-21 -65.5v-153h-85v306h82v-54h2q37 64 111 64z" />
    <glyph glyph-name="o.sups" horiz-adv-x="408" 
d="M204 664q75 0 124.5 -44.5t49.5 -118.5t-49.5 -118.5t-124.5 -44.5t-124.5 44.5t-49.5 118.5t49.5 118.5t124.5 44.5zM204 587q-36 0 -61 -23t-25 -63t25 -63t61 -23t61 23t25 63t-25 63t-61 23z" />
    <glyph glyph-name="p.sups" horiz-adv-x="422" 
d="M40 216v438h85v-52h2q34 62 114 62q67 0 109 -42t42 -121t-42 -121t-109 -42q-80 0 -114 62h-2v-184h-85zM215 414q38 0 62.5 23t24.5 64t-24.5 64t-62.5 23t-63 -23t-25 -64t25 -64t63 -23z" />
    <glyph glyph-name="q.sups" horiz-adv-x="422" 
d="M297 216v184h-2q-34 -62 -114 -62q-67 0 -109 42t-42 121t42 121t109 42q80 0 114 -62h2v52h85v-438h-85zM207 414q38 0 63 23t25 64t-25 64t-63 23t-62.5 -23t-24.5 -64t24.5 -64t62.5 -23z" />
    <glyph glyph-name="r.sups" horiz-adv-x="243" 
d="M233 662v-84h-16q-52 0 -72 -20.5t-20 -74.5v-135h-85v306h82v-57h2q10 32 37.5 48.5t64.5 16.5h7z" />
    <glyph glyph-name="s.sups" horiz-adv-x="315" 
d="M171 664q60 0 111 -23l-33 -70q-43 23 -84 23q-32 0 -32 -18q0 -14 24 -24l64 -27q34 -15 51.5 -34t17.5 -55q0 -98 -123 -98q-79 0 -142 38l37 70q58 -36 109 -36q35 0 35 18q0 13 -21 22l-59 26q-76 34 -76 97q0 42 29.5 66.5t91.5 24.5z" />
    <glyph glyph-name="t.sups" horiz-adv-x="260" 
d="M240 581h-70v-114q0 -21 7.5 -29.5t25.5 -8.5h20v-81h-39q-99 0 -99 113v120h-70v73h70v121h85v-121h70v-73z" />
    <glyph glyph-name="u.sups" horiz-adv-x="395" 
d="M350 654v-306h-82v55h-2q-37 -65 -107 -65q-54 0 -86.5 32t-32.5 94v190h88v-164q0 -76 67 -76q33 0 51.5 26t18.5 72v142h85z" />
    <glyph glyph-name="v.sups" horiz-adv-x="374" 
d="M364 654l-133 -306h-88l-133 306h96l81 -219l81 219h96z" />
    <glyph glyph-name="w.sups" horiz-adv-x="560" 
d="M550 654l-115 -306h-75l-80 196l-80 -196h-74l-116 306h86l68 -194l75 194h82l76 -194l68 194h85z" />
    <glyph glyph-name="x.sups" horiz-adv-x="381" 
d="M273 348l-83 98l-82 -98h-98l129 155l-125 151h99l77 -94l77 94h99l-124 -151l129 -155h-98z" />
    <glyph glyph-name="y.sups" horiz-adv-x="375" 
d="M278 654h87l-207 -438h-88l79 166l-139 272h99l84 -180z" />
    <glyph glyph-name="z.sups" horiz-adv-x="336" 
d="M301 654l-1 -61l-170 -173h181v-72h-286v64l167 170h-152v72h261z" />
    <glyph glyph-name="zero.dnom" horiz-adv-x="402" 
d="M202 395q76 0 120.5 -53.5t44.5 -147.5q0 -95 -44.5 -149t-120.5 -54q-78 0 -122.5 54t-44.5 149t44.5 148t122.5 53zM201 337q-49 0 -77 -39t-28 -104q0 -66 28 -105t77 -39q50 0 77 39t27 105t-27.5 104.5t-76.5 38.5z" />
    <glyph glyph-name="one.dnom" horiz-adv-x="205" 
d="M135 386v-386h-57v329h-38v57h95z" />
    <glyph glyph-name="two.dnom" horiz-adv-x="352" 
d="M180 395q62 0 94.5 -31.5t32.5 -84.5q0 -60 -68 -122l-109 -101h177v-56h-261l-1 51l147 139q54 50 54 88q0 26 -17 42.5t-48 16.5q-69 0 -77 -68h-58q3 62 38.5 94t95.5 32z" />
    <glyph glyph-name="three.dnom" horiz-adv-x="361" 
d="M182 395q61 0 93.5 -27t32.5 -73q0 -70 -72 -87v-1q85 -14 85 -100q0 -53 -35 -84.5t-109 -31.5q-64 0 -101.5 30.5t-40.5 86.5h61q10 -59 81 -59q84 0 84 64q0 63 -111 63v54q97 2 97 56q0 51 -66 51q-73 0 -77 -62h-59q8 120 137 120z" />
    <glyph glyph-name="four.dnom" horiz-adv-x="363" 
d="M338 129v-56h-51v-73h-59v73h-203v53l184 260h78v-257h51zM90 129h138v194h-2z" />
    <glyph glyph-name="five.dnom" horiz-adv-x="344" 
d="M190 254q49 0 84 -34.5t35 -95.5q0 -64 -39 -98.5t-101 -34.5q-93 0 -139 71l45 39q37 -52 94 -52q37 0 58.5 20t21.5 55q0 34 -20 55t-52 21q-47 0 -78 -36h-51l27 222h208v-57h-165l-14 -107h3q32 32 83 32z" />
    <glyph glyph-name="six.dnom" horiz-adv-x="348" 
d="M178 -9q-62 0 -102.5 37.5t-40.5 107.5q0 33 11 63.5t21.5 46t29.5 39.5l88 110h74l-139 -163l1 -1q34 27 73 27q53 0 88.5 -34.5t35.5 -93.5q0 -60 -37.5 -99.5t-102.5 -39.5zM177 49q35 0 58 21t23 57t-23 57t-58 21q-36 0 -59 -21t-23 -57t23 -57t59 -21z" />
    <glyph glyph-name="seven.dnom" horiz-adv-x="293" 
d="M273 386v-56l-172 -330h-63l173 327h-191v59h253z" />
    <glyph glyph-name="eight.dnom" horiz-adv-x="374" 
d="M187 -9q-67 0 -104.5 32t-37.5 83q0 76 73 97v2q-60 21 -60 87q0 47 34.5 75t94.5 28t94.5 -28t34.5 -75q0 -66 -60 -87v-2q73 -21 73 -97q0 -51 -37.5 -83t-104.5 -32zM187 230q30 0 49 14.5t19 39.5t-19 39t-49 14t-49 -14t-19 -39t19 -39.5t49 -14.5zM187 49
q82 0 82 65q0 31 -21 48t-61 17t-61 -17t-21 -48q0 -65 82 -65z" />
    <glyph glyph-name="nine.dnom" horiz-adv-x="353" 
d="M88 0l141 152l-1 2q-44 -29 -78 -29q-52 0 -86 37t-34 93q0 60 39 99.5t105 39.5q65 0 104.5 -38t39.5 -107q0 -76 -56 -140l-95 -109h-79zM174 177q38 0 61 22t23 58t-22.5 57.5t-60.5 21.5q-37 0 -61 -22.5t-24 -58.5q0 -35 23 -56.5t61 -21.5z" />
    <glyph glyph-name="zero.numr" horiz-adv-x="402" 
d="M202 684q76 0 120.5 -53.5t44.5 -147.5q0 -95 -44.5 -149t-120.5 -54q-78 0 -122.5 54t-44.5 149t44.5 148t122.5 53zM201 626q-49 0 -77 -39t-28 -104q0 -66 28 -105t77 -39q50 0 77 39t27 105t-27.5 104.5t-76.5 38.5z" />
    <glyph glyph-name="one.numr" horiz-adv-x="205" 
d="M135 675v-386h-57v329h-38v57h95z" />
    <glyph glyph-name="two.numr" horiz-adv-x="352" 
d="M180 684q62 0 94.5 -31.5t32.5 -84.5q0 -60 -68 -122l-109 -101h177v-56h-261l-1 51l147 139q54 50 54 88q0 26 -17 42.5t-48 16.5q-69 0 -77 -68h-58q3 62 38.5 94t95.5 32z" />
    <glyph glyph-name="three.numr" horiz-adv-x="361" 
d="M182 684q61 0 93.5 -27t32.5 -73q0 -70 -72 -87v-1q85 -14 85 -100q0 -53 -35 -84.5t-109 -31.5q-64 0 -101.5 30.5t-40.5 86.5h61q10 -59 81 -59q84 0 84 64q0 63 -111 63v54q97 2 97 56q0 51 -66 51q-73 0 -77 -62h-59q8 120 137 120z" />
    <glyph glyph-name="four.numr" horiz-adv-x="363" 
d="M338 418v-56h-51v-73h-59v73h-203v53l184 260h78v-257h51zM90 418h138v194h-2z" />
    <glyph glyph-name="five.numr" horiz-adv-x="344" 
d="M190 543q49 0 84 -34.5t35 -95.5q0 -64 -39 -98.5t-101 -34.5q-93 0 -139 71l45 39q37 -52 94 -52q37 0 58.5 20t21.5 55q0 34 -20 55t-52 21q-47 0 -78 -36h-51l27 222h208v-57h-165l-14 -107h3q32 32 83 32z" />
    <glyph glyph-name="six.numr" horiz-adv-x="348" 
d="M178 280q-62 0 -102.5 37.5t-40.5 107.5q0 33 11 63.5t21.5 46t29.5 39.5l88 110h74l-139 -163l1 -1q34 27 73 27q53 0 88.5 -34.5t35.5 -93.5q0 -60 -37.5 -99.5t-102.5 -39.5zM177 338q35 0 58 21t23 57t-23 57t-58 21q-36 0 -59 -21t-23 -57t23 -57t59 -21z" />
    <glyph glyph-name="seven.numr" horiz-adv-x="293" 
d="M273 675v-56l-172 -330h-63l173 327h-191v59h253z" />
    <glyph glyph-name="eight.numr" horiz-adv-x="374" 
d="M187 280q-67 0 -104.5 32t-37.5 83q0 76 73 97v2q-60 21 -60 87q0 47 34.5 75t94.5 28t94.5 -28t34.5 -75q0 -66 -60 -87v-2q73 -21 73 -97q0 -51 -37.5 -83t-104.5 -32zM187 519q30 0 49 14.5t19 39.5t-19 39t-49 14t-49 -14t-19 -39t19 -39.5t49 -14.5zM187 338
q82 0 82 65q0 31 -21 48t-61 17t-61 -17t-21 -48q0 -65 82 -65z" />
    <glyph glyph-name="nine.numr" horiz-adv-x="353" 
d="M88 289l141 152l-1 2q-44 -29 -78 -29q-52 0 -86 37t-34 93q0 60 39 99.5t105 39.5q65 0 104.5 -38t39.5 -107q0 -76 -56 -140l-95 -109h-79zM174 466q38 0 61 22t23 58t-22.5 57.5t-60.5 21.5q-37 0 -61 -22.5t-24 -58.5q0 -35 23 -56.5t61 -21.5z" />
    <glyph glyph-name="colon.case" horiz-adv-x="229" 
d="M174 520v-119h-119v119h119zM174 119v-119h-119v119h119z" />
    <glyph glyph-name="exclamdown.case" horiz-adv-x="319" 
d="M100 582v119h119v-119h-119zM102 1l24 488h67l24 -488h-115z" />
    <glyph glyph-name="questiondown.case" horiz-adv-x="440" 
d="M174 581v119h119v-119h-119zM219 -15q-92 0 -145.5 52t-53.5 136q0 86 76 156q6 5 21.5 18.5t22 19.5t17.5 19t16 23.5t9 26t4 32.5v20h95v-29q0 -28 -6 -51t-20 -44t-23.5 -32t-32 -32t-28.5 -28q-51 -53 -51 -100q0 -41 25 -66.5t74 -25.5q50 0 81 31.5t31 82.5h99
q0 -98 -57.5 -153.5t-153.5 -55.5z" />
    <glyph glyph-name="semicolon.case" horiz-adv-x="230" 
d="M174 520v-119h-119v119h119zM175 119v-119l-71 -143h-49l53 143h-52v119h119z" />
    <glyph glyph-name="colon.case.ss01" horiz-adv-x="229" 
d="M114 527q32 0 52.5 -20.5t20.5 -52.5q0 -31 -21 -51.5t-52 -20.5t-51.5 20.5t-20.5 51.5t20.5 52t51.5 21zM114 133q32 0 52.5 -20.5t20.5 -52.5q0 -31 -21 -51.5t-52 -20.5t-51.5 20.5t-20.5 51.5t20.5 52t51.5 21z" />
    <glyph glyph-name="exclamdown.case.ss01" horiz-adv-x="319" 
d="M160 567q-32 0 -52.5 20.5t-20.5 52.5q0 31 21 51.5t52 20.5t51.5 -20.5t20.5 -51.5t-20.5 -52t-51.5 -21zM102 0l24 488h67l24 -488h-115z" />
    <glyph glyph-name="questiondown.case.ss01" horiz-adv-x="440" 
d="M235 567q-31 0 -52 20.5t-21 52.5q0 31 21 51.5t52 20.5t51.5 -20.5t20.5 -51.5t-20.5 -52t-51.5 -21zM221 -15q-92 0 -146.5 52.5t-54.5 135.5q0 86 76 156q6 5 21.5 18.5t22 19.5t17.5 19t16 23.5t9 26t4 32.5v20h95v-29q0 -28 -6 -51t-20 -44t-23.5 -32t-32 -32
t-28.5 -28q-51 -53 -51 -100q0 -39 26 -65.5t75 -26.5q50 0 80 31t30 83h99q0 -98 -56.5 -153.5t-152.5 -55.5z" />
    <glyph glyph-name="semicolon.case.ss01" horiz-adv-x="230" 
d="M115 527q31 0 52 -20.5t21 -52.5q0 -31 -21 -51.5t-52 -20.5t-51.5 20.5t-20.5 51.5t20.5 52t51.5 21zM188 57q0 -24 -16 -52l-79 -145h-44l45 130q-25 6 -39 25t-14 43q0 31 21 51.5t52 20.5q33 0 53.5 -20.5t20.5 -52.5z" />
    <glyph glyph-name="braceleft.case" horiz-adv-x="401" 
d="M391 815v-86h-30q-44 0 -72 -25.5t-28 -98.5v-98q0 -69 -25 -108t-82 -53v-2q57 -14 82 -53t25 -108v-118q0 -74 28 -99t72 -25h30v-86h-39q-80 0 -134.5 47.5t-54.5 156.5v137q0 43 -34.5 69.5t-93.5 29.5v100q59 3 93.5 29.5t34.5 69.5v117q0 109 54.5 156.5
t134.5 47.5h39z" />
    <glyph glyph-name="braceright.case" horiz-adv-x="401" 
d="M10 -145v86h30q44 0 72 25t28 99v118q0 69 25 108t82 53v2q-57 14 -82 53t-25 108v98q0 73 -28 98.5t-72 25.5h-30v86h39q80 0 134.5 -47.5t54.5 -156.5v-117q0 -43 34.5 -69.5t93.5 -29.5v-100q-59 -3 -93.5 -29.5t-34.5 -69.5v-137q0 -109 -54.5 -156.5t-134.5 -47.5
h-39z" />
    <glyph glyph-name="bracketleft.case" horiz-adv-x="348" 
d="M338 825v-89h-130v-793h130v-88h-228v970h228z" />
    <glyph glyph-name="bracketright.case" horiz-adv-x="348" 
d="M10 -145v88h130v793h-130v89h228v-970h-228z" />
    <glyph glyph-name="parenleft.case" horiz-adv-x="298" 
d="M209 838l74 -55q-76 -101 -111 -204.5t-35 -230.5q0 -243 142 -438l-74 -55q-80 112 -122.5 228.5t-42.5 264.5q0 149 43 264t126 226z" />
    <glyph glyph-name="parenright.case" horiz-adv-x="298" 
d="M93 -145l-74 55q142 195 142 438q0 127 -35 230.5t-111 204.5l74 55q83 -111 126 -226t43 -264q0 -148 -42.5 -264.5t-122.5 -228.5z" />
    <glyph glyph-name="emdash.case" horiz-adv-x="1154" 
d="M1104 392v-88h-1054v88h1054z" />
    <glyph glyph-name="endash.case" horiz-adv-x="752" 
d="M702 392v-88h-652v88h652z" />
    <glyph glyph-name="hyphen.case" horiz-adv-x="351" 
d="M306 393v-96h-261v96h261z" />
    <glyph glyph-name="guillemotleft.case" horiz-adv-x="468" 
d="M277 473l-147 -159l147 -159h-110l-147 159l147 159h110zM458 473l-147 -159l147 -159h-110l-147 159l147 159h110z" />
    <glyph glyph-name="guillemotright.case" horiz-adv-x="468" 
d="M10 473h110l147 -159l-147 -159h-110l147 159zM191 473h110l147 -159l-147 -159h-110l147 159z" />
    <glyph glyph-name="guilsinglleft.case" horiz-adv-x="287" 
d="M277 473l-147 -159l147 -159h-110l-147 159l147 159h110z" />
    <glyph glyph-name="guilsinglright.case" horiz-adv-x="287" 
d="M10 473h110l147 -159l-147 -159h-110l147 159z" />
    <glyph glyph-name="approxequal.case" 
d="M168 486q42 0 136.5 -39.5t126.5 -39.5q56 0 79 68h46q-31 -118 -124 -118q-43 0 -137 39.5t-126 39.5q-56 0 -79 -68h-46q16 61 49 89.5t75 28.5zM168 337q42 0 136.5 -39.5t126.5 -39.5q56 0 79 69h46q-31 -118 -124 -118q-44 0 -138 39t-125 39q-56 0 -79 -69h-46
q16 61 49 90t75 29z" />
    <glyph glyph-name="divide.case" 
d="M340 537v-84h-80v84h80zM559 363v-48h-518v48h518zM340 225v-85h-80v85h80z" />
    <glyph glyph-name="equal.case" 
d="M553 458v-48h-506v48h506zM553 269v-48h-506v48h506z" />
    <glyph glyph-name="greater.case" 
d="M75 563l450 -198v-51l-450 -198v54l392 169l-392 170v54z" />
    <glyph glyph-name="less.case" 
d="M525 563v-54l-392 -170l392 -169v-54l-450 198v51z" />
    <glyph glyph-name="logicalnot.case" 
d="M71 472h458v-265h-50v217h-408v48z" />
    <glyph glyph-name="minus.case" 
d="M539 362v-48h-478v48h478z" />
    <glyph glyph-name="multiply.case" 
d="M481 554l35 -35l-181 -181l181 -181l-35 -35l-181 181l-181 -181l-35 35l181 181l-181 181l35 35l181 -181z" />
    <glyph glyph-name="notequal.case" 
d="M553 410h-186l-85 -141h271v-48h-299l-59 -98h-47l58 98h-159v48h188l84 141h-272v48h301l57 96h48l-57 -96h157v-48z" />
    <glyph glyph-name="plus.case" 
d="M325 581v-220h219v-46h-219v-220h-50v220h-219v46h219v220h50z" />
    <glyph glyph-name="divide.ss01.case" 
d="M300 448q-18 0 -30.5 12t-12.5 31t12.5 31t30.5 12t30.5 -12t12.5 -31t-12.5 -31t-30.5 -12zM41 315v48h518v-48h-518zM300 144q-18 0 -30.5 12t-12.5 31t12.5 31t30.5 12t30.5 -12t12.5 -31t-12.5 -31t-30.5 -12z" />
    <glyph glyph-name="arrowup.case" horiz-adv-x="730" 
d="M680 419l-68 -67l-203 205v-556h-88v556l-203 -205l-68 67l315 300z" />
    <glyph glyph-name="uni2197.case" horiz-adv-x="649" 
d="M599 182l-96 1l2 288l-393 -393l-62 62l394 394l-290 -2l-1 95l435 -10z" />
    <glyph glyph-name="arrowright.case" horiz-adv-x="818" 
d="M468 686l300 -315l-300 -315l-67 68l205 203h-556v88h556l-205 203z" />
    <glyph glyph-name="uni2198.case" horiz-adv-x="649" 
d="M504 557l95 1l-10 -435l-435 -11l1 96l288 -2l-393 393l62 62l394 -394z" />
    <glyph glyph-name="arrowdown.case" horiz-adv-x="730" 
d="M612 389l68 -67l-315 -300l-315 300l68 67l203 -205v556h88v-556z" />
    <glyph glyph-name="uni2199.case" horiz-adv-x="649" 
d="M205 206l290 2l1 -95l-435 10l-11 435l96 -1l-2 -288l393 393l62 -62z" />
    <glyph glyph-name="arrowleft.case" horiz-adv-x="818" 
d="M768 414v-88h-556l205 -203l-67 -68l-300 315l300 315l67 -68l-205 -203h556z" />
    <glyph glyph-name="uni2196.case" horiz-adv-x="649" 
d="M599 141l-62 -62l-394 394l2 -290l-95 -1l10 435l435 11l-1 -96l-288 2z" />
    <glyph glyph-name="arrowboth.case" horiz-adv-x="1257" 
d="M907 685l300 -315l-300 -315l-67 68l205 203h-833l205 -203l-67 -68l-300 315l300 315l67 -68l-205 -203h833l-205 203z" />
    <glyph glyph-name="bar.case" horiz-adv-x="308" 
d="M198 807v-942h-88v942h88z" />
    <glyph glyph-name="brokenbar.case" horiz-adv-x="308" 
d="M198 807v-388h-88v388h88zM198 261v-396h-88v396h88z" />
    <glyph glyph-name="at.case" horiz-adv-x="940" 
d="M482 760q182 0 295 -106.5t113 -280.5q0 -106 -47 -177t-127 -71q-88 0 -119 78h-3q-16 -34 -53.5 -58t-90.5 -24q-84 0 -142 60t-58 158t58 158t143 60q92 0 134 -77h1v62h88v-280q0 -66 50 -66q41 0 62.5 45.5t21.5 126.5q0 148 -92.5 232t-233.5 84q-150 0 -250 -88.5
t-100 -257.5q0 -86 32 -154t84.5 -107.5t114.5 -60t128 -20.5q103 0 196 42l31 -72q-121 -46 -228 -46q-63 0 -124 15t-118.5 48t-101 80.5t-70 118t-26.5 154.5q0 200 120 312t312 112zM469 471q-55 0 -90 -37.5t-35 -93.5q0 -57 34.5 -94t90.5 -37q55 0 89.5 37.5
t34.5 93.5t-34.5 93.5t-89.5 37.5z" />
    <glyph glyph-name="uniF8FF.ss01" horiz-adv-x="770" 
d="M385 -15q-159 0 -262 103.5t-103 261.5t103 261.5t262 103.5t262 -103.5t103 -261.5t-103 -261.5t-262 -103.5zM385 10q146 0 244 97t98 248l-51 65l-70 -30l-68 90l-79 -44l-74 118l-74 -118l-79 44l-68 -90l-70 30l-51 -65q0 -151 98 -248t244 -97zM282 318
q-15 0 -25 10t-10 25t10 25t25 10t25 -10t10 -25t-10 -25t-25 -10zM487 318q-15 0 -25 10t-10 25t10 25t25 10t25 -10t10 -25t-10 -25t-25 -10zM343 255l36 101q2 9 11 5q9 -2 5 -11l-28 -78h34q9 0 9 -9q0 -8 -9 -8h-58zM188 171q-30 0 -49.5 19.5t-19.5 49.5t19.5 49.5
t49.5 19.5t49.5 -19.5t19.5 -49.5t-19.5 -49.5t-49.5 -19.5zM581 171q-30 0 -49.5 19.5t-19.5 49.5t19.5 49.5t49.5 19.5t49.5 -19.5t19.5 -49.5t-19.5 -49.5t-49.5 -19.5zM385 195q45 0 62 30q3 6 9 6q8 0 8 -9q0 -14 -20.5 -29.5t-58.5 -15.5t-58.5 15.5t-20.5 29.5
q0 9 8 9q6 0 9 -6q17 -30 62 -30z" />
    <glyph glyph-name="uni0308.case" horiz-adv-x="0" 
d="M-260 847v-104h-106v104h106zM-50 847v-104h-106v104h106z" />
    <glyph glyph-name="uni0307.case" horiz-adv-x="0" 
d="M-50 847v-104h-106v104h106z" />
    <glyph glyph-name="gravecomb.case" horiz-adv-x="0" 
d="M-145 863l95 -120h-74l-147 120h126z" />
    <glyph glyph-name="acutecomb.case" horiz-adv-x="0" 
d="M-50 863l-147 -120h-74l95 120h126z" />
    <glyph glyph-name="uni030B.case" horiz-adv-x="0" 
d="M-171 863l-102 -120h-69l84 120h87zM-50 863l-102 -120h-69l84 120h87z" />
    <glyph glyph-name="uni0302.case" horiz-adv-x="0" 
d="M-170 863l120 -120h-93l-76 75l-75 -75h-93l120 120h97z" />
    <glyph glyph-name="uni030C.case" horiz-adv-x="0" 
d="M-170 743h-97l-120 120h93l75 -75l76 75h93z" />
    <glyph glyph-name="uni0306.case" horiz-adv-x="0" 
d="M-50 863q-4 -56 -40.5 -88t-95.5 -32t-95.5 32t-40.5 88h67q5 -57 69 -57t69 57h67z" />
    <glyph glyph-name="uni030A.case" horiz-adv-x="0" 
d="M-167 886q51 0 84 -33t33 -84q0 -50 -33 -83t-84 -33t-84 33t-33 83q0 51 33 84t84 33zM-168 839q-30 0 -48.5 -19.5t-18.5 -50.5q0 -30 18.5 -49.5t48.5 -19.5t49 19.5t19 49.5q0 31 -18.5 50.5t-49.5 19.5z" />
    <glyph glyph-name="tildecomb.case" horiz-adv-x="0" 
d="M-152 743q-29 0 -87 23t-78 23q-36 0 -55 -45l-37 11q11 46 36.5 77t66.5 31q28 0 86 -23t78 -23q36 0 55 45l37 -11q-11 -46 -36 -77t-66 -31z" />
    <glyph glyph-name="uni0304.case" horiz-adv-x="0" 
d="M-50 833v-72h-290v72h290z" />
    <glyph glyph-name="uni0308.ss01" horiz-adv-x="0" 
d="M-319 704q29 0 49 -20t20 -49t-20 -49t-49 -20t-49 20t-20 49t20 49t49 20zM-119 704q29 0 49 -20t20 -49t-20 -49t-49 -20t-49 20t-20 49t20 49t49 20z" />
    <glyph glyph-name="uni0307.ss01" horiz-adv-x="0" 
d="M-122 704q30 0 51 -21t21 -51t-21 -51t-51 -21t-51 21t-21 51t21 51t51 21z" />
    <glyph glyph-name="uni0312.ss01" horiz-adv-x="0" 
d="M-167 592q0 29 22 54l52 57h36l-30 -58q16 -4 26.5 -20t10.5 -35q0 -24 -16 -40t-41 -16q-26 0 -43 16t-17 42z" />
    <glyph glyph-name="uni0326.ss01" horiz-adv-x="0" 
d="M-50 -99q0 -29 -22 -54l-52 -57h-36l30 58q-16 4 -26.5 20t-10.5 35q0 24 16 40t41 16q26 0 43 -16t17 -42z" />
    <glyph glyph-name="uni0308.case.ss01" horiz-adv-x="0" 
d="M-322 866q26 0 44 -18t18 -44t-18 -44t-44 -18t-44 18t-18 44t18 44t44 18zM-112 866q26 0 44 -18t18 -44t-18 -44t-44 -18t-44 18t-18 44t18 44t44 18z" />
    <glyph glyph-name="uni0307.case.ss01" horiz-adv-x="0" 
d="M-112 866q26 0 44 -18t18 -44t-18 -44t-44 -18t-44 18t-18 44t18 44t44 18z" />
    <glyph glyph-name="dieresiscasecomb.ss01" horiz-adv-x="224" 
d="M112 866q26 0 44 -18t18 -44t-18 -44t-44 -18t-44 18t-18 44t18 44t44 18z" />
    <glyph glyph-name="dieresisdotcomb.ss01" horiz-adv-x="238" 
d="M119 700q29 0 49 -20t20 -49t-20 -49t-49 -20t-49 20t-20 49t20 49t49 20z" />
    <glyph glyph-name="circlecomb" horiz-adv-x="830" 
d="M415 -15q-161 0 -263 103t-102 262t102 262t263 103t263 -103t102 -262t-102 -262t-263 -103zM415 45q130 0 215 86.5t85 218.5t-85 218.5t-215 86.5t-215 -86.5t-85 -218.5t85 -218.5t215 -86.5z" />
    <glyph glyph-name="circleinvertcomb" horiz-adv-x="830" 
d="M415 -15q-157 0 -261 104.5t-104 260.5t104 260.5t261 104.5t261 -104.5t104 -260.5t-104 -260.5t-261 -104.5z" />
    </font>
</defs>
</svg>
