<?xml version="1.0" standalone="no"?>
<!DOCTYPE svg PUBLIC "-//W3C//DTD SVG 1.1//EN" "http://www.w3.org/Graphics/SVG/1.1/DTD/svg11.dtd" >
<svg xmlns="http://www.w3.org/2000/svg" xmlns:xlink="http://www.w3.org/1999/xlink" version="1.1">
<metadata>
Created by FontForge 20170731 at Wed Aug 16 22:19:53 2017
 By Aleksey,,,
Copyright (c) 2015 by Reto Moser. All rights reserved.
</metadata>
<defs>
<font id="GTEestiDisplay-Light" horiz-adv-x="600" >
  <font-face 
    font-family="GT Eesti Display Light"
    font-weight="350"
    font-stretch="normal"
    units-per-em="1000"
    panose-1="0 0 4 0 0 0 0 0 0 0"
    ascent="750"
    descent="-250"
    x-height="462"
    cap-height="700"
    bbox="-395 -251 1209 890"
    underline-thickness="50"
    underline-position="-200"
    unicode-range="U+0020-FB02"
  />
<missing-glyph horiz-adv-x="770" 
d="M385 -15q-158 0 -261.5 103.5t-103.5 261.5q0 159 103.5 262t261.5 103q159 0 262 -103t103 -262q0 -158 -103 -261.5t-262 -103.5zM385 10q148 0 245 98t97 247l-51 65l-70 -30l-68 90l-79 -44l-74 118l-74 -118l-79 44l-68 -90l-70 30l-51 -65q0 -149 97 -247t245 -98z
M282 318q-15 0 -25 10t-10 25t10 25t25 10t25 -10t10 -25t-10 -25t-25 -10zM487 318q-15 0 -25 10t-10 25t10 25t25 10t25 -10t10 -25t-10 -25t-25 -10zM343 255l36 101q2 9 11 5q9 -2 5 -11l-28 -78h34q9 0 9 -9q0 -8 -9 -8h-58zM188 171q-30 0 -49.5 19.5t-19.5 49.5
t19.5 49.5t49.5 19.5t49.5 -19.5t19.5 -49.5t-19.5 -49.5t-49.5 -19.5zM581 171q-30 0 -49.5 19.5t-19.5 49.5t19.5 49.5t49.5 19.5t49.5 -19.5t19.5 -49.5t-19.5 -49.5t-49.5 -19.5zM385 193q-46 0 -62 -30q-3 -6 -9 -6q-8 0 -8 9q0 17 24.5 31t54.5 14t54.5 -14t24.5 -31
q0 -9 -8 -9q-6 0 -9 6q-16 30 -62 30z" />
    <glyph glyph-name="fi" unicode="fi" horiz-adv-x="510" 
d="M109 539q0 85 43.5 128t120.5 43h16v-68h-13q-96 0 -96 -102v-78h105v-62h-105v-400h-71v400h-85v62h85v77zM363 690h91v-120h-91v120zM373 0v462h72v-462h-72z" />
    <glyph glyph-name="fl" unicode="fl" horiz-adv-x="514" 
d="M109 539q0 85 43.5 128t120.5 43h16v-68h-13q-96 0 -96 -102v-78h105v-62h-105v-400h-71v400h-85v62h85v77zM375 700h72v-700h-72v700z" />
    <glyph glyph-name="f_f" unicode="ff" horiz-adv-x="616" 
d="M109 539q0 85 43.5 128t120.5 43h16v-68h-13q-96 0 -96 -102v-78h105v-62h-105v-400h-71v400h-85v62h85v77zM584 642q-96 0 -96 -102v-78h105v-62h-105v-400h-71v400h-85v62h85v77q0 85 43.5 128t120.5 43h16v-68h-13z" />
    <glyph glyph-name="f_f_i" unicode="ffi" horiz-adv-x="818" 
d="M109 539q0 85 43.5 128t120.5 43h16v-68h-13q-96 0 -96 -102v-78h105v-62h-105v-400h-71v400h-85v62h85v77zM417 539q0 85 43.5 128t120.5 43h16v-68h-13q-96 0 -96 -102v-78h105v-62h-105v-400h-71v400h-85v62h85v77zM671 690h91v-120h-91v120zM681 0v462h72v-462h-72z
" />
    <glyph glyph-name="f_f_l" unicode="ffl" horiz-adv-x="822" 
d="M109 539q0 85 43.5 128t120.5 43h16v-68h-13q-96 0 -96 -102v-78h105v-62h-105v-400h-71v400h-85v62h85v77zM417 539q0 85 43.5 128t120.5 43h16v-68h-13q-96 0 -96 -102v-78h105v-62h-105v-400h-71v400h-85v62h85v77zM683 700h72v-700h-72v700z" />
    <glyph glyph-name=".notdef" horiz-adv-x="770" 
d="M385 -15q-158 0 -261.5 103.5t-103.5 261.5q0 159 103.5 262t261.5 103q159 0 262 -103t103 -262q0 -158 -103 -261.5t-262 -103.5zM385 10q148 0 245 98t97 247l-51 65l-70 -30l-68 90l-79 -44l-74 118l-74 -118l-79 44l-68 -90l-70 30l-51 -65q0 -149 97 -247t245 -98z
M282 318q-15 0 -25 10t-10 25t10 25t25 10t25 -10t10 -25t-10 -25t-25 -10zM487 318q-15 0 -25 10t-10 25t10 25t25 10t25 -10t10 -25t-10 -25t-25 -10zM343 255l36 101q2 9 11 5q9 -2 5 -11l-28 -78h34q9 0 9 -9q0 -8 -9 -8h-58zM188 171q-30 0 -49.5 19.5t-19.5 49.5
t19.5 49.5t49.5 19.5t49.5 -19.5t19.5 -49.5t-19.5 -49.5t-49.5 -19.5zM581 171q-30 0 -49.5 19.5t-19.5 49.5t19.5 49.5t49.5 19.5t49.5 -19.5t19.5 -49.5t-19.5 -49.5t-49.5 -19.5zM385 193q-46 0 -62 -30q-3 -6 -9 -6q-8 0 -8 9q0 17 24.5 31t54.5 14t54.5 -14t24.5 -31
q0 -9 -8 -9q-6 0 -9 6q-16 30 -62 30z" />
    <glyph glyph-name=".null" horiz-adv-x="0" 
 />
    <glyph glyph-name="nonmarkingreturn" horiz-adv-x="333" 
 />
    <glyph glyph-name="space" unicode=" " horiz-adv-x="298" 
 />
    <glyph glyph-name="exclam" unicode="!" horiz-adv-x="303" 
d="M126 206l-17 494h84l-17 -494h-50zM203 103v-103h-103v103h103z" />
    <glyph glyph-name="quotedbl" unicode="&#x22;" horiz-adv-x="267" 
d="M69 462l-19 253h67l-19 -253h-29zM169 462l-19 253h67l-19 -253h-29z" />
    <glyph glyph-name="numbersign" unicode="#" horiz-adv-x="631" 
d="M581 456h-126l-35 -190h124v-42h-131l-41 -224h-46l41 224h-149l-41 -224h-46l41 224h-122v42h129l35 190h-127v42h134l37 202h46l-37 -202h149l37 202h46l-37 -202h119v-42zM374 266l35 190h-149l-35 -190h149z" />
    <glyph glyph-name="dollar" unicode="$" horiz-adv-x="503" 
d="M473 177q0 -86 -53.5 -136.5t-148.5 -55.5v-62h-28v62q-99 2 -155.5 54t-57.5 142h74q7 -123 139 -128v272q-36 14 -54.5 22.5t-47.5 26.5t-43.5 35.5t-26 46t-11.5 63.5q0 77 48.5 121.5t134.5 49.5v72h28v-72q86 -3 138 -47t53 -131h-74q-6 105 -117 110v-230
q33 -13 42 -17t38 -18t40 -22.5t31 -26.5t28 -35t15.5 -42t7.5 -54zM135 522q0 -43 27.5 -69t80.5 -49v217q-108 -8 -108 -99zM271 54q64 4 95.5 35.5t31.5 82.5q0 54 -32.5 84.5t-94.5 57.5v-260z" />
    <glyph glyph-name="percent" unicode="%" horiz-adv-x="751" 
d="M208 690q70 0 114 -44.5t44 -113.5t-44 -113.5t-114 -44.5t-114 44.5t-44 113.5t44 113.5t114 44.5zM147 0l395 675h48l-395 -675h-48zM208 643q-49 0 -78.5 -30.5t-29.5 -80.5t29.5 -80.5t78.5 -30.5t78.5 30.5t29.5 80.5t-29.5 80.5t-78.5 30.5zM543 311
q70 0 114 -44.5t44 -113.5t-44 -113.5t-114 -44.5t-114 44.5t-44 113.5t44 113.5t114 44.5zM543 264q-49 0 -78.5 -30.5t-29.5 -80.5t29.5 -80.5t78.5 -30.5t78.5 30.5t29.5 80.5t-29.5 80.5t-78.5 30.5z" />
    <glyph glyph-name="ampersand" unicode="&#x26;" horiz-adv-x="673" 
d="M632 0h-88l-56 73q-86 -88 -208 -88q-104 0 -169.5 58.5t-65.5 157.5q0 80 45 138.5t127 86.5q-61 79 -61 142q0 56 40.5 89t112.5 33q69 0 136 -28l-24 -66q-62 23 -113 23q-76 0 -76 -58q0 -35 46 -96l210 -276q36 56 69 147l67 -25q-41 -112 -90 -182zM280 56
q95 0 164 74l-185 241q-139 -44 -139 -166q0 -69 44 -109t116 -40z" />
    <glyph glyph-name="quotesingle" unicode="'" horiz-adv-x="172" 
d="M122 715l-18 -253h-35l-19 253h72z" />
    <glyph glyph-name="parenleft" unicode="(" horiz-adv-x="283" 
d="M210 763l56 -41q-79 -104 -115.5 -209.5t-36.5 -233.5q0 -130 36 -239t113 -214l-55 -41q-81 112 -123.5 228.5t-42.5 265.5q0 148 42.5 261.5t125.5 222.5z" />
    <glyph glyph-name="parenright" unicode=")" horiz-adv-x="283" 
d="M75 -215l-56 41q150 204 150 453q0 128 -36.5 233.5t-115.5 209.5l56 41q83 -109 125.5 -222.5t42.5 -261.5q0 -149 -42.5 -265.5t-123.5 -228.5z" />
    <glyph glyph-name="asterisk" unicode="*" horiz-adv-x="403" 
d="M373 571l-136 -38l88 -110l-46 -34l-77 117l-78 -118l-46 34l88 110l-136 38l18 53l131 -49l-7 141h58l-7 -140l132 49z" />
    <glyph glyph-name="plus" unicode="+" 
d="M321 541v-224h223v-38h-223v-224h-42v224h-223v38h223v224h42z" />
    <glyph glyph-name="comma" unicode="," horiz-adv-x="213" 
d="M158 103v-103l-63 -142h-40l50 142h-49v103h102z" />
    <glyph glyph-name="hyphen" unicode="-" horiz-adv-x="347" 
d="M302 305v-72h-257v72h257z" />
    <glyph glyph-name="period" unicode="." horiz-adv-x="213" 
d="M158 103v-103h-103v103h103z" />
    <glyph glyph-name="slash" unicode="/" horiz-adv-x="581" 
d="M494 777l57 -32l-463 -838l-58 31z" />
    <glyph glyph-name="zero" unicode="0" horiz-adv-x="566" 
d="M283 690q111 0 174.5 -92.5t63.5 -259.5t-63.5 -260t-174.5 -93t-174.5 93t-63.5 260t63.5 259.5t174.5 92.5zM283 622q-75 0 -119 -76.5t-44 -207.5t44.5 -208t118.5 -77t118.5 77t44.5 208t-44 207.5t-119 76.5z" />
    <glyph glyph-name="one" unicode="1" horiz-adv-x="306" 
d="M198 675v-675h-72v604h-53v71h125z" />
    <glyph glyph-name="two" unicode="2" horiz-adv-x="500" 
d="M36 0v56l251 274q47 52 69 91t22 79q0 54 -35 88t-95 34q-59 0 -97.5 -34t-40.5 -96h-72q2 92 59.5 145t153.5 53q95 0 148.5 -50.5t53.5 -136.5q0 -54 -25.5 -103t-79.5 -108l-208 -223h315v-69h-419z" />
    <glyph glyph-name="three" unicode="3" horiz-adv-x="520" 
d="M253 690q92 0 146 -46.5t54 -124.5q0 -60 -33 -102t-95 -54v-2q74 -6 115 -52t41 -124q0 -92 -57 -146t-163 -54q-101 0 -160.5 48.5t-64.5 139.5h73q5 -56 43.5 -88t108.5 -32q145 0 145 138q0 71 -43.5 102.5t-142.5 30.5h-37v65h37q158 0 158 119q0 54 -33 84t-93 30
q-58 0 -94.5 -28.5t-38.5 -82.5h-72q3 83 58.5 131t147.5 48z" />
    <glyph glyph-name="four" unicode="4" horiz-adv-x="549" 
d="M520 197v-69h-82v-128h-71v128h-347v61l340 486h78v-478h82zM101 197h266v376h-3z" />
    <glyph glyph-name="five" unicode="5" horiz-adv-x="522" 
d="M280 442q94 0 152.5 -59t58.5 -164q0 -108 -61.5 -171t-171.5 -63q-84 0 -144 37.5t-88 106.5l61 35q52 -111 170 -111q79 0 119 45t40 120q0 76 -41.5 118t-110.5 42q-92 0 -140 -71h-65l41 368h337v-69h-278l-27 -219h2q57 55 146 55z" />
    <glyph glyph-name="six" unicode="6" horiz-adv-x="523" 
d="M268 -15q-103 0 -169.5 64t-66.5 174q0 73 27 137.5t89 138.5l150 182h89l-245 -294l3 -2q61 60 142 60q97 0 156.5 -63.5t59.5 -164.5q0 -102 -66 -167t-169 -65zM268 53q71 0 115.5 45t44.5 118t-43.5 117.5t-114.5 44.5q-73 0 -118 -45t-45 -118q0 -72 44.5 -117
t116.5 -45z" />
    <glyph glyph-name="seven" unicode="7" horiz-adv-x="444" 
d="M428 675v-63l-283 -612h-77l283 605h-336v70h413z" />
    <glyph glyph-name="eight" unicode="8" horiz-adv-x="537" 
d="M268 -15q-106 0 -166.5 54.5t-60.5 144.5q0 65 35 112.5t94 64.5v2q-48 15 -78.5 55.5t-30.5 96.5q0 79 56 127t151 48q96 0 152 -48t56 -127q0 -56 -30.5 -96.5t-78.5 -55.5v-2q59 -17 93.5 -64.5t34.5 -112.5q0 -90 -60.5 -144.5t-166.5 -54.5zM268 393q60 0 96 32
t36 85t-35.5 84t-96.5 31t-96.5 -31t-35.5 -84t36 -85t96 -32zM268 50q71 0 111.5 36.5t40.5 101.5q0 63 -40 101t-112 38q-71 0 -111 -38t-40 -101q0 -65 40 -101.5t111 -36.5z" />
    <glyph glyph-name="nine" unicode="9" horiz-adv-x="510" 
d="M146 0l240 293l-2 2q-59 -58 -144 -58q-93 0 -154 64t-61 160q0 103 65 166t168 63q105 0 168.5 -64.5t63.5 -179.5q0 -68 -26 -130.5t-85 -135.5l-146 -180h-87zM257 304q71 0 115.5 44t44.5 114q0 71 -44 115.5t-116 44.5q-69 0 -113 -44t-44 -115t43.5 -115t113.5 -44
z" />
    <glyph glyph-name="colon" unicode=":" horiz-adv-x="213" 
d="M158 462v-103h-103v103h103zM158 103v-103h-103v103h103z" />
    <glyph glyph-name="semicolon" unicode=";" horiz-adv-x="213" 
d="M159 462v-103h-103v103h103zM158 103v-103l-63 -142h-40l50 142h-49v103h102z" />
    <glyph glyph-name="less" unicode="&#x3c;" 
d="M521 515v-46l-392 -170l392 -170v-45l-442 195v41z" />
    <glyph glyph-name="equal" unicode="=" 
d="M553 408v-39h-506v39h506zM553 229v-39h-506v39h506z" />
    <glyph glyph-name="greater" unicode="&#x3e;" 
d="M79 515l442 -195v-41l-442 -195v45l392 170l-392 170v46z" />
    <glyph glyph-name="question" unicode="?" horiz-adv-x="470" 
d="M235 715q91 0 143 -49.5t52 -131.5q0 -51 -21 -87t-58 -72q-4 -4 -19 -17.5t-20 -18.5l-17 -17t-16.5 -20t-11 -20.5t-9 -25t-2.5 -26.5v-24h-72v29q0 19 2.5 35t10.5 32l13 26t20 26t19.5 21.5t23.5 23.5t23 21q59 59 59 116q0 47 -30.5 77.5t-89.5 30.5q-61 0 -96 -35
t-35 -95h-74q0 94 55 147.5t150 53.5zM271 103v-103h-103v103h103z" />
    <glyph glyph-name="at" unicode="@" horiz-adv-x="934" 
d="M479 690q179 0 292 -106t113 -281q0 -103 -43.5 -173t-119.5 -70q-87 0 -107 86h-3q-45 -95 -157 -95q-87 0 -146 60t-59 158q0 99 59 158.5t146 59.5q106 0 151 -89h2v74h64v-288q0 -36 16 -53t40 -17q46 0 71 51t25 134q0 156 -99 244.5t-245 88.5q-74 0 -139 -22.5
t-116.5 -66t-81.5 -114.5t-30 -161t33 -161t87.5 -113.5t119.5 -64t135 -21.5q109 0 202 44l24 -55q-114 -47 -227 -47q-80 0 -155 25t-139 73.5t-103 131t-39 186.5q0 199 120.5 311.5t308.5 112.5zM465 423q-66 0 -106 -43t-40 -110t39.5 -110t106.5 -43q66 0 106.5 43.5
t40.5 109.5t-40.5 109.5t-106.5 43.5z" />
    <glyph glyph-name="A" unicode="A" horiz-adv-x="659" 
d="M568 0l-74 187h-329l-74 -187h-84l286 700h73l285 -700h-83zM193 258h273l-136 344z" />
    <glyph glyph-name="B" unicode="B" horiz-adv-x="611" 
d="M417 372q70 -9 111 -55.5t41 -119.5q0 -93 -63 -145t-157 -52h-275v700h248q94 0 150 -46.5t56 -128.5q0 -56 -29 -96.5t-82 -54.5v-2zM305 627h-154v-227h150q143 0 143 112q0 115 -139 115zM336 73q70 0 110 35t40 94q0 58 -41 92.5t-117 34.5h-177v-256h185z" />
    <glyph glyph-name="C" unicode="C" horiz-adv-x="685" 
d="M411 -15q-168 0 -271 101t-103 264t103 264t271 101q138 0 244 -79l-47 -67q-90 68 -199 68q-127 0 -207.5 -79.5t-80.5 -207.5t80.5 -207.5t207.5 -79.5q109 0 199 68l47 -67q-106 -79 -244 -79z" />
    <glyph glyph-name="D" unicode="D" horiz-adv-x="683" 
d="M293 700q155 0 253.5 -94.5t98.5 -255.5t-98.5 -255.5t-253.5 -94.5h-219v700h219zM293 627h-142v-555h142q118 0 193.5 73t75.5 205q0 131 -75.5 204t-193.5 73z" />
    <glyph glyph-name="E" unicode="E" horiz-adv-x="518" 
d="M151 73h320v-73h-397v700h392v-73h-315v-201h290v-72h-290v-281z" />
    <glyph glyph-name="F" unicode="F" horiz-adv-x="501" 
d="M471 627h-320v-227h294v-72h-294v-328h-77v700h397v-73z" />
    <glyph glyph-name="G" unicode="G" horiz-adv-x="790" 
d="M434 374h326v-32q0 -67 -21.5 -129t-63.5 -114t-111.5 -83t-156.5 -31q-162 0 -266 100.5t-104 262.5t103 264.5t267 102.5q150 0 268 -93l-53 -65q-97 80 -218 80q-124 0 -203.5 -81.5t-79.5 -206.5t79.5 -205.5t208.5 -80.5q65 0 117.5 22.5t84 58.5t48.5 76.5t19 80.5
h-244v73z" />
    <glyph glyph-name="H" unicode="H" horiz-adv-x="702" 
d="M551 700h77v-700h-77v335h-400v-335h-77v700h77v-291h400v291z" />
    <glyph glyph-name="I" unicode="I" horiz-adv-x="227" 
d="M152 700v-700h-78v700h78z" />
    <glyph glyph-name="J" unicode="J" horiz-adv-x="270" 
d="M196 700v-534q0 -88 -36 -129.5t-111 -41.5h-32v75h25q39 0 58 21.5t19 74.5v534h77z" />
    <glyph glyph-name="K" unicode="K" horiz-adv-x="612" 
d="M605 0h-115l-339 357v-357h-77v700h77v-315l300 315h109l-320 -324z" />
    <glyph glyph-name="L" unicode="L" horiz-adv-x="485" 
d="M151 700v-626h325v-74h-402v700h77z" />
    <glyph glyph-name="M" unicode="M" horiz-adv-x="844" 
d="M666 700l171 -700h-82l-130 551h-2l-171 -439h-60l-171 439h-2l-130 -551h-82l171 700h64l179 -468h2l179 468h64z" />
    <glyph glyph-name="N" unicode="N" horiz-adv-x="694" 
d="M619 700v-700h-82l-384 569h-2v-569h-77v700h82l384 -569h2v569h77z" />
    <glyph glyph-name="O" unicode="O" horiz-adv-x="804" 
d="M402 715q157 0 261 -102.5t104 -262.5t-104 -262.5t-261 -102.5t-261 102.5t-104 262.5t104 262.5t261 102.5zM402 637q-123 0 -202 -81t-79 -206t79 -206t202 -81t202 80.5t79 206.5t-79 206.5t-202 80.5z" />
    <glyph glyph-name="P" unicode="P" horiz-adv-x="542" 
d="M310 700q98 0 154.5 -58t56.5 -149q0 -90 -57 -148t-154 -58h-159v-287h-77v700h236zM302 360q62 0 99 34.5t37 98.5q0 65 -37 99.5t-99 34.5h-151v-267h151z" />
    <glyph glyph-name="Q" unicode="Q" horiz-adv-x="808" 
d="M769 0h-99l-50 51q-94 -66 -218 -66q-157 0 -261 102.5t-104 262.5t104 262.5t261 102.5t261 -102.5t104 -262.5q0 -149 -93 -252zM402 63q92 0 161 47l-155 160h99l109 -113q67 78 67 193q0 126 -79 206.5t-202 80.5t-202 -81t-79 -206t79 -206t202 -81z" />
    <glyph glyph-name="R" unicode="R" horiz-adv-x="571" 
d="M458 0l-208 301h-99v-301h-77v700h233q94 0 153.5 -53t59.5 -147q0 -83 -49 -135.5t-129 -61.5l213 -303h-97zM151 627v-253h146q68 0 104 34t36 92q0 59 -36 93t-104 34h-146z" />
    <glyph glyph-name="S" unicode="S" horiz-adv-x="497" 
d="M256 715q86 0 178 -44l-36 -74q-72 40 -143 40q-52 0 -78.5 -21.5t-26.5 -58.5q0 -32 18.5 -55.5t56.5 -51.5l115 -85q59 -43 88 -87.5t29 -104.5q0 -91 -59 -139.5t-158 -48.5q-122 0 -221 64l37 72q94 -58 184 -58q66 0 100.5 29.5t34.5 75.5q0 35 -21 64.5t-70 65.5
l-114 86q-50 38 -76.5 77t-26.5 93q0 74 49.5 117.5t139.5 43.5z" />
    <glyph glyph-name="T" unicode="T" horiz-adv-x="515" 
d="M505 700v-73h-209v-627h-77v627h-209v73h495z" />
    <glyph glyph-name="U" unicode="U" horiz-adv-x="689" 
d="M620 700v-437q0 -127 -73.5 -202.5t-202.5 -75.5q-128 0 -202 75.5t-74 202.5v437h82v-431q0 -95 53 -149.5t141 -54.5t141.5 54.5t53.5 149.5v431h81z" />
    <glyph glyph-name="V" unicode="V" horiz-adv-x="604" 
d="M595 700l-256 -700h-74l-256 700h90l202 -589h3l202 589h89z" />
    <glyph glyph-name="W" unicode="W" horiz-adv-x="973" 
d="M958 700l-212 -700h-77l-181 571h-3l-181 -571h-77l-212 700h86l163 -576h2l180 576h80l181 -576h2l162 576h87z" />
    <glyph glyph-name="X" unicode="X" horiz-adv-x="604" 
d="M590 0h-92l-196 306l-196 -306h-92l240 371l-212 329h92l168 -263l168 263h92l-212 -328z" />
    <glyph glyph-name="Y" unicode="Y" horiz-adv-x="534" 
d="M530 700l-224 -426v-274h-78v274l-224 426h90l172 -343h2l172 343h90z" />
    <glyph glyph-name="Z" unicode="Z" horiz-adv-x="538" 
d="M112 73h406v-73h-498v73l393 554h-358v73h451v-73z" />
    <glyph glyph-name="bracketleft" unicode="[" horiz-adv-x="317" 
d="M307 751v-66h-129v-835h129v-65h-201v966h201z" />
    <glyph glyph-name="backslash" unicode="\" horiz-adv-x="581" 
d="M494 -93l-464 838l57 32l464 -839z" />
    <glyph glyph-name="bracketright" unicode="]" horiz-adv-x="317" 
d="M10 -215v65h129v835h-129v66h201v-966h-201z" />
    <glyph glyph-name="asciicircum" unicode="^" 
d="M336 715l146 -322h-61l-121 274l-121 -274h-61l146 322h72z" />
    <glyph glyph-name="underscore" unicode="_" horiz-adv-x="533" 
d="M523 -15v-62h-513v62h513z" />
    <glyph glyph-name="grave" unicode="`" horiz-adv-x="292" 
d="M148 707l94 -154h-59l-133 154h98z" />
    <glyph glyph-name="a" unicode="a" horiz-adv-x="572" 
d="M261 -15q-98 0 -163.5 67t-65.5 179t65.5 179t163.5 67q121 0 175 -97h2v82h72v-462h-72v82h-2q-54 -97 -175 -97zM275 56q75 0 121 49t46 126t-46 126t-121 49t-121 -49t-46 -126t46 -126t121 -49z" />
    <glyph glyph-name="b" unicode="b" horiz-adv-x="577" 
d="M316 -15q-121 0 -175 97h-2v-82h-72v700h72v-320h2q54 97 175 97q98 0 163.5 -67t65.5 -179t-65.5 -179t-163.5 -67zM302 56q75 0 121 49t46 126t-46 126t-121 49t-121 -49t-46 -126t46 -126t121 -49z" />
    <glyph glyph-name="c" unicode="c" horiz-adv-x="465" 
d="M283 -15q-111 0 -181 68t-70 178t70 178t181 68q83 0 158 -46l-35 -62q-64 38 -125 38q-77 0 -125 -50.5t-48 -125.5t48 -125.5t125 -50.5q61 0 125 38l35 -62q-75 -46 -158 -46z" />
    <glyph glyph-name="d" unicode="d" horiz-adv-x="577" 
d="M261 -15q-98 0 -163.5 67t-65.5 179t65.5 179t163.5 67q121 0 175 -97h2v320h72v-700h-72v82h-2q-54 -97 -175 -97zM275 56q75 0 121 49t46 126t-46 126t-121 49t-121 -49t-46 -126t46 -126t121 -49z" />
    <glyph glyph-name="e" unicode="e" horiz-adv-x="521" 
d="M267 477q109 0 165.5 -67.5t56.5 -175.5v-13h-384q1 -76 47 -121t119 -45q40 0 73.5 15.5t50 32t34.5 40.5l52 -47q-79 -111 -209 -111q-109 0 -174.5 67.5t-65.5 177.5q0 111 64.5 179t170.5 68zM263 410q-62 0 -104.5 -35t-50.5 -99h303q-5 64 -43.5 99t-104.5 35z" />
    <glyph glyph-name="f" unicode="f" horiz-adv-x="308" 
d="M276 642q-96 0 -96 -102v-78h105v-62h-105v-400h-71v400h-85v62h85v77q0 85 43.5 128t120.5 43h16v-68h-13z" />
    <glyph glyph-name="g" unicode="g" horiz-adv-x="572" 
d="M296 -215q-80 0 -178 21l14 70q95 -21 164 -21q75 0 108.5 35t33.5 115v77h-2q-54 -97 -175 -97q-98 0 -163.5 67t-65.5 179t65.5 179t163.5 67q121 0 175 -97h2v82h72v-462q-2 -124 -58 -169.5t-156 -45.5zM275 56q75 0 121 49t46 126t-46 126t-121 49t-121 -49
t-46 -126t46 -126t121 -49z" />
    <glyph glyph-name="h" unicode="h" horiz-adv-x="542" 
d="M139 700v-327h2q47 104 165 104q80 0 128.5 -48.5t48.5 -147.5v-281h-72v271q0 68 -32.5 101t-90.5 33q-66 0 -107.5 -45.5t-41.5 -146.5v-213h-72v700h72z" />
    <glyph glyph-name="i" unicode="i" horiz-adv-x="202" 
d="M146 690v-120h-91v120h91zM65 0v462h72v-462h-72z" />
    <glyph glyph-name="j" unicode="j" horiz-adv-x="202" 
d="M146 690v-120h-91v120h91zM-25 -138h23q35 0 51 19.5t16 62.5v518h72v-524q0 -69 -33.5 -105t-96.5 -36h-32v65z" />
    <glyph glyph-name="k" unicode="k" horiz-adv-x="459" 
d="M451 0h-99l-213 234v-234h-72v700h72v-440l192 202h99l-213 -211z" />
    <glyph glyph-name="l" unicode="l" horiz-adv-x="206" 
d="M139 700v-700h-72v700h72z" />
    <glyph glyph-name="m" unicode="m" horiz-adv-x="802" 
d="M64 0v462h72v-83h2q37 98 145 98t147 -103h2q19 52 60 77.5t93 25.5q71 0 114.5 -45.5t43.5 -142.5v-289h-72v287q0 118 -106 118q-58 0 -91.5 -39.5t-33.5 -124.5v-241h-72v273q0 132 -108 132q-58 0 -91 -42.5t-33 -131.5v-231h-72z" />
    <glyph glyph-name="n" unicode="n" horiz-adv-x="539" 
d="M303 477q82 0 129.5 -48t47.5 -148v-281h-72v271q0 68 -33 101t-91 33q-66 0 -107 -45.5t-41 -146.5v-213h-72v462h72v-89h2q47 104 165 104z" />
    <glyph glyph-name="o" unicode="o" horiz-adv-x="564" 
d="M282 477q109 0 179.5 -69.5t70.5 -176.5t-70.5 -176.5t-179.5 -69.5q-108 0 -179 69.5t-71 176.5t71 176.5t179 69.5zM282 406q-76 0 -125 -48t-49 -127t49 -127t125 -48t125 48t49 127t-49 127t-125 48z" />
    <glyph glyph-name="p" unicode="p" horiz-adv-x="574" 
d="M64 -200v662h72v-82h2q54 97 175 97q98 0 163.5 -67t65.5 -179t-65.5 -179t-163.5 -67q-121 0 -175 97h-2v-282h-72zM299 56q75 0 121 49t46 126t-46 126t-121 49t-121 -49t-46 -126t46 -126t121 -49z" />
    <glyph glyph-name="q" unicode="q" horiz-adv-x="572" 
d="M438 -200v282h-2q-54 -97 -175 -97q-98 0 -163.5 67t-65.5 179t65.5 179t163.5 67q121 0 175 -97h2v82h72v-662h-72zM275 56q75 0 121 49t46 126t-46 126t-121 49t-121 -49t-46 -126t46 -126t121 -49z" />
    <glyph glyph-name="r" unicode="r" horiz-adv-x="317" 
d="M303 476v-83h-14q-74 0 -113.5 -45.5t-39.5 -130.5v-217h-72v462h72v-104h2q15 53 55.5 85.5t97.5 32.5h12z" />
    <glyph glyph-name="s" unicode="s" horiz-adv-x="406" 
d="M210 -15q-106 0 -191 54l35 64q77 -50 159 -50q46 0 69 16.5t23 44.5q0 40 -63 69l-86 41q-100 46 -100 129q0 60 43 92t116 32q77 0 156 -36l-31 -64q-68 32 -127 32q-80 0 -80 -53q0 -22 15.5 -38t50.5 -32l84 -39q48 -23 73.5 -53t25.5 -77q0 -65 -46 -98.5
t-126 -33.5z" />
    <glyph glyph-name="t" unicode="t" horiz-adv-x="306" 
d="M282 400h-102v-273q0 -61 58 -61h25v-67h-38q-55 0 -86 29t-31 85v287h-89v62h89v185h72v-185h102v-62z" />
    <glyph glyph-name="u" unicode="u" horiz-adv-x="526" 
d="M231 -15q-77 0 -124.5 48.5t-47.5 149.5v279h73v-275q0 -67 31.5 -99.5t85.5 -32.5q64 0 102.5 47t38.5 151v209h72v-462h-72v86h-2q-44 -101 -157 -101z" />
    <glyph glyph-name="v" unicode="v" horiz-adv-x="459" 
d="M368 462h84l-188 -462h-69l-188 462h84l138 -376z" />
    <glyph glyph-name="w" unicode="w" horiz-adv-x="719" 
d="M632 462h80l-156 -462h-69l-128 368l-128 -368h-68l-156 462h79l112 -370l125 370h73l125 -370z" />
    <glyph glyph-name="x" unicode="x" horiz-adv-x="474" 
d="M375 0l-138 186l-138 -186h-92l186 243l-164 219h93l115 -164l115 164h92l-164 -219l187 -243h-92z" />
    <glyph glyph-name="y" unicode="y" horiz-adv-x="467" 
d="M380 462h80l-302 -662h-77l118 249l-192 413h85l144 -332z" />
    <glyph glyph-name="z" unicode="z" horiz-adv-x="441" 
d="M115 68h299v-68h-387v64l279 331h-263v67h351v-64z" />
    <glyph glyph-name="braceleft" unicode="{" horiz-adv-x="377" 
d="M367 745v-65h-27q-50 0 -78 -28t-28 -98v-129q0 -65 -23.5 -100.5t-77.5 -48.5v-2q54 -13 77.5 -48.5t23.5 -100.5v-149q0 -71 28 -98.5t78 -27.5h27v-65h-31q-80 0 -127.5 44.5t-47.5 143.5v159q0 100 -126 106v74q126 6 126 106v139q0 99 47.5 143.5t127.5 44.5h31z
" />
    <glyph glyph-name="bar" unicode="|" horiz-adv-x="284" 
d="M174 727v-942h-64v942h64z" />
    <glyph glyph-name="braceright" unicode="}" horiz-adv-x="377" 
d="M10 -215v65h27q49 0 77.5 27.5t28.5 98.5v149q0 65 23.5 100.5t77.5 48.5v2q-54 13 -77.5 48.5t-23.5 100.5v129q0 70 -28 98t-78 28h-27v65h31q79 0 127 -44.5t48 -143.5v-139q0 -100 126 -106v-74q-126 -6 -126 -106v-159q0 -99 -48 -143.5t-127 -44.5h-31z" />
    <glyph glyph-name="asciitilde" unicode="~" 
d="M190 371q49 0 117.5 -33.5t106.5 -33.5q55 0 120 56l35 -54q-80 -68 -159 -68q-48 0 -116 33.5t-107 33.5q-58 0 -122 -57l-34 54q81 69 159 69z" />
    <glyph glyph-name="exclamdown" unicode="&#xa1;" horiz-adv-x="303" 
d="M100 397v103h103v-103h-103zM109 -200l17 494h50l17 -494h-84z" />
    <glyph glyph-name="cent" unicode="&#xa2;" horiz-adv-x="461" 
d="M292 53q58 0 139 41v-73q-66 -36 -138 -36h-1v-49h-28v50q-98 10 -158.5 77.5t-60.5 167.5t61.5 168t157.5 77v55h28v-54q74 0 136 -32v-73q-75 37 -135 37h-1v-356zM120 232q0 -73 40.5 -120.5t103.5 -56.5v352q-64 -9 -104 -56t-40 -119z" />
    <glyph glyph-name="sterling" unicode="&#xa3;" horiz-adv-x="517" 
d="M153 72v-2h327v-70h-417v60q121 71 121 160q0 8 -1 16.5t-2.5 15t-5 16.5t-5.5 14.5t-7.5 16t-7.5 15t-9 16t-8 15.5h-98v30h82q-31 66 -31 123q0 85 54 138.5t147 53.5q86 0 140.5 -47t54.5 -137h-73q-2 58 -34 87t-88 29q-58 0 -92 -33.5t-34 -91.5q0 -48 37 -122h198
v-30h-182q39 -76 39 -122q0 -88 -105 -151z" />
    <glyph glyph-name="currency" unicode="&#xa4;" 
d="M540 324q0 -92 -59 -157l56 -57l-20 -19l-57 57q-67 -56 -160 -56q-94 0 -161 56l-57 -57l-19 20l56 56q-59 65 -59 157t59 157l-56 56l20 20l57 -57q67 56 160 56t160 -56l57 57l20 -20l-56 -56q59 -65 59 -157zM300 160q74 0 121 46t47 118t-47 118t-121 46t-121 -46
t-47 -118t47 -118t121 -46z" />
    <glyph glyph-name="yen" unicode="&#xa5;" horiz-adv-x="535" 
d="M510 675l-156 -323h127v-30h-142l-27 -56h169v-30h-178v-236h-72v236h-178v30h169l-27 56h-142v30h128l-156 323h85l157 -355l158 355h85z" />
    <glyph glyph-name="brokenbar" unicode="&#xa6;" horiz-adv-x="284" 
d="M174 727v-388h-64v388h64zM174 181v-396h-64v396h64z" />
    <glyph glyph-name="section" unicode="&#xa7;" horiz-adv-x="537" 
d="M388 112q64 -45 64 -120q0 -67 -49 -108.5t-138 -41.5q-101 0 -188 55l40 62q77 -48 152 -48q53 0 81.5 22t28.5 58q0 38 -34 64t-82 42.5t-96.5 36t-82.5 59t-34 98.5q0 96 98 154q-63 44 -63 119q0 67 49 109t138 42q100 0 188 -56l-40 -61q-78 48 -152 48
q-53 0 -82 -22.5t-29 -57.5q0 -39 34 -64.5t82.5 -42t97 -36.5t82.5 -59.5t34 -98.5q0 -98 -99 -153zM123 297q0 -26 11 -46.5t35.5 -36t44 -24.5t57.5 -23t56 -22q87 45 87 113q0 22 -9.5 41t-22.5 31t-36 24.5t-42 20t-48 18.5t-47 19q-86 -50 -86 -115z" />
    <glyph glyph-name="dieresis" unicode="&#xa8;" horiz-adv-x="366" 
d="M130 690v-116h-80v116h80zM316 690v-116h-80v116h80z" />
    <glyph glyph-name="copyright" unicode="&#xa9;" horiz-adv-x="828" 
d="M414 -15q-154 0 -259 103.5t-105 261.5t105 261.5t259 103.5t259 -103.5t105 -261.5t-105 -261.5t-259 -103.5zM414 32q133 0 223.5 89.5t90.5 228.5t-90.5 228.5t-223.5 89.5t-223.5 -89.5t-90.5 -228.5t90.5 -228.5t223.5 -89.5zM417 127q-101 0 -165.5 64t-64.5 163
t64.5 163t165.5 64q83 0 152 -48l-30 -52q-62 39 -124 39q-74 0 -118.5 -45t-44.5 -121q0 -75 44.5 -120.5t118.5 -45.5q60 0 124 40l30 -52q-68 -49 -152 -49z" />
    <glyph glyph-name="ordfeminine" unicode="&#xaa;" horiz-adv-x="436" 
d="M204 338q-65 0 -109.5 44.5t-44.5 118.5t44.5 118.5t109.5 44.5q84 0 117 -66h2v56h64v-306h-64v56h-2q-33 -66 -117 -66zM218 396q45 0 75 29t30 76t-30 76t-75 29t-73 -28.5t-28 -76.5t28 -76.5t73 -28.5z" />
    <glyph glyph-name="guillemotleft" unicode="&#xab;" horiz-adv-x="413" 
d="M247 389l-145 -155l145 -155h-84l-143 155l143 155h84zM404 389l-145 -155l145 -155h-84l-143 155l143 155h84z" />
    <glyph glyph-name="logicalnot" unicode="&#xac;" 
d="M71 432h458v-265h-42v225h-416v40z" />
    <glyph glyph-name="uni00AD" unicode="&#xad;" horiz-adv-x="347" 
d="M302 305v-72h-257v72h257z" />
    <glyph glyph-name="registered" unicode="&#xae;" horiz-adv-x="560" 
d="M280 715q102 0 166 -64.5t64 -167.5t-64 -167.5t-166 -64.5t-166 64.5t-64 167.5t64 167.5t166 64.5zM280 282q87 0 142 55t55 146t-55 146t-142 55t-142 -55t-55 -146t55 -146t142 -55zM376 545q0 -30 -17.5 -51t-45.5 -26l73 -109h-40l-69 108h-41v-108h-32v260h93
q35 0 57 -20t22 -54zM236 590v-93h54q25 0 38.5 13t13.5 33q0 22 -13.5 34.5t-38.5 12.5h-54z" />
    <glyph glyph-name="macron" unicode="&#xaf;" horiz-adv-x="382" 
d="M332 657v-56h-282v56h282z" />
    <glyph glyph-name="degree" unicode="&#xb0;" horiz-adv-x="352" 
d="M176 690q59 0 97.5 -38t38.5 -98t-38.5 -98t-97.5 -38t-97.5 38t-38.5 98t38.5 98t97.5 38zM176 651q-42 0 -69 -27t-27 -70t27 -70t69 -27q41 0 68 27t27 70t-27 70t-68 27z" />
    <glyph glyph-name="plusminus" unicode="&#xb1;" 
d="M321 522v-141h218v-40h-218v-141h-42v141h-218v40h218v141h42zM539 155v-40h-478v40h478z" />
    <glyph glyph-name="acute" unicode="&#xb4;" horiz-adv-x="292" 
d="M242 707l-132 -154h-60l95 154h97z" />
    <glyph glyph-name="uni00B5" unicode="&#xb5;" 
d="M429 462h72v-462h-72v86h-2q-44 -101 -157 -101q-65 0 -107 33v-218h-65v662h73v-275q0 -67 31.5 -99.5t85.5 -32.5q64 0 102.5 47t38.5 151v209z" />
    <glyph glyph-name="paragraph" unicode="&#xb6;" horiz-adv-x="596" 
d="M546 700v-57h-58v-749h-61v749h-122v-749h-61v416q-89 0 -141.5 54.5t-52.5 144.5q0 87 55.5 139t148.5 52h292z" />
    <glyph glyph-name="periodcentered" unicode="&#xb7;" horiz-adv-x="213" 
d="M158 462v-103h-103v103h103z" />
    <glyph glyph-name="cedilla" unicode="&#xb8;" horiz-adv-x="235" 
d="M137 19l-22 -60q20 -5 33.5 -11.5t25 -22t11.5 -36.5q0 -23 -20 -42.5t-40 -29.5t-64 -29l-11 24q44 21 64 35.5t20 29.5q0 18 -15 26.5t-51 16.5l37 99h32z" />
    <glyph glyph-name="ordmasculine" unicode="&#xba;" horiz-adv-x="441" 
d="M221 664q73 0 121.5 -44.5t48.5 -118.5t-48.5 -118.5t-121.5 -44.5q-74 0 -122.5 44.5t-48.5 118.5t48.5 118.5t122.5 44.5zM221 605q-45 0 -75 -28t-30 -76t30 -76t75 -28q44 0 74 28t30 76t-30 76t-74 28z" />
    <glyph glyph-name="guillemotright" unicode="&#xbb;" horiz-adv-x="413" 
d="M10 389h84l143 -155l-143 -155h-84l145 155zM166 389h84l143 -155l-143 -155h-84l145 155z" />
    <glyph glyph-name="onequarter" unicode="&#xbc;" horiz-adv-x="622" 
d="M83 289v339h-43v47h90v-386h-47zM441 675h48l-395 -675h-48zM595 119v-44h-48v-75h-48v75h-206v43l192 268h62v-267h48zM346 119h153v213h-2z" />
    <glyph glyph-name="onehalf" unicode="&#xbd;" horiz-adv-x="647" 
d="M130 675v-386h-47v339h-43v47h90zM46 0l395 675h48l-395 -675h-48zM483 395q60 0 91 -30.5t31 -79.5q0 -60 -66 -124l-116 -115h183v-46h-252v42l146 146q55 55 55 97q0 27 -19 45t-53 18q-72 0 -79 -71h-48q2 57 36 87.5t91 30.5z" />
    <glyph glyph-name="threequarters" unicode="&#xbe;" horiz-adv-x="760" 
d="M308 396q0 -52 -34 -84t-105 -32q-61 0 -97 29.5t-39 83.5h49q7 -66 87 -66q90 0 90 72q0 40 -29.5 55.5t-85.5 15.5v45q102 2 102 64q0 58 -74 58q-80 0 -83 -66h-48q6 113 132 113q59 0 90.5 -26.5t31.5 -72.5q0 -70 -75 -88v-1q88 -12 88 -100zM579 675h48l-395 -675
h-48zM733 119v-44h-48v-75h-48v75h-206v43l192 268h62v-267h48zM484 119h153v213h-2z" />
    <glyph glyph-name="questiondown" unicode="&#xbf;" horiz-adv-x="410" 
d="M180 397v103h102v-103h-102zM215 -215q-91 0 -143 49.5t-52 131.5q0 51 21 87t58 72q4 4 19 17.5t20 18.5l17 17t16.5 20t11 20.5t9 25t2.5 26.5v24h72v-29q0 -19 -3 -35t-10.5 -32t-13 -26.5t-19 -25.5t-19.5 -21.5t-23.5 -23t-22.5 -21.5q-59 -57 -59 -116
q0 -47 30 -77.5t89 -30.5q61 0 96 35t35 95h74q0 -94 -55 -147.5t-150 -53.5z" />
    <glyph glyph-name="Agrave" unicode="&#xc0;" horiz-adv-x="659" 
d="M360 743h-58l-134 120h97zM568 0l-74 187h-329l-74 -187h-84l286 700h73l285 -700h-83zM193 258h273l-136 344z" />
    <glyph glyph-name="Aacute" unicode="&#xc1;" horiz-adv-x="659" 
d="M490 863l-134 -120h-58l95 120h97zM568 0l-74 187h-329l-74 -187h-84l286 700h73l285 -700h-83zM193 258h273l-136 344z" />
    <glyph glyph-name="Acircumflex" unicode="&#xc2;" horiz-adv-x="659" 
d="M329 824l-83 -81h-77l122 120h76l123 -120h-77zM568 0l-74 187h-329l-74 -187h-84l286 700h73l285 -700h-83zM193 258h273l-136 344z" />
    <glyph glyph-name="Atilde" unicode="&#xc3;" horiz-adv-x="659" 
d="M251 800q-35 0 -54 -47l-33 11q28 94 96 94q29 0 86 -26t76 -26q35 0 54 46l33 -10q-28 -95 -96 -95q-29 0 -86 26.5t-76 26.5zM568 0l-74 187h-329l-74 -187h-84l286 700h73l285 -700h-83zM193 258h273l-136 344z" />
    <glyph glyph-name="Adieresis" unicode="&#xc4;" horiz-adv-x="659" 
d="M271 843v-100h-83v100h83zM470 843v-100h-83v100h83zM568 0l-74 187h-329l-74 -187h-84l286 700h73l285 -700h-83zM193 258h273l-136 344z" />
    <glyph glyph-name="Aring" unicode="&#xc5;" horiz-adv-x="659" 
d="M568 0l-74 187h-329l-74 -187h-84l274 670q-31 13 -49.5 41t-18.5 64q0 50 33 82.5t83 32.5t82.5 -32.5t32.5 -82.5q0 -36 -18 -63.5t-48 -40.5l273 -671h-83zM254 775q0 -33 20.5 -54t53.5 -21t54 21t21 54q0 34 -20.5 55t-54.5 21q-33 0 -53.5 -21t-20.5 -55zM193 258
h273l-136 344z" />
    <glyph glyph-name="AE" unicode="&#xc6;" horiz-adv-x="927" 
d="M591 73h289v-73h-365v187h-287l-124 -187h-97l470 700h398v-73h-284v-201h259v-72h-259v-281zM275 258h240v362z" />
    <glyph glyph-name="Ccedilla" unicode="&#xc7;" horiz-adv-x="685" 
d="M655 64q-105 -78 -238 -79l-10 -26q20 -5 33.5 -11.5t25 -22t11.5 -36.5q0 -23 -20 -42.5t-40 -29.5t-64 -29l-11 24q44 21 64 35.5t20 29.5q0 18 -15 26.5t-51 16.5l25 66q-157 8 -252.5 108t-95.5 256q0 163 103 264t271 101q138 0 244 -79l-47 -67q-90 68 -199 68
q-127 0 -207.5 -79.5t-80.5 -207.5t80.5 -207.5t207.5 -79.5q109 0 199 68z" />
    <glyph glyph-name="Egrave" unicode="&#xc8;" horiz-adv-x="518" 
d="M320 743h-58l-134 120h97zM151 73h320v-73h-397v700h392v-73h-315v-201h290v-72h-290v-281z" />
    <glyph glyph-name="Eacute" unicode="&#xc9;" horiz-adv-x="518" 
d="M450 863l-134 -120h-58l95 120h97zM151 73h320v-73h-397v700h392v-73h-315v-201h290v-72h-290v-281z" />
    <glyph glyph-name="Ecircumflex" unicode="&#xca;" horiz-adv-x="518" 
d="M289 824l-83 -81h-77l122 120h76l123 -120h-77zM151 73h320v-73h-397v700h392v-73h-315v-201h290v-72h-290v-281z" />
    <glyph glyph-name="Edieresis" unicode="&#xcb;" horiz-adv-x="518" 
d="M231 843v-100h-83v100h83zM430 843v-100h-83v100h83zM151 73h320v-73h-397v700h392v-73h-315v-201h290v-72h-290v-281z" />
    <glyph glyph-name="Igrave" unicode="&#xcc;" horiz-adv-x="227" 
d="M49 863l95 -120h-58l-134 120h97zM152 700v-700h-78v700h78z" />
    <glyph glyph-name="Iacute" unicode="&#xcd;" horiz-adv-x="227" 
d="M274 863l-134 -120h-58l95 120h97zM152 700v-700h-78v700h78z" />
    <glyph glyph-name="Icircumflex" unicode="&#xce;" horiz-adv-x="227" 
d="M151 863l123 -120h-77l-84 81l-83 -81h-77l122 120h76zM152 700v-700h-78v700h78z" />
    <glyph glyph-name="Idieresis" unicode="&#xcf;" horiz-adv-x="227" 
d="M55 843v-100h-83v100h83zM254 843v-100h-83v100h83zM152 700v-700h-78v700h78z" />
    <glyph glyph-name="Eth" unicode="&#xd0;" horiz-adv-x="693" 
d="M303 700q155 0 253.5 -94.5t98.5 -255.5t-98.5 -255.5t-253.5 -94.5h-219v327h-80v63h80v310h219zM303 72q118 0 193.5 73t75.5 205q0 131 -75.5 204t-193.5 73h-142v-237h186v-63h-186v-255h142z" />
    <glyph glyph-name="Ntilde" unicode="&#xd1;" horiz-adv-x="694" 
d="M434 747q-29 0 -86 26.5t-76 26.5q-35 0 -54 -47l-33 11q28 94 96 94q29 0 86 -26t76 -26q35 0 54 46l33 -10q-28 -95 -96 -95zM619 700v-700h-82l-384 569h-2v-569h-77v700h82l384 -569h2v569h77z" />
    <glyph glyph-name="Ograve" unicode="&#xd2;" horiz-adv-x="804" 
d="M339 863l95 -120h-58l-134 120h97zM402 715q157 0 261 -102.5t104 -262.5t-104 -262.5t-261 -102.5t-261 102.5t-104 262.5t104 262.5t261 102.5zM402 637q-123 0 -202 -81t-79 -206t79 -206t202 -81t202 80.5t79 206.5t-79 206.5t-202 80.5z" />
    <glyph glyph-name="Oacute" unicode="&#xd3;" horiz-adv-x="804" 
d="M564 863l-134 -120h-58l95 120h97zM402 715q157 0 261 -102.5t104 -262.5t-104 -262.5t-261 -102.5t-261 102.5t-104 262.5t104 262.5t261 102.5zM402 637q-123 0 -202 -81t-79 -206t79 -206t202 -81t202 80.5t79 206.5t-79 206.5t-202 80.5z" />
    <glyph glyph-name="Ocircumflex" unicode="&#xd4;" horiz-adv-x="804" 
d="M441 863l123 -120h-77l-84 81l-83 -81h-77l122 120h76zM402 715q157 0 261 -102.5t104 -262.5t-104 -262.5t-261 -102.5t-261 102.5t-104 262.5t104 262.5t261 102.5zM402 637q-123 0 -202 -81t-79 -206t79 -206t202 -81t202 80.5t79 206.5t-79 206.5t-202 80.5z" />
    <glyph glyph-name="Otilde" unicode="&#xd5;" horiz-adv-x="804" 
d="M487 747q-29 0 -86 26.5t-76 26.5q-35 0 -54 -47l-33 11q28 94 96 94q29 0 86 -26t76 -26q35 0 54 46l33 -10q-28 -95 -96 -95zM402 715q157 0 261 -102.5t104 -262.5t-104 -262.5t-261 -102.5t-261 102.5t-104 262.5t104 262.5t261 102.5zM402 637q-123 0 -202 -81
t-79 -206t79 -206t202 -81t202 80.5t79 206.5t-79 206.5t-202 80.5z" />
    <glyph glyph-name="Odieresis" unicode="&#xd6;" horiz-adv-x="804" 
d="M345 843v-100h-83v100h83zM544 843v-100h-83v100h83zM402 715q157 0 261 -102.5t104 -262.5t-104 -262.5t-261 -102.5t-261 102.5t-104 262.5t104 262.5t261 102.5zM402 637q-123 0 -202 -81t-79 -206t79 -206t202 -81t202 80.5t79 206.5t-79 206.5t-202 80.5z" />
    <glyph glyph-name="multiply" unicode="&#xd7;" 
d="M484 511l29 -29l-184 -184l184 -184l-29 -29l-184 184l-184 -184l-29 29l184 184l-184 184l29 29l184 -184z" />
    <glyph glyph-name="Oslash" unicode="&#xd8;" horiz-adv-x="804" 
d="M632 640q64 -50 99.5 -125t35.5 -165q0 -160 -104 -262.5t-261 -102.5q-111 0 -201 55l-39 -54l-30 18l40 56q-64 49 -99.5 124t-35.5 166q0 160 104 262.5t261 102.5q113 0 202 -56l40 55l29 -18zM121 350q0 -143 99 -224l338 468q-68 43 -156 43q-123 0 -202 -81
t-79 -206zM402 63q123 0 202 80.5t79 206.5q0 142 -98 224l-337 -469q67 -42 154 -42z" />
    <glyph glyph-name="Ugrave" unicode="&#xd9;" horiz-adv-x="689" 
d="M280 863l95 -120h-58l-134 120h97zM620 700v-437q0 -127 -73.5 -202.5t-202.5 -75.5q-128 0 -202 75.5t-74 202.5v437h82v-431q0 -95 53 -149.5t141 -54.5t141.5 54.5t53.5 149.5v431h81z" />
    <glyph glyph-name="Uacute" unicode="&#xda;" horiz-adv-x="689" 
d="M505 863l-134 -120h-58l95 120h97zM620 700v-437q0 -127 -73.5 -202.5t-202.5 -75.5q-128 0 -202 75.5t-74 202.5v437h82v-431q0 -95 53 -149.5t141 -54.5t141.5 54.5t53.5 149.5v431h81z" />
    <glyph glyph-name="Ucircumflex" unicode="&#xdb;" horiz-adv-x="689" 
d="M382 863l123 -120h-77l-84 81l-83 -81h-77l122 120h76zM620 700v-437q0 -127 -73.5 -202.5t-202.5 -75.5q-128 0 -202 75.5t-74 202.5v437h82v-431q0 -95 53 -149.5t141 -54.5t141.5 54.5t53.5 149.5v431h81z" />
    <glyph glyph-name="Udieresis" unicode="&#xdc;" horiz-adv-x="689" 
d="M286 843v-100h-83v100h83zM485 843v-100h-83v100h83zM620 700v-437q0 -127 -73.5 -202.5t-202.5 -75.5q-128 0 -202 75.5t-74 202.5v437h82v-431q0 -95 53 -149.5t141 -54.5t141.5 54.5t53.5 149.5v431h81z" />
    <glyph glyph-name="Yacute" unicode="&#xdd;" horiz-adv-x="534" 
d="M428 863l-134 -120h-58l95 120h97zM530 700l-224 -426v-274h-78v274l-224 426h90l172 -343h2l172 343h90z" />
    <glyph glyph-name="Thorn" unicode="&#xde;" horiz-adv-x="551" 
d="M148 700v-138h150q100 0 157.5 -57t57.5 -147q0 -92 -58.5 -150.5t-158.5 -58.5h-148v-149h-74v700h74zM298 490h-150v-269h149q64 0 102.5 35.5t38.5 101.5q0 62 -38.5 97t-101.5 35z" />
    <glyph glyph-name="germandbls" unicode="&#xdf;" horiz-adv-x="543" 
d="M311 398q95 -5 147.5 -53t52.5 -139q0 -103 -67 -157t-191 -54h-58v68h51q190 0 190 145q0 83 -57 117.5t-173 34.5v63q167 0 167 116q0 50 -29.5 78t-81.5 28q-53 0 -88 -31t-35 -94v-650h-72v647q0 89 52 143.5t145 54.5q89 0 135.5 -47.5t46.5 -118.5q0 -58 -34 -97.5
t-101 -51.5v-2z" />
    <glyph glyph-name="agrave" unicode="&#xe0;" horiz-adv-x="572" 
d="M213 707l94 -154h-59l-133 154h98zM261 -15q-98 0 -163.5 67t-65.5 179t65.5 179t163.5 67q121 0 175 -97h2v82h72v-462h-72v82h-2q-54 -97 -175 -97zM275 56q75 0 121 49t46 126t-46 126t-121 49t-121 -49t-46 -126t46 -126t121 -49z" />
    <glyph glyph-name="aacute" unicode="&#xe1;" horiz-adv-x="572" 
d="M440 707l-132 -154h-60l95 154h97zM261 -15q-98 0 -163.5 67t-65.5 179t65.5 179t163.5 67q121 0 175 -97h2v82h72v-462h-72v82h-2q-54 -97 -175 -97zM275 56q75 0 121 49t46 126t-46 126t-121 49t-121 -49t-46 -126t46 -126t121 -49z" />
    <glyph glyph-name="acircumflex" unicode="&#xe2;" horiz-adv-x="572" 
d="M316 707l124 -154h-75l-87 108l-87 -108h-75l124 154h76zM261 -15q-98 0 -163.5 67t-65.5 179t65.5 179t163.5 67q121 0 175 -97h2v82h72v-462h-72v82h-2q-54 -97 -175 -97zM275 56q75 0 121 49t46 126t-46 126t-121 49t-121 -49t-46 -126t46 -126t121 -49z" />
    <glyph glyph-name="atilde" unicode="&#xe3;" horiz-adv-x="572" 
d="M207 698q29 0 83 -28t73 -28q33 0 53 47l34 -11q-24 -96 -94 -96q-29 0 -83 27.5t-73 27.5q-33 0 -53 -46l-35 10q10 41 34 69t61 28zM261 -15q-98 0 -163.5 67t-65.5 179t65.5 179t163.5 67q121 0 175 -97h2v82h72v-462h-72v82h-2q-54 -97 -175 -97zM275 56q75 0 121 49
t46 126t-46 126t-121 49t-121 -49t-46 -126t46 -126t121 -49z" />
    <glyph glyph-name="adieresis" unicode="&#xe4;" horiz-adv-x="572" 
d="M225 690v-116h-80v116h80zM411 690v-116h-80v116h80zM261 -15q-98 0 -163.5 67t-65.5 179t65.5 179t163.5 67q121 0 175 -97h2v82h72v-462h-72v82h-2q-54 -97 -175 -97zM275 56q75 0 121 49t46 126t-46 126t-121 49t-121 -49t-46 -126t46 -126t121 -49z" />
    <glyph glyph-name="aring" unicode="&#xe5;" horiz-adv-x="572" 
d="M278 747q52 0 85.5 -33t33.5 -84t-33.5 -84t-85.5 -33t-85.5 33t-33.5 84t33.5 84t85.5 33zM278 708q-35 0 -56.5 -21.5t-21.5 -56.5t21.5 -56.5t56.5 -21.5t56.5 21.5t21.5 56.5t-21.5 56.5t-56.5 21.5zM261 -15q-98 0 -163.5 67t-65.5 179t65.5 179t163.5 67
q121 0 175 -97h2v82h72v-462h-72v82h-2q-54 -97 -175 -97zM275 56q75 0 121 49t46 126t-46 126t-121 49t-121 -49t-46 -126t46 -126t121 -49z" />
    <glyph glyph-name="ae" unicode="&#xe6;" horiz-adv-x="853" 
d="M205 -15q-82 0 -135.5 45.5t-53.5 120.5q0 73 51.5 118.5t135.5 45.5q112 0 159 -77h2v52q0 121 -131 121q-61 0 -153 -23l-15 66q89 23 172 23q141 0 172 -107h2q25 49 75 78t116 29q104 0 161.5 -68t57.5 -175v-13h-382q2 -74 46 -120t119 -46q39 0 72.5 15.5
t49.5 31.5t36 41l50 -46q-75 -112 -206 -112q-73 0 -127.5 34.5t-77.5 90.5h-2q-21 -60 -73 -92.5t-121 -32.5zM443 276h299q-4 61 -43 97.5t-103 36.5q-60 0 -102 -35t-51 -99zM219 49q61 0 99.5 29t38.5 73q0 46 -40 73.5t-99 27.5t-92.5 -28.5t-33.5 -73.5
q0 -46 33.5 -73.5t93.5 -27.5z" />
    <glyph glyph-name="ccedilla" unicode="&#xe7;" horiz-adv-x="465" 
d="M441 31q-74 -45 -154 -46l-10 -26q20 -5 33.5 -11.5t25 -22t11.5 -36.5q0 -23 -20 -42.5t-40 -29.5t-64 -29l-11 24q44 21 64 35.5t20 29.5q0 18 -15 26.5t-51 16.5l25 66q-100 9 -161.5 76t-61.5 169q0 110 70 178t181 68q83 0 158 -46l-35 -62q-64 38 -125 38
q-77 0 -125 -50.5t-48 -125.5t48 -125.5t125 -50.5q61 0 125 38z" />
    <glyph glyph-name="egrave" unicode="&#xe8;" horiz-adv-x="521" 
d="M204 707l94 -154h-59l-133 154h98zM267 477q109 0 165.5 -67.5t56.5 -175.5v-13h-384q1 -76 47 -121t119 -45q40 0 73.5 15.5t50 32t34.5 40.5l52 -47q-79 -111 -209 -111q-109 0 -174.5 67.5t-65.5 177.5q0 111 64.5 179t170.5 68zM263 410q-62 0 -104.5 -35t-50.5 -99
h303q-5 64 -43.5 99t-104.5 35z" />
    <glyph glyph-name="eacute" unicode="&#xe9;" horiz-adv-x="521" 
d="M431 707l-132 -154h-60l95 154h97zM267 477q109 0 165.5 -67.5t56.5 -175.5v-13h-384q1 -76 47 -121t119 -45q40 0 73.5 15.5t50 32t34.5 40.5l52 -47q-79 -111 -209 -111q-109 0 -174.5 67.5t-65.5 177.5q0 111 64.5 179t170.5 68zM263 410q-62 0 -104.5 -35t-50.5 -99
h303q-5 64 -43.5 99t-104.5 35z" />
    <glyph glyph-name="ecircumflex" unicode="&#xea;" horiz-adv-x="521" 
d="M307 707l124 -154h-75l-87 108l-87 -108h-75l124 154h76zM267 477q109 0 165.5 -67.5t56.5 -175.5v-13h-384q1 -76 47 -121t119 -45q40 0 73.5 15.5t50 32t34.5 40.5l52 -47q-79 -111 -209 -111q-109 0 -174.5 67.5t-65.5 177.5q0 111 64.5 179t170.5 68zM263 410
q-62 0 -104.5 -35t-50.5 -99h303q-5 64 -43.5 99t-104.5 35z" />
    <glyph glyph-name="edieresis" unicode="&#xeb;" horiz-adv-x="521" 
d="M216 690v-116h-80v116h80zM402 690v-116h-80v116h80zM267 477q109 0 165.5 -67.5t56.5 -175.5v-13h-384q1 -76 47 -121t119 -45q40 0 73.5 15.5t50 32t34.5 40.5l52 -47q-79 -111 -209 -111q-109 0 -174.5 67.5t-65.5 177.5q0 111 64.5 179t170.5 68zM263 410
q-62 0 -104.5 -35t-50.5 -99h303q-5 64 -43.5 99t-104.5 35z" />
    <glyph glyph-name="igrave" unicode="&#xec;" horiz-adv-x="202" 
d="M76 707l55 -154h-59l-75 154h79zM65 0v462h72v-462h-72z" />
    <glyph glyph-name="iacute" unicode="&#xed;" horiz-adv-x="202" 
d="M71 553l54 154h80l-75 -154h-59zM65 0v462h72v-462h-72z" />
    <glyph glyph-name="icircumflex" unicode="&#xee;" horiz-adv-x="202" 
d="M139 707l82 -154h-70l-50 109l-50 -109h-70l82 154h76zM65 0v462h72v-462h-72z" />
    <glyph glyph-name="idieresis" unicode="&#xef;" horiz-adv-x="202" 
d="M79 690v-116h-77v116h77zM200 690v-116h-77v116h77zM65 0v462h72v-462h-72z" />
    <glyph glyph-name="eth" unicode="&#xf0;" horiz-adv-x="580" 
d="M386 669q151 -117 151 -363q0 -88 -22 -153t-59.5 -100.5t-81 -51.5t-93.5 -16q-114 0 -181.5 69t-67.5 176q0 113 69 180t174 67q143 0 192 -128h3q-10 181 -136 276l-107 -92l-28 31l99 84q-68 40 -161 55l14 61q118 -20 200 -71l79 68l27 -32zM284 55q76 0 124 47
t48 126q0 82 -48 130.5t-126 48.5t-126 -48.5t-48 -127.5q0 -80 49.5 -128t126.5 -48z" />
    <glyph glyph-name="ntilde" unicode="&#xf1;" horiz-adv-x="539" 
d="M212 698q29 0 83 -28t73 -28q33 0 53 47l34 -11q-24 -96 -94 -96q-29 0 -83 27.5t-73 27.5q-33 0 -53 -46l-35 10q10 41 34 69t61 28zM303 477q82 0 129.5 -48t47.5 -148v-281h-72v271q0 68 -33 101t-91 33q-66 0 -107 -45.5t-41 -146.5v-213h-72v462h72v-89h2
q47 104 165 104z" />
    <glyph glyph-name="ograve" unicode="&#xf2;" horiz-adv-x="564" 
d="M217 707l94 -154h-59l-133 154h98zM282 477q109 0 179.5 -69.5t70.5 -176.5t-70.5 -176.5t-179.5 -69.5q-108 0 -179 69.5t-71 176.5t71 176.5t179 69.5zM282 406q-76 0 -125 -48t-49 -127t49 -127t125 -48t125 48t49 127t-49 127t-125 48z" />
    <glyph glyph-name="oacute" unicode="&#xf3;" horiz-adv-x="564" 
d="M444 707l-132 -154h-60l95 154h97zM282 477q109 0 179.5 -69.5t70.5 -176.5t-70.5 -176.5t-179.5 -69.5q-108 0 -179 69.5t-71 176.5t71 176.5t179 69.5zM282 406q-76 0 -125 -48t-49 -127t49 -127t125 -48t125 48t49 127t-49 127t-125 48z" />
    <glyph glyph-name="ocircumflex" unicode="&#xf4;" horiz-adv-x="564" 
d="M320 707l124 -154h-75l-87 108l-87 -108h-75l124 154h76zM282 477q109 0 179.5 -69.5t70.5 -176.5t-70.5 -176.5t-179.5 -69.5q-108 0 -179 69.5t-71 176.5t71 176.5t179 69.5zM282 406q-76 0 -125 -48t-49 -127t49 -127t125 -48t125 48t49 127t-49 127t-125 48z" />
    <glyph glyph-name="otilde" unicode="&#xf5;" horiz-adv-x="564" 
d="M211 698q29 0 83 -28t73 -28q33 0 53 47l34 -11q-24 -96 -94 -96q-29 0 -83 27.5t-73 27.5q-33 0 -53 -46l-35 10q10 41 34 69t61 28zM282 477q109 0 179.5 -69.5t70.5 -176.5t-70.5 -176.5t-179.5 -69.5q-108 0 -179 69.5t-71 176.5t71 176.5t179 69.5zM282 406
q-76 0 -125 -48t-49 -127t49 -127t125 -48t125 48t49 127t-49 127t-125 48z" />
    <glyph glyph-name="odieresis" unicode="&#xf6;" horiz-adv-x="564" 
d="M229 690v-116h-80v116h80zM415 690v-116h-80v116h80zM282 477q109 0 179.5 -69.5t70.5 -176.5t-70.5 -176.5t-179.5 -69.5q-108 0 -179 69.5t-71 176.5t71 176.5t179 69.5zM282 406q-76 0 -125 -48t-49 -127t49 -127t125 -48t125 48t49 127t-49 127t-125 48z" />
    <glyph glyph-name="divide" unicode="&#xf7;" 
d="M335 490v-78h-70v78h70zM559 318v-39h-518v39h518zM335 185v-79h-70v79h70z" />
    <glyph glyph-name="oslash" unicode="&#xf8;" horiz-adv-x="564" 
d="M459 410q73 -70 73 -179q0 -107 -70.5 -176.5t-179.5 -69.5q-90 0 -153 48l-41 -47l-25 21l41 47q-72 69 -72 177q0 107 71 176.5t179 69.5q86 0 151 -46l40 46l25 -22zM108 231q0 -75 44 -122l233 267q-44 30 -103 30q-76 0 -125 -48t-49 -127zM282 56q76 0 125 48
t49 127q0 75 -46 124l-233 -267q44 -32 105 -32z" />
    <glyph glyph-name="ugrave" unicode="&#xf9;" horiz-adv-x="526" 
d="M197 707l94 -154h-59l-133 154h98zM231 -15q-77 0 -124.5 48.5t-47.5 149.5v279h73v-275q0 -67 31.5 -99.5t85.5 -32.5q64 0 102.5 47t38.5 151v209h72v-462h-72v86h-2q-44 -101 -157 -101z" />
    <glyph glyph-name="uacute" unicode="&#xfa;" horiz-adv-x="526" 
d="M424 707l-132 -154h-60l95 154h97zM231 -15q-77 0 -124.5 48.5t-47.5 149.5v279h73v-275q0 -67 31.5 -99.5t85.5 -32.5q64 0 102.5 47t38.5 151v209h72v-462h-72v86h-2q-44 -101 -157 -101z" />
    <glyph glyph-name="ucircumflex" unicode="&#xfb;" horiz-adv-x="526" 
d="M300 707l124 -154h-75l-87 108l-87 -108h-75l124 154h76zM231 -15q-77 0 -124.5 48.5t-47.5 149.5v279h73v-275q0 -67 31.5 -99.5t85.5 -32.5q64 0 102.5 47t38.5 151v209h72v-462h-72v86h-2q-44 -101 -157 -101z" />
    <glyph glyph-name="udieresis" unicode="&#xfc;" horiz-adv-x="526" 
d="M209 690v-116h-80v116h80zM395 690v-116h-80v116h80zM231 -15q-77 0 -124.5 48.5t-47.5 149.5v279h73v-275q0 -67 31.5 -99.5t85.5 -32.5q64 0 102.5 47t38.5 151v209h72v-462h-72v86h-2q-44 -101 -157 -101z" />
    <glyph glyph-name="yacute" unicode="&#xfd;" horiz-adv-x="467" 
d="M398 707l-132 -154h-60l95 154h97zM380 462h80l-302 -662h-77l118 249l-192 413h85l144 -332z" />
    <glyph glyph-name="thorn" unicode="&#xfe;" horiz-adv-x="576" 
d="M67 -200v900h72v-320h2q54 97 175 97q97 0 162.5 -67t65.5 -179t-65.5 -179t-162.5 -67q-121 0 -175 97h-2v-282h-72zM302 56q75 0 121 49t46 126t-46 126t-121 49t-121 -49t-46 -126t46 -126t121 -49z" />
    <glyph glyph-name="ydieresis" unicode="&#xff;" horiz-adv-x="467" 
d="M183 690v-116h-80v116h80zM369 690v-116h-80v116h80zM380 462h80l-302 -662h-77l118 249l-192 413h85l144 -332z" />
    <glyph glyph-name="Amacron" unicode="&#x100;" horiz-adv-x="659" 
d="M469 829v-56h-282v56h282zM568 0l-74 187h-329l-74 -187h-84l286 700h73l285 -700h-83zM193 258h273l-136 344z" />
    <glyph glyph-name="amacron" unicode="&#x101;" horiz-adv-x="572" 
d="M419 657v-56h-282v56h282zM261 -15q-98 0 -163.5 67t-65.5 179t65.5 179t163.5 67q121 0 175 -97h2v82h72v-462h-72v82h-2q-54 -97 -175 -97zM275 56q75 0 121 49t46 126t-46 126t-121 49t-121 -49t-46 -126t46 -126t121 -49z" />
    <glyph glyph-name="Abreve" unicode="&#x102;" horiz-adv-x="659" 
d="M329 743q-60 0 -97 32t-39 88h53q5 -70 83 -70t83 70h53q-2 -56 -39 -88t-97 -32zM568 0l-74 187h-329l-74 -187h-84l286 700h73l285 -700h-83zM193 258h273l-136 344z" />
    <glyph glyph-name="abreve" unicode="&#x103;" horiz-adv-x="572" 
d="M414 700q0 -65 -37.5 -102.5t-98.5 -37.5t-98.5 37.5t-37.5 102.5h54q2 -41 23.5 -64t58.5 -23t58.5 23t23.5 64h54zM261 -15q-98 0 -163.5 67t-65.5 179t65.5 179t163.5 67q121 0 175 -97h2v82h72v-462h-72v82h-2q-54 -97 -175 -97zM275 56q75 0 121 49t46 126t-46 126
t-121 49t-121 -49t-46 -126t46 -126t121 -49z" />
    <glyph glyph-name="Aogonek" unicode="&#x104;" horiz-adv-x="659" 
d="M561 -135q19 0 44 7l8 -49q-30 -10 -65 -10q-37 0 -61.5 18t-24.5 53q0 64 99 133l-67 170h-329l-74 -187h-84l286 700h73l285 -700h-54q-76 -67 -76 -106q0 -29 40 -29zM193 258h273l-136 344z" />
    <glyph glyph-name="aogonek" unicode="&#x105;" horiz-adv-x="572" 
d="M476 0q-76 -67 -76 -106q0 -29 40 -29q20 0 44 7l8 -49q-30 -10 -65 -10q-37 0 -61.5 18t-24.5 53q0 63 97 131v67h-2q-54 -97 -175 -97q-98 0 -163.5 67t-65.5 179t65.5 179t163.5 67q121 0 175 -97h2v82h72v-462h-34zM275 56q75 0 121 49t46 126t-46 126t-121 49
t-121 -49t-46 -126t46 -126t121 -49z" />
    <glyph glyph-name="Cacute" unicode="&#x106;" horiz-adv-x="685" 
d="M570 863l-134 -120h-58l95 120h97zM411 -15q-168 0 -271 101t-103 264t103 264t271 101q138 0 244 -79l-47 -67q-90 68 -199 68q-127 0 -207.5 -79.5t-80.5 -207.5t80.5 -207.5t207.5 -79.5q109 0 199 68l47 -67q-106 -79 -244 -79z" />
    <glyph glyph-name="cacute" unicode="&#x107;" horiz-adv-x="465" 
d="M438 707l-132 -154h-60l95 154h97zM283 -15q-111 0 -181 68t-70 178t70 178t181 68q83 0 158 -46l-35 -62q-64 38 -125 38q-77 0 -125 -50.5t-48 -125.5t48 -125.5t125 -50.5q61 0 125 38l35 -62q-75 -46 -158 -46z" />
    <glyph glyph-name="Ccircumflex" unicode="&#x108;" horiz-adv-x="685" 
d="M447 863l123 -120h-77l-84 81l-83 -81h-77l122 120h76zM411 -15q-168 0 -271 101t-103 264t103 264t271 101q138 0 244 -79l-47 -67q-90 68 -199 68q-127 0 -207.5 -79.5t-80.5 -207.5t80.5 -207.5t207.5 -79.5q109 0 199 68l47 -67q-106 -79 -244 -79z" />
    <glyph glyph-name="ccircumflex" unicode="&#x109;" horiz-adv-x="465" 
d="M314 707l124 -154h-75l-87 108l-87 -108h-75l124 154h76zM283 -15q-111 0 -181 68t-70 178t70 178t181 68q83 0 158 -46l-35 -62q-64 38 -125 38q-77 0 -125 -50.5t-48 -125.5t48 -125.5t125 -50.5q61 0 125 38l35 -62q-75 -46 -158 -46z" />
    <glyph glyph-name="Cdotaccent" unicode="&#x10a;" horiz-adv-x="685" 
d="M450 850v-107h-83v107h83zM411 -15q-168 0 -271 101t-103 264t103 264t271 101q138 0 244 -79l-47 -67q-90 68 -199 68q-127 0 -207.5 -79.5t-80.5 -207.5t80.5 -207.5t207.5 -79.5q109 0 199 68l47 -67q-106 -79 -244 -79z" />
    <glyph glyph-name="cdotaccent" unicode="&#x10b;" horiz-adv-x="465" 
d="M321 690v-120h-91v120h91zM283 -15q-111 0 -181 68t-70 178t70 178t181 68q83 0 158 -46l-35 -62q-64 38 -125 38q-77 0 -125 -50.5t-48 -125.5t48 -125.5t125 -50.5q61 0 125 38l35 -62q-75 -46 -158 -46z" />
    <glyph glyph-name="Ccaron" unicode="&#x10c;" horiz-adv-x="685" 
d="M447 743h-76l-122 120h77l83 -81l84 81h77zM411 -15q-168 0 -271 101t-103 264t103 264t271 101q138 0 244 -79l-47 -67q-90 68 -199 68q-127 0 -207.5 -79.5t-80.5 -207.5t80.5 -207.5t207.5 -79.5q109 0 199 68l47 -67q-106 -79 -244 -79z" />
    <glyph glyph-name="ccaron" unicode="&#x10d;" horiz-adv-x="465" 
d="M443 700l-128 -154h-77l-128 154h75l91 -108l91 108h76zM283 -15q-111 0 -181 68t-70 178t70 178t181 68q83 0 158 -46l-35 -62q-64 38 -125 38q-77 0 -125 -50.5t-48 -125.5t48 -125.5t125 -50.5q61 0 125 38l35 -62q-75 -46 -158 -46z" />
    <glyph glyph-name="Dcaron" unicode="&#x10e;" horiz-adv-x="683" 
d="M324 743h-76l-122 120h77l83 -81l84 81h77zM293 700q155 0 253.5 -94.5t98.5 -255.5t-98.5 -255.5t-253.5 -94.5h-219v700h219zM293 627h-142v-555h142q118 0 193.5 73t75.5 205q0 131 -75.5 204t-193.5 73z" />
    <glyph glyph-name="dcaron" unicode="&#x10f;" horiz-adv-x="661" 
d="M563 715h92v-91l-71 -122h-32l46 122h-35v91zM438 380v320h72v-700h-72v82h-2q-54 -97 -175 -97q-98 0 -163.5 67t-65.5 179t65.5 179t163.5 67q121 0 175 -97h2zM275 56q75 0 121 49t46 126t-46 126t-121 49t-121 -49t-46 -126t46 -126t121 -49z" />
    <glyph glyph-name="Dcroat" unicode="&#x110;" horiz-adv-x="693" 
d="M303 700q155 0 253.5 -94.5t98.5 -255.5t-98.5 -255.5t-253.5 -94.5h-219v327h-80v63h80v310h219zM303 72q118 0 193.5 73t75.5 205q0 131 -75.5 204t-193.5 73h-142v-237h186v-63h-186v-255h142z" />
    <glyph glyph-name="dcroat" unicode="&#x111;" horiz-adv-x="571" 
d="M571 618v-47h-61v-571h-72v82h-2q-54 -97 -175 -97q-98 0 -163.5 67t-65.5 179t65.5 179t163.5 67q121 0 175 -97h2v191h-136v47h136v82h72v-82h61zM275 56q75 0 121 49t46 126t-46 126t-121 49t-121 -49t-46 -126t46 -126t121 -49z" />
    <glyph glyph-name="Emacron" unicode="&#x112;" horiz-adv-x="518" 
d="M429 829v-56h-282v56h282zM151 73h320v-73h-397v700h392v-73h-315v-201h290v-72h-290v-281z" />
    <glyph glyph-name="emacron" unicode="&#x113;" horiz-adv-x="521" 
d="M410 657v-56h-282v56h282zM267 477q109 0 165.5 -67.5t56.5 -175.5v-13h-384q1 -76 47 -121t119 -45q40 0 73.5 15.5t50 32t34.5 40.5l52 -47q-79 -111 -209 -111q-109 0 -174.5 67.5t-65.5 177.5q0 111 64.5 179t170.5 68zM263 410q-62 0 -104.5 -35t-50.5 -99h303
q-5 64 -43.5 99t-104.5 35z" />
    <glyph glyph-name="Ebreve" unicode="&#x114;" horiz-adv-x="518" 
d="M289 743q-60 0 -97 32t-39 88h53q5 -70 83 -70t83 70h53q-2 -56 -39 -88t-97 -32zM151 73h320v-73h-397v700h392v-73h-315v-201h290v-72h-290v-281z" />
    <glyph glyph-name="ebreve" unicode="&#x115;" horiz-adv-x="521" 
d="M405 700q0 -65 -37.5 -102.5t-98.5 -37.5t-98.5 37.5t-37.5 102.5h54q2 -41 23.5 -64t58.5 -23t58.5 23t23.5 64h54zM267 477q109 0 165.5 -67.5t56.5 -175.5v-13h-384q1 -76 47 -121t119 -45q40 0 73.5 15.5t50 32t34.5 40.5l52 -47q-79 -111 -209 -111
q-109 0 -174.5 67.5t-65.5 177.5q0 111 64.5 179t170.5 68zM263 410q-62 0 -104.5 -35t-50.5 -99h303q-5 64 -43.5 99t-104.5 35z" />
    <glyph glyph-name="Edotaccent" unicode="&#x116;" horiz-adv-x="518" 
d="M330 850v-107h-83v107h83zM151 73h320v-73h-397v700h392v-73h-315v-201h290v-72h-290v-281z" />
    <glyph glyph-name="edotaccent" unicode="&#x117;" horiz-adv-x="521" 
d="M314 690v-120h-91v120h91zM267 477q109 0 165.5 -67.5t56.5 -175.5v-13h-384q1 -76 47 -121t119 -45q40 0 73.5 15.5t50 32t34.5 40.5l52 -47q-79 -111 -209 -111q-109 0 -174.5 67.5t-65.5 177.5q0 111 64.5 179t170.5 68zM263 410q-62 0 -104.5 -35t-50.5 -99h303
q-5 64 -43.5 99t-104.5 35z" />
    <glyph glyph-name="Eogonek" unicode="&#x118;" horiz-adv-x="518" 
d="M443 0q-76 -67 -76 -106q0 -29 40 -29q20 0 44 7l8 -49q-30 -10 -65 -10q-37 0 -61.5 18t-24.5 53q0 56 77 116h-311v700h392v-73h-315v-201h290v-72h-290v-281h320v-73h-28z" />
    <glyph glyph-name="eogonek" unicode="&#x119;" horiz-adv-x="521" 
d="M489 234v-13h-384q1 -76 47 -121t119 -45q40 0 73.5 15.5t50 32t34.5 40.5l52 -47q-43 -61 -102 -89q-84 -71 -84 -113q0 -29 40 -29q19 0 44 7l8 -49q-30 -10 -65 -10q-37 0 -61.5 18t-24.5 53q0 49 60 102q-8 -1 -24 -1q-109 0 -174.5 67.5t-65.5 177.5q0 111 64.5 179
t170.5 68q109 0 165.5 -67.5t56.5 -175.5zM108 276h303q-5 64 -43.5 99t-104.5 35q-62 0 -104.5 -35t-50.5 -99z" />
    <glyph glyph-name="Ecaron" unicode="&#x11a;" horiz-adv-x="518" 
d="M327 743h-76l-122 120h77l83 -81l84 81h77zM151 73h320v-73h-397v700h392v-73h-315v-201h290v-72h-290v-281z" />
    <glyph glyph-name="ecaron" unicode="&#x11b;" horiz-adv-x="521" 
d="M436 700l-128 -154h-77l-128 154h75l91 -108l91 108h76zM267 477q109 0 165.5 -67.5t56.5 -175.5v-13h-384q1 -76 47 -121t119 -45q40 0 73.5 15.5t50 32t34.5 40.5l52 -47q-79 -111 -209 -111q-109 0 -174.5 67.5t-65.5 177.5q0 111 64.5 179t170.5 68zM263 410
q-62 0 -104.5 -35t-50.5 -99h303q-5 64 -43.5 99t-104.5 35z" />
    <glyph glyph-name="Gcircumflex" unicode="&#x11c;" horiz-adv-x="790" 
d="M400 824l-83 -81h-77l122 120h76l123 -120h-77zM434 374h326v-32q0 -67 -21.5 -129t-63.5 -114t-111.5 -83t-156.5 -31q-162 0 -266 100.5t-104 262.5t103 264.5t267 102.5q150 0 268 -93l-53 -65q-97 80 -218 80q-124 0 -203.5 -81.5t-79.5 -206.5t79.5 -205.5
t208.5 -80.5q65 0 117.5 22.5t84 58.5t48.5 76.5t19 80.5h-244v73z" />
    <glyph glyph-name="gcircumflex" unicode="&#x11d;" horiz-adv-x="572" 
d="M325 707l124 -154h-75l-87 108l-87 -108h-75l124 154h76zM296 -215q-80 0 -178 21l14 70q95 -21 164 -21q75 0 108.5 35t33.5 115v77h-2q-54 -97 -175 -97q-98 0 -163.5 67t-65.5 179t65.5 179t163.5 67q121 0 175 -97h2v82h72v-462q-2 -124 -58 -169.5t-156 -45.5z
M275 56q75 0 121 49t46 126t-46 126t-121 49t-121 -49t-46 -126t46 -126t121 -49z" />
    <glyph glyph-name="Gbreve" unicode="&#x11e;" horiz-adv-x="790" 
d="M400 743q-60 0 -97 32t-39 88h53q5 -70 83 -70t83 70h53q-2 -56 -39 -88t-97 -32zM434 374h326v-32q0 -67 -21.5 -129t-63.5 -114t-111.5 -83t-156.5 -31q-162 0 -266 100.5t-104 262.5t103 264.5t267 102.5q150 0 268 -93l-53 -65q-97 80 -218 80q-124 0 -203.5 -81.5
t-79.5 -206.5t79.5 -205.5t208.5 -80.5q65 0 117.5 22.5t84 58.5t48.5 76.5t19 80.5h-244v73z" />
    <glyph glyph-name="gbreve" unicode="&#x11f;" horiz-adv-x="572" 
d="M423 700q0 -65 -37.5 -102.5t-98.5 -37.5t-98.5 37.5t-37.5 102.5h54q2 -41 23.5 -64t58.5 -23t58.5 23t23.5 64h54zM296 -215q-80 0 -178 21l14 70q95 -21 164 -21q75 0 108.5 35t33.5 115v77h-2q-54 -97 -175 -97q-98 0 -163.5 67t-65.5 179t65.5 179t163.5 67
q121 0 175 -97h2v82h72v-462q-2 -124 -58 -169.5t-156 -45.5zM275 56q75 0 121 49t46 126t-46 126t-121 49t-121 -49t-46 -126t46 -126t121 -49z" />
    <glyph glyph-name="Gdotaccent" unicode="&#x120;" horiz-adv-x="790" 
d="M441 850v-107h-83v107h83zM434 374h326v-32q0 -67 -21.5 -129t-63.5 -114t-111.5 -83t-156.5 -31q-162 0 -266 100.5t-104 262.5t103 264.5t267 102.5q150 0 268 -93l-53 -65q-97 80 -218 80q-124 0 -203.5 -81.5t-79.5 -206.5t79.5 -205.5t208.5 -80.5q65 0 117.5 22.5
t84 58.5t48.5 76.5t19 80.5h-244v73z" />
    <glyph glyph-name="gdotaccent" unicode="&#x121;" horiz-adv-x="572" 
d="M332 690v-120h-91v120h91zM296 -215q-80 0 -178 21l14 70q95 -21 164 -21q75 0 108.5 35t33.5 115v77h-2q-54 -97 -175 -97q-98 0 -163.5 67t-65.5 179t65.5 179t163.5 67q121 0 175 -97h2v82h72v-462q-2 -124 -58 -169.5t-156 -45.5zM275 56q75 0 121 49t46 126t-46 126
t-121 49t-121 -49t-46 -126t46 -126t121 -49z" />
    <glyph glyph-name="Gcommaaccent" unicode="&#x122;" horiz-adv-x="790" 
d="M434 374h326v-32q0 -67 -21.5 -129t-63.5 -114t-111.5 -83t-156.5 -31q-162 0 -266 100.5t-104 262.5t103 264.5t267 102.5q150 0 268 -93l-53 -65q-97 80 -218 80q-124 0 -203.5 -81.5t-79.5 -206.5t79.5 -205.5t208.5 -80.5q65 0 117.5 22.5t84 58.5t48.5 76.5t19 80.5
h-244v73zM366 -129v82h88v-82l-62 -77h-31l39 77h-34z" />
    <glyph glyph-name="gcommaaccent" unicode="&#x123;" horiz-adv-x="572" 
d="M330 622v-82h-88v82l62 77h31l-39 -77h34zM438 462h72v-462q-2 -124 -58 -169.5t-156 -45.5q-80 0 -178 21l14 70q95 -21 164 -21q75 0 108.5 35t33.5 115v77h-2q-54 -97 -175 -97q-98 0 -163.5 67t-65.5 179t65.5 179t163.5 67q121 0 175 -97h2v82zM275 56q75 0 121 49
t46 126t-46 126t-121 49t-121 -49t-46 -126t46 -126t121 -49z" />
    <glyph glyph-name="Hcircumflex" unicode="&#x124;" horiz-adv-x="702" 
d="M351 824l-83 -81h-77l122 120h76l123 -120h-77zM551 700h77v-700h-77v335h-400v-335h-77v700h77v-291h400v291z" />
    <glyph glyph-name="hcircumflex" unicode="&#x125;" horiz-adv-x="542" 
d="M141 863l123 -120h-77l-84 81l-83 -81h-77l122 120h76zM139 700v-327h2q47 104 165 104q80 0 128.5 -48.5t48.5 -147.5v-281h-72v271q0 68 -32.5 101t-90.5 33q-66 0 -107.5 -45.5t-41.5 -146.5v-213h-72v700h72z" />
    <glyph glyph-name="Hbar" unicode="&#x126;" horiz-adv-x="693" 
d="M693 579v-65h-69v-514h-77v335h-400v-335h-77v514h-70v65h70v121h77v-121h400v121h77v-121h69zM547 409v105h-400v-105h400z" />
    <glyph glyph-name="hbar" unicode="&#x127;" horiz-adv-x="542" 
d="M306 477q80 0 128.5 -48.5t48.5 -147.5v-281h-72v271q0 68 -32.5 101t-90.5 33q-66 0 -107.5 -45.5t-41.5 -146.5v-213h-72v571h-67v47h67v82h72v-82h151v-47h-151v-198h2q47 104 165 104z" />
    <glyph glyph-name="Itilde" unicode="&#x128;" horiz-adv-x="227" 
d="M197 747q-29 0 -86 26.5t-76 26.5q-35 0 -54 -47l-33 11q28 94 96 94q29 0 86 -26t76 -26q35 0 54 46l33 -10q-28 -95 -96 -95zM152 700v-700h-78v700h78z" />
    <glyph glyph-name="itilde" unicode="&#x129;" horiz-adv-x="202" 
d="M48 698q25 0 65.5 -28t52.5 -28q21 0 37 44l33 -11q-19 -93 -76 -93q-26 0 -66.5 27.5t-52.5 27.5q-22 0 -36 -43l-34 10q19 94 77 94zM65 0v462h72v-462h-72z" />
    <glyph glyph-name="Imacron" unicode="&#x12a;" horiz-adv-x="227" 
d="M253 829v-56h-282v56h282zM152 700v-700h-78v700h78z" />
    <glyph glyph-name="imacron" unicode="&#x12b;" horiz-adv-x="202" 
d="M196 657v-56h-190v56h190zM65 0v462h72v-462h-72z" />
    <glyph glyph-name="Ibreve" unicode="&#x12c;" horiz-adv-x="227" 
d="M249 863q-2 -56 -39 -88t-97 -32t-97 32t-39 88h53q5 -70 83 -70t83 70h53zM152 700v-700h-78v700h78z" />
    <glyph glyph-name="ibreve" unicode="&#x12d;" horiz-adv-x="202" 
d="M207 700q0 -140 -106 -140t-106 140h54q0 -45 12 -66t40 -21t40 21t12 66h54zM65 0v462h72v-462h-72z" />
    <glyph glyph-name="Iogonek" unicode="&#x12e;" horiz-adv-x="227" 
d="M135 0q-81 -69 -81 -110q0 -29 40 -29q19 0 44 7l8 -49q-30 -10 -65 -10q-37 0 -61.5 18t-24.5 53q0 58 82 120h-3v700h78v-700h-17z" />
    <glyph glyph-name="iogonek" unicode="&#x12f;" horiz-adv-x="202" 
d="M55 690h91v-120h-91v120zM65 11v451h72v-462h-29q-76 -67 -76 -106q0 -29 40 -29q19 0 44 7l8 -49q-30 -10 -65 -10q-37 0 -61.5 18t-24.5 53q0 62 92 127z" />
    <glyph glyph-name="Idotaccent" unicode="&#x130;" horiz-adv-x="227" 
d="M154 850v-107h-83v107h83zM152 700v-700h-78v700h78z" />
    <glyph glyph-name="dotlessi" unicode="&#x131;" horiz-adv-x="202" 
d="M65 0v462h72v-462h-72z" />
    <glyph glyph-name="IJ" unicode="&#x132;" horiz-adv-x="497" 
d="M152 700v-700h-78v700h78zM423 700v-534q0 -88 -36 -129.5t-111 -41.5h-32v75h25q39 0 58 21.5t19 74.5v534h77z" />
    <glyph glyph-name="ij" unicode="&#x133;" horiz-adv-x="404" 
d="M146 690v-120h-91v120h91zM348 690v-120h-91v120h91zM65 0v462h72v-462h-72zM177 -138h23q35 0 51 19.5t16 62.5v518h72v-524q0 -69 -33.5 -105t-96.5 -36h-32v65z" />
    <glyph glyph-name="Jcircumflex" unicode="&#x134;" horiz-adv-x="270" 
d="M195 863l123 -120h-77l-84 81l-83 -81h-77l122 120h76zM196 700v-534q0 -88 -36 -129.5t-111 -41.5h-32v75h25q39 0 58 21.5t19 74.5v534h77z" />
    <glyph glyph-name="jcircumflex" unicode="&#x135;" horiz-adv-x="202" 
d="M139 707l82 -154h-70l-50 109l-50 -109h-70l82 154h76zM-25 -138h23q35 0 51 19.5t16 62.5v518h72v-524q0 -69 -33.5 -105t-96.5 -36h-32v65z" />
    <glyph glyph-name="Kcommaaccent" unicode="&#x136;" horiz-adv-x="612" 
d="M240 376l365 -376h-115l-339 357v-357h-77v700h77v-315l300 315h109zM263 -129v82h88v-82l-62 -77h-31l39 77h-34z" />
    <glyph glyph-name="kcommaaccent" unicode="&#x137;" horiz-adv-x="459" 
d="M217 251l234 -251h-99l-213 234v-234h-72v700h72v-440l192 202h99zM186 -129v82h88v-82l-62 -77h-31l39 77h-34z" />
    <glyph glyph-name="kgreenlandic" unicode="&#x138;" horiz-adv-x="454" 
d="M447 0h-99l-212 233v-233h-72v462h72v-201l190 201h99l-213 -211z" />
    <glyph glyph-name="Lacute" unicode="&#x139;" horiz-adv-x="485" 
d="M297 863l-134 -120h-58l95 120h97zM151 700v-626h325v-74h-402v700h77z" />
    <glyph glyph-name="lacute" unicode="&#x13a;" horiz-adv-x="206" 
d="M264 863l-134 -120h-58l95 120h97zM139 700v-700h-72v700h72z" />
    <glyph glyph-name="Lcommaaccent" unicode="&#x13b;" horiz-adv-x="485" 
d="M151 74h325v-74h-402v700h77v-626zM242 -129v82h88v-82l-62 -77h-31l39 77h-34z" />
    <glyph glyph-name="lcommaaccent" unicode="&#x13c;" horiz-adv-x="206" 
d="M139 700v-700h-72v700h72zM59 -47h88v-82l-62 -77h-31l39 77h-34v82z" />
    <glyph glyph-name="Lcaron" unicode="&#x13d;" horiz-adv-x="485" 
d="M330 479h-31l54 145h-43v91h91v-91zM151 74h325v-74h-402v700h77v-626z" />
    <glyph glyph-name="lcaron" unicode="&#x13e;" horiz-adv-x="286" 
d="M188 715h92v-91l-71 -122h-32l46 122h-35v91zM67 0v700h72v-700h-72z" />
    <glyph glyph-name="Ldot" unicode="&#x13f;" horiz-adv-x="485" 
d="M151 700v-626h325v-74h-402v700h77zM388 462v-103h-103v103h103z" />
    <glyph glyph-name="ldot" unicode="&#x140;" horiz-adv-x="289" 
d="M139 700v-700h-72v700h72zM280 463v-103h-103v103h103z" />
    <glyph glyph-name="Lslash" unicode="&#x141;" horiz-adv-x="485" 
d="M151 74h325v-74h-402v293l-80 -41v56l80 41v351h77v-311l187 96v-56l-187 -96v-259z" />
    <glyph glyph-name="lslash" unicode="&#x142;" horiz-adv-x="256" 
d="M246 479v-56l-84 -44v-379h-72v341l-80 -42v56l80 42v303h72v-265z" />
    <glyph glyph-name="Nacute" unicode="&#x143;" horiz-adv-x="694" 
d="M511 863l-134 -120h-58l95 120h97zM619 700v-700h-82l-384 569h-2v-569h-77v700h82l384 -569h2v569h77z" />
    <glyph glyph-name="nacute" unicode="&#x144;" horiz-adv-x="539" 
d="M445 707l-132 -154h-60l95 154h97zM303 477q82 0 129.5 -48t47.5 -148v-281h-72v271q0 68 -33 101t-91 33q-66 0 -107 -45.5t-41 -146.5v-213h-72v462h72v-89h2q47 104 165 104z" />
    <glyph glyph-name="Ncommaaccent" unicode="&#x145;" horiz-adv-x="694" 
d="M542 700h77v-700h-82l-384 569h-2v-569h-77v700h82l384 -569h2v569zM302 -129v82h88v-82l-62 -77h-31l39 77h-34z" />
    <glyph glyph-name="ncommaaccent" unicode="&#x146;" horiz-adv-x="539" 
d="M303 477q82 0 129.5 -48t47.5 -148v-281h-72v271q0 68 -33 101t-91 33q-66 0 -107 -45.5t-41 -146.5v-213h-72v462h72v-89h2q47 104 165 104zM239 -129v82h88v-82l-62 -77h-31l39 77h-34z" />
    <glyph glyph-name="Ncaron" unicode="&#x147;" horiz-adv-x="694" 
d="M388 743h-76l-122 120h77l83 -81l84 81h77zM619 700v-700h-82l-384 569h-2v-569h-77v700h82l384 -569h2v569h77z" />
    <glyph glyph-name="ncaron" unicode="&#x148;" horiz-adv-x="539" 
d="M450 700l-128 -154h-77l-128 154h75l91 -108l91 108h76zM303 477q82 0 129.5 -48t47.5 -148v-281h-72v271q0 68 -33 101t-91 33q-66 0 -107 -45.5t-41 -146.5v-213h-72v462h72v-89h2q47 104 165 104z" />
    <glyph glyph-name="napostrophe" unicode="&#x149;" horiz-adv-x="567" 
d="M112 715v-91l-71 -145h-31l54 145h-43v91h91zM331 477q82 0 129.5 -48t47.5 -148v-281h-72v271q0 68 -33 101t-91 33q-66 0 -107 -45.5t-41 -146.5v-213h-72v462h72v-89h2q47 104 165 104z" />
    <glyph glyph-name="Eng" unicode="&#x14a;" horiz-adv-x="694" 
d="M542 700h77v-759q0 -66 -32 -103.5t-96 -37.5h-51v74h40q62 0 62 69v57l-389 568h-2v-568h-77v700h82l384 -563h2v563z" />
    <glyph glyph-name="eng" unicode="&#x14b;" horiz-adv-x="539" 
d="M303 477q82 0 129.5 -48t47.5 -148v-353q0 -128 -119 -128h-54v68h45q56 0 56 62v341q0 68 -33 101t-91 33q-66 0 -107 -45.5t-41 -146.5v-213h-72v462h72v-89h2q47 104 165 104z" />
    <glyph glyph-name="Omacron" unicode="&#x14c;" horiz-adv-x="804" 
d="M543 829v-56h-282v56h282zM402 715q157 0 261 -102.5t104 -262.5t-104 -262.5t-261 -102.5t-261 102.5t-104 262.5t104 262.5t261 102.5zM402 637q-123 0 -202 -81t-79 -206t79 -206t202 -81t202 80.5t79 206.5t-79 206.5t-202 80.5z" />
    <glyph glyph-name="omacron" unicode="&#x14d;" horiz-adv-x="564" 
d="M423 657v-56h-282v56h282zM282 477q109 0 179.5 -69.5t70.5 -176.5t-70.5 -176.5t-179.5 -69.5q-108 0 -179 69.5t-71 176.5t71 176.5t179 69.5zM282 406q-76 0 -125 -48t-49 -127t49 -127t125 -48t125 48t49 127t-49 127t-125 48z" />
    <glyph glyph-name="Obreve" unicode="&#x14e;" horiz-adv-x="804" 
d="M539 863q-2 -56 -39 -88t-97 -32t-97 32t-39 88h53q5 -70 83 -70t83 70h53zM402 715q157 0 261 -102.5t104 -262.5t-104 -262.5t-261 -102.5t-261 102.5t-104 262.5t104 262.5t261 102.5zM402 637q-123 0 -202 -81t-79 -206t79 -206t202 -81t202 80.5t79 206.5t-79 206.5
t-202 80.5z" />
    <glyph glyph-name="obreve" unicode="&#x14f;" horiz-adv-x="564" 
d="M418 700q0 -65 -37.5 -102.5t-98.5 -37.5t-98.5 37.5t-37.5 102.5h54q2 -41 23.5 -64t58.5 -23t58.5 23t23.5 64h54zM282 477q109 0 179.5 -69.5t70.5 -176.5t-70.5 -176.5t-179.5 -69.5q-108 0 -179 69.5t-71 176.5t71 176.5t179 69.5zM282 406q-76 0 -125 -48t-49 -127
t49 -127t125 -48t125 48t49 127t-49 127t-125 48z" />
    <glyph glyph-name="Ohungarumlaut" unicode="&#x150;" horiz-adv-x="804" 
d="M483 863l-103 -120h-55l88 120h70zM590 863l-103 -120h-55l88 120h70zM402 715q157 0 261 -102.5t104 -262.5t-104 -262.5t-261 -102.5t-261 102.5t-104 262.5t104 262.5t261 102.5zM402 637q-123 0 -202 -81t-79 -206t79 -206t202 -81t202 80.5t79 206.5t-79 206.5
t-202 80.5z" />
    <glyph glyph-name="ohungarumlaut" unicode="&#x151;" horiz-adv-x="564" 
d="M377 707l-119 -154h-55l104 154h70zM488 707l-119 -154h-55l104 154h70zM282 477q109 0 179.5 -69.5t70.5 -176.5t-70.5 -176.5t-179.5 -69.5q-108 0 -179 69.5t-71 176.5t71 176.5t179 69.5zM282 406q-76 0 -125 -48t-49 -127t49 -127t125 -48t125 48t49 127t-49 127
t-125 48z" />
    <glyph glyph-name="OE" unicode="&#x152;" horiz-adv-x="1124" 
d="M756 73h321v-73h-398v113q-50 -60 -122.5 -94t-156.5 -34q-156 0 -259.5 102.5t-103.5 262.5t103.5 262.5t259.5 102.5q84 0 156.5 -34t122.5 -94v113h387v-73h-310v-201h290v-72h-290v-281zM400 62q124 0 203 82t79 206t-79 206t-203 82q-122 0 -201 -81t-79 -207
t79 -207t201 -81z" />
    <glyph glyph-name="oe" unicode="&#x153;" horiz-adv-x="935" 
d="M683 477q107 0 163.5 -67.5t56.5 -174.5v-13h-384q1 -76 47 -121.5t119 -45.5q40 0 73.5 15.5t50 32t34.5 40.5l52 -47q-80 -111 -210 -111q-144 0 -201 115h-2q-25 -54 -77.5 -84.5t-121.5 -30.5q-112 0 -181.5 68.5t-69.5 177.5t69.5 177.5t181.5 68.5
q69 0 121.5 -30.5t78.5 -85.5h2q26 55 77.5 85.5t120.5 30.5zM678 410q-63 0 -105 -35t-51 -99h303q-5 63 -43 98.5t-104 35.5zM281 406q-76 0 -124.5 -48t-48.5 -127t48.5 -127t124.5 -48t124.5 48t48.5 127t-48.5 127t-124.5 48z" />
    <glyph glyph-name="Racute" unicode="&#x154;" horiz-adv-x="571" 
d="M426 863l-134 -120h-58l95 120h97zM458 0l-208 301h-99v-301h-77v700h233q94 0 153.5 -53t59.5 -147q0 -83 -49 -135.5t-129 -61.5l213 -303h-97zM151 627v-253h146q68 0 104 34t36 92q0 59 -36 93t-104 34h-146z" />
    <glyph glyph-name="racute" unicode="&#x155;" horiz-adv-x="317" 
d="M351 707l-132 -154h-60l95 154h97zM303 476v-83h-14q-74 0 -113.5 -45.5t-39.5 -130.5v-217h-72v462h72v-104h2q15 53 55.5 85.5t97.5 32.5h12z" />
    <glyph glyph-name="Rcommaaccent" unicode="&#x156;" horiz-adv-x="571" 
d="M342 303l213 -303h-97l-208 301h-99v-301h-77v700h233q94 0 153.5 -53t59.5 -147q0 -83 -49 -135.5t-129 -61.5zM151 627v-253h146q68 0 104 34t36 92q0 59 -36 93t-104 34h-146zM249 -129v82h88v-82l-62 -77h-31l39 77h-34z" />
    <glyph glyph-name="rcommaaccent" unicode="&#x157;" horiz-adv-x="317" 
d="M291 476h12v-83h-14q-74 0 -113.5 -45.5t-39.5 -130.5v-217h-72v462h72v-104h2q15 53 55.5 85.5t97.5 32.5zM57 -129v82h88v-82l-62 -77h-31l39 77h-34z" />
    <glyph glyph-name="Rcaron" unicode="&#x158;" horiz-adv-x="571" 
d="M303 743h-76l-122 120h77l83 -81l84 81h77zM458 0l-208 301h-99v-301h-77v700h233q94 0 153.5 -53t59.5 -147q0 -83 -49 -135.5t-129 -61.5l213 -303h-97zM151 627v-253h146q68 0 104 34t36 92q0 59 -36 93t-104 34h-146z" />
    <glyph glyph-name="rcaron" unicode="&#x159;" horiz-adv-x="317" 
d="M356 700l-128 -154h-77l-128 154h75l91 -108l91 108h76zM303 476v-83h-14q-74 0 -113.5 -45.5t-39.5 -130.5v-217h-72v462h72v-104h2q15 53 55.5 85.5t97.5 32.5h12z" />
    <glyph glyph-name="Sacute" unicode="&#x15a;" horiz-adv-x="497" 
d="M418 863l-134 -120h-58l95 120h97zM256 715q86 0 178 -44l-36 -74q-72 40 -143 40q-52 0 -78.5 -21.5t-26.5 -58.5q0 -32 18.5 -55.5t56.5 -51.5l115 -85q59 -43 88 -87.5t29 -104.5q0 -91 -59 -139.5t-158 -48.5q-122 0 -221 64l37 72q94 -58 184 -58q66 0 100.5 29.5
t34.5 75.5q0 35 -21 64.5t-70 65.5l-114 86q-50 38 -76.5 77t-26.5 93q0 74 49.5 117.5t139.5 43.5z" />
    <glyph glyph-name="sacute" unicode="&#x15b;" horiz-adv-x="406" 
d="M369 707l-132 -154h-60l95 154h97zM210 -15q-106 0 -191 54l35 64q77 -50 159 -50q46 0 69 16.5t23 44.5q0 40 -63 69l-86 41q-100 46 -100 129q0 60 43 92t116 32q77 0 156 -36l-31 -64q-68 32 -127 32q-80 0 -80 -53q0 -22 15.5 -38t50.5 -32l84 -39q48 -23 73.5 -53
t25.5 -77q0 -65 -46 -98.5t-126 -33.5z" />
    <glyph glyph-name="Scircumflex" unicode="&#x15c;" horiz-adv-x="497" 
d="M295 863l123 -120h-77l-84 81l-83 -81h-77l122 120h76zM256 715q86 0 178 -44l-36 -74q-72 40 -143 40q-52 0 -78.5 -21.5t-26.5 -58.5q0 -32 18.5 -55.5t56.5 -51.5l115 -85q59 -43 88 -87.5t29 -104.5q0 -91 -59 -139.5t-158 -48.5q-122 0 -221 64l37 72
q94 -58 184 -58q66 0 100.5 29.5t34.5 75.5q0 35 -21 64.5t-70 65.5l-114 86q-50 38 -76.5 77t-26.5 93q0 74 49.5 117.5t139.5 43.5z" />
    <glyph glyph-name="scircumflex" unicode="&#x15d;" horiz-adv-x="406" 
d="M245 707l124 -154h-75l-87 108l-87 -108h-75l124 154h76zM210 -15q-106 0 -191 54l35 64q77 -50 159 -50q46 0 69 16.5t23 44.5q0 40 -63 69l-86 41q-100 46 -100 129q0 60 43 92t116 32q77 0 156 -36l-31 -64q-68 32 -127 32q-80 0 -80 -53q0 -22 15.5 -38t50.5 -32
l84 -39q48 -23 73.5 -53t25.5 -77q0 -65 -46 -98.5t-126 -33.5z" />
    <glyph glyph-name="Scedilla" unicode="&#x15e;" horiz-adv-x="497" 
d="M457 173q0 -86 -53 -134t-143 -53l-10 -27q20 -5 33.5 -11.5t25 -22t11.5 -36.5q0 -23 -20 -42.5t-40 -29.5t-64 -29l-11 24q44 21 64 35.5t20 29.5q0 18 -15 26.5t-51 16.5l24 65q-117 5 -209 64l37 72q94 -58 184 -58q66 0 100.5 29.5t34.5 75.5q0 35 -21 64.5
t-70 65.5l-114 86q-50 38 -76.5 77t-26.5 93q0 74 49.5 117.5t139.5 43.5q86 0 178 -44l-36 -74q-72 40 -143 40q-52 0 -78.5 -21.5t-26.5 -58.5q0 -32 18.5 -55.5t56.5 -51.5l115 -85q59 -43 88 -87.5t29 -104.5z" />
    <glyph glyph-name="scedilla" unicode="&#x15f;" horiz-adv-x="406" 
d="M382 117q0 -63 -44 -96.5t-121 -35.5l-10 -26q20 -5 33.5 -11.5t25 -22t11.5 -36.5q0 -23 -20 -42.5t-40 -29.5t-64 -29l-11 24q44 21 64 35.5t20 29.5q0 18 -15 26.5t-51 16.5l25 66q-91 6 -166 53l35 64q77 -50 159 -50q46 0 69 16.5t23 44.5q0 40 -63 69l-86 41
q-100 46 -100 129q0 60 43 92t116 32q77 0 156 -36l-31 -64q-68 32 -127 32q-80 0 -80 -53q0 -22 15.5 -38t50.5 -32l84 -39q48 -23 73.5 -53t25.5 -77z" />
    <glyph glyph-name="Scaron" unicode="&#x160;" horiz-adv-x="497" 
d="M295 743h-76l-122 120h77l83 -81l84 81h77zM256 715q86 0 178 -44l-36 -74q-72 40 -143 40q-52 0 -78.5 -21.5t-26.5 -58.5q0 -32 18.5 -55.5t56.5 -51.5l115 -85q59 -43 88 -87.5t29 -104.5q0 -91 -59 -139.5t-158 -48.5q-122 0 -221 64l37 72q94 -58 184 -58
q66 0 100.5 29.5t34.5 75.5q0 35 -21 64.5t-70 65.5l-114 86q-50 38 -76.5 77t-26.5 93q0 74 49.5 117.5t139.5 43.5z" />
    <glyph glyph-name="scaron" unicode="&#x161;" horiz-adv-x="406" 
d="M374 700l-128 -154h-77l-128 154h75l91 -108l91 108h76zM210 -15q-106 0 -191 54l35 64q77 -50 159 -50q46 0 69 16.5t23 44.5q0 40 -63 69l-86 41q-100 46 -100 129q0 60 43 92t116 32q77 0 156 -36l-31 -64q-68 32 -127 32q-80 0 -80 -53q0 -22 15.5 -38t50.5 -32
l84 -39q48 -23 73.5 -53t25.5 -77q0 -65 -46 -98.5t-126 -33.5z" />
    <glyph glyph-name="uni0162" unicode="&#x162;" horiz-adv-x="515" 
d="M296 0h-19l-15 -41q20 -5 33.5 -11.5t25 -22t11.5 -36.5q0 -23 -20 -42.5t-40 -29.5t-64 -29l-11 24q44 21 64 35.5t20 29.5q0 18 -15 26.5t-51 16.5l30 80h-26v627h-209v73h495v-73h-209v-627z" />
    <glyph glyph-name="uni0163" unicode="&#x163;" horiz-adv-x="306" 
d="M282 400h-102v-273q0 -61 58 -61h25v-67h-38h-5l-15 -41q20 -5 33.5 -11.5t25 -22t11.5 -36.5q0 -23 -20 -42.5t-40 -29.5t-64 -29l-11 24q44 21 64 35.5t20 29.5q0 18 -15 26.5t-51 16.5l31 84q-81 17 -81 110v287h-89v62h89v185h72v-185h102v-62z" />
    <glyph glyph-name="Tcaron" unicode="&#x164;" horiz-adv-x="515" 
d="M295 743h-76l-122 120h77l83 -81l84 81h77zM505 700v-73h-209v-627h-77v627h-209v73h495z" />
    <glyph glyph-name="tcaron" unicode="&#x165;" horiz-adv-x="365" 
d="M255 715h91v-91l-71 -122h-31l46 122h-35v91zM180 647v-185h102v-62h-102v-273q0 -61 58 -61h25v-67h-38q-55 0 -86 29t-31 85v287h-89v62h89v185h72z" />
    <glyph glyph-name="Tbar" unicode="&#x166;" horiz-adv-x="515" 
d="M505 627h-209v-165h143v-64h-143v-398h-77v398h-139v64h139v165h-209v73h495v-73z" />
    <glyph glyph-name="tbar" unicode="&#x167;" horiz-adv-x="302" 
d="M282 400h-102v-83h99v-52h-99v-138q0 -61 58 -61h25v-67h-38q-55 0 -86 29t-31 85v152h-86v52h86v83h-89v62h89v185h72v-185h102v-62z" />
    <glyph glyph-name="Utilde" unicode="&#x168;" horiz-adv-x="689" 
d="M428 747q-29 0 -86 26.5t-76 26.5q-35 0 -54 -47l-33 11q28 94 96 94q29 0 86 -26t76 -26q35 0 54 46l33 -10q-28 -95 -96 -95zM620 700v-437q0 -127 -73.5 -202.5t-202.5 -75.5q-128 0 -202 75.5t-74 202.5v437h82v-431q0 -95 53 -149.5t141 -54.5t141.5 54.5
t53.5 149.5v431h81z" />
    <glyph glyph-name="utilde" unicode="&#x169;" horiz-adv-x="526" 
d="M191 698q29 0 83 -28t73 -28q33 0 53 47l34 -11q-24 -96 -94 -96q-29 0 -83 27.5t-73 27.5q-33 0 -53 -46l-35 10q10 41 34 69t61 28zM231 -15q-77 0 -124.5 48.5t-47.5 149.5v279h73v-275q0 -67 31.5 -99.5t85.5 -32.5q64 0 102.5 47t38.5 151v209h72v-462h-72v86h-2
q-44 -101 -157 -101z" />
    <glyph glyph-name="Umacron" unicode="&#x16a;" horiz-adv-x="689" 
d="M484 829v-56h-282v56h282zM620 700v-437q0 -127 -73.5 -202.5t-202.5 -75.5q-128 0 -202 75.5t-74 202.5v437h82v-431q0 -95 53 -149.5t141 -54.5t141.5 54.5t53.5 149.5v431h81z" />
    <glyph glyph-name="umacron" unicode="&#x16b;" horiz-adv-x="526" 
d="M403 657v-56h-282v56h282zM231 -15q-77 0 -124.5 48.5t-47.5 149.5v279h73v-275q0 -67 31.5 -99.5t85.5 -32.5q64 0 102.5 47t38.5 151v209h72v-462h-72v86h-2q-44 -101 -157 -101z" />
    <glyph glyph-name="Ubreve" unicode="&#x16c;" horiz-adv-x="689" 
d="M480 863q-2 -56 -39 -88t-97 -32t-97 32t-39 88h53q5 -70 83 -70t83 70h53zM620 700v-437q0 -127 -73.5 -202.5t-202.5 -75.5q-128 0 -202 75.5t-74 202.5v437h82v-431q0 -95 53 -149.5t141 -54.5t141.5 54.5t53.5 149.5v431h81z" />
    <glyph glyph-name="ubreve" unicode="&#x16d;" horiz-adv-x="526" 
d="M398 700q0 -65 -37.5 -102.5t-98.5 -37.5t-98.5 37.5t-37.5 102.5h54q2 -41 23.5 -64t58.5 -23t58.5 23t23.5 64h54zM231 -15q-77 0 -124.5 48.5t-47.5 149.5v279h73v-275q0 -67 31.5 -99.5t85.5 -32.5q64 0 102.5 47t38.5 151v209h72v-462h-72v86h-2q-44 -101 -157 -101
z" />
    <glyph glyph-name="Uring" unicode="&#x16e;" horiz-adv-x="689" 
d="M344 890q50 0 82.5 -32.5t32.5 -82.5t-32.5 -82t-82.5 -32t-83 32.5t-33 81.5q0 50 33 82.5t83 32.5zM343 851q-33 0 -53.5 -21t-20.5 -55q0 -33 20.5 -54t53.5 -21t54 21t21 54q0 34 -20.5 55t-54.5 21zM620 700v-437q0 -127 -73.5 -202.5t-202.5 -75.5
q-128 0 -202 75.5t-74 202.5v437h82v-431q0 -95 53 -149.5t141 -54.5t141.5 54.5t53.5 149.5v431h81z" />
    <glyph glyph-name="uring" unicode="&#x16f;" horiz-adv-x="526" 
d="M262 747q52 0 85.5 -33t33.5 -84t-33.5 -84t-85.5 -33t-85.5 33t-33.5 84t33.5 84t85.5 33zM262 708q-35 0 -56.5 -21.5t-21.5 -56.5t21.5 -56.5t56.5 -21.5t56.5 21.5t21.5 56.5t-21.5 56.5t-56.5 21.5zM231 -15q-77 0 -124.5 48.5t-47.5 149.5v279h73v-275
q0 -67 31.5 -99.5t85.5 -32.5q64 0 102.5 47t38.5 151v209h72v-462h-72v86h-2q-44 -101 -157 -101z" />
    <glyph glyph-name="Uhungarumlaut" unicode="&#x170;" horiz-adv-x="689" 
d="M424 863l-103 -120h-55l88 120h70zM531 863l-103 -120h-55l88 120h70zM620 700v-437q0 -127 -73.5 -202.5t-202.5 -75.5q-128 0 -202 75.5t-74 202.5v437h82v-431q0 -95 53 -149.5t141 -54.5t141.5 54.5t53.5 149.5v431h81z" />
    <glyph glyph-name="uhungarumlaut" unicode="&#x171;" horiz-adv-x="526" 
d="M357 707l-119 -154h-55l104 154h70zM468 707l-119 -154h-55l104 154h70zM231 -15q-77 0 -124.5 48.5t-47.5 149.5v279h73v-275q0 -67 31.5 -99.5t85.5 -32.5q64 0 102.5 47t38.5 151v209h72v-462h-72v86h-2q-44 -101 -157 -101z" />
    <glyph glyph-name="Uogonek" unicode="&#x172;" horiz-adv-x="689" 
d="M539 700h81v-437q0 -116 -62 -190t-173 -86q-62 -57 -62 -93q0 -29 40 -29q19 0 44 7l8 -49q-30 -10 -65 -10q-37 0 -61.5 18t-24.5 53q0 50 59 102q-119 6 -187 81t-68 196v437h82v-431q0 -95 53 -149.5t141 -54.5t141.5 54.5t53.5 149.5v431z" />
    <glyph glyph-name="uogonek" unicode="&#x173;" horiz-adv-x="526" 
d="M425 0q-76 -67 -76 -106q0 -29 40 -29q19 0 44 7l8 -49q-30 -10 -65 -10q-37 0 -61.5 18t-24.5 53q0 63 100 133v69h-2q-44 -101 -157 -101q-77 0 -124.5 48.5t-47.5 149.5v279h73v-275q0 -67 31.5 -99.5t85.5 -32.5q64 0 102.5 47t38.5 151v209h72v-462h-37z" />
    <glyph glyph-name="Wcircumflex" unicode="&#x174;" horiz-adv-x="973" 
d="M525 863l123 -120h-77l-84 81l-83 -81h-77l122 120h76zM958 700l-212 -700h-77l-181 571h-3l-181 -571h-77l-212 700h86l163 -576h2l180 576h80l181 -576h2l162 576h87z" />
    <glyph glyph-name="wcircumflex" unicode="&#x175;" horiz-adv-x="719" 
d="M359 661l-87 -108h-75l124 154h76l124 -154h-75zM632 462h80l-156 -462h-69l-128 368l-128 -368h-68l-156 462h79l112 -370l125 370h73l125 -370z" />
    <glyph glyph-name="Ycircumflex" unicode="&#x176;" horiz-adv-x="534" 
d="M267 824l-83 -81h-77l122 120h76l123 -120h-77zM530 700l-224 -426v-274h-78v274l-224 426h90l172 -343h2l172 343h90z" />
    <glyph glyph-name="ycircumflex" unicode="&#x177;" horiz-adv-x="467" 
d="M236 661l-87 -108h-75l124 154h76l124 -154h-75zM380 462h80l-302 -662h-77l118 249l-192 413h85l144 -332z" />
    <glyph glyph-name="Ydieresis" unicode="&#x178;" horiz-adv-x="534" 
d="M209 843v-100h-83v100h83zM408 843v-100h-83v100h83zM530 700l-224 -426v-274h-78v274l-224 426h90l172 -343h2l172 343h90z" />
    <glyph glyph-name="Zacute" unicode="&#x179;" horiz-adv-x="538" 
d="M440 863l-134 -120h-58l95 120h97zM112 73h406v-73h-498v73l393 554h-358v73h451v-73z" />
    <glyph glyph-name="zacute" unicode="&#x17a;" horiz-adv-x="441" 
d="M390 707l-132 -154h-60l95 154h97zM115 68h299v-68h-387v64l279 331h-263v67h351v-64z" />
    <glyph glyph-name="Zdotaccent" unicode="&#x17b;" horiz-adv-x="538" 
d="M320 850v-107h-83v107h83zM112 73h406v-73h-498v73l393 554h-358v73h451v-73z" />
    <glyph glyph-name="zdotaccent" unicode="&#x17c;" horiz-adv-x="441" 
d="M273 690v-120h-91v120h91zM115 68h299v-68h-387v64l279 331h-263v67h351v-64z" />
    <glyph glyph-name="Zcaron" unicode="&#x17d;" horiz-adv-x="538" 
d="M317 743h-76l-122 120h77l83 -81l84 81h77zM112 73h406v-73h-498v73l393 554h-358v73h451v-73z" />
    <glyph glyph-name="zcaron" unicode="&#x17e;" horiz-adv-x="441" 
d="M267 546h-77l-128 154h75l91 -108l91 108h76zM115 68h299v-68h-387v64l279 331h-263v67h351v-64z" />
    <glyph glyph-name="uni018F" unicode="&#x18f;" horiz-adv-x="790" 
d="M377 715q170 0 273 -98.5t103 -268.5q0 -164 -96 -263.5t-261 -99.5q-166 0 -262.5 99t-96.5 263v36h632q-11 117 -87.5 186t-204.5 69q-153 0 -248 -93l-45 66q120 104 293 104zM396 62q121 0 192 66.5t81 180.5h-547q10 -115 81 -181t193 -66z" />
    <glyph glyph-name="florin" unicode="&#x192;" horiz-adv-x="392" 
d="M326 609q-101 0 -101 -110v-37h141v-30h-141v-460q0 -172 -162 -172h-43v67h42q91 0 91 98v467h-114v30h114v31q0 92 44 137t126 45h43v-66h-40z" />
    <glyph glyph-name="uni01E5" unicode="&#x1e5;" horiz-adv-x="572" 
d="M572 -52v-30h-72q-19 -76 -71 -104.5t-133 -28.5q-80 0 -178 21l14 70q95 -21 164 -21q98 0 127 63h-198v30h208q5 27 5 57v77h-2q-54 -97 -175 -97q-98 0 -163.5 67t-65.5 179t65.5 179t163.5 67q121 0 175 -97h2v82h72v-462q0 -20 -4 -52h66zM275 56q75 0 121 49
t46 126t-46 126t-121 49t-121 -49t-46 -126t46 -126t121 -49z" />
    <glyph glyph-name="uni01E9" unicode="&#x1e9;" horiz-adv-x="459" 
d="M265 743h-76l-122 120h77l83 -81l84 81h77zM451 0h-99l-213 234v-234h-72v700h72v-440l192 202h99l-213 -211z" />
    <glyph glyph-name="AEacute" unicode="&#x1fc;" horiz-adv-x="927" 
d="M838 863l-134 -120h-58l95 120h97zM591 73h289v-73h-365v187h-287l-124 -187h-97l470 700h398v-73h-284v-201h259v-72h-259v-281zM275 258h240v362z" />
    <glyph glyph-name="aeacute" unicode="&#x1fd;" horiz-adv-x="853" 
d="M587 707l-132 -154h-60l95 154h97zM205 -15q-82 0 -135.5 45.5t-53.5 120.5q0 73 51.5 118.5t135.5 45.5q112 0 159 -77h2v52q0 121 -131 121q-61 0 -153 -23l-15 66q89 23 172 23q141 0 172 -107h2q25 49 75 78t116 29q104 0 161.5 -68t57.5 -175v-13h-382
q2 -74 46 -120t119 -46q39 0 72.5 15.5t49.5 31.5t36 41l50 -46q-75 -112 -206 -112q-73 0 -127.5 34.5t-77.5 90.5h-2q-21 -60 -73 -92.5t-121 -32.5zM443 276h299q-4 61 -43 97.5t-103 36.5q-60 0 -102 -35t-51 -99zM219 49q61 0 99.5 29t38.5 73q0 46 -40 73.5t-99 27.5
t-92.5 -28.5t-33.5 -73.5q0 -46 33.5 -73.5t93.5 -27.5z" />
    <glyph glyph-name="Oslashacute" unicode="&#x1fe;" horiz-adv-x="804" 
d="M563 863l-134 -120h-58l95 120h97zM632 640q64 -50 99.5 -125t35.5 -165q0 -160 -104 -262.5t-261 -102.5q-111 0 -201 55l-39 -54l-30 18l40 56q-64 49 -99.5 124t-35.5 166q0 160 104 262.5t261 102.5q113 0 202 -56l40 55l29 -18zM121 350q0 -143 99 -224l338 468
q-68 43 -156 43q-123 0 -202 -81t-79 -206zM402 63q123 0 202 80.5t79 206.5q0 142 -98 224l-337 -469q67 -42 154 -42z" />
    <glyph glyph-name="oslashacute" unicode="&#x1ff;" horiz-adv-x="564" 
d="M446 707l-132 -154h-60l95 154h97zM459 410q73 -70 73 -179q0 -107 -70.5 -176.5t-179.5 -69.5q-90 0 -153 48l-41 -47l-25 21l41 47q-72 69 -72 177q0 107 71 176.5t179 69.5q86 0 151 -46l40 46l25 -22zM108 231q0 -75 44 -122l233 267q-44 30 -103 30q-76 0 -125 -48
t-49 -127zM282 56q76 0 125 48t49 127q0 75 -46 124l-233 -267q44 -32 105 -32z" />
    <glyph glyph-name="Scommaaccent" unicode="&#x218;" horiz-adv-x="497" 
d="M340 365q59 -43 88 -87.5t29 -104.5q0 -91 -59 -139.5t-158 -48.5q-122 0 -221 64l37 72q94 -58 184 -58q66 0 100.5 29.5t34.5 75.5q0 35 -21 64.5t-70 65.5l-114 86q-50 38 -76.5 77t-26.5 93q0 74 49.5 117.5t139.5 43.5q86 0 178 -44l-36 -74q-72 40 -143 40
q-52 0 -78.5 -21.5t-26.5 -58.5q0 -32 18.5 -55.5t56.5 -51.5zM202 -129v82h88v-82l-62 -77h-31l39 77h-34z" />
    <glyph glyph-name="scommaaccent" unicode="&#x219;" horiz-adv-x="406" 
d="M283 247q48 -23 73.5 -53t25.5 -77q0 -65 -46 -98.5t-126 -33.5q-106 0 -191 54l35 64q77 -50 159 -50q46 0 69 16.5t23 44.5q0 40 -63 69l-86 41q-100 46 -100 129q0 60 43 92t116 32q77 0 156 -36l-31 -64q-68 32 -127 32q-80 0 -80 -53q0 -22 15.5 -38t50.5 -32z
M158 -129v82h88v-82l-62 -77h-31l39 77h-34z" />
    <glyph glyph-name="uni021A" unicode="&#x21a;" horiz-adv-x="515" 
d="M10 700h495v-73h-209v-627h-77v627h-209v73zM213 -129v82h88v-82l-62 -77h-31l39 77h-34z" />
    <glyph glyph-name="uni021B" unicode="&#x21b;" horiz-adv-x="306" 
d="M282 400h-102v-273q0 -61 58 -61h25v-67h-38q-55 0 -86 29t-31 85v287h-89v62h89v185h72v-185h102v-62zM156 -130v82h88v-82l-62 -77h-31l39 77h-34z" />
    <glyph glyph-name="uni0232" unicode="&#x232;" horiz-adv-x="534" 
d="M407 829v-56h-282v56h282zM530 700l-224 -426v-274h-78v274l-224 426h90l172 -343h2l172 343h90z" />
    <glyph glyph-name="uni0233" unicode="&#x233;" horiz-adv-x="467" 
d="M377 657v-56h-282v56h282zM380 462h80l-302 -662h-77l118 249l-192 413h85l144 -332z" />
    <glyph glyph-name="uni0237" unicode="&#x237;" horiz-adv-x="202" 
d="M-25 -138h23q35 0 51 19.5t16 62.5v518h72v-524q0 -69 -33.5 -105t-96.5 -36h-32v65z" />
    <glyph glyph-name="uni0259" unicode="&#x259;" horiz-adv-x="521" 
d="M254 -15q-109 0 -165.5 67.5t-56.5 175.5v13h384q-1 76 -47 121t-119 45q-40 0 -73.5 -15.5t-50 -32t-34.5 -40.5l-52 47q79 111 209 111q109 0 174.5 -67.5t65.5 -177.5q0 -111 -64.5 -179t-170.5 -68zM258 52q62 0 104.5 35t50.5 99h-303q5 -64 43.5 -99t104.5 -35z
" />
    <glyph glyph-name="uni0292" unicode="&#x292;" horiz-adv-x="468" 
d="M201 -215q-117 0 -214 51l32 67q92 -48 186 -48q75 0 117.5 36.5t42.5 104.5q0 134 -180 134h-91v62l223 202h-288v68h380v-72l-229 -201q51 3 52 3q94 0 151.5 -50.5t57.5 -144.5q0 -99 -61 -155.5t-179 -56.5z" />
    <glyph glyph-name="uni02BC" unicode="&#x2bc;" horiz-adv-x="167" 
d="M46 715h91v-91l-71 -145h-31l54 145h-43v91z" />
    <glyph glyph-name="circumflex" unicode="&#x2c6;" horiz-adv-x="424" 
d="M250 707l124 -154h-75l-87 108l-87 -108h-75l124 154h76z" />
    <glyph glyph-name="caron" unicode="&#x2c7;" horiz-adv-x="433" 
d="M383 700l-128 -154h-77l-128 154h75l91 -108l91 108h76z" />
    <glyph glyph-name="breve" unicode="&#x2d8;" horiz-adv-x="372" 
d="M322 700q0 -65 -37.5 -102.5t-98.5 -37.5t-98.5 37.5t-37.5 102.5h54q2 -41 23.5 -64t58.5 -23t58.5 23t23.5 64h54z" />
    <glyph glyph-name="dotaccent" unicode="&#x2d9;" horiz-adv-x="191" 
d="M141 690v-120h-91v120h91z" />
    <glyph glyph-name="ring" unicode="&#x2da;" horiz-adv-x="338" 
d="M169 747q52 0 85.5 -33t33.5 -84t-33.5 -84t-85.5 -33t-85.5 33t-33.5 84t33.5 84t85.5 33zM169 708q-35 0 -56.5 -21.5t-21.5 -56.5t21.5 -56.5t56.5 -21.5t56.5 21.5t21.5 56.5t-21.5 56.5t-56.5 21.5z" />
    <glyph glyph-name="ogonek" unicode="&#x2db;" horiz-adv-x="253" 
d="M162 25l36 -14q-89 -74 -89 -117q0 -29 40 -29q19 0 44 7l8 -49q-30 -10 -65 -10q-37 0 -61.5 18t-24.5 53q0 68 112 141z" />
    <glyph glyph-name="tilde" unicode="&#x2dc;" horiz-adv-x="438" 
d="M145 698q29 0 83 -28t73 -28q33 0 53 47l34 -11q-24 -96 -94 -96q-29 0 -83 27.5t-73 27.5q-33 0 -53 -46l-35 10q10 41 34 69t61 28z" />
    <glyph glyph-name="hungarumlaut" unicode="&#x2dd;" horiz-adv-x="385" 
d="M224 707l-119 -154h-55l104 154h70zM335 707l-119 -154h-55l104 154h70z" />
    <glyph glyph-name="gravecomb" unicode="&#x300;" horiz-adv-x="0" 
d="M-144 707l94 -154h-59l-133 154h98z" />
    <glyph glyph-name="acutecomb" unicode="&#x301;" horiz-adv-x="0" 
d="M-50 707l-132 -154h-60l95 154h97z" />
    <glyph glyph-name="uni0302" unicode="&#x302;" horiz-adv-x="0" 
d="M-174 707l124 -154h-75l-87 108l-87 -108h-75l124 154h76z" />
    <glyph glyph-name="tildecomb" unicode="&#x303;" horiz-adv-x="0" 
d="M-293 698q29 0 83 -28t73 -28q33 0 53 47l34 -11q-24 -96 -94 -96q-29 0 -83 27.5t-73 27.5q-33 0 -53 -46l-35 10q10 41 34 69t61 28z" />
    <glyph glyph-name="uni0304" unicode="&#x304;" horiz-adv-x="0" 
d="M-50 657v-56h-282v56h282z" />
    <glyph glyph-name="uni0306" unicode="&#x306;" horiz-adv-x="0" 
d="M-50 700q0 -65 -37.5 -102.5t-98.5 -37.5t-98.5 37.5t-37.5 102.5h54q2 -41 23.5 -64t58.5 -23t58.5 23t23.5 64h54z" />
    <glyph glyph-name="uni0307" unicode="&#x307;" horiz-adv-x="0" 
d="M-50 690v-120h-91v120h91z" />
    <glyph glyph-name="uni0308" unicode="&#x308;" horiz-adv-x="0" 
d="M-236 690v-116h-80v116h80zM-50 690v-116h-80v116h80z" />
    <glyph glyph-name="uni030A" unicode="&#x30a;" horiz-adv-x="0" 
d="M-169 747q52 0 85.5 -33t33.5 -84t-33.5 -84t-85.5 -33t-85.5 33t-33.5 84t33.5 84t85.5 33zM-169 708q-35 0 -56.5 -21.5t-21.5 -56.5t21.5 -56.5t56.5 -21.5t56.5 21.5t21.5 56.5t-21.5 56.5t-56.5 21.5z" />
    <glyph glyph-name="uni030B" unicode="&#x30b;" horiz-adv-x="0" 
d="M-161 707l-119 -154h-55l104 154h70zM-50 707l-119 -154h-55l104 154h70z" />
    <glyph glyph-name="uni030C" unicode="&#x30c;" horiz-adv-x="0" 
d="M-50 700l-128 -154h-77l-128 154h75l91 -108l91 108h76z" />
    <glyph glyph-name="uni0312" unicode="&#x312;" horiz-adv-x="0" 
d="M-50 699l-39 -77h34v-82h-88v82l62 77h31z" />
    <glyph glyph-name="uni0326" unicode="&#x326;" horiz-adv-x="0" 
d="M-138 -47h88v-82l-62 -77h-31l39 77h-34v82z" />
    <glyph glyph-name="uni0327" unicode="&#x327;" horiz-adv-x="0" 
d="M-98 19l-22 -60q20 -5 33.5 -11.5t25 -22t11.5 -36.5q0 -23 -20 -42.5t-40 -29.5t-64 -29l-11 24q44 21 64 35.5t20 29.5q0 18 -15 26.5t-51 16.5l37 99h32z" />
    <glyph glyph-name="uni0328" unicode="&#x328;" horiz-adv-x="0" 
d="M-91 25l36 -14q-89 -74 -89 -117q0 -29 40 -29q20 0 44 7l8 -49q-30 -10 -65 -10q-37 0 -61.5 18t-24.5 53q0 68 112 141z" />
    <glyph glyph-name="uni0394" unicode="&#x394;" horiz-adv-x="628" 
d="M349 700l259 -700h-588l259 700h70zM314 608l-203 -574h406z" />
    <glyph glyph-name="uni03A9" unicode="&#x3a9;" horiz-adv-x="772" 
d="M386 715q159 0 254 -93.5t95 -240.5q0 -119 -67 -200.5t-174 -108.5v-3h222v-69h-290v107q109 21 172.5 94t63.5 177q0 120 -74 194t-202 74t-202 -74t-74 -194q0 -104 63.5 -177t172.5 -94v-107h-291v69h223v3q-107 27 -174 108.5t-67 200.5q0 148 95 241t254 93z" />
    <glyph glyph-name="uni03BC" unicode="&#x3bc;" horiz-adv-x="526" 
d="M390 462h72v-462h-72v86h-2q-44 -101 -157 -101q-65 0 -107 33v-218h-65v662h73v-275q0 -67 31.5 -99.5t85.5 -32.5q64 0 102.5 47t38.5 151v209z" />
    <glyph glyph-name="pi" unicode="&#x3c0;" horiz-adv-x="603" 
d="M573 477v-69h-110v-408h-68v408h-158l-97 -408h-69l96 408q-74 0 -137 -20v69q58 20 138 20h405z" />
    <glyph glyph-name="uni048A" unicode="&#x48a;" horiz-adv-x="696" 
d="M346 727q-62 0 -98.5 36.5t-37.5 99.5h53q0 -42 21.5 -65t61.5 -23t61.5 23t21.5 65h53q-1 -63 -37.5 -99.5t-98.5 -36.5zM619 58h55l-84 -188h-71l54 130h-31v573h-2l-384 -573h-82v700h77v-573h2l384 573h82v-642z" />
    <glyph glyph-name="uni048B" unicode="&#x48b;" horiz-adv-x="543" 
d="M270 500q-61 0 -98.5 37.5t-37.5 102.5h54q2 -41 23.5 -64t58.5 -23t58.5 23t23.5 64h54q0 -65 -37.5 -102.5t-98.5 -37.5zM476 58h57l-84 -188h-71l54 130h-29v352h-2l-263 -352h-74v462h73v-352h2l264 352h73v-404z" />
    <glyph glyph-name="uni04F6" unicode="&#x4f6;" horiz-adv-x="477" 
d="M467 627h-316v-576h42v-191h-72v140h-47v700h393v-73z" />
    <glyph glyph-name="uni04F7" unicode="&#x4f7;" horiz-adv-x="365" 
d="M360 394h-224v-351h37v-173h-65v130h-44v462h296v-68z" />
    <glyph glyph-name="uni0E3F" unicode="&#xe3f;" horiz-adv-x="500" 
d="M347 336q53 -15 83 -55.5t30 -99.5q0 -86 -56 -133.5t-143 -47.5h-13v-87h-28v87h-180v675h180v87h28v-87h13q87 0 143 -47.5t56 -133.5q0 -59 -30 -99.5t-83 -55.5v-3zM220 607h-108v-237h108v237zM266 607h-18v-237q66 1 101.5 33.5t35.5 89.5q0 51 -34 82.5t-85 31.5z
M112 68h108v237h-108v-237zM266 68q51 0 85.5 31.5t34.5 82.5q0 57 -36 89.5t-102 33.5v-237h18z" />
    <glyph glyph-name="Wgrave" unicode="&#x1e80;" horiz-adv-x="973" 
d="M423 863l95 -120h-58l-134 120h97zM958 700l-212 -700h-77l-181 571h-3l-181 -571h-77l-212 700h86l163 -576h2l180 576h80l181 -576h2l162 576h87z" />
    <glyph glyph-name="wgrave" unicode="&#x1e81;" horiz-adv-x="719" 
d="M388 553h-59l-133 154h98zM632 462h80l-156 -462h-69l-128 368l-128 -368h-68l-156 462h79l112 -370l125 370h73l125 -370z" />
    <glyph glyph-name="Wacute" unicode="&#x1e82;" horiz-adv-x="973" 
d="M648 863l-134 -120h-58l95 120h97zM958 700l-212 -700h-77l-181 571h-3l-181 -571h-77l-212 700h86l163 -576h2l180 576h80l181 -576h2l162 576h87z" />
    <glyph glyph-name="wacute" unicode="&#x1e83;" horiz-adv-x="719" 
d="M521 707l-132 -154h-60l95 154h97zM632 462h80l-156 -462h-69l-128 368l-128 -368h-68l-156 462h79l112 -370l125 370h73l125 -370z" />
    <glyph glyph-name="Wdieresis" unicode="&#x1e84;" horiz-adv-x="973" 
d="M429 843v-100h-83v100h83zM628 843v-100h-83v100h83zM958 700l-212 -700h-77l-181 571h-3l-181 -571h-77l-212 700h86l163 -576h2l180 576h80l181 -576h2l162 576h87z" />
    <glyph glyph-name="wdieresis" unicode="&#x1e85;" horiz-adv-x="719" 
d="M306 690v-116h-80v116h80zM492 690v-116h-80v116h80zM632 462h80l-156 -462h-69l-128 368l-128 -368h-68l-156 462h79l112 -370l125 370h73l125 -370z" />
    <glyph glyph-name="Ygrave" unicode="&#x1ef2;" horiz-adv-x="534" 
d="M298 743h-58l-134 120h97zM530 700l-224 -426v-274h-78v274l-224 426h90l172 -343h2l172 343h90z" />
    <glyph glyph-name="ygrave" unicode="&#x1ef3;" horiz-adv-x="467" 
d="M265 553h-59l-133 154h98zM380 462h80l-302 -662h-77l118 249l-192 413h85l144 -332z" />
    <glyph glyph-name="endash" unicode="&#x2013;" horiz-adv-x="752" 
d="M702 304v-66h-652v66h652z" />
    <glyph glyph-name="emdash" unicode="&#x2014;" horiz-adv-x="1154" 
d="M1104 304v-66h-1054v66h1054z" />
    <glyph glyph-name="quoteleft" unicode="&#x2018;" horiz-adv-x="167" 
d="M132 739l-54 -145h43v-91h-91v91l71 145h31z" />
    <glyph glyph-name="quoteright" unicode="&#x2019;" horiz-adv-x="167" 
d="M46 715h91v-91l-71 -145h-31l54 145h-43v91z" />
    <glyph glyph-name="quotesinglbase" unicode="&#x201a;" horiz-adv-x="167" 
d="M46 91h91v-91l-71 -145h-31l54 145h-43v91z" />
    <glyph glyph-name="quotedblleft" unicode="&#x201c;" horiz-adv-x="296" 
d="M101 739h31l-54 -145h43v-91h-91v91zM261 739l-54 -145h43v-91h-91v91l71 145h31z" />
    <glyph glyph-name="quotedblright" unicode="&#x201d;" horiz-adv-x="296" 
d="M46 624v91h91v-91l-71 -145h-31l54 145h-43zM175 715h91v-91l-71 -145h-31l54 145h-43v91z" />
    <glyph glyph-name="quotedblbase" unicode="&#x201e;" horiz-adv-x="296" 
d="M46 0v91h91v-91l-71 -145h-31l54 145h-43zM175 91h91v-91l-71 -145h-31l54 145h-43v91z" />
    <glyph glyph-name="dagger" unicode="&#x2020;" horiz-adv-x="498" 
d="M448 475v-60h-166v-508h-66v508h-166v60h166v225h66v-225h166z" />
    <glyph glyph-name="daggerdbl" unicode="&#x2021;" horiz-adv-x="496" 
d="M446 419h-165v-220h165v-61h-165v-231h-66v231h-165v61h165v220h-165v61h165v220h66v-220h165v-61z" />
    <glyph glyph-name="bullet" unicode="&#x2022;" horiz-adv-x="326" 
d="M163 473q41 0 69.5 -28.5t28.5 -69.5q0 -42 -28.5 -70t-69.5 -28t-69.5 28t-28.5 70q0 41 28.5 69.5t69.5 28.5z" />
    <glyph glyph-name="ellipsis" unicode="&#x2026;" horiz-adv-x="685" 
d="M158 103v-103h-103v103h103zM394 103v-103h-103v103h103zM630 103v-103h-103v103h103z" />
    <glyph glyph-name="perthousand" unicode="&#x2030;" horiz-adv-x="1109" 
d="M208 690q70 0 114 -44.5t44 -113.5t-44 -113.5t-114 -44.5t-114 44.5t-44 113.5t44 113.5t114 44.5zM147 0l395 675h48l-395 -675h-48zM208 643q-49 0 -78.5 -30.5t-29.5 -80.5t29.5 -80.5t78.5 -30.5t78.5 30.5t29.5 80.5t-29.5 80.5t-78.5 30.5zM543 311
q70 0 114 -44.5t44 -113.5t-44 -113.5t-114 -44.5t-114 44.5t-44 113.5t44 113.5t114 44.5zM901 311q70 0 114 -44.5t44 -113.5t-44 -113.5t-114 -44.5t-114 44.5t-44 113.5t44 113.5t114 44.5zM543 264q-49 0 -78.5 -30.5t-29.5 -80.5t29.5 -80.5t78.5 -30.5t78.5 30.5
t29.5 80.5t-29.5 80.5t-78.5 30.5zM901 264q-50 0 -79 -30.5t-29 -80.5t29 -80.5t79 -30.5q49 0 78.5 30.5t29.5 80.5t-29.5 80.5t-78.5 30.5z" />
    <glyph glyph-name="guilsinglleft" unicode="&#x2039;" horiz-adv-x="257" 
d="M247 389l-145 -155l145 -155h-84l-143 155l143 155h84z" />
    <glyph glyph-name="guilsinglright" unicode="&#x203a;" horiz-adv-x="257" 
d="M10 389h84l143 -155l-143 -155h-84l145 155z" />
    <glyph glyph-name="fraction" unicode="&#x2044;" horiz-adv-x="103" 
d="M-170 0l395 675h48l-395 -675h-48z" />
    <glyph glyph-name="lira" unicode="&#x20a4;" horiz-adv-x="593" 
d="M484 327h69q0 -150 -87.5 -238.5t-228.5 -88.5h-68v303l-129 -56v31l129 56v56l-129 -56v31l129 56v254h72v-222l195 85v-31l-195 -85v-56l195 85v-31l-195 -85v-261q112 0 177.5 68t65.5 185z" />
    <glyph glyph-name="uni20A9" unicode="&#x20a9;" horiz-adv-x="948" 
d="M928 392h-98l-19 -68h117v-30h-125l-80 -294h-86l-83 294h-160l-83 -294h-86l-80 294h-125v30h117l-19 68h-98v30h90l-69 253h81l63 -253h173l71 253h89l71 -253h173l63 253h82l-69 -253h90v-30zM473 577l-44 -155h90l-44 155h-2zM193 392l17 -68h121l19 68h-157z
M402 324h144l-19 68h-106zM738 324l17 68h-158l20 -68h121zM268 98l55 196h-106l49 -196h2zM682 98l49 196h-106l55 -196h2z" />
    <glyph glyph-name="Euro" unicode="&#x20ac;" horiz-adv-x="658" 
d="M431 622q-93 0 -154 -59t-76 -161h323l-15 -30h-312q-1 -11 -1 -35q0 -16 1 -24h285l-15 -30h-268q11 -108 70.5 -168.5t158.5 -60.5q84 0 163 44v-78q-73 -34 -162 -34q-140 0 -216 81.5t-89 215.5h-119l15 30h102q-1 8 -1 25q0 23 1 34h-112l15 30h100q16 128 94.5 208
t212.5 80q107 0 196 -56l-32 -61q-82 49 -165 49z" />
    <glyph glyph-name="uni20AE" unicode="&#x20ae;" horiz-adv-x="531" 
d="M511 607h-209v-164l140 72v-31l-140 -72v-56l140 72v-31l-140 -72v-325h-72v289l-140 -72v31l140 72v56l-140 -72v31l140 72v200h-210v68h491v-68z" />
    <glyph glyph-name="uni20B4" unicode="&#x20b4;" horiz-adv-x="505" 
d="M355 395q-7 -6 -21 -16l-71 -52h222v-30h-262l-7 -5q-86 -63 -86 -132q0 -46 33.5 -76t101.5 -30q74 0 194 60v-73q-99 -56 -203 -56q-95 0 -148 44.5t-53 128.5q0 75 61 139h-96v30h129q1 1 10.5 8t14.5 11l67 49h-221v30h262l4 3q73 56 73 112q0 36 -28 59t-82 23
q-58 0 -162 -43v72q94 39 170 39q86 0 131.5 -39.5t45.5 -107.5q0 -67 -46 -118h97v-30h-130z" />
    <glyph glyph-name="uni20B8" unicode="&#x20b8;" horiz-adv-x="531" 
d="M20 675h491v-68h-491v68zM20 479v68h491v-68h-209v-479h-72v479h-210z" />
    <glyph glyph-name="uni20B9" unicode="&#x20b9;" horiz-adv-x="514" 
d="M290 645q87 -49 94 -149h90l-22 -30h-67q-5 -82 -66 -131.5t-150 -49.5h-39l252 -285h-93l-249 285v69h127q64 0 101 31t41 81h-269v30h269q-5 49 -42.5 79.5t-99.5 30.5h-127v69h434l-22 -30h-162z" />
    <glyph glyph-name="uni20BD" unicode="&#x20bd;" horiz-adv-x="592" 
d="M342 289h-128v-79h225v-30h-225v-180h-72v180h-102v30h102v79h-102v68h102v318h200q99 0 154.5 -54t55.5 -141q0 -86 -55 -138.5t-155 -52.5zM214 607v-250h128q63 0 99 31.5t36 92.5t-36.5 93.5t-98.5 32.5h-128z" />
    <glyph glyph-name="uni2113" unicode="&#x2113;" horiz-adv-x="452" 
d="M175 296q2 -129 27 -186.5t83 -57.5q42 0 118 41v-69q-2 -1 -12.5 -6t-12.5 -6t-11 -5t-11.5 -5t-10.5 -4t-12 -3.5t-11.5 -2.5t-13.5 -2.5t-13.5 -1t-15.5 -0.5q-84 0 -123 64.5t-43 217.5l-73 -24v63q38 12 72 26q1 103 15 175t39.5 110t55 54t68.5 16q57 0 89.5 -36
t32.5 -96q0 -159 -237 -262zM287 629q-104 0 -111 -266q171 85 171 196q0 70 -60 70z" />
    <glyph glyph-name="uni2116" unicode="&#x2116;" horiz-adv-x="1130" 
d="M619 700v-700h-82l-384 569h-2v-569h-77v700h82l384 -569h2v569h77zM882 552q92 0 150 -58t58 -150t-58 -149.5t-150 -57.5t-149.5 57.5t-57.5 149.5t57.5 150t149.5 58zM883 488q-62 0 -102 -40.5t-40 -103.5t40 -104t102 -41t102 41t40 104t-40 103.5t-102 40.5z
M1072 62v-62h-379v62h379z" />
    <glyph glyph-name="trademark" unicode="&#x2122;" horiz-adv-x="836" 
d="M328 649h-123v-370h-52v370h-123v51h298v-51zM714 700l92 -421h-56l-70 315l-100 -251h-44l-101 251l-70 -315h-55l92 421h49l107 -276l107 276h49z" />
    <glyph glyph-name="uni2126" unicode="&#x2126;" horiz-adv-x="772" 
d="M386 715q159 0 254 -93.5t95 -240.5q0 -119 -67 -200.5t-174 -108.5v-3h222v-69h-290v107q109 21 172.5 94t63.5 177q0 120 -74 194t-202 74t-202 -74t-74 -194q0 -104 63.5 -177t172.5 -94v-107h-291v69h223v3q-107 27 -174 108.5t-67 200.5q0 148 95 241t254 93z" />
    <glyph glyph-name="estimated" unicode="&#x212e;" horiz-adv-x="777" 
d="M37 304q0 131 102.5 223.5t248.5 92.5t249 -92.5t103 -223.5v-9h-574v-140q0 -71 52 -104q68 -45 172 -45q73 0 138.5 27.5t109.5 77.5h29q-50 -58 -123.5 -90.5t-155.5 -32.5q-146 0 -248.5 92.5t-102.5 223.5zM567 552q-65 50 -177 50q-106 0 -172 -46q-52 -35 -52 -85
v-158h445v152q0 53 -44 87z" />
    <glyph glyph-name="uni2153" unicode="&#x2153;" horiz-adv-x="667" 
d="M130 675v-386h-47v339h-43v47h90zM46 0l395 675h48l-395 -675h-48zM492 395q59 0 90.5 -26.5t31.5 -72.5q0 -70 -75 -88v-1q88 -12 88 -100q0 -52 -34 -84t-105 -32q-61 0 -97 29.5t-39 83.5h49q7 -66 87 -66q90 0 90 72q0 40 -29.5 55.5t-85.5 15.5v45q102 2 102 64
q0 58 -74 58q-80 0 -83 -66h-48q6 113 132 113z" />
    <glyph glyph-name="uni2154" unicode="&#x2154;" horiz-adv-x="819" 
d="M170 684q60 0 91 -30.5t31 -79.5q0 -60 -66 -124l-116 -115h183v-46h-252v42l146 146q55 55 55 97q0 27 -19 45t-53 18q-72 0 -79 -71h-48q2 57 36 87.5t91 30.5zM198 0l395 675h48l-395 -675h-48zM644 395q59 0 90.5 -26.5t31.5 -72.5q0 -70 -75 -88v-1q88 -12 88 -100
q0 -52 -34 -84t-105 -32q-61 0 -97 29.5t-39 83.5h49q7 -66 87 -66q90 0 90 72q0 40 -29.5 55.5t-85.5 15.5v45q102 2 102 64q0 58 -74 58q-80 0 -83 -66h-48q6 113 132 113z" />
    <glyph glyph-name="oneeighth" unicode="&#x215b;" horiz-adv-x="669" 
d="M130 675v-386h-47v339h-43v47h90zM46 0l395 675h48l-395 -675h-48zM491 -9q-64 0 -99.5 32t-35.5 81q0 80 75 100v2q-63 19 -63 88q0 45 32.5 73t90.5 28t91 -28t33 -73q0 -69 -64 -88v-2q75 -20 75 -100q0 -50 -35 -81.5t-100 -31.5zM491 227q34 0 54 17t20 45
q0 27 -20.5 43t-53.5 16t-53.5 -16t-20.5 -43q0 -28 20 -45t54 -17zM491 38q42 0 64.5 18.5t22.5 53.5q0 34 -23 53t-64 19q-40 0 -63 -19t-23 -53q0 -35 22.5 -53.5t63.5 -18.5z" />
    <glyph glyph-name="threeeighths" unicode="&#x215c;" horiz-adv-x="807" 
d="M173 684q59 0 90.5 -26.5t31.5 -72.5q0 -70 -75 -88v-1q88 -12 88 -100q0 -52 -34 -84t-105 -32q-61 0 -97 29.5t-39 83.5h49q7 -66 87 -66q90 0 90 72q0 40 -29.5 55.5t-85.5 15.5v45q102 2 102 64q0 58 -74 58q-80 0 -83 -66h-48q6 113 132 113zM184 0l395 675h48
l-395 -675h-48zM629 -9q-64 0 -99.5 32t-35.5 81q0 80 75 100v2q-63 19 -63 88q0 45 32.5 73t90.5 28t91 -28t33 -73q0 -69 -64 -88v-2q75 -20 75 -100q0 -50 -35 -81.5t-100 -31.5zM629 227q34 0 54 17t20 45q0 27 -20.5 43t-53.5 16t-53.5 -16t-20.5 -43q0 -28 20 -45
t54 -17zM629 38q42 0 64.5 18.5t22.5 53.5q0 34 -23 53t-64 19q-40 0 -63 -19t-23 -53q0 -35 22.5 -53.5t63.5 -18.5z" />
    <glyph glyph-name="fiveeighths" unicode="&#x215d;" horiz-adv-x="794" 
d="M180 543q49 0 85.5 -33.5t36.5 -96.5t-37.5 -98t-99.5 -35q-97 0 -135 78l39 27q32 -58 97 -58q41 0 64 23t23 63t-23.5 62.5t-58.5 22.5q-53 0 -80 -37h-43l26 214h199v-46h-163l-15 -119h3q28 33 82 33zM171 0l395 675h48l-395 -675h-48zM616 -9q-64 0 -99.5 32
t-35.5 81q0 80 75 100v2q-63 19 -63 88q0 45 32.5 73t90.5 28t91 -28t33 -73q0 -69 -64 -88v-2q75 -20 75 -100q0 -50 -35 -81.5t-100 -31.5zM616 227q34 0 54 17t20 45q0 27 -20.5 43t-53.5 16t-53.5 -16t-20.5 -43q0 -28 20 -45t54 -17zM616 38q42 0 64.5 18.5t22.5 53.5
q0 34 -23 53t-64 19q-40 0 -63 -19t-23 -53q0 -35 22.5 -53.5t63.5 -18.5z" />
    <glyph glyph-name="seveneighths" unicode="&#x215e;" horiz-adv-x="714" 
d="M267 675v-45l-172 -341h-51l172 339h-196v47h247zM91 0l395 675h48l-395 -675h-48zM536 -9q-64 0 -99.5 32t-35.5 81q0 80 75 100v2q-63 19 -63 88q0 45 32.5 73t90.5 28t91 -28t33 -73q0 -69 -64 -88v-2q75 -20 75 -100q0 -50 -35 -81.5t-100 -31.5zM536 227q34 0 54 17
t20 45q0 27 -20.5 43t-53.5 16t-53.5 -16t-20.5 -43q0 -28 20 -45t54 -17zM536 38q42 0 64.5 18.5t22.5 53.5q0 34 -23 53t-64 19q-40 0 -63 -19t-23 -53q0 -35 22.5 -53.5t63.5 -18.5z" />
    <glyph glyph-name="arrowleft" unicode="&#x2190;" horiz-adv-x="820" 
d="M770 324v-68h-596l228 -229l-52 -52l-300 315l300 315l52 -52l-228 -229h596z" />
    <glyph glyph-name="arrowup" unicode="&#x2191;" horiz-adv-x="730" 
d="M680 341l-52 -52l-229 228v-596h-68v596l-229 -228l-52 52l315 300z" />
    <glyph glyph-name="arrowright" unicode="&#x2192;" horiz-adv-x="820" 
d="M470 606l300 -315l-300 -315l-52 52l228 229h-596v68h596l-228 229z" />
    <glyph glyph-name="arrowdown" unicode="&#x2193;" horiz-adv-x="730" 
d="M628 292l52 -52l-315 -300l-315 300l52 52l229 -228v596h68v-596z" />
    <glyph glyph-name="arrowboth" unicode="&#x2194;" horiz-adv-x="1259" 
d="M909 605l300 -315l-300 -315l-52 52l228 229h-911l228 -229l-52 -52l-300 315l300 315l52 -52l-228 -229h911l-228 229z" />
    <glyph glyph-name="arrowupdn" unicode="&#x2195;" horiz-adv-x="730" 
d="M399 -109l229 228l52 -52l-315 -300l-315 300l52 52l229 -228v809l-229 -228l-52 52l315 300l315 -300l-52 -52l-229 228v-809z" />
    <glyph glyph-name="uni2196" unicode="&#x2196;" horiz-adv-x="643" 
d="M593 54l-48 -48l-421 421l-1 -323l-73 -1l10 435l435 11v-73l-323 -1z" />
    <glyph glyph-name="uni2197" unicode="&#x2197;" horiz-adv-x="644" 
d="M594 103h-74v324l-422 -422l-48 48l422 421l-324 1v73l435 -10z" />
    <glyph glyph-name="uni2198" unicode="&#x2198;" horiz-adv-x="643" 
d="M520 476l73 1l-10 -435l-435 -11v73l323 1l-421 421l48 48l421 -421z" />
    <glyph glyph-name="uni2199" unicode="&#x2199;" horiz-adv-x="644" 
d="M172 106l323 -1l1 -73l-435 10l-11 435h74v-323l421 421l49 -48z" />
    <glyph glyph-name="partialdiff" unicode="&#x2202;" horiz-adv-x="567" 
d="M233 715q133 0 213.5 -94t80.5 -276q0 -100 -25 -178.5t-84.5 -130t-148.5 -51.5q-105 0 -167 64t-62 166q0 109 65.5 172.5t167.5 63.5q117 0 185 -86q-5 132 -64.5 206t-161.5 74q-75 0 -141 -38l-30 65q82 43 172 43zM273 53q36 0 65.5 13.5t49 35t33.5 52t21.5 61
t11.5 64.5q-24 42 -70.5 72.5t-107.5 30.5q-73 0 -118 -46.5t-45 -121.5q0 -72 44.5 -116.5t115.5 -44.5z" />
    <glyph glyph-name="emptyset" unicode="&#x2205;" 
d="M480 481q60 -65 60 -157q0 -99 -69 -165.5t-171 -66.5q-93 0 -160 56l-58 -57l-19 20l57 56q-60 65 -60 157q0 99 69 165.5t171 66.5q92 0 159 -56l58 57l20 -20zM132 324q0 -62 38 -108l240 236q-45 36 -110 36q-74 0 -121 -46.5t-47 -117.5zM300 160q74 0 121 46.5
t47 117.5q0 64 -38 108l-240 -235q47 -37 110 -37z" />
    <glyph glyph-name="uni2206" unicode="&#x2206;" horiz-adv-x="628" 
d="M349 700l259 -700h-588l259 700h70zM314 608l-203 -574h406z" />
    <glyph glyph-name="product" unicode="&#x220f;" horiz-adv-x="710" 
d="M690 700v-67h-132v-711h-69v711h-267v-711h-69v711h-133v67h670z" />
    <glyph glyph-name="summation" unicode="&#x2211;" horiz-adv-x="551" 
d="M511 700v-68h-384l283 -337l-283 -337h384v-68h-471v70l281 335l-281 335v70h471z" />
    <glyph glyph-name="minus" unicode="&#x2212;" 
d="M539 318v-40h-478v40h478z" />
    <glyph glyph-name="radical" unicode="&#x221a;" horiz-adv-x="589" 
d="M500 715h69l-234 -715h-67l-159 397h-89v65h134l144 -368z" />
    <glyph glyph-name="infinity" unicode="&#x221e;" horiz-adv-x="760" 
d="M580 450q72 0 116 -41.5t44 -111.5t-44 -111.5t-116 -41.5q-59 0 -104 32t-96 92q-34 -39 -57.5 -61.5t-62 -42.5t-80.5 -20q-72 0 -116 41.5t-44 111.5t44 111.5t116 41.5q42 0 80.5 -20t62 -42.5t57.5 -61.5q51 60 96 92t104 32zM180 413q-54 0 -87.5 -32t-33.5 -84
t33.5 -84t87.5 -32q50 0 89 29.5t87 86.5q-48 57 -87 86.5t-89 29.5zM580 413q-49 0 -88 -29.5t-87 -86.5q31 -37 52.5 -58.5t55 -39.5t67.5 -18q54 0 87.5 32t33.5 84t-33.5 84t-87.5 32z" />
    <glyph glyph-name="integral" unicode="&#x222b;" horiz-adv-x="380" 
d="M340 715v-66q-116 0 -116 -127v-552q0 -90 -47.5 -137.5t-136.5 -47.5v66q56 1 85 30.5t29 96.5v552q0 90 47.5 137.5t138.5 47.5z" />
    <glyph glyph-name="approxequal" unicode="&#x2248;" 
d="M170 446q39 0 134 -37t125 -37q54 0 76 65h39q-14 -54 -44 -80.5t-70 -26.5t-134.5 37t-124.5 37q-54 0 -76 -66h-39q13 55 44 81.5t70 26.5zM170 292q39 0 134 -37t125 -37q54 0 76 66h39q-14 -54 -44 -80.5t-70 -26.5t-134.5 36.5t-124.5 36.5q-54 0 -76 -66h-39
q13 55 44 81.5t70 26.5z" />
    <glyph glyph-name="notequal" unicode="&#x2260;" 
d="M553 369h-191l-83 -140h274v-39h-297l-61 -103h-39l61 103h-170v39h193l82 140h-275v39h298l60 102h40l-60 -102h168v-39z" />
    <glyph glyph-name="lessequal" unicode="&#x2264;" 
d="M518 489v-42l-382 -104l382 -103v-42l-442 125v41zM525 157v-39h-450v39h450z" />
    <glyph glyph-name="greaterequal" unicode="&#x2265;" 
d="M82 489l442 -125v-41l-442 -125v42l382 103l-382 104v42zM75 157h450v-39h-450v39z" />
    <glyph glyph-name="uni2460" unicode="&#x2460;" horiz-adv-x="830" 
d="M415 -15q-161 0 -263 103t-102 262t102 262t263 103t263 -103t102 -262t-102 -262t-263 -103zM415 28q138 0 228 91.5t90 230.5t-90 230.5t-228 91.5t-228 -91.5t-90 -230.5t90 -230.5t228 -91.5zM404 162v340h-44v46h90v-386h-46z" />
    <glyph glyph-name="uni2461" unicode="&#x2461;" horiz-adv-x="830" 
d="M415 -15q-161 0 -263 103t-102 262t102 262t263 103t263 -103t102 -262t-102 -262t-263 -103zM415 28q138 0 228 91.5t90 230.5t-90 230.5t-228 91.5t-228 -91.5t-90 -230.5t90 -230.5t228 -91.5zM296 176l-1 42l146 146q55 53 55 97q0 27 -18.5 45t-52.5 18
q-73 0 -80 -64h-48q3 54 36.5 82.5t91.5 28.5q59 0 90 -30.5t31 -79.5q0 -58 -66 -124l-117 -115h184v-46h-251z" />
    <glyph glyph-name="uni2462" unicode="&#x2462;" horiz-adv-x="830" 
d="M415 -15q-161 0 -263 103t-102 262t102 262t263 103t263 -103t102 -262t-102 -262t-263 -103zM415 28q138 0 228 91.5t90 230.5t-90 230.5t-228 91.5t-228 -91.5t-90 -230.5t90 -230.5t228 -91.5zM416 158q-59 0 -96 29.5t-40 83.5h49q3 -33 26.5 -49.5t60.5 -16.5
q91 0 91 72q0 40 -30 56t-86 16v44q98 3 98 64q0 59 -72 59t-78 -60h-48q3 51 36 78.5t91 27.5q56 0 88 -26.5t32 -71.5q0 -33 -19 -57t-52 -31v-1q88 -12 88 -101q0 -52 -34 -84t-105 -32z" />
    <glyph glyph-name="uni2463" unicode="&#x2463;" horiz-adv-x="830" 
d="M415 715q161 0 263 -103t102 -262t-102 -262t-263 -103t-263 103t-102 262t102 262t263 103zM415 28q138 0 228 91.5t90 230.5t-90 230.5t-228 91.5t-228 -91.5t-90 -230.5t90 -230.5t228 -91.5zM501 552v-267h48v-44h-48v-75h-48v75h-206v43l192 268h62zM300 285h153
v211h-2z" />
    <glyph glyph-name="uni2464" unicode="&#x2464;" horiz-adv-x="830" 
d="M415 -15q-161 0 -263 103t-102 262t102 262t263 103t263 -103t102 -262t-102 -262t-263 -103zM415 28q138 0 228 91.5t90 230.5t-90 230.5t-228 91.5t-228 -91.5t-90 -230.5t90 -230.5t228 -91.5zM418 152q-97 0 -135 78l39 27q32 -58 97 -58q41 0 64 23t23 63
t-23.5 62.5t-58.5 22.5q-51 0 -80 -37h-43l26 214h203v-46h-167l-15 -119h3q27 33 82 33q49 0 85.5 -33.5t36.5 -96.5t-37.5 -98t-99.5 -35z" />
    <glyph glyph-name="uni2465" unicode="&#x2465;" horiz-adv-x="830" 
d="M415 -15q-161 0 -263 103t-102 262t102 262t263 103t263 -103t102 -262t-102 -262t-263 -103zM415 28q138 0 228 91.5t90 230.5t-90 230.5t-228 91.5t-228 -91.5t-90 -230.5t90 -230.5t228 -91.5zM414 155q-60 0 -100 36t-40 102q0 50 17 85.5t51 74.5l85 105h60
l-144 -169l1 -2q34 33 81 33q54 0 90.5 -35.5t36.5 -94.5t-38 -97t-100 -38zM414 201q40 0 64.5 23.5t24.5 64.5q0 40 -25.5 63.5t-63.5 23.5q-40 0 -65.5 -23.5t-25.5 -63.5q0 -41 25.5 -64.5t65.5 -23.5z" />
    <glyph glyph-name="uni2466" unicode="&#x2466;" horiz-adv-x="830" 
d="M415 -15q-161 0 -263 103t-102 262t102 262t263 103t263 -103t102 -262t-102 -262t-263 -103zM415 28q138 0 228 91.5t90 230.5t-90 230.5t-228 91.5t-228 -91.5t-90 -230.5t90 -230.5t228 -91.5zM332 153l171 339h-195v47h247v-45l-172 -341h-51z" />
    <glyph glyph-name="uni2467" unicode="&#x2467;" horiz-adv-x="830" 
d="M415 -15q-161 0 -263 103t-102 262t102 262t263 103t263 -103t102 -262t-102 -262t-263 -103zM415 28q138 0 228 91.5t90 230.5t-90 230.5t-228 91.5t-228 -91.5t-90 -230.5t90 -230.5t228 -91.5zM416 154q-65 0 -100.5 32t-35.5 82q0 78 75 99v2q-63 20 -63 88
q0 45 33 73t91 28q57 0 90 -28t33 -73q0 -68 -63 -88v-2q75 -21 75 -99q0 -50 -35.5 -82t-99.5 -32zM416 390q33 0 53.5 17t20.5 45q0 27 -20.5 43t-53.5 16q-34 0 -54.5 -16t-20.5 -43q0 -28 20.5 -45t54.5 -17zM416 201q41 0 63.5 18.5t22.5 53.5q0 34 -23 53t-63 19
q-41 0 -64 -19t-23 -53q0 -35 22.5 -53.5t64.5 -18.5z" />
    <glyph glyph-name="uni2468" unicode="&#x2468;" horiz-adv-x="830" 
d="M415 -15q-161 0 -263 103t-102 262t102 262t263 103t263 -103t102 -262t-102 -262t-263 -103zM415 28q138 0 228 91.5t90 230.5t-90 230.5t-228 91.5t-228 -91.5t-90 -230.5t90 -230.5t228 -91.5zM351 155l144 167l-1 2q-47 -36 -85 -36q-53 0 -88 35.5t-35 90.5
q0 58 37 96.5t100 38.5t101 -36.5t38 -100.5q0 -78 -57 -148l-92 -109h-62zM425 331q41 0 64.5 23.5t23.5 63.5q0 39 -23.5 61.5t-63.5 22.5t-65.5 -23.5t-25.5 -63.5q0 -39 24.5 -61.5t65.5 -22.5z" />
    <glyph glyph-name="uni24EA" unicode="&#x24ea;" horiz-adv-x="830" 
d="M415 -15q-161 0 -263 103t-102 262t102 262t263 103t263 -103t102 -262t-102 -262t-263 -103zM415 28q138 0 228 91.5t90 230.5t-90 230.5t-228 91.5t-228 -91.5t-90 -230.5t90 -230.5t228 -91.5zM416 150q-74 0 -118 53.5t-44 149.5q0 95 44 148t118 53
q73 0 116.5 -53.5t43.5 -147.5q0 -95 -44 -149t-116 -54zM415 197q52 0 82 42.5t30 113.5q0 70 -30 112.5t-82 42.5t-82 -42.5t-30 -112.5q0 -71 30 -113.5t82 -42.5z" />
    <glyph glyph-name="uni24FF" unicode="&#x24ff;" horiz-adv-x="830" 
d="M415 -15q-157 0 -261 104.5t-104 260.5t104 260.5t261 104.5t261 -104.5t104 -260.5t-104 -260.5t-261 -104.5zM416 150q72 0 116 54t44 149q0 94 -43.5 147.5t-116.5 53.5q-74 0 -118 -53t-44 -148q0 -96 44 -149.5t118 -53.5zM415 197q-52 0 -82 42.5t-30 113.5
q0 70 30 112.5t82 42.5t82 -42.5t30 -112.5q0 -71 -30 -113.5t-82 -42.5z" />
    <glyph glyph-name="lozenge" unicode="&#x25ca;" horiz-adv-x="584" 
d="M330 715l234 -365l-234 -365h-76l-234 365l234 365h76zM292 651l-193 -301l193 -301l193 301z" />
    <glyph glyph-name="uni2776" unicode="&#x2776;" horiz-adv-x="830" 
d="M415 -15q-157 0 -261 104.5t-104 260.5t104 260.5t261 104.5t261 -104.5t104 -260.5t-104 -260.5t-261 -104.5zM404 163h46v386h-90v-47h44v-339z" />
    <glyph glyph-name="uni2777" unicode="&#x2777;" horiz-adv-x="830" 
d="M415 -15q-157 0 -261 104.5t-104 260.5t104 260.5t261 104.5t261 -104.5t104 -260.5t-104 -260.5t-261 -104.5zM288 172h252v46h-184l117 115q65 65 65 124q0 49 -31 79.5t-90 30.5q-58 0 -91.5 -28.5t-36.5 -82.5h49q6 64 79 64q34 0 52.5 -18t18.5 -45q0 -44 -55 -97
l-146 -146z" />
    <glyph glyph-name="uni2778" unicode="&#x2778;" horiz-adv-x="830" 
d="M415 -15q-157 0 -261 104.5t-104 260.5t104 260.5t261 104.5t261 -104.5t104 -260.5t-104 -260.5t-261 -104.5zM413 161q71 0 105 31.5t34 83.5q0 89 -88 101v1q34 8 53 32t19 56q0 45 -32 72t-89 27q-58 0 -91 -28t-36 -78h48q6 59 78 59t72 -59q0 -61 -97 -64v-44
q56 0 85.5 -15.5t29.5 -55.5q0 -73 -91 -73q-37 0 -60.5 17t-25.5 49h-50q3 -54 40 -83t96 -29z" />
    <glyph glyph-name="uni2779" unicode="&#x2779;" horiz-adv-x="830" 
d="M415 -15q-157 0 -261 104.5t-104 260.5t104 260.5t261 104.5t261 -104.5t104 -260.5t-104 -260.5t-261 -104.5zM449 170h48v75h48v44h-48v267h-62l-192 -268v-43h206v-75zM296 289l151 211h2v-211h-153z" />
    <glyph glyph-name="uni277A" unicode="&#x277a;" horiz-adv-x="830" 
d="M415 -15q-157 0 -261 104.5t-104 260.5t104 260.5t261 104.5t261 -104.5t104 -260.5t-104 -260.5t-261 -104.5zM410 152q62 0 99.5 35t37.5 98t-36.5 96.5t-85.5 33.5q-55 0 -82 -33h-3l15 119h172v46h-208l-26 -214h43q29 37 80 37q35 0 58.5 -22.5t23.5 -62.5t-23 -63
t-64 -23q-65 0 -97 58l-39 -27q38 -78 135 -78z" />
    <glyph glyph-name="uni277B" unicode="&#x277b;" horiz-adv-x="830" 
d="M415 -15q-157 0 -261 104.5t-104 260.5t104 260.5t261 104.5t261 -104.5t104 -260.5t-104 -260.5t-261 -104.5zM413 157q62 0 100 38t38 98q0 58 -36.5 93.5t-90.5 35.5q-46 0 -81 -33l-1 2l144 170h-60l-85 -106q-34 -39 -51 -74.5t-17 -84.5q0 -67 40 -103t100 -36z
M413 204q-40 0 -65.5 23t-25.5 64q0 40 25.5 63.5t65.5 23.5q39 0 64 -23.5t25 -63.5q0 -41 -24.5 -64t-64.5 -23z" />
    <glyph glyph-name="uni277C" unicode="&#x277c;" horiz-adv-x="830" 
d="M415 -15q-157 0 -261 104.5t-104 260.5t104 260.5t261 104.5t261 -104.5t104 -260.5t-104 -260.5t-261 -104.5zM324 153h51l172 341v45h-247v-47h196z" />
    <glyph glyph-name="uni277D" unicode="&#x277d;" horiz-adv-x="830" 
d="M415 -15q-157 0 -261 104.5t-104 260.5t104 260.5t261 104.5t261 -104.5t104 -260.5t-104 -260.5t-261 -104.5zM416 154q64 0 99.5 32t35.5 80q0 40 -20.5 65.5t-54.5 35.5v2q63 20 63 88q0 45 -33 73t-90 28q-58 0 -91 -28t-33 -73q0 -68 63 -88v-2q-34 -10 -54.5 -35.5
t-20.5 -65.5q0 -48 35.5 -80t100.5 -32zM416 390q-34 0 -54.5 17t-20.5 45q0 27 20.5 43t54.5 16q33 0 53.5 -16t20.5 -43q0 -28 -20.5 -45t-53.5 -17zM416 201q-87 0 -87 71q0 34 23.5 53.5t63.5 19.5t63 -19.5t23 -53.5q0 -71 -86 -71z" />
    <glyph glyph-name="uni277E" unicode="&#x277e;" horiz-adv-x="830" 
d="M415 -15q-157 0 -261 104.5t-104 260.5t104 260.5t261 104.5t261 -104.5t104 -260.5t-104 -260.5t-261 -104.5zM344 154h62l92 110q57 69 57 148q0 64 -38 100t-101 36t-100 -38.5t-37 -95.5q0 -55 35 -91t88 -36q38 0 85 36l1 -1zM418 330q-41 0 -65.5 23t-24.5 61
q0 41 25 64.5t66 23.5q40 0 63.5 -23t23.5 -61q0 -40 -24 -64t-64 -24z" />
    <glyph glyph-name="uniF8FF" unicode="&#xf8ff;" horiz-adv-x="865" 
d="M50 676q0 16 10.5 26t26.5 10q15 0 26 -10.5t11 -25.5q0 -24 -18 -34v-24q103 42 173 42q45 0 76 -21.5t31 -61.5v-25q55 12 104 12q57 0 96.5 -19t39.5 -64v-48q48 12 81 12q55 0 81.5 -21.5t26.5 -57.5v-240q-52 32 -107 32q-25 0 -63.5 -10t-56.5 -10q-51 0 -51 46v86
q-23 5 -47 5t-73 -9t-67 -9q-54 0 -54 46v68h-14q-62 0 -176 -44v-327h-39v643q-17 11 -17 33zM357 577q0 28 -22.5 41.5t-54.5 13.5q-63 0 -174 -45v-230q110 42 175 42q45 0 76 -14v192zM312 580l-65 -95v-68h-30v68l-65 95h38l42 -64l42 64h38zM598 474q0 11 -2.5 18.5
t-11 19t-32.5 18t-60 6.5q-45 0 -106 -12v-171q0 -18 -32 -29t-32 -25t27 -14q17 0 65 8.5t76 8.5q63 0 108 -25v197zM400 414q0 35 22.5 58t57.5 23t57.5 -23t22.5 -58t-22.5 -58t-57.5 -23t-57.5 23t-22.5 58zM530 414q0 23 -14 37.5t-36 14.5t-36 -14.5t-14 -37.5
t14 -37.5t36 -14.5t36 14.5t14 37.5zM788 365q0 51 -80 51q-34 0 -82 -12v-167q0 -12 -9.5 -20t-21.5 -11.5t-21.5 -9.5t-9.5 -15q0 -16 25 -16q14 0 53.5 10.5t64.5 10.5q39 0 81 -15v194zM709 373l-10 -100h-16l-10 100h36zM356 352q0 11 -32 16v-32q5 3 13.5 5.5
t13.5 4.5t5 6zM598 240q0 13 -34 24v-47q5 3 12 6.5t11.5 5t7.5 4.5t3 7zM671 231q0 19 20 19t20 -19q0 -20 -20 -20t-20 20z" />
    <glyph glyph-name="CR" horiz-adv-x="337" 
 />
    <glyph glyph-name="uni00A40301" horiz-adv-x="270" 
d="M318 863l-134 -120h-58l95 120h97zM196 700v-534q0 -88 -36 -129.5t-111 -41.5h-32v75h25q39 0 58 21.5t19 74.5v534h77z" />
    <glyph glyph-name="i.loclTRK" horiz-adv-x="202" 
d="M146 690v-120h-91v120h91zM65 0v462h72v-462h-72z" />
    <glyph glyph-name="uni006A0301" horiz-adv-x="202" 
d="M71 553l54 154h80l-75 -154h-59zM-25 -138h23q35 0 51 19.5t16 62.5v518h72v-524q0 -69 -33.5 -105t-96.5 -36h-32v65z" />
    <glyph glyph-name="zero.zero" horiz-adv-x="566" 
d="M442 618q79 -93 79 -280q0 -167 -63.5 -260t-174.5 -93q-79 0 -135 48l-32 -64l-26 11l37 74q-82 93 -82 284q0 167 63.5 259.5t174.5 92.5q83 0 138 -51l29 57l26 -11zM120 338q0 -133 45 -209l221 440q-42 53 -103 53q-75 0 -119 -76.5t-44 -207.5zM283 53
q74 0 118.5 77t44.5 208q0 128 -42 204l-221 -439q41 -50 100 -50z" />
    <glyph glyph-name="zero.tf" 
d="M300 690q111 0 174.5 -92.5t63.5 -259.5t-63.5 -260t-174.5 -93t-174.5 93t-63.5 260t63.5 259.5t174.5 92.5zM300 622q-75 0 -119 -76.5t-44 -207.5t44.5 -208t118.5 -77t118.5 77t44.5 208t-44 207.5t-119 76.5z" />
    <glyph glyph-name="one.tf" 
d="M344 71h165v-71h-418v71h181v533h-118v71h190v-604z" />
    <glyph glyph-name="two.tf" 
d="M87 0v56l251 274q47 52 69 91t22 79q0 54 -35 88t-95 34q-59 0 -97.5 -34t-40.5 -96h-72q2 92 59.5 145t153.5 53q95 0 148.5 -50.5t53.5 -136.5q0 -54 -25.5 -103t-79.5 -108l-208 -223h315v-69h-419z" />
    <glyph glyph-name="three.tf" 
d="M289 690q92 0 146 -46.5t54 -124.5q0 -60 -33 -102t-95 -54v-2q74 -6 115 -52t41 -124q0 -92 -57 -146t-163 -54q-101 0 -160.5 48.5t-64.5 139.5h73q5 -56 43.5 -88t108.5 -32q145 0 145 138q0 71 -43.5 102.5t-142.5 30.5h-37v65h37q158 0 158 119q0 54 -33 84t-93 30
q-58 0 -94.5 -28.5t-38.5 -82.5h-72q3 83 58.5 131t147.5 48z" />
    <glyph glyph-name="four.tf" 
d="M549 197v-69h-82v-128h-71v128h-347v61l340 486h78v-478h82zM130 197h266v376h-3z" />
    <glyph glyph-name="five.tf" 
d="M317 442q94 0 152.5 -59t58.5 -164q0 -108 -61.5 -171t-171.5 -63q-84 0 -144 37.5t-88 106.5l61 35q52 -111 170 -111q79 0 119 45t40 120q0 76 -41.5 118t-110.5 42q-92 0 -140 -71h-65l41 368h337v-69h-278l-27 -219h2q57 55 146 55z" />
    <glyph glyph-name="six.tf" 
d="M300 -15q-103 0 -169.5 64t-66.5 174q0 73 27 137.5t89 138.5l150 182h89l-245 -294l3 -2q61 60 142 60q97 0 156.5 -63.5t59.5 -164.5q0 -102 -66 -167t-169 -65zM300 53q71 0 115.5 45t44.5 118t-43.5 117.5t-114.5 44.5q-73 0 -118 -45t-45 -118q0 -72 44.5 -117
t116.5 -45z" />
    <glyph glyph-name="seven.tf" 
d="M506 675v-63l-283 -612h-77l283 605h-336v70h413z" />
    <glyph glyph-name="eight.tf" 
d="M300 -15q-106 0 -166.5 54.5t-60.5 144.5q0 65 35 112.5t94 64.5v2q-48 15 -78.5 55.5t-30.5 96.5q0 79 56 127t151 48q96 0 152 -48t56 -127q0 -56 -30.5 -96.5t-78.5 -55.5v-2q59 -17 93.5 -64.5t34.5 -112.5q0 -90 -60.5 -144.5t-166.5 -54.5zM300 393q60 0 96 32
t36 85t-35.5 84t-96.5 31t-96.5 -31t-35.5 -84t36 -85t96 -32zM300 50q71 0 111.5 36.5t40.5 101.5q0 63 -40 101t-112 38q-71 0 -111 -38t-40 -101q0 -65 40 -101.5t111 -36.5z" />
    <glyph glyph-name="nine.tf" 
d="M188 0l240 293l-2 2q-59 -58 -144 -58q-93 0 -154 64t-61 160q0 103 65 166t168 63q105 0 168.5 -64.5t63.5 -179.5q0 -68 -26 -130.5t-85 -135.5l-146 -180h-87zM299 304q71 0 115.5 44t44.5 114q0 71 -44 115.5t-116 44.5q-69 0 -113 -44t-44 -115t43.5 -115t113.5 -44
z" />
    <glyph glyph-name="zero.tf.zero" 
d="M459 618q79 -93 79 -280q0 -167 -63.5 -260t-174.5 -93q-80 0 -135 48l-32 -64l-26 11l37 74q-82 93 -82 284q0 167 63.5 259.5t174.5 92.5q82 0 138 -51l29 57l26 -11zM137 338q0 -133 45 -209l221 440q-42 53 -103 53q-75 0 -119 -76.5t-44 -207.5zM300 53
q74 0 118.5 77t44.5 208q0 128 -42 204l-221 -439q41 -50 100 -50z" />
    <glyph glyph-name="dollar.tf" 
d="M522 177q0 -86 -53.5 -136.5t-148.5 -55.5v-62h-28v62q-99 2 -155.5 54t-57.5 142h74q7 -123 139 -128v272q-36 14 -54.5 22.5t-47.5 26.5t-43.5 35.5t-26 46t-11.5 63.5q0 77 48.5 121.5t134.5 49.5v72h28v-72q86 -3 138 -47t53 -131h-74q-6 105 -117 110v-230
q33 -13 42 -17t38 -18t40 -22.5t31 -26.5t28 -35t15.5 -42t7.5 -54zM184 522q0 -43 27.5 -69t80.5 -49v217q-108 -8 -108 -99zM320 54q64 4 95.5 35.5t31.5 82.5q0 54 -32.5 84.5t-94.5 57.5v-260z" />
    <glyph glyph-name="cent.tf" 
d="M353 53q58 0 139 41v-73q-66 -36 -138 -36h-1v-49h-28v50q-98 10 -158.5 77.5t-60.5 167.5t61.5 168t157.5 77v55h28v-54q74 0 136 -32v-73q-75 37 -135 37h-1v-356zM181 232q0 -73 40.5 -120.5t103.5 -56.5v352q-64 -9 -104 -56t-40 -119z" />
    <glyph glyph-name="sterling.tf" 
d="M189 72v-2h327v-70h-417v60q121 71 121 160q0 8 -1 16.5t-2.5 15t-5 16.5t-5.5 14.5t-7.5 16t-7.5 15t-9 16t-8 15.5h-98v30h82q-31 66 -31 123q0 85 54 138.5t147 53.5q86 0 140.5 -47t54.5 -137h-73q-2 58 -34 87t-88 29q-58 0 -92 -33.5t-34 -91.5q0 -48 37 -122h198
v-30h-182q39 -76 39 -122q0 -88 -105 -151z" />
    <glyph glyph-name="florin.tf" 
d="M433 609q-101 0 -101 -110v-37h141v-30h-141v-460q0 -172 -162 -172h-43v67h42q91 0 91 98v467h-114v30h114v31q0 92 44 137t126 45h43v-66h-40z" />
    <glyph glyph-name="yen.tf" 
d="M542 675l-156 -323h128v-30h-142l-27 -56h169v-30h-179v-236h-71v236h-179v30h170l-27 56h-143v30h129l-156 323h82l160 -356l160 356h82z" />
    <glyph glyph-name="Euro.tf" 
d="M402 619q-93 0 -152 -57.5t-73 -159.5h310l-15 -30h-298q-1 -11 -1 -35q0 -16 1 -24h275l-15 -30h-258q12 -107 72 -166.5t157 -59.5q76 0 147 43v-81q-66 -33 -146 -33q-137 0 -214 82t-91 215h-90l15 30h73q-1 8 -1 25q0 23 1 34h-83l15 30h71q15 129 91.5 208.5
t210.5 79.5q100 0 185 -55l-32 -65q-74 49 -155 49z" />
    <glyph glyph-name="perthousand.tf" 
d="M148 380q-55 0 -91.5 43t-36.5 112t36.5 112t91.5 43q54 0 91 -43t37 -112t-37 -112t-91 -43zM148 644q-34 0 -57 -28.5t-23 -80.5t23 -80.5t57 -28.5t57 28.5t23 80.5t-23 80.5t-57 28.5zM524 504l12 -25l-500 -232l-12 25zM455 295q55 0 91.5 -43t36.5 -112t-36.5 -112
t-91.5 -43q-68 0 -104 61q-36 -61 -104 -61q-54 0 -91 43t-37 112t37 112t91 43q68 0 104 -61q36 61 104 61zM247 31q34 0 57 28.5t23 80.5t-23 80.5t-57 28.5t-57 -28.5t-23 -80.5t23 -80.5t57 -28.5zM455 31q34 0 57 28.5t23 80.5t-23 80.5t-57 28.5t-57 -28.5t-23 -80.5
t23 -80.5t57 -28.5z" />
    <glyph glyph-name="Adieresis.ss01" horiz-adv-x="659" 
d="M226 742q-24 0 -40 16t-16 40t16 40t40 16t40 -16t16 -40t-16 -40t-40 -16zM432 742q-24 0 -40 16t-16 40t16 40t40 16t40 -16t16 -40t-16 -40t-40 -16zM568 0l-74 187h-329l-74 -187h-84l286 700h73l285 -700h-83zM193 258h273l-136 344z" />
    <glyph glyph-name="Cdotaccent.ss01" horiz-adv-x="685" 
d="M409 854q24 0 40 -16t16 -40t-16 -40t-40 -16t-40 16t-16 40t16 40t40 16zM411 -15q-168 0 -271 101t-103 264t103 264t271 101q138 0 244 -79l-47 -67q-90 68 -199 68q-127 0 -207.5 -79.5t-80.5 -207.5t80.5 -207.5t207.5 -79.5q109 0 199 68l47 -67q-106 -79 -244 -79
z" />
    <glyph glyph-name="Edieresis.ss01" horiz-adv-x="518" 
d="M186 742q-24 0 -40 16t-16 40t16 40t40 16t40 -16t16 -40t-16 -40t-40 -16zM392 742q-24 0 -40 16t-16 40t16 40t40 16t40 -16t16 -40t-16 -40t-40 -16zM151 73h320v-73h-397v700h392v-73h-315v-201h290v-72h-290v-281z" />
    <glyph glyph-name="Edotaccent.ss01" horiz-adv-x="518" 
d="M289 742q-24 0 -40 16t-16 40t16 40t40 16t40 -16t16 -40t-16 -40t-40 -16zM151 73h320v-73h-397v700h392v-73h-315v-201h290v-72h-290v-281z" />
    <glyph glyph-name="Gcommaaccent.ss01" horiz-adv-x="790" 
d="M434 374h326v-32q0 -67 -21.5 -129t-63.5 -114t-111.5 -83t-156.5 -31q-162 0 -266 100.5t-104 262.5t103 264.5t267 102.5q150 0 268 -93l-53 -65q-97 80 -218 80q-124 0 -203.5 -81.5t-79.5 -206.5t79.5 -205.5t208.5 -80.5q65 0 117.5 22.5t84 58.5t48.5 76.5t19 80.5
h-244v73zM409 -41q23 0 39 -15t16 -38q0 -26 -19 -48l-54 -64h-31l34 62q-17 3 -27.5 17.5t-10.5 32.5q0 22 15 37.5t38 15.5z" />
    <glyph glyph-name="Gdotaccent.ss01" horiz-adv-x="790" 
d="M400 742q-24 0 -40 16t-16 40t16 40t40 16t40 -16t16 -40t-16 -40t-40 -16zM434 374h326v-32q0 -67 -21.5 -129t-63.5 -114t-111.5 -83t-156.5 -31q-162 0 -266 100.5t-104 262.5t103 264.5t267 102.5q150 0 268 -93l-53 -65q-97 80 -218 80q-124 0 -203.5 -81.5
t-79.5 -206.5t79.5 -205.5t208.5 -80.5q65 0 117.5 22.5t84 58.5t48.5 76.5t19 80.5h-244v73z" />
    <glyph glyph-name="Idieresis.ss01" horiz-adv-x="227" 
d="M10 854q24 0 40 -16t16 -40t-16 -40t-40 -16t-40 16t-16 40t16 40t40 16zM216 854q24 0 40 -16t16 -40t-16 -40t-40 -16t-40 16t-16 40t16 40t40 16zM152 700v-700h-78v700h78z" />
    <glyph glyph-name="Idotaccent.ss01" horiz-adv-x="227" 
d="M113 854q24 0 40 -16t16 -40t-16 -40t-40 -16t-40 16t-16 40t16 40t40 16zM152 700v-700h-78v700h78z" />
    <glyph glyph-name="Kcommaaccent.ss01" horiz-adv-x="612" 
d="M240 376l365 -376h-115l-339 357v-357h-77v700h77v-315l300 315h109zM306 -41q23 0 39 -15t16 -38q0 -26 -19 -48l-54 -64h-31l34 62q-17 3 -27.5 17.5t-10.5 32.5q0 22 15.5 37.5t37.5 15.5z" />
    <glyph glyph-name="Lcaron.ss01" horiz-adv-x="485" 
d="M369 717q24 0 40.5 -16.5t16.5 -40.5q0 -18 -13 -45l-69 -135h-32l43 127q-20 3 -31.5 18.5t-11.5 35.5q0 23 16 39.5t41 16.5zM151 700v-626h325v-74h-402v700h77z" />
    <glyph glyph-name="Lcommaaccent.ss01" horiz-adv-x="485" 
d="M151 700v-626h325v-74h-402v700h77zM340 -94q0 -26 -19 -48l-54 -64h-31l34 62q-17 3 -27.5 17.5t-10.5 32.5q0 22 15 37.5t38 15.5t39 -15t16 -38z" />
    <glyph glyph-name="Ldot.ss01" horiz-adv-x="485" 
d="M151 700v-626h325v-74h-402v700h77zM359 477q27 0 45 -18t18 -45t-18 -45t-45 -18t-45 18t-18 45t18 45t45 18z" />
    <glyph glyph-name="Ncommaaccent.ss01" horiz-adv-x="694" 
d="M619 700v-700h-82l-384 569h-2v-569h-77v700h82l384 -569h2v569h77zM400 -94q0 -26 -19 -48l-54 -64h-31l34 62q-17 3 -27.5 17.5t-10.5 32.5q0 22 15 37.5t38 15.5t39 -15t16 -38z" />
    <glyph glyph-name="Odieresis.ss01" horiz-adv-x="804" 
d="M300 854q24 0 40 -16t16 -40t-16 -40t-40 -16t-40 16t-16 40t16 40t40 16zM506 854q24 0 40 -16t16 -40t-16 -40t-40 -16t-40 16t-16 40t16 40t40 16zM402 715q157 0 261 -102.5t104 -262.5t-104 -262.5t-261 -102.5t-261 102.5t-104 262.5t104 262.5t261 102.5zM402 637
q-123 0 -202 -81t-79 -206t79 -206t202 -81t202 80.5t79 206.5t-79 206.5t-202 80.5z" />
    <glyph glyph-name="Rcommaaccent.ss01" horiz-adv-x="571" 
d="M342 303l213 -303h-97l-208 301h-99v-301h-77v700h233q94 0 153.5 -53t59.5 -147q0 -83 -49 -135.5t-129 -61.5zM151 627v-253h146q68 0 104 34t36 92q0 59 -36 93t-104 34h-146zM292 -41q23 0 39 -15t16 -38q0 -26 -19 -48l-54 -64h-31l34 62q-17 3 -27.5 17.5
t-10.5 32.5q0 22 15.5 37.5t37.5 15.5z" />
    <glyph glyph-name="Scommaaccent.ss01" horiz-adv-x="497" 
d="M256 715q86 0 178 -44l-36 -74q-72 40 -143 40q-52 0 -78.5 -21.5t-26.5 -58.5q0 -32 18.5 -55.5t56.5 -51.5l115 -85q59 -43 88 -87.5t29 -104.5q0 -91 -59 -139.5t-158 -48.5q-122 0 -221 64l37 72q94 -58 184 -58q66 0 100.5 29.5t34.5 75.5q0 35 -21 64.5t-70 65.5
l-114 86q-50 38 -76.5 77t-26.5 93q0 74 49.5 117.5t139.5 43.5zM300 -94q0 -26 -19 -48l-54 -64h-31l34 62q-17 3 -27.5 17.5t-10.5 32.5q0 22 15 37.5t38 15.5t39 -15t16 -38z" />
    <glyph glyph-name="uni021A.ss01" horiz-adv-x="515" 
d="M10 700h495v-73h-209v-627h-77v627h-209v73zM256 -41q23 0 39 -15t16 -38q0 -26 -19 -48l-54 -64h-31l34 62q-17 3 -27.5 17.5t-10.5 32.5q0 22 15.5 37.5t37.5 15.5z" />
    <glyph glyph-name="Udieresis.ss01" horiz-adv-x="689" 
d="M241 854q24 0 40 -16t16 -40t-16 -40t-40 -16t-40 16t-16 40t16 40t40 16zM447 854q24 0 40 -16t16 -40t-16 -40t-40 -16t-40 16t-16 40t16 40t40 16zM620 700v-437q0 -127 -73.5 -202.5t-202.5 -75.5q-128 0 -202 75.5t-74 202.5v437h82v-431q0 -95 53 -149.5t141 -54.5
t141.5 54.5t53.5 149.5v431h81z" />
    <glyph glyph-name="Wdieresis.ss01" horiz-adv-x="973" 
d="M384 854q24 0 40 -16t16 -40t-16 -40t-40 -16t-40 16t-16 40t16 40t40 16zM590 854q24 0 40 -16t16 -40t-16 -40t-40 -16t-40 16t-16 40t16 40t40 16zM958 700l-212 -700h-77l-181 571h-3l-181 -571h-77l-212 700h86l163 -576h2l180 576h80l181 -576h2l162 576h87z" />
    <glyph glyph-name="Ydieresis.ss01" horiz-adv-x="534" 
d="M164 742q-24 0 -40 16t-16 40t16 40t40 16t40 -16t16 -40t-16 -40t-40 -16zM370 742q-24 0 -40 16t-16 40t16 40t40 16t40 -16t16 -40t-16 -40t-40 -16zM530 700l-224 -426v-274h-78v274l-224 426h90l172 -343h2l172 343h90z" />
    <glyph glyph-name="Zdotaccent.ss01" horiz-adv-x="538" 
d="M279 742q-24 0 -40 16t-16 40t16 40t40 16t40 -16t16 -40t-16 -40t-40 -16zM112 73h406v-73h-498v73l393 554h-358v73h451v-73z" />
    <glyph glyph-name="Adieresis.ss02" horiz-adv-x="659" 
d="M229 771v-100h-83v100h83zM511 771v-100h-83v100h83zM568 0l-74 187h-329l-74 -187h-84l286 700h73l285 -700h-83zM193 258h273l-136 344z" />
    <glyph glyph-name="Idieresis.ss02" horiz-adv-x="227" 
d="M39 771v-100h-83v100h83zM270 771v-100h-83v100h83zM152 700v-700h-78v700h78z" />
    <glyph glyph-name="Odieresis.ss02" horiz-adv-x="804" 
d="M171 771v-100h-83v100h83zM718 771v-100h-83v100h83zM402 715q157 0 261 -102.5t104 -262.5t-104 -262.5t-261 -102.5t-261 102.5t-104 262.5t104 262.5t261 102.5zM402 637q-123 0 -202 -81t-79 -206t79 -206t202 -81t202 80.5t79 206.5t-79 206.5t-202 80.5z" />
    <glyph glyph-name="Udieresis.ss02" horiz-adv-x="689" 
d="M308 771v-100h-83v100h83zM463 771v-100h-83v100h83zM620 700v-437q0 -127 -73.5 -202.5t-202.5 -75.5q-128 0 -202 75.5t-74 202.5v437h82v-431q0 -95 53 -149.5t141 -54.5t141.5 54.5t53.5 149.5v431h81z" />
    <glyph glyph-name="Wdieresis.ss02" horiz-adv-x="973" 
d="M384 771v-100h-83v100h83zM672 771v-100h-83v100h83zM958 700l-212 -700h-77l-181 571h-3l-181 -571h-77l-212 700h86l163 -576h2l180 576h80l181 -576h2l162 576h87z" />
    <glyph glyph-name="Ydieresis.ss02" horiz-adv-x="534" 
d="M237 771v-100h-75v100h75zM372 771v-100h-75v100h75zM530 700l-224 -426v-274h-78v274l-224 426h90l172 -343h2l172 343h90z" />
    <glyph glyph-name="Adieresis.ss01.ss02" horiz-adv-x="659" 
d="M186 657q-24 0 -40 16t-16 40t16 40t40 16t40 -16t16 -40t-16 -40t-40 -16zM473 657q-24 0 -40 16t-16 40t16 40t40 16t40 -16t16 -40t-16 -40t-40 -16zM568 0l-74 187h-329l-74 -187h-84l286 700h73l285 -700h-83zM193 258h273l-136 344z" />
    <glyph glyph-name="Idieresis.ss01.ss02" horiz-adv-x="227" 
d="M-11 769q24 0 40 -16t16 -40t-16 -40t-40 -16t-40 16t-16 40t16 40t40 16zM237 769q24 0 40 -16t16 -40t-16 -40t-40 -16q-23 0 -39.5 16t-16.5 40t16.5 40t39.5 16zM152 700v-700h-78v700h78z" />
    <glyph glyph-name="Odieresis.ss01.ss02" horiz-adv-x="804" 
d="M118 769q24 0 40 -16t16 -40t-16 -40t-40 -16t-40 16t-16 40t16 40t40 16zM687 769q24 0 40 -16t16 -40t-16 -40t-40 -16t-40 16t-16 40t16 40t40 16zM402 715q157 0 261 -102.5t104 -262.5t-104 -262.5t-261 -102.5t-261 102.5t-104 262.5t104 262.5t261 102.5zM402 637
q-123 0 -202 -81t-79 -206t79 -206t202 -81t202 80.5t79 206.5t-79 206.5t-202 80.5z" />
    <glyph glyph-name="Udieresis.ss01.ss02" horiz-adv-x="689" 
d="M258 769q24 0 40 -16t16 -40t-16 -40t-40 -16q-23 0 -39.5 16t-16.5 40t16.5 40t39.5 16zM430 769q24 0 40 -16t16 -40t-16 -40t-40 -16t-40 16t-16 40t16 40t40 16zM620 700v-437q0 -127 -73.5 -202.5t-202.5 -75.5q-128 0 -202 75.5t-74 202.5v437h82v-431
q0 -95 53 -149.5t141 -54.5t141.5 54.5t53.5 149.5v431h81z" />
    <glyph glyph-name="Wdieresis.ss01.ss02" horiz-adv-x="973" 
d="M339 769q24 0 40 -16t16 -40t-16 -40t-40 -16t-40 16t-16 40t16 40t40 16zM634 769q24 0 40 -16t16 -40t-16 -40t-40 -16t-40 16t-16 40t16 40t40 16zM958 700l-212 -700h-77l-181 571h-3l-181 -571h-77l-212 700h86l163 -576h2l180 576h80l181 -576h2l162 576h87z" />
    <glyph glyph-name="Ydieresis.ss01.ss02" horiz-adv-x="534" 
d="M193 657q-24 0 -40 16t-16 40t16 40t40 16t40 -16t16 -40t-16 -40t-40 -16zM341 657q-24 0 -40 16t-16 40t16 40t40 16t40 -16t16 -40t-16 -40t-40 -16zM530 700l-224 -426v-274h-78v274l-224 426h90l172 -343h2l172 343h90z" />
    <glyph glyph-name="adieresis.ss01" horiz-adv-x="572" 
d="M180 702q25 0 41.5 -16.5t16.5 -41.5t-16.5 -41.5t-41.5 -16.5t-41.5 16.5t-16.5 41.5t16.5 41.5t41.5 16.5zM375 702q25 0 41.5 -16.5t16.5 -41.5t-16.5 -41.5t-41.5 -16.5t-41.5 16.5t-16.5 41.5t16.5 41.5t41.5 16.5zM261 -15q-98 0 -163.5 67t-65.5 179t65.5 179
t163.5 67q121 0 175 -97h2v82h72v-462h-72v82h-2q-54 -97 -175 -97zM275 56q75 0 121 49t46 126t-46 126t-121 49t-121 -49t-46 -126t46 -126t121 -49z" />
    <glyph glyph-name="cdotaccent.ss01" horiz-adv-x="465" 
d="M276 702q26 0 44 -18t18 -44q0 -25 -18 -43t-44 -18t-44 17.5t-18 43.5t18 44t44 18zM283 -15q-111 0 -181 68t-70 178t70 178t181 68q83 0 158 -46l-35 -62q-64 38 -125 38q-77 0 -125 -50.5t-48 -125.5t48 -125.5t125 -50.5q61 0 125 38l35 -62q-75 -46 -158 -46z" />
    <glyph glyph-name="dcaron.ss01" horiz-adv-x="661" 
d="M553 500l42 107q-19 3 -31 18.5t-12 35.5q0 24 16 40t42 16t41.5 -16.5t15.5 -40.5q0 -23 -19 -53l-63 -107h-32zM261 -15q-98 0 -163.5 67t-65.5 179t65.5 179t163.5 67q121 0 175 -97h2v320h72v-700h-72v82h-2q-54 -97 -175 -97zM275 56q75 0 121 49t46 126t-46 126
t-121 49t-121 -49t-46 -126t46 -126t121 -49z" />
    <glyph glyph-name="edieresis.ss01" horiz-adv-x="521" 
d="M171 702q25 0 41.5 -16.5t16.5 -41.5t-16.5 -41.5t-41.5 -16.5t-41.5 16.5t-16.5 41.5t16.5 41.5t41.5 16.5zM366 702q25 0 41.5 -16.5t16.5 -41.5t-16.5 -41.5t-41.5 -16.5t-41.5 16.5t-16.5 41.5t16.5 41.5t41.5 16.5zM267 477q109 0 165.5 -67.5t56.5 -175.5v-13h-384
q1 -76 47 -121t119 -45q40 0 73.5 15.5t50 32t34.5 40.5l52 -47q-79 -111 -209 -111q-109 0 -174.5 67.5t-65.5 177.5q0 111 64.5 179t170.5 68zM263 410q-62 0 -104.5 -35t-50.5 -99h303q-5 64 -43.5 99t-104.5 35z" />
    <glyph glyph-name="edotaccent.ss01" horiz-adv-x="521" 
d="M269 702q26 0 44 -18t18 -44q0 -25 -18 -43t-44 -18t-44 17.5t-18 43.5t18 44t44 18zM267 477q109 0 165.5 -67.5t56.5 -175.5v-13h-384q1 -76 47 -121t119 -45q40 0 73.5 15.5t50 32t34.5 40.5l52 -47q-79 -111 -209 -111q-109 0 -174.5 67.5t-65.5 177.5
q0 111 64.5 179t170.5 68zM263 410q-62 0 -104.5 -35t-50.5 -99h303q-5 64 -43.5 99t-104.5 35z" />
    <glyph glyph-name="gcommaaccent.ss01" horiz-adv-x="572" 
d="M232 589q0 26 19 48l54 64h31l-34 -62q17 -3 27.5 -17.5t10.5 -32.5q0 -23 -15 -38t-38 -15t-39 15t-16 38zM296 -215q-80 0 -178 21l14 70q95 -21 164 -21q75 0 108.5 35t33.5 115v77h-2q-54 -97 -175 -97q-98 0 -163.5 67t-65.5 179t65.5 179t163.5 67q121 0 175 -97h2
v82h72v-462q-2 -124 -58 -169.5t-156 -45.5zM275 56q75 0 121 49t46 126t-46 126t-121 49t-121 -49t-46 -126t46 -126t121 -49z" />
    <glyph glyph-name="gdotaccent.ss01" horiz-adv-x="572" 
d="M287 702q26 0 44 -18t18 -44q0 -25 -18 -43t-44 -18t-44 17.5t-18 43.5t18 44t44 18zM296 -215q-80 0 -178 21l14 70q95 -21 164 -21q75 0 108.5 35t33.5 115v77h-2q-54 -97 -175 -97q-98 0 -163.5 67t-65.5 179t65.5 179t163.5 67q121 0 175 -97h2v82h72v-462
q-2 -124 -58 -169.5t-156 -45.5zM275 56q75 0 121 49t46 126t-46 126t-121 49t-121 -49t-46 -126t46 -126t121 -49z" />
    <glyph glyph-name="i.ss01" horiz-adv-x="202" 
d="M101 702q26 0 44 -18t18 -44q0 -25 -18 -43t-44 -18t-44 17.5t-18 43.5t18 44t44 18zM65 0v462h72v-462h-72z" />
    <glyph glyph-name="idieresis.ss01" horiz-adv-x="202" 
d="M28 702q25 0 41.5 -16.5t16.5 -41.5t-16.5 -41.5t-41.5 -16.5t-41.5 16.5t-16.5 41.5t16.5 41.5t41.5 16.5zM175 702q25 0 41.5 -16.5t16.5 -41.5t-16.5 -41.5t-41.5 -16.5t-41.5 16.5t-16.5 41.5t16.5 41.5t41.5 16.5zM65 0v462h72v-462h-72z" />
    <glyph glyph-name="i.loclTRK.ss01" horiz-adv-x="202" 
d="M101 702q26 0 44 -18t18 -44q0 -25 -18 -43t-44 -18t-44 17.5t-18 43.5t18 44t44 18zM65 0v462h72v-462h-72z" />
    <glyph glyph-name="ij.ss01" horiz-adv-x="404" 
d="M101 702q26 0 44 -18t18 -44q0 -25 -18 -43t-44 -18t-44 17.5t-18 43.5t18 44t44 18zM303 702q26 0 44 -18t18 -44q0 -25 -18 -43t-44 -18t-44 17.5t-18 43.5t18 44t44 18zM65 0v462h72v-462h-72zM177 -138h23q35 0 51 19.5t16 62.5v518h72v-524q0 -69 -33.5 -105
t-96.5 -36h-32v65z" />
    <glyph glyph-name="iogonek.ss01" horiz-adv-x="202" 
d="M101 702q26 0 44 -18t18 -44q0 -25 -18 -43t-44 -18t-44 17.5t-18 43.5t18 44t44 18zM65 11v451h72v-462h-29q-76 -67 -76 -106q0 -29 40 -29q19 0 44 7l8 -49q-30 -10 -65 -10q-37 0 -61.5 18t-24.5 53q0 62 92 127z" />
    <glyph glyph-name="j.ss01" horiz-adv-x="202" 
d="M101 702q26 0 44 -18t18 -44q0 -25 -18 -43t-44 -18t-44 17.5t-18 43.5t18 44t44 18zM-25 -138h23q35 0 51 19.5t16 62.5v518h72v-524q0 -69 -33.5 -105t-96.5 -36h-32v65z" />
    <glyph glyph-name="kcommaaccent.ss01" horiz-adv-x="459" 
d="M217 251l234 -251h-99l-213 234v-234h-72v700h72v-440l192 202h99zM229 -41q23 0 39 -15t16 -38q0 -26 -19 -48l-54 -64h-31l34 62q-17 3 -27.5 17.5t-10.5 32.5q0 22 15 37.5t38 15.5z" />
    <glyph glyph-name="lcaron.ss01" horiz-adv-x="286" 
d="M180 500l43 107q-20 3 -31.5 18.5t-11.5 35.5q0 24 15.5 40t41.5 16t41.5 -16.5t15.5 -40.5q0 -23 -19 -53l-63 -107h-32zM139 700v-700h-72v700h72z" />
    <glyph glyph-name="lcommaaccent.ss01" horiz-adv-x="206" 
d="M139 700v-700h-72v700h72zM157 -94q0 -26 -19 -48l-54 -64h-31l34 62q-17 3 -27.5 17.5t-10.5 32.5q0 22 15.5 37.5t37.5 15.5q23 0 39 -15t16 -38z" />
    <glyph glyph-name="ldot.ss01" horiz-adv-x="303" 
d="M139 700v-700h-72v700h72zM233 477q27 0 45 -18t18 -45t-18 -45t-45 -18t-45 18t-18 45t18 45t45 18z" />
    <glyph glyph-name="napostrophe.ss01" horiz-adv-x="550" 
d="M63 717q24 0 40.5 -16.5t16.5 -40.5q0 -18 -13 -45l-69 -135h-32l43 127q-20 3 -31.5 18.5t-11.5 35.5q0 23 16 39.5t41 16.5zM314 477q82 0 129.5 -48t47.5 -148v-281h-72v271q0 68 -33 101t-91 33q-66 0 -107 -45.5t-41 -146.5v-213h-72v462h72v-89h2q47 104 165 104z
" />
    <glyph glyph-name="ncommaaccent.ss01" horiz-adv-x="539" 
d="M303 477q82 0 129.5 -48t47.5 -148v-281h-72v271q0 68 -33 101t-91 33q-66 0 -107 -45.5t-41 -146.5v-213h-72v462h72v-89h2q47 104 165 104zM337 -94q0 -26 -19 -48l-54 -64h-31l34 62q-17 3 -27.5 17.5t-10.5 32.5q0 22 15.5 37.5t37.5 15.5q23 0 39 -15t16 -38z" />
    <glyph glyph-name="odieresis.ss01" horiz-adv-x="564" 
d="M184 702q25 0 41.5 -16.5t16.5 -41.5t-16.5 -41.5t-41.5 -16.5t-41.5 16.5t-16.5 41.5t16.5 41.5t41.5 16.5zM379 702q25 0 41.5 -16.5t16.5 -41.5t-16.5 -41.5t-41.5 -16.5t-41.5 16.5t-16.5 41.5t16.5 41.5t41.5 16.5zM282 477q109 0 179.5 -69.5t70.5 -176.5
t-70.5 -176.5t-179.5 -69.5q-108 0 -179 69.5t-71 176.5t71 176.5t179 69.5zM282 406q-76 0 -125 -48t-49 -127t49 -127t125 -48t125 48t49 127t-49 127t-125 48z" />
    <glyph glyph-name="rcommaaccent.ss01" horiz-adv-x="317" 
d="M303 476v-83h-14q-74 0 -113.5 -45.5t-39.5 -130.5v-217h-72v462h72v-104h2q15 53 55.5 85.5t97.5 32.5h12zM155 -94q0 -26 -19 -48l-54 -64h-31l34 62q-17 3 -27.5 17.5t-10.5 32.5q0 22 15.5 37.5t37.5 15.5q23 0 39 -15t16 -38z" />
    <glyph glyph-name="scommaaccent.ss01" horiz-adv-x="406" 
d="M210 -15q-106 0 -191 54l35 64q77 -50 159 -50q46 0 69 16.5t23 44.5q0 40 -63 69l-86 41q-100 46 -100 129q0 60 43 92t116 32q77 0 156 -36l-31 -64q-68 32 -127 32q-80 0 -80 -53q0 -22 15.5 -38t50.5 -32l84 -39q48 -23 73.5 -53t25.5 -77q0 -65 -46 -98.5
t-126 -33.5zM256 -94q0 -26 -19 -48l-54 -64h-31l34 62q-17 3 -27.5 17.5t-10.5 32.5q0 22 15 37.5t38 15.5t39 -15t16 -38z" />
    <glyph glyph-name="tcaron.ss01" horiz-adv-x="365" 
d="M297 717q26 0 41.5 -16.5t15.5 -40.5q0 -23 -19 -53l-63 -107h-32l43 107q-20 3 -31.5 18.5t-11.5 35.5q0 24 15.5 40t41.5 16zM180 647v-185h102v-62h-102v-273q0 -61 58 -61h25v-67h-38q-55 0 -86 29t-31 85v287h-89v62h89v185h72z" />
    <glyph glyph-name="uni021B.ss01" horiz-adv-x="306" 
d="M282 400h-102v-273q0 -61 58 -61h25v-67h-38q-55 0 -86 29t-31 85v287h-89v62h89v185h72v-185h102v-62zM199 -42q23 0 39 -15t16 -38q0 -26 -19 -48l-54 -64h-31l34 62q-17 3 -27.5 17.5t-10.5 32.5q0 23 15 38t38 15z" />
    <glyph glyph-name="udieresis.ss01" horiz-adv-x="526" 
d="M164 702q25 0 41.5 -16.5t16.5 -41.5t-16.5 -41.5t-41.5 -16.5t-41.5 16.5t-16.5 41.5t16.5 41.5t41.5 16.5zM359 702q25 0 41.5 -16.5t16.5 -41.5t-16.5 -41.5t-41.5 -16.5t-41.5 16.5t-16.5 41.5t16.5 41.5t41.5 16.5zM231 -15q-77 0 -124.5 48.5t-47.5 149.5v279h73
v-275q0 -67 31.5 -99.5t85.5 -32.5q64 0 102.5 47t38.5 151v209h72v-462h-72v86h-2q-44 -101 -157 -101z" />
    <glyph glyph-name="wdieresis.ss01" horiz-adv-x="719" 
d="M261 586q-25 0 -41.5 16.5t-16.5 41.5t16.5 41.5t41.5 16.5t41.5 -16.5t16.5 -41.5t-16.5 -41.5t-41.5 -16.5zM456 586q-25 0 -41.5 16.5t-16.5 41.5t16.5 41.5t41.5 16.5t41.5 -16.5t16.5 -41.5t-16.5 -41.5t-41.5 -16.5zM632 462h80l-156 -462h-69l-128 368l-128 -368
h-68l-156 462h79l112 -370l125 370h73l125 -370z" />
    <glyph glyph-name="ydieresis.ss01" horiz-adv-x="467" 
d="M138 586q-25 0 -41.5 16.5t-16.5 41.5t16.5 41.5t41.5 16.5t41.5 -16.5t16.5 -41.5t-16.5 -41.5t-41.5 -16.5zM333 586q-25 0 -41.5 16.5t-16.5 41.5t16.5 41.5t41.5 16.5t41.5 -16.5t16.5 -41.5t-16.5 -41.5t-41.5 -16.5zM380 462h80l-302 -662h-77l118 249l-192 413h85
l144 -332z" />
    <glyph glyph-name="zdotaccent.ss01" horiz-adv-x="441" 
d="M228 579q-26 0 -44 17.5t-18 43.5t18 44t44 18t44 -18t18 -44q0 -25 -18 -43t-44 -18zM115 68h299v-68h-387v64l279 331h-263v67h351v-64z" />
    <glyph glyph-name="germandbls.ss03" horiz-adv-x="505" 
d="M346 265q56 -22 90 -60t34 -108q0 -85 -57 -157t-163 -155l-46 55q96 77 144.5 136t48.5 115q0 96 -130 130l-17 5l108 174h-219v-400h-72v539q0 83 43.5 127t120.5 44h17v-68h-13q-96 0 -96 -102v-124l34 46h298z" />
    <glyph glyph-name="t_z" horiz-adv-x="594" 
d="M435 265q56 -22 90 -60t34 -108q0 -85 -57 -157t-163 -155l-46 55q96 77 144.5 136t48.5 115q0 96 -130 130l-17 5l108 174h-267v-273q0 -61 58 -61h25v-67h-38q-55 0 -86 29t-31 85v287h-89v62h89v185h72v-185h380z" />
    <glyph glyph-name="f_f_i.ss01" horiz-adv-x="818" 
d="M109 539q0 85 43.5 128t120.5 43h16v-68h-13q-96 0 -96 -102v-78h105v-62h-105v-400h-71v400h-85v62h85v77zM417 539q0 85 43.5 128t120.5 43h16v-68h-13q-96 0 -96 -102v-78h105v-62h-105v-400h-71v400h-85v62h85v77zM717 702q26 0 44 -18t18 -44q0 -25 -18 -43t-44 -18
t-44 17.5t-18 43.5t18 44t44 18zM681 0v462h72v-462h-72z" />
    <glyph glyph-name="fi.ss01" horiz-adv-x="510" 
d="M109 539q0 85 43.5 128t120.5 43h16v-68h-13q-96 0 -96 -102v-78h105v-62h-105v-400h-71v400h-85v62h85v77zM409 702q26 0 44 -18t18 -44q0 -25 -18 -43t-44 -18t-44 17.5t-18 43.5t18 44t44 18zM373 0v462h72v-462h-72z" />
    <glyph glyph-name="a.subs" horiz-adv-x="411" 
d="M186 -120q-65 0 -109.5 44.5t-44.5 118.5t44.5 118.5t109.5 44.5q84 0 117 -66h2v56h64v-306h-64v56h-2q-33 -66 -117 -66zM200 -62q45 0 75 29t30 76t-30 76t-75 29t-73 -28.5t-28 -76.5t28 -76.5t73 -28.5z" />
    <glyph glyph-name="b.subs" horiz-adv-x="416" 
d="M231 -120q-84 0 -119 66h-2v-56h-63v462h63v-212h2q35 66 119 66q67 0 110 -43t43 -120t-43 -120t-110 -43zM215 -62q45 0 73 28.5t28 76.5t-28 76.5t-73 28.5t-75 -29t-30 -76t30 -76t75 -29z" />
    <glyph glyph-name="c.subs" horiz-adv-x="335" 
d="M203 206q57 0 110 -30l-29 -53q-36 24 -78 24q-48 0 -78 -28.5t-30 -75.5t30 -75.5t78 -28.5q42 0 78 24l29 -53q-53 -30 -110 -30q-76 0 -123.5 45t-47.5 118t47.5 118t123.5 45z" />
    <glyph glyph-name="d.subs" horiz-adv-x="416" 
d="M184 -120q-67 0 -109.5 43t-42.5 120t42.5 120t109.5 43q86 0 119 -66h2v212h64v-462h-64v56h-2q-33 -66 -119 -66zM200 -62q45 0 75 29t30 76t-30 76t-75 29t-73 -28.5t-28 -76.5t28 -76.5t73 -28.5z" />
    <glyph glyph-name="e.subs" horiz-adv-x="376" 
d="M192 206q71 0 111 -46t40 -119v-13h-247q4 -45 32.5 -67.5t71.5 -22.5q25 0 47 8.5t31 15.5t24 21l32 -47q-58 -56 -133 -56q-78 0 -123.5 44.5t-45.5 118.5q0 73 45 118t115 45zM190 151q-37 0 -62.5 -20t-30.5 -60h181q-3 38 -26 59t-62 21z" />
    <glyph glyph-name="f.subs" horiz-adv-x="242" 
d="M215 299q-37 0 -54 -15.5t-17 -54.5v-33h80v-53h-80v-253h-63v253h-64v53h64v37q0 63 33 94.5t94 31.5h17v-60h-10z" />
    <glyph glyph-name="g.subs" horiz-adv-x="408" 
d="M216 -251q-63 0 -140 16l11 61q79 -17 128 -17q50 0 70 23t20 77v37h-2q-33 -66 -119 -66q-67 0 -109.5 43t-42.5 120t42.5 120t109.5 43q86 0 119 -66h2v56h64v-306q-2 -66 -41 -103.5t-112 -37.5zM200 -62q45 0 75 29t30 76t-30 76t-75 29t-73 -28.5t-28 -76.5
t28 -76.5t73 -28.5z" />
    <glyph glyph-name="h.subs" horiz-adv-x="383" 
d="M110 352v-212h2q33 66 111 66q52 0 85 -32.5t33 -96.5v-187h-63v168q0 89 -79 89q-38 0 -63.5 -25.5t-25.5 -82.5v-149h-63v462h63z" />
    <glyph glyph-name="i.subs" horiz-adv-x="178" 
d="M127 352v-88h-77v88h77zM120 196v-306h-63v306h63z" />
    <glyph glyph-name="j.subs" horiz-adv-x="181" 
d="M131 352v-88h-76v88h76zM125 196v-328q0 -112 -104 -112h-24v60h15q49 0 49 53v327h64z" />
    <glyph glyph-name="k.subs" horiz-adv-x="346" 
d="M110 352v-288l122 132h85l-138 -140l155 -166h-87l-137 152v-152h-63v462h63z" />
    <glyph glyph-name="l.subs" horiz-adv-x="157" 
d="M110 352v-462h-63v462h63z" />
    <glyph glyph-name="m.subs" horiz-adv-x="566" 
d="M414 206q50 0 80 -31t30 -88v-197h-63v179q0 78 -69 78q-77 0 -77 -103v-154h-63v170q0 87 -70 87q-77 0 -77 -110v-147h-63v306h61v-53h2q31 63 101 63q74 0 101 -69h2q28 69 105 69z" />
    <glyph glyph-name="n.subs" horiz-adv-x="378" 
d="M216 206q54 0 87 -34t33 -100v-182h-63v168q0 44 -21.5 66.5t-58.5 22.5q-38 0 -63 -25.5t-25 -82.5v-149h-63v306h61v-58h2q34 68 111 68z" />
    <glyph glyph-name="o.subs" horiz-adv-x="405" 
d="M203 206q73 0 121.5 -44.5t48.5 -118.5t-48.5 -118.5t-121.5 -44.5q-74 0 -122.5 44.5t-48.5 118.5t48.5 118.5t122.5 44.5zM203 147q-45 0 -75 -28t-30 -76t30 -76t75 -28q44 0 74 28t30 76t-30 76t-74 28z" />
    <glyph glyph-name="p.subs" horiz-adv-x="411" 
d="M42 -242v438h63v-56h2q35 66 119 66q67 0 110 -43t43 -120t-43 -120t-110 -43q-84 0 -119 66h-2v-188h-63zM210 -62q45 0 73 28.5t28 76.5t-28 76.5t-73 28.5t-75 -29t-30 -76t30 -76t75 -29z" />
    <glyph glyph-name="q.subs" horiz-adv-x="411" 
d="M305 -242v188h-2q-33 -66 -119 -66q-67 0 -109.5 43t-42.5 120t42.5 120t109.5 43q86 0 119 -66h2v56h64v-438h-64zM200 -62q45 0 75 29t30 76t-30 76t-75 29t-73 -28.5t-28 -76.5t28 -76.5t73 -28.5z" />
    <glyph glyph-name="r.subs" horiz-adv-x="227" 
d="M215 204v-66h-14q-51 0 -73.5 -25.5t-22.5 -83.5v-139h-63v306h61v-62h2q10 32 37.5 51t64.5 19h8z" />
    <glyph glyph-name="s.subs" horiz-adv-x="304" 
d="M164 206q53 0 106 -25l-27 -53q-44 23 -83 23q-44 0 -44 -28q0 -19 36 -37l59 -28q33 -16 49.5 -35.5t16.5 -51.5q0 -44 -30.5 -67.5t-86.5 -23.5q-70 0 -133 36l29 54q56 -34 107 -34t51 30q0 20 -32 35l-59 29q-70 34 -70 91q0 40 28.5 62.5t82.5 22.5z" />
    <glyph glyph-name="t.subs" horiz-adv-x="241" 
d="M216 141h-70v-151q0 -40 37 -40h19v-60h-31q-88 0 -88 94v157h-66v55h66v121h63v-121h70v-55z" />
    <glyph glyph-name="u.subs" horiz-adv-x="379" 
d="M331 196v-306h-61v55h-2q-32 -65 -107 -65q-54 0 -86.5 32t-32.5 96v188h65v-173q0 -43 21 -64t55 -21q40 0 62.5 29.5t22.5 87.5v141h63z" />
    <glyph glyph-name="v.subs" horiz-adv-x="349" 
d="M337 196l-129 -306h-67l-129 306h73l89 -241l90 241h73z" />
    <glyph glyph-name="w.subs" horiz-adv-x="530" 
d="M518 196l-109 -306h-60l-84 226l-84 -226h-59l-110 306h66l74 -224l80 224h66l81 -224l73 224h66z" />
    <glyph glyph-name="x.subs" horiz-adv-x="355" 
d="M268 -110l-91 114l-91 -114h-74l126 158l-118 148h75l82 -104l82 104h75l-117 -148l126 -158h-75z" />
    <glyph glyph-name="y.subs" horiz-adv-x="347" 
d="M269 196h66l-199 -438h-67l76 166l-133 272h75l90 -202z" />
    <glyph glyph-name="z.subs" horiz-adv-x="323" 
d="M288 196l-1 -50l-183 -200h194v-56h-273v51l181 199h-168v56h250z" />
    <glyph glyph-name="a.sups" horiz-adv-x="411" 
d="M186 338q-65 0 -109.5 44.5t-44.5 118.5t44.5 118.5t109.5 44.5q84 0 117 -66h2v56h64v-306h-64v56h-2q-33 -66 -117 -66zM200 396q45 0 75 29t30 76t-30 76t-75 29t-73 -28.5t-28 -76.5t28 -76.5t73 -28.5z" />
    <glyph glyph-name="b.sups" horiz-adv-x="416" 
d="M231 338q-84 0 -119 66h-2v-56h-63v462h63v-212h2q35 66 119 66q67 0 110 -43t43 -120t-43 -120t-110 -43zM215 396q45 0 73 28.5t28 76.5t-28 76.5t-73 28.5t-75 -29t-30 -76t30 -76t75 -29z" />
    <glyph glyph-name="c.sups" horiz-adv-x="335" 
d="M203 664q57 0 110 -30l-29 -53q-36 24 -78 24q-48 0 -78 -28.5t-30 -75.5t30 -75.5t78 -28.5q42 0 78 24l29 -53q-53 -30 -110 -30q-76 0 -123.5 45t-47.5 118t47.5 118t123.5 45z" />
    <glyph glyph-name="d.sups" horiz-adv-x="416" 
d="M184 338q-67 0 -109.5 43t-42.5 120t42.5 120t109.5 43q86 0 119 -66h2v212h64v-462h-64v56h-2q-33 -66 -119 -66zM200 396q45 0 75 29t30 76t-30 76t-75 29t-73 -28.5t-28 -76.5t28 -76.5t73 -28.5z" />
    <glyph glyph-name="e.sups" horiz-adv-x="376" 
d="M192 664q71 0 111 -46t40 -119v-13h-247q4 -45 32.5 -67.5t71.5 -22.5q25 0 47 8.5t31 15.5t24 21l32 -47q-58 -56 -133 -56q-78 0 -123.5 44.5t-45.5 118.5q0 73 45 118t115 45zM190 609q-37 0 -62.5 -20t-30.5 -60h181q-3 38 -26 59t-62 21z" />
    <glyph glyph-name="f.sups" horiz-adv-x="242" 
d="M215 757q-37 0 -54 -15.5t-17 -54.5v-33h80v-53h-80v-253h-63v253h-64v53h64v37q0 63 33 94.5t94 31.5h17v-60h-10z" />
    <glyph glyph-name="g.sups" horiz-adv-x="408" 
d="M216 207q-63 0 -140 16l11 61q79 -17 128 -17q50 0 70 23t20 77v37h-2q-33 -66 -119 -66q-67 0 -109.5 43t-42.5 120t42.5 120t109.5 43q86 0 119 -66h2v56h64v-306q-2 -66 -41 -103.5t-112 -37.5zM200 396q45 0 75 29t30 76t-30 76t-75 29t-73 -28.5t-28 -76.5t28 -76.5
t73 -28.5z" />
    <glyph glyph-name="h.sups" horiz-adv-x="383" 
d="M110 810v-212h2q33 66 111 66q52 0 85 -32.5t33 -96.5v-187h-63v168q0 89 -79 89q-38 0 -63.5 -25.5t-25.5 -82.5v-149h-63v462h63z" />
    <glyph glyph-name="i.sups" horiz-adv-x="178" 
d="M127 810v-88h-77v88h77zM120 654v-306h-63v306h63z" />
    <glyph glyph-name="j.sups" horiz-adv-x="181" 
d="M131 810v-88h-76v88h76zM125 654v-328q0 -112 -104 -112h-24v60h15q49 0 49 53v327h64z" />
    <glyph glyph-name="k.sups" horiz-adv-x="346" 
d="M110 810v-288l122 132h85l-138 -140l155 -166h-87l-137 152v-152h-63v462h63z" />
    <glyph glyph-name="l.sups" horiz-adv-x="157" 
d="M110 810v-462h-63v462h63z" />
    <glyph glyph-name="m.sups" horiz-adv-x="566" 
d="M414 664q50 0 80 -31t30 -88v-197h-63v179q0 78 -69 78q-77 0 -77 -103v-154h-63v170q0 87 -70 87q-77 0 -77 -110v-147h-63v306h61v-53h2q31 63 101 63q74 0 101 -69h2q28 69 105 69z" />
    <glyph glyph-name="n.sups" horiz-adv-x="378" 
d="M216 664q54 0 87 -34t33 -100v-182h-63v168q0 44 -21.5 66.5t-58.5 22.5q-38 0 -63 -25.5t-25 -82.5v-149h-63v306h61v-58h2q34 68 111 68z" />
    <glyph glyph-name="o.sups" horiz-adv-x="405" 
d="M203 664q73 0 121.5 -44.5t48.5 -118.5t-48.5 -118.5t-121.5 -44.5q-74 0 -122.5 44.5t-48.5 118.5t48.5 118.5t122.5 44.5zM203 605q-45 0 -75 -28t-30 -76t30 -76t75 -28q44 0 74 28t30 76t-30 76t-74 28z" />
    <glyph glyph-name="p.sups" horiz-adv-x="411" 
d="M42 216v438h63v-56h2q35 66 119 66q67 0 110 -43t43 -120t-43 -120t-110 -43q-84 0 -119 66h-2v-188h-63zM210 396q45 0 73 28.5t28 76.5t-28 76.5t-73 28.5t-75 -29t-30 -76t30 -76t75 -29z" />
    <glyph glyph-name="q.sups" horiz-adv-x="411" 
d="M305 216v188h-2q-33 -66 -119 -66q-67 0 -109.5 43t-42.5 120t42.5 120t109.5 43q86 0 119 -66h2v56h64v-438h-64zM200 396q45 0 75 29t30 76t-30 76t-75 29t-73 -28.5t-28 -76.5t28 -76.5t73 -28.5z" />
    <glyph glyph-name="r.sups" horiz-adv-x="227" 
d="M215 662v-66h-14q-51 0 -73.5 -25.5t-22.5 -83.5v-139h-63v306h61v-62h2q10 32 37.5 51t64.5 19h8z" />
    <glyph glyph-name="s.sups" horiz-adv-x="304" 
d="M164 664q53 0 106 -25l-27 -53q-44 23 -83 23q-44 0 -44 -28q0 -19 36 -37l59 -28q33 -16 49.5 -35.5t16.5 -51.5q0 -44 -30.5 -67.5t-86.5 -23.5q-70 0 -133 36l29 54q56 -34 107 -34t51 30q0 20 -32 35l-59 29q-70 34 -70 91q0 40 28.5 62.5t82.5 22.5z" />
    <glyph glyph-name="t.sups" horiz-adv-x="241" 
d="M216 599h-70v-151q0 -40 37 -40h19v-60h-31q-88 0 -88 94v157h-66v55h66v121h63v-121h70v-55z" />
    <glyph glyph-name="u.sups" horiz-adv-x="379" 
d="M331 654v-306h-61v55h-2q-32 -65 -107 -65q-54 0 -86.5 32t-32.5 96v188h65v-173q0 -43 21 -64t55 -21q40 0 62.5 29.5t22.5 87.5v141h63z" />
    <glyph glyph-name="v.sups" horiz-adv-x="349" 
d="M337 654l-129 -306h-67l-129 306h73l89 -241l90 241h73z" />
    <glyph glyph-name="w.sups" horiz-adv-x="530" 
d="M518 654l-109 -306h-60l-84 226l-84 -226h-59l-110 306h66l74 -224l80 224h66l81 -224l73 224h66z" />
    <glyph glyph-name="x.sups" horiz-adv-x="355" 
d="M268 348l-91 114l-91 -114h-74l126 158l-118 148h75l82 -104l82 104h75l-117 -148l126 -158h-75z" />
    <glyph glyph-name="y.sups" horiz-adv-x="347" 
d="M269 654h66l-199 -438h-67l76 166l-133 272h75l90 -202z" />
    <glyph glyph-name="z.sups" horiz-adv-x="323" 
d="M288 654l-1 -50l-183 -200h194v-56h-273v51l181 199h-168v56h250z" />
    <glyph glyph-name="zero.subs" horiz-adv-x="430" 
d="M215 -120q-81 0 -129 61t-48 172t48 171.5t129 60.5t129 -60.5t48 -171.5t-48 -172t-129 -61zM215 -56q50 0 80 45.5t30 123.5q0 79 -29.5 124t-80.5 45t-80.5 -45t-29.5 -124t29.5 -124t80.5 -45z" />
    <glyph glyph-name="one.subs" horiz-adv-x="233" 
d="M88 -110v380h-31v66h101v-446h-70z" />
    <glyph glyph-name="two.subs" horiz-adv-x="372" 
d="M39 -110v58l170 165q60 55 60 104q0 30 -21 48.5t-58 18.5q-36 0 -60.5 -19t-25.5 -60h-66q1 70 42.5 105.5t111.5 35.5q69 0 106.5 -34.5t37.5 -93.5q0 -72 -73 -141l-130 -124h207v-63h-301z" />
    <glyph glyph-name="three.subs" horiz-adv-x="392" 
d="M192 -120q-69 0 -111.5 31.5t-43.5 98.5h66q6 -68 92 -68q94 0 94 78q0 43 -30.5 59.5t-95.5 16.5v55q55 1 82 16.5t27 50.5q0 65 -77 65q-83 0 -86 -67h-66q1 60 41.5 94.5t111.5 34.5q68 0 106 -31t38 -83q0 -38 -21 -65.5t-63 -35.5v-2q99 -14 99 -113
q0 -60 -40 -97.5t-123 -37.5z" />
    <glyph glyph-name="four.subs" horiz-adv-x="406" 
d="M376 37v-65h-57v-82h-63v82h-236v54l228 310h71v-299h57zM97 37h159v212h-3z" />
    <glyph glyph-name="five.subs" horiz-adv-x="392" 
d="M192 -120q-109 0 -157 85l50 42q37 -66 109 -66q46 0 69 25.5t23 69.5q0 45 -24.5 67.5t-65.5 22.5q-55 0 -86 -43h-56l30 253h234v-64h-183l-16 -120h2q39 30 88 30q62 0 103.5 -38.5t41.5 -110.5q0 -71 -42.5 -112t-119.5 -41z" />
    <glyph glyph-name="six.subs" horiz-adv-x="390" 
d="M196 -120q-68 0 -116 43t-48 117q0 83 71 174l101 130h85l-165 -191l2 -1q36 36 87 36q63 0 105 -41t42 -114q0 -64 -44.5 -108.5t-119.5 -44.5zM198 -58q42 0 69 25.5t27 69.5t-27.5 69t-68.5 25q-42 0 -70 -25.5t-28 -68.5q0 -44 27.5 -69.5t70.5 -25.5z" />
    <glyph glyph-name="seven.subs" horiz-adv-x="337" 
d="M46 -110l191 380h-220v66h293v-62l-191 -384h-73z" />
    <glyph glyph-name="eight.subs" horiz-adv-x="402" 
d="M201 -120q-79 0 -121 35.5t-42 95.5q0 47 24 76t64 39v2q-33 9 -54 36t-21 65q0 53 39.5 84.5t110.5 31.5t110.5 -31.5t39.5 -84.5q0 -38 -20.5 -65t-53.5 -36v-2q87 -23 87 -115q0 -60 -42 -95.5t-121 -35.5zM201 155q37 0 59.5 18.5t22.5 48.5q0 33 -22.5 50.5
t-59.5 17.5t-59 -17.5t-22 -50.5q0 -30 22 -48.5t59 -18.5zM201 -62q43 0 69 21.5t26 58.5q0 35 -25.5 58t-69.5 23t-69.5 -23t-25.5 -58q0 -37 26 -58.5t69 -21.5z" />
    <glyph glyph-name="nine.subs" horiz-adv-x="389" 
d="M104 -110l161 180l-2 2q-40 -32 -90 -32q-60 0 -101.5 42.5t-41.5 106.5q0 67 45.5 111.5t117.5 44.5t119 -43.5t47 -117.5q0 -91 -78 -183l-94 -111h-83zM194 96q42 0 69.5 25.5t27.5 68.5t-27.5 68.5t-68.5 25.5q-42 0 -70 -26t-28 -69q0 -42 27.5 -67.5t69.5 -25.5z
" />
    <glyph glyph-name="zero.dnom" horiz-adv-x="384" 
d="M193 395q73 0 117 -53t44 -148t-44 -149t-117 -54q-74 0 -118 53.5t-44 149.5q0 95 44 148t118 53zM192 349q-52 0 -82 -42.5t-30 -112.5q0 -71 30 -113.5t82 -42.5t82 42.5t30 113.5q0 70 -30 112.5t-82 42.5z" />
    <glyph glyph-name="one.dnom" horiz-adv-x="200" 
d="M130 386v-386h-47v339h-43v47h90z" />
    <glyph glyph-name="two.dnom" horiz-adv-x="334" 
d="M170 395q60 0 91 -30.5t31 -79.5q0 -60 -66 -124l-116 -115h183v-46h-252v42l146 146q55 55 55 97q0 27 -19 45t-53 18q-72 0 -79 -71h-48q2 57 36 87.5t91 30.5z" />
    <glyph glyph-name="three.dnom" horiz-adv-x="348" 
d="M173 395q59 0 90.5 -26.5t31.5 -72.5q0 -70 -75 -88v-1q88 -12 88 -100q0 -52 -34 -84t-105 -32q-61 0 -97 29.5t-39 83.5h49q8 -66 87 -66q90 0 90 72q0 40 -29.5 55.5t-85.5 15.5v45q102 2 102 64q0 58 -74 58q-80 0 -83 -66h-48q6 113 132 113z" />
    <glyph glyph-name="four.dnom" horiz-adv-x="354" 
d="M327 119v-44h-48v-75h-48v75h-206v43l192 268h62v-267h48zM78 119h153v213h-2z" />
    <glyph glyph-name="five.dnom" horiz-adv-x="337" 
d="M180 254q49 0 85.5 -33.5t36.5 -96.5t-37.5 -98t-99.5 -35q-97 0 -135 78l39 27q32 -58 97 -58q41 0 64 23t23 63t-23.5 62.5t-58.5 22.5q-53 0 -80 -37h-43l26 214h199v-46h-163l-15 -119h3q28 33 82 33z" />
    <glyph glyph-name="six.dnom" horiz-adv-x="343" 
d="M175 -9q-60 0 -100 36t-40 103q0 49 17 84.5t50 74.5l86 106h60l-144 -170l1 -2q35 33 81 33q54 0 90.5 -35t36.5 -94q0 -60 -38 -98t-100 -38zM175 38q40 0 64.5 23t24.5 64q0 40 -25 63.5t-64 23.5q-40 0 -65.5 -23.5t-25.5 -63.5q0 -41 25.5 -64t65.5 -23z" />
    <glyph glyph-name="seven.dnom" horiz-adv-x="287" 
d="M267 386v-45l-172 -341h-51l172 339h-196v47h247z" />
    <glyph glyph-name="eight.dnom" horiz-adv-x="356" 
d="M178 -9q-64 0 -99.5 32t-35.5 81q0 80 75 100v2q-63 19 -63 88q0 45 32.5 73t90.5 28t91 -28t33 -73q0 -69 -64 -88v-2q75 -20 75 -100q0 -50 -35 -81.5t-100 -31.5zM178 227q34 0 54 17t20 45q0 27 -20.5 43t-53.5 16t-53.5 -16t-20.5 -43q0 -28 20 -45t54 -17zM178 38
q42 0 64.5 18.5t22.5 53.5q0 34 -23 53t-64 19q-40 0 -63 -19t-23 -53q0 -35 22.5 -53.5t63.5 -18.5z" />
    <glyph glyph-name="nine.dnom" horiz-adv-x="341" 
d="M95 0l144 168l-1 1q-47 -36 -86 -36q-53 0 -87.5 36t-34.5 91q0 58 37 96t102 38q62 0 99.5 -36.5t37.5 -103.5q0 -76 -57 -144l-92 -110h-62zM168 176q41 0 65 23.5t24 63.5t-23.5 62.5t-63.5 22.5q-41 0 -66 -24t-25 -64q0 -38 24 -61t65 -23z" />
    <glyph glyph-name="zero.numr" horiz-adv-x="384" 
d="M193 684q73 0 117 -53t44 -148t-44 -149t-117 -54q-74 0 -118 53.5t-44 149.5q0 95 44 148t118 53zM192 638q-52 0 -82 -42.5t-30 -112.5q0 -71 30 -113.5t82 -42.5t82 42.5t30 113.5q0 70 -30 112.5t-82 42.5z" />
    <glyph glyph-name="one.numr" horiz-adv-x="200" 
d="M130 675v-386h-47v339h-43v47h90z" />
    <glyph glyph-name="two.numr" horiz-adv-x="334" 
d="M170 684q60 0 91 -30.5t31 -79.5q0 -60 -66 -124l-116 -115h183v-46h-252v42l146 146q55 55 55 97q0 27 -19 45t-53 18q-72 0 -79 -71h-48q2 57 36 87.5t91 30.5z" />
    <glyph glyph-name="three.numr" horiz-adv-x="348" 
d="M173 684q59 0 90.5 -26.5t31.5 -72.5q0 -70 -75 -88v-1q88 -12 88 -100q0 -52 -34 -84t-105 -32q-61 0 -97 29.5t-39 83.5h49q7 -66 87 -66q90 0 90 72q0 40 -29.5 55.5t-85.5 15.5v45q102 2 102 64q0 58 -74 58q-80 0 -83 -66h-48q6 113 132 113z" />
    <glyph glyph-name="four.numr" horiz-adv-x="354" 
d="M327 408v-44h-48v-75h-48v75h-206v43l192 268h62v-267h48zM78 408h153v213h-2z" />
    <glyph glyph-name="five.numr" horiz-adv-x="337" 
d="M180 543q49 0 85.5 -33.5t36.5 -96.5t-37.5 -98t-99.5 -35q-97 0 -135 78l39 27q32 -58 97 -58q41 0 64 23t23 63t-23.5 62.5t-58.5 22.5q-53 0 -80 -37h-43l26 214h199v-46h-163l-15 -119h3q28 33 82 33z" />
    <glyph glyph-name="six.numr" horiz-adv-x="343" 
d="M175 280q-60 0 -100 36t-40 103q0 49 17 84.5t50 74.5l86 106h60l-144 -170l1 -2q34 33 81 33q54 0 90.5 -35t36.5 -94q0 -60 -38 -98t-100 -38zM175 327q40 0 64.5 23t24.5 64q0 40 -25 63.5t-64 23.5q-40 0 -65.5 -23.5t-25.5 -63.5q0 -41 25.5 -64t65.5 -23z" />
    <glyph glyph-name="seven.numr" horiz-adv-x="287" 
d="M267 675v-45l-172 -341h-51l172 339h-196v47h247z" />
    <glyph glyph-name="eight.numr" horiz-adv-x="356" 
d="M178 280q-64 0 -99.5 32t-35.5 81q0 80 75 100v2q-63 19 -63 88q0 45 32.5 73t90.5 28t91 -28t33 -73q0 -69 -64 -88v-2q75 -20 75 -100q0 -50 -35 -81.5t-100 -31.5zM178 516q34 0 54 17t20 45q0 27 -20.5 43t-53.5 16t-53.5 -16t-20.5 -43q0 -28 20 -45t54 -17z
M178 327q42 0 64.5 18.5t22.5 53.5q0 34 -23 53t-64 19q-40 0 -63 -19t-23 -53q0 -35 22.5 -53.5t63.5 -18.5z" />
    <glyph glyph-name="nine.numr" horiz-adv-x="341" 
d="M95 289l144 168l-1 1q-47 -36 -86 -36q-53 0 -87.5 36t-34.5 91q0 58 37 96t102 38q62 0 99.5 -36.5t37.5 -103.5q0 -76 -57 -144l-92 -110h-62zM168 465q41 0 65 23.5t24 63.5t-23.5 62.5t-63.5 22.5q-41 0 -66 -24t-25 -64q0 -38 24 -61t65 -23z" />
    <glyph glyph-name="zero.sups" horiz-adv-x="430" 
d="M215 338q-81 0 -129 61t-48 172t48 171.5t129 60.5t129 -60.5t48 -171.5t-48 -172t-129 -61zM215 402q50 0 80 45.5t30 123.5q0 79 -29.5 124t-80.5 45t-80.5 -45t-29.5 -124t29.5 -124t80.5 -45z" />
    <glyph glyph-name="one.sups" horiz-adv-x="233" 
d="M88 348v380h-31v66h101v-446h-70z" />
    <glyph glyph-name="two.sups" horiz-adv-x="372" 
d="M39 348v58l170 165q60 55 60 104q0 30 -21 48.5t-58 18.5q-36 0 -60.5 -19t-25.5 -60h-66q1 70 42.5 105.5t111.5 35.5q69 0 106.5 -34.5t37.5 -93.5q0 -72 -73 -141l-130 -124h207v-63h-301z" />
    <glyph glyph-name="three.sups" horiz-adv-x="392" 
d="M192 338q-69 0 -111.5 31.5t-43.5 98.5h66q6 -68 92 -68q94 0 94 78q0 43 -30.5 59.5t-95.5 16.5v55q55 1 82 16.5t27 50.5q0 65 -77 65q-83 0 -86 -67h-66q1 60 41.5 94.5t111.5 34.5q68 0 106 -31t38 -83q0 -38 -21 -65.5t-63 -35.5v-2q99 -14 99 -113q0 -60 -40 -97.5
t-123 -37.5z" />
    <glyph glyph-name="four.sups" horiz-adv-x="406" 
d="M376 495v-65h-57v-82h-63v82h-236v54l228 310h71v-299h57zM97 495h159v212h-3z" />
    <glyph glyph-name="five.sups" horiz-adv-x="392" 
d="M192 338q-109 0 -157 85l50 42q37 -66 109 -66q46 0 69 25.5t23 69.5q0 45 -24.5 67.5t-65.5 22.5q-55 0 -86 -43h-56l30 253h234v-64h-183l-16 -120h2q39 30 88 30q62 0 103.5 -38.5t41.5 -110.5q0 -71 -42.5 -112t-119.5 -41z" />
    <glyph glyph-name="six.sups" horiz-adv-x="390" 
d="M196 338q-68 0 -116 43t-48 117q0 83 71 174l101 130h85l-165 -191l2 -1q36 36 87 36q63 0 105 -41t42 -114q0 -64 -44.5 -108.5t-119.5 -44.5zM198 400q42 0 69 25.5t27 69.5t-27.5 69t-68.5 25q-42 0 -70 -25.5t-28 -68.5q0 -44 27.5 -69.5t70.5 -25.5z" />
    <glyph glyph-name="seven.sups" horiz-adv-x="337" 
d="M46 348l191 380h-220v66h293v-62l-191 -384h-73z" />
    <glyph glyph-name="eight.sups" horiz-adv-x="402" 
d="M201 338q-79 0 -121 35.5t-42 95.5q0 47 24 76t64 39v2q-33 9 -54 36t-21 65q0 53 39.5 84.5t110.5 31.5t110.5 -31.5t39.5 -84.5q0 -38 -20.5 -65t-53.5 -36v-2q87 -23 87 -115q0 -60 -42 -95.5t-121 -35.5zM201 613q37 0 59.5 18.5t22.5 48.5q0 33 -22.5 50.5
t-59.5 17.5t-59 -17.5t-22 -50.5q0 -30 22 -48.5t59 -18.5zM201 396q43 0 69 21.5t26 58.5q0 35 -25.5 58t-69.5 23t-69.5 -23t-25.5 -58q0 -37 26 -58.5t69 -21.5z" />
    <glyph glyph-name="nine.sups" horiz-adv-x="389" 
d="M104 348l161 180l-2 2q-40 -32 -90 -32q-60 0 -101.5 42.5t-41.5 106.5q0 67 45.5 111.5t117.5 44.5t119 -43.5t47 -117.5q0 -91 -78 -183l-94 -111h-83zM194 554q42 0 69.5 25.5t27.5 68.5t-27.5 68.5t-68.5 25.5q-42 0 -70 -26t-28 -69q0 -42 27.5 -67.5t69.5 -25.5z
" />
    <glyph glyph-name="colon.case" horiz-adv-x="213" 
d="M158 518v-103h-103v103h103zM158 103v-103h-103v103h103z" />
    <glyph glyph-name="exclamdown.case" horiz-adv-x="303" 
d="M100 598v103h103v-103h-103zM109 1l17 494h50l17 -494h-84z" />
    <glyph glyph-name="questiondown.case" horiz-adv-x="430" 
d="M180 597v103h102v-103h-102zM215 -15q-91 0 -143 49.5t-52 131.5q0 51 21 87t58 72q4 4 19 17.5t20 18.5l17 17t16.5 20t11 20.5t9 25t2.5 26.5v24h72v-29q0 -19 -3 -35t-10.5 -32t-13 -26.5t-19 -25.5t-19.5 -21.5t-23.5 -23t-22.5 -21.5q-59 -57 -59 -116
q0 -47 30 -77.5t89 -30.5q61 0 96 35t35 95h74q0 -94 -55 -147.5t-150 -53.5z" />
    <glyph glyph-name="semicolon.case" horiz-adv-x="213" 
d="M158 518v-103h-103v103h103zM158 103v-103l-63 -142h-40l50 142h-49v103h102z" />
    <glyph glyph-name="periodcentered.ss01" horiz-adv-x="236" 
d="M118 477q27 0 45 -18t18 -45t-18 -45t-45 -18t-45 18t-18 45t18 45t45 18z" />
    <glyph glyph-name="colon.case.ss01" horiz-adv-x="213" 
d="M106 524q27 0 45 -18t18 -45t-18 -45t-45 -18t-45 18t-18 45t18 45t45 18zM106 116q27 0 45 -18t18 -45t-18 -45t-45 -18t-45 18t-18 45t18 45t45 18z" />
    <glyph glyph-name="exclamdown.case.ss01" horiz-adv-x="303" 
d="M152 584q-27 0 -45 18t-18 45t18 45t45 18t45 -18t18 -45t-18 -45t-45 -18zM110 0l17 494h50l17 -494h-84z" />
    <glyph glyph-name="questiondown.case.ss01" horiz-adv-x="430" 
d="M231 584q-27 0 -45 18t-18 45t18 45t45 18t45 -18t18 -45t-18 -45t-45 -18zM217 -15q-91 0 -144 50t-53 131q0 51 21 87t58 72q4 4 19 17.5t20 18.5l17 17t16.5 20t11 20.5t9 25t2.5 26.5v24h72v-29q0 -19 -2.5 -35t-10.5 -32l-13 -26t-20 -26t-19.5 -21.5t-23.5 -23.5
t-23 -21q-59 -59 -59 -116q0 -46 31.5 -77t90.5 -31q60 0 94.5 35t34.5 95h74q0 -94 -55 -147.5t-148 -53.5z" />
    <glyph glyph-name="semicolon.case.ss01" horiz-adv-x="213" 
d="M107 524q27 0 45 -18t18 -45t-18 -45t-45 -18t-45 18t-18 45t18 45t45 18zM170 51q0 -20 -13 -44l-75 -143h-37l46 127q-23 5 -35.5 21.5t-12.5 38.5q0 27 18 45t45 18q28 0 46 -18t18 -45z" />
    <glyph glyph-name="colon.ss01" horiz-adv-x="213" 
d="M106 477q27 0 45 -18t18 -45t-18 -45t-45 -18t-45 18t-18 45t18 45t45 18zM106 116q27 0 45 -18t18 -45t-18 -45t-45 -18t-45 18t-18 45t18 45t45 18z" />
    <glyph glyph-name="comma.ss01" horiz-adv-x="213" 
d="M169 51q0 -20 -13 -44l-75 -143h-37l46 127q-23 5 -35.5 21.5t-12.5 38.5q0 27 18 45t45 18q28 0 46 -18t18 -45z" />
    <glyph glyph-name="ellipsis.ss01" horiz-adv-x="685" 
d="M106 116q27 0 45 -18t18 -45t-18 -45t-45 -18t-45 18t-18 45t18 45t45 18zM342 116q27 0 45 -18t18 -45t-18 -45t-45 -18t-45 18t-18 45t18 45t45 18zM578 116q27 0 45 -18t18 -45t-18 -45t-45 -18t-45 18t-18 45t18 45t45 18z" />
    <glyph glyph-name="exclam.ss01" horiz-adv-x="303" 
d="M193 700l-17 -494h-50l-17 494h84zM151 116q27 0 45 -18t18 -45t-18 -45t-45 -18t-45 18t-18 45t18 45t45 18z" />
    <glyph glyph-name="exclamdown.ss01" horiz-adv-x="303" 
d="M152 383q-27 0 -45 18t-18 45t18 45t45 18t45 -18t18 -45t-18 -45t-45 -18zM110 -201l17 494h50l17 -494h-84z" />
    <glyph glyph-name="period.ss01" horiz-adv-x="213" 
d="M106 116q27 0 45 -18t18 -45t-18 -45t-45 -18t-45 18t-18 45t18 45t45 18z" />
    <glyph glyph-name="question.ss01" horiz-adv-x="470" 
d="M233 715q91 0 144 -50t53 -131q0 -51 -21 -87t-58 -72q-4 -4 -19 -17.5t-20 -18.5l-17 -17t-16.5 -20t-11 -20.5t-9 -25t-2.5 -26.5v-24h-72v29q0 19 2.5 35t10.5 32l13 26t20 26t19.5 21.5t23.5 23.5t23 21q59 59 59 116q0 46 -31.5 77t-90.5 31q-60 0 -94.5 -35
t-34.5 -95h-74q0 94 55 147.5t148 53.5zM219 116q27 0 45 -18t18 -45t-18 -45t-45 -18t-45 18t-18 45t18 45t45 18z" />
    <glyph glyph-name="questiondown.ss01" horiz-adv-x="410" 
d="M231 383q-27 0 -45 18t-18 45t18 45t45 18t45 -18t18 -45t-18 -45t-45 -18zM217 -216q-91 0 -144 50t-53 131q0 51 21 87t58 72q4 4 19 17.5t20 18.5l17 17t16.5 20t11 20.5t9 25t2.5 26.5v24h72v-29q0 -19 -2.5 -35t-10.5 -32l-13 -26t-20 -26t-19.5 -21.5t-23.5 -23.5
t-23 -21q-59 -59 -59 -116q0 -46 31.5 -77t90.5 -31q60 0 94.5 35t34.5 95h74q0 -94 -55 -147.5t-148 -53.5z" />
    <glyph glyph-name="semicolon.ss01" horiz-adv-x="213" 
d="M106 477q27 0 45 -18t18 -45t-18 -45t-45 -18t-45 18t-18 45t18 45t45 18zM169 51q0 -20 -13 -44l-75 -143h-37l46 127q-23 5 -35.5 21.5t-12.5 38.5q0 27 18 45t45 18q28 0 46 -18t18 -45z" />
    <glyph glyph-name="colon.tf.ss01" horiz-adv-x="300" 
d="M149 477q27 0 45 -18t18 -45t-18 -45t-45 -18t-45 18t-18 45t18 45t45 18zM149 116q27 0 45 -18t18 -45t-18 -45t-45 -18t-45 18t-18 45t18 45t45 18z" />
    <glyph glyph-name="comma.tf.ss01" horiz-adv-x="300" 
d="M215 51q0 -21 -14 -44l-75 -143h-37l46 127q-22 5 -35 22t-13 38q0 27 18 45t46 18t46 -18t18 -45z" />
    <glyph glyph-name="period.tf.ss01" horiz-adv-x="300" 
d="M150 116q27 0 45 -18t18 -45t-18 -45t-45 -18t-45 18t-18 45t18 45t45 18z" />
    <glyph glyph-name="semicolon.tf.ss01" horiz-adv-x="300" 
d="M151 477q27 0 45 -18t18 -45t-18 -45t-45 -18t-45 18t-18 45t18 45t45 18zM214 51q0 -20 -13 -44l-75 -143h-37l46 127q-23 5 -35.5 21.5t-12.5 38.5q0 27 18 45t45 18q28 0 46 -18t18 -45z" />
    <glyph glyph-name="colon.tf" horiz-adv-x="300" 
d="M201 462v-103h-103v103h103zM201 103v-103h-103v103h103z" />
    <glyph glyph-name="comma.tf" horiz-adv-x="300" 
d="M202 103v-103l-64 -142h-40l50 142h-49v103h103z" />
    <glyph glyph-name="period.tf" horiz-adv-x="300" 
d="M201 103v-103h-103v103h103z" />
    <glyph glyph-name="semicolon.tf" horiz-adv-x="300" 
d="M202 462v-103h-103v103h103zM201 103v-103l-63 -142h-40l50 142h-49v103h102z" />
    <glyph glyph-name="slash.tf" 
d="M503 777l57 -32l-463 -838l-58 31z" />
    <glyph glyph-name="underscore.tf" 
d="M600 -15v-62h-600v62h600z" />
    <glyph glyph-name="braceleft.case" horiz-adv-x="377" 
d="M367 815v-65h-27q-50 0 -78 -28t-28 -98v-129q0 -65 -23.5 -100.5t-77.5 -48.5v-2q54 -13 77.5 -48.5t23.5 -100.5v-149q0 -71 28 -98.5t78 -27.5h27v-65h-31q-80 0 -127.5 44.5t-47.5 143.5v159q0 100 -126 106v74q126 6 126 106v139q0 99 47.5 143.5t127.5 44.5h31z
" />
    <glyph glyph-name="braceright.case" horiz-adv-x="377" 
d="M10 -145v65h27q49 0 77.5 27.5t28.5 98.5v149q0 65 23.5 100.5t77.5 48.5v2q-54 13 -77.5 48.5t-23.5 100.5v129q0 70 -28 98t-78 28h-27v65h31q79 0 127 -44.5t48 -143.5v-139q0 -100 126 -106v-74q-126 -6 -126 -106v-159q0 -99 -48 -143.5t-127 -44.5h-31z" />
    <glyph glyph-name="bracketleft.case" horiz-adv-x="317" 
d="M307 821v-66h-129v-835h129v-65h-201v966h201z" />
    <glyph glyph-name="bracketright.case" horiz-adv-x="317" 
d="M10 -145v65h129v835h-129v66h201v-966h-201z" />
    <glyph glyph-name="parenleft.case" horiz-adv-x="283" 
d="M210 833l56 -41q-79 -104 -115.5 -209.5t-36.5 -233.5q0 -130 36 -239t113 -214l-55 -41q-81 112 -123.5 228.5t-42.5 265.5q0 148 42.5 261.5t125.5 222.5z" />
    <glyph glyph-name="parenright.case" horiz-adv-x="283" 
d="M75 -145l-56 41q150 204 150 453q0 128 -36.5 233.5t-115.5 209.5l56 41q83 -109 125.5 -222.5t42.5 -261.5q0 -149 -42.5 -265.5t-123.5 -228.5z" />
    <glyph glyph-name="parenleft.tf" 
d="M355 763l56 -41q-78 -104 -114.5 -209.5t-36.5 -233.5q0 -130 36 -239t113 -214l-56 -41q-81 112 -123 228.5t-42 265.5q0 147 42.5 261t124.5 223z" />
    <glyph glyph-name="parenright.tf" 
d="M246 -215l-56 41q77 105 113 213.5t36 239.5q0 128 -36.5 234t-114.5 209l56 41q82 -109 124.5 -223t42.5 -261q0 -149 -42 -265.5t-123 -228.5z" />
    <glyph glyph-name="emdash.case" horiz-adv-x="1154" 
d="M1104 384v-66h-1054v66h1054z" />
    <glyph glyph-name="endash.case" horiz-adv-x="752" 
d="M702 384v-66h-652v66h652z" />
    <glyph glyph-name="hyphen.case" horiz-adv-x="347" 
d="M302 385v-72h-257v72h257z" />
    <glyph glyph-name="hyphen.tf" 
d="M475 305v-72h-351v72h351z" />
    <glyph glyph-name="guillemotleft.case" horiz-adv-x="413" 
d="M247 469l-145 -155l145 -155h-84l-143 155l143 155h84zM404 469l-145 -155l145 -155h-84l-143 155l143 155h84z" />
    <glyph glyph-name="guillemotright.case" horiz-adv-x="413" 
d="M10 469h84l143 -155l-143 -155h-84l145 155zM166 469h84l143 -155l-143 -155h-84l145 155z" />
    <glyph glyph-name="guilsinglleft.case" horiz-adv-x="257" 
d="M247 469l-145 -155l145 -155h-84l-143 155l143 155h84z" />
    <glyph glyph-name="guilsinglright.case" horiz-adv-x="257" 
d="M10 469h84l143 -155l-143 -155h-84l145 155z" />
    <glyph glyph-name="quotedblbase.ss01" horiz-adv-x="296" 
d="M80 102q24 0 40.5 -16.5t16.5 -40.5q0 -18 -13 -45l-69 -135h-32l43 127q-20 3 -31.5 18.5t-11.5 35.5q0 23 16 39.5t41 16.5zM217 102q24 0 40.5 -16.5t16.5 -40.5q0 -18 -13 -45l-69 -135h-32l43 127q-20 3 -31.5 18.5t-11.5 35.5q0 23 16 39.5t41 16.5z" />
    <glyph glyph-name="quotedblleft.ss01" horiz-adv-x="296" 
d="M79 501q-24 0 -40.5 16.5t-16.5 40.5q0 18 13 45l69 135h32l-43 -127q20 -3 31.5 -18.5t11.5 -35.5q0 -23 -16 -39.5t-41 -16.5zM216 501q-24 0 -40.5 16.5t-16.5 40.5q0 18 13 45l69 135h32l-43 -127q20 -3 31.5 -18.5t11.5 -35.5q0 -23 -16 -39.5t-41 -16.5z" />
    <glyph glyph-name="quotedblright.ss01" horiz-adv-x="296" 
d="M80 718q24 0 40.5 -16.5t16.5 -40.5q0 -18 -13 -45l-69 -135h-32l43 127q-20 3 -31.5 18.5t-11.5 35.5q0 23 16 39.5t41 16.5zM217 718q24 0 40.5 -16.5t16.5 -40.5q0 -18 -13 -45l-69 -135h-32l43 127q-20 3 -31.5 18.5t-11.5 35.5q0 23 16 39.5t41 16.5z" />
    <glyph glyph-name="quoteleft.ss01" horiz-adv-x="167" 
d="M83 500q-24 0 -40.5 16.5t-16.5 40.5q0 18 13 45l69 135h32l-43 -127q20 -3 31.5 -18.5t11.5 -35.5q0 -23 -16 -39.5t-41 -16.5z" />
    <glyph glyph-name="quoteright.ss01" horiz-adv-x="167" 
d="M84 717q24 0 40.5 -16.5t16.5 -40.5q0 -18 -13 -45l-69 -135h-32l43 127q-20 3 -31.5 18.5t-11.5 35.5q0 23 16 39.5t41 16.5z" />
    <glyph glyph-name="quotesinglbase.ss01" horiz-adv-x="167" 
d="M84 102q24 0 40.5 -16.5t16.5 -40.5q0 -18 -13 -45l-69 -135h-32l43 127q-20 3 -31.5 18.5t-11.5 35.5q0 23 16 39.5t41 16.5z" />
    <glyph glyph-name="parenleft.dnom" horiz-adv-x="213" 
d="M132 426l40 -21q-70 -100 -70 -216q0 -128 71 -240l-40 -22q-76 127 -76 262q0 124 75 237z" />
    <glyph glyph-name="parenright.dnom" horiz-adv-x="213" 
d="M81 -73l-42 22q72 110 72 240q0 116 -70 216l40 21q75 -113 75 -237q0 -137 -75 -262z" />
    <glyph glyph-name="parenleft.numr" horiz-adv-x="213" 
d="M132 721l40 -21q-70 -100 -70 -216q0 -128 71 -240l-40 -22q-76 127 -76 262q0 124 75 237z" />
    <glyph glyph-name="parenright.numr" horiz-adv-x="213" 
d="M81 222l-42 22q72 110 72 240q0 116 -70 216l40 21q75 -113 75 -237q0 -137 -75 -262z" />
    <glyph glyph-name="parenleft.subs" horiz-adv-x="232" 
d="M143 385l47 -28q-76 -108 -76 -235q0 -141 77 -258l-48 -27q-85 136 -85 285q0 82 22 142.5t63 120.5z" />
    <glyph glyph-name="parenright.subs" horiz-adv-x="232" 
d="M89 -163l-48 27q77 117 77 258q0 127 -76 235l47 28q41 -62 63 -121.5t22 -141.5q0 -88 -22.5 -154t-62.5 -131z" />
    <glyph glyph-name="parenleft.sups" horiz-adv-x="232" 
d="M143 840l47 -28q-76 -108 -76 -235q0 -141 77 -258l-48 -27q-85 136 -85 285q0 82 22 142.5t63 120.5z" />
    <glyph glyph-name="parenright.sups" horiz-adv-x="232" 
d="M89 292l-48 27q77 117 77 258q0 127 -76 235l47 28q41 -62 63 -121.5t22 -141.5q0 -88 -22.5 -154t-62.5 -131z" />
    <glyph glyph-name="uni0E3F.tf" 
d="M397 336q53 -15 83 -55.5t30 -99.5q0 -86 -56 -133.5t-143 -47.5h-13v-87h-28v87h-180v675h180v87h28v-87h13q87 0 143 -47.5t56 -133.5q0 -59 -30 -99.5t-83 -55.5v-3zM270 607h-108v-237h108v237zM316 607h-18v-237q66 1 101.5 33.5t35.5 89.5q0 51 -34 82.5t-85 31.5z
M162 68h108v237h-108v-237zM316 68q51 0 85.5 31.5t34.5 82.5q0 57 -36 89.5t-102 33.5v-237h18z" />
    <glyph glyph-name="uni20B4.tf" 
d="M403 395q-7 -6 -21 -16l-71 -52h222v-30h-262l-7 -5q-86 -63 -86 -132q0 -46 33.5 -76t101.5 -30q74 0 194 60v-73q-99 -56 -203 -56q-95 0 -148 44.5t-53 128.5q0 75 61 139h-96v30h129q1 1 10.5 8t14.5 11l67 49h-221v30h262l4 3q73 56 73 112q0 36 -28 59t-82 23
q-58 0 -162 -43v72q94 39 170 39q86 0 131.5 -39.5t45.5 -107.5q0 -67 -46 -118h97v-30h-130z" />
    <glyph glyph-name="lira.tf" 
d="M487 327h69q0 -150 -87.5 -238.5t-228.5 -88.5h-68v303l-129 -56v31l129 56v56l-129 -56v31l129 56v254h72v-222l195 85v-31l-195 -85v-56l195 85v-31l-195 -85v-261q112 0 177.5 68t65.5 185z" />
    <glyph glyph-name="uni20BD.tf" 
d="M346 289h-128v-79h225v-30h-225v-180h-72v180h-102v30h102v79h-102v68h102v318h200q99 0 154.5 -54t55.5 -141q0 -86 -55 -138.5t-155 -52.5zM218 607v-250h128q63 0 99 31.5t36 92.5t-36.5 93.5t-98.5 32.5h-128z" />
    <glyph glyph-name="uni20B9.tf" 
d="M333 645q87 -49 94 -149h90l-22 -30h-67q-5 -82 -66 -131.5t-150 -49.5h-39l252 -285h-93l-249 285v69h127q64 0 101 31t41 81h-269v30h269q-5 49 -42.5 79.5t-99.5 30.5h-127v69h434l-22 -30h-162z" />
    <glyph glyph-name="uni20B8.tf" 
d="M54 675h491v-68h-491v68zM54 479v68h491v-68h-209v-479h-72v479h-210z" />
    <glyph glyph-name="uni20AE.tf" 
d="M545 607h-209v-164l140 72v-31l-140 -72v-56l140 72v-31l-140 -72v-325h-72v289l-140 -72v31l140 72v56l-140 -72v31l140 72v200h-210v68h491v-68z" />
    <glyph glyph-name="uni20A9.tf" 
d="M600 395h-61l-11 -68h72v-30h-77l-49 -297h-77l-50 297h-94l-50 -297h-76l-49 297h-78v30h73l-12 68h-61v30h56l-41 250h70l36 -250h101l42 250h72l42 -250h102l36 250h69l-41 -250h56v-30zM298 565l-24 -140h52l-24 140h-4zM125 395l10 -68h71l11 68h-92zM258 327h84
l-11 68h-62zM466 327l10 68h-93l12 -68h71zM169 108l32 189h-62l27 -189h3zM435 108l27 189h-62l32 -189h3z" />
    <glyph glyph-name="plus.case" 
d="M321 581v-224h223v-38h-223v-224h-42v224h-223v38h223v224h42z" />
    <glyph glyph-name="minus.case" 
d="M539 358v-40h-478v40h478z" />
    <glyph glyph-name="multiply.case" 
d="M484 551l29 -29l-184 -184l184 -184l-29 -29l-184 184l-184 -184l-29 29l184 184l-184 184l29 29l184 -184z" />
    <glyph glyph-name="divide.case" 
d="M335 530v-78h-70v78h70zM559 358v-39h-518v39h518zM335 225v-79h-70v79h70z" />
    <glyph glyph-name="equal.case" 
d="M553 448v-39h-506v39h506zM553 269v-39h-506v39h506z" />
    <glyph glyph-name="notequal.case" 
d="M553 409h-191l-83 -140h274v-39h-297l-61 -103h-39l61 103h-170v39h193l82 140h-275v39h298l60 102h40l-60 -102h168v-39z" />
    <glyph glyph-name="greater.case" 
d="M79 555l442 -195v-41l-442 -195v45l392 170l-392 170v46z" />
    <glyph glyph-name="less.case" 
d="M521 555v-46l-392 -170l392 -170v-45l-442 195v41z" />
    <glyph glyph-name="approxequal.case" 
d="M170 486q39 0 134 -37t125 -37q54 0 76 65h39q-14 -54 -44 -80.5t-70 -26.5t-134.5 37t-124.5 37q-54 0 -76 -66h-39q13 55 44 81.5t70 26.5zM170 332q39 0 134 -37t125 -37q54 0 76 66h39q-14 -54 -44 -80.5t-70 -26.5t-134.5 36.5t-124.5 36.5q-54 0 -76 -66h-39
q13 55 44 81.5t70 26.5z" />
    <glyph glyph-name="logicalnot.case" 
d="M71 472h458v-265h-42v225h-416v40z" />
    <glyph glyph-name="divide.ss01.case" 
d="M300 443q-18 0 -29.5 12t-11.5 30t11.5 29.5t29.5 11.5t29.5 -11.5t11.5 -29.5t-11.5 -30t-29.5 -12zM41 319v39h518v-39h-518zM300 151q-18 0 -29.5 11.5t-11.5 29.5q0 19 11.5 30.5t29.5 11.5t29.5 -11.5t11.5 -30.5q0 -18 -11.5 -29.5t-29.5 -11.5z" />
    <glyph glyph-name="divide.ss01" 
d="M300 403q-18 0 -29.5 12t-11.5 30t11.5 29.5t29.5 11.5t29.5 -11.5t11.5 -29.5t-11.5 -30t-29.5 -12zM41 279v39h518v-39h-518zM300 111q-18 0 -29.5 11.5t-11.5 29.5q0 19 11.5 30.5t29.5 11.5t29.5 -11.5t11.5 -30.5q0 -18 -11.5 -29.5t-29.5 -11.5z" />
    <glyph glyph-name="arrowup.case" horiz-adv-x="730" 
d="M680 421l-52 -52l-229 228v-596h-68v596l-229 -228l-52 52l315 300z" />
    <glyph glyph-name="uni2197.case" horiz-adv-x="644" 
d="M594 183h-74v324l-422 -422l-48 48l422 421l-324 1v73l435 -10z" />
    <glyph glyph-name="arrowright.case" horiz-adv-x="820" 
d="M470 686l300 -315l-300 -315l-52 52l228 229h-596v68h596l-228 229z" />
    <glyph glyph-name="uni2198.case" horiz-adv-x="643" 
d="M520 556l73 1l-10 -435l-435 -11v73l323 1l-421 421l48 48l421 -421z" />
    <glyph glyph-name="arrowdown.case" horiz-adv-x="730" 
d="M628 372l52 -52l-315 -300l-315 300l52 52l229 -228v596h68v-596z" />
    <glyph glyph-name="uni2199.case" horiz-adv-x="644" 
d="M172 186l323 -1l1 -73l-435 10l-11 435h74v-323l421 421l49 -48z" />
    <glyph glyph-name="arrowleft.case" horiz-adv-x="820" 
d="M770 404v-68h-596l228 -229l-52 -52l-300 315l300 315l52 -52l-228 -229h596z" />
    <glyph glyph-name="uni2196.case" horiz-adv-x="643" 
d="M593 134l-48 -48l-421 421l-1 -323l-73 -1l10 435l435 11v-73l-323 -1z" />
    <glyph glyph-name="arrowboth.case" horiz-adv-x="1259" 
d="M909 685l300 -315l-300 -315l-52 52l228 229h-911l228 -229l-52 -52l-300 315l300 315l52 -52l-228 -229h911l-228 229z" />
    <glyph glyph-name="at.case" horiz-adv-x="934" 
d="M479 760q179 0 292 -106t113 -281q0 -103 -43.5 -173t-119.5 -70q-87 0 -107 86h-3q-45 -95 -157 -95q-87 0 -146 60t-59 158q0 99 59 158.5t146 59.5q106 0 151 -89h2v74h64v-288q0 -36 16 -53t40 -17q46 0 71 51t25 134q0 156 -99 244.5t-245 88.5q-74 0 -139 -22.5
t-116.5 -66t-81.5 -114.5t-30 -161t33 -161t87.5 -113.5t119.5 -64t135 -21.5q109 0 202 44l24 -55q-114 -47 -227 -47q-80 0 -155 25t-139 73.5t-103 131t-39 186.5q0 199 120.5 311.5t308.5 112.5zM465 493q-66 0 -106 -43t-40 -110t39.5 -110t106.5 -43q66 0 106.5 43.5
t40.5 109.5t-40.5 109.5t-106.5 43.5z" />
    <glyph glyph-name="bar.case" horiz-adv-x="284" 
d="M174 807v-942h-64v942h64z" />
    <glyph glyph-name="brokenbar.case" horiz-adv-x="284" 
d="M174 807v-388h-64v388h64zM174 261v-396h-64v396h64z" />
    <glyph glyph-name="uniF8FF.ss01" horiz-adv-x="770" 
d="M385 -15q-159 0 -262 103.5t-103 261.5t103 261.5t262 103.5t262 -103.5t103 -261.5t-103 -261.5t-262 -103.5zM385 10q146 0 244 97t98 248l-51 65l-70 -30l-68 90l-79 -44l-74 118l-74 -118l-79 44l-68 -90l-70 30l-51 -65q0 -151 98 -248t244 -97zM282 318
q-15 0 -25 10t-10 25t10 25t25 10t25 -10t10 -25t-10 -25t-25 -10zM487 318q-15 0 -25 10t-10 25t10 25t25 10t25 -10t10 -25t-10 -25t-25 -10zM343 255l36 101q2 9 11 5q9 -2 5 -11l-28 -78h34q9 0 9 -9q0 -8 -9 -8h-58zM188 171q-30 0 -49.5 19.5t-19.5 49.5t19.5 49.5
t49.5 19.5t49.5 -19.5t19.5 -49.5t-19.5 -49.5t-49.5 -19.5zM581 171q-30 0 -49.5 19.5t-19.5 49.5t19.5 49.5t49.5 19.5t49.5 -19.5t19.5 -49.5t-19.5 -49.5t-49.5 -19.5zM385 195q45 0 62 30q3 6 9 6q8 0 8 -9q0 -14 -20.5 -29.5t-58.5 -15.5t-58.5 15.5t-20.5 29.5
q0 9 8 9q6 0 9 -6q17 -30 62 -30z" />
    <glyph glyph-name="bar.tf" horiz-adv-x="300" 
d="M182 727v-942h-64v942h64z" />
    <glyph glyph-name="plus.dnom" horiz-adv-x="361" 
d="M194 306v-109h109v-27h-109v-108h-27v108h-109v27h109v109h27z" />
    <glyph glyph-name="minus.dnom" horiz-adv-x="360" 
d="M299 198v-28h-238v28h238z" />
    <glyph glyph-name="equal.dnom" horiz-adv-x="361" 
d="M307 247v-26h-253v26h253zM307 148v-27h-253v27h253z" />
    <glyph glyph-name="plus.numr" horiz-adv-x="361" 
d="M194 601v-109h109v-27h-109v-108h-27v108h-109v27h109v109h27z" />
    <glyph glyph-name="minus.numr" horiz-adv-x="360" 
d="M299 493v-28h-238v28h238z" />
    <glyph glyph-name="equal.numr" horiz-adv-x="361" 
d="M307 542v-26h-253v26h253zM307 443v-27h-253v27h253z" />
    <glyph glyph-name="plus.subs" horiz-adv-x="390" 
d="M211 253v-119h119v-30h-119v-119h-32v119h-119v30h119v119h32z" />
    <glyph glyph-name="minus.subs" horiz-adv-x="390" 
d="M326 135v-32h-262v32h262z" />
    <glyph glyph-name="equal.subs" horiz-adv-x="390" 
d="M334 190v-31h-278v31h278zM334 79v-30h-278v30h278z" />
    <glyph glyph-name="plus.sups" horiz-adv-x="390" 
d="M211 708v-119h119v-30h-119v-119h-32v119h-119v30h119v119h32z" />
    <glyph glyph-name="minus.sups" horiz-adv-x="390" 
d="M326 590v-32h-262v32h262z" />
    <glyph glyph-name="equal.sups" horiz-adv-x="390" 
d="M334 645v-31h-278v31h278zM334 534v-30h-278v30h278z" />
    <glyph glyph-name="uni0308.case" horiz-adv-x="0" 
d="M-249 843v-100h-83v100h83zM-50 843v-100h-83v100h83z" />
    <glyph glyph-name="uni0307.case" horiz-adv-x="0" 
d="M-50 850v-107h-83v107h83z" />
    <glyph glyph-name="gravecomb.case" horiz-adv-x="0" 
d="M-145 863l95 -120h-58l-134 120h97z" />
    <glyph glyph-name="acutecomb.case" horiz-adv-x="0" 
d="M-50 863l-134 -120h-58l95 120h97z" />
    <glyph glyph-name="uni030B.case" horiz-adv-x="0" 
d="M-157 863l-103 -120h-55l88 120h70zM-50 863l-103 -120h-55l88 120h70z" />
    <glyph glyph-name="uni0302.case" horiz-adv-x="0" 
d="M-173 863l123 -120h-77l-84 81l-83 -81h-77l122 120h76z" />
    <glyph glyph-name="uni030C.case" horiz-adv-x="0" 
d="M-173 743h-76l-122 120h77l83 -81l84 81h77z" />
    <glyph glyph-name="uni0306.case" horiz-adv-x="0" 
d="M-50 863q-2 -56 -39 -88t-97 -32t-97 32t-39 88h53q5 -70 83 -70t83 70h53z" />
    <glyph glyph-name="uni030A.case" horiz-adv-x="0" 
d="M-165 890q50 0 82.5 -32.5t32.5 -82.5t-32.5 -82t-82.5 -32t-83 32.5t-33 81.5q0 50 33 82.5t83 32.5zM-166 851q-33 0 -53.5 -21t-20.5 -55q0 -33 20.5 -54t53.5 -21t54 21t21 54q0 34 -20.5 55t-54.5 21z" />
    <glyph glyph-name="tildecomb.case" horiz-adv-x="0" 
d="M-146 747q-29 0 -86 26.5t-76 26.5q-35 0 -54 -47l-33 11q28 94 96 94q29 0 86 -26t76 -26q35 0 54 46l33 -10q-28 -95 -96 -95z" />
    <glyph glyph-name="uni0304.case" horiz-adv-x="0" 
d="M-50 829v-56h-282v56h282z" />
    <glyph glyph-name="uni0308.ss01" horiz-adv-x="0" 
d="M-303 702q25 0 41.5 -16.5t16.5 -41.5t-16.5 -41.5t-41.5 -16.5t-41.5 16.5t-16.5 41.5t16.5 41.5t41.5 16.5zM-108 702q25 0 41.5 -16.5t16.5 -41.5t-16.5 -41.5t-41.5 -16.5t-41.5 16.5t-16.5 41.5t16.5 41.5t41.5 16.5z" />
    <glyph glyph-name="uni0307.ss01" horiz-adv-x="0" 
d="M-112 702q26 0 44 -18t18 -44q0 -25 -18 -43t-44 -18t-44 17.5t-18 43.5t18 44t44 18z" />
    <glyph glyph-name="uni0312.ss01" horiz-adv-x="0" 
d="M-158 589q0 26 19 48l54 64h31l-34 -62q17 -3 27.5 -17.5t10.5 -32.5q0 -23 -15 -38t-38 -15t-39 15t-16 38z" />
    <glyph glyph-name="uni0326.ss01" horiz-adv-x="0" 
d="M-50 -94q0 -26 -19 -48l-54 -64h-31l34 62q-17 3 -27.5 17.5t-10.5 32.5q0 22 15 37.5t38 15.5t39 -15t16 -38z" />
    <glyph glyph-name="uni0308.case.ss01" horiz-adv-x="0" 
d="M-312 854q24 0 40 -16t16 -40t-16 -40t-40 -16t-40 16t-16 40t16 40t40 16zM-106 854q24 0 40 -16t16 -40t-16 -40t-40 -16t-40 16t-16 40t16 40t40 16z" />
    <glyph glyph-name="uni0307.case.ss01" horiz-adv-x="0" 
d="M-106 854q24 0 40 -16t16 -40t-16 -40t-40 -16t-40 16t-16 40t16 40t40 16z" />
    <glyph glyph-name="uni02BC.ss01" horiz-adv-x="167" 
d="M84 717q24 0 40.5 -16.5t16.5 -40.5q0 -18 -13 -45l-69 -135h-32l43 127q-20 3 -31.5 18.5t-11.5 35.5q0 23 16 39.5t41 16.5z" />
    <glyph glyph-name="bitcoin.tf" 
d="M397 336q53 -15 83 -56t30 -100q0 -82 -53 -130t-133 -50v-87h-28v87h-49v-87h-28v87h-129v675h129v87h28v-87h49v87h28v-87q80 -2 133 -49.5t53 -129.5q0 -59 -30.5 -100.5t-82.5 -56.5v-3zM307 607h-145v-237h132q68 0 104.5 32.5t36.5 90.5q0 52 -35.5 83t-92.5 31z
M307 68q57 0 93 31.5t36 82.5q0 58 -37 90.5t-105 32.5h-132v-237h145z" />
    <glyph glyph-name="dot" horiz-adv-x="241" 
d="M171 103v-103h-103v103h103z" />
    <glyph glyph-name="bitcoin" horiz-adv-x="500" 
d="M347 336q53 -15 83 -56t30 -100q0 -82 -53 -130t-133 -50v-87h-28v87h-49v-87h-28v87h-129v675h129v87h28v-87h49v87h28v-87q80 -2 133 -49.5t53 -129.5q0 -59 -30.5 -100.5t-82.5 -56.5v-3zM257 607h-145v-237h132q68 0 104.5 32.5t36.5 90.5q0 52 -35.5 83t-92.5 31z
M257 68q57 0 93 31.5t36 82.5q0 58 -37 90.5t-105 32.5h-132v-237h145z" />
    <glyph glyph-name="dot.ss01" horiz-adv-x="226" 
d="M113 116q27 0 45 -18t18 -45t-18 -45t-45 -18t-45 18t-18 45t18 45t45 18z" />
    <glyph glyph-name="dieresiscasecomb.ss01" horiz-adv-x="212" 
d="M106 854q24 0 40 -16t16 -40t-16 -40t-40 -16t-40 16t-16 40t16 40t40 16z" />
    <glyph glyph-name="dieresisdotcomb.ss01" horiz-adv-x="216" 
d="M108 700q25 0 41.5 -16.5t16.5 -41.5t-16.5 -41.5t-41.5 -16.5t-41.5 16.5t-16.5 41.5t16.5 41.5t41.5 16.5z" />
    <glyph glyph-name="circlecomb" horiz-adv-x="830" 
d="M415 -15q-161 0 -263 103t-102 262t102 262t263 103t263 -103t102 -262t-102 -262t-263 -103zM415 28q138 0 228 91.5t90 230.5t-90 230.5t-228 91.5t-228 -91.5t-90 -230.5t90 -230.5t228 -91.5z" />
    <glyph glyph-name="circleinvertcomb" horiz-adv-x="830" 
d="M415 -15q-157 0 -261 104.5t-104 260.5t104 260.5t261 104.5t261 -104.5t104 -260.5t-104 -260.5t-261 -104.5z" />
    </font>
</defs>
</svg>
