<?xml version="1.0" encoding="UTF-8"?>
<svg width="9px" height="9px" viewBox="0 0 9 9" version="1.1" xmlns="http://www.w3.org/2000/svg" xmlns:xlink="http://www.w3.org/1999/xlink">
    <title>noun_add_3548637</title>
    <g id="Parcels" stroke="none" stroke-width="1" fill="none" fill-rule="evenodd">
        <g transform="translate(-1241.500000, -93.000000)" fill="#FFFFFF" fill-rule="nonzero" id="Group-2-Copy-2">
            <g transform="translate(1225.500000, 80.000000)">
                <g id="noun_add_3548637" transform="translate(16.000000, 13.000000)">
                    <polygon id="Path" points="5 2 4 2 4 4 2 4 2 5 4 5 4 7 5 7 5 5 7 5 7 4 5 4"></polygon>
                    <path d="M7.40322581,0 L1.59677419,0 C0.714900158,0 0,0.714900158 0,1.59677419 L0,7.40322581 C0,8.28509984 0.714900158,9 1.59677419,9 L7.40322581,9 C8.28509984,9 9,8.28509984 9,7.40322581 L9,1.59677419 C9,0.714900158 8.28509984,0 7.40322581,0 Z M8.12903226,7.40322581 C8.12903226,7.80407764 7.80407764,8.12903226 7.40322581,8.12903226 L1.59677419,8.12903226 C1.19592236,8.12903226 0.870967742,7.80407764 0.870967742,7.40322581 L0.870967742,1.59677419 C0.870967742,1.19592236 1.19592236,0.870967742 1.59677419,0.870967742 L7.40322581,0.870967742 C7.80407764,0.870967742 8.12903226,1.19592236 8.12903226,1.59677419 L8.12903226,7.40322581 Z" id="Shape"></path>
                </g>
            </g>
        </g>
    </g>
</svg>