<?xml version="1.0" encoding="UTF-8"?>
<svg width="20px" height="20px" viewBox="0 0 20 20" version="1.1" xmlns="http://www.w3.org/2000/svg" xmlns:xlink="http://www.w3.org/1999/xlink">
    <title>Group 4</title>
    <g id="Page-1" stroke="none" stroke-width="1" fill="none" fill-rule="evenodd">
        <g id="Group-8-Copy-10" transform="translate(-1360.000000, -18.000000)" fill="#000000" fill-rule="nonzero">
            <g id="Group-4" transform="translate(1360.000000, 18.000000)">
                <path d="M13.3333333,7.6094887 C13.3333333,9.61763145 11.8412196,11.5151515 10.00022,11.5151515 C8.1592204,11.5151515 6.66666667,9.61763145 6.66666667,7.6094887 C6.66666667,5.60112602 8.15900042,4.24242424 10.00022,4.24242424 C11.8409996,4.24242424 13.3333333,5.60112602 13.3333333,7.6094887 Z" id="Path"></path>
                <path d="M10.0001097,0 C4.48605307,0 0,4.48605307 0,9.99989031 C0,15.5137276 4.48605307,20 10.0001097,20 C15.5141663,20 20,15.5139469 20,9.99989031 C20,4.48583369 15.5141663,0 10.0001097,0 Z M15.9066329,16.3574539 C15.7076574,14.3909529 14.6265644,12.697577 13.0779778,11.7209078 C12.2985291,12.6359319 11.2341088,13.2315421 10.059561,13.2315421 C8.86483048,13.2315421 7.78286003,12.615091 7.00055941,11.6728641 C5.410291,12.6416357 4.29497516,14.3571687 4.09205085,16.356357 C2.38617043,14.769818 1.31626575,12.5080347 1.31626575,9.99989031 C1.31626575,5.21153488 5.21175425,1.31626575 10.0001097,1.31626575 C14.7882457,1.31626575 18.6837342,5.21175425 18.6837342,9.99989031 C18.6837342,12.5086928 17.6131714,14.7709149 15.9066329,16.3574539 Z" id="Shape"></path>
            </g>
        </g>
    </g>
</svg>