<?xml version="1.0" encoding="UTF-8"?>
<svg width="100px" height="100px" viewBox="0 0 100 100" version="1.1" xmlns="http://www.w3.org/2000/svg" xmlns:xlink="http://www.w3.org/1999/xlink">
    <title>zillow-seeklogo.com</title>
    <g id="Page-1" stroke="none" stroke-width="1" fill="none" fill-rule="evenodd">
        <g id="zillow-seeklogo.com" fill-rule="nonzero">
            <circle id="Oval" fill="#006AFF" cx="50" cy="50" r="50"></circle>
            <path d="M59.1163793,32.6400862 C59.375,32.5862069 59.4827586,32.6724138 59.6443966,32.8448276 C60.5387931,33.8362069 63.4051724,37.3275862 64.1810345,38.2866379 C64.3211207,38.4590517 64.2241379,38.6422414 64.1056034,38.75 C58.3297414,43.2543103 51.9073276,49.6336207 48.3189655,54.2025862 C48.2543103,54.299569 48.3081897,54.299569 48.3728448,54.2887931 C54.6012931,51.5948276 69.2672414,47.3060345 75.862069,46.1099138 L75.862069,37.7478448 L50,17.2413793 L24.1487069,37.737069 L24.1487069,46.875 C32.1659483,42.112069 50.7112069,34.7306034 59.1163793,32.6400862 Z M38.0818966,67.7586207 C37.9009381,67.8791679 37.6579083,67.8417787 37.5215517,67.6724138 L32.7047414,61.9288793 C32.575431,61.7672414 32.5538793,61.6810345 32.7262931,61.4331897 C36.4547414,55.9698276 44.0625,47.4676724 48.9116379,43.8685345 C49.0086207,43.8146552 48.9762931,43.7392241 48.8685345,43.7823276 C43.8146552,45.4310345 29.450431,51.6163793 24.137931,54.612069 L24.137931,74.137931 L75.8512931,74.137931 L75.8512931,55.3340517 C68.8038793,56.5409483 47.6939655,62.8232759 38.0818966,67.7586207 Z" id="Shape" fill="#FFFFFF"></path>
        </g>
    </g>
</svg>