<?xml version="1.0" encoding="UTF-8"?>
<svg width="12px" height="12px" viewBox="0 0 12 12" version="1.1" xmlns="http://www.w3.org/2000/svg" xmlns:xlink="http://www.w3.org/1999/xlink">
    <title>Group</title>
    <g id="Parcels" stroke="none" stroke-width="1" fill="none" fill-rule="evenodd">
        <g id="Group" transform="translate(0.800000, 0.000000)" fill="#000000" fill-rule="nonzero">
            <path d="M2.03207965,6.36129754 C1.98340708,6.36129754 1.94690265,6.39821029 1.94690265,6.44742729 L1.94690265,7.24720358 C1.94690265,7.29642058 1.98340708,7.33333333 2.03207965,7.33333333 L4.96460177,7.33333333 C5.12278761,6.97651007 5.3539823,6.6442953 5.62168142,6.36129754 L2.03207965,6.36129754 L2.03207965,6.36129754 Z" id="Path"></path>
            <path d="M2.36061947,8.51454139 C2.20243363,8.51454139 2.04424779,8.57606264 1.93473451,8.68680089 L0.803097345,9.72035794 L0.803097345,0.812080537 L7.86061947,0.812080537 L7.86061947,5.25391499 C7.98230088,5.22930649 8.12831858,5.22930649 8.26216814,5.22930649 C8.3960177,5.22930649 8.52986726,5.24161074 8.66371681,5.25391499 L8.66371681,0.639821029 C8.66371681,0.282997763 8.38384956,0 8.03097345,0 L0.632743363,0 C0.279867257,0 3.24224423e-16,0.282997763 3.24224423e-16,0.639821029 L3.24224423e-16,10.0771812 C3.24224423e-16,10.3355705 0.158185841,10.5693512 0.377212389,10.6677852 C0.462389381,10.704698 0.547566372,10.7170022 0.632743363,10.7170022 C0.790929204,10.7170022 0.949115044,10.6677852 1.05862832,10.557047 L2.40929204,9.31431767 L4.62389381,9.31431767 C4.59955752,9.19127517 4.59955752,9.04362416 4.59955752,8.9082774 C4.59955752,8.77293065 4.61172566,8.63758389 4.62389381,8.50223714 L2.36061947,8.50223714 L2.36061947,8.51454139 Z" id="Path"></path>
            <path d="M6.66814159,2.0917226 C6.66814159,2.04250559 6.63163717,2.00559284 6.5829646,2.00559284 L2.03207965,2.00559284 C1.98340708,2.00559284 1.94690265,2.04250559 1.94690265,2.0917226 L1.94690265,2.89149888 C1.94690265,2.94071588 1.98340708,2.97762864 2.03207965,2.97762864 L6.5829646,2.97762864 C6.63163717,2.97762864 6.66814159,2.94071588 6.66814159,2.89149888 L6.66814159,2.0917226 Z" id="Path"></path>
            <path d="M6.5829646,4.18344519 L2.03207965,4.18344519 C1.98340708,4.18344519 1.94690265,4.22035794 1.94690265,4.26957494 L1.94690265,5.06935123 C1.94690265,5.11856823 1.98340708,5.15548098 2.03207965,5.15548098 L6.5829646,5.15548098 C6.63163717,5.15548098 6.66814159,5.11856823 6.66814159,5.06935123 L6.66814159,4.26957494 C6.66814159,4.22035794 6.63163717,4.18344519 6.5829646,4.18344519 Z" id="Path"></path>
            <path d="M8.25,6.13982103 C6.74115044,6.13982103 5.5,7.38255034 5.5,8.92058166 C5.5,10.458613 6.7289823,11.7013423 8.25,11.7013423 C9.7710177,11.7013423 11,10.458613 11,8.92058166 C11,7.38255034 9.7710177,6.13982103 8.25,6.13982103 Z M8.25,10.8769575 C7.17920354,10.8769575 6.30309735,9.99105145 6.30309735,8.9082774 C6.30309735,7.82550336 7.17920354,6.93959732 8.25,6.93959732 C9.32079646,6.93959732 10.1969027,7.82550336 10.1969027,8.9082774 C10.1969027,9.99105145 9.3329646,10.8769575 8.25,10.8769575 Z" id="Shape"></path>
            <path d="M8.76106195,8.08389262 L7.99446903,8.95749441 L7.65376106,8.61297539 C7.49557522,8.45302013 7.24004425,8.45302013 7.09402655,8.61297539 C6.93584071,8.77293065 6.93584071,9.03131991 7.09402655,9.17897092 L7.73893805,9.8310962 C7.8119469,9.9049217 7.90929204,9.9541387 8.01880531,9.9541387 C8.01880531,9.9541387 8.03097345,9.9541387 8.03097345,9.9541387 C8.14048673,9.9541387 8.25,9.9049217 8.32300885,9.81879195 L9.36946903,8.62527964 C9.51548673,8.45302013 9.50331858,8.20693512 9.3329646,8.05928412 C9.16261062,7.89932886 8.90707965,7.92393736 8.76106195,8.08389262 Z" id="Path"></path>
        </g>
    </g>
</svg>