<?xml version="1.0" encoding="UTF-8"?>
<svg width="14px" height="18px" viewBox="0 0 14 18" version="1.1" xmlns="http://www.w3.org/2000/svg" xmlns:xlink="http://www.w3.org/1999/xlink">
    <title>Group</title>
    <g id="Page-1" stroke="none" stroke-width="1" fill="none" fill-rule="evenodd">
        <g id="Group-69" transform="translate(-883.000000, -474.000000)" fill="#000000" fill-rule="nonzero">
            <g id="Group-3-Copy-48" transform="translate(428.000000, 88.000000)">
                <g id="Group-38-Copy-4" transform="translate(446.000000, 377.000000)">
                    <g id="Group" transform="translate(9.810811, 9.000000)">
                        <path d="M6.66958055,14 L11.3946706,9.051 C11.565392,8.87468943 11.6333401,8.61637698 11.5729196,8.37336646 C11.5124991,8.13035593 11.3328892,7.93956641 11.1017472,7.87286645 C10.8706053,7.8061665 10.6230473,7.87368943 10.4523259,8.05 L7.33791013,11.319 L7.33791013,0 L6.00125098,0 L6.00125098,11.319 L2.88683516,8.05 C2.62166853,7.81215624 2.22639577,7.82814741 1.97953551,8.08670575 C1.73267525,8.34526408 1.71740758,8.75926781 1.94449046,9.037 L6.66958055,14 Z" id="Path"></path>
                        <rect id="Rectangle" x="0" y="17" width="12.4864865" height="1"></rect>
                    </g>
                </g>
            </g>
        </g>
    </g>
</svg>