<?xml version="1.0" encoding="UTF-8"?>
<svg width="11px" height="14px" viewBox="0 0 11 14" version="1.1" xmlns="http://www.w3.org/2000/svg" xmlns:xlink="http://www.w3.org/1999/xlink">
    <title>noun_report_1519093</title>
    <g id="Parcels" stroke="none" stroke-width="1" fill="none" fill-rule="evenodd">
        <g id="Parcels-Copy" transform="translate(-30.500000, -305.000000)" fill="#000000" fill-rule="nonzero">
            <g id="Group-2-Copy-6" transform="translate(20.500000, 294.000000)">
                <g id="noun_report_1519093" transform="translate(10.000000, 11.000000)">
                    <path d="M7.50304152,0 L10.6210659,0 C10.8305343,0 11,0.17448735 11,0.389241012 L11,13.610759 C11,13.8255126 10.8305343,14 10.6210659,14 L0.379661465,14 C0.170193071,14 0,13.8255126 0,13.610759 L0,0.389241012 C0,0.17448735 0.170193071,0 0.379661465,0 L3.49695848,0 L7.50304152,0 Z M2.56016927,11.7637284 C2.35070087,11.7637284 2.18123512,11.5899867 2.18123512,11.375233 C2.18123512,11.1604794 2.35070087,10.985992 2.56016927,10.985992 L8.43983073,10.985992 C8.64929913,10.985992 8.81876488,11.1604794 8.81876488,11.375233 C8.81876488,11.5899867 8.64929913,11.7637284 8.43983073,11.7637284 L2.56016927,11.7637284 Z M2.56016927,9.69150466 C2.35070087,9.69150466 2.18123512,9.51701731 2.18123512,9.30226365 C2.18123512,9.08750999 2.35070087,8.91302264 2.56016927,8.91302264 L8.43983073,8.91302264 C8.64929913,8.91302264 8.81876488,9.08750999 8.81876488,9.30226365 C8.81876488,9.51701731 8.64929913,9.69150466 8.43983073,9.69150466 L2.56016927,9.69150466 Z M3.11802433,0.777736352 L0.75859561,0.777736352 L0.75859561,13.2222636 L10.2414044,13.2222636 L10.2414044,0.777736352 L7.88197567,0.777736352 L7.88197567,1.88207723 C7.88197567,2.09683089 7.71250992,2.27131824 7.50304152,2.27131824 L3.49695848,2.27131824 C3.28749008,2.27131824 3.11802433,2.09683089 3.11802433,1.88207723 L3.11802433,0.777736352 Z M7.12338006,0.777736352 L3.87661994,0.777736352 L3.87661994,1.49358189 L7.12338006,1.49358189 L7.12338006,0.777736352 Z M3.26567046,5.51126498 C3.1063872,5.37331558 3.0852949,5.12948069 3.21984925,4.96543276 C3.35367628,4.80213049 3.5922375,4.78125166 3.75152076,4.91845539 L5.15961386,6.13464714 L7.20265803,3.66199734 C7.33721238,3.4979494 7.57650093,3.47781625 7.73578418,3.61576565 C7.89579476,3.75446072 7.91543243,3.99904128 7.78015075,4.16308921 L5.49418143,6.9310253 L5.49345411,6.93027963 C5.35962708,7.09283622 5.12179318,7.11371505 4.96250992,6.97651132 L3.26567046,5.51126498 L3.26567046,5.51126498 Z" id="Shape"></path>
                </g>
            </g>
        </g>
    </g>
</svg>