<?xml version="1.0" encoding="UTF-8"?>
<svg width="13px" height="12px" viewBox="0 0 13 12" version="1.1" xmlns="http://www.w3.org/2000/svg" xmlns:xlink="http://www.w3.org/1999/xlink">
    <title>Shape</title>
    <g id="Parcels" stroke="none" stroke-width="1" fill="none" fill-rule="evenodd">
        <path d="M11.5925101,4.65885534 L11.8223434,2.99729608 L10.2513655,2.36863452 L9.62270392,0.797656602 L7.96114466,1.02748986 L6.62,0 L5.27885534,1.02748986 L3.61729608,0.797656602 L2.98863452,2.36863452 L1.4176566,2.99729608 L1.64748986,4.65885534 L0.62,6 L1.64748986,7.34114466 L1.4176566,9.00270392 L2.98863452,9.63136548 L3.61729608,11.2023434 L5.27885534,10.9725101 L6.62,12 L7.96114466,10.9725101 L9.62270392,11.2023434 L10.2513655,9.63136548 L11.8223434,9.00270392 L11.5925101,7.34114466 L12.62,6 L11.5925101,4.65885534 Z M6.13870212,7.94276701 L4.13644885,6.30419108 L4.56502028,5.78098242 L6.05217666,6.99774673 L8.59115818,4.06128887 L9.10355115,4.50202794 L6.13870212,7.94276701 Z" id="Shape" fill="#000000" fill-rule="nonzero"></path>
    </g>
</svg>