<?xml version="1.0" encoding="UTF-8"?>
<svg width="21px" height="21px" viewBox="0 0 21 21" version="1.1" xmlns="http://www.w3.org/2000/svg" xmlns:xlink="http://www.w3.org/1999/xlink">
    <title>Group 99</title>
    <g id="Parcels" stroke="none" stroke-width="1" fill="none" fill-rule="evenodd">
        <g id="Group-99" transform="translate(0.436859, 0.000000)" fill="#000000" fill-rule="nonzero">
            <path d="M15.5454949,1.67592043 C11.577785,-0.969528623 6.39038273,-0.394490141 3.08086655,2.77622791 L3.08086655,0.0339602063 L1.34975404,0.0339602063 L1.34975404,5.5736439 L6.54309158,5.5736439 L6.54309158,3.84253139 L4.01838763,3.84253139 C6.85561921,1.08456003 11.3360475,0.574932867 14.758086,2.85697194 C17.9870436,5.01047591 19.373232,9.07723016 18.1278202,12.7478069 L19.4717817,13.2030463 C20.9232578,8.92503445 19.3087666,4.18456831 15.545124,1.67569167 L15.5454949,1.67592043 Z" id="Path"></path>
            <polygon id="Path" points="12.9624277 6.69305544 8.42790215 11.227581 6.95905319 9.75873206 5.95488428 10.7621591 8.648619 13.4556465 14.1863243 7.91719929"></polygon>
            <path d="M18.3146567,15.5402769 L18.3146567,14.5752435 L13.1213191,14.5752435 L13.1213191,16.306356 L15.8153012,16.306356 C14.6686246,17.3672807 13.2505343,18.0966355 11.6804771,18.4103378 C9.43324575,18.8592956 7.14502413,18.4064737 5.23826552,17.135188 C4.76612313,16.8207499 4.33357376,16.4645055 3.94234233,16.0732741 C1.70790885,13.8384078 0.83561362,10.4766491 1.81925648,7.39298133 L0.467319433,6.96116768 C-0.679357132,10.5566884 0.336422596,14.474196 2.94157382,17.0795203 C3.39657201,17.5345185 3.90129023,17.9506409 4.45048568,18.3162766 C6.67329597,19.7981707 9.33976567,20.3260982 11.9591862,19.8024985 C13.8595768,19.4218887 15.5682467,18.5193732 16.9298285,17.2048405 L16.9298285,20.0514696 L18.3145949,20.050745 C18.3145949,20.050745 18.3172514,15.5454629 18.3187004,15.543299 L18.3146567,15.5402769 Z" id="Path"></path>
        </g>
    </g>
</svg>