<?xml version="1.0" encoding="UTF-8"?>
<svg width="12px" height="13px" viewBox="0 0 12 13" version="1.1" xmlns="http://www.w3.org/2000/svg" xmlns:xlink="http://www.w3.org/1999/xlink">
    <title>noun_area_1177568</title>
    <g id="Parcels" stroke="none" stroke-width="1" fill="none" fill-rule="evenodd">
        <g id="Parcels-Copy" transform="translate(-30.500000, -176.000000)" fill="#000000" fill-rule="nonzero">
            <g id="Group-2-Copy-3" transform="translate(21.500000, 165.000000)">
                <g id="Group" transform="translate(9.000000, 11.000000)">
                    <path d="M9.84859613,5.26090789 C9.94148158,5.77237686 9.22639124,5.8733727 8.85545215,5.73780523 C8.47161551,5.59752399 8.27820703,4.96744051 8.55407395,4.64106201 C8.76173803,4.39537541 9.37085449,4.364811 9.61961364,4.53553567 C9.71185307,4.59883943 9.8569262,4.70377277 9.94129686,4.77676792 C9.80920383,4.66248426 9.87534066,4.73562181 9.87530143,4.89269418 C9.87527151,5.00705851 9.87524262,5.12142234 9.87521373,5.23578614 C9.87510641,5.65572412 10.5514174,5.65641074 10.5515247,5.23578614 C10.5516145,4.88468422 10.6421512,4.47027507 10.3157055,4.2356143 C10.0318924,4.03159961 9.84588209,3.84748254 9.47192141,3.81185707 C8.63189267,3.73183113 7.83106639,4.0438483 7.77507487,4.94689359 C7.72551561,5.74622196 8.20987011,6.36501473 9.05274606,6.43341514 C9.91683824,6.50353732 10.6603882,5.96646164 10.5007488,5.08741431 C10.4257566,4.67447401 9.77388262,4.84949669 9.84859613,5.26090789 L9.84859613,5.26090789 Z" id="Path"></path>
                    <path d="M10.8756248,3.87146533 C12.242648,4.63476441 10.5476806,7.31778022 10.1011901,8.12036469 C9.640512,8.94845007 9.32042525,9.79861194 9.10918021,10.7165359 C9.29757641,10.668539 9.48597263,10.6205411 9.67436781,10.5725442 C8.44551185,9.65071462 7.52266659,7.4650305 7.09185011,6.06286897 C6.80567384,5.13146449 6.69481667,4.17668746 7.54224203,3.47772185 C8.20192391,2.93360915 10.4049078,2.65396884 10.8930991,3.66445595 C11.0768422,4.04477918 11.6600263,3.71375067 11.4770737,3.33506334 C10.9658251,2.27684993 9.6011517,2.35172822 8.55646086,2.38480164 C7.59889555,2.41511661 6.9084739,2.90825838 6.40018289,3.72855913 C5.78253928,4.72533768 6.36393808,6.15400664 6.77463636,7.12243598 C7.31765829,8.40288397 8.03022083,10.1594003 9.19614423,11.0340207 C9.38134754,11.1729505 9.70035278,11.1550028 9.76133285,10.890029 C10.1583384,9.16492706 11.3578999,7.8161852 11.7868522,6.13103788 C12.039959,5.13670458 12.2687785,3.89523476 11.2169712,3.30794223 C10.8395482,3.09720219 10.4986219,3.66096007 10.8756248,3.87146533 L10.8756248,3.87146533 Z" id="Path"></path>
                    <path d="M8.71011483,10.7850471 C8.66723138,11.5202367 8.84515001,12.0359747 7.94047565,12.2629059 C7.41485425,12.3947555 6.66290096,12.2628481 6.1183383,12.2628233 C5.07711697,12.2627765 4.03589561,12.2627287 2.994674,12.2626819 C2.3210069,12.262651 1.12258535,12.5143364 0.725569843,11.7713644 C0.563273676,11.467645 0.720877597,10.7389582 0.72154866,10.4157962 C0.723870706,9.29756255 0.726192779,8.17932886 0.728514826,7.06109471 C0.730836764,5.94286056 0.73315881,4.82462639 0.735480883,3.70639247 C0.736520076,3.20594605 0.689794857,2.65613525 0.738695985,2.15806861 C0.835501087,1.17209219 1.03489435,0.812593827 2.05519654,0.805605487 C3.19298127,0.797812381 4.33076572,0.790019405 5.46855045,0.782226326 C5.98153435,0.778712798 6.53220112,0.719435291 7.04394408,0.771436024 C7.6912831,0.690260632 8.27201627,0.88521442 8.78614101,1.35629736 C8.83763728,1.68358492 8.8384195,2.00999427 8.78848978,2.33552582 C8.74818108,2.75352319 9.42474804,2.75086807 9.4648008,2.33552582 C9.5736539,1.20675133 9.33014952,0.36327519 8.08119804,0.136654705 C6.3785642,-0.172286033 4.31533574,0.137499516 2.58032803,0.149383122 C1.43627436,0.157219093 0.347190547,-0.0645642359 0.0936474445,1.22049969 C-0.0616016701,2.00736751 0.0608294254,2.90719204 0.0591698934,3.70639244 C0.0570265015,4.73860828 0.0548830825,5.77082435 0.0527396906,6.80304042 C0.0505961634,7.83525648 0.0484528256,8.86747255 0.0463093525,9.89968865 C0.0448523351,10.6013557 -0.0853591506,11.4458005 0.0974373291,12.1329703 C0.39182886,13.2396504 1.49465796,12.9152387 2.47406333,12.9152835 C3.51528494,12.9153303 4.55650627,12.9153781 5.59772764,12.9154249 C6.48756432,12.9154657 7.6030998,13.1126595 8.46244441,12.9046968 C9.59336655,12.6310126 9.3320762,11.7168051 9.38642585,10.7850471 C9.41090208,10.3654243 8.73451262,10.3667656 8.71011483,10.7850471 L8.71011483,10.7850471 Z" id="Path"></path>
                    <path d="M0.632336636,4.23966884 C2.60113584,4.22933711 4.5699353,4.21901088 6.53873423,4.20868514 C6.97379315,4.20640319 6.97471832,3.55377293 6.53873423,3.55605361 C4.56993502,3.56638557 2.60113557,3.57671157 0.632336636,3.58703731 C0.197277581,3.58931925 0.19635255,4.24194978 0.632336636,4.23966884 L0.632336636,4.23966884 Z" id="Path"></path>
                    <path d="M0.564679726,9.73888344 C3.01442845,9.73888344 5.4641772,9.73888344 7.91392644,9.73888344 C8.34910042,9.73888344 8.34982074,9.0862579 7.91392644,9.0862579 C5.46417772,9.0862579 3.01442897,9.0862579 0.564679726,9.0862579 C0.12950586,9.0862579 0.128785048,9.73888344 0.564679726,9.73888344 L0.564679726,9.73888344 Z" id="Path"></path>
                    <path d="M6.82988177,0.776179019 C6.83680576,1.48691955 6.83521705,2.19758927 6.82511459,2.90829359 C6.81914311,3.32839614 7.49545153,3.32859457 7.50142561,2.90829359 C7.51152807,2.19758867 7.51311678,1.48691895 7.50619279,0.776179019 C7.50210411,0.356452773 6.82578278,0.355416508 6.82988177,0.776179019 L6.82988177,0.776179019 Z" id="Path"></path>
                    <path d="M6.65147861,7.19364385 C6.65147861,8.82520769 6.65147861,10.4567715 6.65147861,12.0883354 C6.65147861,12.5082689 7.32778962,12.508964 7.32778962,12.0883354 C7.32778962,10.4567715 7.32778962,8.82520769 7.32778962,7.19364385 C7.32778962,6.77371033 6.65147861,6.77301525 6.65147861,7.19364385 L6.65147861,7.19364385 Z" id="Path"></path>
                    <path d="M2.01122664,0.776169308 C2.00041652,4.63392255 1.98960663,8.49167529 1.97879524,12.349428 C1.9776198,12.7694073 2.65392928,12.7700048 2.65510779,12.349428 C2.66591767,8.49167477 2.67672753,4.63392202 2.68753919,0.776169308 C2.68871436,0.356190078 2.01240516,0.355592508 2.01122664,0.776169308 L2.01122664,0.776169308 Z" id="Path"></path>
                </g>
            </g>
        </g>
    </g>
</svg>