<?xml version="1.0" encoding="UTF-8"?>
<svg width="16px" height="21px" viewBox="0 0 16 21" version="1.1" xmlns="http://www.w3.org/2000/svg" xmlns:xlink="http://www.w3.org/1999/xlink">
    <title>noun-lock-4756501</title>
    <g id="Page-1" stroke="none" stroke-width="1" fill="none" fill-rule="evenodd">
        <g id="noun-lock-4756501" fill="#000000" fill-rule="nonzero">
            <path d="M14.1728823,7.89266548 L14.1180428,7.89266548 L14.118208,4.80535275 C14.118208,2.15593818 11.9907607,0 9.37635841,0 L6.62436044,0 C4.00995814,0 1.88251089,2.15593818 1.88251089,4.80535275 L1.88251089,7.89266548 L1.82701171,7.89266548 C0.818427841,7.89266548 0,8.72123959 0,9.74564446 L0,19.1485208 C0,20.1706117 0.817624424,21 1.82701171,21 L14.1729883,21 C15.1815722,21 16,20.1714259 16,19.1485208 L16,9.74564446 C16,8.72205376 15.1815722,7.89266548 14.1729883,7.89266548 L14.1728823,7.89266548 Z M8.88809227,14.987567 L8.88809227,17.4141973 L7.11279521,17.4141973 L7.11279521,14.987567 C6.56820559,14.6725408 6.19740767,14.0870026 6.19740767,13.4075941 C6.19740767,12.3967302 7.0047991,11.5793832 8.00078202,11.5793832 C8.99613066,11.5793832 9.80483293,12.3967302 9.80483293,13.4075941 C9.80417218,14.0870026 9.43269035,14.6726951 8.88809227,14.987567 Z M12.3415998,7.89266548 L3.65878024,7.89266548 L3.65878024,4.80535275 C3.65878024,3.14739035 4.98928048,1.79971473 6.62469847,1.79971473 L9.37669644,1.79971473 C11.0127487,1.79971473 12.3426147,3.1473475 12.3426147,4.80535275 L12.3426147,7.89266548 L12.3415998,7.89266548 Z" id="Shape"></path>
        </g>
    </g>
</svg>