<?xml version="1.0" encoding="UTF-8"?>
<svg width="13px" height="13px" viewBox="0 0 13 13" version="1.1" xmlns="http://www.w3.org/2000/svg" xmlns:xlink="http://www.w3.org/1999/xlink">
    <title>Group</title>
    <g id="Parcels" stroke="none" stroke-width="1" fill="none" fill-rule="evenodd">
        <g id="Parcels-Copy" transform="translate(-30.500000, -90.000000)" fill="#000000" fill-rule="nonzero">
            <g id="Group-2-Copy" transform="translate(21.500000, 79.000000)">
                <g id="Group" transform="translate(9.000000, 11.000000)">
                    <path d="M12.970744,11.4043591 L11.7531335,8.2662652 C11.6710474,8.06681008 11.4521511,7.96043402 11.2469359,8.01362205 L7.66250948,9.02419465 L5.92502035,8.66517544 L5.92502035,9.50288693 L7.59410439,9.86190615 C7.66250948,9.87520315 7.73091456,9.87520315 7.79931964,9.86190615 L11.1101257,8.91781859 L12.0267538,11.31128 L9.42736064,12.1888825 L1.95752548,12.1888825 L0.958811259,10.4868655 L2.81942954,8.86463056 L3.64029055,9.03749166 L3.64029055,8.19978016 L2.77838649,8.01362205 C2.65525734,7.98702804 2.51844717,8.02691906 2.40899904,8.10670111 L0.137950252,10.1012523 C-0.012540932,10.2209254 -0.0399029656,10.4469745 0.0558641518,10.6065386 L1.35556075,12.8005449 C1.43764685,12.920218 1.57445701,13 1.7249482,13 L9.49576572,13 C9.53680877,13 9.59153284,13 9.63257589,12.986703 L12.7108047,11.9495364 C12.8202528,11.9096454 12.9023389,11.8298633 12.957063,11.7367843 C13.011787,11.6171112 13.011787,11.5107351 12.970744,11.4043591 Z" id="Path"></path>
                    <path d="M4.39845758,10 C4.61696658,10 4.79691517,9.79827089 4.79691517,9.55331412 L4.79691517,5.44668588 L8.60154242,5.44668588 C8.82005141,5.44668588 9,5.24495677 9,5 L9,1.32564841 C9,1.08069164 8.82005141,0.878962536 8.60154242,0.878962536 L4.79691517,0.878962536 L4.79691517,0.446685879 C4.79691517,0.201729107 4.61696658,0 4.39845758,0 C4.17994859,0 4,0.201729107 4,0.446685879 L4,9.55331412 C4.01285347,9.79827089 4.17994859,10 4.39845758,10 Z M8.2159383,1.77233429 L8.2159383,4.55331412 L4.79691517,4.55331412 L4.79691517,1.77233429 L8.2159383,1.77233429 Z" id="Shape"></path>
                </g>
            </g>
        </g>
    </g>
</svg>