<?xml version="1.0" encoding="UTF-8"?>
<svg width="14px" height="14px" viewBox="0 0 14 14" version="1.1" xmlns="http://www.w3.org/2000/svg" xmlns:xlink="http://www.w3.org/1999/xlink">
    <title>noun_Check_3836143</title>
    <g id="Parcels" stroke="none" stroke-width="1" fill="none" fill-rule="evenodd">
        <g id="Parcels-Copy" transform="translate(-1093.500000, -301.000000)" fill="#28A745" fill-rule="nonzero">
            <g id="Group-4" transform="translate(261.500000, 245.000000)">
                <g id="noun_Check_3836143" transform="translate(832.000000, 56.000000)">
                    <path d="M7,0 C3.13400675,0 0,3.13400675 0,7 C0,10.8659932 3.13400675,14 7,14 C10.8659932,14 14,10.8659932 14,7 C13.9954414,3.13589656 10.8641034,0.00455859133 7,0 Z M7,12.7272727 C3.83691461,12.7272727 1.27272727,10.1630854 1.27272727,7 C1.27272727,3.83691461 3.83691461,1.27272727 7,1.27272727 C10.1630854,1.27272727 12.7272727,3.83691461 12.7272727,7 C12.7237656,10.1616316 10.1616316,12.7237656 7,12.7272727 L7,12.7272727 Z" id="Shape"></path>
                    <path d="M8.98317533,5.16069386 L6.40738177,7.6182257 L5.03158522,6.30559572 C4.88094091,6.15678333 4.65785942,6.09710188 4.44808228,6.14948998 C4.23830515,6.20187808 4.07447858,6.35818292 4.01956945,6.55832861 C3.96466033,6.7584743 4.02721378,6.97131352 4.18318734,7.11504133 L5.98318284,8.83239412 C6.21748216,9.05586863 6.59728139,9.05586863 6.83158071,8.83239412 L9.83157321,5.97013947 C10.058956,5.74552181 10.0557041,5.3884808 9.82426437,5.16766713 C9.59282467,4.94685345 9.21860207,4.94375086 8.98317533,5.16069386 Z" id="Path"></path>
                </g>
            </g>
        </g>
    </g>
</svg>