<?xml version="1.0" encoding="UTF-8"?>
<svg width="11px" height="11px" viewBox="0 0 11 11" version="1.1" xmlns="http://www.w3.org/2000/svg" xmlns:xlink="http://www.w3.org/1999/xlink">
    <title>noun_edit_2162436</title>
    <g id="Parcels" stroke="none" stroke-width="1" fill="none" fill-rule="evenodd">
        <g id="Parcels-Copy" transform="translate(-1324.500000, -140.000000)" fill="#000000" fill-rule="nonzero">
            <g id="Group-2-Copy-2" transform="translate(1309.500000, 128.000000)">
                <g id="Group" transform="translate(15.000000, 12.000000)">
                    <path d="M8.83241252,9.94371832 L1.053407,9.94371832 L1.053407,2.39717258 L5.59116022,2.39717258 L6.64456722,1.32915444 L0.902920284,1.32915444 C0.405156538,1.32915444 1.02814655e-16,1.73993065 1.02814655e-16,2.2328621 L1.02814655e-16,10.0962923 C1.02814655e-16,10.6009603 0.405156538,11 0.902920284,11 L8.97132334,11 C9.46908708,11 9.87424362,10.6009603 9.87424362,10.0962923 L9.87424362,4.19285143 L8.82083662,5.26086957 L8.82083662,9.94371832 L8.83241252,9.94371832 Z" id="Path"></path>
                    <polygon id="Rectangle" transform="translate(7.076732, 3.976969) rotate(-45.000000) translate(-7.076732, -3.976969) " points="4.56073919 2.89867923 9.60781763 2.86391789 9.59272495 5.0552591 4.54564651 5.09002044"></polygon>
                    <path d="M3.54222573,6.00026674 C3.49592213,6.04721259 3.47277032,6.09415844 3.44961852,6.16457722 L3.13706919,7.58468925 C3.07918969,7.81941851 3.28755591,8.03067485 3.53064983,7.98372899 L4.91975796,7.64337157 C4.97763746,7.6316351 5.03551697,7.59642571 5.08182057,7.54947986 L5.46382531,7.16217658 L3.92423047,5.61296346 L3.54222573,6.00026674 Z" id="Path"></path>
                    <path d="M10.9044988,1.18831688 L9.82794002,0.0968258202 C9.7006051,-0.0322752734 9.49223888,-0.0322752734 9.36490397,0.0968258202 L8.68192581,0.789277141 L10.2215207,2.35022673 L10.9044988,1.65777541 C11.0318337,1.52867431 11.0318337,1.31741798 10.9044988,1.18831688 Z" id="Path"></path>
                </g>
            </g>
        </g>
    </g>
</svg>