<?xml version="1.0" encoding="UTF-8"?>
<svg width="9px" height="12px" viewBox="0 0 9 12" version="1.1" xmlns="http://www.w3.org/2000/svg" xmlns:xlink="http://www.w3.org/1999/xlink">
    <title>noun_Paper_3715339</title>
    <g id="Parcels" stroke="none" stroke-width="1" fill="none" fill-rule="evenodd">
        <g id="Parcels-Copy" transform="translate(-30.500000, -478.000000)" fill="#000000" fill-rule="nonzero">
            <g id="Group-2-Copy-10" transform="translate(20.500000, 466.000000)">
                <g id="noun_Paper_3715339" transform="translate(10.000000, 12.000000)">
                    <path d="M0.253568693,0 C0.115559497,0 0.00368482102,0.111901631 0.0036692847,0.249924913 L0.0036692847,11.7036611 C-0.0103898538,11.7848501 0.0164630855,11.8677529 0.0754523183,11.925276 C0.0760786242,11.9259091 0.0767083089,11.9265389 0.0773413455,11.9271652 C0.0785871993,11.9284381 0.0798466227,11.9296977 0.0811193999,11.9309437 C0.137573909,11.9847786 0.215923986,12.009165 0.29295491,11.9968775 L8.75010154,11.9968775 C8.88811405,11.9968614 9,11.8849697 9,11.7469431 L9,0.250255526 C9,0.112232614 8.88811036,0.000346672972 8.75010154,0.000330613498 L0.253568693,0 Z M0.503477546,0.499859271 L8.50035231,0.499859271 L8.50035231,11.4966876 L0.503477546,11.4966876 L0.503477546,0.499859271 Z M1.75298403,1.99942764 C1.66280984,1.99807429 1.57890029,2.0454115 1.53341803,2.12329487 C1.48793577,2.20117823 1.48793577,2.29752687 1.53341803,2.37541024 C1.57890029,2.4532936 1.66280984,2.50063081 1.75298403,2.49927746 L7.75064464,2.49927746 C7.84081883,2.50063081 7.92472838,2.4532936 7.97021064,2.37541024 C8.0156929,2.29752687 8.0156929,2.20117823 7.97021064,2.12329487 C7.92472838,2.0454115 7.84081883,1.99807429 7.75064464,1.99942764 L1.75298403,1.99942764 Z M1.75298403,3.49899601 C1.66280984,3.49764265 1.57890029,3.54497987 1.53341803,3.62286323 C1.48793577,3.7007466 1.48793577,3.79709524 1.53341803,3.8749786 C1.57890029,3.95286197 1.66280984,4.00019918 1.75298403,3.99884583 L7.75064464,3.99884583 C7.84081883,4.00019918 7.92472838,3.95286197 7.97021064,3.8749786 C8.0156929,3.79709524 8.0156929,3.7007466 7.97021064,3.62286323 C7.92472838,3.54497987 7.84081883,3.49764265 7.75064464,3.49899601 L1.75298403,3.49899601 Z M1.7959594,4.75400485 C1.70578551,4.75265195 1.62187644,4.79998927 1.57639446,4.87787244 C1.53091249,4.95575562 1.53091249,5.0521039 1.57639446,5.12998707 C1.62187644,5.20787025 1.70578551,5.25520756 1.7959594,5.25385467 L6.34936426,5.25385467 C6.43953815,5.25520756 6.52344722,5.20787025 6.5689292,5.12998707 C6.61441118,5.0521039 6.61441118,4.95575562 6.5689292,4.87787244 C6.52344722,4.79998927 6.43953815,4.75265195 6.34936426,4.75400485 L1.7959594,4.75400485 Z M1.86377548,6.00363923 C1.77367808,6.00240574 1.68989181,6.04977044 1.6444833,6.12760595 C1.5990748,6.20544147 1.5990748,6.30169627 1.6444833,6.37953178 C1.68989181,6.45736729 1.77367808,6.504732 1.86377548,6.5034985 L4.39599755,6.5034985 C4.48609495,6.504732 4.56988122,6.45736729 4.61528972,6.37953178 C4.66069823,6.30169627 4.66069823,6.20544147 4.61528972,6.12760595 C4.56988122,6.04977044 4.48609495,6.00240574 4.39599755,6.00363923 L1.86377548,6.00363923 Z" id="Shape"></path>
                </g>
            </g>
        </g>
    </g>
</svg>