<?xml version="1.0" encoding="UTF-8"?>
<svg width="18px" height="14px" viewBox="0 0 18 14" version="1.1" xmlns="http://www.w3.org/2000/svg" xmlns:xlink="http://www.w3.org/1999/xlink">
    <title>Group 158</title>
    <g id="Parcels" stroke="none" stroke-width="1" fill="none" fill-rule="evenodd">
        <g id="Parcels-Copy-21" transform="translate(-1335.000000, -188.000000)" fill="#FFFFFF" fill-rule="nonzero">
            <g id="Group-2-Copy-2" transform="translate(1261.000000, 175.000000)">
                <g id="Group-158" transform="translate(74.000000, 13.000000)">
                    <polygon id="Path" points="5.29411765 2.11764706 18 2.11764706 18 3.70588235 5.29411765 3.70588235"></polygon>
                    <polygon id="Path" points="0.529411765 9.52941176 13.2352941 9.52941176 13.2352941 11.1176471 0.529411765 11.1176471"></polygon>
                    <path d="M15.1026302,13.2352941 C13.4961905,13.2352941 12.1764706,11.9220664 12.1764706,10.3235294 C12.1764706,8.72499246 13.4961905,7.41176471 15.1026302,7.41176471 C16.7090698,7.41176471 18,8.72499246 18,10.3235294 C18,11.9220664 16.7091211,13.2352941 15.1026302,13.2352941 Z M15.1026302,8.83907536 C14.2993848,8.83907536 13.6108374,9.49558728 13.6108374,10.3235294 C13.6108374,11.1512676 14.270595,11.8079835 15.1026302,11.8079835 C15.9058756,11.8079835 16.5944229,11.1514715 16.5944229,10.3235294 C16.5944229,9.49579118 15.9058756,8.83907536 15.1026302,8.83907536 Z" id="Shape"></path>
                    <path d="M2.91176471,5.82352941 C1.31322775,5.82352941 0,4.51030166 0,2.91176471 C0,1.31322775 1.31322775,0 2.91176471,0 C4.51030166,0 5.82352941,1.31322775 5.82352941,2.91176471 C5.82352941,4.51030166 4.51030166,5.82352941 2.91176471,5.82352941 L2.91176471,5.82352941 Z M2.91176471,1.45595882 C2.11247074,1.45595882 1.42731065,2.11247074 1.42731065,2.94041287 C1.42731065,3.7681511 2.08382258,4.42486692 2.91176471,4.42486692 C3.71105867,4.42486692 4.39621876,3.768355 4.39621876,2.94041287 C4.39621876,2.11247074 3.71105867,1.45595882 2.91176471,1.45595882 L2.91176471,1.45595882 Z" id="Shape"></path>
                </g>
            </g>
        </g>
    </g>
</svg>