<?xml version="1.0" encoding="UTF-8"?>
<svg width="22px" height="22px" viewBox="0 0 22 22" version="1.1" xmlns="http://www.w3.org/2000/svg" xmlns:xlink="http://www.w3.org/1999/xlink">
    <title>Group</title>
    <g id="Page-1" stroke="none" stroke-width="1" fill="none" fill-rule="evenodd">
        <g id="Group">
            <path d="M19.3706297,8.10757248 L7.13509778,8.10757248 L7.07959861,8.10757248 C6.07101474,8.10757248 5.2525869,8.93614659 5.2525869,9.96055146 L5.2525869,19.3634278 C5.2525869,20.3855187 6.07021132,21.214907 7.07959861,21.214907 L19.4255752,21.214907 C20.4341591,21.214907 21.2525869,20.3863329 21.2525869,19.3634278 L21.2525869,9.96055146 C21.2525869,8.93696076 20.4341591,8.10757248 19.4255752,8.10757248 L19.3706297,8.10757248 Z" id="Path-Copy-2" fill="#000000"></path>
            <path d="M14.1406792,15.202474 L14.1406792,17.6291043 L12.3653821,17.6291043 L12.3653821,15.202474 C11.8207925,14.8874478 11.4499946,14.3019096 11.4499946,13.6225011 C11.4499946,12.6116372 12.257386,11.7942902 13.2533689,11.7942902 C14.2487176,11.7942902 15.0574198,12.6116372 15.0574198,13.6225011 C15.0567591,14.3019096 14.6852772,14.8876021 14.1406792,15.202474 Z" id="Path" fill="#FFFFFF"></path>
            <path d="M10.0122652,8.10363991 L7.8727346,8.10363991 C7.73861345,8.10363991 7.60550743,8.10363991 7.49782223,8.10363991 L7.49782223,5.0061364 C7.49782223,3.63379319 6.37847579,2.51830741 5.00613258,2.51830741 C3.63378937,2.51830741 2.5183036,3.63379319 2.5183036,5.0061364 L2.5183036,6.35921736 C2.5183036,6.5700261 2.34583865,6.74249104 2.13502991,6.74249104 L0.383273683,6.7426515 C0.172464943,6.7426515 -1.59872116e-14,6.57018656 -1.59872116e-14,6.35937782 L-1.59872116e-14,5.00613258 C-1.59872116e-14,2.24620885 2.24620885,1.77635684e-14 5.00613258,1.77635684e-14 C7.76975269,0.000160422954 10.0122652,2.24637313 10.0122652,5.00613258 L10.0122652,8.10363991 Z" id="Path" fill="#000000" fill-rule="nonzero"></path>
        </g>
    </g>
</svg>