<?xml version="1.0" encoding="UTF-8"?>
<svg width="16px" height="12px" viewBox="0 0 16 12" version="1.1" xmlns="http://www.w3.org/2000/svg" xmlns:xlink="http://www.w3.org/1999/xlink">
    <title>Shape</title>
    <g id="Parcels" stroke="none" stroke-width="1" fill="none" fill-rule="evenodd">
        <g id="Parcels-Copy-21" transform="translate(-1326.000000, -344.000000)" fill="#000000" fill-rule="nonzero">
            <g id="Group-3-Copy-44" transform="translate(263.000000, 197.000000)">
                <g id="Group-135" transform="translate(18.000000, 138.000000)">
                    <g id="Group-105" transform="translate(993.000000, 0.000000)">
                        <path d="M60.0000621,9.00018907 C58.7551553,9.00018907 57.5035714,9.48198276 56.5544099,10.4450975 C55.8485093,11.1613752 55.4206211,12.0497739 55.2391304,12.9763026 C53.397236,13.3388217 52,14.9710716 52,16.9411978 C52,19.1765012 53.7969876,21 56,21 L64.5217391,21 C66.4396894,21 68,19.416752 68,17.4706068 C68,15.6339042 66.605528,14.1387965 64.8369565,13.9743016 C64.8450845,12.6968188 64.3979193,11.416752 63.4401553,10.4449084 C62.4919876,9.48254999 61.245,9 60.0000932,9 L60.0000621,9.00018907 Z M60.0000721,10.0002932 C60.9867662,10.0002932 61.9638352,10.3745937 62.7181215,11.1442726 C63.5897211,12.0336588 63.9584736,13.2418924 63.8228789,14.3974791 L63.8227568,14.3974791 C63.803958,14.5498173 63.8501008,14.7030292 63.9494671,14.8182403 C64.0488334,14.933461 64.1918999,14.9997273 64.3422822,15.0001004 L64.5500461,15.0001004 C65.916399,15.0001004 67,16.1058462 67,17.5000502 C67,18.8942861 65.9163677,20 64.5500461,20 L55.9749887,20 C54.3256964,20 53,18.6471227 53,16.9643011 C53,15.3750067 54.1844454,14.0803249 55.7015493,13.9396673 L55.7015493,13.9397918 C55.8205689,13.9279585 55.9320196,13.8751454 56.0174577,13.7898197 C56.1030302,13.7046184 56.1574743,13.5921401 56.1718775,13.4710648 C56.2684344,12.6219212 56.6367244,11.7969486 57.2766349,11.1439794 C58.0301712,10.3751934 59.013334,10 60.0000281,10 L60.0000721,10.0002932 Z M59.4993834,13.0001116 C59.2035103,13.0001116 58.9637886,13.2100246 58.9637886,13.4688822 L58.9637886,16.4716254 L57.8982096,15.6220572 C57.6905005,15.4572663 57.3288871,15.4704525 57.1394636,15.651376 C56.9501836,15.8322995 56.9461987,16.1312513 57.1729618,16.315456 L59.1367563,17.8779316 C59.2264152,17.9497552 59.320805,18 59.499377,18 C59.677949,18 59.7559021,17.9629442 59.8619977,17.8779316 L61.8257922,16.315456 C62.0316332,16.1489184 62.0702384,15.8323162 61.8592904,15.651376 C61.6590536,15.4796097 61.3082662,15.4573751 61.1005443,15.6220572 L60.0349654,16.4715138 L60.0349654,13.4687706 C60.0349654,13.2099214 59.7952532,13 59.4993706,13 L59.4993834,13.0001116 Z" id="Shape"></path>
                    </g>
                </g>
            </g>
        </g>
    </g>
</svg>