<?xml version="1.0" encoding="UTF-8"?>
<svg width="11px" height="10px" viewBox="0 0 11 10" version="1.1" xmlns="http://www.w3.org/2000/svg" xmlns:xlink="http://www.w3.org/1999/xlink">
    <title>noun_soil_3711942</title>
    <g id="Parcels" stroke="none" stroke-width="1" fill="none" fill-rule="evenodd">
        <g id="Parcels-Copy" transform="translate(-30.500000, -350.000000)" fill="#000000" fill-rule="nonzero">
            <g id="Group-2-Copy-7" transform="translate(20.500000, 337.000000)">
                <g id="noun_soil_3711942" transform="translate(10.000000, 13.000000)">
                    <path d="M9.33453955,6.50605457 C6.63944173,5.3266637 3.54612945,6.37337309 2.00387347,7.9557225 C0.921434182,9.06631557 0.127205355,9.53070072 0.120605115,9.53561485 C0.030401841,9.5872132 -0.0179999158,9.70023816 0.00620096261,9.81080605 C0.030401841,9.92137394 0.118405035,10 0.219608709,10 L10.779992,10 C10.9031965,10 11,9.88943211 11,9.75429357 L11,9.25305245 C11,8.04417682 10.3311757,6.94095495 9.33453955,6.50605457 Z" id="Path"></path>
                    <path d="M3.09441916,1.9117224 C3.09876302,1.91407605 3.45278776,2.18003769 3.63088609,2.74726561 C3.80681249,3.31449353 4.15432144,3.70049096 4.61042693,3.83229495 C4.72336733,3.86524595 4.84282353,3.88172145 4.96227973,3.88172145 C5.23159916,3.88172145 5.50743439,3.79934395 5.76589417,3.64400353 L5.76589417,6 C5.90924161,5.97175629 6.05476098,5.9505735 6.20028035,5.93174436 L6.20028035,2.78492389 C6.57819632,3.03911732 6.98869126,3.1756286 7.38398269,3.1756286 C7.54253364,3.1756286 7.69674074,3.15444582 7.84660397,3.10972661 C8.4460569,2.93555704 8.90433432,2.42481654 9.13673093,1.67635812 C9.26487485,1.27153155 9.45383284,0.972618916 9.61455573,0.777266561 C9.77310668,0.579560563 9.9012506,0.483061207 9.90342254,0.483061207 C9.97944012,0.426573779 10.014191,0.32772078 9.99464363,0.233575067 C9.97509626,0.137075711 9.9012506,0.0664664261 9.81002951,0.0523445691 C6.57168053,-0.399554854 5.78326961,2.22240326 5.77458189,2.24829333 C5.7680661,2.2741834 5.76589417,2.30007347 5.76589417,2.32596354 L5.76589417,2.37068276 C5.34888343,1.85288133 4.56698831,1.2903607 3.18998412,1.48335941 C3.09876302,1.49512762 3.0270893,1.56573691 3.00536999,1.66223626 C2.98582261,1.75638198 3.02057351,1.85523498 3.09441916,1.9117224 Z" id="Path"></path>
                </g>
            </g>
        </g>
    </g>
</svg>