<?xml version="1.0" encoding="UTF-8"?>
<svg width="12px" height="9px" viewBox="0 0 12 9" version="1.1" xmlns="http://www.w3.org/2000/svg" xmlns:xlink="http://www.w3.org/1999/xlink">
    <title>noun_reject_1890922</title>
    <g id="Parcels" stroke="none" stroke-width="1" fill="none" fill-rule="evenodd">
        <g id="noun_reject_1890922" transform="translate(0.500000, 0.000000)" fill="#000000" fill-rule="nonzero">
            <path d="M9.52947368,0 L1.47052632,0 C0.66,0 0,0.66 0,1.47052632 L0,7.00526316 C0,7.81578947 0.66,8.47578947 1.47052632,8.47578947 L9.52947368,8.47578947 C10.34,8.47578947 11,7.81578947 11,7.00526316 L11,1.47052632 C11,0.66 10.34,0 9.52947368,0 Z M7.20210526,5.39578947 C7.35263158,5.54631579 7.35263158,5.77789474 7.20210526,5.92842105 C7.13263158,5.99789474 7.02842105,6.04421053 6.93578947,6.04421053 C6.84315789,6.04421053 6.73894737,6.00947368 6.66947368,5.92842105 L5.51157895,4.77052632 L4.35368421,5.92842105 C4.28421053,5.99789474 4.18,6.04421053 4.08736842,6.04421053 C3.99473684,6.04421053 3.89052632,6.00947368 3.82105263,5.92842105 C3.67052632,5.77789474 3.67052632,5.54631579 3.82105263,5.39578947 L4.97894737,4.23789474 L3.82105263,3.08 C3.67052632,2.92947368 3.67052632,2.69789474 3.82105263,2.54736842 C3.97157895,2.39684211 4.20315789,2.39684211 4.35368421,2.54736842 L5.51157895,3.70526316 L6.66947368,2.54736842 C6.82,2.39684211 7.05157895,2.39684211 7.20210526,2.54736842 C7.35263158,2.69789474 7.35263158,2.92947368 7.20210526,3.08 L6.04421053,4.23789474 L7.20210526,5.39578947 Z" id="Shape"></path>
        </g>
    </g>
</svg>