<?xml version="1.0" encoding="UTF-8"?>
<svg width="23px" height="23px" viewBox="0 0 23 23" version="1.1" xmlns="http://www.w3.org/2000/svg" xmlns:xlink="http://www.w3.org/1999/xlink">
    <title>Group 64</title>
    <g id="Page-1" stroke="none" stroke-width="1" fill="none" fill-rule="evenodd">
        <g id="Group-64" transform="translate(0.947850, 0.000000)" fill="#000000" fill-rule="nonzero">
            <path d="M8.22132246,4.08418806 C8.44699199,4.09221294 8.66581211,4.00589844 8.82534257,3.84638302 C8.9850534,3.68667218 9.07116948,3.46804747 9.06314761,3.24236291 C9.06314761,3.01923873 8.97448618,2.80511348 8.81653404,2.64716134 C8.65878233,2.48940963 8.44465708,2.40054777 8.22133248,2.40054777 L0.841815134,2.40054777 C0.618495547,2.40054777 0.404370293,2.48940462 0.246613569,2.64716134 C0.0886664441,2.80510847 -4.12983191e-14,3.01923372 -4.12983191e-14,3.24236291 L-4.12983191e-14,21.2001237 C-4.12983191e-14,21.4232479 0.0886614336,21.6373732 0.246613569,21.7953253 C0.404365283,21.953077 0.618490536,22.0417435 0.841815134,22.0417435 L18.771517,22.0417435 C18.9946411,22.0417435 19.2087664,21.953082 19.3667185,21.7953253 C19.5244703,21.6373782 19.6133321,21.4232529 19.6133321,21.2001237 L19.6133321,12.7543644 C19.6211611,12.5288902 19.5350425,12.3100701 19.3753316,12.1505447 C19.2158162,11.9908338 18.9969961,11.9047178 18.771512,11.9127396 C18.5481924,11.9127396 18.3340671,12.0014011 18.1763104,12.1591578 C18.0183633,12.3171049 17.9296968,12.5312302 17.9296968,12.7543593 L17.9296968,20.3583487 L1.68353507,20.3583487 L1.68353507,4.08412794 L8.22132246,4.08418806 Z" id="Path"></path>
            <path d="M20.9881681,0.997597707 C20.3420594,0.358553952 19.4699256,4.4146479e-14 18.5611647,4.4146479e-14 C17.6522033,4.4146479e-14 16.7800694,0.358563974 16.1340109,0.997597707 L7.82854655,9.3591801 C7.71815943,9.46624022 7.64026063,9.60246667 7.60404948,9.7519961 L6.36960374,14.6341621 C6.31382144,14.9255949 6.39680945,15.2264075 6.59390539,15.4479734 C6.75811569,15.6108158 6.9800674,15.7016317 7.21120342,15.7004705 L7.40771163,15.7004705 L12.290028,14.4378543 C12.4354487,14.4071257 12.5706981,14.3394073 12.682844,14.2413461 L21.0163674,5.85170472 C21.6517033,5.20188832 22.0051465,4.3275999 21.9999434,3.41883899 C21.9946008,2.50987767 21.6311401,1.63989831 20.9882081,0.997347181 L20.9881681,0.997597707 Z M11.6725796,12.8384963 L8.36171768,13.6803164 L9.1753285,10.3694545 L15.8814298,3.63529415 L18.3786809,6.10453637 L11.6725796,12.8384963 Z M19.80969,4.67332688 L19.5572041,4.9258128 L17.0879619,2.45657058 L17.3404478,2.20408466 L17.3404478,2.20428037 C17.6631964,1.86822372 18.109064,1.6781741 18.5750939,1.6781741 C19.0411239,1.6781741 19.4869614,1.86822372 19.8097401,2.20428037 C20.1438426,2.52683362 20.3270278,2.97465027 20.3149023,3.43892653 C20.317251,3.90122864 20.1354249,4.34533249 19.8097401,4.6735727 L19.80969,4.67332688 Z" id="Shape"></path>
        </g>
    </g>
</svg>