<?xml version="1.0" encoding="UTF-8"?>
<svg width="11px" height="10px" viewBox="0 0 11 10" version="1.1" xmlns="http://www.w3.org/2000/svg" xmlns:xlink="http://www.w3.org/1999/xlink">
    <title>noun_requirement_3194836</title>
    <g id="Parcels" stroke="none" stroke-width="1" fill="none" fill-rule="evenodd">
        <g id="Parcels-Copy" transform="translate(-30.500000, -393.000000)" fill="#000000" fill-rule="nonzero">
            <g id="Group-2-Copy-8" transform="translate(20.500000, 380.000000)">
                <g id="Group" transform="translate(10.000000, 13.000000)">
                    <path d="M2.74421053,3.55481728 C2.82526316,3.63233666 2.91789474,3.66555925 3.03368421,3.66555925 C3.13789474,3.66555925 3.24210526,3.62126246 3.32315789,3.55481728 L4.53894737,2.39202658 C4.70105263,2.23698782 4.70105263,1.99335548 4.53894737,1.84939092 C4.37684211,1.69435216 4.12210526,1.69435216 3.97157895,1.84939092 L3.04526316,2.73532669 L2.67473684,2.38095238 C2.51263158,2.22591362 2.25789474,2.22591362 2.10736842,2.38095238 C1.94526316,2.53599114 1.94526316,2.77962348 2.10736842,2.92358804 L2.74421053,3.55481728 Z" id="Path"></path>
                    <path d="M5.81263158,3.0786268 L8.62631579,3.0786268 C8.84631579,3.0786268 9.03157895,2.90143965 9.03157895,2.6910299 C9.03157895,2.48062016 8.84631579,2.303433 8.62631579,2.303433 L5.81263158,2.303433 C5.59263158,2.303433 5.40736842,2.48062016 5.40736842,2.6910299 C5.40736842,2.90143965 5.59263158,3.0786268 5.81263158,3.0786268 Z" id="Path"></path>
                    <path d="M2.74421053,5.84717608 C2.82526316,5.92469546 2.92947368,5.95791805 3.03368421,5.95791805 C3.13789474,5.95791805 3.24210526,5.92469546 3.32315789,5.84717608 L4.53894737,4.68438538 C4.70105263,4.52934662 4.70105263,4.28571429 4.53894737,4.14174972 C4.37684211,3.98671096 4.12210526,3.98671096 3.97157895,4.14174972 L3.04526316,5.02768549 L2.67473684,4.67331118 C2.51263158,4.51827243 2.25789474,4.51827243 2.10736842,4.67331118 C1.94526316,4.82834994 1.94526316,5.07198228 2.10736842,5.21594684 L2.74421053,5.84717608 Z" id="Path"></path>
                    <path d="M5.81263158,5.3820598 L8.62631579,5.3820598 C8.84631579,5.3820598 9.03157895,5.20487265 9.03157895,4.9944629 C9.03157895,4.78405316 8.84631579,4.606866 8.62631579,4.606866 L5.81263158,4.606866 C5.59263158,4.606866 5.40736842,4.78405316 5.40736842,4.9944629 C5.41894737,5.20487265 5.59263158,5.3820598 5.81263158,5.3820598 Z" id="Path"></path>
                    <path d="M2.74421053,8.15060908 C2.82526316,8.22812846 2.91789474,8.26135105 3.03368421,8.26135105 C3.13789474,8.26135105 3.24210526,8.21705426 3.32315789,8.15060908 L4.52736842,6.98781838 C4.68947368,6.83277962 4.68947368,6.58914729 4.52736842,6.44518272 C4.36526316,6.29014396 4.11052632,6.29014396 3.96,6.44518272 L3.03368421,7.33111849 L2.66315789,6.97674419 C2.50105263,6.82170543 2.24631579,6.82170543 2.09578947,6.97674419 C1.93368421,7.13178295 1.93368421,7.37541528 2.09578947,7.51937984 L2.74421053,8.15060908 Z" id="Path"></path>
                    <path d="M5.81263158,7.6744186 L8.62631579,7.6744186 C8.84631579,7.6744186 9.03157895,7.49723145 9.03157895,7.28682171 C9.03157895,7.07641196 8.84631579,6.89922481 8.62631579,6.89922481 L5.81263158,6.89922481 C5.59263158,6.89922481 5.40736842,7.07641196 5.40736842,7.28682171 C5.40736842,7.49723145 5.59263158,7.6744186 5.81263158,7.6744186 Z" id="Path"></path>
                    <path d="M10.5947368,0 L0.405263158,0 C0.185263158,0 0,0.177187154 0,0.387596899 L0,9.6124031 C0,9.82281285 0.185263158,10 0.405263158,10 L10.5947368,10 C10.8147368,10 11,9.82281285 11,9.6124031 L11,0.387596899 C11,0.166112957 10.8147368,0 10.5947368,0 Z M10.1894737,9.2248062 L0.810526316,9.2248062 L0.810526316,0.764119601 L10.1894737,0.764119601 L10.1894737,9.2248062 Z" id="Shape"></path>
                </g>
            </g>
        </g>
    </g>
</svg>