<?xml version="1.0" encoding="UTF-8"?>
<svg width="11px" height="6px" viewBox="0 0 11 6" version="1.1" xmlns="http://www.w3.org/2000/svg" xmlns:xlink="http://www.w3.org/1999/xlink">
    <title>Path</title>
    <defs>
        <filter id="filter-1">
            <feColorMatrix in="SourceGraphic" type="matrix" values="0 0 0 0 1.000000 0 0 0 0 1.000000 0 0 0 0 1.000000 0 0 0 1.000000 0"></feColorMatrix>
        </filter>
    </defs>
    <g id="Parcels" stroke="none" stroke-width="1" fill="none" fill-rule="evenodd">
        <g filter="url(#filter-1)" id="Group">
            <g transform="translate(5.152687, 2.976023) rotate(-180.000000) translate(-5.152687, -2.976023) translate(0.152687, -0.000000)">
                <path d="M4.32660451,0.279230242 C4.50570656,0.100269041 4.74756483,1.803682e-14 5,1.803682e-14 C5.25243517,1.803682e-14 5.49429344,0.100269041 5.67339549,0.279230242 C6.62884145,1.23495921 8.4085799,3.015052 9.72081969,4.32679952 C9.99370352,4.599049 10.074793,5.00900977 9.92742166,5.36439371 C9.78005029,5.72041227 9.43312822,5.95204645 9.04812933,5.95204645 C6.75364878,5.95204645 3.24635122,5.95204645 0.951870671,5.95204645 C0.566871783,5.95204645 0.219949709,5.72041227 0.0725783395,5.36439371 C-0.0747930295,5.00900977 0.00629647975,4.599049 0.279180307,4.32679952 C1.5914201,3.015052 3.37115855,1.23495921 4.32660451,0.279230242 Z" id="Path" fill="#000000"></path>
            </g>
        </g>
    </g>
</svg>