<?xml version="1.0" encoding="UTF-8"?>
<svg width="18px" height="22px" viewBox="0 0 18 22" version="1.1" xmlns="http://www.w3.org/2000/svg" xmlns:xlink="http://www.w3.org/1999/xlink">
    <title>noun-duplicate-1582566</title>
    <g id="Page-1" stroke="none" stroke-width="1" fill="none" fill-rule="evenodd">
        <g id="noun-duplicate-1582566" fill="#000000" fill-rule="nonzero">
            <path d="M12.3795793,9.5611527 L12.3795793,16.02951 L16.8775801,16.02951 L16.8775801,4.49784814 L14.0674365,4.49784814 C13.7514886,4.49784814 13.5020564,4.2483969 13.5020564,3.94078922 L13.5020564,1.12228632 L5.34580375,1.12228632 L5.34580375,5.62830293 L8.43863736,5.62830293 C8.59653688,5.62830293 8.73788572,5.69480342 8.84599195,5.79455414 L12.2131944,9.16175664 C12.2713432,9.22825713 12.3794457,9.3612581 12.3794457,9.56075191 L12.3795793,9.5611527 Z M12.3795793,17.1601174 L12.3795793,20.8183693 C12.3795793,21.1259693 12.1217801,21.3754282 11.8141992,21.3754282 L0.565380077,21.3754282 C0.249432162,21.3754282 0,21.125977 0,20.8183693 L0,6.18574356 C0,5.87814352 0.249451247,5.62868464 0.565380077,5.62868464 L4.22363194,5.62868464 L4.22363194,0.565380077 C4.22363194,0.249432162 4.47308318,0 4.78069086,0 L14.067551,0 C14.2254505,0 14.3667994,0.066500484 14.4665463,0.174599078 L17.8337488,3.54180158 C17.9002493,3.59995038 18,3.74130303 18,3.94079685 L18,16.5946687 C18,16.9022687 17.7505488,17.1600487 17.4429411,17.1600487 L12.3796365,17.1600487 L12.3795793,17.1601174 Z M16.0792842,3.37525646 L14.6243428,1.92031503 L14.6243428,3.37525646 L16.0792842,3.37525646 Z M7.87340996,6.75081828 L1.12259169,6.75081828 L1.12259169,20.2528365 L11.2492008,20.2528365 L11.2492008,10.1262274 L8.43905723,10.1262274 C8.13145719,10.1262274 7.87367716,9.87677617 7.87367716,9.56084734 L7.87340996,6.75081828 Z M10.458997,9.00390292 L9.00405561,7.5489615 L9.00405561,9.00390292 L10.458997,9.00390292 Z" id="Shape"></path>
        </g>
    </g>
</svg>