<?xml version="1.0" encoding="UTF-8"?>
<svg width="11px" height="12px" viewBox="0 0 11 12" version="1.1" xmlns="http://www.w3.org/2000/svg" xmlns:xlink="http://www.w3.org/1999/xlink">
    <title>noun_brokerage_960880</title>
    <g id="Parcels" stroke="none" stroke-width="1" fill="none" fill-rule="evenodd">
        <g id="Parcels-Copy" transform="translate(-30.500000, -220.000000)" fill="#000000" fill-rule="nonzero">
            <g id="Group-2-Copy-4" transform="translate(20.500000, 208.000000)">
                <g id="noun_brokerage_960880" transform="translate(10.000000, 12.000000)">
                    <g id="Group" transform="translate(0.000000, 0.000000)">
                        <path d="M0.717391304,3.3601296 L10.2826087,3.3601296 C10.4148478,3.3601296 10.5217391,3.25261121 10.5217391,3.1201332 L10.5217391,1.6801548 C10.5217391,1.54767678 10.4148478,1.4401584 10.2826087,1.4401584 L8.426,1.4401584 L5.6068913,0.0253796193 C5.53969565,-0.0084598731 5.46030435,-0.0084598731 5.39286957,0.0253796193 L2.57376087,1.4401584 L0.717391304,1.4401584 C0.585391304,1.4401584 0.47826087,1.54767678 0.47826087,1.6801548 L0.47826087,3.1201332 C0.47826087,3.25261121 0.585391304,3.3601296 0.717391304,3.3601296 Z M5.5,0.508492373 L7.3566087,1.4401584 L3.6433913,1.4401584 L5.5,0.508492373 Z M0.956521739,1.9201512 L10.0434783,1.9201512 L10.0434783,2.8801368 L0.956521739,2.8801368 L0.956521739,1.9201512 Z" id="Shape"></path>
                        <path d="M10.7608696,10.0800288 L10.0434783,10.0800288 L10.0434783,9.8400324 C10.0434783,9.70731439 9.93658696,9.600036 9.80434783,9.600036 L1.19565217,9.600036 C1.06365217,9.600036 0.956521739,9.70731439 0.956521739,9.8400324 L0.956521739,10.0800288 L0.239130435,10.0800288 C0.107130435,10.0800288 0,10.1873072 0,10.3200252 L0,11.7600036 C0,11.8927216 0.107130435,12 0.239130435,12 L10.7608696,12 C10.8931087,12 11,11.8927216 11,11.7600036 L11,10.3200252 C11,10.1873072 10.8931087,10.0800288 10.7608696,10.0800288 Z M10.5217391,11.5200072 L0.47826087,11.5200072 L0.47826087,10.5600216 L1.19565217,10.5600216 C1.32765217,10.5600216 1.43478261,10.4527432 1.43478261,10.3200252 L1.43478261,10.0800288 L9.56521739,10.0800288 L9.56521739,10.3200252 C9.56521739,10.4527432 9.6721087,10.5600216 9.80434783,10.5600216 L10.5217391,10.5600216 L10.5217391,11.5200072 Z" id="Shape"></path>
                        <path d="M1.19565217,4.3201152 C1.06365217,4.3201152 0.956521739,4.42763359 0.956521739,4.5601116 L0.956521739,8.400054 C0.956521739,8.53277201 1.06365217,8.6400504 1.19565217,8.6400504 L3.10869565,8.6400504 C3.24069565,8.6400504 3.34782609,8.53277201 3.34782609,8.400054 L3.34782609,4.5601116 C3.34782609,4.42763359 3.24069565,4.3201152 3.10869565,4.3201152 L1.19565217,4.3201152 Z M2.86956522,8.1600576 L1.43478261,8.1600576 L1.43478261,4.800108 L2.86956522,4.800108 L2.86956522,8.1600576 Z" id="Shape"></path>
                        <path d="M4.54347826,4.3201152 C4.41147826,4.3201152 4.30434783,4.42763359 4.30434783,4.5601116 L4.30434783,8.400054 C4.30434783,8.53277201 4.41147826,8.6400504 4.54347826,8.6400504 L6.45652174,8.6400504 C6.58876087,8.6400504 6.69565217,8.53277201 6.69565217,8.400054 L6.69565217,4.5601116 C6.69565217,4.42763359 6.58876087,4.3201152 6.45652174,4.3201152 L4.54347826,4.3201152 Z M6.2173913,8.1600576 L4.7826087,8.1600576 L4.7826087,4.800108 L6.2173913,4.800108 L6.2173913,8.1600576 Z" id="Shape"></path>
                        <path d="M7.89130435,4.3201152 C7.75906522,4.3201152 7.65217391,4.42763359 7.65217391,4.5601116 L7.65217391,8.400054 C7.65217391,8.53277201 7.75906522,8.6400504 7.89130435,8.6400504 L9.80434783,8.6400504 C9.93658696,8.6400504 10.0434783,8.53277201 10.0434783,8.400054 L10.0434783,4.5601116 C10.0434783,4.42763359 9.93658696,4.3201152 9.80434783,4.3201152 L7.89130435,4.3201152 Z M9.56521739,8.1600576 L8.13043478,8.1600576 L8.13043478,4.800108 L9.56521739,4.800108 L9.56521739,8.1600576 Z" id="Shape"></path>
                    </g>
                </g>
            </g>
        </g>
    </g>
</svg>