<?xml version="1.0" encoding="UTF-8"?>
<svg width="8px" height="11px" viewBox="0 0 8 11" version="1.1" xmlns="http://www.w3.org/2000/svg" xmlns:xlink="http://www.w3.org/1999/xlink">
    <title>Group 11</title>
    <g id="Parcels" stroke="none" stroke-width="1" fill="none" fill-rule="evenodd">
        <g transform="translate(-562.500000, -260.000000)" fill="#000000" fill-rule="nonzero" id="Group-3-Copy-2">
            <g transform="translate(257.500000, 235.000000)">
                <g id="Group-17" transform="translate(305.000000, 22.000000)">
                    <g id="Group-11" transform="translate(0.000000, 3.000000)">
                        <path d="M3.53754938,10.7668072 C3.65310154,10.9147162 3.82278453,11 4.00151598,11 C4.18024744,11 4.34993043,10.9147162 4.46548258,10.7668072 L7.8770594,6.57776257 C8.1360175,6.26706889 7.97514959,6 7.49548856,6 L0.507543412,6 C0.0298441857,6 -0.13298553,6.25217261 0.115182651,6.57776257 L3.53754938,10.7668072 Z" id="Path"></path>
                        <path d="M3.53754938,4.76680723 C3.65310154,4.91471618 3.82278453,5 4.00151598,5 C4.18024744,5 4.34993043,4.91471618 4.46548258,4.76680723 L7.8770594,0.577762573 C8.1360175,0.267068887 7.97514959,0 7.49548856,0 L0.507543412,0 C0.0298441857,0 -0.13298553,0.252172615 0.115182651,0.577762573 L3.53754938,4.76680723 Z" id="Path-Copy" transform="translate(4.000000, 2.500000) scale(1, -1) translate(-4.000000, -2.500000) "></path>
                    </g>
                </g>
            </g>
        </g>
    </g>
</svg>