<?xml version="1.0" encoding="UTF-8"?>
<svg width="11px" height="11px" viewBox="0 0 11 11" version="1.1" xmlns="http://www.w3.org/2000/svg" xmlns:xlink="http://www.w3.org/1999/xlink">
    <title>noun_Download_3839553</title>
    <g id="Parcels" stroke="none" stroke-width="1" fill="none" fill-rule="evenodd">
        <g id="Parcels-Copy" transform="translate(-1178.500000, -141.000000)" fill="#000000" fill-rule="nonzero">
            <g id="Group-2" transform="translate(1163.500000, 128.000000)">
                <g id="noun_Download_3839553" transform="translate(15.000000, 13.000000)">
                    <g id="Group" transform="translate(0.000000, 0.000000)">
                        <polygon id="Path" points="6.38770541 5.67855729 4.61231451 5.67855729 4.61231451 8.51666007 3.19200179 8.51666007 5.50000996 11 7.80801813 8.51666007 6.38770541 8.51666007"></polygon>
                        <path d="M9.03907418,2.49402859 C9.09443223,2.04105378 8.95226101,1.5861567 8.64875317,1.24514089 C8.34524533,0.90412508 7.9096802,0.709888248 7.45293995,0.711877429 C7.11488856,0.711832903 6.78563475,0.819518988 6.51304801,1.01927944 C5.61420399,0.00125190643 4.14469104,-0.289959124 2.92499231,0.308240184 C1.70529359,0.906439491 1.03706319,2.24610336 1.29339876,3.57924814 C0.485984809,3.73586849 -0.0705288554,4.47929181 0.00724274477,5.29737014 C0.085014345,6.11544847 0.771661649,6.74089901 1.59414997,6.74284583 L4.25723633,6.74284583 L4.25723633,5.32379444 L6.74278359,5.32379444 L6.74278359,6.74284583 L9.05079176,6.74284583 L9.05079176,6.73397676 C10.1551653,6.64060493 11.0030441,5.71620682 11,4.60887466 C10.9969229,3.5015425 10.143947,2.58183714 9.03907418,2.49456074 L9.03907418,2.49402859 Z M3.4382485,1.05298191 C2.97760454,1.24584294 2.59887217,1.59343273 2.36751025,2.03567499 C2.33814281,2.09185452 2.28100811,2.12811311 2.21762824,2.13079251 C2.15424838,2.1334719 2.09425226,2.10216504 2.06023984,2.04866491 C2.02622742,1.99516478 2.023366,1.92759932 2.05273344,1.8714198 C2.32262387,1.35585375 2.76417245,0.950582028 3.30118833,0.725535799 C3.39169044,0.687721287 3.49573887,0.730367877 3.53358699,0.820789623 C3.57143512,0.911211369 3.52875062,1.0151674 3.4382485,1.05298191 L3.4382485,1.05298191 Z M4.07969724,0.889258853 L3.72461906,0.889258853 L3.72461906,0.534496005 L4.07969724,0.534496005 L4.07969724,0.889258853 Z" id="Shape"></path>
                    </g>
                </g>
            </g>
        </g>
    </g>
</svg>