<?xml version="1.0" encoding="UTF-8"?>
<svg width="13px" height="15px" viewBox="0 0 13 15" version="1.1" xmlns="http://www.w3.org/2000/svg" xmlns:xlink="http://www.w3.org/1999/xlink">
    <title>Group</title>
    <g id="Page-1" stroke="none" stroke-width="1" fill="none" fill-rule="evenodd">
        <g id="Group-8-Copy-22" transform="translate(-422.000000, -423.000000)" fill="#FFFFFF" fill-rule="nonzero">
            <g id="Group-3-Copy-48" transform="translate(391.000000, 112.000000)">
                <g id="Group-38-Copy-2" transform="translate(19.000000, 301.000000)">
                    <g id="Group" transform="translate(12.000000, 10.000000)">
                        <path d="M8,2.72727273 C8,1.82353405 7.32842712,1.09090909 6.5,1.09090909 C5.67157288,1.09090909 5,1.82353405 5,2.72727273 L4,2.72727273 C4,1.22104159 5.11928813,0 6.5,0 C7.88071187,0 9,1.22104159 9,2.72727273 L8,2.72727273 Z M6,12 L7,12 L7,7.63636364 L6,7.63636364 L6,12 Z M8,12 L9,12 L9,7.63636364 L8,7.63636364 L8,12 Z M4,12 L5,12 L5,7.63636364 L4,7.63636364 L4,12 Z" id="Shape"></path>
                        <path d="M13,3.62500552 C13,2.72754301 12.272431,2.00000294 11.3749292,2.00000294 L1.62450425,2.00000294 C0.833941286,1.99850797 0.157563143,2.56739516 0.0235996856,3.3464925 C-0.110363771,4.12558983 0.337151597,4.88771022 1.08281398,5.15033851 L1.08281398,12.2916702 C1.08460487,13.7866987 2.2961714,14.9982121 3.79126535,15.0000029 L9.20816808,15.0000029 C10.703262,14.9982121 11.9148286,13.7866987 11.9166195,12.2916702 L11.9166195,5.15033851 C12.5635877,4.92161735 12.9971554,4.31118081 13,3.62500552 Z M10.8332389,12.2916702 C10.8332389,13.1891327 10.1056699,13.9166699 9.20816808,13.9166699 L3.79126535,13.9166699 C2.89376352,13.9166699 2.16619453,13.1891327 2.16619453,12.2916702 L2.16619453,5.25000516 L10.8332389,5.25000516 L10.8332389,12.2916702 Z M11.3749292,4.16667207 L1.62450425,4.16667207 C1.32533698,4.16667207 1.08281398,3.9241597 1.08281398,3.62500552 C1.08281398,3.32585135 1.32533698,3.08333898 1.62450425,3.08333898 L11.3749292,3.08333898 C11.6740965,3.08333898 11.9166195,3.32585135 11.9166195,3.62500552 C11.9166195,3.9241597 11.6740965,4.16667207 11.3749292,4.16667207 Z" id="Shape"></path>
                    </g>
                </g>
            </g>
        </g>
    </g>
</svg>