<?xml version="1.0" encoding="UTF-8"?>
<svg width="11px" height="15px" viewBox="0 0 11 15" version="1.1" xmlns="http://www.w3.org/2000/svg" xmlns:xlink="http://www.w3.org/1999/xlink">
    <title>noun_broker_1915384</title>
    <g id="Parcels" stroke="none" stroke-width="1" fill="none" fill-rule="evenodd">
        <g id="Parcels-Copy" transform="translate(-30.500000, -262.000000)" fill="#000000" fill-rule="nonzero">
            <g id="Group-2-Copy-5" transform="translate(20.500000, 251.000000)">
                <g id="Group" transform="translate(10.000000, 11.000000)">
                    <path d="M5.5039044,0 C2.47050254,0 0,2.49341412 0,5.55979979 C0,9.55479452 4.94882313,14.4665437 5.15991037,14.6720232 L5.49608635,15 L5.83617135,14.6759747 C6.04725859,14.4744468 11,9.71680717 11,5.55979979 C11.0038998,2.49341412 8.53339723,0 5.5039044,0 Z M5.5039044,0.987881981 C7.99786108,0.987881981 10.026644,3.03872497 10.026644,5.55979979 C10.026644,6.50816649 9.71392218,7.51185458 9.25265746,8.48393045 C9.14320482,8.32586934 7.0166963,7.54741834 7.0166963,7.54741834 C7.01278728,7.52370917 6.47725113,8.55110643 6.06289469,9.3532666 C6.00035032,8.85537408 5.85571647,8.55505796 5.78926308,8.44441517 C5.88307963,8.38514226 5.95344204,8.29030558 5.97689618,8.17175975 L6.00816836,7.98208641 C6.02380446,7.89515279 5.95735106,7.81217071 5.86744354,7.81217071 L5.26936302,7.81217071 C5.17945549,7.81217071 5.10909307,7.89910432 5.12863819,7.98998946 L5.17554646,8.19546891 C5.1990006,8.30216017 5.26545399,8.38909378 5.35536152,8.44441517 C5.28890813,8.55505796 5.14036526,8.85537408 5.07391187,9.3532666 C4.64782836,8.55505796 4.10056514,7.55532139 4.10056514,7.55532139 C4.10056514,7.55532139 1.94669346,8.32586934 1.83333179,8.59062171 C1.3251588,7.5711275 0.973346729,6.5239726 0.973346729,5.55979979 C0.977255752,3.03872497 3.00603869,0.987881981 5.5039044,0.987881981 Z M5.5182683,13.6332561 C5.5282683,13.6332561 5.5482683,13.6332561 5.5582683,13.6332561 C5.5482683,13.6432561 5.5382683,13.6532561 5.5382683,13.6532561 C5.5282683,13.6532561 5.5182683,13.6432561 5.5182683,13.6332561 Z" id="Shape"></path>
                    <path d="M3.85820571,4.8959431 C3.82693353,4.88013699 3.7878433,4.87618546 3.737026,4.91174921 C3.57675605,5.02239199 3.79566134,5.90358272 3.94811324,6.02212856 C3.99111249,6.05769231 4.03411174,6.05769231 4.07320197,6.03793467 C4.09665611,6.10511064 4.11620123,6.16833509 4.14356439,6.23155954 C4.2647441,6.50421496 4.39374186,6.74525817 4.52664864,6.94283456 C4.52664864,6.94283456 4.92927801,7.5 5.57817583,7.5 C6.24270974,7.5 6.49679624,7.12065332 6.68052032,6.84404636 C6.71179251,6.80057956 6.73915567,6.75711275 6.76651883,6.721549 C6.85642636,6.56743941 6.94242486,6.40542677 7.00496923,6.23551106 C7.02842337,6.17623815 7.04796848,6.11696523 7.0675136,6.05374078 C7.09878578,6.05769231 7.12614894,6.04978925 7.16133015,6.02608008 C7.31378205,5.90753425 7.53268734,5.02239199 7.37241739,4.91570074 C7.32941814,4.88804004 7.29423693,4.88408851 7.26687377,4.89199157 C7.31378205,4.61933614 7.34505423,4.46127503 7.34505423,4.46127503 C7.57568659,3.23630137 6.19189245,2.19704953 5.1130021,2.44994731 C4.42501405,2.60800843 4.23738094,3.06638567 4.23738094,3.06638567 C3.44384927,3.16122234 3.65493651,4.18071654 3.65493651,4.18071654 L3.85820571,4.8959431 Z" id="Path"></path>
                </g>
            </g>
        </g>
    </g>
</svg>