<?xml version="1.0" encoding="UTF-8"?>
<svg width="11px" height="10px" viewBox="0 0 11 10" version="1.1" xmlns="http://www.w3.org/2000/svg" xmlns:xlink="http://www.w3.org/1999/xlink">
    <title>noun_tags_423475</title>
    <g id="Parcels" stroke="none" stroke-width="1" fill="none" fill-rule="evenodd">
        <g id="noun_tags_423475" fill="#000000" fill-rule="nonzero">
            <path d="M3.29463995,1.371746 C2.64551015,1.371746 2.11885766,1.89839849 2.11885766,2.54752829 C2.11885766,3.1966581 2.64551015,3.72331058 3.29463995,3.72331058 C3.94376976,3.72331058 4.47042224,3.1966581 4.47042224,2.54752829 C4.47042224,1.89839849 3.94376976,1.371746 3.29463995,1.371746 Z M3.29463995,3.09867624 C2.98844665,3.09867624 2.73124427,2.8537216 2.73124427,2.53528056 C2.73124427,2.21683952 2.97619892,1.97188488 3.29463995,1.97188488 C3.61308099,1.97188488 3.85803563,2.21683952 3.85803563,2.53528056 C3.85803563,2.8537216 3.60083326,3.09867624 3.29463995,3.09867624 Z" id="Shape"></path>
            <path d="M6.58927991,1.43298466 C6.58927991,0.636882073 5.9401501,0 5.15629524,0 L1.43298466,0 C0.649129805,0 0,0.649129805 0,1.43298466 L0,6.71175723 C0,8.51217386 1.46972786,9.98190172 3.27014449,9.98190172 L3.31913542,9.98190172 C5.11955205,9.98190172 6.58927991,8.51217386 6.58927991,6.71175723 L6.58927991,1.43298466 Z M5.9768933,6.72400496 C5.9768933,8.19373282 4.78886328,9.38176284 3.31913542,9.38176284 L3.27014449,9.38176284 C1.80041663,9.38176284 0.612386608,8.19373282 0.612386608,6.72400496 L0.612386608,1.43298466 C0.612386608,0.979818573 0.979818573,0.612386608 1.43298466,0.612386608 L5.15629524,0.612386608 C5.60946133,0.612386608 5.9768933,0.979818573 5.9768933,1.43298466 L5.9768933,6.72400496 Z" id="Shape"></path>
            <path d="M10.0431404,4.01725615 L7.71607127,1.69018704 C7.59359394,1.56770972 7.39763023,1.56770972 7.28740064,1.69018704 C7.16492332,1.81266436 7.16492332,2.00862808 7.28740064,2.11885766 L9.61446975,4.44592678 C10.655527,5.48698401 10.655527,7.16492332 9.61446975,8.20598055 L9.60222202,8.21822828 C8.87960582,8.95309221 7.83854859,9.19804686 6.88322548,8.89185355 C6.72400496,8.84286262 6.55253671,8.92859675 6.50354578,9.08781727 C6.45455485,9.24703779 6.54028898,9.41850604 6.6995095,9.46749697 C7.03019826,9.57772656 7.37313476,9.62671748 7.71607127,9.62671748 C8.57341252,9.62671748 9.4062583,9.28378098 10.0431404,8.65914664 L10.0553881,8.64689891 C11.3169045,7.37313476 11.3169045,5.30326803 10.0431404,4.01725615 Z" id="Path"></path>
        </g>
    </g>
</svg>