<?xml version="1.0" encoding="UTF-8"?>
<svg width="13px" height="11px" viewBox="0 0 13 11" version="1.1" xmlns="http://www.w3.org/2000/svg" xmlns:xlink="http://www.w3.org/1999/xlink">
    <title>noun_House_3891233</title>
    <g id="Parcels" stroke="none" stroke-width="1" fill="none" fill-rule="evenodd">
        <g transform="translate(-28.500000, -521.000000)" fill="#000000" fill-rule="nonzero" id="Group-2-Copy-11">
            <g transform="translate(20.500000, 509.000000)">
                <g id="noun_House_3891233" transform="translate(8.893950, 12.000000)">
                    <path d="M11.9840391,6.11692516 L10.5445509,3.00060667 C10.5128977,2.93221086 10.4443214,2.88850286 10.3689564,2.88868935 L9.44081452,2.88868935 L9.44081452,1.96440666 C9.44100053,1.92021953 9.42601526,1.87730717 9.39836313,1.84284129 L7.94343797,0.0695306491 C7.90713974,0.025947448 7.85350478,0.000541411915 7.79678768,3.13435095e-05 C7.74002095,-0.000990337359 7.6856705,0.0230085599 7.64820779,0.0656714312 L6.10452062,1.83319325 C6.07419476,1.86864982 6.05774259,1.91389331 6.05821,1.96054744 L6.05821,2.88868935 L1.62010938,2.88868935 C1.54474445,2.88850286 1.4761681,2.93221086 1.44451496,3.00060667 L0.0204635421,6.11692516 C-0.010496226,6.1786807 -0.0060805444,6.2522754 0.0320411959,6.30988605 C0.0678365759,6.36568316 0.129768266,6.39919914 0.196057958,6.39864806 L0.755644559,6.39864806 L0.755644559,10.68238 C0.755644559,10.7889493 0.842036095,10.8753409 0.948605456,10.8753409 L11.0558972,10.8753409 C11.1624666,10.8753409 11.2488581,10.7889493 11.2488581,10.68238 L11.2488581,6.39092963 L11.8026559,6.39092963 C11.8689456,6.3914807 11.9308773,6.35796473 11.9666727,6.30216762 C12.0038137,6.24747264 12.0103671,6.17757035 11.9840391,6.11692516 Z M1.75711161,3.27461115 L6.06592844,3.27461115 L6.06592844,6.00500784 L0.502865784,6.00500784 L1.75711161,3.27461115 Z M1.14156635,6.39092963 L6.06592844,6.39092963 L6.06592844,10.4894191 L1.14156635,10.4894191 L1.14156635,6.39092963 Z M6.45185023,6.19796873 L6.45185023,2.03194297 L7.79099886,0.488255795 L9.05489273,2.03194297 L9.05489273,10.4894191 L8.7037039,10.4894191 L8.7037039,8.44017435 C8.7037039,8.33360499 8.61731236,8.24721346 8.510743,8.24721346 L7.00564801,8.24721346 C6.89907865,8.24721346 6.81268711,8.33360499 6.81268711,8.44017435 L6.81268711,10.4894191 L6.45185023,10.4894191 L6.45185023,6.19796873 Z M7.1986089,10.4894191 L7.1986089,8.63313525 L8.31778211,8.63313525 L8.31778211,10.4894191 L7.1986089,10.4894191 Z M10.8648659,10.4894191 L9.44081452,10.4894191 L9.44081452,6.39092963 L10.8629363,6.39092963 L10.8648659,10.4894191 Z M11.0578268,6.00500784 L9.44081452,6.00500784 L9.44081452,3.27461115 L10.2473911,3.27461115 L11.5016369,6.00500784 L11.0578268,6.00500784 Z" id="Shape"></path>
                    <path d="M5.13585692,7.17435087 L2.19320324,7.17435087 C2.08663388,7.17435087 2.00024234,7.26074241 2.00024234,7.36731177 L2.00024234,9.56127716 C2.00024234,9.66784652 2.08663388,9.75423806 2.19320324,9.75423806 L5.13585692,9.75423806 C5.24242628,9.75423806 5.32881781,9.66784652 5.32881781,9.56127716 L5.32881781,7.36731177 C5.32881781,7.26074241 5.24242628,7.17435087 5.13585692,7.17435087 Z M4.94289602,9.37217548 L2.38616414,9.37217548 L2.38616414,7.56027266 L4.94289602,7.56027266 L4.94289602,9.37217548 Z" id="Shape"></path>
                </g>
            </g>
        </g>
    </g>
</svg>