<?xml version="1.0" encoding="UTF-8"?>
<svg width="20px" height="18px" viewBox="0 0 20 18" version="1.1" xmlns="http://www.w3.org/2000/svg" xmlns:xlink="http://www.w3.org/1999/xlink">
    <title>Shape</title>
    <g id="Parcels" stroke="none" stroke-width="1" fill="none" fill-rule="evenodd">
        <g id="Parcels-Copy-20" transform="translate(-293.000000, -1252.000000)" fill="#FF2123" fill-rule="nonzero">
            <g id="Group-31-Copy" transform="translate(258.500000, 626.000000)">
                <g id="Group-99" transform="translate(23.000000, 620.000000)">
                    <path d="M31.3729884,22.1927113 L22.2998155,6.45987506 C21.9419598,5.84670831 21.0788317,5.84670831 20.7209571,6.45987506 L11.6267328,22.1927113 C11.268877,22.805878 11.7108747,23.5671443 12.4267253,23.5671443 L30.5941226,23.5671443 C31.2887075,23.588385 31.7308254,22.805878 31.3729884,22.1927113 Z M20.6891892,10.9129353 C20.6891892,10.4405084 21.0540142,10.0540541 21.5,10.0540541 C21.9459858,10.0540541 22.3108108,10.4405084 22.3108108,10.9129353 L22.3108108,17.0330106 C22.3108108,17.5054375 21.9459858,17.8918919 21.5,17.8918919 C21.0540142,17.8918919 20.6891892,17.5054375 20.6891892,17.0330106 L20.6891892,10.9129353 Z M21.3648649,21.4054054 C20.6937741,21.4054054 20.1486486,20.8602425 20.1486486,20.1891892 C20.1486486,19.5181359 20.6938116,18.972973 21.3648649,18.972973 C22.0359182,18.972973 22.5810811,19.5181359 22.5810811,20.1891892 C22.5810811,20.8602425 22.0359182,21.4054054 21.3648649,21.4054054 Z" id="Shape"></path>
                </g>
            </g>
        </g>
    </g>
</svg>