<?xml version="1.0" encoding="UTF-8"?>
<svg width="24px" height="24px" viewBox="0 0 24 24" version="1.1" xmlns="http://www.w3.org/2000/svg" xmlns:xlink="http://www.w3.org/1999/xlink">
    <title>Group</title>
    <g id="Page-1" stroke="none" stroke-width="1" fill="none" fill-rule="evenodd">
        <g id="Group-8-Copy-20" transform="translate(-624.000000, -245.000000)" fill="#9A9A9A" fill-rule="nonzero">
            <g id="Group-3-Copy" transform="translate(465.000000, 230.000000)">
                <g id="Group" transform="translate(159.000000, 15.000000)">
                    <path d="M23.3936842,8.23578947 L20.8168421,11.2926316 C20.8421053,11.52 20.8421053,11.7726316 20.8421053,12 C20.8421053,16.8757895 16.8757895,20.8421053 12,20.8421053 C7.12421053,20.8421053 3.15789474,16.8757895 3.15789474,12 C3.15789474,7.12421053 7.12421053,3.15789474 12,3.15789474 C13.4147368,3.15789474 14.7284211,3.48631579 15.9157895,4.06736842 L18.24,1.76842105 C16.4210526,0.631578947 14.2736842,0 12,0 C5.38105263,0 0,5.38105263 0,12 C0,18.6189474 5.38105263,24 12,24 C18.6189474,24 24,18.6189474 24,12 C24,10.6863158 23.7726316,9.42315789 23.3936842,8.23578947 Z" id="Path"></path>
                    <path d="M10.0991863,9.14780093 C9.67797791,8.72668255 9.00899984,8.70191088 8.56301447,9.12302926 L7.22505834,10.336841 C6.77907296,10.7331878 6.72951903,11.4267945 7.12595047,11.8726845 L10.4460638,15.8113799 L11.2389267,16.7527034 C11.6849121,17.2729084 12.502552,17.2729084 12.9485373,16.7527034 L13.7414002,15.8113799 L22.0169067,6.00179895 C22.4133381,5.5559089 22.3637842,4.86230217 21.9177988,4.46595546 L21.1001589,3.72280538 C20.6541736,3.32645868 19.9851955,3.32645868 19.5639871,3.74757705 L12.1061205,11.1543061 L10.0991863,9.14780093 Z" id="Path"></path>
                </g>
            </g>
        </g>
    </g>
</svg>