<?xml version="1.0" encoding="UTF-8"?>
<svg width="11px" height="12px" viewBox="0 0 11 12" version="1.1" xmlns="http://www.w3.org/2000/svg" xmlns:xlink="http://www.w3.org/1999/xlink">
    <title>noun_land_3097483</title>
    <g id="Parcels" stroke="none" stroke-width="1" fill="none" fill-rule="evenodd">
        <g transform="translate(-31.500000, -134.000000)" fill="#000000" fill-rule="nonzero" id="Group-2">
            <g transform="translate(21.500000, 122.000000)">
                <g id="noun_land_3097483" transform="translate(10.000000, 12.000000)">
                    <g id="Group" transform="translate(0.000000, -0.000000)">
                        <path d="M10.9934592,7.13924051 C10.9675411,6.98734177 10.8768279,6.86075949 10.7342785,6.78481013 L8.23318502,5.56962025 C8.11655372,5.82278481 7.97400435,6.08860759 7.81849594,6.37974684 L9.69755583,7.29113924 L8.6867512,8.15189873 C8.5312428,8.27848101 8.47940666,8.49367089 8.55716086,8.6835443 L9.32174385,10.3417722 L5.66729635,11.0759494 L1.06683938,8.59493671 L1.85734043,6.88607595 L3.30875221,6.64556962 C3.14028477,6.34177215 2.9977354,6.05063291 2.86814506,5.79746835 L1.46856942,6.02531646 C1.31306102,6.05063291 1.18347068,6.15189873 1.11867551,6.27848101 L0.0430757137,8.60759494 C-0.060596556,8.82278481 0.03011668,9.08860759 0.237461219,9.18987342 L5.3821976,11.9493671 C5.44699277,11.9873418 5.52474697,12 5.60250118,12 C5.62841924,12 5.66729635,12 5.69321441,11.9873418 L10.0863268,11.1012658 C10.2288762,11.0759494 10.3455075,10.9873418 10.4103027,10.8607595 C10.4750979,10.7341772 10.4750979,10.5949367 10.4232617,10.4683544 L9.56796549,8.59493671 L10.8509098,7.51898734 C10.9675411,7.44303797 11.0193773,7.29113924 10.9934592,7.13924051 Z" id="Path"></path>
                        <path d="M6.05606736,7.64556962 C6.85952745,6.27848101 8.25910309,3.75949367 8.25910309,2.69620253 C8.25910309,1.20253165 7.01503585,0 5.49882891,0 C3.96966293,0 2.73855473,1.21518987 2.73855473,2.69620253 C2.73855473,3.75949367 4.13813037,6.27848101 4.94159046,7.64556962 C5.1878121,8.06329114 5.80984572,8.06329114 6.05606736,7.64556962 Z M4.21588457,2.6835443 C4.21588457,1.98734177 4.79904109,1.43037975 5.49882891,1.43037975 C6.21157576,1.43037975 6.78177324,2 6.78177324,2.6835443 C6.78177324,3.36708861 6.19861673,3.93670886 5.49882891,3.93670886 C4.78608205,3.94936709 4.21588457,3.37974684 4.21588457,2.6835443 Z" id="Shape"></path>
                    </g>
                </g>
            </g>
        </g>
    </g>
</svg>