<?xml version="1.0" encoding="UTF-8"?>
<svg width="36px" height="36px" viewBox="0 0 36 36" version="1.1" xmlns="http://www.w3.org/2000/svg" xmlns:xlink="http://www.w3.org/1999/xlink">
    <title>Group 8</title>
    <g id="Parcels" stroke="none" stroke-width="1" fill="none" fill-rule="evenodd">
        <g transform="translate(-563.000000, -1744.000000)" fill-rule="nonzero" id="Group-13">
            <g transform="translate(20.000000, 1593.000000)">
                <g id="Group-9" transform="translate(457.000000, 151.000000)">
                    <g id="Group-8" transform="translate(86.000000, 0.000000)">
                        <g id="noun_images_3842396" transform="translate(0.000000, 8.000000)" fill="#727272">
                            <path d="M25,0 L3,0 C1.34314575,0 0,1.34314575 0,3 L0,25 C0,26.6568542 1.34314575,28 3,28 L25,28 C26.6568542,28 28,26.6568542 28,25 L28,3 C28,1.34314575 26.6568542,0 25,0 Z M3,2 L25,2 C25.5522847,2 26,2.44771525 26,3 L26,9.56 L15,19.62 L9.68,14.29 C9.29504999,13.9280574 8.69495001,13.9280574 8.31,14.29 L2,19.8 L2,3 C2,2.44771525 2.44771525,2 3,2 Z M25,26 L3,26 C2.44771525,26 2,25.5522847 2,25 L2,22.45 L9,16.37 L13.62,21 C14.376484,21.7535423 15.5914834,21.7799553 16.38,21.06 L26,12.27 L26,25 C26,25.5522847 25.5522847,26 25,26 Z M17,12 C19.209139,12 21,10.209139 21,8 C21,5.790861 19.209139,4 17,4 C14.790861,4 13,5.790861 13,8 C13,10.209139 14.790861,12 17,12 Z M17,6 C18.1045695,6 19,6.8954305 19,8 C19,9.1045695 18.1045695,10 17,10 C15.8954305,10 15,9.1045695 15,8 C15,6.8954305 15.8954305,6 17,6 Z" id="Shape"></path>
                        </g>
                        <g id="noun_add_3848380" transform="translate(24.000000, 0.000000)" fill="#4A8FE7">
                            <path d="M3.99850411,5.33133882 L8.00149589,5.33133882 C8.37326573,5.33133882 8.67464473,5.63271782 8.67464473,6.00448766 C8.67464473,6.3762575 8.37326573,6.6776365 8.00149589,6.6776365 L3.99850411,6.6776365 C3.62673427,6.6776365 3.32535527,6.3762575 3.32535527,6.00448766 C3.32535527,5.63271782 3.62673427,5.33133882 3.99850411,5.33133882 L3.99850411,5.33133882 Z M6,3.33433059 C6.36754591,3.33427007 6.66619443,3.63096648 6.66866118,3.99850411 L6.66866118,3.99850411 L6.66866118,8.00149589 C6.66866118,8.37326573 6.36728218,8.67464473 5.99551234,8.67464473 C5.6237425,8.67464473 5.3223635,8.37326573 5.3223635,8.00149589 L5.3223635,3.99850411 C5.32354291,3.82037732 5.39574788,3.65008391 5.52296269,3.52539655 C5.6501775,3.4007092 5.82188541,3.33193567 6,3.33433059 L6,3.33433059 Z M6,12 C2.6862915,12 0,9.3137085 0,6 C0,2.6862915 2.6862915,0 6,0 C9.3137085,0 12,2.6862915 12,6 C11.9975251,9.31268281 9.31268281,11.9975251 6,12 L6,12 Z M6,1.3328347 C3.42239578,1.3328347 1.3328347,3.42239578 1.3328347,6 C1.3328347,8.57760422 3.42239578,10.6671653 6,10.6671653 C8.57760422,10.6671653 10.6671653,8.57760422 10.6671653,6 L10.6671653,6 C10.6671653,4.7621908 10.1754475,3.57507905 9.30018423,2.69981577 C8.42492095,1.82455249 7.2378092,1.3328347 6,1.3328347 Z" id="Shape"></path>
                        </g>
                    </g>
                </g>
            </g>
        </g>
    </g>
</svg>