<?xml version="1.0" encoding="UTF-8"?>
<svg width="13px" height="13px" viewBox="0 0 13 13" version="1.1" xmlns="http://www.w3.org/2000/svg" xmlns:xlink="http://www.w3.org/1999/xlink">
    <title>Group</title>
    <g id="Page-1" stroke="none" stroke-width="1" fill="none" fill-rule="evenodd">
        <g id="Group-8-Copy-10" transform="translate(-29.000000, -378.000000)" fill="#000000" fill-rule="nonzero">
            <g id="Group-7" transform="translate(1.000000, 60.000000)">
                <g id="Group-2-Copy-6" transform="translate(19.000000, 306.000000)">
                    <g id="Group" transform="translate(9.265869, 12.000000)">
                        <path d="M11.9709576,4.22887008 L11.0598726,1.03187928 C10.9792445,0.749194048 10.7397203,0.540493342 10.4486591,0.499320591 L7.05830854,0.00772795132 C6.80638457,-0.0289237101 6.55329174,0.0663728588 6.38810391,0.260078839 L0.179288879,7.50615434 C-0.0881978632,7.8185067 -0.0522733257,8.2884583 0.259582343,8.55652395 L4.55937929,12.2418301 C4.70875329,12.3710382 4.9035454,12.4352363 5.10047182,12.4201591 C5.29739824,12.4050819 5.48014694,12.3119784 5.60811025,12.1615366 L11.8202026,4.91709978 C11.9836107,4.72794738 12.0403298,4.46901245 11.9709576,4.22887008 L11.9709576,4.22887008 Z M11.323694,4.49105282 L5.11815626,11.7354897 C5.08585946,11.7727125 5.02965372,11.7770922 4.99198081,11.7453215 L0.693822507,8.05837674 C0.675908145,8.04302142 0.664729867,8.0212532 0.662688307,7.99774698 C0.660709731,7.97442292 0.668413359,7.95131204 0.683990654,7.93383994 L6.88625111,0.692680362 C6.90287799,0.672796891 6.92751677,0.661378922 6.95343544,0.66154435 L6.96654458,0.66154435 L10.3568951,1.1531388 C10.3910044,1.15808212 10.4191397,1.1823808 10.4289954,1.2154072 L11.3449963,4.40912072 C11.3516699,4.43827099 11.3437208,4.46884465 11.323694,4.49105282 L11.323694,4.49105282 Z" id="Shape"></path>
                        <path d="M9.35076887,2.30510422 C8.84529351,1.87309955 8.08569751,1.93096655 7.65149699,2.43455695 C7.33334729,2.80456196 7.26951493,3.32982346 7.48978344,3.7652597 C7.71005196,4.20069594 8.17100958,4.4604887 8.65757812,4.42342128 C9.14414666,4.38635386 9.56043045,4.05973172 9.71219564,3.59595346 C9.86396083,3.13217521 9.72129669,2.62264489 9.35076887,2.30510422 L9.35076887,2.30510422 Z M8.98371304,3.57832915 C8.78528342,3.80728853 8.43943071,3.83361136 8.20863531,3.63732027 C8.09676514,3.54318921 8.02763419,3.40788163 8.01691418,3.26207122 C7.99777349,3.01356634 8.14795906,2.78319692 8.38306,2.70044071 C8.61816094,2.6176845 8.87953339,2.7031843 9.02027454,2.90888547 C9.1610157,3.11458663 9.14601891,3.38917883 8.98371304,3.57832915 L8.98371304,3.57832915 Z" id="Shape"></path>
                        <path d="M6.32255822,4.21739959 C6.25650161,4.16089808 6.17070427,4.13295363 6.08404293,4.13971444 C5.99738159,4.14647526 5.91695604,4.18738745 5.86046114,4.25344971 L2.77489801,7.8584624 C2.68265305,7.99584379 2.70729333,8.18043832 2.83234282,8.28881454 C2.95739231,8.39719076 3.14361495,8.3953441 3.26649065,8.28450936 L6.35205378,4.67949667 C6.47133746,4.5436871 6.4581409,4.33694109 6.32255822,4.21739959 L6.32255822,4.21739959 Z" id="Path"></path>
                        <path d="M6.88788975,6.28536596 L4.37421273,9.2234513 C4.28196777,9.36083269 4.30660805,9.54542722 4.43165754,9.65380344 C4.55670702,9.76217966 4.74292967,9.760333 4.86580537,9.64949825 L7.38603696,6.71796748 C7.47828192,6.58058608 7.45364164,6.39599156 7.32859215,6.28761534 C7.20354267,6.17923911 7.01732002,6.18108577 6.89444432,6.29192052 L6.88788975,6.28536596 Z" id="Path"></path>
                    </g>
                </g>
            </g>
        </g>
    </g>
</svg>