<?xml version="1.0" encoding="UTF-8"?>
<svg width="13px" height="13px" viewBox="0 0 13 13" version="1.1" xmlns="http://www.w3.org/2000/svg" xmlns:xlink="http://www.w3.org/1999/xlink">
    <title>Group</title>
    <g id="Page-1" stroke="none" stroke-width="1" fill="none" fill-rule="evenodd">
        <g id="Group-8-Copy-10" transform="translate(-30.000000, -291.000000)" fill="#000000" fill-rule="nonzero">
            <g id="Group-7" transform="translate(1.000000, 60.000000)">
                <g id="Group-2-Copy-4" transform="translate(19.000000, 220.000000)">
                    <g id="Group" transform="translate(10.030000, 11.000000)">
                        <path d="M11.7892518,0 L0.210748156,0 C0.0943551634,0 -1.87181964e-16,0.0943551634 -1.87181964e-16,0.210748156 L-1.87181964e-16,12.4341412 C-1.87181964e-16,12.5505342 0.0943551634,12.6448894 0.210748156,12.6448894 L11.7892518,12.6448894 C11.9056448,12.6448894 12,12.5505342 12,12.4341412 L12,0.210748156 C12,0.0943551634 11.9056448,0 11.7892518,0 Z M11.5785037,12.223393 L0.421496312,12.223393 L0.421496312,0.421496312 L11.5785037,0.421496312 L11.5785037,12.223393 Z" id="Shape"></path>
                        <path d="M1.06849315,4.20231823 L10.9315068,4.20231823 C11.0478998,4.20231823 11.142255,4.10796307 11.142255,3.99157007 L11.142255,1.10010537 C11.142255,0.983712381 11.0478998,0.889357218 10.9315068,0.889357218 L1.06849315,0.889357218 C0.952100158,0.889357218 0.857744995,0.983712381 0.857744995,1.10010537 L0.857744995,3.99157007 C0.857744995,4.10796307 0.952100158,4.20231823 1.06849315,4.20231823 Z M1.27924131,1.31085353 L10.7207587,1.31085353 L10.7207587,3.78082192 L1.27924131,3.78082192 L1.27924131,1.31085353 Z" id="Shape"></path>
                        <path d="M1.06849315,7.98314015 L10.9315068,7.98314015 C11.0478998,7.98314015 11.142255,7.88878498 11.142255,7.77239199 L11.142255,4.88092729 C11.142255,4.7645343 11.0478998,4.67017914 10.9315068,4.67017914 L1.06849315,4.67017914 C0.952100158,4.67017914 0.857744995,4.7645343 0.857744995,4.88092729 L0.857744995,7.77239199 C0.857744995,7.88878498 0.952100158,7.98314015 1.06849315,7.98314015 Z M1.27924131,5.09167545 L10.7207587,5.09167545 L10.7207587,7.56164384 L1.27924131,7.56164384 L1.27924131,5.09167545 Z" id="Shape"></path>
                        <path d="M1.06849315,11.7639621 L5.57850369,11.7639621 C5.69489668,11.7639621 5.78925184,11.6696069 5.78925184,11.5532139 L5.78925184,8.66174921 C5.78925184,8.54535622 5.69489668,8.45100105 5.57850369,8.45100105 L1.06849315,8.45100105 C0.952100158,8.45100105 0.857744995,8.54535622 0.857744995,8.66174921 L0.857744995,11.5532139 C0.857744995,11.6696069 0.952100158,11.7639621 1.06849315,11.7639621 Z M1.27924131,8.87249737 L5.36775553,8.87249737 L5.36775553,11.3424658 L1.27924131,11.3424658 L1.27924131,8.87249737 Z" id="Shape"></path>
                        <path d="M10.9315068,8.45100105 L6.42149631,8.45100105 C6.30510332,8.45100105 6.21074816,8.54535622 6.21074816,8.66174921 L6.21074816,11.5532139 C6.21074816,11.6696069 6.30510332,11.7639621 6.42149631,11.7639621 L10.9315068,11.7639621 C11.0478998,11.7639621 11.142255,11.6696069 11.142255,11.5532139 L11.142255,8.66174921 C11.142255,8.54535622 11.0478998,8.45100105 10.9315068,8.45100105 Z M10.7207587,11.3424658 L6.63224447,11.3424658 L6.63224447,8.87249737 L10.7207587,8.87249737 L10.7207587,11.3424658 Z" id="Shape"></path>
                    </g>
                </g>
            </g>
        </g>
    </g>
</svg>