<?xml version="1.0" encoding="UTF-8"?>
<svg width="17px" height="15px" viewBox="0 0 17 15" version="1.1" xmlns="http://www.w3.org/2000/svg" xmlns:xlink="http://www.w3.org/1999/xlink">
    <title>Group</title>
    <g id="Page-1" stroke="none" stroke-width="1" fill="none" fill-rule="evenodd">
        <g id="Group-8-Copy-10" transform="translate(-28.000000, -419.000000)" fill="#000000" fill-rule="nonzero">
            <g id="Group-7" transform="translate(1.000000, 60.000000)">
                <g id="Group-2-Copy-7" transform="translate(19.000000, 349.000000)">
                    <g id="Group" transform="translate(8.500000, 10.000000)">
                        <g id="Path" transform="translate(8.000000, 7.063910) rotate(-25.000000) translate(-8.000000, -7.063910) translate(1.364643, 2.363865)">
                            <path d="M2.720761,8.84714236 C2.7077822,8.84714236 2.68654353,8.82844431 2.68431394,8.81288904 L2.24769467,5.76671021 C2.22603022,5.61556304 2.0859387,5.5105965 1.93479149,5.53226094 C1.78364429,5.55392538 1.67867778,5.6940169 1.70034223,5.84516413 L2.1369615,8.89134296 C2.17796645,9.17742382 2.43088656,9.40008875 2.720761,9.40008875 L4.39012992,9.40008875 C4.70841166,9.40008875 4.94081561,9.12486168 4.89609951,8.81288904 L4.45948023,5.76671021 C4.43781578,5.61556304 4.29772426,5.5105965 4.14657706,5.53226094 C3.99542985,5.55392538 3.89046334,5.6940169 3.91212779,5.84516413 L4.34241164,8.84714236 L2.720761,8.84714236 Z"></path>
                            <path d="M5.25299071,2.21178559 L1.66073176,2.21178559 C1.35670351,2.21178559 1.10589278,2.45918004 1.10589278,2.75975833 L1.10589278,5.53443762 C1.10589278,5.83791157 1.35915898,6.08241037 1.66073176,6.08241037 L5.25299071,6.08241037 C5.40568264,6.08241037 5.52946391,5.95862912 5.52946391,5.80593717 C5.52946391,5.65324523 5.40568264,5.52946397 5.25299071,5.52946397 L1.66073176,5.52946397 L1.65883917,2.75975833 L5.25299071,2.76473199 C5.40568264,2.76473199 5.52946391,2.64095072 5.52946391,2.48825879 C5.52946391,2.33556686 5.40568264,2.21178559 5.25299071,2.21178559 Z"></path>
                            <path d="M1.38236598,4.97651758 C1.5350579,4.97651758 1.65883917,5.10029885 1.65883917,5.25299077 C1.65883917,5.4056827 1.5350579,5.52946397 1.38236598,5.52946397 L0.555536641,5.52946397 C0.245151544,5.52946397 3.73247439e-14,5.28726162 3.73247439e-14,4.98178244 L3.73247439e-14,3.31241352 C3.73247439e-14,3.00609024 0.249945953,2.76473199 0.555536641,2.76473199 L1.38236598,2.76473199 C1.5350579,2.76473199 1.65883917,2.88851326 1.65883917,3.04120519 C1.65883917,3.19389711 1.5350579,3.31767838 1.38236598,3.31767838 L0.555536641,3.31767838 L0.552946391,4.97685951 L1.38236598,4.97651758 Z"></path>
                            <path d="M9.58442825,2.84331985 C10.1321956,3.03692784 10.5059814,3.55651002 10.5059814,4.14709798 C10.5059814,4.73768594 10.1321956,5.25726812 9.58442825,5.45087611 C9.44046418,5.50176009 9.3650079,5.65971564 9.41589191,5.80367966 C9.46677586,5.94764373 9.62473141,6.02310001 9.76869543,5.97221601 C10.5357438,5.70110335 11.0589278,4.97384972 11.0589278,4.14709798 C11.0589278,3.32034624 10.5357438,2.59309263 9.76869543,2.32197993 C9.62473141,2.27109595 9.46677586,2.34655224 9.41589191,2.49051629 C9.3650079,2.63448033 9.44046418,2.79243587 9.58442825,2.84331985 Z"></path>
                            <path d="M9.6025655,0.373825853 L5.50909206,1.51090182 C5.21593477,1.5923344 4.97651752,1.9064252 4.97651752,2.21042791 L4.97651752,6.08376808 C4.97651752,6.38860217 5.21498967,6.70159903 5.50909206,6.78329415 L9.6025655,7.92037013 C9.7496869,7.96123719 9.90208163,7.87510102 9.94294874,7.72797957 C9.98381579,7.58085817 9.89767963,7.42846343 9.75055818,7.38759633 L5.65708477,6.2505204 C5.60205858,6.23523535 5.52946391,6.13995412 5.52946391,6.08376808 L5.52946391,2.21042791 C5.52946391,2.15512425 5.60295491,2.05871165 5.65708477,2.04367557 L9.75055818,0.906599611 C9.89767963,0.865732554 9.98381579,0.713337784 9.94294874,0.566216375 C9.90208163,0.419094965 9.7496869,0.332958794 9.6025655,0.373825853 Z"></path>
                            <path d="M9.40008864,0.276473199 L9.40008864,8.01772276 C9.40008864,8.17041471 9.5238699,8.29419596 9.67656184,8.29419596 C9.82925378,8.29419596 9.95303504,8.17041471 9.95303504,8.01772276 L9.95303504,0.276473199 C9.95303504,0.123781267 9.82925378,1.22778764e-16 9.67656184,1.22778764e-16 C9.5238699,1.22778764e-16 9.40008864,0.123781267 9.40008864,0.276473199 Z"></path>
                            <path d="M11.8883474,4.42357118 L12.9942402,4.42357118 C13.1469321,4.42357118 13.2707134,4.29978991 13.2707134,4.14709798 C13.2707134,3.99440605 13.1469321,3.87062478 12.9942402,3.87062478 L11.8883474,3.87062478 C11.7356555,3.87062478 11.6118742,3.99440605 11.6118742,4.14709798 C11.6118742,4.29978991 11.7356555,4.42357118 11.8883474,4.42357118 Z"></path>
                            <path d="M11.5270696,3.09174192 L12.5293488,2.62437143 C12.6677347,2.55984103 12.7276064,2.39534488 12.663076,2.25695899 C12.5985456,2.11857311 12.4340495,2.05870141 12.2956636,2.1232318 L11.2933843,2.59060229 C11.1549984,2.6551327 11.0951267,2.81962884 11.1596572,2.95801473 C11.2241876,3.09640062 11.3886837,3.15627232 11.5270696,3.09174192 Z"></path>
                            <path d="M11.2934046,5.70596518 L12.2956838,6.17333566 C12.4340697,6.23786611 12.5985658,6.1779944 12.6630962,6.0396085 C12.7276266,5.90122261 12.6677549,5.73672648 12.529369,5.67219608 L11.5270898,5.20482557 C11.3887039,5.14029517 11.2242078,5.20016687 11.1596774,5.33855275 C11.095147,5.47693864 11.1550187,5.64143479 11.2934046,5.70596518 Z"></path>
                        </g>
                    </g>
                </g>
            </g>
        </g>
    </g>
</svg>