<?xml version="1.0" encoding="UTF-8"?>
<svg width="13px" height="14px" viewBox="0 0 13 14" version="1.1" xmlns="http://www.w3.org/2000/svg" xmlns:xlink="http://www.w3.org/1999/xlink">
    <title>Group</title>
    <g id="Page-1" stroke="none" stroke-width="1" fill="none" fill-rule="evenodd">
        <g id="Group-8-Copy-10" transform="translate(-31.000000, -89.000000)" fill="#000000" fill-rule="nonzero">
            <g id="Group-7" transform="translate(1.000000, 60.000000)">
                <g id="Group-2-Copy" transform="translate(21.000000, 19.000000)">
                    <g id="Group" transform="translate(9.500000, 10.000000)">
                        <path d="M4.11916752,7.51344327 C4.57815845,7.97203697 5.03575002,8.42923252 5.49474095,8.88782622 C5.55911163,8.95214119 5.62208295,9.01505801 5.68645363,9.07937298 C5.84178288,9.2345678 6.12725285,9.24575301 6.27978337,9.07937298 C6.43371325,8.9115948 6.44630752,8.65153861 6.27978337,8.48655673 C5.82079244,8.02796303 5.36320087,7.57076748 4.90420993,7.11217378 C4.83983926,7.04785881 4.77686794,6.98494199 4.71249726,6.92062702 C4.55716801,6.7654322 4.27169804,6.75424699 4.11916752,6.92062702 C3.96663699,7.08700705 3.95404273,7.34706324 4.11916752,7.51344327 L4.11916752,7.51344327 Z" id="Path"></path>
                        <path d="M7.28655673,6.9201641 C6.82796303,7.37895448 6.37076748,7.83634611 5.91217378,8.2951365 C5.84785881,8.35947905 5.78494199,8.42242285 5.72062702,8.4867654 C5.5654322,8.64202678 5.55424699,8.92737202 5.72062702,9.0798359 C5.8884052,9.23369852 6.14846139,9.24628728 6.31344327,9.0798359 C6.77203697,8.62104552 7.22923252,8.16365389 7.68782622,7.7048635 C7.75214119,7.64052095 7.81505801,7.57757715 7.87937298,7.5132346 C8.0345678,7.35797322 8.04575301,7.07262798 7.87937298,6.9201641 C7.7115948,6.76630148 7.45293676,6.75371272 7.28655673,6.9201641 L7.28655673,6.9201641 Z" id="Path"></path>
                        <path d="M5.60235641,0.449756875 C5.60235641,0.726889153 5.60235641,1.00402143 5.60235641,1.28115371 C5.60235641,1.94027913 5.60235641,2.60090256 5.60235641,3.26002798 C5.60235641,4.05697053 5.60235641,4.8554111 5.60235641,5.65235365 C5.60235641,6.34593336 5.60235641,7.03951306 5.60235641,7.73309276 C5.60235641,8.06714951 5.59705449,8.40270427 5.60235641,8.73676101 C5.60235641,8.74125505 5.60235641,8.74574909 5.60235641,8.75024313 C5.60235641,8.98543106 5.78527246,9.21013291 6,9.19964682 C6.21605302,9.18916073 6.39764359,9.00190919 6.39764359,8.75024313 C6.39764359,8.47311085 6.39764359,8.19597857 6.39764359,7.91884629 C6.39764359,7.25972087 6.39764359,6.59909744 6.39764359,5.93997202 C6.39764359,5.14302947 6.39764359,4.3445889 6.39764359,3.54764635 C6.39764359,2.85406664 6.39764359,2.16048694 6.39764359,1.46690724 C6.39764359,1.13285049 6.40294551,0.797295732 6.39764359,0.463238986 C6.39764359,0.458744949 6.39764359,0.454250912 6.39764359,0.449756875 C6.39764359,0.214568941 6.21472754,-0.0101329067 6,0.000353179515 C5.78394698,0.0108392657 5.60235641,0.196592793 5.60235641,0.449756875 L5.60235641,0.449756875 Z" id="Path"></path>
                        <path d="M3.19147153,3.2024346 C2.93947354,3.2024346 2.68596658,3.2024346 2.43396859,3.2024346 C2.1216118,3.2024346 1.80472811,3.18574698 1.49538926,3.24946336 C0.944615213,3.36475965 0.434583357,3.76677962 0.197675068,4.27954472 C0.0633767395,4.56930252 0,4.8696797 0,5.18826157 C0,5.56145747 0,5.93465337 0,6.30784927 C0,6.96625179 0,7.62465432 0,8.28153978 C0,8.97635166 0,9.67116354 0,10.3659754 C0,10.8483994 0,11.3308234 0,11.8117303 C0,11.8982025 0,11.9831577 0,12.0696299 C0.00301793998,12.5945314 0.217291678,13.1179159 0.603587995,13.4759413 C0.964231823,13.8096937 1.43201252,13.9962916 1.92242777,13.9993258 C2.00391214,13.9993258 2.08388755,13.9993258 2.16537193,13.9993258 C2.60146426,13.9993258 3.03755659,13.9993258 3.47364891,13.9993258 C4.13457777,13.9993258 4.79550662,13.9993258 5.45794445,13.9993258 C6.15961549,13.9993258 6.86128654,13.9993258 7.56295758,13.9993258 C8.13636618,13.9993258 8.7082658,13.9993258 9.2816744,13.9993258 C9.54574415,13.9993258 9.81132286,14.0008428 10.0753926,13.9993258 C10.5612809,13.9978087 11.0200078,13.8157619 11.3806517,13.4895948 C11.7760018,13.1330865 11.9963114,12.6021167 11.9993293,12.0711469 C12.0008383,11.7904915 11.9993293,11.509836 11.9993293,11.2291806 C11.9993293,10.6117386 11.9993293,9.99277952 11.9993293,9.37533752 C11.9993293,8.66990625 11.9993293,7.96447497 11.9993293,7.2590437 C11.9993293,6.70835219 11.9993293,6.15917773 11.9993293,5.60848622 C11.9993293,5.46891702 11.9993293,5.33086488 11.9993293,5.19129568 C11.9993293,4.87726499 11.9389705,4.58447308 11.8107081,4.2977494 C11.5813447,3.78346725 11.0788577,3.38144727 10.5341195,3.25553158 C10.2217627,3.18271287 9.89884312,3.2024346 9.58195943,3.2024346 C9.34052423,3.2024346 9.09758006,3.2024346 8.85614486,3.2024346 C8.61923657,3.2024346 8.39289107,3.4117884 8.40345386,3.65755156 C8.41401665,3.90483177 8.6026379,4.11266851 8.85614486,4.11266851 C9.23489633,4.11266851 9.6136478,4.11266851 9.99239926,4.11266851 C10.0859554,4.11266851 10.1780026,4.11266851 10.2715587,4.12480496 C10.2308165,4.11873673 10.1915833,4.11418556 10.1508411,4.10811734 C10.2791036,4.12632202 10.4028391,4.1581802 10.5220477,4.20824307 C10.4858324,4.1930725 10.4496172,4.17790194 10.4134019,4.16273137 C10.4994132,4.19914073 10.5808976,4.24161831 10.659364,4.29319823 C10.6669088,4.2977494 10.7242497,4.33112464 10.7242497,4.33870993 C10.7242497,4.32960759 10.6216397,4.25527182 10.6940703,4.31595408 C10.7287766,4.34477815 10.7634829,4.37663634 10.7966803,4.41001158 C10.8298776,4.44338683 10.860057,4.47676207 10.8902364,4.51317142 C10.9143799,4.5419955 10.9430504,4.59964365 10.8676019,4.48283029 C10.8811826,4.50558614 10.8977813,4.52530788 10.912871,4.54806372 C10.9641759,4.62543361 11.0064271,4.70887171 11.0426424,4.79534393 C11.0275527,4.75893458 11.012463,4.72252522 10.9973733,4.68611587 C11.0456603,4.80596333 11.0788577,4.93187902 11.0969653,5.05931177 C11.0909294,5.01835124 11.0864025,4.97890777 11.0803666,4.93794725 C11.113564,5.21101742 11.0924384,5.49622404 11.0924384,5.76929421 C11.0924384,6.32757101 11.0924384,6.8858478 11.0924384,7.44412459 C11.0924384,8.13135119 11.0924384,8.82009484 11.0924384,9.50732144 C11.0924384,10.0944223 11.0924384,10.6815232 11.0924384,11.2701411 C11.0924384,11.537143 11.0939474,11.804145 11.0924384,12.0696299 C11.0924384,12.1333463 11.0879115,12.1970626 11.0803666,12.2622961 C11.0864025,12.2213355 11.0909294,12.1818921 11.0969653,12.1409315 C11.0788577,12.2698813 11.0471693,12.39428 10.9973733,12.5141274 C11.012463,12.4777181 11.0275527,12.4413087 11.0426424,12.4048994 C11.0064271,12.4913716 10.9641759,12.5732926 10.912871,12.6521796 C10.908344,12.6597649 10.8751467,12.717413 10.8676019,12.717413 C10.8766557,12.717413 10.9505952,12.6142532 10.8902364,12.6870719 C10.861566,12.7219642 10.8298776,12.7568565 10.7966803,12.7902317 C10.7634829,12.823607 10.7302856,12.8539481 10.6940703,12.8842892 C10.6653999,12.9085621 10.608059,12.9373862 10.7242497,12.8615334 C10.7016152,12.8751869 10.6819985,12.8918745 10.659364,12.9070451 C10.5824065,12.958625 10.4994132,13.0011026 10.4134019,13.0375119 C10.4496172,13.0223414 10.4858324,13.0071708 10.5220477,12.9920002 C10.4028391,13.040546 10.2775946,13.0739213 10.1508411,13.092126 C10.1915833,13.0860577 10.2308165,13.0815066 10.2715587,13.0754383 C10.1493321,13.0906089 10.0255966,13.0875748 9.90186106,13.0875748 C9.7087129,13.0875748 9.51556475,13.0875748 9.32241659,13.0875748 C8.66450567,13.0875748 8.00659476,13.0875748 7.34868384,13.0875748 C6.54591181,13.0875748 5.74163081,13.0875748 4.93885877,13.0875748 C4.24925949,13.0875748 3.5596602,13.0875748 2.87006092,13.0875748 C2.55317722,13.0875748 2.23629352,13.0890918 1.9209188,13.0875748 C1.85603309,13.0875748 1.79265635,13.0830236 1.72777064,13.0754383 C1.76851283,13.0815066 1.80774605,13.0860577 1.84848824,13.092126 C1.72022579,13.0739213 1.59649025,13.0420631 1.47728162,12.9920002 C1.5134969,13.0071708 1.54971218,13.0223414 1.58592746,13.0375119 C1.49991617,13.0011026 1.41843179,12.958625 1.33996535,12.9070451 C1.3324205,12.9024939 1.27507964,12.8691187 1.27507964,12.8615334 C1.27507964,12.8706357 1.3776896,12.9449715 1.30525904,12.8842892 C1.27055273,12.8554651 1.23584642,12.823607 1.20264908,12.7902317 C1.16945174,12.7568565 1.13927234,12.7234812 1.10909294,12.6870719 C1.08494942,12.6582478 1.05627899,12.6005997 1.13172749,12.717413 C1.11814676,12.6946572 1.10154809,12.6749354 1.08645839,12.6521796 C1.03515341,12.5748097 0.992902252,12.4913716 0.956686973,12.4048994 C0.971776672,12.4413087 0.986866372,12.4777181 1.00195607,12.5141274 C0.953669033,12.39428 0.920471693,12.2683643 0.902364053,12.1409315 C0.908399933,12.1818921 0.912926843,12.2213355 0.918962723,12.2622961 C0.885765383,11.9892259 0.906890963,11.7040193 0.906890963,11.4309491 C0.906890963,10.8726723 0.906890963,10.3143955 0.906890963,9.75611871 C0.906890963,9.06889211 0.906890963,8.38014846 0.906890963,7.69292186 C0.906890963,7.10582099 0.906890963,6.51872012 0.906890963,5.9301022 C0.906890963,5.66310026 0.905381993,5.39609831 0.906890963,5.13061342 C0.906890963,5.06689705 0.911417873,5.00318068 0.918962723,4.93794725 C0.912926843,4.97890777 0.908399933,5.01835124 0.902364053,5.05931177 C0.920471693,4.93036196 0.952160063,4.80596333 1.00195607,4.68611587 C0.986866372,4.72252522 0.971776672,4.75893458 0.956686973,4.79534393 C0.992902252,4.70887171 1.03515341,4.62695066 1.08645839,4.54806372 C1.0909853,4.54047844 1.12418264,4.48283029 1.13172749,4.48283029 C1.12267367,4.48283029 1.04873414,4.58599014 1.10909294,4.51317142 C1.13776337,4.47827913 1.16945174,4.44338683 1.20264908,4.41001158 C1.23584642,4.37663634 1.26904376,4.34629521 1.30525904,4.31595408 C1.33392947,4.29168118 1.39127033,4.2628571 1.27507964,4.33870993 C1.29771419,4.32505642 1.3173308,4.3083688 1.33996535,4.29319823 C1.41692282,4.24161831 1.49991617,4.19914073 1.58592746,4.16273137 C1.54971218,4.17790194 1.5134969,4.1930725 1.47728162,4.20824307 C1.59649025,4.15969726 1.72173476,4.12632202 1.84848824,4.10811734 C1.80774605,4.11418556 1.76851283,4.11873673 1.72777064,4.12480496 C1.9058291,4.10356617 2.08992343,4.11266851 2.26949086,4.11266851 C2.51696194,4.11266851 2.76443302,4.11266851 3.0119041,4.11266851 C3.0722629,4.11266851 3.13111273,4.11266851 3.19147153,4.11266851 C3.42837981,4.11266851 3.65472531,3.90331471 3.64416252,3.65755156 C3.63359973,3.41027135 3.44497848,3.2024346 3.19147153,3.2024346 L3.19147153,3.2024346 Z" id="Path"></path>
                    </g>
                </g>
            </g>
        </g>
    </g>
</svg>