<?xml version="1.0" encoding="UTF-8"?>
<svg width="13px" height="11px" viewBox="0 0 13 11" version="1.1" xmlns="http://www.w3.org/2000/svg" xmlns:xlink="http://www.w3.org/1999/xlink">
    <title>Group</title>
    <g id="Page-1" stroke="none" stroke-width="1" fill="none" fill-rule="evenodd">
        <g id="Group-8-Copy-10" transform="translate(-32.000000, -134.000000)" fill="#000000" fill-rule="nonzero">
            <g id="Group-7" transform="translate(1.000000, 60.000000)">
                <g id="Group-2" transform="translate(21.000000, 62.000000)">
                    <g id="Group" transform="translate(10.284000, 12.000000)">
                        <path d="M5.56097781,2.56661291 C5.56097781,2.65954735 5.55501514,2.75248179 5.54308979,2.84541623 C5.54905247,2.80146075 5.55501514,2.7562494 5.55978527,2.71229393 C5.53593459,2.89188345 5.49061829,3.06644949 5.42502891,3.23348031 C5.44053185,3.19329244 5.45722733,3.15310458 5.47273028,3.11291671 C5.40714089,3.27617991 5.32247097,3.42814028 5.22110556,3.56879781 C5.24614878,3.5348893 5.271192,3.50098079 5.29623521,3.46707228 C5.1912922,3.61024155 5.06965371,3.73834037 4.93370482,3.848857 C4.96590324,3.82248371 4.99810166,3.79611042 5.03030009,3.76973714 C4.89673625,3.87648616 4.75124708,3.96565298 4.59741017,4.03472588 C4.63557126,4.01839956 4.67373236,4.00081736 4.71189345,3.98449104 C4.5532864,4.05356394 4.38752415,4.10128703 4.21699176,4.12640444 C4.25873045,4.12012509 4.30166169,4.11384574 4.34340038,4.10882225 C4.16690532,4.1326838 3.99041026,4.1326838 3.8139152,4.10882225 C3.85565389,4.11510161 3.89858512,4.12138096 3.94032382,4.12640444 C3.76979143,4.10128703 3.60402918,4.05356394 3.44542213,3.98449104 C3.48358322,4.00081736 3.52174432,4.01839956 3.55990541,4.03472588 C3.40487596,3.96565298 3.26057932,3.87648616 3.12701549,3.76973714 C3.15921392,3.79611042 3.19141234,3.82248371 3.22361076,3.848857 C3.08766186,3.73834037 2.96602338,3.61024155 2.86108037,3.46707228 C2.88612358,3.50098079 2.9111668,3.5348893 2.93621002,3.56879781 C2.83484461,3.42814028 2.75017468,3.27492404 2.6845853,3.11291671 C2.70008825,3.15310458 2.71678373,3.19329244 2.73228667,3.23348031 C2.66669729,3.06644949 2.62138099,2.89188345 2.59753031,2.71229393 C2.60349298,2.7562494 2.60945565,2.80146075 2.61422578,2.84541623 C2.59156763,2.65954735 2.59156763,2.47367847 2.61422578,2.2878096 C2.60826311,2.33176507 2.60230044,2.37697642 2.59753031,2.4209319 C2.62138099,2.24134238 2.66669729,2.06677634 2.73228667,1.89974552 C2.71678373,1.93993339 2.70008825,1.98012125 2.6845853,2.02030912 C2.75017468,1.85704591 2.83484461,1.70508555 2.93621002,1.56442802 C2.9111668,1.59833653 2.88612358,1.63224504 2.86108037,1.66615355 C2.96602338,1.52298428 3.08766186,1.39488546 3.22361076,1.28436883 C3.19141234,1.31074212 3.15921392,1.3371154 3.12701549,1.36348869 C3.26057932,1.25673967 3.4060685,1.16757285 3.55990541,1.09849995 C3.52174432,1.11482627 3.48358322,1.13240846 3.44542213,1.14873478 C3.60402918,1.07966189 3.76979143,1.0319388 3.94032382,1.00682138 C3.89858512,1.01310074 3.85565389,1.01938009 3.8139152,1.02440357 C3.99041026,1.00054203 4.16690532,1.00054203 4.34340038,1.02440357 C4.30166169,1.01812422 4.25873045,1.01184487 4.21699176,1.00682138 C4.38752415,1.0319388 4.5532864,1.07966189 4.71189345,1.14873478 C4.67373236,1.13240846 4.63557126,1.11482627 4.59741017,1.09849995 C4.75243962,1.16757285 4.89673625,1.25673967 5.03030009,1.36348869 C4.99810166,1.3371154 4.96590324,1.31074212 4.93370482,1.28436883 C5.06965371,1.39488546 5.1912922,1.52298428 5.29623521,1.66615355 C5.271192,1.63224504 5.24614878,1.59833653 5.22110556,1.56442802 C5.32247097,1.70508555 5.40714089,1.85830178 5.47273028,2.02030912 C5.45722733,1.98012125 5.44053185,1.93993339 5.42502891,1.89974552 C5.49061829,2.06677634 5.53593459,2.24134238 5.55978527,2.4209319 C5.5538226,2.37697642 5.54785993,2.33176507 5.54308979,2.2878096 C5.55501514,2.37948816 5.56097781,2.4724226 5.56097781,2.56661291 C5.56217034,2.82908991 5.77921157,3.08151994 6.03799149,3.06896123 C6.29557888,3.05640252 6.51619771,2.84792797 6.51500998,2.56661291 C6.5126201,2.05421763 6.36832346,1.52800776 6.08211526,1.10980279 C5.91754553,0.868675596 5.7350878,0.672759751 5.51089137,0.494426098 C5.3200859,0.342465732 5.10662227,0.231949101 4.88242584,0.145294016 C3.96298197,-0.21137329 2.84438489,0.106362022 2.22307457,0.903839978 C2.13840464,1.01310074 2.05611978,1.12612911 1.98576026,1.24794858 C1.91301567,1.3760474 1.85577403,1.51168144 1.80330252,1.64982723 C1.71028486,1.88969855 1.66616109,2.14338445 1.64588801,2.40083797 C1.60653438,2.91197738 1.73413554,3.44823421 1.98576026,3.88653312 C2.23022977,4.31227332 2.59991537,4.68024347 3.03280529,4.88495041 C3.15682885,4.94397633 3.28443001,4.99923465 3.41560877,5.03816664 C3.55632781,5.07961038 3.69943191,5.10096018 3.84492109,5.11979824 C4.0929682,5.15119501 4.34459292,5.12733347 4.58906243,5.07584277 C5.05415077,4.97788484 5.50015856,4.71164024 5.82810547,4.35246119 C6.15962998,3.98951453 6.40290696,3.51353949 6.47565154,3.01244705 C6.49711716,2.86425429 6.51500998,2.71606154 6.51500998,2.56661291 C6.51619771,2.30413592 6.29438634,2.05170589 6.03799149,2.06426459 C5.77921157,2.07556743 5.56217034,2.28404198 5.56097781,2.56661291 Z" id="Path"></path>
                        <path d="M9.67879842,3.38920829 C9.67879842,3.4532577 9.67402828,3.51730711 9.66687308,3.58010065 C9.67283575,3.53614517 9.67879842,3.49093382 9.68356856,3.44697834 C9.66687308,3.5650302 9.63825226,3.67931444 9.59532103,3.7885752 C9.61082397,3.74838733 9.62751945,3.70819947 9.64302239,3.6680116 C9.59770609,3.7797841 9.54046445,3.88527725 9.47010493,3.9819793 C9.49514815,3.94807079 9.52019137,3.91416228 9.54523459,3.88025377 C9.47487507,3.97569995 9.39378275,4.06109916 9.30315015,4.13519554 C9.33534857,4.10882225 9.36754699,4.08244897 9.39974542,4.05607568 C9.30792028,4.13017206 9.20774741,4.19045385 9.10161186,4.23817694 C9.13977296,4.22185062 9.17793405,4.20426843 9.21609515,4.18794211 C9.11115214,4.23315346 9.00263153,4.26329436 8.89172584,4.28087655 C8.93346454,4.2745972 8.97639577,4.26831784 9.01813447,4.26329436 C8.89768852,4.27962068 8.77605003,4.27962068 8.65441154,4.26329436 C8.69615023,4.26957371 8.73908147,4.27585307 8.78082016,4.28087655 C8.66872195,4.26329436 8.56020134,4.23315346 8.45645086,4.18794211 C8.49461195,4.20426843 8.53277305,4.22185062 8.57093414,4.23817694 C8.4647986,4.19045385 8.36462573,4.13017206 8.27280059,4.05607568 C8.30499902,4.08244897 8.33719744,4.10882225 8.36939586,4.13519554 C8.27876326,4.06109916 8.19767094,3.97569995 8.12731142,3.88025377 C8.15235464,3.91416228 8.17739786,3.94807079 8.20244107,3.9819793 C8.13208156,3.88527725 8.07483991,3.7797841 8.02952361,3.6680116 C8.04502656,3.70819947 8.06172204,3.74838733 8.07722498,3.7885752 C8.03429375,3.67805857 8.00567293,3.56377433 7.98897745,3.44697834 C7.99494012,3.49093382 8.00090279,3.53614517 8.00567293,3.58010065 C7.99016998,3.4532577 7.99016998,3.32515888 8.00567293,3.19706005 C7.99971026,3.24101553 7.99374759,3.28622688 7.98897745,3.33018236 C8.00567293,3.2121305 8.03429375,3.09784626 8.07722498,2.9885855 C8.06172204,3.02877337 8.04502656,3.06896123 8.02952361,3.1091491 C8.07483991,2.9973766 8.13208156,2.89188345 8.20244107,2.7951814 C8.17739786,2.82908991 8.15235464,2.86299842 8.12731142,2.89690693 C8.19767094,2.80146075 8.27876326,2.71606154 8.36939586,2.64196516 C8.33719744,2.66833845 8.30499902,2.69471173 8.27280059,2.72108502 C8.36462573,2.64698864 8.4647986,2.58670685 8.57093414,2.53898376 C8.53277305,2.55531008 8.49461195,2.57289227 8.45645086,2.58921859 C8.56139387,2.54400724 8.66991448,2.51386634 8.78082016,2.49628415 C8.73908147,2.5025635 8.69615023,2.50884286 8.65441154,2.51386634 C8.77485749,2.49754002 8.89649598,2.49754002 9.01813447,2.51386634 C8.97639577,2.50758699 8.93346454,2.50130763 8.89172584,2.49628415 C9.00382406,2.51386634 9.11234467,2.54400724 9.21609515,2.58921859 C9.17793405,2.57289227 9.13977296,2.55531008 9.10161186,2.53898376 C9.20774741,2.58670685 9.30792028,2.64698864 9.39974542,2.72108502 C9.36754699,2.69471173 9.33534857,2.66833845 9.30315015,2.64196516 C9.39378275,2.71606154 9.47487507,2.80146075 9.54523459,2.89690693 C9.52019137,2.86299842 9.49514815,2.82908991 9.47010493,2.7951814 C9.54046445,2.89188345 9.59770609,2.9973766 9.64302239,3.1091491 C9.62751945,3.06896123 9.61082397,3.02877337 9.59532103,2.9885855 C9.63825226,3.09910213 9.66687308,3.21338637 9.68356856,3.33018236 C9.67760589,3.28622688 9.67164321,3.24101553 9.66687308,3.19706005 C9.67402828,3.26110946 9.67879842,3.32515888 9.67879842,3.38920829 C9.67999095,3.51856298 9.73126993,3.65294115 9.81832492,3.74461972 C9.90060978,3.83127481 10.0365587,3.89783596 10.1558121,3.8915566 C10.4133995,3.8789979 10.6340231,3.67052334 10.6328258,3.38920829 C10.6304407,3.0187264 10.5278828,2.6319182 10.3227669,2.32799746 C10.2082836,2.15971078 10.0854526,2.01905325 9.93042314,1.8922103 C9.77420116,1.76536734 9.6120165,1.67494465 9.42598117,1.60210414 C9.09087906,1.47023771 8.69734277,1.46521422 8.35389292,1.56568389 C8.02117587,1.66364181 7.69680657,1.87086049 7.47738028,2.15468729 C7.41179089,2.23883064 7.34739405,2.32422985 7.29492254,2.41716429 C7.23887344,2.51386634 7.19832727,2.61810362 7.15778111,2.72234089 C7.08980666,2.8981628 7.05880077,3.08528755 7.04449036,3.27492404 C7.01586954,3.6466618 7.11246481,4.0422611 7.29492254,4.35999641 C7.47141761,4.66768476 7.74093034,4.94020872 8.0533743,5.08965735 C8.1511621,5.13612456 8.25014244,5.18133591 8.35389292,5.21147681 C8.45764339,5.24161771 8.56497147,5.25668816 8.67110702,5.26924687 C8.85356475,5.29185254 9.03840755,5.27301448 9.21728768,5.23659423 C9.5559674,5.16752133 9.8839143,4.96909375 10.1236137,4.70787262 C10.3656981,4.44413976 10.5481559,4.09500767 10.6018199,3.72954927 C10.6185154,3.6165209 10.6328258,3.50223666 10.6340231,3.38795242 C10.6352109,3.12547542 10.4133995,2.87304539 10.1570046,2.8856041 C9.89583965,2.89941867 9.68118349,3.10789323 9.67879842,3.38920829 Z" id="Path"></path>
                        <path d="M7.19951981,8.5709312 C7.19951981,8.73042679 7.19951981,8.88992238 7.19951981,9.0481621 C7.19951981,9.2114253 7.21263768,9.38222373 7.19474967,9.54548693 C7.20071234,9.50153146 7.20667501,9.45632011 7.21144515,9.41236463 C7.20548248,9.45757598 7.19474967,9.50027559 7.17805419,9.54171932 C7.19355714,9.50153146 7.21025261,9.46134359 7.22575556,9.42115573 C7.20906008,9.46134359 7.188787,9.49901971 7.16374378,9.53543997 C7.188787,9.50153146 7.21383022,9.46762294 7.23887344,9.43371443 C7.21025261,9.47264643 7.17805419,9.50655494 7.14108563,9.53669584 C7.17328405,9.51032255 7.20548248,9.48394926 7.2376809,9.45757598 C7.20428994,9.48394926 7.16851392,9.50529907 7.12916029,9.52288126 C7.16732138,9.50655494 7.20548248,9.48897275 7.24364357,9.47264643 C7.20309741,9.48897275 7.16374378,9.50027559 7.12081255,9.50781081 C7.16255125,9.50153146 7.20548248,9.4952521 7.24722117,9.49022862 C7.17566912,9.49901971 7.101732,9.4952521 7.02898741,9.4952521 C6.87992064,9.4952521 6.73085386,9.4952521 6.58297962,9.4952521 C6.08569286,9.4952521 5.58959863,9.4952521 5.09231186,9.4952521 C4.48888956,9.4952521 3.88427471,9.4952521 3.28085241,9.4952521 C2.76090749,9.4952521 2.23977004,9.4952521 1.71982513,9.4952521 C1.47297055,9.4952521 1.2273085,9.49776384 0.980453923,9.4952521 C0.956603239,9.4952521 0.93156002,9.49399623 0.907709336,9.49022862 C0.949448033,9.49650797 0.992379265,9.50278733 1.03411796,9.50781081 C0.991186731,9.50153146 0.950640568,9.49022862 0.911286939,9.47264643 C0.949448033,9.48897275 0.987609128,9.50655494 1.02577022,9.52288126 C0.987609128,9.50529907 0.951833102,9.48394926 0.91724961,9.45757598 C0.949448033,9.48394926 0.981646457,9.51032255 1.01384488,9.53669584 C0.97687632,9.50655494 0.944677897,9.47264643 0.916057076,9.43371443 C0.941100294,9.46762294 0.966143512,9.50153146 0.991186731,9.53543997 C0.966143512,9.50027559 0.945870431,9.46259946 0.929174952,9.42115573 C0.944677897,9.46134359 0.961373375,9.50153146 0.97687632,9.54171932 C0.961373375,9.49901971 0.950640568,9.45632011 0.943485362,9.41236463 C0.949448033,9.45632011 0.955410704,9.50153146 0.960180841,9.54548693 C0.944677897,9.40231766 0.956603239,9.25286904 0.956603239,9.10969977 C0.956603239,8.93764547 0.956603239,8.76559117 0.956603239,8.59353687 C0.956603239,8.47422914 0.96256591,8.35617729 0.97687632,8.23812543 C0.970913649,8.28208091 0.964950978,8.32729226 0.960180841,8.37124774 C0.988801662,8.14644687 1.04485077,7.92792535 1.12832816,7.71945079 C1.11282522,7.75963866 1.09612974,7.79982653 1.0806268,7.84001439 C1.16052659,7.64158681 1.26427706,7.45571793 1.38830062,7.28366363 C1.3632574,7.31757214 1.33821418,7.35148065 1.31317097,7.38538916 C1.44077213,7.21207899 1.58864637,7.05635101 1.75321609,6.92197284 C1.72101766,6.94834613 1.68881924,6.97471941 1.65662082,7.0010927 C1.81880547,6.87048214 1.99649307,6.76122138 2.18491347,6.67707803 C2.14675238,6.69340435 2.10859128,6.71098654 2.07043019,6.72731286 C2.26839087,6.63940191 2.47589182,6.58037598 2.68935544,6.55023508 C2.64761674,6.55651444 2.60468551,6.56279379 2.56294681,6.56781727 C2.72036133,6.54646747 2.87658331,6.54646747 3.03399783,6.54646747 C3.2319585,6.54646747 3.42991918,6.54646747 3.62907239,6.54646747 C4.10131594,6.54646747 4.57355948,6.54646747 5.04580303,6.54646747 C5.23183837,6.54646747 5.4178737,6.54395573 5.60390904,6.56907314 C5.56217034,6.56279379 5.51923911,6.55651444 5.47750041,6.55149095 C5.68738643,6.58288772 5.89130978,6.64191365 6.08688539,6.72731286 C6.0487243,6.71098654 6.0105632,6.69340435 5.97240211,6.67707803 C6.16201505,6.76247725 6.33970264,6.87299388 6.50427236,7.00486031 C6.47207394,6.97848702 6.43987552,6.95211374 6.40767709,6.92574045 C6.57105428,7.06011863 6.71773599,7.21459073 6.84533715,7.3879009 C6.82029393,7.35399239 6.79525071,7.32008388 6.77020749,7.28617537 C6.89303852,7.45571793 6.99559646,7.64033093 7.07549625,7.83750265 C7.0599933,7.79731478 7.04329783,7.75712692 7.02779488,7.71693905 C7.11007974,7.92415773 7.16732138,8.14142338 7.1959422,8.36496838 C7.18997953,8.32101291 7.18401686,8.27580156 7.17924672,8.23184608 C7.1923646,8.34487445 7.19951981,8.45790282 7.19951981,8.5709312 C7.20071234,8.83340819 7.41775357,9.08583822 7.67653349,9.07327951 C7.93412088,9.06072081 8.15473971,8.85224625 8.15354717,8.5709312 C8.15235464,8.23561369 8.1022682,7.89150509 7.99374759,7.57628152 C7.93650595,7.40799484 7.86733896,7.24221989 7.7850541,7.08649191 C7.70276924,6.93076393 7.60259637,6.78885053 7.49765336,6.64944888 C7.10411707,6.12700662 6.5090425,5.7452219 5.88892471,5.6120996 C5.58721356,5.54679432 5.28908001,5.5430267 4.98379125,5.5430267 C4.65942195,5.5430267 4.33624518,5.5430267 4.01187587,5.5430267 C3.70420205,5.5430267 3.39533569,5.5430267 3.08766186,5.5430267 C2.78237311,5.5430267 2.47946942,5.55558541 2.18133587,5.63219353 C1.10924762,5.90722923 0.223194702,6.88304084 0.0490847079,8.03718611 C-0.00696439976,8.41269147 0.00257587388,8.7856851 0.00257587388,9.16495808 C0.00257587388,9.28552168 -0.00457933135,9.40859702 0.0049609423,9.52916061 C0.0240414896,9.77782303 0.108711418,9.98880933 0.266125933,10.1771899 C0.385379354,10.3191033 0.572607224,10.4346435 0.750294821,10.4723196 C0.89459146,10.5024605 1.02934783,10.4999487 1.174837,10.4999487 C1.37279768,10.4999487 1.57195089,10.4999487 1.76991157,10.4999487 C2.40314723,10.4999487 3.03519036,10.4999487 3.66842602,10.4999487 C4.36367346,10.4999487 5.05892091,10.4999487 5.75416835,10.4999487 C6.19302094,10.4999487 6.63306606,10.4999487 7.07191865,10.4999487 C7.10650214,10.4999487 7.14108563,10.4999487 7.17566912,10.4999487 C7.43802665,10.4986929 7.70753938,10.3894321 7.88641951,10.1822134 C8.04741163,9.99634455 8.13327409,9.7790789 8.15235464,9.52916061 C8.15593224,9.48646101 8.15473971,9.4437614 8.15473971,9.39980592 C8.15473971,9.23151923 8.15473971,9.06323255 8.15473971,8.89494586 C8.15473971,8.78694097 8.15473971,8.67893608 8.15473971,8.5709312 C8.15473971,8.3084542 7.93531341,8.05602417 7.67772602,8.06858288 C7.41775357,8.07988571 7.19951981,8.28836027 7.19951981,8.5709312 Z" id="Path"></path>
                        <path d="M11.0454426,7.91034316 C11.0454426,8.05602417 11.0454426,8.20170518 11.0454426,8.34738619 C11.0454426,8.49432308 11.0549829,8.64628344 11.0430576,8.79322033 C11.0490202,8.74926485 11.0549829,8.7040535 11.059753,8.66009802 C11.0561754,8.68772718 11.0502128,8.71410047 11.0406725,8.74047375 C11.0561754,8.70028589 11.0728709,8.66009802 11.0883739,8.61991016 C11.077641,8.64502757 11.0657157,8.66763325 11.0502128,8.69023892 C11.075256,8.65633041 11.1002992,8.6224219 11.1253424,8.58851339 C11.1086469,8.60986319 11.0919515,8.62870125 11.0716784,8.64502757 C11.1038768,8.61865429 11.1360752,8.592281 11.1682736,8.56590771 C11.146808,8.58223403 11.1253424,8.59479274 11.1014917,8.60609558 C11.1396528,8.58976926 11.1778139,8.57218707 11.215975,8.55586075 C11.1909318,8.56590771 11.1658886,8.57218707 11.1396528,8.57595468 C11.1813915,8.56967532 11.2243228,8.56339597 11.2660614,8.55837249 C11.1420379,8.56967532 11.0144367,8.56088423 10.8904132,8.56088423 C10.60659,8.56088423 10.3239594,8.56088423 10.0401363,8.56088423 C9.39974542,8.56088423 8.76054708,8.56088423 8.12015621,8.56088423 C7.97228197,8.56088423 7.82440773,8.56088423 7.67534095,8.56088423 C7.833948,8.72791505 7.99374759,8.89620173 8.15235464,9.06323255 C8.15235464,8.81331426 8.16427998,8.55962836 8.14042929,8.31096594 C8.08915032,7.77973259 7.92696567,7.25854621 7.62525452,6.82401492 C7.53462192,6.69466022 7.43921918,6.5665614 7.33308364,6.45102129 C7.22098542,6.33045769 7.0981544,6.22747629 6.97055324,6.12449488 C7.00275166,6.38697188 7.03495009,6.65070475 7.06714851,6.91318174 C7.09576933,6.88680846 7.12439015,6.86169104 7.15420351,6.8378295 C7.12200508,6.86420278 7.08980666,6.89057607 7.05760824,6.91694936 C7.17328405,6.82401492 7.29850015,6.7474068 7.43206398,6.687125 C7.39390288,6.70345132 7.35574179,6.72103351 7.31758069,6.73735983 C7.45472213,6.67707803 7.59782623,6.6356343 7.74450794,6.61302862 C7.70276924,6.61930798 7.65983801,6.62558733 7.61809931,6.63061081 C7.74570047,6.61302862 7.8721091,6.61302862 8.00090279,6.61302862 C8.16666505,6.61302862 8.3324273,6.61302862 8.49818956,6.61302862 C8.87860797,6.61302862 9.25783385,6.61302862 9.63825226,6.61302862 C9.77539369,6.61302862 9.91134259,6.61051688 10.048484,6.62935494 C10.0067453,6.62307559 9.9638141,6.61679623 9.9220754,6.61177275 C10.0711422,6.63437843 10.2154388,6.67582216 10.3549653,6.73610396 C10.3168042,6.71977764 10.2786431,6.70219545 10.240482,6.68586913 C10.3752384,6.7474068 10.5028396,6.82527079 10.6185154,6.9194611 C10.586317,6.89308781 10.5541185,6.86671452 10.5219201,6.84034124 C10.6375959,6.93453155 10.7401539,7.04379231 10.8295939,7.1643559 C10.8045507,7.13044739 10.7795075,7.09653888 10.7544643,7.06263037 C10.8439043,7.18570571 10.9178415,7.31882801 10.9762756,7.46074141 C10.9607727,7.42055355 10.9440772,7.38036568 10.9285743,7.34017781 C10.9870084,7.48585883 11.0263621,7.63907506 11.0466352,7.79605891 C11.0406725,7.75210344 11.0347098,7.70689209 11.0299397,7.66293661 C11.0406725,7.74707995 11.0454426,7.82871155 11.0454426,7.91034316 C11.0454426,8.03969785 11.0979141,8.17407602 11.1849691,8.26575459 C11.267254,8.35240968 11.4032029,8.41897083 11.5224563,8.41269147 C11.7800437,8.40013277 12.0006625,8.19165821 11.99947,7.91034316 C11.9970849,7.26105795 11.7299573,6.60674927 11.2565212,6.18352081 C11.0108591,5.96374342 10.7365763,5.79796847 10.4265174,5.70126642 C10.2214015,5.63721701 10.0019752,5.60958786 9.78851157,5.60958786 C9.1898594,5.60958786 8.59120722,5.60958786 7.99374759,5.60958786 C7.82440773,5.60958786 7.65983801,5.61837895 7.49049815,5.64475224 C7.07907385,5.70880165 6.70342558,5.91853207 6.39217415,6.20361474 C6.28007593,6.30659615 6.24191484,6.47739458 6.26099539,6.62558733 C6.26338045,6.69214848 6.282461,6.75494202 6.31704449,6.81271208 C6.35997573,6.88806433 6.41602483,6.94834613 6.48876942,6.99355747 C6.49353956,6.99732509 6.49830969,7.0010927 6.50307983,7.00486031 C6.47088141,6.97848702 6.43868298,6.95211374 6.40648456,6.92574045 C6.56986175,7.06011863 6.71654345,7.21459073 6.84414461,7.3879009 C6.81910139,7.35399239 6.79405818,7.32008388 6.76901496,7.28617537 C6.89184598,7.45571793 6.99440392,7.64033093 7.07430371,7.83750265 C7.05880077,7.79731478 7.04210529,7.75712692 7.02660235,7.71693905 C7.10888721,7.92415773 7.16612885,8.14142338 7.19474967,8.36496838 C7.188787,8.32101291 7.18282433,8.27580156 7.17805419,8.23184608 C7.21144515,8.50562591 7.19951981,8.7856851 7.19951981,9.06197668 C7.19951981,9.33324477 7.41775357,9.564325 7.67653349,9.564325 C7.86733896,9.564325 8.05933697,9.564325 8.25014244,9.564325 C8.66991448,9.564325 9.08968652,9.564325 9.50826603,9.564325 C9.91730526,9.564325 10.325152,9.564325 10.7341912,9.564325 C10.8617924,9.564325 10.9893935,9.564325 11.1169947,9.564325 C11.2577137,9.564325 11.3912775,9.55804564 11.5260339,9.49901971 C11.8134346,9.37092089 11.9911222,9.08583822 11.99947,8.75680007 C12.0006625,8.6952624 11.99947,8.63246886 11.99947,8.56967532 C11.99947,8.36371251 11.99947,8.1577497 11.99947,7.95178689 C11.99947,7.93671644 11.99947,7.92290186 11.99947,7.90783141 C11.99947,7.64535442 11.7800437,7.39292439 11.5224563,7.4054831 C11.2636764,7.42055355 11.0454426,7.6290281 11.0454426,7.91034316 Z" id="Path"></path>
                    </g>
                </g>
            </g>
        </g>
    </g>
</svg>