<?xml version="1.0" encoding="UTF-8"?>
<svg width="10px" height="12px" viewBox="0 0 10 12" version="1.1" xmlns="http://www.w3.org/2000/svg" xmlns:xlink="http://www.w3.org/1999/xlink">
    <title>noun_School_3529352</title>
    <g id="Page-1" stroke="none" stroke-width="1" fill="none" fill-rule="evenodd">
        <g id="Group-8-Copy-10" transform="translate(-30.000000, -507.000000)" fill="#000000" fill-rule="nonzero">
            <g id="Group-7" transform="translate(1.000000, 60.000000)">
                <g id="Group-2-Copy-9" transform="translate(19.000000, 435.000000)">
                    <g id="noun_School_3529352" transform="translate(10.000000, 12.000000)">
                        <path d="M1.78951416,7.68133333 C1.79335983,7.69866667 1.79464171,7.716 1.79464171,7.73333333 C1.79464171,7.75066667 1.79335983,7.76933333 1.78951416,7.78533333 C1.78695039,7.80266667 1.78182284,7.82 1.77541341,7.836 C1.76900397,7.852 1.76131265,7.86666667 1.75233944,7.88133333 C1.74208435,7.896 1.73182925,7.90933333 1.71901038,7.92133333 C1.67158057,7.972 1.60620433,8 1.53826433,8 C1.47032432,8 1.40494808,7.972 1.35623638,7.92133333 C1.3446994,7.90933333 1.3344443,7.896 1.32418921,7.88133333 C1.315216,7.86666667 1.30752468,7.852 1.30111524,7.836 C1.29470581,7.82 1.28957826,7.80266667 1.28701449,7.78533333 C1.28316882,7.76933333 1.28188694,7.75066667 1.28188694,7.73333333 C1.28188694,7.664 1.30880656,7.59466667 1.35623638,7.54533333 C1.4523779,7.44533333 1.62415075,7.44533333 1.71901038,7.54533333 C1.73182925,7.55733333 1.74208435,7.57066667 1.75105756,7.58533333 C1.76003077,7.6 1.76900397,7.61466667 1.77541341,7.63066667 C1.78182284,7.648 1.78695039,7.664 1.78951416,7.68133333 Z M1.77541341,8.964 C1.76900397,8.948 1.76003077,8.93333333 1.75105756,8.91866667 C1.74208435,8.904 1.73182925,8.89066667 1.72029227,8.87866667 C1.62415075,8.77866667 1.45365979,8.77866667 1.35623638,8.87866667 C1.3446994,8.89066667 1.3344443,8.904 1.32547109,8.91866667 C1.31649788,8.93333333 1.30752468,8.948 1.30111524,8.964 C1.29470581,8.98 1.28957826,8.99733333 1.28701449,9.01466667 C1.28316882,9.032 1.28188694,9.04933333 1.28188694,9.06666667 C1.28188694,9.084 1.28316882,9.10133333 1.28701449,9.11866667 C1.28957826,9.136 1.29470581,9.15333333 1.30111524,9.16933333 C1.30752468,9.18533333 1.315216,9.2 1.32418921,9.21466667 C1.3344443,9.22933333 1.3446994,9.24266667 1.35623638,9.25466667 C1.38059223,9.28 1.40879374,9.3 1.43955903,9.31333333 C1.4716062,9.32666667 1.50365338,9.33333333 1.53826433,9.33333333 C1.57287527,9.33333333 1.60492245,9.32666667 1.63696962,9.31333333 C1.66773491,9.3 1.69593642,9.28 1.72029227,9.25466667 C1.73182925,9.24266667 1.74208435,9.22933333 1.75233944,9.21466667 C1.76131265,9.2 1.76900397,9.18533333 1.77541341,9.16933333 C1.78182284,9.15333333 1.78695039,9.136 1.78951416,9.11866667 C1.79335983,9.10133333 1.79464171,9.084 1.79464171,9.06666667 C1.79464171,9.04933333 1.79335983,9.032 1.78951416,9.01466667 C1.78695039,8.99733333 1.78182284,8.98 1.77541341,8.964 Z M1.77541341,10.2973333 C1.76900397,10.2813333 1.76003077,10.2666667 1.75105756,10.252 C1.74208435,10.2373333 1.73182925,10.224 1.72029227,10.212 C1.7074734,10.1986667 1.69465453,10.188 1.68055378,10.1786667 C1.66645302,10.168 1.65235226,10.16 1.63696962,10.1533333 C1.62030509,10.1466667 1.60492245,10.1413333 1.58825792,10.1386667 C1.50493526,10.12 1.41648507,10.1493333 1.35751827,10.212 C1.30880656,10.2613333 1.28188694,10.3293333 1.28188694,10.4 C1.28188694,10.436 1.28829637,10.4693333 1.30111524,10.5026667 C1.31393411,10.5346667 1.33316242,10.564 1.35751827,10.588 C1.40494808,10.6386667 1.47032432,10.6666667 1.53826433,10.6666667 C1.60620433,10.6666667 1.67029868,10.6386667 1.72029227,10.588 C1.76772209,10.5373333 1.79464171,10.4706667 1.79464171,10.4 C1.79464171,10.3826667 1.79335983,10.3653333 1.78951416,10.348 C1.7856685,10.3306667 1.78182284,10.3133333 1.77541341,10.2973333 Z M9.99871811,6.4 L9.99871811,11.7333333 C9.99871811,11.88 9.88334829,12 9.74234073,12 L7.17856685,12 L5.89667991,12 L4.1020382,12 L2.82015126,12 L0.256377388,12 C0.115369824,12 0,11.88 0,11.7333333 L0,6.4 C0,6.39866667 0,6.39733333 0,6.39733333 C0,6.38666667 0.00128188694,6.37466667 0.00256377388,6.364 C0.00384566081,6.35733333 0.00384566081,6.35066667 0.00512754775,6.344 C0.00640943469,6.336 0.0102550955,6.328 0.0128188694,6.31866667 C0.0153826433,6.31066667 0.0179464171,6.30133333 0.020510191,6.29333333 C0.0230739649,6.288 0.0269196257,6.28266667 0.0294833996,6.276 C0.0346109473,6.26666667 0.0397384951,6.256 0.0461479298,6.24666667 C0.0461479298,6.24533333 0.0474298167,6.24533333 0.0474298167,6.244 L1.32931675,4.37733333 C1.37802846,4.308 1.45494167,4.26666667 1.53826433,4.26666667 L2.73298295,4.26666667 L4.74298167,2.668 L4.74298167,1.6 L4.74298167,0.933333333 L4.74298167,0.266666667 C4.74298167,0.12 4.85835149,0 4.99935906,0 L6.79400077,0 C6.93500833,0 7.05037816,0.12 7.05037816,0.266666667 L7.05037816,1.6 C7.05037816,1.74666667 6.93500833,1.86666667 6.79400077,1.86666667 L5.25573644,1.86666667 L5.25573644,2.668 L7.26573516,4.26666667 L8.46045379,4.26666667 C8.54377644,4.26666667 8.62068966,4.308 8.66940136,4.37866667 L9.9512883,6.24533333 C9.95257018,6.24666667 9.95257018,6.248 9.95257018,6.248 C9.95769773,6.256 9.96282528,6.26533333 9.96795283,6.27466667 C9.97179849,6.28133333 9.97564415,6.28666667 9.97820792,6.29333333 C9.9807717,6.30133333 9.98333547,6.30933333 9.98589924,6.316 C9.98846302,6.32533333 9.99230868,6.33333333 9.99359057,6.34266667 C9.99487245,6.348 9.99487245,6.35466667 9.99615434,6.36133333 C9.99743623,6.37333333 9.99871811,6.384 10,6.396 C9.99871811,6.39733333 9.99871811,6.39866667 9.99871811,6.4 Z M8.32841943,4.8 L7.43494424,4.8 L7.43494424,6.13333333 L9.24368671,6.13333333 L8.32841943,4.8 Z M5.25573644,0.933333333 L5.25573644,1.33333333 L6.53762338,1.33333333 L6.53762338,0.533333333 L5.25573644,0.533333333 L5.25573644,0.933333333 Z M0.755031406,6.13333333 L2.56377388,6.13333333 L2.56377388,4.8 L1.67029868,4.8 L0.755031406,6.13333333 Z M0.512754775,11.4666667 L2.56377388,11.4666667 L2.56377388,6.66666667 L0.512754775,6.66666667 L0.512754775,11.4666667 Z M3.07652865,11.4666667 L3.84566081,11.4666667 L3.84566081,9.06666667 C3.84566081,8.92 3.96103064,8.8 4.1020382,8.8 L5.89667991,8.8 C6.03768748,8.8 6.1530573,8.92 6.1530573,9.06666667 L6.1530573,11.4666667 L6.92218946,11.4666667 L6.92218946,6.4 L6.92218946,4.66533333 L4.99935906,3.136 L3.07652865,4.66533333 L3.07652865,6.4 L3.07652865,11.4666667 Z M5.64030253,11.4666667 L5.64030253,9.33333333 L4.35841559,9.33333333 L4.35841559,11.4666667 L5.64030253,11.4666667 Z M9.48596334,6.66666667 L7.43494424,6.66666667 L7.43494424,11.4666667 L9.48596334,11.4666667 L9.48596334,6.66666667 Z M8.46045379,8 C8.5283938,8 8.59248814,7.972 8.64119985,7.92133333 C8.68991155,7.872 8.71683118,7.804 8.71683118,7.73333333 C8.71683118,7.66266667 8.68991155,7.59466667 8.64119985,7.54533333 C8.62966286,7.532 8.61684399,7.52133333 8.60274324,7.512 C8.58864248,7.50266667 8.57454173,7.49333333 8.55915908,7.48666667 C8.54249455,7.48 8.52711191,7.47466667 8.51044738,7.472 C8.42712473,7.45466667 8.33867453,7.48266667 8.27970773,7.54533333 C8.23099603,7.59466667 8.2040764,7.66266667 8.2040764,7.73333333 C8.2040764,7.804 8.23099603,7.87066667 8.27970773,7.92133333 C8.32713755,7.972 8.39251378,8 8.46045379,8 Z M8.46045379,9.33333333 C8.5283938,9.33333333 8.59248814,9.30533333 8.64119985,9.25466667 C8.68991155,9.20533333 8.71683118,9.13733333 8.71683118,9.06666667 C8.71683118,9.04933333 8.71554929,9.032 8.71170363,9.01466667 C8.70913985,8.99733333 8.70401231,8.98 8.69760287,8.964 C8.69119344,8.948 8.68222023,8.93333333 8.67324702,8.91866667 C8.66427381,8.904 8.65401872,8.89066667 8.64119985,8.87866667 C8.62966286,8.86533333 8.61684399,8.85466667 8.60274324,8.84533333 C8.58864248,8.836 8.57454173,8.82666667 8.55915908,8.82 C8.54249455,8.81333333 8.52711191,8.808 8.51044738,8.80533333 C8.42712473,8.788 8.33867453,8.816 8.27970773,8.87866667 C8.23099603,8.928 8.2040764,8.996 8.2040764,9.06666667 C8.2040764,9.13733333 8.23099603,9.20533333 8.27970773,9.25466667 C8.32713755,9.30533333 8.39251378,9.33333333 8.46045379,9.33333333 Z M8.27970773,10.588 C8.30278169,10.6133333 8.33098321,10.6333333 8.36174849,10.6466667 C8.39379567,10.66 8.42584284,10.6666667 8.46045379,10.6666667 C8.5283938,10.6666667 8.59248814,10.6386667 8.64119985,10.588 C8.6655557,10.564 8.684784,10.5346667 8.69760287,10.5026667 C8.71042174,10.4693333 8.71683118,10.436 8.71683118,10.4 C8.71683118,10.3826667 8.71554929,10.3653333 8.71170363,10.348 C8.70785797,10.3306667 8.70401231,10.3133333 8.69760287,10.2973333 C8.69119344,10.2813333 8.68222023,10.2666667 8.67324702,10.252 C8.66427381,10.2373333 8.65401872,10.224 8.64119985,10.212 C8.62966286,10.1986667 8.61684399,10.188 8.60274324,10.1786667 C8.58864248,10.168 8.57454173,10.16 8.5578772,10.1533333 C8.54249455,10.1466667 8.52711191,10.1413333 8.51044738,10.1386667 C8.42712473,10.12 8.33867453,10.1493333 8.27970773,10.212 C8.23099603,10.2613333 8.2040764,10.3293333 8.2040764,10.4 C8.2040764,10.436 8.21048584,10.4693333 8.2233047,10.5026667 C8.23612357,10.5346667 8.25535188,10.564 8.27970773,10.588 Z M3.97384951,5.73333333 C3.97384951,5.14533333 4.43404692,4.66666667 4.99935906,4.66666667 C5.5646712,4.66666667 6.02486861,5.14533333 6.02486861,5.73333333 C6.02486861,6.32133333 5.5646712,6.8 4.99935906,6.8 C4.43404692,6.8 3.97384951,6.32133333 3.97384951,5.73333333 Z M4.48660428,5.73333333 C4.48660428,6.028 4.71606204,6.26666667 4.99935906,6.26666667 C5.28265607,6.26666667 5.51211383,6.028 5.51211383,5.73333333 C5.51211383,5.43866667 5.28265607,5.2 4.99935906,5.2 C4.71606204,5.2 4.48660428,5.43866667 4.48660428,5.73333333 Z" id="Shape"></path>
                    </g>
                </g>
            </g>
        </g>
    </g>
</svg>