<?xml version="1.0" encoding="UTF-8"?>
<svg width="12px" height="16px" viewBox="0 0 12 16" version="1.1" xmlns="http://www.w3.org/2000/svg" xmlns:xlink="http://www.w3.org/1999/xlink">
    <title>Group</title>
    <g id="Page-1" stroke="none" stroke-width="1" fill="none" fill-rule="evenodd">
        <g id="Group-8-Copy-10" transform="translate(-30.000000, -334.000000)" fill="#000000" fill-rule="nonzero">
            <g id="Group-7" transform="translate(1.000000, 60.000000)">
                <g id="Group-2-Copy-5" transform="translate(19.000000, 263.000000)">
                    <g id="Group" transform="translate(10.000000, 11.000000)">
                        <path d="M10.8498462,0 L1.15015385,0 C0.514941417,0 6.55885602e-16,0.514941417 6.55885602e-16,1.15015385 L6.55885602e-16,14.2578462 C6.55885602e-16,14.8930586 0.514941417,15.408 1.15015385,15.408 L10.8498462,15.408 C11.4850586,15.408 12,14.8930586 12,14.2578462 L12,1.15015385 C12,0.84511408 11.8788234,0.552567949 11.6631277,0.336872262 C11.4474321,0.121176575 11.1548859,0 10.8498462,0 Z M6.73846154,0.876923077 L8.95384615,0.876923077 L8.95384615,4.95138462 L8.064,4.30153846 C7.93424501,4.2067216 7.75806268,4.2067216 7.62830769,4.30153846 L6.73846154,4.95138462 L6.73846154,0.876923077 Z M11.2615385,14.2652308 C11.2615385,14.4926022 11.0772175,14.6769231 10.8498462,14.6769231 L1.15015385,14.6769231 C0.922782463,14.6769231 0.738461538,14.4926022 0.738461538,14.2652308 L0.738461538,1.15753846 C0.738461538,0.930167078 0.922782463,0.745846154 1.15015385,0.745846154 L6,0.745846154 L6,5.67692308 C6.00006814,5.81555235 6.07778257,5.94246215 6.20123077,6.00553846 C6.32511847,6.06927685 6.47433502,6.05785357 6.58707692,5.976 L7.84615385,5.05292308 L9.10523077,5.976 C9.16858308,6.02186732 9.24486408,6.04643239 9.32307692,6.04615385 C9.38150159,6.04609768 9.43907897,6.03217787 9.49107692,6.00553846 C9.61452513,5.94246215 9.69223956,5.81555235 9.69230769,5.67692308 L9.69230769,0.738461538 L10.8498462,0.738461538 C11.0772175,0.738461538 11.2615385,0.922782463 11.2615385,1.15015385 L11.2615385,14.2652308 Z" id="Shape"></path>
                        <path d="M2.49230769,6.96923077 C2.28838717,6.96923077 2.12307692,7.13454102 2.12307692,7.33846154 L2.12307692,8.07692308 C2.12307692,8.2808436 2.28838717,8.44615385 2.49230769,8.44615385 C2.69622822,8.44615385 2.86153846,8.2808436 2.86153846,8.07692308 L2.86153846,7.33846154 C2.86153846,7.13454102 2.69622822,6.96923077 2.49230769,6.96923077 Z" id="Path"></path>
                        <path d="M2.49230769,2.90769231 C2.28838717,2.90769231 2.12307692,3.07300255 2.12307692,3.27692308 L2.12307692,4.01538462 C2.12307692,4.21930514 2.28838717,4.38461538 2.49230769,4.38461538 C2.69622822,4.38461538 2.86153846,4.21930514 2.86153846,4.01538462 L2.86153846,3.27692308 C2.86153846,3.07300255 2.69622822,2.90769231 2.49230769,2.90769231 Z" id="Path"></path>
                        <path d="M2.49230769,11.0307692 C2.28838717,11.0307692 2.12307692,11.1960795 2.12307692,11.4 L2.12307692,12.1384615 C2.12307692,12.3423821 2.28838717,12.5076923 2.49230769,12.5076923 C2.69622822,12.5076923 2.86153846,12.3423821 2.86153846,12.1384615 L2.86153846,11.4 C2.86153846,11.1960795 2.69622822,11.0307692 2.49230769,11.0307692 Z" id="Path"></path>
                    </g>
                </g>
            </g>
        </g>
    </g>
</svg>