<?xml version="1.0" encoding="UTF-8"?>
<svg width="13px" height="11px" viewBox="0 0 13 11" version="1.1" xmlns="http://www.w3.org/2000/svg" xmlns:xlink="http://www.w3.org/1999/xlink">
    <title>Group 11</title>
    <g id="Page-1" stroke="none" stroke-width="1" fill="none" fill-rule="evenodd">
        <g id="Group-8-Copy-10" transform="translate(-29.000000, -550.000000)" fill="#000000" fill-rule="nonzero">
            <g id="Group-7" transform="translate(1.000000, 60.000000)">
                <g id="Group-2-Copy-10" transform="translate(19.000000, 478.000000)">
                    <g id="Group-11" transform="translate(9.500000, 12.000000)">
                        <circle id="Oval" cx="9.87963949" cy="1.16160617" r="1"></circle>
                        <circle id="Oval" cx="9.13524456" cy="1.16160617" r="1"></circle>
                        <circle id="Oval" cx="8.39084963" cy="1.16160617" r="1"></circle>
                        <path d="M11.0627962,6.34424491 C10.95924,6.34424491 10.8752911,6.42819377 10.8752911,6.53174993 L10.8752911,9.8440261 C10.8711997,10.0020345 10.7408306,10.1273893 10.5827833,10.1252836 L0.66751787,10.1252836 C0.509470563,10.1273893 0.379101502,10.0020345 0.375010039,9.8440261 L0.375010039,2.25007281 L10.8752911,2.25007281 L10.8752911,2.90634037 C10.8752911,3.00989654 10.95924,3.09384539 11.0627962,3.09384539 C11.1663523,3.09384539 11.2503012,3.00989654 11.2503012,2.90634037 L11.2503012,0.656280138 C11.2456721,0.291374566 10.9477149,-0.001560945 10.5827833,6.25913757e-06 L0.66751787,6.25913757e-06 C0.302586331,-0.001560945 0.00462906802,0.291374566 0,0.656280138 L0,9.8440261 C0.00462906802,10.2089317 0.302586331,10.5018672 0.66751787,10.5003 L10.5827833,10.5003 C10.9477149,10.5018672 11.2456721,10.2089317 11.2503012,9.8440261 L11.2503012,6.53174993 C11.2503012,6.42819377 11.1663523,6.34424491 11.0627962,6.34424491 Z M0.66751787,0.375022608 L10.5827833,0.375022608 C10.7408306,0.3729169 10.8711997,0.498271767 10.8752911,0.656280138 L10.8752911,1.87506277 L0.375010039,1.87506277 L0.375010039,0.656280138 C0.379101502,0.498271767 0.509470563,0.3729169 0.66751787,0.375022608 Z" id="Shape"></path>
                        <path d="M5.43764557,7.50021336 L1.31253514,7.50021336 C1.20897897,7.50021336 1.12503012,7.58416221 1.12503012,7.68771838 C1.12503012,7.79127454 1.20897897,7.8752234 1.31253514,7.8752234 L5.43764557,7.8752234 C5.54120173,7.8752234 5.62515059,7.79127454 5.62515059,7.68771838 C5.62515059,7.58416221 5.54120173,7.50021336 5.43764557,7.50021336 Z" id="Path"></path>
                        <path d="M5.43764557,8.62524347 L1.31253514,8.62524347 C1.20897897,8.62524347 1.12503012,8.70919233 1.12503012,8.81274849 C1.12503012,8.91630466 1.20897897,9.00025351 1.31253514,9.00025351 L5.43764557,9.00025351 C5.54120173,9.00025351 5.62515059,8.91630466 5.62515059,8.81274849 C5.62515059,8.70919233 5.54120173,8.62524347 5.43764557,8.62524347 Z" id="Path"></path>
                        <path d="M9.00024095,3.56260794 C9.00024095,3.45905178 8.91629209,3.37510292 8.81273593,3.37510292 L6.56267569,3.37510292 C6.45911953,3.37510292 6.37517067,3.45905178 6.37517067,3.56260794 C6.37517067,3.66616411 6.45911953,3.75011296 6.56267569,3.75011296 L8.81273593,3.75011296 C8.91629209,3.75011296 9.00024095,3.66616411 9.00024095,3.56260794 Z" id="Path"></path>
                        <path d="M6.56267569,4.50013304 C6.45911953,4.50013304 6.37517067,4.5840819 6.37517067,4.68763806 C6.37517067,4.79119422 6.45911953,4.87514308 6.56267569,4.87514308 L8.06271585,4.87514308 C8.16627201,4.87514308 8.25022087,4.79119422 8.25022087,4.68763806 C8.25022087,4.5840819 8.16627201,4.50013304 8.06271585,4.50013304 L6.56267569,4.50013304 Z" id="Path"></path>
                        <path d="M10.8162271,3.42572928 C10.7810571,3.39052014 10.7333328,3.37073656 10.6835673,3.37073656 C10.6338017,3.37073656 10.5860774,3.39052014 10.5509075,3.42572928 L6.85987115,7.11676559 C6.83708991,7.13968648 6.82061937,7.16810622 6.81205737,7.1992678 L6.38173335,8.75930956 C6.36377837,8.82436784 6.38217217,8.894056 6.42989513,8.94177895 C6.47761808,8.98950191 6.54730624,9.00789571 6.61236452,8.98994074 L8.17146876,8.55961672 C8.20263034,8.55105471 8.23105008,8.53458418 8.25397097,8.51180294 L11.9450073,4.82076663 C11.9802164,4.78559664 12,4.73787239 12,4.68810682 C12,4.63834126 11.9802164,4.59061701 11.9450073,4.55544702 L10.8162271,3.42572928 Z M6.95456118,8.08897912 L7.28175744,8.41617538 L6.82987034,8.54086622 L6.95456118,8.08897912 Z M8.02333979,8.21085738 L7.69708106,8.30460989 L7.06893924,7.67646807 L7.16269175,7.35020934 L9.93776604,4.57044742 L10.8012267,5.43765814 L8.02333979,8.21085738 Z M11.0627962,5.16952596 L10.198398,4.30512782 L10.6877861,3.82323992 L11.5474966,4.68763806 L11.0627962,5.16952596 Z" id="Shape"></path>
                        <path d="M5.62515059,3.56260794 C5.62515059,3.56260794 5.62515059,3.56260794 5.62515059,3.56260794 C5.62560101,3.5551145 5.62560101,3.54760078 5.62515059,3.54010734 C5.62515059,3.53541972 5.62515059,3.52979456 5.62515059,3.52510694 C5.62360331,3.51876309 5.6217257,3.51250439 5.61952544,3.50635644 C5.61952544,3.50073129 5.61952544,3.49510614 5.61390029,3.48948099 C5.60827514,3.48385583 5.60827514,3.48010573 5.60640009,3.47448058 C5.60329123,3.46835858 5.59984845,3.46241197 5.59608731,3.45666761 L5.59608731,3.45666761 L5.58671206,3.44635483 L5.57358671,3.43135443 L5.55858631,3.4191666 L5.54452343,3.40885383 L5.52764798,3.39947858 L5.51171005,3.39197837 L5.49295955,3.38635322 L5.4760841,3.38635322 L5.45452102,3.38635322 L1.30034731,3.38635322 L1.27878423,3.38635322 L1.26284631,3.38635322 L1.24409581,3.39197837 L1.2290954,3.39947858 L1.21221995,3.40885383 L1.19815708,3.4191666 L1.18315667,3.43135443 L1.17003132,3.44541731 L1.16065607,3.45573008 L1.16065607,3.45573008 C1.15689493,3.46147444 1.15345215,3.46742106 1.1503433,3.47354306 C1.1503433,3.47823068 1.14471815,3.48291831 1.1428431,3.48854346 C1.14096804,3.49416861 1.1428431,3.49979376 1.13721794,3.50541891 C1.13501768,3.51156687 1.13314007,3.51782556 1.13159279,3.52416941 C1.13159279,3.52885704 1.13159279,3.53448219 1.13159279,3.53916982 C1.12889993,3.54683215 1.12670776,3.55466135 1.12503012,3.56260794 C1.12503012,3.56260794 1.12503012,3.56260794 1.12503012,3.56260794 L1.12503012,6.56268826 C1.12503012,6.56268826 1.12503012,6.56268826 1.12503012,6.56268826 C1.1245797,6.5701817 1.1245797,6.57769542 1.12503012,6.58518886 C1.12503012,6.58987649 1.12503012,6.59550164 1.12503012,6.60018926 C1.1265774,6.60653311 1.12845501,6.61279181 1.13065527,6.61893976 C1.13065527,6.62456491 1.13065527,6.63019007 1.13628042,6.63581522 C1.14190557,6.64144037 1.14190557,6.64519047 1.14378062,6.65081562 C1.14688948,6.65693762 1.15033226,6.66288423 1.1540934,6.66862859 L1.1540934,6.66862859 L1.16065607,6.67519127 C1.16664827,6.6828798 1.1732309,6.69008934 1.1803441,6.69675435 L1.19253193,6.7061296 L1.214095,6.72019247 L1.22722035,6.72675515 L1.25440858,6.73706793 L1.26472136,6.73706793 C1.280008,6.7435403 1.29608647,6.747954 1.31253514,6.75019328 L5.43764557,6.75019328 C5.45121345,6.75009392 5.46473047,6.74852218 5.47795915,6.74550565 L5.48827193,6.74550565 L5.51546015,6.73519288 L5.52858551,6.7286302 L5.55014858,6.71456732 L5.56233641,6.70519207 C5.56944961,6.69852707 5.57603224,6.69131752 5.58202444,6.683629 L5.58858711,6.67706632 L5.58858711,6.67706632 C5.59234825,6.67132196 5.59579103,6.66537534 5.59889989,6.65925334 C5.59889989,6.65456572 5.60452504,6.64987809 5.60640009,6.64425294 C5.60827514,6.63862779 5.60640009,6.63300264 5.61202524,6.62737749 C5.6142255,6.62122953 5.61610311,6.61497084 5.61765039,6.60862699 C5.61765039,6.60393936 5.61765039,6.59925174 5.61765039,6.59362659 C5.62102297,6.58354507 5.62353207,6.573195 5.62515059,6.56268826 C5.62515059,6.56268826 5.62515059,6.56268826 5.62515059,6.56268826 L5.62515059,3.56260794 Z M1.50004016,3.93105531 L3.05633182,5.0626481 L1.50004016,6.19424089 L1.50004016,3.93105531 Z M1.88911307,3.75011296 L4.86106764,3.75011296 L3.37509035,4.8310794 L1.88911307,3.75011296 Z M3.37509035,5.2942168 L4.86106764,6.37518324 L1.88911307,6.37518324 L3.37509035,5.2942168 Z M3.69384889,5.0626481 L5.25014055,3.93105531 L5.25014055,6.19424089 L3.69384889,5.0626481 Z" id="Shape"></path>
                    </g>
                </g>
            </g>
        </g>
    </g>
</svg>