<?xml version="1.0" encoding="UTF-8"?>
<svg width="16px" height="20px" viewBox="0 0 16 20" version="1.1" xmlns="http://www.w3.org/2000/svg" xmlns:xlink="http://www.w3.org/1999/xlink">
    <title>Group</title>
    <g id="Page-1" stroke="none" stroke-width="1" fill="none" fill-rule="evenodd">
        <g id="Group-8-Copy-10" transform="translate(-1322.000000, -18.000000)" fill="#000000" fill-rule="nonzero">
            <g id="Group-6" transform="translate(1322.000000, 12.000000)">
                <g id="Group" transform="translate(0.000000, 6.000000)">
                    <path d="M15.5203964,13.9235052 L14.0077297,11.9338245 C13.9811922,11.8984646 13.9668468,11.8554569 13.9668468,11.811257 L13.9668468,6.19357547 C14.0036,2.92993763 11.4743576,0.210149145 8.21462526,0.0079974522 C6.55964354,-0.0771598616 4.94229549,0.520675938 3.74111546,1.66158359 C2.53993542,2.80249124 1.86035422,4.38633018 1.86142533,6.04240877 L1.86142533,12.0196219 C1.86142533,12.0638218 1.84707996,12.1068295 1.82054245,12.1421895 L0.479583902,13.9235052 C-0.0105869025,14.4613691 -0.137293094,15.2374888 0.156394478,15.9031533 C0.450082049,16.5688177 1.10892136,16.9988168 1.8368956,16.9999761 L14.1508198,16.9999761 C14.8810191,17.0036861 15.5443118,16.5754968 15.8411243,15.9087741 C16.1379368,15.2420514 16.0120799,14.4630116 15.5203964,13.9235052 L15.5203964,13.9235052 Z M14.7027387,15.3943163 C14.6080956,15.6191866 14.3867429,15.7645046 14.1426432,15.7620505 L1.8368956,15.7620505 C1.5971369,15.7575772 1.38196546,15.6138861 1.28612597,15.394216 C1.19028648,15.1745459 1.23136439,14.9192038 1.39127218,14.7406225 L1.43624335,14.6875099 L2.81399649,12.8735095 C2.99403112,12.6253273 3.09000298,12.3261503 3.0879118,12.0196219 L3.0879118,6.04240877 C3.08790442,4.76313275 3.59754754,3.53648975 4.50426338,2.63343949 C5.41097922,1.73038924 6.64015391,1.22524393 7.92026851,1.22956004 L8.15738922,1.22956004 C10.7638085,1.40115468 12.7786592,3.58351491 12.7403603,6.19357547 L12.7403603,11.8316849 C12.7403583,12.1442512 12.8422563,12.448309 13.0306288,12.6978292 L14.5596486,14.7079378 L14.6005315,14.7528793 C14.7687197,14.9304741 14.8123758,15.1922377 14.7109153,15.4147443 L14.7027387,15.3943163 Z" id="Shape"></path>
                    <path d="M10.8728886,18.4307856 C10.2700842,19.4291212 9.40755177,20 8.50198568,20 C7.59641959,20 6.73388715,19.4291212 6.13108279,18.4307856 C5.93313869,18.0663284 5.96250993,17.5368753 6.19797935,17.2248917 C6.43344878,16.9129082 6.79291022,16.9271802 7.01669643,17.2573981 C7.39349156,17.8828461 7.93324082,18.2406263 8.5,18.2406263 C9.06675918,18.2406263 9.60650844,17.8828461 9.98330357,17.2573981 C10.2070898,16.9271802 10.5665512,16.9129082 10.8020206,17.2248917 C11.0374901,17.5368753 11.0668613,18.0663284 10.8689172,18.4307856 L10.8728886,18.4307856 Z" id="Path"></path>
                </g>
            </g>
        </g>
    </g>
</svg>